M48
; DRILL file {KiCad (5.1.5)-2} date 2020-01-08 1:09:36 PM
; FORMAT={2:4/ absolute / inch / keep zeros}
; #@! TF.CreationDate,2020-01-08T13:09:36+10:00
; #@! TF.GenerationSoftware,Kicad,Pcbnew,(5.1.5)-2
FMAT,2
INCH
T1C0.0118
T2C0.0197
T3C0.0433
T4C0.1260
%
G90
G05
T1
X270512Y-145551
X271142Y-145551
X271811Y-145551
X273228Y-144882
X273228Y-145669
X273228Y-146457
X273228Y-147244
X273228Y-148031
X274016Y-144882
X274016Y-145669
X274016Y-146457
X274016Y-147244
X274016Y-148031
X274803Y-144882
X274803Y-145669
X274803Y-146457
X274803Y-147244
X274803Y-148031
X275591Y-144882
X275591Y-145669
X275591Y-146457
X275591Y-147244
X275591Y-148031
X276378Y-144882
X276378Y-145669
X276378Y-146457
X276378Y-147244
X276378Y-148031
X280870Y-154484
X281142Y-152520
X281142Y-153425
X282598Y-153031
T2
X268500Y-153500
X270000Y-153500
T3
X279606Y-146063
X279606Y-147063
X280606Y-146063
X280606Y-147063
X266520Y-146087
X266520Y-147087
X267520Y-146087
X267520Y-147087
X266000Y-150500
X266000Y-156500
X267000Y-150500
X267000Y-151500
X267000Y-156500
X268000Y-150500
X268000Y-156500
X269000Y-150500
X269000Y-151500
X269000Y-156500
X270000Y-150500
X270000Y-151500
X270000Y-156500
X271000Y-150500
X271000Y-151500
X271000Y-156500
X272000Y-150500
X272000Y-156500
X273000Y-150500
X273000Y-156500
X274000Y-150500
X274000Y-156500
X275000Y-150500
X275000Y-156500
X276000Y-150500
X276000Y-156500
X277000Y-150500
X277000Y-156500
X278000Y-150500
X278000Y-156500
X279000Y-150500
X279000Y-151500
X279000Y-152500
X279000Y-153500
X279000Y-154500
X279000Y-155500
X279000Y-156500
T4
X264173Y-149409
X283071Y-149409
T0
M30
