G04 #@! TF.GenerationSoftware,KiCad,Pcbnew,(5.1.5)-2*
G04 #@! TF.CreationDate,2020-01-08T13:09:33+10:00*
G04 #@! TF.ProjectId,teensy-carrier,7465656e-7379-42d6-9361-72726965722e,rev?*
G04 #@! TF.SameCoordinates,Original*
G04 #@! TF.FileFunction,Legend,Top*
G04 #@! TF.FilePolarity,Positive*
%FSLAX46Y46*%
G04 Gerber Fmt 4.6, Leading zero omitted, Abs format (unit mm)*
G04 Created by KiCad (PCBNEW (5.1.5)-2) date 2020-01-08 13:09:33*
%MOMM*%
%LPD*%
G04 APERTURE LIST*
%ADD10C,0.150000*%
%ADD11C,0.100000*%
%ADD12C,0.120000*%
G04 APERTURE END LIST*
D10*
X670190476Y-382952380D02*
X670190476Y-381952380D01*
X670523809Y-382666666D01*
X670857142Y-381952380D01*
X670857142Y-382952380D01*
X671238095Y-381952380D02*
X671857142Y-381952380D01*
X671523809Y-382333333D01*
X671666666Y-382333333D01*
X671761904Y-382380952D01*
X671809523Y-382428571D01*
X671857142Y-382523809D01*
X671857142Y-382761904D01*
X671809523Y-382857142D01*
X671761904Y-382904761D01*
X671666666Y-382952380D01*
X671380952Y-382952380D01*
X671285714Y-382904761D01*
X671238095Y-382857142D01*
X714690476Y-379952380D02*
X714690476Y-378952380D01*
X715023809Y-379666666D01*
X715357142Y-378952380D01*
X715357142Y-379952380D01*
X715738095Y-378952380D02*
X716357142Y-378952380D01*
X716023809Y-379333333D01*
X716166666Y-379333333D01*
X716261904Y-379380952D01*
X716309523Y-379428571D01*
X716357142Y-379523809D01*
X716357142Y-379761904D01*
X716309523Y-379857142D01*
X716261904Y-379904761D01*
X716166666Y-379952380D01*
X715880952Y-379952380D01*
X715785714Y-379904761D01*
X715738095Y-379857142D01*
X721752380Y-397428571D02*
X720752380Y-397428571D01*
X721228571Y-397428571D02*
X721228571Y-396857142D01*
X721752380Y-396857142D02*
X720752380Y-396857142D01*
X721752380Y-396380952D02*
X721085714Y-396380952D01*
X720752380Y-396380952D02*
X720800000Y-396428571D01*
X720847619Y-396380952D01*
X720800000Y-396333333D01*
X720752380Y-396380952D01*
X720847619Y-396380952D01*
X721752380Y-395904761D02*
X721085714Y-395904761D01*
X721276190Y-395904761D02*
X721180952Y-395857142D01*
X721133333Y-395809523D01*
X721085714Y-395714285D01*
X721085714Y-395619047D01*
X721752380Y-395142857D02*
X721704761Y-395238095D01*
X721657142Y-395285714D01*
X721561904Y-395333333D01*
X721276190Y-395333333D01*
X721180952Y-395285714D01*
X721133333Y-395238095D01*
X721085714Y-395142857D01*
X721085714Y-395000000D01*
X721133333Y-394904761D01*
X721180952Y-394857142D01*
X721276190Y-394809523D01*
X721561904Y-394809523D01*
X721657142Y-394857142D01*
X721704761Y-394904761D01*
X721752380Y-395000000D01*
X721752380Y-395142857D01*
X721704761Y-394428571D02*
X721752380Y-394333333D01*
X721752380Y-394142857D01*
X721704761Y-394047619D01*
X721609523Y-394000000D01*
X721561904Y-394000000D01*
X721466666Y-394047619D01*
X721419047Y-394142857D01*
X721419047Y-394285714D01*
X721371428Y-394380952D01*
X721276190Y-394428571D01*
X721228571Y-394428571D01*
X721133333Y-394380952D01*
X721085714Y-394285714D01*
X721085714Y-394142857D01*
X721133333Y-394047619D01*
X721704761Y-393190476D02*
X721752380Y-393285714D01*
X721752380Y-393476190D01*
X721704761Y-393571428D01*
X721609523Y-393619047D01*
X721228571Y-393619047D01*
X721133333Y-393571428D01*
X721085714Y-393476190D01*
X721085714Y-393285714D01*
X721133333Y-393190476D01*
X721228571Y-393142857D01*
X721323809Y-393142857D01*
X721419047Y-393619047D01*
X721228571Y-391619047D02*
X721228571Y-391952380D01*
X721752380Y-391952380D02*
X720752380Y-391952380D01*
X720752380Y-391476190D01*
X721752380Y-391095238D02*
X720752380Y-391095238D01*
X721228571Y-391095238D02*
X721228571Y-390523809D01*
X721752380Y-390523809D02*
X720752380Y-390523809D01*
X721752380Y-389523809D02*
X721752380Y-390095238D01*
X721752380Y-389809523D02*
X720752380Y-389809523D01*
X720895238Y-389904761D01*
X720990476Y-390000000D01*
X721038095Y-390095238D01*
X721752380Y-389047619D02*
X721752380Y-388857142D01*
X721704761Y-388761904D01*
X721657142Y-388714285D01*
X721514285Y-388619047D01*
X721323809Y-388571428D01*
X720942857Y-388571428D01*
X720847619Y-388619047D01*
X720800000Y-388666666D01*
X720752380Y-388761904D01*
X720752380Y-388952380D01*
X720800000Y-389047619D01*
X720847619Y-389095238D01*
X720942857Y-389142857D01*
X721180952Y-389142857D01*
X721276190Y-389095238D01*
X721323809Y-389047619D01*
X721371428Y-388952380D01*
X721371428Y-388761904D01*
X721323809Y-388666666D01*
X721276190Y-388619047D01*
X721180952Y-388571428D01*
X721704761Y-388190476D02*
X721752380Y-388047619D01*
X721752380Y-387809523D01*
X721704761Y-387714285D01*
X721657142Y-387666666D01*
X721561904Y-387619047D01*
X721466666Y-387619047D01*
X721371428Y-387666666D01*
X721323809Y-387714285D01*
X721276190Y-387809523D01*
X721228571Y-388000000D01*
X721180952Y-388095238D01*
X721133333Y-388142857D01*
X721038095Y-388190476D01*
X720942857Y-388190476D01*
X720847619Y-388142857D01*
X720800000Y-388095238D01*
X720752380Y-388000000D01*
X720752380Y-387761904D01*
X720800000Y-387619047D01*
X721657142Y-386619047D02*
X721704761Y-386666666D01*
X721752380Y-386809523D01*
X721752380Y-386904761D01*
X721704761Y-387047619D01*
X721609523Y-387142857D01*
X721514285Y-387190476D01*
X721323809Y-387238095D01*
X721180952Y-387238095D01*
X720990476Y-387190476D01*
X720895238Y-387142857D01*
X720800000Y-387047619D01*
X720752380Y-386904761D01*
X720752380Y-386809523D01*
X720800000Y-386666666D01*
X720847619Y-386619047D01*
X721371428Y-386190476D02*
X721371428Y-385428571D01*
X721752380Y-384428571D02*
X721752380Y-385000000D01*
X721752380Y-384714285D02*
X720752380Y-384714285D01*
X720895238Y-384809523D01*
X720990476Y-384904761D01*
X721038095Y-385000000D01*
X720752380Y-383523809D02*
X720752380Y-384000000D01*
X721228571Y-384047619D01*
X721180952Y-384000000D01*
X721133333Y-383904761D01*
X721133333Y-383666666D01*
X721180952Y-383571428D01*
X721228571Y-383523809D01*
X721323809Y-383476190D01*
X721561904Y-383476190D01*
X721657142Y-383523809D01*
X721704761Y-383571428D01*
X721752380Y-383666666D01*
X721752380Y-383904761D01*
X721704761Y-384000000D01*
X721657142Y-384047619D01*
X721704761Y-383095238D02*
X721752380Y-382952380D01*
X721752380Y-382714285D01*
X721704761Y-382619047D01*
X721657142Y-382571428D01*
X721561904Y-382523809D01*
X721466666Y-382523809D01*
X721371428Y-382571428D01*
X721323809Y-382619047D01*
X721276190Y-382714285D01*
X721228571Y-382904761D01*
X721180952Y-383000000D01*
X721133333Y-383047619D01*
X721038095Y-383095238D01*
X720942857Y-383095238D01*
X720847619Y-383047619D01*
X720800000Y-383000000D01*
X720752380Y-382904761D01*
X720752380Y-382666666D01*
X720800000Y-382523809D01*
X674314285Y-379552380D02*
X674885714Y-379552380D01*
X674600000Y-380552380D02*
X674600000Y-379552380D01*
X675219047Y-380028571D02*
X675552380Y-380028571D01*
X675695238Y-380552380D02*
X675219047Y-380552380D01*
X675219047Y-379552380D01*
X675695238Y-379552380D01*
X676123809Y-380028571D02*
X676457142Y-380028571D01*
X676600000Y-380552380D02*
X676123809Y-380552380D01*
X676123809Y-379552380D01*
X676600000Y-379552380D01*
X677028571Y-380552380D02*
X677028571Y-379552380D01*
X677600000Y-380552380D01*
X677600000Y-379552380D01*
X678028571Y-380504761D02*
X678171428Y-380552380D01*
X678409523Y-380552380D01*
X678504761Y-380504761D01*
X678552380Y-380457142D01*
X678600000Y-380361904D01*
X678600000Y-380266666D01*
X678552380Y-380171428D01*
X678504761Y-380123809D01*
X678409523Y-380076190D01*
X678219047Y-380028571D01*
X678123809Y-379980952D01*
X678076190Y-379933333D01*
X678028571Y-379838095D01*
X678028571Y-379742857D01*
X678076190Y-379647619D01*
X678123809Y-379600000D01*
X678219047Y-379552380D01*
X678457142Y-379552380D01*
X678600000Y-379600000D01*
X679219047Y-380076190D02*
X679219047Y-380552380D01*
X678885714Y-379552380D02*
X679219047Y-380076190D01*
X679552380Y-379552380D01*
X680552380Y-379552380D02*
X681171428Y-379552380D01*
X680838095Y-379933333D01*
X680980952Y-379933333D01*
X681076190Y-379980952D01*
X681123809Y-380028571D01*
X681171428Y-380123809D01*
X681171428Y-380361904D01*
X681123809Y-380457142D01*
X681076190Y-380504761D01*
X680980952Y-380552380D01*
X680695238Y-380552380D01*
X680600000Y-380504761D01*
X680552380Y-380457142D01*
X681600000Y-380457142D02*
X681647619Y-380504761D01*
X681600000Y-380552380D01*
X681552380Y-380504761D01*
X681600000Y-380457142D01*
X681600000Y-380552380D01*
X682028571Y-379647619D02*
X682076190Y-379600000D01*
X682171428Y-379552380D01*
X682409523Y-379552380D01*
X682504761Y-379600000D01*
X682552380Y-379647619D01*
X682600000Y-379742857D01*
X682600000Y-379838095D01*
X682552380Y-379980952D01*
X681980952Y-380552380D01*
X682600000Y-380552380D01*
X683790476Y-380171428D02*
X684552380Y-380171428D01*
X686361904Y-380457142D02*
X686314285Y-380504761D01*
X686171428Y-380552380D01*
X686076190Y-380552380D01*
X685933333Y-380504761D01*
X685838095Y-380409523D01*
X685790476Y-380314285D01*
X685742857Y-380123809D01*
X685742857Y-379980952D01*
X685790476Y-379790476D01*
X685838095Y-379695238D01*
X685933333Y-379600000D01*
X686076190Y-379552380D01*
X686171428Y-379552380D01*
X686314285Y-379600000D01*
X686361904Y-379647619D01*
X687219047Y-379885714D02*
X687219047Y-380552380D01*
X686790476Y-379885714D02*
X686790476Y-380409523D01*
X686838095Y-380504761D01*
X686933333Y-380552380D01*
X687076190Y-380552380D01*
X687171428Y-380504761D01*
X687219047Y-380457142D01*
X687552380Y-379885714D02*
X687933333Y-379885714D01*
X687695238Y-379552380D02*
X687695238Y-380409523D01*
X687742857Y-380504761D01*
X687838095Y-380552380D01*
X687933333Y-380552380D01*
X688885714Y-379552380D02*
X689219047Y-380552380D01*
X689552380Y-379552380D01*
X689885714Y-380552380D02*
X689885714Y-379885714D01*
X689885714Y-379552380D02*
X689838095Y-379600000D01*
X689885714Y-379647619D01*
X689933333Y-379600000D01*
X689885714Y-379552380D01*
X689885714Y-379647619D01*
X690361904Y-379885714D02*
X690361904Y-380552380D01*
X690361904Y-379980952D02*
X690409523Y-379933333D01*
X690504761Y-379885714D01*
X690647619Y-379885714D01*
X690742857Y-379933333D01*
X690790476Y-380028571D01*
X690790476Y-380552380D01*
X691980952Y-379504761D02*
X691123809Y-380790476D01*
X692171428Y-379552380D02*
X692504761Y-380552380D01*
X692838095Y-379552380D01*
X693600000Y-379885714D02*
X693600000Y-380552380D01*
X693171428Y-379885714D02*
X693171428Y-380409523D01*
X693219047Y-380504761D01*
X693314285Y-380552380D01*
X693457142Y-380552380D01*
X693552380Y-380504761D01*
X693600000Y-380457142D01*
X694028571Y-380504761D02*
X694123809Y-380552380D01*
X694314285Y-380552380D01*
X694409523Y-380504761D01*
X694457142Y-380409523D01*
X694457142Y-380361904D01*
X694409523Y-380266666D01*
X694314285Y-380219047D01*
X694171428Y-380219047D01*
X694076190Y-380171428D01*
X694028571Y-380076190D01*
X694028571Y-380028571D01*
X694076190Y-379933333D01*
X694171428Y-379885714D01*
X694314285Y-379885714D01*
X694409523Y-379933333D01*
X694885714Y-380552380D02*
X694885714Y-379552380D01*
X694885714Y-379933333D02*
X694980952Y-379885714D01*
X695171428Y-379885714D01*
X695266666Y-379933333D01*
X695314285Y-379980952D01*
X695361904Y-380076190D01*
X695361904Y-380361904D01*
X695314285Y-380457142D01*
X695266666Y-380504761D01*
X695171428Y-380552380D01*
X694980952Y-380552380D01*
X694885714Y-380504761D01*
X696552380Y-380552380D02*
X696552380Y-379885714D01*
X696552380Y-379552380D02*
X696504761Y-379600000D01*
X696552380Y-379647619D01*
X696600000Y-379600000D01*
X696552380Y-379552380D01*
X696552380Y-379647619D01*
X696885714Y-379885714D02*
X697266666Y-379885714D01*
X697028571Y-380552380D02*
X697028571Y-379695238D01*
X697076190Y-379600000D01*
X697171428Y-379552380D01*
X697266666Y-379552380D01*
X698838095Y-380552380D02*
X698361904Y-380552380D01*
X698361904Y-379552380D01*
X699171428Y-380552380D02*
X699171428Y-379552380D01*
X699504761Y-380266666D01*
X699838095Y-379552380D01*
X699838095Y-380552380D01*
X700838095Y-380552380D02*
X700266666Y-380552380D01*
X700552380Y-380552380D02*
X700552380Y-379552380D01*
X700457142Y-379695238D01*
X700361904Y-379790476D01*
X700266666Y-379838095D01*
X701457142Y-379552380D02*
X701552380Y-379552380D01*
X701647619Y-379600000D01*
X701695238Y-379647619D01*
X701742857Y-379742857D01*
X701790476Y-379933333D01*
X701790476Y-380171428D01*
X701742857Y-380361904D01*
X701695238Y-380457142D01*
X701647619Y-380504761D01*
X701552380Y-380552380D01*
X701457142Y-380552380D01*
X701361904Y-380504761D01*
X701314285Y-380457142D01*
X701266666Y-380361904D01*
X701219047Y-380171428D01*
X701219047Y-379933333D01*
X701266666Y-379742857D01*
X701314285Y-379647619D01*
X701361904Y-379600000D01*
X701457142Y-379552380D01*
X702361904Y-379980952D02*
X702266666Y-379933333D01*
X702219047Y-379885714D01*
X702171428Y-379790476D01*
X702171428Y-379742857D01*
X702219047Y-379647619D01*
X702266666Y-379600000D01*
X702361904Y-379552380D01*
X702552380Y-379552380D01*
X702647619Y-379600000D01*
X702695238Y-379647619D01*
X702742857Y-379742857D01*
X702742857Y-379790476D01*
X702695238Y-379885714D01*
X702647619Y-379933333D01*
X702552380Y-379980952D01*
X702361904Y-379980952D01*
X702266666Y-380028571D01*
X702219047Y-380076190D01*
X702171428Y-380171428D01*
X702171428Y-380361904D01*
X702219047Y-380457142D01*
X702266666Y-380504761D01*
X702361904Y-380552380D01*
X702552380Y-380552380D01*
X702647619Y-380504761D01*
X702695238Y-380457142D01*
X702742857Y-380361904D01*
X702742857Y-380171428D01*
X702695238Y-380076190D01*
X702647619Y-380028571D01*
X702552380Y-379980952D01*
X703076190Y-380552380D02*
X703600000Y-379885714D01*
X703076190Y-379885714D02*
X703600000Y-380552380D01*
X704742857Y-380552380D02*
X704742857Y-379885714D01*
X704742857Y-379552380D02*
X704695238Y-379600000D01*
X704742857Y-379647619D01*
X704790476Y-379600000D01*
X704742857Y-379552380D01*
X704742857Y-379647619D01*
X705219047Y-379885714D02*
X705219047Y-380552380D01*
X705219047Y-379980952D02*
X705266666Y-379933333D01*
X705361904Y-379885714D01*
X705504761Y-379885714D01*
X705600000Y-379933333D01*
X705647619Y-380028571D01*
X705647619Y-380552380D01*
X706076190Y-380504761D02*
X706171428Y-380552380D01*
X706361904Y-380552380D01*
X706457142Y-380504761D01*
X706504761Y-380409523D01*
X706504761Y-380361904D01*
X706457142Y-380266666D01*
X706361904Y-380219047D01*
X706219047Y-380219047D01*
X706123809Y-380171428D01*
X706076190Y-380076190D01*
X706076190Y-380028571D01*
X706123809Y-379933333D01*
X706219047Y-379885714D01*
X706361904Y-379885714D01*
X706457142Y-379933333D01*
X706790476Y-379885714D02*
X707171428Y-379885714D01*
X706933333Y-379552380D02*
X706933333Y-380409523D01*
X706980952Y-380504761D01*
X707076190Y-380552380D01*
X707171428Y-380552380D01*
X707933333Y-380552380D02*
X707933333Y-380028571D01*
X707885714Y-379933333D01*
X707790476Y-379885714D01*
X707600000Y-379885714D01*
X707504761Y-379933333D01*
X707933333Y-380504761D02*
X707838095Y-380552380D01*
X707600000Y-380552380D01*
X707504761Y-380504761D01*
X707457142Y-380409523D01*
X707457142Y-380314285D01*
X707504761Y-380219047D01*
X707600000Y-380171428D01*
X707838095Y-380171428D01*
X707933333Y-380123809D01*
X708552380Y-380552380D02*
X708457142Y-380504761D01*
X708409523Y-380409523D01*
X708409523Y-379552380D01*
X709076190Y-380552380D02*
X708980952Y-380504761D01*
X708933333Y-380409523D01*
X708933333Y-379552380D01*
X709838095Y-380504761D02*
X709742857Y-380552380D01*
X709552380Y-380552380D01*
X709457142Y-380504761D01*
X709409523Y-380409523D01*
X709409523Y-380028571D01*
X709457142Y-379933333D01*
X709552380Y-379885714D01*
X709742857Y-379885714D01*
X709838095Y-379933333D01*
X709885714Y-380028571D01*
X709885714Y-380123809D01*
X709409523Y-380219047D01*
X710742857Y-380552380D02*
X710742857Y-379552380D01*
X710742857Y-380504761D02*
X710647619Y-380552380D01*
X710457142Y-380552380D01*
X710361904Y-380504761D01*
X710314285Y-380457142D01*
X710266666Y-380361904D01*
X710266666Y-380076190D01*
X710314285Y-379980952D01*
X710361904Y-379933333D01*
X710457142Y-379885714D01*
X710647619Y-379885714D01*
X710742857Y-379933333D01*
X688390476Y-366352380D02*
X687914285Y-366352380D01*
X687914285Y-365352380D01*
X688723809Y-366352380D02*
X688723809Y-365352380D01*
X689057142Y-366066666D01*
X689390476Y-365352380D01*
X689390476Y-366352380D01*
X690390476Y-366352380D02*
X689819047Y-366352380D01*
X690104761Y-366352380D02*
X690104761Y-365352380D01*
X690009523Y-365495238D01*
X689914285Y-365590476D01*
X689819047Y-365638095D01*
X691009523Y-365352380D02*
X691104761Y-365352380D01*
X691200000Y-365400000D01*
X691247619Y-365447619D01*
X691295238Y-365542857D01*
X691342857Y-365733333D01*
X691342857Y-365971428D01*
X691295238Y-366161904D01*
X691247619Y-366257142D01*
X691200000Y-366304761D01*
X691104761Y-366352380D01*
X691009523Y-366352380D01*
X690914285Y-366304761D01*
X690866666Y-366257142D01*
X690819047Y-366161904D01*
X690771428Y-365971428D01*
X690771428Y-365733333D01*
X690819047Y-365542857D01*
X690866666Y-365447619D01*
X690914285Y-365400000D01*
X691009523Y-365352380D01*
X691914285Y-365780952D02*
X691819047Y-365733333D01*
X691771428Y-365685714D01*
X691723809Y-365590476D01*
X691723809Y-365542857D01*
X691771428Y-365447619D01*
X691819047Y-365400000D01*
X691914285Y-365352380D01*
X692104761Y-365352380D01*
X692200000Y-365400000D01*
X692247619Y-365447619D01*
X692295238Y-365542857D01*
X692295238Y-365590476D01*
X692247619Y-365685714D01*
X692200000Y-365733333D01*
X692104761Y-365780952D01*
X691914285Y-365780952D01*
X691819047Y-365828571D01*
X691771428Y-365876190D01*
X691723809Y-365971428D01*
X691723809Y-366161904D01*
X691771428Y-366257142D01*
X691819047Y-366304761D01*
X691914285Y-366352380D01*
X692104761Y-366352380D01*
X692200000Y-366304761D01*
X692247619Y-366257142D01*
X692295238Y-366161904D01*
X692295238Y-365971428D01*
X692247619Y-365876190D01*
X692200000Y-365828571D01*
X692104761Y-365780952D01*
X693152380Y-365685714D02*
X693152380Y-366352380D01*
X692914285Y-365304761D02*
X692676190Y-366019047D01*
X693295238Y-366019047D01*
X694390476Y-365304761D02*
X693533333Y-366590476D01*
X695200000Y-365352380D02*
X694723809Y-365352380D01*
X694676190Y-365828571D01*
X694723809Y-365780952D01*
X694819047Y-365733333D01*
X695057142Y-365733333D01*
X695152380Y-365780952D01*
X695200000Y-365828571D01*
X695247619Y-365923809D01*
X695247619Y-366161904D01*
X695200000Y-366257142D01*
X695152380Y-366304761D01*
X695057142Y-366352380D01*
X694819047Y-366352380D01*
X694723809Y-366304761D01*
X694676190Y-366257142D01*
X696390476Y-365304761D02*
X695533333Y-366590476D01*
X697152380Y-365352380D02*
X696961904Y-365352380D01*
X696866666Y-365400000D01*
X696819047Y-365447619D01*
X696723809Y-365590476D01*
X696676190Y-365780952D01*
X696676190Y-366161904D01*
X696723809Y-366257142D01*
X696771428Y-366304761D01*
X696866666Y-366352380D01*
X697057142Y-366352380D01*
X697152380Y-366304761D01*
X697200000Y-366257142D01*
X697247619Y-366161904D01*
X697247619Y-365923809D01*
X697200000Y-365828571D01*
X697152380Y-365780952D01*
X697057142Y-365733333D01*
X696866666Y-365733333D01*
X696771428Y-365780952D01*
X696723809Y-365828571D01*
X696676190Y-365923809D01*
X697676190Y-365971428D02*
X698438095Y-365971428D01*
X699390476Y-365352380D02*
X698914285Y-365352380D01*
X698866666Y-365828571D01*
X698914285Y-365780952D01*
X699009523Y-365733333D01*
X699247619Y-365733333D01*
X699342857Y-365780952D01*
X699390476Y-365828571D01*
X699438095Y-365923809D01*
X699438095Y-366161904D01*
X699390476Y-366257142D01*
X699342857Y-366304761D01*
X699247619Y-366352380D01*
X699009523Y-366352380D01*
X698914285Y-366304761D01*
X698866666Y-366257142D01*
X699866666Y-366257142D02*
X699914285Y-366304761D01*
X699866666Y-366352380D01*
X699819047Y-366304761D01*
X699866666Y-366257142D01*
X699866666Y-366352380D01*
X700533333Y-365352380D02*
X700628571Y-365352380D01*
X700723809Y-365400000D01*
X700771428Y-365447619D01*
X700819047Y-365542857D01*
X700866666Y-365733333D01*
X700866666Y-365971428D01*
X700819047Y-366161904D01*
X700771428Y-366257142D01*
X700723809Y-366304761D01*
X700628571Y-366352380D01*
X700533333Y-366352380D01*
X700438095Y-366304761D01*
X700390476Y-366257142D01*
X700342857Y-366161904D01*
X700295238Y-365971428D01*
X700295238Y-365733333D01*
X700342857Y-365542857D01*
X700390476Y-365447619D01*
X700438095Y-365400000D01*
X700533333Y-365352380D01*
X701914285Y-365352380D02*
X702485714Y-365352380D01*
X702200000Y-366352380D02*
X702200000Y-365352380D01*
X703009523Y-365352380D02*
X703200000Y-365352380D01*
X703295238Y-365400000D01*
X703390476Y-365495238D01*
X703438095Y-365685714D01*
X703438095Y-366019047D01*
X703390476Y-366209523D01*
X703295238Y-366304761D01*
X703200000Y-366352380D01*
X703009523Y-366352380D01*
X702914285Y-366304761D01*
X702819047Y-366209523D01*
X702771428Y-366019047D01*
X702771428Y-365685714D01*
X702819047Y-365495238D01*
X702914285Y-365400000D01*
X703009523Y-365352380D01*
X703866666Y-365971428D02*
X704628571Y-365971428D01*
X705057142Y-365447619D02*
X705104761Y-365400000D01*
X705200000Y-365352380D01*
X705438095Y-365352380D01*
X705533333Y-365400000D01*
X705580952Y-365447619D01*
X705628571Y-365542857D01*
X705628571Y-365638095D01*
X705580952Y-365780952D01*
X705009523Y-366352380D01*
X705628571Y-366352380D01*
X706485714Y-365352380D02*
X706295238Y-365352380D01*
X706200000Y-365400000D01*
X706152380Y-365447619D01*
X706057142Y-365590476D01*
X706009523Y-365780952D01*
X706009523Y-366161904D01*
X706057142Y-366257142D01*
X706104761Y-366304761D01*
X706200000Y-366352380D01*
X706390476Y-366352380D01*
X706485714Y-366304761D01*
X706533333Y-366257142D01*
X706580952Y-366161904D01*
X706580952Y-365923809D01*
X706533333Y-365828571D01*
X706485714Y-365780952D01*
X706390476Y-365733333D01*
X706200000Y-365733333D01*
X706104761Y-365780952D01*
X706057142Y-365828571D01*
X706009523Y-365923809D01*
X706914285Y-365352380D02*
X707533333Y-365352380D01*
X707200000Y-365733333D01*
X707342857Y-365733333D01*
X707438095Y-365780952D01*
X707485714Y-365828571D01*
X707533333Y-365923809D01*
X707533333Y-366161904D01*
X707485714Y-366257142D01*
X707438095Y-366304761D01*
X707342857Y-366352380D01*
X707057142Y-366352380D01*
X706961904Y-366304761D01*
X706914285Y-366257142D01*
X682904761Y-370552380D02*
X683238095Y-371552380D01*
X683571428Y-370552380D01*
X683904761Y-371552380D02*
X683904761Y-370552380D01*
X684380952Y-371552380D02*
X684380952Y-370552380D01*
X684952380Y-371552380D01*
X684952380Y-370552380D01*
X703914285Y-373671428D02*
X704676190Y-373671428D01*
X704295238Y-374052380D02*
X704295238Y-373290476D01*
X705628571Y-373052380D02*
X705152380Y-373052380D01*
X705104761Y-373528571D01*
X705152380Y-373480952D01*
X705247619Y-373433333D01*
X705485714Y-373433333D01*
X705580952Y-373480952D01*
X705628571Y-373528571D01*
X705676190Y-373623809D01*
X705676190Y-373861904D01*
X705628571Y-373957142D01*
X705580952Y-374004761D01*
X705485714Y-374052380D01*
X705247619Y-374052380D01*
X705152380Y-374004761D01*
X705104761Y-373957142D01*
X705961904Y-373052380D02*
X706295238Y-374052380D01*
X706628571Y-373052380D01*
X704538095Y-370500000D02*
X704442857Y-370452380D01*
X704300000Y-370452380D01*
X704157142Y-370500000D01*
X704061904Y-370595238D01*
X704014285Y-370690476D01*
X703966666Y-370880952D01*
X703966666Y-371023809D01*
X704014285Y-371214285D01*
X704061904Y-371309523D01*
X704157142Y-371404761D01*
X704300000Y-371452380D01*
X704395238Y-371452380D01*
X704538095Y-371404761D01*
X704585714Y-371357142D01*
X704585714Y-371023809D01*
X704395238Y-371023809D01*
X705014285Y-371452380D02*
X705014285Y-370452380D01*
X705585714Y-371452380D01*
X705585714Y-370452380D01*
X706061904Y-371452380D02*
X706061904Y-370452380D01*
X706300000Y-370452380D01*
X706442857Y-370500000D01*
X706538095Y-370595238D01*
X706585714Y-370690476D01*
X706633333Y-370880952D01*
X706633333Y-371023809D01*
X706585714Y-371214285D01*
X706538095Y-371309523D01*
X706442857Y-371404761D01*
X706300000Y-371452380D01*
X706061904Y-371452380D01*
X683438095Y-373200000D02*
X683342857Y-373152380D01*
X683200000Y-373152380D01*
X683057142Y-373200000D01*
X682961904Y-373295238D01*
X682914285Y-373390476D01*
X682866666Y-373580952D01*
X682866666Y-373723809D01*
X682914285Y-373914285D01*
X682961904Y-374009523D01*
X683057142Y-374104761D01*
X683200000Y-374152380D01*
X683295238Y-374152380D01*
X683438095Y-374104761D01*
X683485714Y-374057142D01*
X683485714Y-373723809D01*
X683295238Y-373723809D01*
X683914285Y-374152380D02*
X683914285Y-373152380D01*
X684485714Y-374152380D01*
X684485714Y-373152380D01*
X684961904Y-374152380D02*
X684961904Y-373152380D01*
X685200000Y-373152380D01*
X685342857Y-373200000D01*
X685438095Y-373295238D01*
X685485714Y-373390476D01*
X685533333Y-373580952D01*
X685533333Y-373723809D01*
X685485714Y-373914285D01*
X685438095Y-374009523D01*
X685342857Y-374104761D01*
X685200000Y-374152380D01*
X684961904Y-374152380D01*
X670285714Y-367952380D02*
X670619047Y-368952380D01*
X670952380Y-367952380D01*
X671285714Y-368952380D02*
X671285714Y-367952380D01*
X671761904Y-368952380D02*
X671761904Y-367952380D01*
X672333333Y-368952380D01*
X672333333Y-367952380D01*
X673571428Y-368952380D02*
X673571428Y-367952380D01*
X673904761Y-368666666D01*
X674238095Y-367952380D01*
X674238095Y-368952380D01*
X674666666Y-368666666D02*
X675142857Y-368666666D01*
X674571428Y-368952380D02*
X674904761Y-367952380D01*
X675238095Y-368952380D01*
X675476190Y-367952380D02*
X676142857Y-368952380D01*
X676142857Y-367952380D02*
X675476190Y-368952380D01*
X677238095Y-368047619D02*
X677285714Y-368000000D01*
X677380952Y-367952380D01*
X677619047Y-367952380D01*
X677714285Y-368000000D01*
X677761904Y-368047619D01*
X677809523Y-368142857D01*
X677809523Y-368238095D01*
X677761904Y-368380952D01*
X677190476Y-368952380D01*
X677809523Y-368952380D01*
X678714285Y-367952380D02*
X678238095Y-367952380D01*
X678190476Y-368428571D01*
X678238095Y-368380952D01*
X678333333Y-368333333D01*
X678571428Y-368333333D01*
X678666666Y-368380952D01*
X678714285Y-368428571D01*
X678761904Y-368523809D01*
X678761904Y-368761904D01*
X678714285Y-368857142D01*
X678666666Y-368904761D01*
X678571428Y-368952380D01*
X678333333Y-368952380D01*
X678238095Y-368904761D01*
X678190476Y-368857142D01*
X679047619Y-367952380D02*
X679380952Y-368952380D01*
X679714285Y-367952380D01*
X676400000Y-372700000D02*
X676400000Y-372000000D01*
X676400000Y-369560000D02*
X676400000Y-370100000D01*
X682600000Y-369560000D02*
X676400000Y-369560000D01*
X682600000Y-375100000D02*
X682600000Y-369560000D01*
X676400000Y-375100000D02*
X682600000Y-375100000D01*
X676400000Y-374600000D02*
X676400000Y-375100000D01*
X713300000Y-371900000D02*
X713300000Y-372600000D01*
X713300000Y-375040000D02*
X713300000Y-374500000D01*
X707100000Y-375040000D02*
X713300000Y-375040000D01*
X707100000Y-369500000D02*
X707100000Y-375040000D01*
X713300000Y-369500000D02*
X707100000Y-369500000D01*
X713300000Y-370000000D02*
X713300000Y-369500000D01*
D11*
G36*
X696976000Y-392811000D02*
G01*
X696722000Y-392557000D01*
X697103000Y-392303000D01*
X697357000Y-392557000D01*
X696976000Y-392811000D01*
G37*
X696976000Y-392811000D02*
X696722000Y-392557000D01*
X697103000Y-392303000D01*
X697357000Y-392557000D01*
X696976000Y-392811000D01*
G36*
X695960000Y-393573000D02*
G01*
X695706000Y-393319000D01*
X696087000Y-393065000D01*
X696341000Y-393319000D01*
X695960000Y-393573000D01*
G37*
X695960000Y-393573000D02*
X695706000Y-393319000D01*
X696087000Y-393065000D01*
X696341000Y-393319000D01*
X695960000Y-393573000D01*
G36*
X696722000Y-394335000D02*
G01*
X696468000Y-394081000D01*
X696849000Y-393827000D01*
X697103000Y-394081000D01*
X696722000Y-394335000D01*
G37*
X696722000Y-394335000D02*
X696468000Y-394081000D01*
X696849000Y-393827000D01*
X697103000Y-394081000D01*
X696722000Y-394335000D01*
G36*
X696595000Y-392430000D02*
G01*
X696341000Y-392176000D01*
X696722000Y-391922000D01*
X696976000Y-392176000D01*
X696595000Y-392430000D01*
G37*
X696595000Y-392430000D02*
X696341000Y-392176000D01*
X696722000Y-391922000D01*
X696976000Y-392176000D01*
X696595000Y-392430000D01*
G36*
X696341000Y-393954000D02*
G01*
X696087000Y-393700000D01*
X696468000Y-393446000D01*
X696722000Y-393700000D01*
X696341000Y-393954000D01*
G37*
X696341000Y-393954000D02*
X696087000Y-393700000D01*
X696468000Y-393446000D01*
X696722000Y-393700000D01*
X696341000Y-393954000D01*
G36*
X697103000Y-392049000D02*
G01*
X696849000Y-391795000D01*
X697230000Y-391541000D01*
X697484000Y-391795000D01*
X697103000Y-392049000D01*
G37*
X697103000Y-392049000D02*
X696849000Y-391795000D01*
X697230000Y-391541000D01*
X697484000Y-391795000D01*
X697103000Y-392049000D01*
G36*
X696468000Y-393192000D02*
G01*
X696214000Y-392938000D01*
X696595000Y-392684000D01*
X696849000Y-392938000D01*
X696468000Y-393192000D01*
G37*
X696468000Y-393192000D02*
X696214000Y-392938000D01*
X696595000Y-392684000D01*
X696849000Y-392938000D01*
X696468000Y-393192000D01*
G36*
X696087000Y-392811000D02*
G01*
X695833000Y-392557000D01*
X696214000Y-392303000D01*
X696468000Y-392557000D01*
X696087000Y-392811000D01*
G37*
X696087000Y-392811000D02*
X695833000Y-392557000D01*
X696214000Y-392303000D01*
X696468000Y-392557000D01*
X696087000Y-392811000D01*
D10*
X674370000Y-398780000D02*
X674370000Y-381000000D01*
X709930000Y-398780000D02*
X674370000Y-398780000D01*
X709930000Y-381000000D02*
X709930000Y-398780000D01*
X674370000Y-381000000D02*
X709930000Y-381000000D01*
X701040000Y-394970000D02*
X692150000Y-394970000D01*
X701040000Y-384810000D02*
X692150000Y-384810000D01*
X692150000Y-384810000D02*
X692150000Y-394970000D01*
X701040000Y-394970000D02*
X701040000Y-384810000D01*
X704850000Y-387350000D02*
X707390000Y-387350000D01*
X704850000Y-392430000D02*
X704850000Y-387350000D01*
X707390000Y-392430000D02*
X704850000Y-392430000D01*
X707390000Y-387350000D02*
X707390000Y-392430000D01*
X680720000Y-392430000D02*
X680720000Y-394970000D01*
X683260000Y-392430000D02*
X680720000Y-392430000D01*
X683260000Y-394970000D02*
X683260000Y-392430000D01*
X680720000Y-394970000D02*
X683260000Y-394970000D01*
X679450000Y-393700000D02*
X674370000Y-393700000D01*
X679450000Y-386080000D02*
X674370000Y-386080000D01*
X679450000Y-393700000D02*
X679450000Y-386080000D01*
X685800000Y-392430000D02*
X685800000Y-394970000D01*
X689610000Y-392430000D02*
X685800000Y-392430000D01*
X689610000Y-394970000D02*
X689610000Y-392430000D01*
X685800000Y-394970000D02*
X689610000Y-394970000D01*
X673100000Y-386080000D02*
X674370000Y-386080000D01*
X673100000Y-393700000D02*
X673100000Y-386080000D01*
X674370000Y-393700000D02*
X673100000Y-393700000D01*
D12*
X691550000Y-375665000D02*
X690450000Y-375665000D01*
X691550000Y-377475000D02*
X691550000Y-375665000D01*
X693050000Y-377475000D02*
X691550000Y-377475000D01*
X691550000Y-368885000D02*
X686425000Y-368885000D01*
X691550000Y-367075000D02*
X691550000Y-368885000D01*
X693050000Y-367075000D02*
X691550000Y-367075000D01*
X716800000Y-393790000D02*
X716400000Y-393790000D01*
X719850000Y-394890000D02*
X719850000Y-384890000D01*
X716800000Y-384890000D02*
X719850000Y-384890000D01*
X716800000Y-385990000D02*
X716800000Y-384890000D01*
X716800000Y-394890000D02*
X719850000Y-394890000D01*
X716800000Y-393790000D02*
X716800000Y-394890000D01*
D10*
X679166666Y-375452380D02*
X679166666Y-376166666D01*
X679119047Y-376309523D01*
X679023809Y-376404761D01*
X678880952Y-376452380D01*
X678785714Y-376452380D01*
X680166666Y-376452380D02*
X679595238Y-376452380D01*
X679880952Y-376452380D02*
X679880952Y-375452380D01*
X679785714Y-375595238D01*
X679690476Y-375690476D01*
X679595238Y-375738095D01*
X709666666Y-368152380D02*
X709666666Y-368866666D01*
X709619047Y-369009523D01*
X709523809Y-369104761D01*
X709380952Y-369152380D01*
X709285714Y-369152380D01*
X710047619Y-368152380D02*
X710666666Y-368152380D01*
X710333333Y-368533333D01*
X710476190Y-368533333D01*
X710571428Y-368580952D01*
X710619047Y-368628571D01*
X710666666Y-368723809D01*
X710666666Y-368961904D01*
X710619047Y-369057142D01*
X710571428Y-369104761D01*
X710476190Y-369152380D01*
X710190476Y-369152380D01*
X710095238Y-369104761D01*
X710047619Y-369057142D01*
X672138095Y-397152380D02*
X672138095Y-397961904D01*
X672185714Y-398057142D01*
X672233333Y-398104761D01*
X672328571Y-398152380D01*
X672519047Y-398152380D01*
X672614285Y-398104761D01*
X672661904Y-398057142D01*
X672709523Y-397961904D01*
X672709523Y-397152380D01*
X673709523Y-398152380D02*
X673138095Y-398152380D01*
X673423809Y-398152380D02*
X673423809Y-397152380D01*
X673328571Y-397295238D01*
X673233333Y-397390476D01*
X673138095Y-397438095D01*
X692378333Y-388682666D02*
X692378333Y-387982666D01*
X692611666Y-388482666D01*
X692845000Y-387982666D01*
X692845000Y-388682666D01*
X693178333Y-388682666D02*
X693178333Y-387982666D01*
X693578333Y-388682666D02*
X693278333Y-388282666D01*
X693578333Y-387982666D02*
X693178333Y-388382666D01*
X693845000Y-388049333D02*
X693878333Y-388016000D01*
X693945000Y-387982666D01*
X694111666Y-387982666D01*
X694178333Y-388016000D01*
X694211666Y-388049333D01*
X694245000Y-388116000D01*
X694245000Y-388182666D01*
X694211666Y-388282666D01*
X693811666Y-388682666D01*
X694245000Y-388682666D01*
X694678333Y-387982666D02*
X694745000Y-387982666D01*
X694811666Y-388016000D01*
X694845000Y-388049333D01*
X694878333Y-388116000D01*
X694911666Y-388249333D01*
X694911666Y-388416000D01*
X694878333Y-388549333D01*
X694845000Y-388616000D01*
X694811666Y-388649333D01*
X694745000Y-388682666D01*
X694678333Y-388682666D01*
X694611666Y-388649333D01*
X694578333Y-388616000D01*
X694545000Y-388549333D01*
X694511666Y-388416000D01*
X694511666Y-388249333D01*
X694545000Y-388116000D01*
X694578333Y-388049333D01*
X694611666Y-388016000D01*
X694678333Y-387982666D01*
X695211666Y-388682666D02*
X695211666Y-387982666D01*
X695378333Y-387982666D01*
X695478333Y-388016000D01*
X695545000Y-388082666D01*
X695578333Y-388149333D01*
X695611666Y-388282666D01*
X695611666Y-388382666D01*
X695578333Y-388516000D01*
X695545000Y-388582666D01*
X695478333Y-388649333D01*
X695378333Y-388682666D01*
X695211666Y-388682666D01*
X695845000Y-387982666D02*
X696311666Y-388682666D01*
X696311666Y-387982666D02*
X695845000Y-388682666D01*
X696945000Y-388682666D02*
X696545000Y-388682666D01*
X696745000Y-388682666D02*
X696745000Y-387982666D01*
X696678333Y-388082666D01*
X696611666Y-388149333D01*
X696545000Y-388182666D01*
X697211666Y-388049333D02*
X697245000Y-388016000D01*
X697311666Y-387982666D01*
X697478333Y-387982666D01*
X697545000Y-388016000D01*
X697578333Y-388049333D01*
X697611666Y-388116000D01*
X697611666Y-388182666D01*
X697578333Y-388282666D01*
X697178333Y-388682666D01*
X697611666Y-388682666D01*
X698011666Y-388282666D02*
X697945000Y-388249333D01*
X697911666Y-388216000D01*
X697878333Y-388149333D01*
X697878333Y-388116000D01*
X697911666Y-388049333D01*
X697945000Y-388016000D01*
X698011666Y-387982666D01*
X698145000Y-387982666D01*
X698211666Y-388016000D01*
X698245000Y-388049333D01*
X698278333Y-388116000D01*
X698278333Y-388149333D01*
X698245000Y-388216000D01*
X698211666Y-388249333D01*
X698145000Y-388282666D01*
X698011666Y-388282666D01*
X697945000Y-388316000D01*
X697911666Y-388349333D01*
X697878333Y-388416000D01*
X697878333Y-388549333D01*
X697911666Y-388616000D01*
X697945000Y-388649333D01*
X698011666Y-388682666D01*
X698145000Y-388682666D01*
X698211666Y-388649333D01*
X698245000Y-388616000D01*
X698278333Y-388549333D01*
X698278333Y-388416000D01*
X698245000Y-388349333D01*
X698211666Y-388316000D01*
X698145000Y-388282666D01*
X698478333Y-387982666D02*
X698711666Y-388682666D01*
X698945000Y-387982666D01*
X699511666Y-388682666D02*
X699178333Y-388682666D01*
X699178333Y-387982666D01*
X699745000Y-388682666D02*
X699745000Y-387982666D01*
X699745000Y-388316000D02*
X700145000Y-388316000D01*
X700145000Y-388682666D02*
X700145000Y-387982666D01*
X700811666Y-387982666D02*
X700478333Y-387982666D01*
X700445000Y-388316000D01*
X700478333Y-388282666D01*
X700545000Y-388249333D01*
X700711666Y-388249333D01*
X700778333Y-388282666D01*
X700811666Y-388316000D01*
X700845000Y-388382666D01*
X700845000Y-388549333D01*
X700811666Y-388616000D01*
X700778333Y-388649333D01*
X700711666Y-388682666D01*
X700545000Y-388682666D01*
X700478333Y-388649333D01*
X700445000Y-388616000D01*
X692861666Y-389952666D02*
X692861666Y-389252666D01*
X693095000Y-389752666D01*
X693328333Y-389252666D01*
X693328333Y-389952666D01*
X693661666Y-389952666D02*
X693661666Y-389252666D01*
X694061666Y-389952666D02*
X693761666Y-389552666D01*
X694061666Y-389252666D02*
X693661666Y-389652666D01*
X694695000Y-389952666D02*
X694361666Y-389952666D01*
X694361666Y-389252666D01*
X694895000Y-389319333D02*
X694928333Y-389286000D01*
X694995000Y-389252666D01*
X695161666Y-389252666D01*
X695228333Y-389286000D01*
X695261666Y-389319333D01*
X695295000Y-389386000D01*
X695295000Y-389452666D01*
X695261666Y-389552666D01*
X694861666Y-389952666D01*
X695295000Y-389952666D01*
X695895000Y-389252666D02*
X695761666Y-389252666D01*
X695695000Y-389286000D01*
X695661666Y-389319333D01*
X695595000Y-389419333D01*
X695561666Y-389552666D01*
X695561666Y-389819333D01*
X695595000Y-389886000D01*
X695628333Y-389919333D01*
X695695000Y-389952666D01*
X695828333Y-389952666D01*
X695895000Y-389919333D01*
X695928333Y-389886000D01*
X695961666Y-389819333D01*
X695961666Y-389652666D01*
X695928333Y-389586000D01*
X695895000Y-389552666D01*
X695828333Y-389519333D01*
X695695000Y-389519333D01*
X695628333Y-389552666D01*
X695595000Y-389586000D01*
X695561666Y-389652666D01*
X696195000Y-389252666D02*
X696661666Y-389252666D01*
X696195000Y-389952666D01*
X696661666Y-389952666D01*
X697228333Y-389252666D02*
X697095000Y-389252666D01*
X697028333Y-389286000D01*
X696995000Y-389319333D01*
X696928333Y-389419333D01*
X696895000Y-389552666D01*
X696895000Y-389819333D01*
X696928333Y-389886000D01*
X696961666Y-389919333D01*
X697028333Y-389952666D01*
X697161666Y-389952666D01*
X697228333Y-389919333D01*
X697261666Y-389886000D01*
X697295000Y-389819333D01*
X697295000Y-389652666D01*
X697261666Y-389586000D01*
X697228333Y-389552666D01*
X697161666Y-389519333D01*
X697028333Y-389519333D01*
X696961666Y-389552666D01*
X696928333Y-389586000D01*
X696895000Y-389652666D01*
X697895000Y-389486000D02*
X697895000Y-389952666D01*
X697728333Y-389219333D02*
X697561666Y-389719333D01*
X697995000Y-389719333D01*
X698161666Y-389252666D02*
X698395000Y-389952666D01*
X698628333Y-389252666D01*
X699095000Y-389586000D02*
X698861666Y-389586000D01*
X698861666Y-389952666D02*
X698861666Y-389252666D01*
X699195000Y-389252666D01*
X699361666Y-389252666D02*
X699761666Y-389252666D01*
X699561666Y-389952666D02*
X699561666Y-389252666D01*
X700295000Y-389486000D02*
X700295000Y-389952666D01*
X700128333Y-389219333D02*
X699961666Y-389719333D01*
X700395000Y-389719333D01*
X692378333Y-387412666D02*
X692378333Y-386712666D01*
X692611666Y-387212666D01*
X692845000Y-386712666D01*
X692845000Y-387412666D01*
X693178333Y-387412666D02*
X693178333Y-386712666D01*
X693578333Y-387412666D02*
X693278333Y-387012666D01*
X693578333Y-386712666D02*
X693178333Y-387112666D01*
X693845000Y-386779333D02*
X693878333Y-386746000D01*
X693945000Y-386712666D01*
X694111666Y-386712666D01*
X694178333Y-386746000D01*
X694211666Y-386779333D01*
X694245000Y-386846000D01*
X694245000Y-386912666D01*
X694211666Y-387012666D01*
X693811666Y-387412666D01*
X694245000Y-387412666D01*
X694678333Y-386712666D02*
X694745000Y-386712666D01*
X694811666Y-386746000D01*
X694845000Y-386779333D01*
X694878333Y-386846000D01*
X694911666Y-386979333D01*
X694911666Y-387146000D01*
X694878333Y-387279333D01*
X694845000Y-387346000D01*
X694811666Y-387379333D01*
X694745000Y-387412666D01*
X694678333Y-387412666D01*
X694611666Y-387379333D01*
X694578333Y-387346000D01*
X694545000Y-387279333D01*
X694511666Y-387146000D01*
X694511666Y-386979333D01*
X694545000Y-386846000D01*
X694578333Y-386779333D01*
X694611666Y-386746000D01*
X694678333Y-386712666D01*
X695211666Y-387412666D02*
X695211666Y-386712666D01*
X695378333Y-386712666D01*
X695478333Y-386746000D01*
X695545000Y-386812666D01*
X695578333Y-386879333D01*
X695611666Y-387012666D01*
X695611666Y-387112666D01*
X695578333Y-387246000D01*
X695545000Y-387312666D01*
X695478333Y-387379333D01*
X695378333Y-387412666D01*
X695211666Y-387412666D01*
X695845000Y-386712666D02*
X696311666Y-387412666D01*
X696311666Y-386712666D02*
X695845000Y-387412666D01*
X696545000Y-386779333D02*
X696578333Y-386746000D01*
X696645000Y-386712666D01*
X696811666Y-386712666D01*
X696878333Y-386746000D01*
X696911666Y-386779333D01*
X696945000Y-386846000D01*
X696945000Y-386912666D01*
X696911666Y-387012666D01*
X696511666Y-387412666D01*
X696945000Y-387412666D01*
X697578333Y-386712666D02*
X697245000Y-386712666D01*
X697211666Y-387046000D01*
X697245000Y-387012666D01*
X697311666Y-386979333D01*
X697478333Y-386979333D01*
X697545000Y-387012666D01*
X697578333Y-387046000D01*
X697611666Y-387112666D01*
X697611666Y-387279333D01*
X697578333Y-387346000D01*
X697545000Y-387379333D01*
X697478333Y-387412666D01*
X697311666Y-387412666D01*
X697245000Y-387379333D01*
X697211666Y-387346000D01*
X698211666Y-386712666D02*
X698078333Y-386712666D01*
X698011666Y-386746000D01*
X697978333Y-386779333D01*
X697911666Y-386879333D01*
X697878333Y-387012666D01*
X697878333Y-387279333D01*
X697911666Y-387346000D01*
X697945000Y-387379333D01*
X698011666Y-387412666D01*
X698145000Y-387412666D01*
X698211666Y-387379333D01*
X698245000Y-387346000D01*
X698278333Y-387279333D01*
X698278333Y-387112666D01*
X698245000Y-387046000D01*
X698211666Y-387012666D01*
X698145000Y-386979333D01*
X698011666Y-386979333D01*
X697945000Y-387012666D01*
X697911666Y-387046000D01*
X697878333Y-387112666D01*
X698478333Y-386712666D02*
X698711666Y-387412666D01*
X698945000Y-386712666D01*
X699511666Y-387412666D02*
X699178333Y-387412666D01*
X699178333Y-386712666D01*
X699745000Y-387412666D02*
X699745000Y-386712666D01*
X699745000Y-387046000D02*
X700145000Y-387046000D01*
X700145000Y-387412666D02*
X700145000Y-386712666D01*
X700411666Y-386712666D02*
X700878333Y-386712666D01*
X700578333Y-387412666D01*
X685252380Y-388826190D02*
X685252380Y-388254761D01*
X686252380Y-388540476D02*
X685252380Y-388540476D01*
X685252380Y-388016666D02*
X685252380Y-387397619D01*
X685633333Y-387730952D01*
X685633333Y-387588095D01*
X685680952Y-387492857D01*
X685728571Y-387445238D01*
X685823809Y-387397619D01*
X686061904Y-387397619D01*
X686157142Y-387445238D01*
X686204761Y-387492857D01*
X686252380Y-387588095D01*
X686252380Y-387873809D01*
X686204761Y-387969047D01*
X686157142Y-388016666D01*
X686157142Y-386969047D02*
X686204761Y-386921428D01*
X686252380Y-386969047D01*
X686204761Y-387016666D01*
X686157142Y-386969047D01*
X686252380Y-386969047D01*
X686252380Y-385969047D02*
X686252380Y-386540476D01*
X686252380Y-386254761D02*
X685252380Y-386254761D01*
X685395238Y-386350000D01*
X685490476Y-386445238D01*
X685538095Y-386540476D01*
X681442380Y-388826190D02*
X681442380Y-388254761D01*
X682442380Y-388540476D02*
X681442380Y-388540476D01*
X681442380Y-388016666D02*
X681442380Y-387397619D01*
X681823333Y-387730952D01*
X681823333Y-387588095D01*
X681870952Y-387492857D01*
X681918571Y-387445238D01*
X682013809Y-387397619D01*
X682251904Y-387397619D01*
X682347142Y-387445238D01*
X682394761Y-387492857D01*
X682442380Y-387588095D01*
X682442380Y-387873809D01*
X682394761Y-387969047D01*
X682347142Y-388016666D01*
X682347142Y-386969047D02*
X682394761Y-386921428D01*
X682442380Y-386969047D01*
X682394761Y-387016666D01*
X682347142Y-386969047D01*
X682442380Y-386969047D01*
X681537619Y-386540476D02*
X681490000Y-386492857D01*
X681442380Y-386397619D01*
X681442380Y-386159523D01*
X681490000Y-386064285D01*
X681537619Y-386016666D01*
X681632857Y-385969047D01*
X681728095Y-385969047D01*
X681870952Y-386016666D01*
X682442380Y-386588095D01*
X682442380Y-385969047D01*
X714952380Y-395133333D02*
X715666666Y-395133333D01*
X715809523Y-395180952D01*
X715904761Y-395276190D01*
X715952380Y-395419047D01*
X715952380Y-395514285D01*
X715047619Y-394704761D02*
X715000000Y-394657142D01*
X714952380Y-394561904D01*
X714952380Y-394323809D01*
X715000000Y-394228571D01*
X715047619Y-394180952D01*
X715142857Y-394133333D01*
X715238095Y-394133333D01*
X715380952Y-394180952D01*
X715952380Y-394752380D01*
X715952380Y-394133333D01*
M02*
