G04 #@! TF.GenerationSoftware,KiCad,Pcbnew,(5.1.5)-2*
G04 #@! TF.CreationDate,2020-01-08T13:09:33+10:00*
G04 #@! TF.ProjectId,teensy-carrier,7465656e-7379-42d6-9361-72726965722e,rev?*
G04 #@! TF.SameCoordinates,Original*
G04 #@! TF.FileFunction,Copper,L2,Bot*
G04 #@! TF.FilePolarity,Positive*
%FSLAX46Y46*%
G04 Gerber Fmt 4.6, Leading zero omitted, Abs format (unit mm)*
G04 Created by KiCad (PCBNEW (5.1.5)-2) date 2020-01-08 13:09:33*
%MOMM*%
%LPD*%
G04 APERTURE LIST*
%ADD10C,1.700000*%
%ADD11C,1.900000*%
%ADD12R,1.600000X1.600000*%
%ADD13C,1.600000*%
%ADD14C,0.700000*%
%ADD15C,0.250000*%
%ADD16C,0.200000*%
G04 APERTURE END LIST*
D10*
X676960000Y-371060000D03*
X676960000Y-373600000D03*
X679500000Y-371060000D03*
X679500000Y-373600000D03*
X712740000Y-373540000D03*
X712740000Y-371000000D03*
X710200000Y-373540000D03*
X710200000Y-371000000D03*
D11*
X681990000Y-389890000D03*
X685800000Y-389890000D03*
D12*
X675640000Y-397510000D03*
D13*
X678180000Y-397510000D03*
X680720000Y-397510000D03*
X683260000Y-397510000D03*
X685800000Y-397510000D03*
X688340000Y-397510000D03*
X690880000Y-397510000D03*
X693420000Y-397510000D03*
X695960000Y-397510000D03*
X698500000Y-397510000D03*
X701040000Y-397510000D03*
X703580000Y-397510000D03*
X706120000Y-397510000D03*
X688340000Y-384810000D03*
X685800000Y-384810000D03*
X683260000Y-384810000D03*
X678180000Y-384810000D03*
X675640000Y-382270000D03*
X678180000Y-382270000D03*
X680720000Y-382270000D03*
X683260000Y-382270000D03*
X685800000Y-382270000D03*
X688340000Y-382270000D03*
X690880000Y-382270000D03*
X693420000Y-382270000D03*
X695960000Y-382270000D03*
X698500000Y-382270000D03*
X701040000Y-382270000D03*
X703580000Y-382270000D03*
X706120000Y-382270000D03*
X708660000Y-397510000D03*
X708660000Y-394970000D03*
X708660000Y-392430000D03*
X708660000Y-382270000D03*
X708660000Y-384810000D03*
X708660000Y-387350000D03*
X708660000Y-389890000D03*
D14*
X690400000Y-369700000D03*
X688700000Y-369700000D03*
X687100000Y-369700000D03*
X717800000Y-388700000D03*
X702000000Y-376000000D03*
X700000000Y-376000000D03*
X698000000Y-376000000D03*
X702000000Y-374000000D03*
X700000000Y-374000000D03*
X698000000Y-374000000D03*
X702000000Y-372000000D03*
X700000000Y-372000000D03*
X698000000Y-372000000D03*
X702000000Y-370000000D03*
X700000000Y-370000000D03*
X698000000Y-370000000D03*
X696000000Y-376000000D03*
X696000000Y-374000000D03*
X696000000Y-372000000D03*
X696000000Y-370000000D03*
X694000000Y-376000000D03*
X694000000Y-374000000D03*
X694000000Y-372000000D03*
X694000000Y-370000000D03*
X702000000Y-368000000D03*
X700000000Y-368000000D03*
X698000000Y-368000000D03*
X696000000Y-368000000D03*
X694000000Y-368000000D03*
X713410000Y-392390000D03*
X714100000Y-389700000D03*
X714099996Y-387400000D03*
D15*
X713410000Y-390390000D02*
X714100000Y-389700000D01*
X713410000Y-392390000D02*
X713410000Y-390390000D01*
X713749997Y-387749999D02*
X714099996Y-387400000D01*
X707700000Y-391200000D02*
X710299996Y-391200000D01*
X706120000Y-392780000D02*
X707700000Y-391200000D01*
X710299996Y-391200000D02*
X713749997Y-387749999D01*
X706120000Y-397510000D02*
X706120000Y-392780000D01*
D16*
G36*
X723175000Y-398675000D02*
G01*
X667825000Y-398675000D01*
X667825000Y-398310000D01*
X674538548Y-398310000D01*
X674544340Y-398368810D01*
X674561495Y-398425361D01*
X674589352Y-398477478D01*
X674626841Y-398523159D01*
X674672522Y-398560648D01*
X674724639Y-398588505D01*
X674781190Y-398605660D01*
X674840000Y-398611452D01*
X675465000Y-398610000D01*
X675540000Y-398535000D01*
X675540000Y-397610000D01*
X675740000Y-397610000D01*
X675740000Y-398535000D01*
X675815000Y-398610000D01*
X676440000Y-398611452D01*
X676498810Y-398605660D01*
X676555361Y-398588505D01*
X676607478Y-398560648D01*
X676653159Y-398523159D01*
X676690648Y-398477478D01*
X676718505Y-398425361D01*
X676735660Y-398368810D01*
X676741452Y-398310000D01*
X676740000Y-397685000D01*
X676665000Y-397610000D01*
X675740000Y-397610000D01*
X675540000Y-397610000D01*
X674615000Y-397610000D01*
X674540000Y-397685000D01*
X674538548Y-398310000D01*
X667825000Y-398310000D01*
X667825000Y-396710000D01*
X674538548Y-396710000D01*
X674540000Y-397335000D01*
X674615000Y-397410000D01*
X675540000Y-397410000D01*
X675540000Y-396485000D01*
X675740000Y-396485000D01*
X675740000Y-397410000D01*
X676665000Y-397410000D01*
X676673341Y-397401659D01*
X677080000Y-397401659D01*
X677080000Y-397618341D01*
X677122273Y-397830858D01*
X677205193Y-398031045D01*
X677325575Y-398211209D01*
X677478791Y-398364425D01*
X677658955Y-398484807D01*
X677859142Y-398567727D01*
X678071659Y-398610000D01*
X678288341Y-398610000D01*
X678500858Y-398567727D01*
X678701045Y-398484807D01*
X678881209Y-398364425D01*
X679034425Y-398211209D01*
X679154807Y-398031045D01*
X679237727Y-397830858D01*
X679280000Y-397618341D01*
X679280000Y-397401659D01*
X679620000Y-397401659D01*
X679620000Y-397618341D01*
X679662273Y-397830858D01*
X679745193Y-398031045D01*
X679865575Y-398211209D01*
X680018791Y-398364425D01*
X680198955Y-398484807D01*
X680399142Y-398567727D01*
X680611659Y-398610000D01*
X680828341Y-398610000D01*
X681040858Y-398567727D01*
X681241045Y-398484807D01*
X681421209Y-398364425D01*
X681574425Y-398211209D01*
X681694807Y-398031045D01*
X681777727Y-397830858D01*
X681820000Y-397618341D01*
X681820000Y-397401659D01*
X682160000Y-397401659D01*
X682160000Y-397618341D01*
X682202273Y-397830858D01*
X682285193Y-398031045D01*
X682405575Y-398211209D01*
X682558791Y-398364425D01*
X682738955Y-398484807D01*
X682939142Y-398567727D01*
X683151659Y-398610000D01*
X683368341Y-398610000D01*
X683580858Y-398567727D01*
X683781045Y-398484807D01*
X683961209Y-398364425D01*
X684114425Y-398211209D01*
X684234807Y-398031045D01*
X684317727Y-397830858D01*
X684360000Y-397618341D01*
X684360000Y-397401659D01*
X684700000Y-397401659D01*
X684700000Y-397618341D01*
X684742273Y-397830858D01*
X684825193Y-398031045D01*
X684945575Y-398211209D01*
X685098791Y-398364425D01*
X685278955Y-398484807D01*
X685479142Y-398567727D01*
X685691659Y-398610000D01*
X685908341Y-398610000D01*
X686120858Y-398567727D01*
X686321045Y-398484807D01*
X686501209Y-398364425D01*
X686654425Y-398211209D01*
X686774807Y-398031045D01*
X686857727Y-397830858D01*
X686900000Y-397618341D01*
X686900000Y-397401659D01*
X687240000Y-397401659D01*
X687240000Y-397618341D01*
X687282273Y-397830858D01*
X687365193Y-398031045D01*
X687485575Y-398211209D01*
X687638791Y-398364425D01*
X687818955Y-398484807D01*
X688019142Y-398567727D01*
X688231659Y-398610000D01*
X688448341Y-398610000D01*
X688660858Y-398567727D01*
X688861045Y-398484807D01*
X689041209Y-398364425D01*
X689194425Y-398211209D01*
X689314807Y-398031045D01*
X689397727Y-397830858D01*
X689440000Y-397618341D01*
X689440000Y-397401659D01*
X689780000Y-397401659D01*
X689780000Y-397618341D01*
X689822273Y-397830858D01*
X689905193Y-398031045D01*
X690025575Y-398211209D01*
X690178791Y-398364425D01*
X690358955Y-398484807D01*
X690559142Y-398567727D01*
X690771659Y-398610000D01*
X690988341Y-398610000D01*
X691200858Y-398567727D01*
X691401045Y-398484807D01*
X691581209Y-398364425D01*
X691734425Y-398211209D01*
X691854807Y-398031045D01*
X691937727Y-397830858D01*
X691980000Y-397618341D01*
X691980000Y-397401659D01*
X692320000Y-397401659D01*
X692320000Y-397618341D01*
X692362273Y-397830858D01*
X692445193Y-398031045D01*
X692565575Y-398211209D01*
X692718791Y-398364425D01*
X692898955Y-398484807D01*
X693099142Y-398567727D01*
X693311659Y-398610000D01*
X693528341Y-398610000D01*
X693740858Y-398567727D01*
X693941045Y-398484807D01*
X694121209Y-398364425D01*
X694274425Y-398211209D01*
X694394807Y-398031045D01*
X694477727Y-397830858D01*
X694520000Y-397618341D01*
X694520000Y-397401659D01*
X694860000Y-397401659D01*
X694860000Y-397618341D01*
X694902273Y-397830858D01*
X694985193Y-398031045D01*
X695105575Y-398211209D01*
X695258791Y-398364425D01*
X695438955Y-398484807D01*
X695639142Y-398567727D01*
X695851659Y-398610000D01*
X696068341Y-398610000D01*
X696280858Y-398567727D01*
X696481045Y-398484807D01*
X696661209Y-398364425D01*
X696814425Y-398211209D01*
X696934807Y-398031045D01*
X697017727Y-397830858D01*
X697060000Y-397618341D01*
X697060000Y-397401659D01*
X697400000Y-397401659D01*
X697400000Y-397618341D01*
X697442273Y-397830858D01*
X697525193Y-398031045D01*
X697645575Y-398211209D01*
X697798791Y-398364425D01*
X697978955Y-398484807D01*
X698179142Y-398567727D01*
X698391659Y-398610000D01*
X698608341Y-398610000D01*
X698820858Y-398567727D01*
X699021045Y-398484807D01*
X699201209Y-398364425D01*
X699354425Y-398211209D01*
X699474807Y-398031045D01*
X699557727Y-397830858D01*
X699600000Y-397618341D01*
X699600000Y-397401659D01*
X699940000Y-397401659D01*
X699940000Y-397618341D01*
X699982273Y-397830858D01*
X700065193Y-398031045D01*
X700185575Y-398211209D01*
X700338791Y-398364425D01*
X700518955Y-398484807D01*
X700719142Y-398567727D01*
X700931659Y-398610000D01*
X701148341Y-398610000D01*
X701360858Y-398567727D01*
X701561045Y-398484807D01*
X701741209Y-398364425D01*
X701894425Y-398211209D01*
X702014807Y-398031045D01*
X702097727Y-397830858D01*
X702140000Y-397618341D01*
X702140000Y-397401659D01*
X702480000Y-397401659D01*
X702480000Y-397618341D01*
X702522273Y-397830858D01*
X702605193Y-398031045D01*
X702725575Y-398211209D01*
X702878791Y-398364425D01*
X703058955Y-398484807D01*
X703259142Y-398567727D01*
X703471659Y-398610000D01*
X703688341Y-398610000D01*
X703900858Y-398567727D01*
X704101045Y-398484807D01*
X704281209Y-398364425D01*
X704434425Y-398211209D01*
X704554807Y-398031045D01*
X704637727Y-397830858D01*
X704680000Y-397618341D01*
X704680000Y-397401659D01*
X705020000Y-397401659D01*
X705020000Y-397618341D01*
X705062273Y-397830858D01*
X705145193Y-398031045D01*
X705265575Y-398211209D01*
X705418791Y-398364425D01*
X705598955Y-398484807D01*
X705799142Y-398567727D01*
X706011659Y-398610000D01*
X706228341Y-398610000D01*
X706440858Y-398567727D01*
X706641045Y-398484807D01*
X706821209Y-398364425D01*
X706974425Y-398211209D01*
X707094807Y-398031045D01*
X707177727Y-397830858D01*
X707220000Y-397618341D01*
X707220000Y-397401659D01*
X707560000Y-397401659D01*
X707560000Y-397618341D01*
X707602273Y-397830858D01*
X707685193Y-398031045D01*
X707805575Y-398211209D01*
X707958791Y-398364425D01*
X708138955Y-398484807D01*
X708339142Y-398567727D01*
X708551659Y-398610000D01*
X708768341Y-398610000D01*
X708980858Y-398567727D01*
X709181045Y-398484807D01*
X709361209Y-398364425D01*
X709514425Y-398211209D01*
X709634807Y-398031045D01*
X709717727Y-397830858D01*
X709760000Y-397618341D01*
X709760000Y-397401659D01*
X709717727Y-397189142D01*
X709634807Y-396988955D01*
X709514425Y-396808791D01*
X709361209Y-396655575D01*
X709181045Y-396535193D01*
X708980858Y-396452273D01*
X708768341Y-396410000D01*
X708551659Y-396410000D01*
X708339142Y-396452273D01*
X708138955Y-396535193D01*
X707958791Y-396655575D01*
X707805575Y-396808791D01*
X707685193Y-396988955D01*
X707602273Y-397189142D01*
X707560000Y-397401659D01*
X707220000Y-397401659D01*
X707177727Y-397189142D01*
X707094807Y-396988955D01*
X706974425Y-396808791D01*
X706821209Y-396655575D01*
X706641045Y-396535193D01*
X706545000Y-396495410D01*
X706545000Y-394861659D01*
X707560000Y-394861659D01*
X707560000Y-395078341D01*
X707602273Y-395290858D01*
X707685193Y-395491045D01*
X707805575Y-395671209D01*
X707958791Y-395824425D01*
X708138955Y-395944807D01*
X708339142Y-396027727D01*
X708551659Y-396070000D01*
X708768341Y-396070000D01*
X708980858Y-396027727D01*
X709181045Y-395944807D01*
X709361209Y-395824425D01*
X709514425Y-395671209D01*
X709634807Y-395491045D01*
X709717727Y-395290858D01*
X709760000Y-395078341D01*
X709760000Y-394861659D01*
X709717727Y-394649142D01*
X709634807Y-394448955D01*
X709514425Y-394268791D01*
X709361209Y-394115575D01*
X709181045Y-393995193D01*
X708980858Y-393912273D01*
X708768341Y-393870000D01*
X708551659Y-393870000D01*
X708339142Y-393912273D01*
X708138955Y-393995193D01*
X707958791Y-394115575D01*
X707805575Y-394268791D01*
X707685193Y-394448955D01*
X707602273Y-394649142D01*
X707560000Y-394861659D01*
X706545000Y-394861659D01*
X706545000Y-392956040D01*
X707876041Y-391625000D01*
X707909366Y-391625000D01*
X707805575Y-391728791D01*
X707685193Y-391908955D01*
X707602273Y-392109142D01*
X707560000Y-392321659D01*
X707560000Y-392538341D01*
X707602273Y-392750858D01*
X707685193Y-392951045D01*
X707805575Y-393131209D01*
X707958791Y-393284425D01*
X708138955Y-393404807D01*
X708339142Y-393487727D01*
X708551659Y-393530000D01*
X708768341Y-393530000D01*
X708980858Y-393487727D01*
X709181045Y-393404807D01*
X709361209Y-393284425D01*
X709514425Y-393131209D01*
X709634807Y-392951045D01*
X709717727Y-392750858D01*
X709760000Y-392538341D01*
X709760000Y-392325981D01*
X712760000Y-392325981D01*
X712760000Y-392454019D01*
X712784979Y-392579598D01*
X712833978Y-392697890D01*
X712905112Y-392804351D01*
X712995649Y-392894888D01*
X713102110Y-392966022D01*
X713220402Y-393015021D01*
X713345981Y-393040000D01*
X713474019Y-393040000D01*
X713599598Y-393015021D01*
X713717890Y-392966022D01*
X713824351Y-392894888D01*
X713914888Y-392804351D01*
X713986022Y-392697890D01*
X714035021Y-392579598D01*
X714060000Y-392454019D01*
X714060000Y-392325981D01*
X714035021Y-392200402D01*
X713986022Y-392082110D01*
X713914888Y-391975649D01*
X713835000Y-391895761D01*
X713835000Y-390566040D01*
X714051040Y-390350000D01*
X714164019Y-390350000D01*
X714289598Y-390325021D01*
X714407890Y-390276022D01*
X714514351Y-390204888D01*
X714604888Y-390114351D01*
X714676022Y-390007890D01*
X714725021Y-389889598D01*
X714750000Y-389764019D01*
X714750000Y-389635981D01*
X714725021Y-389510402D01*
X714676022Y-389392110D01*
X714604888Y-389285649D01*
X714514351Y-389195112D01*
X714407890Y-389123978D01*
X714289598Y-389074979D01*
X714164019Y-389050000D01*
X714035981Y-389050000D01*
X713910402Y-389074979D01*
X713792110Y-389123978D01*
X713685649Y-389195112D01*
X713595112Y-389285649D01*
X713523978Y-389392110D01*
X713474979Y-389510402D01*
X713450000Y-389635981D01*
X713450000Y-389748960D01*
X713124239Y-390074721D01*
X713108027Y-390088026D01*
X713054917Y-390152740D01*
X713027044Y-390204888D01*
X713015453Y-390226573D01*
X712991150Y-390306686D01*
X712982945Y-390390000D01*
X712985001Y-390410877D01*
X712985000Y-391895761D01*
X712905112Y-391975649D01*
X712833978Y-392082110D01*
X712784979Y-392200402D01*
X712760000Y-392325981D01*
X709760000Y-392325981D01*
X709760000Y-392321659D01*
X709717727Y-392109142D01*
X709634807Y-391908955D01*
X709514425Y-391728791D01*
X709410634Y-391625000D01*
X710279129Y-391625000D01*
X710299996Y-391627055D01*
X710320863Y-391625000D01*
X710320870Y-391625000D01*
X710383310Y-391618850D01*
X710463423Y-391594548D01*
X710537256Y-391555084D01*
X710601970Y-391501974D01*
X710615279Y-391485757D01*
X714051037Y-388050000D01*
X714164015Y-388050000D01*
X714289594Y-388025021D01*
X714407886Y-387976022D01*
X714514347Y-387904888D01*
X714604884Y-387814351D01*
X714676018Y-387707890D01*
X714725017Y-387589598D01*
X714749996Y-387464019D01*
X714749996Y-387335981D01*
X714725017Y-387210402D01*
X714676018Y-387092110D01*
X714604884Y-386985649D01*
X714514347Y-386895112D01*
X714407886Y-386823978D01*
X714289594Y-386774979D01*
X714164015Y-386750000D01*
X714035977Y-386750000D01*
X713910398Y-386774979D01*
X713792106Y-386823978D01*
X713685645Y-386895112D01*
X713595108Y-386985649D01*
X713523974Y-387092110D01*
X713474975Y-387210402D01*
X713449996Y-387335981D01*
X713449996Y-387448959D01*
X710123956Y-390775000D01*
X709263119Y-390775000D01*
X709314398Y-390685819D01*
X708660000Y-390031421D01*
X708005602Y-390685819D01*
X708056881Y-390775000D01*
X707720866Y-390775000D01*
X707699999Y-390772945D01*
X707679132Y-390775000D01*
X707679126Y-390775000D01*
X707625098Y-390780321D01*
X707616685Y-390781150D01*
X707592383Y-390788522D01*
X707536573Y-390805452D01*
X707462740Y-390844916D01*
X707398026Y-390898026D01*
X707384721Y-390914238D01*
X705834239Y-392464721D01*
X705818027Y-392478026D01*
X705764917Y-392542740D01*
X705725453Y-392616573D01*
X705701150Y-392696686D01*
X705692945Y-392780000D01*
X705695001Y-392800877D01*
X705695000Y-396495410D01*
X705598955Y-396535193D01*
X705418791Y-396655575D01*
X705265575Y-396808791D01*
X705145193Y-396988955D01*
X705062273Y-397189142D01*
X705020000Y-397401659D01*
X704680000Y-397401659D01*
X704637727Y-397189142D01*
X704554807Y-396988955D01*
X704434425Y-396808791D01*
X704281209Y-396655575D01*
X704101045Y-396535193D01*
X703900858Y-396452273D01*
X703688341Y-396410000D01*
X703471659Y-396410000D01*
X703259142Y-396452273D01*
X703058955Y-396535193D01*
X702878791Y-396655575D01*
X702725575Y-396808791D01*
X702605193Y-396988955D01*
X702522273Y-397189142D01*
X702480000Y-397401659D01*
X702140000Y-397401659D01*
X702097727Y-397189142D01*
X702014807Y-396988955D01*
X701894425Y-396808791D01*
X701741209Y-396655575D01*
X701561045Y-396535193D01*
X701360858Y-396452273D01*
X701148341Y-396410000D01*
X700931659Y-396410000D01*
X700719142Y-396452273D01*
X700518955Y-396535193D01*
X700338791Y-396655575D01*
X700185575Y-396808791D01*
X700065193Y-396988955D01*
X699982273Y-397189142D01*
X699940000Y-397401659D01*
X699600000Y-397401659D01*
X699557727Y-397189142D01*
X699474807Y-396988955D01*
X699354425Y-396808791D01*
X699201209Y-396655575D01*
X699021045Y-396535193D01*
X698820858Y-396452273D01*
X698608341Y-396410000D01*
X698391659Y-396410000D01*
X698179142Y-396452273D01*
X697978955Y-396535193D01*
X697798791Y-396655575D01*
X697645575Y-396808791D01*
X697525193Y-396988955D01*
X697442273Y-397189142D01*
X697400000Y-397401659D01*
X697060000Y-397401659D01*
X697017727Y-397189142D01*
X696934807Y-396988955D01*
X696814425Y-396808791D01*
X696661209Y-396655575D01*
X696481045Y-396535193D01*
X696280858Y-396452273D01*
X696068341Y-396410000D01*
X695851659Y-396410000D01*
X695639142Y-396452273D01*
X695438955Y-396535193D01*
X695258791Y-396655575D01*
X695105575Y-396808791D01*
X694985193Y-396988955D01*
X694902273Y-397189142D01*
X694860000Y-397401659D01*
X694520000Y-397401659D01*
X694477727Y-397189142D01*
X694394807Y-396988955D01*
X694274425Y-396808791D01*
X694121209Y-396655575D01*
X693941045Y-396535193D01*
X693740858Y-396452273D01*
X693528341Y-396410000D01*
X693311659Y-396410000D01*
X693099142Y-396452273D01*
X692898955Y-396535193D01*
X692718791Y-396655575D01*
X692565575Y-396808791D01*
X692445193Y-396988955D01*
X692362273Y-397189142D01*
X692320000Y-397401659D01*
X691980000Y-397401659D01*
X691937727Y-397189142D01*
X691854807Y-396988955D01*
X691734425Y-396808791D01*
X691581209Y-396655575D01*
X691401045Y-396535193D01*
X691200858Y-396452273D01*
X690988341Y-396410000D01*
X690771659Y-396410000D01*
X690559142Y-396452273D01*
X690358955Y-396535193D01*
X690178791Y-396655575D01*
X690025575Y-396808791D01*
X689905193Y-396988955D01*
X689822273Y-397189142D01*
X689780000Y-397401659D01*
X689440000Y-397401659D01*
X689397727Y-397189142D01*
X689314807Y-396988955D01*
X689194425Y-396808791D01*
X689041209Y-396655575D01*
X688861045Y-396535193D01*
X688660858Y-396452273D01*
X688448341Y-396410000D01*
X688231659Y-396410000D01*
X688019142Y-396452273D01*
X687818955Y-396535193D01*
X687638791Y-396655575D01*
X687485575Y-396808791D01*
X687365193Y-396988955D01*
X687282273Y-397189142D01*
X687240000Y-397401659D01*
X686900000Y-397401659D01*
X686857727Y-397189142D01*
X686774807Y-396988955D01*
X686654425Y-396808791D01*
X686501209Y-396655575D01*
X686321045Y-396535193D01*
X686120858Y-396452273D01*
X685908341Y-396410000D01*
X685691659Y-396410000D01*
X685479142Y-396452273D01*
X685278955Y-396535193D01*
X685098791Y-396655575D01*
X684945575Y-396808791D01*
X684825193Y-396988955D01*
X684742273Y-397189142D01*
X684700000Y-397401659D01*
X684360000Y-397401659D01*
X684317727Y-397189142D01*
X684234807Y-396988955D01*
X684114425Y-396808791D01*
X683961209Y-396655575D01*
X683781045Y-396535193D01*
X683580858Y-396452273D01*
X683368341Y-396410000D01*
X683151659Y-396410000D01*
X682939142Y-396452273D01*
X682738955Y-396535193D01*
X682558791Y-396655575D01*
X682405575Y-396808791D01*
X682285193Y-396988955D01*
X682202273Y-397189142D01*
X682160000Y-397401659D01*
X681820000Y-397401659D01*
X681777727Y-397189142D01*
X681694807Y-396988955D01*
X681574425Y-396808791D01*
X681421209Y-396655575D01*
X681241045Y-396535193D01*
X681040858Y-396452273D01*
X680828341Y-396410000D01*
X680611659Y-396410000D01*
X680399142Y-396452273D01*
X680198955Y-396535193D01*
X680018791Y-396655575D01*
X679865575Y-396808791D01*
X679745193Y-396988955D01*
X679662273Y-397189142D01*
X679620000Y-397401659D01*
X679280000Y-397401659D01*
X679237727Y-397189142D01*
X679154807Y-396988955D01*
X679034425Y-396808791D01*
X678881209Y-396655575D01*
X678701045Y-396535193D01*
X678500858Y-396452273D01*
X678288341Y-396410000D01*
X678071659Y-396410000D01*
X677859142Y-396452273D01*
X677658955Y-396535193D01*
X677478791Y-396655575D01*
X677325575Y-396808791D01*
X677205193Y-396988955D01*
X677122273Y-397189142D01*
X677080000Y-397401659D01*
X676673341Y-397401659D01*
X676740000Y-397335000D01*
X676741452Y-396710000D01*
X676735660Y-396651190D01*
X676718505Y-396594639D01*
X676690648Y-396542522D01*
X676653159Y-396496841D01*
X676607478Y-396459352D01*
X676555361Y-396431495D01*
X676498810Y-396414340D01*
X676440000Y-396408548D01*
X675815000Y-396410000D01*
X675740000Y-396485000D01*
X675540000Y-396485000D01*
X675465000Y-396410000D01*
X674840000Y-396408548D01*
X674781190Y-396414340D01*
X674724639Y-396431495D01*
X674672522Y-396459352D01*
X674626841Y-396496841D01*
X674589352Y-396542522D01*
X674561495Y-396594639D01*
X674544340Y-396651190D01*
X674538548Y-396710000D01*
X667825000Y-396710000D01*
X667825000Y-389766886D01*
X680740000Y-389766886D01*
X680740000Y-390013114D01*
X680788037Y-390254611D01*
X680882265Y-390482097D01*
X681019062Y-390686828D01*
X681193172Y-390860938D01*
X681397903Y-390997735D01*
X681625389Y-391091963D01*
X681866886Y-391140000D01*
X682113114Y-391140000D01*
X682354611Y-391091963D01*
X682582097Y-390997735D01*
X682786828Y-390860938D01*
X682960938Y-390686828D01*
X683097735Y-390482097D01*
X683191963Y-390254611D01*
X683240000Y-390013114D01*
X683240000Y-389766886D01*
X684550000Y-389766886D01*
X684550000Y-390013114D01*
X684598037Y-390254611D01*
X684692265Y-390482097D01*
X684829062Y-390686828D01*
X685003172Y-390860938D01*
X685207903Y-390997735D01*
X685435389Y-391091963D01*
X685676886Y-391140000D01*
X685923114Y-391140000D01*
X686164611Y-391091963D01*
X686392097Y-390997735D01*
X686596828Y-390860938D01*
X686770938Y-390686828D01*
X686907735Y-390482097D01*
X687001963Y-390254611D01*
X687050000Y-390013114D01*
X687050000Y-389946706D01*
X707556133Y-389946706D01*
X707588407Y-390160970D01*
X707661861Y-390364821D01*
X707710665Y-390456126D01*
X707864181Y-390544398D01*
X708518579Y-389890000D01*
X708801421Y-389890000D01*
X709455819Y-390544398D01*
X709609335Y-390456126D01*
X709701540Y-390260042D01*
X709753719Y-390049737D01*
X709763867Y-389833294D01*
X709731593Y-389619030D01*
X709658139Y-389415179D01*
X709609335Y-389323874D01*
X709455819Y-389235602D01*
X708801421Y-389890000D01*
X708518579Y-389890000D01*
X707864181Y-389235602D01*
X707710665Y-389323874D01*
X707618460Y-389519958D01*
X707566281Y-389730263D01*
X707556133Y-389946706D01*
X687050000Y-389946706D01*
X687050000Y-389766886D01*
X687001963Y-389525389D01*
X686907735Y-389297903D01*
X686771613Y-389094181D01*
X708005602Y-389094181D01*
X708660000Y-389748579D01*
X709314398Y-389094181D01*
X709226126Y-388940665D01*
X709030042Y-388848460D01*
X708819737Y-388796281D01*
X708603294Y-388786133D01*
X708389030Y-388818407D01*
X708185179Y-388891861D01*
X708093874Y-388940665D01*
X708005602Y-389094181D01*
X686771613Y-389094181D01*
X686770938Y-389093172D01*
X686596828Y-388919062D01*
X686392097Y-388782265D01*
X686164611Y-388688037D01*
X685923114Y-388640000D01*
X685676886Y-388640000D01*
X685435389Y-388688037D01*
X685207903Y-388782265D01*
X685003172Y-388919062D01*
X684829062Y-389093172D01*
X684692265Y-389297903D01*
X684598037Y-389525389D01*
X684550000Y-389766886D01*
X683240000Y-389766886D01*
X683191963Y-389525389D01*
X683097735Y-389297903D01*
X682960938Y-389093172D01*
X682786828Y-388919062D01*
X682582097Y-388782265D01*
X682354611Y-388688037D01*
X682113114Y-388640000D01*
X681866886Y-388640000D01*
X681625389Y-388688037D01*
X681397903Y-388782265D01*
X681193172Y-388919062D01*
X681019062Y-389093172D01*
X680882265Y-389297903D01*
X680788037Y-389525389D01*
X680740000Y-389766886D01*
X667825000Y-389766886D01*
X667825000Y-387241659D01*
X707560000Y-387241659D01*
X707560000Y-387458341D01*
X707602273Y-387670858D01*
X707685193Y-387871045D01*
X707805575Y-388051209D01*
X707958791Y-388204425D01*
X708138955Y-388324807D01*
X708339142Y-388407727D01*
X708551659Y-388450000D01*
X708768341Y-388450000D01*
X708980858Y-388407727D01*
X709181045Y-388324807D01*
X709361209Y-388204425D01*
X709514425Y-388051209D01*
X709634807Y-387871045D01*
X709717727Y-387670858D01*
X709760000Y-387458341D01*
X709760000Y-387241659D01*
X709717727Y-387029142D01*
X709634807Y-386828955D01*
X709514425Y-386648791D01*
X709361209Y-386495575D01*
X709181045Y-386375193D01*
X708980858Y-386292273D01*
X708768341Y-386250000D01*
X708551659Y-386250000D01*
X708339142Y-386292273D01*
X708138955Y-386375193D01*
X707958791Y-386495575D01*
X707805575Y-386648791D01*
X707685193Y-386828955D01*
X707602273Y-387029142D01*
X707560000Y-387241659D01*
X667825000Y-387241659D01*
X667825000Y-384701659D01*
X677080000Y-384701659D01*
X677080000Y-384918341D01*
X677122273Y-385130858D01*
X677205193Y-385331045D01*
X677325575Y-385511209D01*
X677478791Y-385664425D01*
X677658955Y-385784807D01*
X677859142Y-385867727D01*
X678071659Y-385910000D01*
X678288341Y-385910000D01*
X678500858Y-385867727D01*
X678701045Y-385784807D01*
X678881209Y-385664425D01*
X679034425Y-385511209D01*
X679154807Y-385331045D01*
X679237727Y-385130858D01*
X679280000Y-384918341D01*
X679280000Y-384701659D01*
X682160000Y-384701659D01*
X682160000Y-384918341D01*
X682202273Y-385130858D01*
X682285193Y-385331045D01*
X682405575Y-385511209D01*
X682558791Y-385664425D01*
X682738955Y-385784807D01*
X682939142Y-385867727D01*
X683151659Y-385910000D01*
X683368341Y-385910000D01*
X683580858Y-385867727D01*
X683781045Y-385784807D01*
X683961209Y-385664425D01*
X684114425Y-385511209D01*
X684234807Y-385331045D01*
X684317727Y-385130858D01*
X684360000Y-384918341D01*
X684360000Y-384701659D01*
X684700000Y-384701659D01*
X684700000Y-384918341D01*
X684742273Y-385130858D01*
X684825193Y-385331045D01*
X684945575Y-385511209D01*
X685098791Y-385664425D01*
X685278955Y-385784807D01*
X685479142Y-385867727D01*
X685691659Y-385910000D01*
X685908341Y-385910000D01*
X686120858Y-385867727D01*
X686321045Y-385784807D01*
X686501209Y-385664425D01*
X686654425Y-385511209D01*
X686774807Y-385331045D01*
X686857727Y-385130858D01*
X686900000Y-384918341D01*
X686900000Y-384701659D01*
X687240000Y-384701659D01*
X687240000Y-384918341D01*
X687282273Y-385130858D01*
X687365193Y-385331045D01*
X687485575Y-385511209D01*
X687638791Y-385664425D01*
X687818955Y-385784807D01*
X688019142Y-385867727D01*
X688231659Y-385910000D01*
X688448341Y-385910000D01*
X688660858Y-385867727D01*
X688861045Y-385784807D01*
X689041209Y-385664425D01*
X689194425Y-385511209D01*
X689314807Y-385331045D01*
X689397727Y-385130858D01*
X689440000Y-384918341D01*
X689440000Y-384701659D01*
X707560000Y-384701659D01*
X707560000Y-384918341D01*
X707602273Y-385130858D01*
X707685193Y-385331045D01*
X707805575Y-385511209D01*
X707958791Y-385664425D01*
X708138955Y-385784807D01*
X708339142Y-385867727D01*
X708551659Y-385910000D01*
X708768341Y-385910000D01*
X708980858Y-385867727D01*
X709181045Y-385784807D01*
X709361209Y-385664425D01*
X709514425Y-385511209D01*
X709634807Y-385331045D01*
X709717727Y-385130858D01*
X709760000Y-384918341D01*
X709760000Y-384701659D01*
X709717727Y-384489142D01*
X709634807Y-384288955D01*
X709514425Y-384108791D01*
X709361209Y-383955575D01*
X709181045Y-383835193D01*
X708980858Y-383752273D01*
X708768341Y-383710000D01*
X708551659Y-383710000D01*
X708339142Y-383752273D01*
X708138955Y-383835193D01*
X707958791Y-383955575D01*
X707805575Y-384108791D01*
X707685193Y-384288955D01*
X707602273Y-384489142D01*
X707560000Y-384701659D01*
X689440000Y-384701659D01*
X689397727Y-384489142D01*
X689314807Y-384288955D01*
X689194425Y-384108791D01*
X689041209Y-383955575D01*
X688861045Y-383835193D01*
X688660858Y-383752273D01*
X688448341Y-383710000D01*
X688231659Y-383710000D01*
X688019142Y-383752273D01*
X687818955Y-383835193D01*
X687638791Y-383955575D01*
X687485575Y-384108791D01*
X687365193Y-384288955D01*
X687282273Y-384489142D01*
X687240000Y-384701659D01*
X686900000Y-384701659D01*
X686857727Y-384489142D01*
X686774807Y-384288955D01*
X686654425Y-384108791D01*
X686501209Y-383955575D01*
X686321045Y-383835193D01*
X686120858Y-383752273D01*
X685908341Y-383710000D01*
X685691659Y-383710000D01*
X685479142Y-383752273D01*
X685278955Y-383835193D01*
X685098791Y-383955575D01*
X684945575Y-384108791D01*
X684825193Y-384288955D01*
X684742273Y-384489142D01*
X684700000Y-384701659D01*
X684360000Y-384701659D01*
X684317727Y-384489142D01*
X684234807Y-384288955D01*
X684114425Y-384108791D01*
X683961209Y-383955575D01*
X683781045Y-383835193D01*
X683580858Y-383752273D01*
X683368341Y-383710000D01*
X683151659Y-383710000D01*
X682939142Y-383752273D01*
X682738955Y-383835193D01*
X682558791Y-383955575D01*
X682405575Y-384108791D01*
X682285193Y-384288955D01*
X682202273Y-384489142D01*
X682160000Y-384701659D01*
X679280000Y-384701659D01*
X679237727Y-384489142D01*
X679154807Y-384288955D01*
X679034425Y-384108791D01*
X678881209Y-383955575D01*
X678701045Y-383835193D01*
X678500858Y-383752273D01*
X678288341Y-383710000D01*
X678071659Y-383710000D01*
X677859142Y-383752273D01*
X677658955Y-383835193D01*
X677478791Y-383955575D01*
X677325575Y-384108791D01*
X677205193Y-384288955D01*
X677122273Y-384489142D01*
X677080000Y-384701659D01*
X667825000Y-384701659D01*
X667825000Y-382161659D01*
X674540000Y-382161659D01*
X674540000Y-382378341D01*
X674582273Y-382590858D01*
X674665193Y-382791045D01*
X674785575Y-382971209D01*
X674938791Y-383124425D01*
X675118955Y-383244807D01*
X675319142Y-383327727D01*
X675531659Y-383370000D01*
X675748341Y-383370000D01*
X675960858Y-383327727D01*
X676161045Y-383244807D01*
X676341209Y-383124425D01*
X676399815Y-383065819D01*
X677525602Y-383065819D01*
X677613874Y-383219335D01*
X677809958Y-383311540D01*
X678020263Y-383363719D01*
X678236706Y-383373867D01*
X678450970Y-383341593D01*
X678654821Y-383268139D01*
X678746126Y-383219335D01*
X678834398Y-383065819D01*
X678180000Y-382411421D01*
X677525602Y-383065819D01*
X676399815Y-383065819D01*
X676494425Y-382971209D01*
X676614807Y-382791045D01*
X676697727Y-382590858D01*
X676740000Y-382378341D01*
X676740000Y-382326706D01*
X677076133Y-382326706D01*
X677108407Y-382540970D01*
X677181861Y-382744821D01*
X677230665Y-382836126D01*
X677384181Y-382924398D01*
X678038579Y-382270000D01*
X678321421Y-382270000D01*
X678975819Y-382924398D01*
X679129335Y-382836126D01*
X679221540Y-382640042D01*
X679273719Y-382429737D01*
X679283867Y-382213294D01*
X679276090Y-382161659D01*
X679620000Y-382161659D01*
X679620000Y-382378341D01*
X679662273Y-382590858D01*
X679745193Y-382791045D01*
X679865575Y-382971209D01*
X680018791Y-383124425D01*
X680198955Y-383244807D01*
X680399142Y-383327727D01*
X680611659Y-383370000D01*
X680828341Y-383370000D01*
X681040858Y-383327727D01*
X681241045Y-383244807D01*
X681421209Y-383124425D01*
X681574425Y-382971209D01*
X681694807Y-382791045D01*
X681777727Y-382590858D01*
X681820000Y-382378341D01*
X681820000Y-382161659D01*
X682160000Y-382161659D01*
X682160000Y-382378341D01*
X682202273Y-382590858D01*
X682285193Y-382791045D01*
X682405575Y-382971209D01*
X682558791Y-383124425D01*
X682738955Y-383244807D01*
X682939142Y-383327727D01*
X683151659Y-383370000D01*
X683368341Y-383370000D01*
X683580858Y-383327727D01*
X683781045Y-383244807D01*
X683961209Y-383124425D01*
X684114425Y-382971209D01*
X684234807Y-382791045D01*
X684317727Y-382590858D01*
X684360000Y-382378341D01*
X684360000Y-382161659D01*
X684700000Y-382161659D01*
X684700000Y-382378341D01*
X684742273Y-382590858D01*
X684825193Y-382791045D01*
X684945575Y-382971209D01*
X685098791Y-383124425D01*
X685278955Y-383244807D01*
X685479142Y-383327727D01*
X685691659Y-383370000D01*
X685908341Y-383370000D01*
X686120858Y-383327727D01*
X686321045Y-383244807D01*
X686501209Y-383124425D01*
X686654425Y-382971209D01*
X686774807Y-382791045D01*
X686857727Y-382590858D01*
X686900000Y-382378341D01*
X686900000Y-382161659D01*
X687240000Y-382161659D01*
X687240000Y-382378341D01*
X687282273Y-382590858D01*
X687365193Y-382791045D01*
X687485575Y-382971209D01*
X687638791Y-383124425D01*
X687818955Y-383244807D01*
X688019142Y-383327727D01*
X688231659Y-383370000D01*
X688448341Y-383370000D01*
X688660858Y-383327727D01*
X688861045Y-383244807D01*
X689041209Y-383124425D01*
X689194425Y-382971209D01*
X689314807Y-382791045D01*
X689397727Y-382590858D01*
X689440000Y-382378341D01*
X689440000Y-382161659D01*
X689780000Y-382161659D01*
X689780000Y-382378341D01*
X689822273Y-382590858D01*
X689905193Y-382791045D01*
X690025575Y-382971209D01*
X690178791Y-383124425D01*
X690358955Y-383244807D01*
X690559142Y-383327727D01*
X690771659Y-383370000D01*
X690988341Y-383370000D01*
X691200858Y-383327727D01*
X691401045Y-383244807D01*
X691581209Y-383124425D01*
X691734425Y-382971209D01*
X691854807Y-382791045D01*
X691937727Y-382590858D01*
X691980000Y-382378341D01*
X691980000Y-382161659D01*
X692320000Y-382161659D01*
X692320000Y-382378341D01*
X692362273Y-382590858D01*
X692445193Y-382791045D01*
X692565575Y-382971209D01*
X692718791Y-383124425D01*
X692898955Y-383244807D01*
X693099142Y-383327727D01*
X693311659Y-383370000D01*
X693528341Y-383370000D01*
X693740858Y-383327727D01*
X693941045Y-383244807D01*
X694121209Y-383124425D01*
X694274425Y-382971209D01*
X694394807Y-382791045D01*
X694477727Y-382590858D01*
X694520000Y-382378341D01*
X694520000Y-382161659D01*
X694860000Y-382161659D01*
X694860000Y-382378341D01*
X694902273Y-382590858D01*
X694985193Y-382791045D01*
X695105575Y-382971209D01*
X695258791Y-383124425D01*
X695438955Y-383244807D01*
X695639142Y-383327727D01*
X695851659Y-383370000D01*
X696068341Y-383370000D01*
X696280858Y-383327727D01*
X696481045Y-383244807D01*
X696661209Y-383124425D01*
X696814425Y-382971209D01*
X696934807Y-382791045D01*
X697017727Y-382590858D01*
X697060000Y-382378341D01*
X697060000Y-382161659D01*
X697400000Y-382161659D01*
X697400000Y-382378341D01*
X697442273Y-382590858D01*
X697525193Y-382791045D01*
X697645575Y-382971209D01*
X697798791Y-383124425D01*
X697978955Y-383244807D01*
X698179142Y-383327727D01*
X698391659Y-383370000D01*
X698608341Y-383370000D01*
X698820858Y-383327727D01*
X699021045Y-383244807D01*
X699201209Y-383124425D01*
X699354425Y-382971209D01*
X699474807Y-382791045D01*
X699557727Y-382590858D01*
X699600000Y-382378341D01*
X699600000Y-382161659D01*
X699940000Y-382161659D01*
X699940000Y-382378341D01*
X699982273Y-382590858D01*
X700065193Y-382791045D01*
X700185575Y-382971209D01*
X700338791Y-383124425D01*
X700518955Y-383244807D01*
X700719142Y-383327727D01*
X700931659Y-383370000D01*
X701148341Y-383370000D01*
X701360858Y-383327727D01*
X701561045Y-383244807D01*
X701741209Y-383124425D01*
X701894425Y-382971209D01*
X702014807Y-382791045D01*
X702097727Y-382590858D01*
X702140000Y-382378341D01*
X702140000Y-382161659D01*
X702480000Y-382161659D01*
X702480000Y-382378341D01*
X702522273Y-382590858D01*
X702605193Y-382791045D01*
X702725575Y-382971209D01*
X702878791Y-383124425D01*
X703058955Y-383244807D01*
X703259142Y-383327727D01*
X703471659Y-383370000D01*
X703688341Y-383370000D01*
X703900858Y-383327727D01*
X704101045Y-383244807D01*
X704281209Y-383124425D01*
X704434425Y-382971209D01*
X704554807Y-382791045D01*
X704637727Y-382590858D01*
X704680000Y-382378341D01*
X704680000Y-382161659D01*
X705020000Y-382161659D01*
X705020000Y-382378341D01*
X705062273Y-382590858D01*
X705145193Y-382791045D01*
X705265575Y-382971209D01*
X705418791Y-383124425D01*
X705598955Y-383244807D01*
X705799142Y-383327727D01*
X706011659Y-383370000D01*
X706228341Y-383370000D01*
X706440858Y-383327727D01*
X706641045Y-383244807D01*
X706821209Y-383124425D01*
X706974425Y-382971209D01*
X707094807Y-382791045D01*
X707177727Y-382590858D01*
X707220000Y-382378341D01*
X707220000Y-382161659D01*
X707560000Y-382161659D01*
X707560000Y-382378341D01*
X707602273Y-382590858D01*
X707685193Y-382791045D01*
X707805575Y-382971209D01*
X707958791Y-383124425D01*
X708138955Y-383244807D01*
X708339142Y-383327727D01*
X708551659Y-383370000D01*
X708768341Y-383370000D01*
X708980858Y-383327727D01*
X709181045Y-383244807D01*
X709361209Y-383124425D01*
X709514425Y-382971209D01*
X709634807Y-382791045D01*
X709717727Y-382590858D01*
X709760000Y-382378341D01*
X709760000Y-382161659D01*
X709717727Y-381949142D01*
X709634807Y-381748955D01*
X709514425Y-381568791D01*
X709361209Y-381415575D01*
X709181045Y-381295193D01*
X708980858Y-381212273D01*
X708768341Y-381170000D01*
X708551659Y-381170000D01*
X708339142Y-381212273D01*
X708138955Y-381295193D01*
X707958791Y-381415575D01*
X707805575Y-381568791D01*
X707685193Y-381748955D01*
X707602273Y-381949142D01*
X707560000Y-382161659D01*
X707220000Y-382161659D01*
X707177727Y-381949142D01*
X707094807Y-381748955D01*
X706974425Y-381568791D01*
X706821209Y-381415575D01*
X706641045Y-381295193D01*
X706440858Y-381212273D01*
X706228341Y-381170000D01*
X706011659Y-381170000D01*
X705799142Y-381212273D01*
X705598955Y-381295193D01*
X705418791Y-381415575D01*
X705265575Y-381568791D01*
X705145193Y-381748955D01*
X705062273Y-381949142D01*
X705020000Y-382161659D01*
X704680000Y-382161659D01*
X704637727Y-381949142D01*
X704554807Y-381748955D01*
X704434425Y-381568791D01*
X704281209Y-381415575D01*
X704101045Y-381295193D01*
X703900858Y-381212273D01*
X703688341Y-381170000D01*
X703471659Y-381170000D01*
X703259142Y-381212273D01*
X703058955Y-381295193D01*
X702878791Y-381415575D01*
X702725575Y-381568791D01*
X702605193Y-381748955D01*
X702522273Y-381949142D01*
X702480000Y-382161659D01*
X702140000Y-382161659D01*
X702097727Y-381949142D01*
X702014807Y-381748955D01*
X701894425Y-381568791D01*
X701741209Y-381415575D01*
X701561045Y-381295193D01*
X701360858Y-381212273D01*
X701148341Y-381170000D01*
X700931659Y-381170000D01*
X700719142Y-381212273D01*
X700518955Y-381295193D01*
X700338791Y-381415575D01*
X700185575Y-381568791D01*
X700065193Y-381748955D01*
X699982273Y-381949142D01*
X699940000Y-382161659D01*
X699600000Y-382161659D01*
X699557727Y-381949142D01*
X699474807Y-381748955D01*
X699354425Y-381568791D01*
X699201209Y-381415575D01*
X699021045Y-381295193D01*
X698820858Y-381212273D01*
X698608341Y-381170000D01*
X698391659Y-381170000D01*
X698179142Y-381212273D01*
X697978955Y-381295193D01*
X697798791Y-381415575D01*
X697645575Y-381568791D01*
X697525193Y-381748955D01*
X697442273Y-381949142D01*
X697400000Y-382161659D01*
X697060000Y-382161659D01*
X697017727Y-381949142D01*
X696934807Y-381748955D01*
X696814425Y-381568791D01*
X696661209Y-381415575D01*
X696481045Y-381295193D01*
X696280858Y-381212273D01*
X696068341Y-381170000D01*
X695851659Y-381170000D01*
X695639142Y-381212273D01*
X695438955Y-381295193D01*
X695258791Y-381415575D01*
X695105575Y-381568791D01*
X694985193Y-381748955D01*
X694902273Y-381949142D01*
X694860000Y-382161659D01*
X694520000Y-382161659D01*
X694477727Y-381949142D01*
X694394807Y-381748955D01*
X694274425Y-381568791D01*
X694121209Y-381415575D01*
X693941045Y-381295193D01*
X693740858Y-381212273D01*
X693528341Y-381170000D01*
X693311659Y-381170000D01*
X693099142Y-381212273D01*
X692898955Y-381295193D01*
X692718791Y-381415575D01*
X692565575Y-381568791D01*
X692445193Y-381748955D01*
X692362273Y-381949142D01*
X692320000Y-382161659D01*
X691980000Y-382161659D01*
X691937727Y-381949142D01*
X691854807Y-381748955D01*
X691734425Y-381568791D01*
X691581209Y-381415575D01*
X691401045Y-381295193D01*
X691200858Y-381212273D01*
X690988341Y-381170000D01*
X690771659Y-381170000D01*
X690559142Y-381212273D01*
X690358955Y-381295193D01*
X690178791Y-381415575D01*
X690025575Y-381568791D01*
X689905193Y-381748955D01*
X689822273Y-381949142D01*
X689780000Y-382161659D01*
X689440000Y-382161659D01*
X689397727Y-381949142D01*
X689314807Y-381748955D01*
X689194425Y-381568791D01*
X689041209Y-381415575D01*
X688861045Y-381295193D01*
X688660858Y-381212273D01*
X688448341Y-381170000D01*
X688231659Y-381170000D01*
X688019142Y-381212273D01*
X687818955Y-381295193D01*
X687638791Y-381415575D01*
X687485575Y-381568791D01*
X687365193Y-381748955D01*
X687282273Y-381949142D01*
X687240000Y-382161659D01*
X686900000Y-382161659D01*
X686857727Y-381949142D01*
X686774807Y-381748955D01*
X686654425Y-381568791D01*
X686501209Y-381415575D01*
X686321045Y-381295193D01*
X686120858Y-381212273D01*
X685908341Y-381170000D01*
X685691659Y-381170000D01*
X685479142Y-381212273D01*
X685278955Y-381295193D01*
X685098791Y-381415575D01*
X684945575Y-381568791D01*
X684825193Y-381748955D01*
X684742273Y-381949142D01*
X684700000Y-382161659D01*
X684360000Y-382161659D01*
X684317727Y-381949142D01*
X684234807Y-381748955D01*
X684114425Y-381568791D01*
X683961209Y-381415575D01*
X683781045Y-381295193D01*
X683580858Y-381212273D01*
X683368341Y-381170000D01*
X683151659Y-381170000D01*
X682939142Y-381212273D01*
X682738955Y-381295193D01*
X682558791Y-381415575D01*
X682405575Y-381568791D01*
X682285193Y-381748955D01*
X682202273Y-381949142D01*
X682160000Y-382161659D01*
X681820000Y-382161659D01*
X681777727Y-381949142D01*
X681694807Y-381748955D01*
X681574425Y-381568791D01*
X681421209Y-381415575D01*
X681241045Y-381295193D01*
X681040858Y-381212273D01*
X680828341Y-381170000D01*
X680611659Y-381170000D01*
X680399142Y-381212273D01*
X680198955Y-381295193D01*
X680018791Y-381415575D01*
X679865575Y-381568791D01*
X679745193Y-381748955D01*
X679662273Y-381949142D01*
X679620000Y-382161659D01*
X679276090Y-382161659D01*
X679251593Y-381999030D01*
X679178139Y-381795179D01*
X679129335Y-381703874D01*
X678975819Y-381615602D01*
X678321421Y-382270000D01*
X678038579Y-382270000D01*
X677384181Y-381615602D01*
X677230665Y-381703874D01*
X677138460Y-381899958D01*
X677086281Y-382110263D01*
X677076133Y-382326706D01*
X676740000Y-382326706D01*
X676740000Y-382161659D01*
X676697727Y-381949142D01*
X676614807Y-381748955D01*
X676494425Y-381568791D01*
X676399815Y-381474181D01*
X677525602Y-381474181D01*
X678180000Y-382128579D01*
X678834398Y-381474181D01*
X678746126Y-381320665D01*
X678550042Y-381228460D01*
X678339737Y-381176281D01*
X678123294Y-381166133D01*
X677909030Y-381198407D01*
X677705179Y-381271861D01*
X677613874Y-381320665D01*
X677525602Y-381474181D01*
X676399815Y-381474181D01*
X676341209Y-381415575D01*
X676161045Y-381295193D01*
X675960858Y-381212273D01*
X675748341Y-381170000D01*
X675531659Y-381170000D01*
X675319142Y-381212273D01*
X675118955Y-381295193D01*
X674938791Y-381415575D01*
X674785575Y-381568791D01*
X674665193Y-381748955D01*
X674582273Y-381949142D01*
X674540000Y-382161659D01*
X667825000Y-382161659D01*
X667825000Y-379312866D01*
X669100000Y-379312866D01*
X669100000Y-379687134D01*
X669173016Y-380054209D01*
X669316242Y-380399987D01*
X669524174Y-380711179D01*
X669788821Y-380975826D01*
X670100013Y-381183758D01*
X670445791Y-381326984D01*
X670812866Y-381400000D01*
X671187134Y-381400000D01*
X671554209Y-381326984D01*
X671899987Y-381183758D01*
X672211179Y-380975826D01*
X672475826Y-380711179D01*
X672683758Y-380399987D01*
X672826984Y-380054209D01*
X672900000Y-379687134D01*
X672900000Y-379312866D01*
X672826984Y-378945791D01*
X672683758Y-378600013D01*
X672475826Y-378288821D01*
X672211179Y-378024174D01*
X671899987Y-377816242D01*
X671554209Y-377673016D01*
X671187134Y-377600000D01*
X670812866Y-377600000D01*
X670445791Y-377673016D01*
X670100013Y-377816242D01*
X669788821Y-378024174D01*
X669524174Y-378288821D01*
X669316242Y-378600013D01*
X669173016Y-378945791D01*
X669100000Y-379312866D01*
X667825000Y-379312866D01*
X667825000Y-373486735D01*
X675810000Y-373486735D01*
X675810000Y-373713265D01*
X675854194Y-373935443D01*
X675940884Y-374144729D01*
X676066737Y-374333082D01*
X676226918Y-374493263D01*
X676415271Y-374619116D01*
X676624557Y-374705806D01*
X676846735Y-374750000D01*
X677073265Y-374750000D01*
X677295443Y-374705806D01*
X677504729Y-374619116D01*
X677693082Y-374493263D01*
X677754839Y-374431506D01*
X678809915Y-374431506D01*
X678904226Y-374590143D01*
X679108841Y-374687346D01*
X679328488Y-374742764D01*
X679554726Y-374754267D01*
X679778860Y-374721412D01*
X679992279Y-374645461D01*
X680095774Y-374590143D01*
X680190085Y-374431506D01*
X679500000Y-373741421D01*
X678809915Y-374431506D01*
X677754839Y-374431506D01*
X677853263Y-374333082D01*
X677979116Y-374144729D01*
X678065806Y-373935443D01*
X678110000Y-373713265D01*
X678110000Y-373654726D01*
X678345733Y-373654726D01*
X678378588Y-373878860D01*
X678454539Y-374092279D01*
X678509857Y-374195774D01*
X678668494Y-374290085D01*
X679358579Y-373600000D01*
X679641421Y-373600000D01*
X680331506Y-374290085D01*
X680490143Y-374195774D01*
X680587346Y-373991159D01*
X680642764Y-373771512D01*
X680654267Y-373545274D01*
X680621412Y-373321140D01*
X680545461Y-373107721D01*
X680490143Y-373004226D01*
X680331506Y-372909915D01*
X679641421Y-373600000D01*
X679358579Y-373600000D01*
X678668494Y-372909915D01*
X678509857Y-373004226D01*
X678412654Y-373208841D01*
X678357236Y-373428488D01*
X678345733Y-373654726D01*
X678110000Y-373654726D01*
X678110000Y-373486735D01*
X678065806Y-373264557D01*
X677979116Y-373055271D01*
X677853263Y-372866918D01*
X677754839Y-372768494D01*
X678809915Y-372768494D01*
X679500000Y-373458579D01*
X680190085Y-372768494D01*
X680095774Y-372609857D01*
X679891159Y-372512654D01*
X679671512Y-372457236D01*
X679445274Y-372445733D01*
X679221140Y-372478588D01*
X679007721Y-372554539D01*
X678904226Y-372609857D01*
X678809915Y-372768494D01*
X677754839Y-372768494D01*
X677693082Y-372706737D01*
X677504729Y-372580884D01*
X677295443Y-372494194D01*
X677073265Y-372450000D01*
X676846735Y-372450000D01*
X676624557Y-372494194D01*
X676415271Y-372580884D01*
X676226918Y-372706737D01*
X676066737Y-372866918D01*
X675940884Y-373055271D01*
X675854194Y-373264557D01*
X675810000Y-373486735D01*
X667825000Y-373486735D01*
X667825000Y-370946735D01*
X675810000Y-370946735D01*
X675810000Y-371173265D01*
X675854194Y-371395443D01*
X675940884Y-371604729D01*
X676066737Y-371793082D01*
X676226918Y-371953263D01*
X676415271Y-372079116D01*
X676624557Y-372165806D01*
X676846735Y-372210000D01*
X677073265Y-372210000D01*
X677295443Y-372165806D01*
X677504729Y-372079116D01*
X677693082Y-371953263D01*
X677853263Y-371793082D01*
X677979116Y-371604729D01*
X678065806Y-371395443D01*
X678110000Y-371173265D01*
X678110000Y-370946735D01*
X678350000Y-370946735D01*
X678350000Y-371173265D01*
X678394194Y-371395443D01*
X678480884Y-371604729D01*
X678606737Y-371793082D01*
X678766918Y-371953263D01*
X678955271Y-372079116D01*
X679164557Y-372165806D01*
X679386735Y-372210000D01*
X679613265Y-372210000D01*
X679835443Y-372165806D01*
X680044729Y-372079116D01*
X680233082Y-371953263D01*
X680393263Y-371793082D01*
X680519116Y-371604729D01*
X680605806Y-371395443D01*
X680650000Y-371173265D01*
X680650000Y-370946735D01*
X680605806Y-370724557D01*
X680519116Y-370515271D01*
X680393263Y-370326918D01*
X680233082Y-370166737D01*
X680044729Y-370040884D01*
X679835443Y-369954194D01*
X679613265Y-369910000D01*
X679386735Y-369910000D01*
X679164557Y-369954194D01*
X678955271Y-370040884D01*
X678766918Y-370166737D01*
X678606737Y-370326918D01*
X678480884Y-370515271D01*
X678394194Y-370724557D01*
X678350000Y-370946735D01*
X678110000Y-370946735D01*
X678065806Y-370724557D01*
X677979116Y-370515271D01*
X677853263Y-370326918D01*
X677693082Y-370166737D01*
X677504729Y-370040884D01*
X677295443Y-369954194D01*
X677073265Y-369910000D01*
X676846735Y-369910000D01*
X676624557Y-369954194D01*
X676415271Y-370040884D01*
X676226918Y-370166737D01*
X676066737Y-370326918D01*
X675940884Y-370515271D01*
X675854194Y-370724557D01*
X675810000Y-370946735D01*
X667825000Y-370946735D01*
X667825000Y-366000000D01*
X691400000Y-366000000D01*
X691400000Y-380000000D01*
X691411529Y-380117054D01*
X691445672Y-380229610D01*
X691501118Y-380333342D01*
X691575736Y-380424264D01*
X691666658Y-380498882D01*
X691770390Y-380554328D01*
X691882946Y-380588471D01*
X692000000Y-380600000D01*
X708000000Y-380600000D01*
X708117054Y-380588471D01*
X708229610Y-380554328D01*
X708333342Y-380498882D01*
X708424264Y-380424264D01*
X708498882Y-380333342D01*
X708554328Y-380229610D01*
X708588471Y-380117054D01*
X708600000Y-380000000D01*
X708600000Y-379312866D01*
X717100000Y-379312866D01*
X717100000Y-379687134D01*
X717173016Y-380054209D01*
X717316242Y-380399987D01*
X717524174Y-380711179D01*
X717788821Y-380975826D01*
X718100013Y-381183758D01*
X718445791Y-381326984D01*
X718812866Y-381400000D01*
X719187134Y-381400000D01*
X719554209Y-381326984D01*
X719899987Y-381183758D01*
X720211179Y-380975826D01*
X720475826Y-380711179D01*
X720683758Y-380399987D01*
X720826984Y-380054209D01*
X720900000Y-379687134D01*
X720900000Y-379312866D01*
X720826984Y-378945791D01*
X720683758Y-378600013D01*
X720475826Y-378288821D01*
X720211179Y-378024174D01*
X719899987Y-377816242D01*
X719554209Y-377673016D01*
X719187134Y-377600000D01*
X718812866Y-377600000D01*
X718445791Y-377673016D01*
X718100013Y-377816242D01*
X717788821Y-378024174D01*
X717524174Y-378288821D01*
X717316242Y-378600013D01*
X717173016Y-378945791D01*
X717100000Y-379312866D01*
X708600000Y-379312866D01*
X708600000Y-373426735D01*
X709050000Y-373426735D01*
X709050000Y-373653265D01*
X709094194Y-373875443D01*
X709180884Y-374084729D01*
X709306737Y-374273082D01*
X709466918Y-374433263D01*
X709655271Y-374559116D01*
X709864557Y-374645806D01*
X710086735Y-374690000D01*
X710313265Y-374690000D01*
X710535443Y-374645806D01*
X710744729Y-374559116D01*
X710933082Y-374433263D01*
X711093263Y-374273082D01*
X711219116Y-374084729D01*
X711305806Y-373875443D01*
X711350000Y-373653265D01*
X711350000Y-373426735D01*
X711590000Y-373426735D01*
X711590000Y-373653265D01*
X711634194Y-373875443D01*
X711720884Y-374084729D01*
X711846737Y-374273082D01*
X712006918Y-374433263D01*
X712195271Y-374559116D01*
X712404557Y-374645806D01*
X712626735Y-374690000D01*
X712853265Y-374690000D01*
X713075443Y-374645806D01*
X713284729Y-374559116D01*
X713473082Y-374433263D01*
X713633263Y-374273082D01*
X713759116Y-374084729D01*
X713845806Y-373875443D01*
X713890000Y-373653265D01*
X713890000Y-373426735D01*
X713845806Y-373204557D01*
X713759116Y-372995271D01*
X713633263Y-372806918D01*
X713473082Y-372646737D01*
X713284729Y-372520884D01*
X713075443Y-372434194D01*
X712853265Y-372390000D01*
X712626735Y-372390000D01*
X712404557Y-372434194D01*
X712195271Y-372520884D01*
X712006918Y-372646737D01*
X711846737Y-372806918D01*
X711720884Y-372995271D01*
X711634194Y-373204557D01*
X711590000Y-373426735D01*
X711350000Y-373426735D01*
X711305806Y-373204557D01*
X711219116Y-372995271D01*
X711093263Y-372806918D01*
X710933082Y-372646737D01*
X710744729Y-372520884D01*
X710535443Y-372434194D01*
X710313265Y-372390000D01*
X710086735Y-372390000D01*
X709864557Y-372434194D01*
X709655271Y-372520884D01*
X709466918Y-372646737D01*
X709306737Y-372806918D01*
X709180884Y-372995271D01*
X709094194Y-373204557D01*
X709050000Y-373426735D01*
X708600000Y-373426735D01*
X708600000Y-371831506D01*
X709509915Y-371831506D01*
X709604226Y-371990143D01*
X709808841Y-372087346D01*
X710028488Y-372142764D01*
X710254726Y-372154267D01*
X710478860Y-372121412D01*
X710692279Y-372045461D01*
X710795774Y-371990143D01*
X710890085Y-371831506D01*
X710200000Y-371141421D01*
X709509915Y-371831506D01*
X708600000Y-371831506D01*
X708600000Y-371054726D01*
X709045733Y-371054726D01*
X709078588Y-371278860D01*
X709154539Y-371492279D01*
X709209857Y-371595774D01*
X709368494Y-371690085D01*
X710058579Y-371000000D01*
X710341421Y-371000000D01*
X711031506Y-371690085D01*
X711190143Y-371595774D01*
X711287346Y-371391159D01*
X711342764Y-371171512D01*
X711354267Y-370945274D01*
X711345686Y-370886735D01*
X711590000Y-370886735D01*
X711590000Y-371113265D01*
X711634194Y-371335443D01*
X711720884Y-371544729D01*
X711846737Y-371733082D01*
X712006918Y-371893263D01*
X712195271Y-372019116D01*
X712404557Y-372105806D01*
X712626735Y-372150000D01*
X712853265Y-372150000D01*
X713075443Y-372105806D01*
X713284729Y-372019116D01*
X713473082Y-371893263D01*
X713633263Y-371733082D01*
X713759116Y-371544729D01*
X713845806Y-371335443D01*
X713890000Y-371113265D01*
X713890000Y-370886735D01*
X713845806Y-370664557D01*
X713759116Y-370455271D01*
X713633263Y-370266918D01*
X713473082Y-370106737D01*
X713284729Y-369980884D01*
X713075443Y-369894194D01*
X712853265Y-369850000D01*
X712626735Y-369850000D01*
X712404557Y-369894194D01*
X712195271Y-369980884D01*
X712006918Y-370106737D01*
X711846737Y-370266918D01*
X711720884Y-370455271D01*
X711634194Y-370664557D01*
X711590000Y-370886735D01*
X711345686Y-370886735D01*
X711321412Y-370721140D01*
X711245461Y-370507721D01*
X711190143Y-370404226D01*
X711031506Y-370309915D01*
X710341421Y-371000000D01*
X710058579Y-371000000D01*
X709368494Y-370309915D01*
X709209857Y-370404226D01*
X709112654Y-370608841D01*
X709057236Y-370828488D01*
X709045733Y-371054726D01*
X708600000Y-371054726D01*
X708600000Y-370168494D01*
X709509915Y-370168494D01*
X710200000Y-370858579D01*
X710890085Y-370168494D01*
X710795774Y-370009857D01*
X710591159Y-369912654D01*
X710371512Y-369857236D01*
X710145274Y-369845733D01*
X709921140Y-369878588D01*
X709707721Y-369954539D01*
X709604226Y-370009857D01*
X709509915Y-370168494D01*
X708600000Y-370168494D01*
X708600000Y-366000000D01*
X708588471Y-365882946D01*
X708554328Y-365770390D01*
X708498882Y-365666658D01*
X708424264Y-365575736D01*
X708333342Y-365501118D01*
X708229610Y-365445672D01*
X708117054Y-365411529D01*
X708000000Y-365400000D01*
X692000000Y-365400000D01*
X691882946Y-365411529D01*
X691770390Y-365445672D01*
X691666658Y-365501118D01*
X691575736Y-365575736D01*
X691501118Y-365666658D01*
X691445672Y-365770390D01*
X691411529Y-365882946D01*
X691400000Y-366000000D01*
X667825000Y-366000000D01*
X667825000Y-365325000D01*
X723175001Y-365325000D01*
X723175000Y-398675000D01*
G37*
X723175000Y-398675000D02*
X667825000Y-398675000D01*
X667825000Y-398310000D01*
X674538548Y-398310000D01*
X674544340Y-398368810D01*
X674561495Y-398425361D01*
X674589352Y-398477478D01*
X674626841Y-398523159D01*
X674672522Y-398560648D01*
X674724639Y-398588505D01*
X674781190Y-398605660D01*
X674840000Y-398611452D01*
X675465000Y-398610000D01*
X675540000Y-398535000D01*
X675540000Y-397610000D01*
X675740000Y-397610000D01*
X675740000Y-398535000D01*
X675815000Y-398610000D01*
X676440000Y-398611452D01*
X676498810Y-398605660D01*
X676555361Y-398588505D01*
X676607478Y-398560648D01*
X676653159Y-398523159D01*
X676690648Y-398477478D01*
X676718505Y-398425361D01*
X676735660Y-398368810D01*
X676741452Y-398310000D01*
X676740000Y-397685000D01*
X676665000Y-397610000D01*
X675740000Y-397610000D01*
X675540000Y-397610000D01*
X674615000Y-397610000D01*
X674540000Y-397685000D01*
X674538548Y-398310000D01*
X667825000Y-398310000D01*
X667825000Y-396710000D01*
X674538548Y-396710000D01*
X674540000Y-397335000D01*
X674615000Y-397410000D01*
X675540000Y-397410000D01*
X675540000Y-396485000D01*
X675740000Y-396485000D01*
X675740000Y-397410000D01*
X676665000Y-397410000D01*
X676673341Y-397401659D01*
X677080000Y-397401659D01*
X677080000Y-397618341D01*
X677122273Y-397830858D01*
X677205193Y-398031045D01*
X677325575Y-398211209D01*
X677478791Y-398364425D01*
X677658955Y-398484807D01*
X677859142Y-398567727D01*
X678071659Y-398610000D01*
X678288341Y-398610000D01*
X678500858Y-398567727D01*
X678701045Y-398484807D01*
X678881209Y-398364425D01*
X679034425Y-398211209D01*
X679154807Y-398031045D01*
X679237727Y-397830858D01*
X679280000Y-397618341D01*
X679280000Y-397401659D01*
X679620000Y-397401659D01*
X679620000Y-397618341D01*
X679662273Y-397830858D01*
X679745193Y-398031045D01*
X679865575Y-398211209D01*
X680018791Y-398364425D01*
X680198955Y-398484807D01*
X680399142Y-398567727D01*
X680611659Y-398610000D01*
X680828341Y-398610000D01*
X681040858Y-398567727D01*
X681241045Y-398484807D01*
X681421209Y-398364425D01*
X681574425Y-398211209D01*
X681694807Y-398031045D01*
X681777727Y-397830858D01*
X681820000Y-397618341D01*
X681820000Y-397401659D01*
X682160000Y-397401659D01*
X682160000Y-397618341D01*
X682202273Y-397830858D01*
X682285193Y-398031045D01*
X682405575Y-398211209D01*
X682558791Y-398364425D01*
X682738955Y-398484807D01*
X682939142Y-398567727D01*
X683151659Y-398610000D01*
X683368341Y-398610000D01*
X683580858Y-398567727D01*
X683781045Y-398484807D01*
X683961209Y-398364425D01*
X684114425Y-398211209D01*
X684234807Y-398031045D01*
X684317727Y-397830858D01*
X684360000Y-397618341D01*
X684360000Y-397401659D01*
X684700000Y-397401659D01*
X684700000Y-397618341D01*
X684742273Y-397830858D01*
X684825193Y-398031045D01*
X684945575Y-398211209D01*
X685098791Y-398364425D01*
X685278955Y-398484807D01*
X685479142Y-398567727D01*
X685691659Y-398610000D01*
X685908341Y-398610000D01*
X686120858Y-398567727D01*
X686321045Y-398484807D01*
X686501209Y-398364425D01*
X686654425Y-398211209D01*
X686774807Y-398031045D01*
X686857727Y-397830858D01*
X686900000Y-397618341D01*
X686900000Y-397401659D01*
X687240000Y-397401659D01*
X687240000Y-397618341D01*
X687282273Y-397830858D01*
X687365193Y-398031045D01*
X687485575Y-398211209D01*
X687638791Y-398364425D01*
X687818955Y-398484807D01*
X688019142Y-398567727D01*
X688231659Y-398610000D01*
X688448341Y-398610000D01*
X688660858Y-398567727D01*
X688861045Y-398484807D01*
X689041209Y-398364425D01*
X689194425Y-398211209D01*
X689314807Y-398031045D01*
X689397727Y-397830858D01*
X689440000Y-397618341D01*
X689440000Y-397401659D01*
X689780000Y-397401659D01*
X689780000Y-397618341D01*
X689822273Y-397830858D01*
X689905193Y-398031045D01*
X690025575Y-398211209D01*
X690178791Y-398364425D01*
X690358955Y-398484807D01*
X690559142Y-398567727D01*
X690771659Y-398610000D01*
X690988341Y-398610000D01*
X691200858Y-398567727D01*
X691401045Y-398484807D01*
X691581209Y-398364425D01*
X691734425Y-398211209D01*
X691854807Y-398031045D01*
X691937727Y-397830858D01*
X691980000Y-397618341D01*
X691980000Y-397401659D01*
X692320000Y-397401659D01*
X692320000Y-397618341D01*
X692362273Y-397830858D01*
X692445193Y-398031045D01*
X692565575Y-398211209D01*
X692718791Y-398364425D01*
X692898955Y-398484807D01*
X693099142Y-398567727D01*
X693311659Y-398610000D01*
X693528341Y-398610000D01*
X693740858Y-398567727D01*
X693941045Y-398484807D01*
X694121209Y-398364425D01*
X694274425Y-398211209D01*
X694394807Y-398031045D01*
X694477727Y-397830858D01*
X694520000Y-397618341D01*
X694520000Y-397401659D01*
X694860000Y-397401659D01*
X694860000Y-397618341D01*
X694902273Y-397830858D01*
X694985193Y-398031045D01*
X695105575Y-398211209D01*
X695258791Y-398364425D01*
X695438955Y-398484807D01*
X695639142Y-398567727D01*
X695851659Y-398610000D01*
X696068341Y-398610000D01*
X696280858Y-398567727D01*
X696481045Y-398484807D01*
X696661209Y-398364425D01*
X696814425Y-398211209D01*
X696934807Y-398031045D01*
X697017727Y-397830858D01*
X697060000Y-397618341D01*
X697060000Y-397401659D01*
X697400000Y-397401659D01*
X697400000Y-397618341D01*
X697442273Y-397830858D01*
X697525193Y-398031045D01*
X697645575Y-398211209D01*
X697798791Y-398364425D01*
X697978955Y-398484807D01*
X698179142Y-398567727D01*
X698391659Y-398610000D01*
X698608341Y-398610000D01*
X698820858Y-398567727D01*
X699021045Y-398484807D01*
X699201209Y-398364425D01*
X699354425Y-398211209D01*
X699474807Y-398031045D01*
X699557727Y-397830858D01*
X699600000Y-397618341D01*
X699600000Y-397401659D01*
X699940000Y-397401659D01*
X699940000Y-397618341D01*
X699982273Y-397830858D01*
X700065193Y-398031045D01*
X700185575Y-398211209D01*
X700338791Y-398364425D01*
X700518955Y-398484807D01*
X700719142Y-398567727D01*
X700931659Y-398610000D01*
X701148341Y-398610000D01*
X701360858Y-398567727D01*
X701561045Y-398484807D01*
X701741209Y-398364425D01*
X701894425Y-398211209D01*
X702014807Y-398031045D01*
X702097727Y-397830858D01*
X702140000Y-397618341D01*
X702140000Y-397401659D01*
X702480000Y-397401659D01*
X702480000Y-397618341D01*
X702522273Y-397830858D01*
X702605193Y-398031045D01*
X702725575Y-398211209D01*
X702878791Y-398364425D01*
X703058955Y-398484807D01*
X703259142Y-398567727D01*
X703471659Y-398610000D01*
X703688341Y-398610000D01*
X703900858Y-398567727D01*
X704101045Y-398484807D01*
X704281209Y-398364425D01*
X704434425Y-398211209D01*
X704554807Y-398031045D01*
X704637727Y-397830858D01*
X704680000Y-397618341D01*
X704680000Y-397401659D01*
X705020000Y-397401659D01*
X705020000Y-397618341D01*
X705062273Y-397830858D01*
X705145193Y-398031045D01*
X705265575Y-398211209D01*
X705418791Y-398364425D01*
X705598955Y-398484807D01*
X705799142Y-398567727D01*
X706011659Y-398610000D01*
X706228341Y-398610000D01*
X706440858Y-398567727D01*
X706641045Y-398484807D01*
X706821209Y-398364425D01*
X706974425Y-398211209D01*
X707094807Y-398031045D01*
X707177727Y-397830858D01*
X707220000Y-397618341D01*
X707220000Y-397401659D01*
X707560000Y-397401659D01*
X707560000Y-397618341D01*
X707602273Y-397830858D01*
X707685193Y-398031045D01*
X707805575Y-398211209D01*
X707958791Y-398364425D01*
X708138955Y-398484807D01*
X708339142Y-398567727D01*
X708551659Y-398610000D01*
X708768341Y-398610000D01*
X708980858Y-398567727D01*
X709181045Y-398484807D01*
X709361209Y-398364425D01*
X709514425Y-398211209D01*
X709634807Y-398031045D01*
X709717727Y-397830858D01*
X709760000Y-397618341D01*
X709760000Y-397401659D01*
X709717727Y-397189142D01*
X709634807Y-396988955D01*
X709514425Y-396808791D01*
X709361209Y-396655575D01*
X709181045Y-396535193D01*
X708980858Y-396452273D01*
X708768341Y-396410000D01*
X708551659Y-396410000D01*
X708339142Y-396452273D01*
X708138955Y-396535193D01*
X707958791Y-396655575D01*
X707805575Y-396808791D01*
X707685193Y-396988955D01*
X707602273Y-397189142D01*
X707560000Y-397401659D01*
X707220000Y-397401659D01*
X707177727Y-397189142D01*
X707094807Y-396988955D01*
X706974425Y-396808791D01*
X706821209Y-396655575D01*
X706641045Y-396535193D01*
X706545000Y-396495410D01*
X706545000Y-394861659D01*
X707560000Y-394861659D01*
X707560000Y-395078341D01*
X707602273Y-395290858D01*
X707685193Y-395491045D01*
X707805575Y-395671209D01*
X707958791Y-395824425D01*
X708138955Y-395944807D01*
X708339142Y-396027727D01*
X708551659Y-396070000D01*
X708768341Y-396070000D01*
X708980858Y-396027727D01*
X709181045Y-395944807D01*
X709361209Y-395824425D01*
X709514425Y-395671209D01*
X709634807Y-395491045D01*
X709717727Y-395290858D01*
X709760000Y-395078341D01*
X709760000Y-394861659D01*
X709717727Y-394649142D01*
X709634807Y-394448955D01*
X709514425Y-394268791D01*
X709361209Y-394115575D01*
X709181045Y-393995193D01*
X708980858Y-393912273D01*
X708768341Y-393870000D01*
X708551659Y-393870000D01*
X708339142Y-393912273D01*
X708138955Y-393995193D01*
X707958791Y-394115575D01*
X707805575Y-394268791D01*
X707685193Y-394448955D01*
X707602273Y-394649142D01*
X707560000Y-394861659D01*
X706545000Y-394861659D01*
X706545000Y-392956040D01*
X707876041Y-391625000D01*
X707909366Y-391625000D01*
X707805575Y-391728791D01*
X707685193Y-391908955D01*
X707602273Y-392109142D01*
X707560000Y-392321659D01*
X707560000Y-392538341D01*
X707602273Y-392750858D01*
X707685193Y-392951045D01*
X707805575Y-393131209D01*
X707958791Y-393284425D01*
X708138955Y-393404807D01*
X708339142Y-393487727D01*
X708551659Y-393530000D01*
X708768341Y-393530000D01*
X708980858Y-393487727D01*
X709181045Y-393404807D01*
X709361209Y-393284425D01*
X709514425Y-393131209D01*
X709634807Y-392951045D01*
X709717727Y-392750858D01*
X709760000Y-392538341D01*
X709760000Y-392325981D01*
X712760000Y-392325981D01*
X712760000Y-392454019D01*
X712784979Y-392579598D01*
X712833978Y-392697890D01*
X712905112Y-392804351D01*
X712995649Y-392894888D01*
X713102110Y-392966022D01*
X713220402Y-393015021D01*
X713345981Y-393040000D01*
X713474019Y-393040000D01*
X713599598Y-393015021D01*
X713717890Y-392966022D01*
X713824351Y-392894888D01*
X713914888Y-392804351D01*
X713986022Y-392697890D01*
X714035021Y-392579598D01*
X714060000Y-392454019D01*
X714060000Y-392325981D01*
X714035021Y-392200402D01*
X713986022Y-392082110D01*
X713914888Y-391975649D01*
X713835000Y-391895761D01*
X713835000Y-390566040D01*
X714051040Y-390350000D01*
X714164019Y-390350000D01*
X714289598Y-390325021D01*
X714407890Y-390276022D01*
X714514351Y-390204888D01*
X714604888Y-390114351D01*
X714676022Y-390007890D01*
X714725021Y-389889598D01*
X714750000Y-389764019D01*
X714750000Y-389635981D01*
X714725021Y-389510402D01*
X714676022Y-389392110D01*
X714604888Y-389285649D01*
X714514351Y-389195112D01*
X714407890Y-389123978D01*
X714289598Y-389074979D01*
X714164019Y-389050000D01*
X714035981Y-389050000D01*
X713910402Y-389074979D01*
X713792110Y-389123978D01*
X713685649Y-389195112D01*
X713595112Y-389285649D01*
X713523978Y-389392110D01*
X713474979Y-389510402D01*
X713450000Y-389635981D01*
X713450000Y-389748960D01*
X713124239Y-390074721D01*
X713108027Y-390088026D01*
X713054917Y-390152740D01*
X713027044Y-390204888D01*
X713015453Y-390226573D01*
X712991150Y-390306686D01*
X712982945Y-390390000D01*
X712985001Y-390410877D01*
X712985000Y-391895761D01*
X712905112Y-391975649D01*
X712833978Y-392082110D01*
X712784979Y-392200402D01*
X712760000Y-392325981D01*
X709760000Y-392325981D01*
X709760000Y-392321659D01*
X709717727Y-392109142D01*
X709634807Y-391908955D01*
X709514425Y-391728791D01*
X709410634Y-391625000D01*
X710279129Y-391625000D01*
X710299996Y-391627055D01*
X710320863Y-391625000D01*
X710320870Y-391625000D01*
X710383310Y-391618850D01*
X710463423Y-391594548D01*
X710537256Y-391555084D01*
X710601970Y-391501974D01*
X710615279Y-391485757D01*
X714051037Y-388050000D01*
X714164015Y-388050000D01*
X714289594Y-388025021D01*
X714407886Y-387976022D01*
X714514347Y-387904888D01*
X714604884Y-387814351D01*
X714676018Y-387707890D01*
X714725017Y-387589598D01*
X714749996Y-387464019D01*
X714749996Y-387335981D01*
X714725017Y-387210402D01*
X714676018Y-387092110D01*
X714604884Y-386985649D01*
X714514347Y-386895112D01*
X714407886Y-386823978D01*
X714289594Y-386774979D01*
X714164015Y-386750000D01*
X714035977Y-386750000D01*
X713910398Y-386774979D01*
X713792106Y-386823978D01*
X713685645Y-386895112D01*
X713595108Y-386985649D01*
X713523974Y-387092110D01*
X713474975Y-387210402D01*
X713449996Y-387335981D01*
X713449996Y-387448959D01*
X710123956Y-390775000D01*
X709263119Y-390775000D01*
X709314398Y-390685819D01*
X708660000Y-390031421D01*
X708005602Y-390685819D01*
X708056881Y-390775000D01*
X707720866Y-390775000D01*
X707699999Y-390772945D01*
X707679132Y-390775000D01*
X707679126Y-390775000D01*
X707625098Y-390780321D01*
X707616685Y-390781150D01*
X707592383Y-390788522D01*
X707536573Y-390805452D01*
X707462740Y-390844916D01*
X707398026Y-390898026D01*
X707384721Y-390914238D01*
X705834239Y-392464721D01*
X705818027Y-392478026D01*
X705764917Y-392542740D01*
X705725453Y-392616573D01*
X705701150Y-392696686D01*
X705692945Y-392780000D01*
X705695001Y-392800877D01*
X705695000Y-396495410D01*
X705598955Y-396535193D01*
X705418791Y-396655575D01*
X705265575Y-396808791D01*
X705145193Y-396988955D01*
X705062273Y-397189142D01*
X705020000Y-397401659D01*
X704680000Y-397401659D01*
X704637727Y-397189142D01*
X704554807Y-396988955D01*
X704434425Y-396808791D01*
X704281209Y-396655575D01*
X704101045Y-396535193D01*
X703900858Y-396452273D01*
X703688341Y-396410000D01*
X703471659Y-396410000D01*
X703259142Y-396452273D01*
X703058955Y-396535193D01*
X702878791Y-396655575D01*
X702725575Y-396808791D01*
X702605193Y-396988955D01*
X702522273Y-397189142D01*
X702480000Y-397401659D01*
X702140000Y-397401659D01*
X702097727Y-397189142D01*
X702014807Y-396988955D01*
X701894425Y-396808791D01*
X701741209Y-396655575D01*
X701561045Y-396535193D01*
X701360858Y-396452273D01*
X701148341Y-396410000D01*
X700931659Y-396410000D01*
X700719142Y-396452273D01*
X700518955Y-396535193D01*
X700338791Y-396655575D01*
X700185575Y-396808791D01*
X700065193Y-396988955D01*
X699982273Y-397189142D01*
X699940000Y-397401659D01*
X699600000Y-397401659D01*
X699557727Y-397189142D01*
X699474807Y-396988955D01*
X699354425Y-396808791D01*
X699201209Y-396655575D01*
X699021045Y-396535193D01*
X698820858Y-396452273D01*
X698608341Y-396410000D01*
X698391659Y-396410000D01*
X698179142Y-396452273D01*
X697978955Y-396535193D01*
X697798791Y-396655575D01*
X697645575Y-396808791D01*
X697525193Y-396988955D01*
X697442273Y-397189142D01*
X697400000Y-397401659D01*
X697060000Y-397401659D01*
X697017727Y-397189142D01*
X696934807Y-396988955D01*
X696814425Y-396808791D01*
X696661209Y-396655575D01*
X696481045Y-396535193D01*
X696280858Y-396452273D01*
X696068341Y-396410000D01*
X695851659Y-396410000D01*
X695639142Y-396452273D01*
X695438955Y-396535193D01*
X695258791Y-396655575D01*
X695105575Y-396808791D01*
X694985193Y-396988955D01*
X694902273Y-397189142D01*
X694860000Y-397401659D01*
X694520000Y-397401659D01*
X694477727Y-397189142D01*
X694394807Y-396988955D01*
X694274425Y-396808791D01*
X694121209Y-396655575D01*
X693941045Y-396535193D01*
X693740858Y-396452273D01*
X693528341Y-396410000D01*
X693311659Y-396410000D01*
X693099142Y-396452273D01*
X692898955Y-396535193D01*
X692718791Y-396655575D01*
X692565575Y-396808791D01*
X692445193Y-396988955D01*
X692362273Y-397189142D01*
X692320000Y-397401659D01*
X691980000Y-397401659D01*
X691937727Y-397189142D01*
X691854807Y-396988955D01*
X691734425Y-396808791D01*
X691581209Y-396655575D01*
X691401045Y-396535193D01*
X691200858Y-396452273D01*
X690988341Y-396410000D01*
X690771659Y-396410000D01*
X690559142Y-396452273D01*
X690358955Y-396535193D01*
X690178791Y-396655575D01*
X690025575Y-396808791D01*
X689905193Y-396988955D01*
X689822273Y-397189142D01*
X689780000Y-397401659D01*
X689440000Y-397401659D01*
X689397727Y-397189142D01*
X689314807Y-396988955D01*
X689194425Y-396808791D01*
X689041209Y-396655575D01*
X688861045Y-396535193D01*
X688660858Y-396452273D01*
X688448341Y-396410000D01*
X688231659Y-396410000D01*
X688019142Y-396452273D01*
X687818955Y-396535193D01*
X687638791Y-396655575D01*
X687485575Y-396808791D01*
X687365193Y-396988955D01*
X687282273Y-397189142D01*
X687240000Y-397401659D01*
X686900000Y-397401659D01*
X686857727Y-397189142D01*
X686774807Y-396988955D01*
X686654425Y-396808791D01*
X686501209Y-396655575D01*
X686321045Y-396535193D01*
X686120858Y-396452273D01*
X685908341Y-396410000D01*
X685691659Y-396410000D01*
X685479142Y-396452273D01*
X685278955Y-396535193D01*
X685098791Y-396655575D01*
X684945575Y-396808791D01*
X684825193Y-396988955D01*
X684742273Y-397189142D01*
X684700000Y-397401659D01*
X684360000Y-397401659D01*
X684317727Y-397189142D01*
X684234807Y-396988955D01*
X684114425Y-396808791D01*
X683961209Y-396655575D01*
X683781045Y-396535193D01*
X683580858Y-396452273D01*
X683368341Y-396410000D01*
X683151659Y-396410000D01*
X682939142Y-396452273D01*
X682738955Y-396535193D01*
X682558791Y-396655575D01*
X682405575Y-396808791D01*
X682285193Y-396988955D01*
X682202273Y-397189142D01*
X682160000Y-397401659D01*
X681820000Y-397401659D01*
X681777727Y-397189142D01*
X681694807Y-396988955D01*
X681574425Y-396808791D01*
X681421209Y-396655575D01*
X681241045Y-396535193D01*
X681040858Y-396452273D01*
X680828341Y-396410000D01*
X680611659Y-396410000D01*
X680399142Y-396452273D01*
X680198955Y-396535193D01*
X680018791Y-396655575D01*
X679865575Y-396808791D01*
X679745193Y-396988955D01*
X679662273Y-397189142D01*
X679620000Y-397401659D01*
X679280000Y-397401659D01*
X679237727Y-397189142D01*
X679154807Y-396988955D01*
X679034425Y-396808791D01*
X678881209Y-396655575D01*
X678701045Y-396535193D01*
X678500858Y-396452273D01*
X678288341Y-396410000D01*
X678071659Y-396410000D01*
X677859142Y-396452273D01*
X677658955Y-396535193D01*
X677478791Y-396655575D01*
X677325575Y-396808791D01*
X677205193Y-396988955D01*
X677122273Y-397189142D01*
X677080000Y-397401659D01*
X676673341Y-397401659D01*
X676740000Y-397335000D01*
X676741452Y-396710000D01*
X676735660Y-396651190D01*
X676718505Y-396594639D01*
X676690648Y-396542522D01*
X676653159Y-396496841D01*
X676607478Y-396459352D01*
X676555361Y-396431495D01*
X676498810Y-396414340D01*
X676440000Y-396408548D01*
X675815000Y-396410000D01*
X675740000Y-396485000D01*
X675540000Y-396485000D01*
X675465000Y-396410000D01*
X674840000Y-396408548D01*
X674781190Y-396414340D01*
X674724639Y-396431495D01*
X674672522Y-396459352D01*
X674626841Y-396496841D01*
X674589352Y-396542522D01*
X674561495Y-396594639D01*
X674544340Y-396651190D01*
X674538548Y-396710000D01*
X667825000Y-396710000D01*
X667825000Y-389766886D01*
X680740000Y-389766886D01*
X680740000Y-390013114D01*
X680788037Y-390254611D01*
X680882265Y-390482097D01*
X681019062Y-390686828D01*
X681193172Y-390860938D01*
X681397903Y-390997735D01*
X681625389Y-391091963D01*
X681866886Y-391140000D01*
X682113114Y-391140000D01*
X682354611Y-391091963D01*
X682582097Y-390997735D01*
X682786828Y-390860938D01*
X682960938Y-390686828D01*
X683097735Y-390482097D01*
X683191963Y-390254611D01*
X683240000Y-390013114D01*
X683240000Y-389766886D01*
X684550000Y-389766886D01*
X684550000Y-390013114D01*
X684598037Y-390254611D01*
X684692265Y-390482097D01*
X684829062Y-390686828D01*
X685003172Y-390860938D01*
X685207903Y-390997735D01*
X685435389Y-391091963D01*
X685676886Y-391140000D01*
X685923114Y-391140000D01*
X686164611Y-391091963D01*
X686392097Y-390997735D01*
X686596828Y-390860938D01*
X686770938Y-390686828D01*
X686907735Y-390482097D01*
X687001963Y-390254611D01*
X687050000Y-390013114D01*
X687050000Y-389946706D01*
X707556133Y-389946706D01*
X707588407Y-390160970D01*
X707661861Y-390364821D01*
X707710665Y-390456126D01*
X707864181Y-390544398D01*
X708518579Y-389890000D01*
X708801421Y-389890000D01*
X709455819Y-390544398D01*
X709609335Y-390456126D01*
X709701540Y-390260042D01*
X709753719Y-390049737D01*
X709763867Y-389833294D01*
X709731593Y-389619030D01*
X709658139Y-389415179D01*
X709609335Y-389323874D01*
X709455819Y-389235602D01*
X708801421Y-389890000D01*
X708518579Y-389890000D01*
X707864181Y-389235602D01*
X707710665Y-389323874D01*
X707618460Y-389519958D01*
X707566281Y-389730263D01*
X707556133Y-389946706D01*
X687050000Y-389946706D01*
X687050000Y-389766886D01*
X687001963Y-389525389D01*
X686907735Y-389297903D01*
X686771613Y-389094181D01*
X708005602Y-389094181D01*
X708660000Y-389748579D01*
X709314398Y-389094181D01*
X709226126Y-388940665D01*
X709030042Y-388848460D01*
X708819737Y-388796281D01*
X708603294Y-388786133D01*
X708389030Y-388818407D01*
X708185179Y-388891861D01*
X708093874Y-388940665D01*
X708005602Y-389094181D01*
X686771613Y-389094181D01*
X686770938Y-389093172D01*
X686596828Y-388919062D01*
X686392097Y-388782265D01*
X686164611Y-388688037D01*
X685923114Y-388640000D01*
X685676886Y-388640000D01*
X685435389Y-388688037D01*
X685207903Y-388782265D01*
X685003172Y-388919062D01*
X684829062Y-389093172D01*
X684692265Y-389297903D01*
X684598037Y-389525389D01*
X684550000Y-389766886D01*
X683240000Y-389766886D01*
X683191963Y-389525389D01*
X683097735Y-389297903D01*
X682960938Y-389093172D01*
X682786828Y-388919062D01*
X682582097Y-388782265D01*
X682354611Y-388688037D01*
X682113114Y-388640000D01*
X681866886Y-388640000D01*
X681625389Y-388688037D01*
X681397903Y-388782265D01*
X681193172Y-388919062D01*
X681019062Y-389093172D01*
X680882265Y-389297903D01*
X680788037Y-389525389D01*
X680740000Y-389766886D01*
X667825000Y-389766886D01*
X667825000Y-387241659D01*
X707560000Y-387241659D01*
X707560000Y-387458341D01*
X707602273Y-387670858D01*
X707685193Y-387871045D01*
X707805575Y-388051209D01*
X707958791Y-388204425D01*
X708138955Y-388324807D01*
X708339142Y-388407727D01*
X708551659Y-388450000D01*
X708768341Y-388450000D01*
X708980858Y-388407727D01*
X709181045Y-388324807D01*
X709361209Y-388204425D01*
X709514425Y-388051209D01*
X709634807Y-387871045D01*
X709717727Y-387670858D01*
X709760000Y-387458341D01*
X709760000Y-387241659D01*
X709717727Y-387029142D01*
X709634807Y-386828955D01*
X709514425Y-386648791D01*
X709361209Y-386495575D01*
X709181045Y-386375193D01*
X708980858Y-386292273D01*
X708768341Y-386250000D01*
X708551659Y-386250000D01*
X708339142Y-386292273D01*
X708138955Y-386375193D01*
X707958791Y-386495575D01*
X707805575Y-386648791D01*
X707685193Y-386828955D01*
X707602273Y-387029142D01*
X707560000Y-387241659D01*
X667825000Y-387241659D01*
X667825000Y-384701659D01*
X677080000Y-384701659D01*
X677080000Y-384918341D01*
X677122273Y-385130858D01*
X677205193Y-385331045D01*
X677325575Y-385511209D01*
X677478791Y-385664425D01*
X677658955Y-385784807D01*
X677859142Y-385867727D01*
X678071659Y-385910000D01*
X678288341Y-385910000D01*
X678500858Y-385867727D01*
X678701045Y-385784807D01*
X678881209Y-385664425D01*
X679034425Y-385511209D01*
X679154807Y-385331045D01*
X679237727Y-385130858D01*
X679280000Y-384918341D01*
X679280000Y-384701659D01*
X682160000Y-384701659D01*
X682160000Y-384918341D01*
X682202273Y-385130858D01*
X682285193Y-385331045D01*
X682405575Y-385511209D01*
X682558791Y-385664425D01*
X682738955Y-385784807D01*
X682939142Y-385867727D01*
X683151659Y-385910000D01*
X683368341Y-385910000D01*
X683580858Y-385867727D01*
X683781045Y-385784807D01*
X683961209Y-385664425D01*
X684114425Y-385511209D01*
X684234807Y-385331045D01*
X684317727Y-385130858D01*
X684360000Y-384918341D01*
X684360000Y-384701659D01*
X684700000Y-384701659D01*
X684700000Y-384918341D01*
X684742273Y-385130858D01*
X684825193Y-385331045D01*
X684945575Y-385511209D01*
X685098791Y-385664425D01*
X685278955Y-385784807D01*
X685479142Y-385867727D01*
X685691659Y-385910000D01*
X685908341Y-385910000D01*
X686120858Y-385867727D01*
X686321045Y-385784807D01*
X686501209Y-385664425D01*
X686654425Y-385511209D01*
X686774807Y-385331045D01*
X686857727Y-385130858D01*
X686900000Y-384918341D01*
X686900000Y-384701659D01*
X687240000Y-384701659D01*
X687240000Y-384918341D01*
X687282273Y-385130858D01*
X687365193Y-385331045D01*
X687485575Y-385511209D01*
X687638791Y-385664425D01*
X687818955Y-385784807D01*
X688019142Y-385867727D01*
X688231659Y-385910000D01*
X688448341Y-385910000D01*
X688660858Y-385867727D01*
X688861045Y-385784807D01*
X689041209Y-385664425D01*
X689194425Y-385511209D01*
X689314807Y-385331045D01*
X689397727Y-385130858D01*
X689440000Y-384918341D01*
X689440000Y-384701659D01*
X707560000Y-384701659D01*
X707560000Y-384918341D01*
X707602273Y-385130858D01*
X707685193Y-385331045D01*
X707805575Y-385511209D01*
X707958791Y-385664425D01*
X708138955Y-385784807D01*
X708339142Y-385867727D01*
X708551659Y-385910000D01*
X708768341Y-385910000D01*
X708980858Y-385867727D01*
X709181045Y-385784807D01*
X709361209Y-385664425D01*
X709514425Y-385511209D01*
X709634807Y-385331045D01*
X709717727Y-385130858D01*
X709760000Y-384918341D01*
X709760000Y-384701659D01*
X709717727Y-384489142D01*
X709634807Y-384288955D01*
X709514425Y-384108791D01*
X709361209Y-383955575D01*
X709181045Y-383835193D01*
X708980858Y-383752273D01*
X708768341Y-383710000D01*
X708551659Y-383710000D01*
X708339142Y-383752273D01*
X708138955Y-383835193D01*
X707958791Y-383955575D01*
X707805575Y-384108791D01*
X707685193Y-384288955D01*
X707602273Y-384489142D01*
X707560000Y-384701659D01*
X689440000Y-384701659D01*
X689397727Y-384489142D01*
X689314807Y-384288955D01*
X689194425Y-384108791D01*
X689041209Y-383955575D01*
X688861045Y-383835193D01*
X688660858Y-383752273D01*
X688448341Y-383710000D01*
X688231659Y-383710000D01*
X688019142Y-383752273D01*
X687818955Y-383835193D01*
X687638791Y-383955575D01*
X687485575Y-384108791D01*
X687365193Y-384288955D01*
X687282273Y-384489142D01*
X687240000Y-384701659D01*
X686900000Y-384701659D01*
X686857727Y-384489142D01*
X686774807Y-384288955D01*
X686654425Y-384108791D01*
X686501209Y-383955575D01*
X686321045Y-383835193D01*
X686120858Y-383752273D01*
X685908341Y-383710000D01*
X685691659Y-383710000D01*
X685479142Y-383752273D01*
X685278955Y-383835193D01*
X685098791Y-383955575D01*
X684945575Y-384108791D01*
X684825193Y-384288955D01*
X684742273Y-384489142D01*
X684700000Y-384701659D01*
X684360000Y-384701659D01*
X684317727Y-384489142D01*
X684234807Y-384288955D01*
X684114425Y-384108791D01*
X683961209Y-383955575D01*
X683781045Y-383835193D01*
X683580858Y-383752273D01*
X683368341Y-383710000D01*
X683151659Y-383710000D01*
X682939142Y-383752273D01*
X682738955Y-383835193D01*
X682558791Y-383955575D01*
X682405575Y-384108791D01*
X682285193Y-384288955D01*
X682202273Y-384489142D01*
X682160000Y-384701659D01*
X679280000Y-384701659D01*
X679237727Y-384489142D01*
X679154807Y-384288955D01*
X679034425Y-384108791D01*
X678881209Y-383955575D01*
X678701045Y-383835193D01*
X678500858Y-383752273D01*
X678288341Y-383710000D01*
X678071659Y-383710000D01*
X677859142Y-383752273D01*
X677658955Y-383835193D01*
X677478791Y-383955575D01*
X677325575Y-384108791D01*
X677205193Y-384288955D01*
X677122273Y-384489142D01*
X677080000Y-384701659D01*
X667825000Y-384701659D01*
X667825000Y-382161659D01*
X674540000Y-382161659D01*
X674540000Y-382378341D01*
X674582273Y-382590858D01*
X674665193Y-382791045D01*
X674785575Y-382971209D01*
X674938791Y-383124425D01*
X675118955Y-383244807D01*
X675319142Y-383327727D01*
X675531659Y-383370000D01*
X675748341Y-383370000D01*
X675960858Y-383327727D01*
X676161045Y-383244807D01*
X676341209Y-383124425D01*
X676399815Y-383065819D01*
X677525602Y-383065819D01*
X677613874Y-383219335D01*
X677809958Y-383311540D01*
X678020263Y-383363719D01*
X678236706Y-383373867D01*
X678450970Y-383341593D01*
X678654821Y-383268139D01*
X678746126Y-383219335D01*
X678834398Y-383065819D01*
X678180000Y-382411421D01*
X677525602Y-383065819D01*
X676399815Y-383065819D01*
X676494425Y-382971209D01*
X676614807Y-382791045D01*
X676697727Y-382590858D01*
X676740000Y-382378341D01*
X676740000Y-382326706D01*
X677076133Y-382326706D01*
X677108407Y-382540970D01*
X677181861Y-382744821D01*
X677230665Y-382836126D01*
X677384181Y-382924398D01*
X678038579Y-382270000D01*
X678321421Y-382270000D01*
X678975819Y-382924398D01*
X679129335Y-382836126D01*
X679221540Y-382640042D01*
X679273719Y-382429737D01*
X679283867Y-382213294D01*
X679276090Y-382161659D01*
X679620000Y-382161659D01*
X679620000Y-382378341D01*
X679662273Y-382590858D01*
X679745193Y-382791045D01*
X679865575Y-382971209D01*
X680018791Y-383124425D01*
X680198955Y-383244807D01*
X680399142Y-383327727D01*
X680611659Y-383370000D01*
X680828341Y-383370000D01*
X681040858Y-383327727D01*
X681241045Y-383244807D01*
X681421209Y-383124425D01*
X681574425Y-382971209D01*
X681694807Y-382791045D01*
X681777727Y-382590858D01*
X681820000Y-382378341D01*
X681820000Y-382161659D01*
X682160000Y-382161659D01*
X682160000Y-382378341D01*
X682202273Y-382590858D01*
X682285193Y-382791045D01*
X682405575Y-382971209D01*
X682558791Y-383124425D01*
X682738955Y-383244807D01*
X682939142Y-383327727D01*
X683151659Y-383370000D01*
X683368341Y-383370000D01*
X683580858Y-383327727D01*
X683781045Y-383244807D01*
X683961209Y-383124425D01*
X684114425Y-382971209D01*
X684234807Y-382791045D01*
X684317727Y-382590858D01*
X684360000Y-382378341D01*
X684360000Y-382161659D01*
X684700000Y-382161659D01*
X684700000Y-382378341D01*
X684742273Y-382590858D01*
X684825193Y-382791045D01*
X684945575Y-382971209D01*
X685098791Y-383124425D01*
X685278955Y-383244807D01*
X685479142Y-383327727D01*
X685691659Y-383370000D01*
X685908341Y-383370000D01*
X686120858Y-383327727D01*
X686321045Y-383244807D01*
X686501209Y-383124425D01*
X686654425Y-382971209D01*
X686774807Y-382791045D01*
X686857727Y-382590858D01*
X686900000Y-382378341D01*
X686900000Y-382161659D01*
X687240000Y-382161659D01*
X687240000Y-382378341D01*
X687282273Y-382590858D01*
X687365193Y-382791045D01*
X687485575Y-382971209D01*
X687638791Y-383124425D01*
X687818955Y-383244807D01*
X688019142Y-383327727D01*
X688231659Y-383370000D01*
X688448341Y-383370000D01*
X688660858Y-383327727D01*
X688861045Y-383244807D01*
X689041209Y-383124425D01*
X689194425Y-382971209D01*
X689314807Y-382791045D01*
X689397727Y-382590858D01*
X689440000Y-382378341D01*
X689440000Y-382161659D01*
X689780000Y-382161659D01*
X689780000Y-382378341D01*
X689822273Y-382590858D01*
X689905193Y-382791045D01*
X690025575Y-382971209D01*
X690178791Y-383124425D01*
X690358955Y-383244807D01*
X690559142Y-383327727D01*
X690771659Y-383370000D01*
X690988341Y-383370000D01*
X691200858Y-383327727D01*
X691401045Y-383244807D01*
X691581209Y-383124425D01*
X691734425Y-382971209D01*
X691854807Y-382791045D01*
X691937727Y-382590858D01*
X691980000Y-382378341D01*
X691980000Y-382161659D01*
X692320000Y-382161659D01*
X692320000Y-382378341D01*
X692362273Y-382590858D01*
X692445193Y-382791045D01*
X692565575Y-382971209D01*
X692718791Y-383124425D01*
X692898955Y-383244807D01*
X693099142Y-383327727D01*
X693311659Y-383370000D01*
X693528341Y-383370000D01*
X693740858Y-383327727D01*
X693941045Y-383244807D01*
X694121209Y-383124425D01*
X694274425Y-382971209D01*
X694394807Y-382791045D01*
X694477727Y-382590858D01*
X694520000Y-382378341D01*
X694520000Y-382161659D01*
X694860000Y-382161659D01*
X694860000Y-382378341D01*
X694902273Y-382590858D01*
X694985193Y-382791045D01*
X695105575Y-382971209D01*
X695258791Y-383124425D01*
X695438955Y-383244807D01*
X695639142Y-383327727D01*
X695851659Y-383370000D01*
X696068341Y-383370000D01*
X696280858Y-383327727D01*
X696481045Y-383244807D01*
X696661209Y-383124425D01*
X696814425Y-382971209D01*
X696934807Y-382791045D01*
X697017727Y-382590858D01*
X697060000Y-382378341D01*
X697060000Y-382161659D01*
X697400000Y-382161659D01*
X697400000Y-382378341D01*
X697442273Y-382590858D01*
X697525193Y-382791045D01*
X697645575Y-382971209D01*
X697798791Y-383124425D01*
X697978955Y-383244807D01*
X698179142Y-383327727D01*
X698391659Y-383370000D01*
X698608341Y-383370000D01*
X698820858Y-383327727D01*
X699021045Y-383244807D01*
X699201209Y-383124425D01*
X699354425Y-382971209D01*
X699474807Y-382791045D01*
X699557727Y-382590858D01*
X699600000Y-382378341D01*
X699600000Y-382161659D01*
X699940000Y-382161659D01*
X699940000Y-382378341D01*
X699982273Y-382590858D01*
X700065193Y-382791045D01*
X700185575Y-382971209D01*
X700338791Y-383124425D01*
X700518955Y-383244807D01*
X700719142Y-383327727D01*
X700931659Y-383370000D01*
X701148341Y-383370000D01*
X701360858Y-383327727D01*
X701561045Y-383244807D01*
X701741209Y-383124425D01*
X701894425Y-382971209D01*
X702014807Y-382791045D01*
X702097727Y-382590858D01*
X702140000Y-382378341D01*
X702140000Y-382161659D01*
X702480000Y-382161659D01*
X702480000Y-382378341D01*
X702522273Y-382590858D01*
X702605193Y-382791045D01*
X702725575Y-382971209D01*
X702878791Y-383124425D01*
X703058955Y-383244807D01*
X703259142Y-383327727D01*
X703471659Y-383370000D01*
X703688341Y-383370000D01*
X703900858Y-383327727D01*
X704101045Y-383244807D01*
X704281209Y-383124425D01*
X704434425Y-382971209D01*
X704554807Y-382791045D01*
X704637727Y-382590858D01*
X704680000Y-382378341D01*
X704680000Y-382161659D01*
X705020000Y-382161659D01*
X705020000Y-382378341D01*
X705062273Y-382590858D01*
X705145193Y-382791045D01*
X705265575Y-382971209D01*
X705418791Y-383124425D01*
X705598955Y-383244807D01*
X705799142Y-383327727D01*
X706011659Y-383370000D01*
X706228341Y-383370000D01*
X706440858Y-383327727D01*
X706641045Y-383244807D01*
X706821209Y-383124425D01*
X706974425Y-382971209D01*
X707094807Y-382791045D01*
X707177727Y-382590858D01*
X707220000Y-382378341D01*
X707220000Y-382161659D01*
X707560000Y-382161659D01*
X707560000Y-382378341D01*
X707602273Y-382590858D01*
X707685193Y-382791045D01*
X707805575Y-382971209D01*
X707958791Y-383124425D01*
X708138955Y-383244807D01*
X708339142Y-383327727D01*
X708551659Y-383370000D01*
X708768341Y-383370000D01*
X708980858Y-383327727D01*
X709181045Y-383244807D01*
X709361209Y-383124425D01*
X709514425Y-382971209D01*
X709634807Y-382791045D01*
X709717727Y-382590858D01*
X709760000Y-382378341D01*
X709760000Y-382161659D01*
X709717727Y-381949142D01*
X709634807Y-381748955D01*
X709514425Y-381568791D01*
X709361209Y-381415575D01*
X709181045Y-381295193D01*
X708980858Y-381212273D01*
X708768341Y-381170000D01*
X708551659Y-381170000D01*
X708339142Y-381212273D01*
X708138955Y-381295193D01*
X707958791Y-381415575D01*
X707805575Y-381568791D01*
X707685193Y-381748955D01*
X707602273Y-381949142D01*
X707560000Y-382161659D01*
X707220000Y-382161659D01*
X707177727Y-381949142D01*
X707094807Y-381748955D01*
X706974425Y-381568791D01*
X706821209Y-381415575D01*
X706641045Y-381295193D01*
X706440858Y-381212273D01*
X706228341Y-381170000D01*
X706011659Y-381170000D01*
X705799142Y-381212273D01*
X705598955Y-381295193D01*
X705418791Y-381415575D01*
X705265575Y-381568791D01*
X705145193Y-381748955D01*
X705062273Y-381949142D01*
X705020000Y-382161659D01*
X704680000Y-382161659D01*
X704637727Y-381949142D01*
X704554807Y-381748955D01*
X704434425Y-381568791D01*
X704281209Y-381415575D01*
X704101045Y-381295193D01*
X703900858Y-381212273D01*
X703688341Y-381170000D01*
X703471659Y-381170000D01*
X703259142Y-381212273D01*
X703058955Y-381295193D01*
X702878791Y-381415575D01*
X702725575Y-381568791D01*
X702605193Y-381748955D01*
X702522273Y-381949142D01*
X702480000Y-382161659D01*
X702140000Y-382161659D01*
X702097727Y-381949142D01*
X702014807Y-381748955D01*
X701894425Y-381568791D01*
X701741209Y-381415575D01*
X701561045Y-381295193D01*
X701360858Y-381212273D01*
X701148341Y-381170000D01*
X700931659Y-381170000D01*
X700719142Y-381212273D01*
X700518955Y-381295193D01*
X700338791Y-381415575D01*
X700185575Y-381568791D01*
X700065193Y-381748955D01*
X699982273Y-381949142D01*
X699940000Y-382161659D01*
X699600000Y-382161659D01*
X699557727Y-381949142D01*
X699474807Y-381748955D01*
X699354425Y-381568791D01*
X699201209Y-381415575D01*
X699021045Y-381295193D01*
X698820858Y-381212273D01*
X698608341Y-381170000D01*
X698391659Y-381170000D01*
X698179142Y-381212273D01*
X697978955Y-381295193D01*
X697798791Y-381415575D01*
X697645575Y-381568791D01*
X697525193Y-381748955D01*
X697442273Y-381949142D01*
X697400000Y-382161659D01*
X697060000Y-382161659D01*
X697017727Y-381949142D01*
X696934807Y-381748955D01*
X696814425Y-381568791D01*
X696661209Y-381415575D01*
X696481045Y-381295193D01*
X696280858Y-381212273D01*
X696068341Y-381170000D01*
X695851659Y-381170000D01*
X695639142Y-381212273D01*
X695438955Y-381295193D01*
X695258791Y-381415575D01*
X695105575Y-381568791D01*
X694985193Y-381748955D01*
X694902273Y-381949142D01*
X694860000Y-382161659D01*
X694520000Y-382161659D01*
X694477727Y-381949142D01*
X694394807Y-381748955D01*
X694274425Y-381568791D01*
X694121209Y-381415575D01*
X693941045Y-381295193D01*
X693740858Y-381212273D01*
X693528341Y-381170000D01*
X693311659Y-381170000D01*
X693099142Y-381212273D01*
X692898955Y-381295193D01*
X692718791Y-381415575D01*
X692565575Y-381568791D01*
X692445193Y-381748955D01*
X692362273Y-381949142D01*
X692320000Y-382161659D01*
X691980000Y-382161659D01*
X691937727Y-381949142D01*
X691854807Y-381748955D01*
X691734425Y-381568791D01*
X691581209Y-381415575D01*
X691401045Y-381295193D01*
X691200858Y-381212273D01*
X690988341Y-381170000D01*
X690771659Y-381170000D01*
X690559142Y-381212273D01*
X690358955Y-381295193D01*
X690178791Y-381415575D01*
X690025575Y-381568791D01*
X689905193Y-381748955D01*
X689822273Y-381949142D01*
X689780000Y-382161659D01*
X689440000Y-382161659D01*
X689397727Y-381949142D01*
X689314807Y-381748955D01*
X689194425Y-381568791D01*
X689041209Y-381415575D01*
X688861045Y-381295193D01*
X688660858Y-381212273D01*
X688448341Y-381170000D01*
X688231659Y-381170000D01*
X688019142Y-381212273D01*
X687818955Y-381295193D01*
X687638791Y-381415575D01*
X687485575Y-381568791D01*
X687365193Y-381748955D01*
X687282273Y-381949142D01*
X687240000Y-382161659D01*
X686900000Y-382161659D01*
X686857727Y-381949142D01*
X686774807Y-381748955D01*
X686654425Y-381568791D01*
X686501209Y-381415575D01*
X686321045Y-381295193D01*
X686120858Y-381212273D01*
X685908341Y-381170000D01*
X685691659Y-381170000D01*
X685479142Y-381212273D01*
X685278955Y-381295193D01*
X685098791Y-381415575D01*
X684945575Y-381568791D01*
X684825193Y-381748955D01*
X684742273Y-381949142D01*
X684700000Y-382161659D01*
X684360000Y-382161659D01*
X684317727Y-381949142D01*
X684234807Y-381748955D01*
X684114425Y-381568791D01*
X683961209Y-381415575D01*
X683781045Y-381295193D01*
X683580858Y-381212273D01*
X683368341Y-381170000D01*
X683151659Y-381170000D01*
X682939142Y-381212273D01*
X682738955Y-381295193D01*
X682558791Y-381415575D01*
X682405575Y-381568791D01*
X682285193Y-381748955D01*
X682202273Y-381949142D01*
X682160000Y-382161659D01*
X681820000Y-382161659D01*
X681777727Y-381949142D01*
X681694807Y-381748955D01*
X681574425Y-381568791D01*
X681421209Y-381415575D01*
X681241045Y-381295193D01*
X681040858Y-381212273D01*
X680828341Y-381170000D01*
X680611659Y-381170000D01*
X680399142Y-381212273D01*
X680198955Y-381295193D01*
X680018791Y-381415575D01*
X679865575Y-381568791D01*
X679745193Y-381748955D01*
X679662273Y-381949142D01*
X679620000Y-382161659D01*
X679276090Y-382161659D01*
X679251593Y-381999030D01*
X679178139Y-381795179D01*
X679129335Y-381703874D01*
X678975819Y-381615602D01*
X678321421Y-382270000D01*
X678038579Y-382270000D01*
X677384181Y-381615602D01*
X677230665Y-381703874D01*
X677138460Y-381899958D01*
X677086281Y-382110263D01*
X677076133Y-382326706D01*
X676740000Y-382326706D01*
X676740000Y-382161659D01*
X676697727Y-381949142D01*
X676614807Y-381748955D01*
X676494425Y-381568791D01*
X676399815Y-381474181D01*
X677525602Y-381474181D01*
X678180000Y-382128579D01*
X678834398Y-381474181D01*
X678746126Y-381320665D01*
X678550042Y-381228460D01*
X678339737Y-381176281D01*
X678123294Y-381166133D01*
X677909030Y-381198407D01*
X677705179Y-381271861D01*
X677613874Y-381320665D01*
X677525602Y-381474181D01*
X676399815Y-381474181D01*
X676341209Y-381415575D01*
X676161045Y-381295193D01*
X675960858Y-381212273D01*
X675748341Y-381170000D01*
X675531659Y-381170000D01*
X675319142Y-381212273D01*
X675118955Y-381295193D01*
X674938791Y-381415575D01*
X674785575Y-381568791D01*
X674665193Y-381748955D01*
X674582273Y-381949142D01*
X674540000Y-382161659D01*
X667825000Y-382161659D01*
X667825000Y-379312866D01*
X669100000Y-379312866D01*
X669100000Y-379687134D01*
X669173016Y-380054209D01*
X669316242Y-380399987D01*
X669524174Y-380711179D01*
X669788821Y-380975826D01*
X670100013Y-381183758D01*
X670445791Y-381326984D01*
X670812866Y-381400000D01*
X671187134Y-381400000D01*
X671554209Y-381326984D01*
X671899987Y-381183758D01*
X672211179Y-380975826D01*
X672475826Y-380711179D01*
X672683758Y-380399987D01*
X672826984Y-380054209D01*
X672900000Y-379687134D01*
X672900000Y-379312866D01*
X672826984Y-378945791D01*
X672683758Y-378600013D01*
X672475826Y-378288821D01*
X672211179Y-378024174D01*
X671899987Y-377816242D01*
X671554209Y-377673016D01*
X671187134Y-377600000D01*
X670812866Y-377600000D01*
X670445791Y-377673016D01*
X670100013Y-377816242D01*
X669788821Y-378024174D01*
X669524174Y-378288821D01*
X669316242Y-378600013D01*
X669173016Y-378945791D01*
X669100000Y-379312866D01*
X667825000Y-379312866D01*
X667825000Y-373486735D01*
X675810000Y-373486735D01*
X675810000Y-373713265D01*
X675854194Y-373935443D01*
X675940884Y-374144729D01*
X676066737Y-374333082D01*
X676226918Y-374493263D01*
X676415271Y-374619116D01*
X676624557Y-374705806D01*
X676846735Y-374750000D01*
X677073265Y-374750000D01*
X677295443Y-374705806D01*
X677504729Y-374619116D01*
X677693082Y-374493263D01*
X677754839Y-374431506D01*
X678809915Y-374431506D01*
X678904226Y-374590143D01*
X679108841Y-374687346D01*
X679328488Y-374742764D01*
X679554726Y-374754267D01*
X679778860Y-374721412D01*
X679992279Y-374645461D01*
X680095774Y-374590143D01*
X680190085Y-374431506D01*
X679500000Y-373741421D01*
X678809915Y-374431506D01*
X677754839Y-374431506D01*
X677853263Y-374333082D01*
X677979116Y-374144729D01*
X678065806Y-373935443D01*
X678110000Y-373713265D01*
X678110000Y-373654726D01*
X678345733Y-373654726D01*
X678378588Y-373878860D01*
X678454539Y-374092279D01*
X678509857Y-374195774D01*
X678668494Y-374290085D01*
X679358579Y-373600000D01*
X679641421Y-373600000D01*
X680331506Y-374290085D01*
X680490143Y-374195774D01*
X680587346Y-373991159D01*
X680642764Y-373771512D01*
X680654267Y-373545274D01*
X680621412Y-373321140D01*
X680545461Y-373107721D01*
X680490143Y-373004226D01*
X680331506Y-372909915D01*
X679641421Y-373600000D01*
X679358579Y-373600000D01*
X678668494Y-372909915D01*
X678509857Y-373004226D01*
X678412654Y-373208841D01*
X678357236Y-373428488D01*
X678345733Y-373654726D01*
X678110000Y-373654726D01*
X678110000Y-373486735D01*
X678065806Y-373264557D01*
X677979116Y-373055271D01*
X677853263Y-372866918D01*
X677754839Y-372768494D01*
X678809915Y-372768494D01*
X679500000Y-373458579D01*
X680190085Y-372768494D01*
X680095774Y-372609857D01*
X679891159Y-372512654D01*
X679671512Y-372457236D01*
X679445274Y-372445733D01*
X679221140Y-372478588D01*
X679007721Y-372554539D01*
X678904226Y-372609857D01*
X678809915Y-372768494D01*
X677754839Y-372768494D01*
X677693082Y-372706737D01*
X677504729Y-372580884D01*
X677295443Y-372494194D01*
X677073265Y-372450000D01*
X676846735Y-372450000D01*
X676624557Y-372494194D01*
X676415271Y-372580884D01*
X676226918Y-372706737D01*
X676066737Y-372866918D01*
X675940884Y-373055271D01*
X675854194Y-373264557D01*
X675810000Y-373486735D01*
X667825000Y-373486735D01*
X667825000Y-370946735D01*
X675810000Y-370946735D01*
X675810000Y-371173265D01*
X675854194Y-371395443D01*
X675940884Y-371604729D01*
X676066737Y-371793082D01*
X676226918Y-371953263D01*
X676415271Y-372079116D01*
X676624557Y-372165806D01*
X676846735Y-372210000D01*
X677073265Y-372210000D01*
X677295443Y-372165806D01*
X677504729Y-372079116D01*
X677693082Y-371953263D01*
X677853263Y-371793082D01*
X677979116Y-371604729D01*
X678065806Y-371395443D01*
X678110000Y-371173265D01*
X678110000Y-370946735D01*
X678350000Y-370946735D01*
X678350000Y-371173265D01*
X678394194Y-371395443D01*
X678480884Y-371604729D01*
X678606737Y-371793082D01*
X678766918Y-371953263D01*
X678955271Y-372079116D01*
X679164557Y-372165806D01*
X679386735Y-372210000D01*
X679613265Y-372210000D01*
X679835443Y-372165806D01*
X680044729Y-372079116D01*
X680233082Y-371953263D01*
X680393263Y-371793082D01*
X680519116Y-371604729D01*
X680605806Y-371395443D01*
X680650000Y-371173265D01*
X680650000Y-370946735D01*
X680605806Y-370724557D01*
X680519116Y-370515271D01*
X680393263Y-370326918D01*
X680233082Y-370166737D01*
X680044729Y-370040884D01*
X679835443Y-369954194D01*
X679613265Y-369910000D01*
X679386735Y-369910000D01*
X679164557Y-369954194D01*
X678955271Y-370040884D01*
X678766918Y-370166737D01*
X678606737Y-370326918D01*
X678480884Y-370515271D01*
X678394194Y-370724557D01*
X678350000Y-370946735D01*
X678110000Y-370946735D01*
X678065806Y-370724557D01*
X677979116Y-370515271D01*
X677853263Y-370326918D01*
X677693082Y-370166737D01*
X677504729Y-370040884D01*
X677295443Y-369954194D01*
X677073265Y-369910000D01*
X676846735Y-369910000D01*
X676624557Y-369954194D01*
X676415271Y-370040884D01*
X676226918Y-370166737D01*
X676066737Y-370326918D01*
X675940884Y-370515271D01*
X675854194Y-370724557D01*
X675810000Y-370946735D01*
X667825000Y-370946735D01*
X667825000Y-366000000D01*
X691400000Y-366000000D01*
X691400000Y-380000000D01*
X691411529Y-380117054D01*
X691445672Y-380229610D01*
X691501118Y-380333342D01*
X691575736Y-380424264D01*
X691666658Y-380498882D01*
X691770390Y-380554328D01*
X691882946Y-380588471D01*
X692000000Y-380600000D01*
X708000000Y-380600000D01*
X708117054Y-380588471D01*
X708229610Y-380554328D01*
X708333342Y-380498882D01*
X708424264Y-380424264D01*
X708498882Y-380333342D01*
X708554328Y-380229610D01*
X708588471Y-380117054D01*
X708600000Y-380000000D01*
X708600000Y-379312866D01*
X717100000Y-379312866D01*
X717100000Y-379687134D01*
X717173016Y-380054209D01*
X717316242Y-380399987D01*
X717524174Y-380711179D01*
X717788821Y-380975826D01*
X718100013Y-381183758D01*
X718445791Y-381326984D01*
X718812866Y-381400000D01*
X719187134Y-381400000D01*
X719554209Y-381326984D01*
X719899987Y-381183758D01*
X720211179Y-380975826D01*
X720475826Y-380711179D01*
X720683758Y-380399987D01*
X720826984Y-380054209D01*
X720900000Y-379687134D01*
X720900000Y-379312866D01*
X720826984Y-378945791D01*
X720683758Y-378600013D01*
X720475826Y-378288821D01*
X720211179Y-378024174D01*
X719899987Y-377816242D01*
X719554209Y-377673016D01*
X719187134Y-377600000D01*
X718812866Y-377600000D01*
X718445791Y-377673016D01*
X718100013Y-377816242D01*
X717788821Y-378024174D01*
X717524174Y-378288821D01*
X717316242Y-378600013D01*
X717173016Y-378945791D01*
X717100000Y-379312866D01*
X708600000Y-379312866D01*
X708600000Y-373426735D01*
X709050000Y-373426735D01*
X709050000Y-373653265D01*
X709094194Y-373875443D01*
X709180884Y-374084729D01*
X709306737Y-374273082D01*
X709466918Y-374433263D01*
X709655271Y-374559116D01*
X709864557Y-374645806D01*
X710086735Y-374690000D01*
X710313265Y-374690000D01*
X710535443Y-374645806D01*
X710744729Y-374559116D01*
X710933082Y-374433263D01*
X711093263Y-374273082D01*
X711219116Y-374084729D01*
X711305806Y-373875443D01*
X711350000Y-373653265D01*
X711350000Y-373426735D01*
X711590000Y-373426735D01*
X711590000Y-373653265D01*
X711634194Y-373875443D01*
X711720884Y-374084729D01*
X711846737Y-374273082D01*
X712006918Y-374433263D01*
X712195271Y-374559116D01*
X712404557Y-374645806D01*
X712626735Y-374690000D01*
X712853265Y-374690000D01*
X713075443Y-374645806D01*
X713284729Y-374559116D01*
X713473082Y-374433263D01*
X713633263Y-374273082D01*
X713759116Y-374084729D01*
X713845806Y-373875443D01*
X713890000Y-373653265D01*
X713890000Y-373426735D01*
X713845806Y-373204557D01*
X713759116Y-372995271D01*
X713633263Y-372806918D01*
X713473082Y-372646737D01*
X713284729Y-372520884D01*
X713075443Y-372434194D01*
X712853265Y-372390000D01*
X712626735Y-372390000D01*
X712404557Y-372434194D01*
X712195271Y-372520884D01*
X712006918Y-372646737D01*
X711846737Y-372806918D01*
X711720884Y-372995271D01*
X711634194Y-373204557D01*
X711590000Y-373426735D01*
X711350000Y-373426735D01*
X711305806Y-373204557D01*
X711219116Y-372995271D01*
X711093263Y-372806918D01*
X710933082Y-372646737D01*
X710744729Y-372520884D01*
X710535443Y-372434194D01*
X710313265Y-372390000D01*
X710086735Y-372390000D01*
X709864557Y-372434194D01*
X709655271Y-372520884D01*
X709466918Y-372646737D01*
X709306737Y-372806918D01*
X709180884Y-372995271D01*
X709094194Y-373204557D01*
X709050000Y-373426735D01*
X708600000Y-373426735D01*
X708600000Y-371831506D01*
X709509915Y-371831506D01*
X709604226Y-371990143D01*
X709808841Y-372087346D01*
X710028488Y-372142764D01*
X710254726Y-372154267D01*
X710478860Y-372121412D01*
X710692279Y-372045461D01*
X710795774Y-371990143D01*
X710890085Y-371831506D01*
X710200000Y-371141421D01*
X709509915Y-371831506D01*
X708600000Y-371831506D01*
X708600000Y-371054726D01*
X709045733Y-371054726D01*
X709078588Y-371278860D01*
X709154539Y-371492279D01*
X709209857Y-371595774D01*
X709368494Y-371690085D01*
X710058579Y-371000000D01*
X710341421Y-371000000D01*
X711031506Y-371690085D01*
X711190143Y-371595774D01*
X711287346Y-371391159D01*
X711342764Y-371171512D01*
X711354267Y-370945274D01*
X711345686Y-370886735D01*
X711590000Y-370886735D01*
X711590000Y-371113265D01*
X711634194Y-371335443D01*
X711720884Y-371544729D01*
X711846737Y-371733082D01*
X712006918Y-371893263D01*
X712195271Y-372019116D01*
X712404557Y-372105806D01*
X712626735Y-372150000D01*
X712853265Y-372150000D01*
X713075443Y-372105806D01*
X713284729Y-372019116D01*
X713473082Y-371893263D01*
X713633263Y-371733082D01*
X713759116Y-371544729D01*
X713845806Y-371335443D01*
X713890000Y-371113265D01*
X713890000Y-370886735D01*
X713845806Y-370664557D01*
X713759116Y-370455271D01*
X713633263Y-370266918D01*
X713473082Y-370106737D01*
X713284729Y-369980884D01*
X713075443Y-369894194D01*
X712853265Y-369850000D01*
X712626735Y-369850000D01*
X712404557Y-369894194D01*
X712195271Y-369980884D01*
X712006918Y-370106737D01*
X711846737Y-370266918D01*
X711720884Y-370455271D01*
X711634194Y-370664557D01*
X711590000Y-370886735D01*
X711345686Y-370886735D01*
X711321412Y-370721140D01*
X711245461Y-370507721D01*
X711190143Y-370404226D01*
X711031506Y-370309915D01*
X710341421Y-371000000D01*
X710058579Y-371000000D01*
X709368494Y-370309915D01*
X709209857Y-370404226D01*
X709112654Y-370608841D01*
X709057236Y-370828488D01*
X709045733Y-371054726D01*
X708600000Y-371054726D01*
X708600000Y-370168494D01*
X709509915Y-370168494D01*
X710200000Y-370858579D01*
X710890085Y-370168494D01*
X710795774Y-370009857D01*
X710591159Y-369912654D01*
X710371512Y-369857236D01*
X710145274Y-369845733D01*
X709921140Y-369878588D01*
X709707721Y-369954539D01*
X709604226Y-370009857D01*
X709509915Y-370168494D01*
X708600000Y-370168494D01*
X708600000Y-366000000D01*
X708588471Y-365882946D01*
X708554328Y-365770390D01*
X708498882Y-365666658D01*
X708424264Y-365575736D01*
X708333342Y-365501118D01*
X708229610Y-365445672D01*
X708117054Y-365411529D01*
X708000000Y-365400000D01*
X692000000Y-365400000D01*
X691882946Y-365411529D01*
X691770390Y-365445672D01*
X691666658Y-365501118D01*
X691575736Y-365575736D01*
X691501118Y-365666658D01*
X691445672Y-365770390D01*
X691411529Y-365882946D01*
X691400000Y-366000000D01*
X667825000Y-366000000D01*
X667825000Y-365325000D01*
X723175001Y-365325000D01*
X723175000Y-398675000D01*
G36*
X707900000Y-379900000D02*
G01*
X692100000Y-379900000D01*
X692100000Y-366100000D01*
X707900000Y-366100000D01*
X707900000Y-379900000D01*
G37*
X707900000Y-379900000D02*
X692100000Y-379900000D01*
X692100000Y-366100000D01*
X707900000Y-366100000D01*
X707900000Y-379900000D01*
M02*
