G04 #@! TF.GenerationSoftware,KiCad,Pcbnew,(5.1.5)-2*
G04 #@! TF.CreationDate,2019-12-03T22:48:31+10:00*
G04 #@! TF.ProjectId,teensy-carrier,7465656e-7379-42d6-9361-72726965722e,rev?*
G04 #@! TF.SameCoordinates,Original*
G04 #@! TF.FileFunction,Copper,L1,Top*
G04 #@! TF.FilePolarity,Positive*
%FSLAX46Y46*%
G04 Gerber Fmt 4.6, Leading zero omitted, Abs format (unit mm)*
G04 Created by KiCad (PCBNEW (5.1.5)-2) date 2019-12-03 22:48:31*
%MOMM*%
%LPD*%
G04 APERTURE LIST*
%ADD10R,9.400000X10.800000*%
%ADD11R,4.600000X1.100000*%
%ADD12O,1.700000X1.700000*%
%ADD13R,1.700000X1.700000*%
%ADD14C,1.900000*%
%ADD15R,1.600000X1.600000*%
%ADD16C,1.600000*%
%ADD17R,0.800000X0.400000*%
%ADD18R,0.800000X0.300000*%
%ADD19C,0.700000*%
%ADD20C,0.200000*%
G04 APERTURE END LIST*
D10*
X697875000Y-372275000D03*
D11*
X688725000Y-374815000D03*
X688725000Y-372275000D03*
X688725000Y-369735000D03*
D12*
X709000000Y-373500000D03*
D13*
X709000000Y-370960000D03*
D14*
X681990000Y-389890000D03*
X685800000Y-389890000D03*
D15*
X675640000Y-397510000D03*
D16*
X678180000Y-397510000D03*
X680720000Y-397510000D03*
X683260000Y-397510000D03*
X685800000Y-397510000D03*
X688340000Y-397510000D03*
X690880000Y-397510000D03*
X693420000Y-397510000D03*
X695960000Y-397510000D03*
X698500000Y-397510000D03*
X701040000Y-397510000D03*
X703580000Y-397510000D03*
X706120000Y-397510000D03*
X688340000Y-384810000D03*
X685800000Y-384810000D03*
X683260000Y-384810000D03*
X678180000Y-384810000D03*
X675640000Y-382270000D03*
X678180000Y-382270000D03*
X680720000Y-382270000D03*
X683260000Y-382270000D03*
X685800000Y-382270000D03*
X688340000Y-382270000D03*
X690880000Y-382270000D03*
X693420000Y-382270000D03*
X695960000Y-382270000D03*
X698500000Y-382270000D03*
X701040000Y-382270000D03*
X703580000Y-382270000D03*
X706120000Y-382270000D03*
X708660000Y-397510000D03*
X708660000Y-394970000D03*
X708660000Y-392430000D03*
X708660000Y-382270000D03*
X708660000Y-384810000D03*
X708660000Y-387350000D03*
X708660000Y-389890000D03*
D17*
X719300000Y-385390000D03*
D18*
X716800000Y-386390000D03*
X716800000Y-386890000D03*
X716800000Y-387390000D03*
X716800000Y-387890000D03*
X716800000Y-388390000D03*
X716800000Y-388890000D03*
X716800000Y-389390000D03*
X716800000Y-389890000D03*
X716800000Y-390390000D03*
X716800000Y-390890000D03*
X716800000Y-391390000D03*
X716800000Y-391890000D03*
X716800000Y-392390000D03*
X716800000Y-392890000D03*
X716800000Y-393390000D03*
D17*
X719300000Y-394390000D03*
D12*
X680500000Y-370960000D03*
D13*
X680500000Y-373500000D03*
D19*
X690400000Y-369700000D03*
X688700000Y-369700000D03*
X687100000Y-369700000D03*
X716788000Y-385444994D03*
X716788000Y-394589004D03*
X715517948Y-389636000D03*
X718312000Y-388366000D03*
X702000000Y-376000000D03*
X700000000Y-376000000D03*
X698000000Y-376000000D03*
X702000000Y-374000000D03*
X700000000Y-374000000D03*
X698000000Y-374000000D03*
X702000000Y-372000000D03*
X700000000Y-372000000D03*
X698000000Y-372000000D03*
X702000000Y-370000000D03*
X700000000Y-370000000D03*
X698000000Y-370000000D03*
X696000000Y-376000000D03*
X696000000Y-374000000D03*
X696000000Y-372000000D03*
X696000000Y-370000000D03*
X694000000Y-376000000D03*
X694000000Y-374000000D03*
X694000000Y-372000000D03*
X694000000Y-370000000D03*
X702000000Y-368000000D03*
X700000000Y-368000000D03*
X698000000Y-368000000D03*
X696000000Y-368000000D03*
X694000000Y-368000000D03*
X715010000Y-391668000D03*
X714100000Y-388400000D03*
X715010000Y-393319000D03*
D20*
X716800000Y-385456994D02*
X716788000Y-385444994D01*
X716800000Y-386390000D02*
X716800000Y-385456994D01*
X716800000Y-394577004D02*
X716788000Y-394589004D01*
X716800000Y-393390000D02*
X716800000Y-394577004D01*
X716800000Y-389890000D02*
X716750001Y-389840001D01*
X715955998Y-389636000D02*
X715517948Y-389636000D01*
X716750001Y-389840001D02*
X716159999Y-389840001D01*
X716159999Y-389840001D02*
X715955998Y-389636000D01*
X716800000Y-388390000D02*
X718288000Y-388390000D01*
X718288000Y-388390000D02*
X718312000Y-388366000D01*
X708660000Y-397510000D02*
X715518000Y-397510000D01*
X715518000Y-397510000D02*
X718185000Y-394843000D01*
X718185000Y-393700000D02*
X719328000Y-392557000D01*
X719328000Y-392557000D02*
X719328000Y-387858000D01*
X719328000Y-387858000D02*
X718360000Y-386890000D01*
X718360000Y-386890000D02*
X716800000Y-386890000D01*
X718185000Y-394843000D02*
X718185000Y-393700000D01*
X713299998Y-390890000D02*
X716800000Y-390890000D01*
X713299998Y-388000002D02*
X713299998Y-390890000D01*
X716800000Y-387390000D02*
X713910000Y-387390000D01*
X713910000Y-387390000D02*
X713299998Y-388000002D01*
X703580000Y-394420000D02*
X703580000Y-396378630D01*
X706800000Y-391200000D02*
X703580000Y-394420000D01*
X703580000Y-396378630D02*
X703580000Y-397510000D01*
X713299998Y-390890000D02*
X712989998Y-391200000D01*
X712989998Y-391200000D02*
X706800000Y-391200000D01*
X715772000Y-391668000D02*
X715010000Y-391668000D01*
X716800000Y-391390000D02*
X716050000Y-391390000D01*
X716050000Y-391390000D02*
X715772000Y-391668000D01*
X714610000Y-387890000D02*
X714100000Y-388400000D01*
X716800000Y-387890000D02*
X714610000Y-387890000D01*
X714817947Y-389299999D02*
X715227946Y-388890000D01*
X714817947Y-389972001D02*
X714817947Y-389299999D01*
X715235946Y-390390000D02*
X714817947Y-389972001D01*
X716800000Y-390390000D02*
X715235946Y-390390000D01*
X716200000Y-388890000D02*
X716800000Y-388890000D01*
X715227946Y-388890000D02*
X716200000Y-388890000D01*
X718058000Y-392557000D02*
X718058000Y-389763000D01*
X717685000Y-389390000D02*
X716800000Y-389390000D01*
X718058000Y-389763000D02*
X717685000Y-389390000D01*
X717725000Y-392890000D02*
X718058000Y-392557000D01*
X716800000Y-392890000D02*
X717725000Y-392890000D01*
X715439000Y-392890000D02*
X715010000Y-393319000D01*
X716800000Y-392890000D02*
X715439000Y-392890000D01*
X709549000Y-396240000D02*
X707390000Y-396240000D01*
X713399000Y-392390000D02*
X709549000Y-396240000D01*
X707390000Y-396240000D02*
X706919999Y-396710001D01*
X706919999Y-396710001D02*
X706120000Y-397510000D01*
X716800000Y-392390000D02*
X713399000Y-392390000D01*
G36*
X723175001Y-380900000D02*
G01*
X720287005Y-380900000D01*
X720475826Y-380711179D01*
X720683758Y-380399987D01*
X720826984Y-380054209D01*
X720900000Y-379687134D01*
X720900000Y-379312866D01*
X720826984Y-378945791D01*
X720683758Y-378600013D01*
X720475826Y-378288821D01*
X720211179Y-378024174D01*
X719899987Y-377816242D01*
X719554209Y-377673016D01*
X719187134Y-377600000D01*
X718812866Y-377600000D01*
X718445791Y-377673016D01*
X718100013Y-377816242D01*
X717788821Y-378024174D01*
X717524174Y-378288821D01*
X717316242Y-378600013D01*
X717173016Y-378945791D01*
X717100000Y-379312866D01*
X717100000Y-379687134D01*
X717173016Y-380054209D01*
X717316242Y-380399987D01*
X717524174Y-380711179D01*
X717712995Y-380900000D01*
X677000000Y-380900000D01*
X676980491Y-380901921D01*
X676961732Y-380907612D01*
X676944443Y-380916853D01*
X676929289Y-380929289D01*
X676916853Y-380944443D01*
X676907612Y-380961732D01*
X676901921Y-380980491D01*
X676900000Y-381000000D01*
X676900000Y-385900000D01*
X667825000Y-385900000D01*
X667825000Y-383065819D01*
X674985602Y-383065819D01*
X675073874Y-383219335D01*
X675269958Y-383311540D01*
X675480263Y-383363719D01*
X675696706Y-383373867D01*
X675910970Y-383341593D01*
X676114821Y-383268139D01*
X676206126Y-383219335D01*
X676294398Y-383065819D01*
X675640000Y-382411421D01*
X674985602Y-383065819D01*
X667825000Y-383065819D01*
X667825000Y-382326706D01*
X674536133Y-382326706D01*
X674568407Y-382540970D01*
X674641861Y-382744821D01*
X674690665Y-382836126D01*
X674844181Y-382924398D01*
X675498579Y-382270000D01*
X675781421Y-382270000D01*
X676435819Y-382924398D01*
X676589335Y-382836126D01*
X676681540Y-382640042D01*
X676733719Y-382429737D01*
X676743867Y-382213294D01*
X676711593Y-381999030D01*
X676638139Y-381795179D01*
X676589335Y-381703874D01*
X676435819Y-381615602D01*
X675781421Y-382270000D01*
X675498579Y-382270000D01*
X674844181Y-381615602D01*
X674690665Y-381703874D01*
X674598460Y-381899958D01*
X674546281Y-382110263D01*
X674536133Y-382326706D01*
X667825000Y-382326706D01*
X667825000Y-381474181D01*
X674985602Y-381474181D01*
X675640000Y-382128579D01*
X676294398Y-381474181D01*
X676206126Y-381320665D01*
X676010042Y-381228460D01*
X675799737Y-381176281D01*
X675583294Y-381166133D01*
X675369030Y-381198407D01*
X675165179Y-381271861D01*
X675073874Y-381320665D01*
X674985602Y-381474181D01*
X667825000Y-381474181D01*
X667825000Y-379312866D01*
X669100000Y-379312866D01*
X669100000Y-379687134D01*
X669173016Y-380054209D01*
X669316242Y-380399987D01*
X669524174Y-380711179D01*
X669788821Y-380975826D01*
X670100013Y-381183758D01*
X670445791Y-381326984D01*
X670812866Y-381400000D01*
X671187134Y-381400000D01*
X671554209Y-381326984D01*
X671899987Y-381183758D01*
X672211179Y-380975826D01*
X672475826Y-380711179D01*
X672683758Y-380399987D01*
X672826984Y-380054209D01*
X672900000Y-379687134D01*
X672900000Y-379312866D01*
X672826984Y-378945791D01*
X672683758Y-378600013D01*
X672475826Y-378288821D01*
X672211179Y-378024174D01*
X671899987Y-377816242D01*
X671558999Y-377675000D01*
X692873548Y-377675000D01*
X692879340Y-377733810D01*
X692896495Y-377790361D01*
X692924352Y-377842478D01*
X692961841Y-377888159D01*
X693007522Y-377925648D01*
X693059639Y-377953505D01*
X693116190Y-377970660D01*
X693175000Y-377976452D01*
X697700000Y-377975000D01*
X697775000Y-377900000D01*
X697775000Y-372375000D01*
X697975000Y-372375000D01*
X697975000Y-377900000D01*
X698050000Y-377975000D01*
X702575000Y-377976452D01*
X702633810Y-377970660D01*
X702690361Y-377953505D01*
X702742478Y-377925648D01*
X702788159Y-377888159D01*
X702825648Y-377842478D01*
X702853505Y-377790361D01*
X702870660Y-377733810D01*
X702876452Y-377675000D01*
X702875370Y-373777987D01*
X707884104Y-373777987D01*
X707917721Y-373888823D01*
X708014372Y-374092494D01*
X708148900Y-374273396D01*
X708316136Y-374424577D01*
X708509652Y-374540227D01*
X708722012Y-374615901D01*
X708900000Y-374570649D01*
X708900000Y-373600000D01*
X709100000Y-373600000D01*
X709100000Y-374570649D01*
X709277988Y-374615901D01*
X709490348Y-374540227D01*
X709683864Y-374424577D01*
X709851100Y-374273396D01*
X709985628Y-374092494D01*
X710082279Y-373888823D01*
X710115896Y-373777987D01*
X710070339Y-373600000D01*
X709100000Y-373600000D01*
X708900000Y-373600000D01*
X707929661Y-373600000D01*
X707884104Y-373777987D01*
X702875370Y-373777987D01*
X702875216Y-373222013D01*
X707884104Y-373222013D01*
X707929661Y-373400000D01*
X708900000Y-373400000D01*
X708900000Y-372429351D01*
X709100000Y-372429351D01*
X709100000Y-373400000D01*
X710070339Y-373400000D01*
X710115896Y-373222013D01*
X710082279Y-373111177D01*
X709985628Y-372907506D01*
X709851100Y-372726604D01*
X709683864Y-372575423D01*
X709490348Y-372459773D01*
X709277988Y-372384099D01*
X709100000Y-372429351D01*
X708900000Y-372429351D01*
X708722012Y-372384099D01*
X708509652Y-372459773D01*
X708316136Y-372575423D01*
X708148900Y-372726604D01*
X708014372Y-372907506D01*
X707917721Y-373111177D01*
X707884104Y-373222013D01*
X702875216Y-373222013D01*
X702875000Y-372450000D01*
X702800000Y-372375000D01*
X697975000Y-372375000D01*
X697775000Y-372375000D01*
X692950000Y-372375000D01*
X692875000Y-372450000D01*
X692873548Y-377675000D01*
X671558999Y-377675000D01*
X671554209Y-377673016D01*
X671187134Y-377600000D01*
X670812866Y-377600000D01*
X670445791Y-377673016D01*
X670100013Y-377816242D01*
X669788821Y-378024174D01*
X669524174Y-378288821D01*
X669316242Y-378600013D01*
X669173016Y-378945791D01*
X669100000Y-379312866D01*
X667825000Y-379312866D01*
X667825000Y-369000000D01*
X677400000Y-369000000D01*
X677400000Y-376500000D01*
X677411529Y-376617054D01*
X677445672Y-376729610D01*
X677501118Y-376833342D01*
X677575736Y-376924264D01*
X677666658Y-376998882D01*
X677770390Y-377054328D01*
X677882946Y-377088471D01*
X678000000Y-377100000D01*
X692000000Y-377100000D01*
X692117054Y-377088471D01*
X692229610Y-377054328D01*
X692333342Y-376998882D01*
X692424264Y-376924264D01*
X692498882Y-376833342D01*
X692554328Y-376729610D01*
X692588471Y-376617054D01*
X692600000Y-376500000D01*
X692600000Y-373500000D01*
X692588471Y-373382946D01*
X692554328Y-373270390D01*
X692498882Y-373166658D01*
X692424264Y-373075736D01*
X692333342Y-373001118D01*
X692229610Y-372945672D01*
X692117054Y-372911529D01*
X692000000Y-372900000D01*
X691315749Y-372900000D01*
X691320660Y-372883810D01*
X691326452Y-372825000D01*
X691325000Y-372450000D01*
X691250000Y-372375000D01*
X688825000Y-372375000D01*
X688825000Y-372395000D01*
X688625000Y-372395000D01*
X688625000Y-372375000D01*
X686200000Y-372375000D01*
X686125000Y-372450000D01*
X686123548Y-372825000D01*
X686129340Y-372883810D01*
X686134251Y-372900000D01*
X684600000Y-372900000D01*
X684600000Y-371725000D01*
X686123548Y-371725000D01*
X686125000Y-372100000D01*
X686200000Y-372175000D01*
X688625000Y-372175000D01*
X688625000Y-371500000D01*
X688825000Y-371500000D01*
X688825000Y-372175000D01*
X691250000Y-372175000D01*
X691325000Y-372100000D01*
X691326452Y-371725000D01*
X691320660Y-371666190D01*
X691303505Y-371609639D01*
X691275648Y-371557522D01*
X691238159Y-371511841D01*
X691192478Y-371474352D01*
X691140361Y-371446495D01*
X691083810Y-371429340D01*
X691025000Y-371423548D01*
X688900000Y-371425000D01*
X688825000Y-371500000D01*
X688625000Y-371500000D01*
X688550000Y-371425000D01*
X686425000Y-371423548D01*
X686366190Y-371429340D01*
X686309639Y-371446495D01*
X686257522Y-371474352D01*
X686211841Y-371511841D01*
X686174352Y-371557522D01*
X686146495Y-371609639D01*
X686129340Y-371666190D01*
X686123548Y-371725000D01*
X684600000Y-371725000D01*
X684600000Y-369185000D01*
X686123549Y-369185000D01*
X686123549Y-370285000D01*
X686129341Y-370343810D01*
X686146496Y-370400360D01*
X686174353Y-370452477D01*
X686211842Y-370498158D01*
X686257523Y-370535647D01*
X686309640Y-370563504D01*
X686366190Y-370580659D01*
X686425000Y-370586451D01*
X691025000Y-370586451D01*
X691083810Y-370580659D01*
X691140360Y-370563504D01*
X691192477Y-370535647D01*
X691238158Y-370498158D01*
X691275647Y-370452477D01*
X691303504Y-370400360D01*
X691320659Y-370343810D01*
X691326451Y-370285000D01*
X691326451Y-369185000D01*
X691320659Y-369126190D01*
X691303504Y-369069640D01*
X691275647Y-369017523D01*
X691238158Y-368971842D01*
X691192477Y-368934353D01*
X691140360Y-368906496D01*
X691083810Y-368889341D01*
X691025000Y-368883549D01*
X686425000Y-368883549D01*
X686366190Y-368889341D01*
X686309640Y-368906496D01*
X686257523Y-368934353D01*
X686211842Y-368971842D01*
X686174353Y-369017523D01*
X686146496Y-369069640D01*
X686129341Y-369126190D01*
X686123549Y-369185000D01*
X684600000Y-369185000D01*
X684600000Y-369000000D01*
X684588471Y-368882946D01*
X684554328Y-368770390D01*
X684498882Y-368666658D01*
X684424264Y-368575736D01*
X684333342Y-368501118D01*
X684229610Y-368445672D01*
X684117054Y-368411529D01*
X684000000Y-368400000D01*
X678000000Y-368400000D01*
X677882946Y-368411529D01*
X677770390Y-368445672D01*
X677666658Y-368501118D01*
X677575736Y-368575736D01*
X677501118Y-368666658D01*
X677445672Y-368770390D01*
X677411529Y-368882946D01*
X677400000Y-369000000D01*
X667825000Y-369000000D01*
X667825000Y-366875000D01*
X692873548Y-366875000D01*
X692875000Y-372100000D01*
X692950000Y-372175000D01*
X697775000Y-372175000D01*
X697775000Y-366650000D01*
X697975000Y-366650000D01*
X697975000Y-372175000D01*
X702800000Y-372175000D01*
X702875000Y-372100000D01*
X702875553Y-370110000D01*
X707848549Y-370110000D01*
X707848549Y-371810000D01*
X707854341Y-371868810D01*
X707871496Y-371925360D01*
X707899353Y-371977477D01*
X707936842Y-372023158D01*
X707982523Y-372060647D01*
X708034640Y-372088504D01*
X708091190Y-372105659D01*
X708150000Y-372111451D01*
X709850000Y-372111451D01*
X709908810Y-372105659D01*
X709965360Y-372088504D01*
X710017477Y-372060647D01*
X710063158Y-372023158D01*
X710100647Y-371977477D01*
X710128504Y-371925360D01*
X710145659Y-371868810D01*
X710151451Y-371810000D01*
X710151451Y-370110000D01*
X710145659Y-370051190D01*
X710128504Y-369994640D01*
X710100647Y-369942523D01*
X710063158Y-369896842D01*
X710017477Y-369859353D01*
X709965360Y-369831496D01*
X709908810Y-369814341D01*
X709850000Y-369808549D01*
X708150000Y-369808549D01*
X708091190Y-369814341D01*
X708034640Y-369831496D01*
X707982523Y-369859353D01*
X707936842Y-369896842D01*
X707899353Y-369942523D01*
X707871496Y-369994640D01*
X707854341Y-370051190D01*
X707848549Y-370110000D01*
X702875553Y-370110000D01*
X702876452Y-366875000D01*
X702870660Y-366816190D01*
X702853505Y-366759639D01*
X702825648Y-366707522D01*
X702788159Y-366661841D01*
X702742478Y-366624352D01*
X702690361Y-366596495D01*
X702633810Y-366579340D01*
X702575000Y-366573548D01*
X698050000Y-366575000D01*
X697975000Y-366650000D01*
X697775000Y-366650000D01*
X697700000Y-366575000D01*
X693175000Y-366573548D01*
X693116190Y-366579340D01*
X693059639Y-366596495D01*
X693007522Y-366624352D01*
X692961841Y-366661841D01*
X692924352Y-366707522D01*
X692896495Y-366759639D01*
X692879340Y-366816190D01*
X692873548Y-366875000D01*
X667825000Y-366875000D01*
X667825000Y-365325000D01*
X723175001Y-365325000D01*
X723175001Y-380900000D01*
G37*
X723175001Y-380900000D02*
X720287005Y-380900000D01*
X720475826Y-380711179D01*
X720683758Y-380399987D01*
X720826984Y-380054209D01*
X720900000Y-379687134D01*
X720900000Y-379312866D01*
X720826984Y-378945791D01*
X720683758Y-378600013D01*
X720475826Y-378288821D01*
X720211179Y-378024174D01*
X719899987Y-377816242D01*
X719554209Y-377673016D01*
X719187134Y-377600000D01*
X718812866Y-377600000D01*
X718445791Y-377673016D01*
X718100013Y-377816242D01*
X717788821Y-378024174D01*
X717524174Y-378288821D01*
X717316242Y-378600013D01*
X717173016Y-378945791D01*
X717100000Y-379312866D01*
X717100000Y-379687134D01*
X717173016Y-380054209D01*
X717316242Y-380399987D01*
X717524174Y-380711179D01*
X717712995Y-380900000D01*
X677000000Y-380900000D01*
X676980491Y-380901921D01*
X676961732Y-380907612D01*
X676944443Y-380916853D01*
X676929289Y-380929289D01*
X676916853Y-380944443D01*
X676907612Y-380961732D01*
X676901921Y-380980491D01*
X676900000Y-381000000D01*
X676900000Y-385900000D01*
X667825000Y-385900000D01*
X667825000Y-383065819D01*
X674985602Y-383065819D01*
X675073874Y-383219335D01*
X675269958Y-383311540D01*
X675480263Y-383363719D01*
X675696706Y-383373867D01*
X675910970Y-383341593D01*
X676114821Y-383268139D01*
X676206126Y-383219335D01*
X676294398Y-383065819D01*
X675640000Y-382411421D01*
X674985602Y-383065819D01*
X667825000Y-383065819D01*
X667825000Y-382326706D01*
X674536133Y-382326706D01*
X674568407Y-382540970D01*
X674641861Y-382744821D01*
X674690665Y-382836126D01*
X674844181Y-382924398D01*
X675498579Y-382270000D01*
X675781421Y-382270000D01*
X676435819Y-382924398D01*
X676589335Y-382836126D01*
X676681540Y-382640042D01*
X676733719Y-382429737D01*
X676743867Y-382213294D01*
X676711593Y-381999030D01*
X676638139Y-381795179D01*
X676589335Y-381703874D01*
X676435819Y-381615602D01*
X675781421Y-382270000D01*
X675498579Y-382270000D01*
X674844181Y-381615602D01*
X674690665Y-381703874D01*
X674598460Y-381899958D01*
X674546281Y-382110263D01*
X674536133Y-382326706D01*
X667825000Y-382326706D01*
X667825000Y-381474181D01*
X674985602Y-381474181D01*
X675640000Y-382128579D01*
X676294398Y-381474181D01*
X676206126Y-381320665D01*
X676010042Y-381228460D01*
X675799737Y-381176281D01*
X675583294Y-381166133D01*
X675369030Y-381198407D01*
X675165179Y-381271861D01*
X675073874Y-381320665D01*
X674985602Y-381474181D01*
X667825000Y-381474181D01*
X667825000Y-379312866D01*
X669100000Y-379312866D01*
X669100000Y-379687134D01*
X669173016Y-380054209D01*
X669316242Y-380399987D01*
X669524174Y-380711179D01*
X669788821Y-380975826D01*
X670100013Y-381183758D01*
X670445791Y-381326984D01*
X670812866Y-381400000D01*
X671187134Y-381400000D01*
X671554209Y-381326984D01*
X671899987Y-381183758D01*
X672211179Y-380975826D01*
X672475826Y-380711179D01*
X672683758Y-380399987D01*
X672826984Y-380054209D01*
X672900000Y-379687134D01*
X672900000Y-379312866D01*
X672826984Y-378945791D01*
X672683758Y-378600013D01*
X672475826Y-378288821D01*
X672211179Y-378024174D01*
X671899987Y-377816242D01*
X671558999Y-377675000D01*
X692873548Y-377675000D01*
X692879340Y-377733810D01*
X692896495Y-377790361D01*
X692924352Y-377842478D01*
X692961841Y-377888159D01*
X693007522Y-377925648D01*
X693059639Y-377953505D01*
X693116190Y-377970660D01*
X693175000Y-377976452D01*
X697700000Y-377975000D01*
X697775000Y-377900000D01*
X697775000Y-372375000D01*
X697975000Y-372375000D01*
X697975000Y-377900000D01*
X698050000Y-377975000D01*
X702575000Y-377976452D01*
X702633810Y-377970660D01*
X702690361Y-377953505D01*
X702742478Y-377925648D01*
X702788159Y-377888159D01*
X702825648Y-377842478D01*
X702853505Y-377790361D01*
X702870660Y-377733810D01*
X702876452Y-377675000D01*
X702875370Y-373777987D01*
X707884104Y-373777987D01*
X707917721Y-373888823D01*
X708014372Y-374092494D01*
X708148900Y-374273396D01*
X708316136Y-374424577D01*
X708509652Y-374540227D01*
X708722012Y-374615901D01*
X708900000Y-374570649D01*
X708900000Y-373600000D01*
X709100000Y-373600000D01*
X709100000Y-374570649D01*
X709277988Y-374615901D01*
X709490348Y-374540227D01*
X709683864Y-374424577D01*
X709851100Y-374273396D01*
X709985628Y-374092494D01*
X710082279Y-373888823D01*
X710115896Y-373777987D01*
X710070339Y-373600000D01*
X709100000Y-373600000D01*
X708900000Y-373600000D01*
X707929661Y-373600000D01*
X707884104Y-373777987D01*
X702875370Y-373777987D01*
X702875216Y-373222013D01*
X707884104Y-373222013D01*
X707929661Y-373400000D01*
X708900000Y-373400000D01*
X708900000Y-372429351D01*
X709100000Y-372429351D01*
X709100000Y-373400000D01*
X710070339Y-373400000D01*
X710115896Y-373222013D01*
X710082279Y-373111177D01*
X709985628Y-372907506D01*
X709851100Y-372726604D01*
X709683864Y-372575423D01*
X709490348Y-372459773D01*
X709277988Y-372384099D01*
X709100000Y-372429351D01*
X708900000Y-372429351D01*
X708722012Y-372384099D01*
X708509652Y-372459773D01*
X708316136Y-372575423D01*
X708148900Y-372726604D01*
X708014372Y-372907506D01*
X707917721Y-373111177D01*
X707884104Y-373222013D01*
X702875216Y-373222013D01*
X702875000Y-372450000D01*
X702800000Y-372375000D01*
X697975000Y-372375000D01*
X697775000Y-372375000D01*
X692950000Y-372375000D01*
X692875000Y-372450000D01*
X692873548Y-377675000D01*
X671558999Y-377675000D01*
X671554209Y-377673016D01*
X671187134Y-377600000D01*
X670812866Y-377600000D01*
X670445791Y-377673016D01*
X670100013Y-377816242D01*
X669788821Y-378024174D01*
X669524174Y-378288821D01*
X669316242Y-378600013D01*
X669173016Y-378945791D01*
X669100000Y-379312866D01*
X667825000Y-379312866D01*
X667825000Y-369000000D01*
X677400000Y-369000000D01*
X677400000Y-376500000D01*
X677411529Y-376617054D01*
X677445672Y-376729610D01*
X677501118Y-376833342D01*
X677575736Y-376924264D01*
X677666658Y-376998882D01*
X677770390Y-377054328D01*
X677882946Y-377088471D01*
X678000000Y-377100000D01*
X692000000Y-377100000D01*
X692117054Y-377088471D01*
X692229610Y-377054328D01*
X692333342Y-376998882D01*
X692424264Y-376924264D01*
X692498882Y-376833342D01*
X692554328Y-376729610D01*
X692588471Y-376617054D01*
X692600000Y-376500000D01*
X692600000Y-373500000D01*
X692588471Y-373382946D01*
X692554328Y-373270390D01*
X692498882Y-373166658D01*
X692424264Y-373075736D01*
X692333342Y-373001118D01*
X692229610Y-372945672D01*
X692117054Y-372911529D01*
X692000000Y-372900000D01*
X691315749Y-372900000D01*
X691320660Y-372883810D01*
X691326452Y-372825000D01*
X691325000Y-372450000D01*
X691250000Y-372375000D01*
X688825000Y-372375000D01*
X688825000Y-372395000D01*
X688625000Y-372395000D01*
X688625000Y-372375000D01*
X686200000Y-372375000D01*
X686125000Y-372450000D01*
X686123548Y-372825000D01*
X686129340Y-372883810D01*
X686134251Y-372900000D01*
X684600000Y-372900000D01*
X684600000Y-371725000D01*
X686123548Y-371725000D01*
X686125000Y-372100000D01*
X686200000Y-372175000D01*
X688625000Y-372175000D01*
X688625000Y-371500000D01*
X688825000Y-371500000D01*
X688825000Y-372175000D01*
X691250000Y-372175000D01*
X691325000Y-372100000D01*
X691326452Y-371725000D01*
X691320660Y-371666190D01*
X691303505Y-371609639D01*
X691275648Y-371557522D01*
X691238159Y-371511841D01*
X691192478Y-371474352D01*
X691140361Y-371446495D01*
X691083810Y-371429340D01*
X691025000Y-371423548D01*
X688900000Y-371425000D01*
X688825000Y-371500000D01*
X688625000Y-371500000D01*
X688550000Y-371425000D01*
X686425000Y-371423548D01*
X686366190Y-371429340D01*
X686309639Y-371446495D01*
X686257522Y-371474352D01*
X686211841Y-371511841D01*
X686174352Y-371557522D01*
X686146495Y-371609639D01*
X686129340Y-371666190D01*
X686123548Y-371725000D01*
X684600000Y-371725000D01*
X684600000Y-369185000D01*
X686123549Y-369185000D01*
X686123549Y-370285000D01*
X686129341Y-370343810D01*
X686146496Y-370400360D01*
X686174353Y-370452477D01*
X686211842Y-370498158D01*
X686257523Y-370535647D01*
X686309640Y-370563504D01*
X686366190Y-370580659D01*
X686425000Y-370586451D01*
X691025000Y-370586451D01*
X691083810Y-370580659D01*
X691140360Y-370563504D01*
X691192477Y-370535647D01*
X691238158Y-370498158D01*
X691275647Y-370452477D01*
X691303504Y-370400360D01*
X691320659Y-370343810D01*
X691326451Y-370285000D01*
X691326451Y-369185000D01*
X691320659Y-369126190D01*
X691303504Y-369069640D01*
X691275647Y-369017523D01*
X691238158Y-368971842D01*
X691192477Y-368934353D01*
X691140360Y-368906496D01*
X691083810Y-368889341D01*
X691025000Y-368883549D01*
X686425000Y-368883549D01*
X686366190Y-368889341D01*
X686309640Y-368906496D01*
X686257523Y-368934353D01*
X686211842Y-368971842D01*
X686174353Y-369017523D01*
X686146496Y-369069640D01*
X686129341Y-369126190D01*
X686123549Y-369185000D01*
X684600000Y-369185000D01*
X684600000Y-369000000D01*
X684588471Y-368882946D01*
X684554328Y-368770390D01*
X684498882Y-368666658D01*
X684424264Y-368575736D01*
X684333342Y-368501118D01*
X684229610Y-368445672D01*
X684117054Y-368411529D01*
X684000000Y-368400000D01*
X678000000Y-368400000D01*
X677882946Y-368411529D01*
X677770390Y-368445672D01*
X677666658Y-368501118D01*
X677575736Y-368575736D01*
X677501118Y-368666658D01*
X677445672Y-368770390D01*
X677411529Y-368882946D01*
X677400000Y-369000000D01*
X667825000Y-369000000D01*
X667825000Y-366875000D01*
X692873548Y-366875000D01*
X692875000Y-372100000D01*
X692950000Y-372175000D01*
X697775000Y-372175000D01*
X697775000Y-366650000D01*
X697975000Y-366650000D01*
X697975000Y-372175000D01*
X702800000Y-372175000D01*
X702875000Y-372100000D01*
X702875553Y-370110000D01*
X707848549Y-370110000D01*
X707848549Y-371810000D01*
X707854341Y-371868810D01*
X707871496Y-371925360D01*
X707899353Y-371977477D01*
X707936842Y-372023158D01*
X707982523Y-372060647D01*
X708034640Y-372088504D01*
X708091190Y-372105659D01*
X708150000Y-372111451D01*
X709850000Y-372111451D01*
X709908810Y-372105659D01*
X709965360Y-372088504D01*
X710017477Y-372060647D01*
X710063158Y-372023158D01*
X710100647Y-371977477D01*
X710128504Y-371925360D01*
X710145659Y-371868810D01*
X710151451Y-371810000D01*
X710151451Y-370110000D01*
X710145659Y-370051190D01*
X710128504Y-369994640D01*
X710100647Y-369942523D01*
X710063158Y-369896842D01*
X710017477Y-369859353D01*
X709965360Y-369831496D01*
X709908810Y-369814341D01*
X709850000Y-369808549D01*
X708150000Y-369808549D01*
X708091190Y-369814341D01*
X708034640Y-369831496D01*
X707982523Y-369859353D01*
X707936842Y-369896842D01*
X707899353Y-369942523D01*
X707871496Y-369994640D01*
X707854341Y-370051190D01*
X707848549Y-370110000D01*
X702875553Y-370110000D01*
X702876452Y-366875000D01*
X702870660Y-366816190D01*
X702853505Y-366759639D01*
X702825648Y-366707522D01*
X702788159Y-366661841D01*
X702742478Y-366624352D01*
X702690361Y-366596495D01*
X702633810Y-366579340D01*
X702575000Y-366573548D01*
X698050000Y-366575000D01*
X697975000Y-366650000D01*
X697775000Y-366650000D01*
X697700000Y-366575000D01*
X693175000Y-366573548D01*
X693116190Y-366579340D01*
X693059639Y-366596495D01*
X693007522Y-366624352D01*
X692961841Y-366661841D01*
X692924352Y-366707522D01*
X692896495Y-366759639D01*
X692879340Y-366816190D01*
X692873548Y-366875000D01*
X667825000Y-366875000D01*
X667825000Y-365325000D01*
X723175001Y-365325000D01*
X723175001Y-380900000D01*
G36*
X677613874Y-381320665D02*
G01*
X677525602Y-381474181D01*
X678180000Y-382128579D01*
X678834398Y-381474181D01*
X678746126Y-381320665D01*
X678702180Y-381300000D01*
X680191761Y-381300000D01*
X680018791Y-381415575D01*
X679865575Y-381568791D01*
X679745193Y-381748955D01*
X679662273Y-381949142D01*
X679620000Y-382161659D01*
X679620000Y-382378341D01*
X679662273Y-382590858D01*
X679745193Y-382791045D01*
X679865575Y-382971209D01*
X680018791Y-383124425D01*
X680198955Y-383244807D01*
X680399142Y-383327727D01*
X680611659Y-383370000D01*
X680828341Y-383370000D01*
X681040858Y-383327727D01*
X681241045Y-383244807D01*
X681421209Y-383124425D01*
X681574425Y-382971209D01*
X681694807Y-382791045D01*
X681777727Y-382590858D01*
X681820000Y-382378341D01*
X681820000Y-382161659D01*
X681777727Y-381949142D01*
X681694807Y-381748955D01*
X681574425Y-381568791D01*
X681421209Y-381415575D01*
X681248239Y-381300000D01*
X682731761Y-381300000D01*
X682558791Y-381415575D01*
X682405575Y-381568791D01*
X682285193Y-381748955D01*
X682202273Y-381949142D01*
X682160000Y-382161659D01*
X682160000Y-382378341D01*
X682202273Y-382590858D01*
X682285193Y-382791045D01*
X682405575Y-382971209D01*
X682558791Y-383124425D01*
X682738955Y-383244807D01*
X682939142Y-383327727D01*
X683151659Y-383370000D01*
X683368341Y-383370000D01*
X683580858Y-383327727D01*
X683781045Y-383244807D01*
X683961209Y-383124425D01*
X684114425Y-382971209D01*
X684234807Y-382791045D01*
X684317727Y-382590858D01*
X684360000Y-382378341D01*
X684360000Y-382161659D01*
X684317727Y-381949142D01*
X684234807Y-381748955D01*
X684114425Y-381568791D01*
X683961209Y-381415575D01*
X683788239Y-381300000D01*
X685271761Y-381300000D01*
X685098791Y-381415575D01*
X684945575Y-381568791D01*
X684825193Y-381748955D01*
X684742273Y-381949142D01*
X684700000Y-382161659D01*
X684700000Y-382378341D01*
X684742273Y-382590858D01*
X684825193Y-382791045D01*
X684945575Y-382971209D01*
X685098791Y-383124425D01*
X685278955Y-383244807D01*
X685479142Y-383327727D01*
X685691659Y-383370000D01*
X685908341Y-383370000D01*
X686120858Y-383327727D01*
X686321045Y-383244807D01*
X686501209Y-383124425D01*
X686654425Y-382971209D01*
X686774807Y-382791045D01*
X686857727Y-382590858D01*
X686900000Y-382378341D01*
X686900000Y-382161659D01*
X686857727Y-381949142D01*
X686774807Y-381748955D01*
X686654425Y-381568791D01*
X686501209Y-381415575D01*
X686328239Y-381300000D01*
X687811761Y-381300000D01*
X687638791Y-381415575D01*
X687485575Y-381568791D01*
X687365193Y-381748955D01*
X687282273Y-381949142D01*
X687240000Y-382161659D01*
X687240000Y-382378341D01*
X687282273Y-382590858D01*
X687365193Y-382791045D01*
X687485575Y-382971209D01*
X687638791Y-383124425D01*
X687818955Y-383244807D01*
X688019142Y-383327727D01*
X688231659Y-383370000D01*
X688448341Y-383370000D01*
X688660858Y-383327727D01*
X688861045Y-383244807D01*
X689041209Y-383124425D01*
X689194425Y-382971209D01*
X689314807Y-382791045D01*
X689397727Y-382590858D01*
X689440000Y-382378341D01*
X689440000Y-382161659D01*
X689397727Y-381949142D01*
X689314807Y-381748955D01*
X689194425Y-381568791D01*
X689041209Y-381415575D01*
X688868239Y-381300000D01*
X690351761Y-381300000D01*
X690178791Y-381415575D01*
X690025575Y-381568791D01*
X689905193Y-381748955D01*
X689822273Y-381949142D01*
X689780000Y-382161659D01*
X689780000Y-382378341D01*
X689822273Y-382590858D01*
X689905193Y-382791045D01*
X690025575Y-382971209D01*
X690178791Y-383124425D01*
X690358955Y-383244807D01*
X690559142Y-383327727D01*
X690771659Y-383370000D01*
X690988341Y-383370000D01*
X691200858Y-383327727D01*
X691401045Y-383244807D01*
X691581209Y-383124425D01*
X691734425Y-382971209D01*
X691854807Y-382791045D01*
X691937727Y-382590858D01*
X691980000Y-382378341D01*
X691980000Y-382161659D01*
X691937727Y-381949142D01*
X691854807Y-381748955D01*
X691734425Y-381568791D01*
X691581209Y-381415575D01*
X691408239Y-381300000D01*
X692891761Y-381300000D01*
X692718791Y-381415575D01*
X692565575Y-381568791D01*
X692445193Y-381748955D01*
X692362273Y-381949142D01*
X692320000Y-382161659D01*
X692320000Y-382378341D01*
X692362273Y-382590858D01*
X692445193Y-382791045D01*
X692565575Y-382971209D01*
X692718791Y-383124425D01*
X692898955Y-383244807D01*
X693099142Y-383327727D01*
X693311659Y-383370000D01*
X693528341Y-383370000D01*
X693740858Y-383327727D01*
X693941045Y-383244807D01*
X694121209Y-383124425D01*
X694274425Y-382971209D01*
X694394807Y-382791045D01*
X694477727Y-382590858D01*
X694520000Y-382378341D01*
X694520000Y-382161659D01*
X694477727Y-381949142D01*
X694394807Y-381748955D01*
X694274425Y-381568791D01*
X694121209Y-381415575D01*
X693948239Y-381300000D01*
X695431761Y-381300000D01*
X695258791Y-381415575D01*
X695105575Y-381568791D01*
X694985193Y-381748955D01*
X694902273Y-381949142D01*
X694860000Y-382161659D01*
X694860000Y-382378341D01*
X694902273Y-382590858D01*
X694985193Y-382791045D01*
X695105575Y-382971209D01*
X695258791Y-383124425D01*
X695438955Y-383244807D01*
X695639142Y-383327727D01*
X695851659Y-383370000D01*
X696068341Y-383370000D01*
X696280858Y-383327727D01*
X696481045Y-383244807D01*
X696661209Y-383124425D01*
X696814425Y-382971209D01*
X696934807Y-382791045D01*
X697017727Y-382590858D01*
X697060000Y-382378341D01*
X697060000Y-382161659D01*
X697017727Y-381949142D01*
X696934807Y-381748955D01*
X696814425Y-381568791D01*
X696661209Y-381415575D01*
X696488239Y-381300000D01*
X697971761Y-381300000D01*
X697798791Y-381415575D01*
X697645575Y-381568791D01*
X697525193Y-381748955D01*
X697442273Y-381949142D01*
X697400000Y-382161659D01*
X697400000Y-382378341D01*
X697442273Y-382590858D01*
X697525193Y-382791045D01*
X697645575Y-382971209D01*
X697798791Y-383124425D01*
X697978955Y-383244807D01*
X698179142Y-383327727D01*
X698391659Y-383370000D01*
X698608341Y-383370000D01*
X698820858Y-383327727D01*
X699021045Y-383244807D01*
X699201209Y-383124425D01*
X699354425Y-382971209D01*
X699474807Y-382791045D01*
X699557727Y-382590858D01*
X699600000Y-382378341D01*
X699600000Y-382161659D01*
X699557727Y-381949142D01*
X699474807Y-381748955D01*
X699354425Y-381568791D01*
X699201209Y-381415575D01*
X699028239Y-381300000D01*
X700511761Y-381300000D01*
X700338791Y-381415575D01*
X700185575Y-381568791D01*
X700065193Y-381748955D01*
X699982273Y-381949142D01*
X699940000Y-382161659D01*
X699940000Y-382378341D01*
X699982273Y-382590858D01*
X700065193Y-382791045D01*
X700185575Y-382971209D01*
X700338791Y-383124425D01*
X700518955Y-383244807D01*
X700719142Y-383327727D01*
X700931659Y-383370000D01*
X701148341Y-383370000D01*
X701360858Y-383327727D01*
X701561045Y-383244807D01*
X701741209Y-383124425D01*
X701894425Y-382971209D01*
X702014807Y-382791045D01*
X702097727Y-382590858D01*
X702140000Y-382378341D01*
X702140000Y-382161659D01*
X702097727Y-381949142D01*
X702014807Y-381748955D01*
X701894425Y-381568791D01*
X701741209Y-381415575D01*
X701568239Y-381300000D01*
X703051761Y-381300000D01*
X702878791Y-381415575D01*
X702725575Y-381568791D01*
X702605193Y-381748955D01*
X702522273Y-381949142D01*
X702480000Y-382161659D01*
X702480000Y-382378341D01*
X702522273Y-382590858D01*
X702605193Y-382791045D01*
X702725575Y-382971209D01*
X702878791Y-383124425D01*
X703058955Y-383244807D01*
X703259142Y-383327727D01*
X703471659Y-383370000D01*
X703688341Y-383370000D01*
X703900858Y-383327727D01*
X704101045Y-383244807D01*
X704281209Y-383124425D01*
X704434425Y-382971209D01*
X704554807Y-382791045D01*
X704637727Y-382590858D01*
X704680000Y-382378341D01*
X704680000Y-382161659D01*
X704637727Y-381949142D01*
X704554807Y-381748955D01*
X704434425Y-381568791D01*
X704281209Y-381415575D01*
X704108239Y-381300000D01*
X705591761Y-381300000D01*
X705418791Y-381415575D01*
X705265575Y-381568791D01*
X705145193Y-381748955D01*
X705062273Y-381949142D01*
X705020000Y-382161659D01*
X705020000Y-382378341D01*
X705062273Y-382590858D01*
X705145193Y-382791045D01*
X705265575Y-382971209D01*
X705418791Y-383124425D01*
X705598955Y-383244807D01*
X705799142Y-383327727D01*
X706011659Y-383370000D01*
X706228341Y-383370000D01*
X706440858Y-383327727D01*
X706641045Y-383244807D01*
X706821209Y-383124425D01*
X706974425Y-382971209D01*
X707094807Y-382791045D01*
X707177727Y-382590858D01*
X707220000Y-382378341D01*
X707220000Y-382161659D01*
X707177727Y-381949142D01*
X707094807Y-381748955D01*
X706974425Y-381568791D01*
X706821209Y-381415575D01*
X706648239Y-381300000D01*
X708131761Y-381300000D01*
X707958791Y-381415575D01*
X707805575Y-381568791D01*
X707685193Y-381748955D01*
X707602273Y-381949142D01*
X707560000Y-382161659D01*
X707560000Y-382378341D01*
X707602273Y-382590858D01*
X707685193Y-382791045D01*
X707805575Y-382971209D01*
X707958791Y-383124425D01*
X708138955Y-383244807D01*
X708339142Y-383327727D01*
X708551659Y-383370000D01*
X708768341Y-383370000D01*
X708980858Y-383327727D01*
X709181045Y-383244807D01*
X709361209Y-383124425D01*
X709514425Y-382971209D01*
X709634807Y-382791045D01*
X709717727Y-382590858D01*
X709760000Y-382378341D01*
X709760000Y-382161659D01*
X709717727Y-381949142D01*
X709634807Y-381748955D01*
X709514425Y-381568791D01*
X709361209Y-381415575D01*
X709188239Y-381300000D01*
X718380646Y-381300000D01*
X718445791Y-381326984D01*
X718812866Y-381400000D01*
X719187134Y-381400000D01*
X719554209Y-381326984D01*
X719619354Y-381300000D01*
X723175001Y-381300000D01*
X723175000Y-398675000D01*
X667825000Y-398675000D01*
X667825000Y-398310000D01*
X674538548Y-398310000D01*
X674544340Y-398368810D01*
X674561495Y-398425361D01*
X674589352Y-398477478D01*
X674626841Y-398523159D01*
X674672522Y-398560648D01*
X674724639Y-398588505D01*
X674781190Y-398605660D01*
X674840000Y-398611452D01*
X675465000Y-398610000D01*
X675540000Y-398535000D01*
X675540000Y-397610000D01*
X675740000Y-397610000D01*
X675740000Y-398535000D01*
X675815000Y-398610000D01*
X676440000Y-398611452D01*
X676498810Y-398605660D01*
X676555361Y-398588505D01*
X676607478Y-398560648D01*
X676653159Y-398523159D01*
X676690648Y-398477478D01*
X676718505Y-398425361D01*
X676735660Y-398368810D01*
X676741452Y-398310000D01*
X676740000Y-397685000D01*
X676665000Y-397610000D01*
X675740000Y-397610000D01*
X675540000Y-397610000D01*
X674615000Y-397610000D01*
X674540000Y-397685000D01*
X674538548Y-398310000D01*
X667825000Y-398310000D01*
X667825000Y-396710000D01*
X674538548Y-396710000D01*
X674540000Y-397335000D01*
X674615000Y-397410000D01*
X675540000Y-397410000D01*
X675540000Y-396485000D01*
X675740000Y-396485000D01*
X675740000Y-397410000D01*
X676665000Y-397410000D01*
X676673341Y-397401659D01*
X677080000Y-397401659D01*
X677080000Y-397618341D01*
X677122273Y-397830858D01*
X677205193Y-398031045D01*
X677325575Y-398211209D01*
X677478791Y-398364425D01*
X677658955Y-398484807D01*
X677859142Y-398567727D01*
X678071659Y-398610000D01*
X678288341Y-398610000D01*
X678500858Y-398567727D01*
X678701045Y-398484807D01*
X678881209Y-398364425D01*
X679034425Y-398211209D01*
X679154807Y-398031045D01*
X679237727Y-397830858D01*
X679280000Y-397618341D01*
X679280000Y-397401659D01*
X679620000Y-397401659D01*
X679620000Y-397618341D01*
X679662273Y-397830858D01*
X679745193Y-398031045D01*
X679865575Y-398211209D01*
X680018791Y-398364425D01*
X680198955Y-398484807D01*
X680399142Y-398567727D01*
X680611659Y-398610000D01*
X680828341Y-398610000D01*
X681040858Y-398567727D01*
X681241045Y-398484807D01*
X681421209Y-398364425D01*
X681574425Y-398211209D01*
X681694807Y-398031045D01*
X681777727Y-397830858D01*
X681820000Y-397618341D01*
X681820000Y-397401659D01*
X682160000Y-397401659D01*
X682160000Y-397618341D01*
X682202273Y-397830858D01*
X682285193Y-398031045D01*
X682405575Y-398211209D01*
X682558791Y-398364425D01*
X682738955Y-398484807D01*
X682939142Y-398567727D01*
X683151659Y-398610000D01*
X683368341Y-398610000D01*
X683580858Y-398567727D01*
X683781045Y-398484807D01*
X683961209Y-398364425D01*
X684114425Y-398211209D01*
X684234807Y-398031045D01*
X684317727Y-397830858D01*
X684360000Y-397618341D01*
X684360000Y-397401659D01*
X684700000Y-397401659D01*
X684700000Y-397618341D01*
X684742273Y-397830858D01*
X684825193Y-398031045D01*
X684945575Y-398211209D01*
X685098791Y-398364425D01*
X685278955Y-398484807D01*
X685479142Y-398567727D01*
X685691659Y-398610000D01*
X685908341Y-398610000D01*
X686120858Y-398567727D01*
X686321045Y-398484807D01*
X686501209Y-398364425D01*
X686654425Y-398211209D01*
X686774807Y-398031045D01*
X686857727Y-397830858D01*
X686900000Y-397618341D01*
X686900000Y-397401659D01*
X687240000Y-397401659D01*
X687240000Y-397618341D01*
X687282273Y-397830858D01*
X687365193Y-398031045D01*
X687485575Y-398211209D01*
X687638791Y-398364425D01*
X687818955Y-398484807D01*
X688019142Y-398567727D01*
X688231659Y-398610000D01*
X688448341Y-398610000D01*
X688660858Y-398567727D01*
X688861045Y-398484807D01*
X689041209Y-398364425D01*
X689194425Y-398211209D01*
X689314807Y-398031045D01*
X689397727Y-397830858D01*
X689440000Y-397618341D01*
X689440000Y-397401659D01*
X689780000Y-397401659D01*
X689780000Y-397618341D01*
X689822273Y-397830858D01*
X689905193Y-398031045D01*
X690025575Y-398211209D01*
X690178791Y-398364425D01*
X690358955Y-398484807D01*
X690559142Y-398567727D01*
X690771659Y-398610000D01*
X690988341Y-398610000D01*
X691200858Y-398567727D01*
X691401045Y-398484807D01*
X691581209Y-398364425D01*
X691734425Y-398211209D01*
X691854807Y-398031045D01*
X691937727Y-397830858D01*
X691980000Y-397618341D01*
X691980000Y-397401659D01*
X692320000Y-397401659D01*
X692320000Y-397618341D01*
X692362273Y-397830858D01*
X692445193Y-398031045D01*
X692565575Y-398211209D01*
X692718791Y-398364425D01*
X692898955Y-398484807D01*
X693099142Y-398567727D01*
X693311659Y-398610000D01*
X693528341Y-398610000D01*
X693740858Y-398567727D01*
X693941045Y-398484807D01*
X694121209Y-398364425D01*
X694274425Y-398211209D01*
X694394807Y-398031045D01*
X694477727Y-397830858D01*
X694520000Y-397618341D01*
X694520000Y-397401659D01*
X694860000Y-397401659D01*
X694860000Y-397618341D01*
X694902273Y-397830858D01*
X694985193Y-398031045D01*
X695105575Y-398211209D01*
X695258791Y-398364425D01*
X695438955Y-398484807D01*
X695639142Y-398567727D01*
X695851659Y-398610000D01*
X696068341Y-398610000D01*
X696280858Y-398567727D01*
X696481045Y-398484807D01*
X696661209Y-398364425D01*
X696814425Y-398211209D01*
X696934807Y-398031045D01*
X697017727Y-397830858D01*
X697060000Y-397618341D01*
X697060000Y-397401659D01*
X697400000Y-397401659D01*
X697400000Y-397618341D01*
X697442273Y-397830858D01*
X697525193Y-398031045D01*
X697645575Y-398211209D01*
X697798791Y-398364425D01*
X697978955Y-398484807D01*
X698179142Y-398567727D01*
X698391659Y-398610000D01*
X698608341Y-398610000D01*
X698820858Y-398567727D01*
X699021045Y-398484807D01*
X699201209Y-398364425D01*
X699354425Y-398211209D01*
X699474807Y-398031045D01*
X699557727Y-397830858D01*
X699600000Y-397618341D01*
X699600000Y-397401659D01*
X699940000Y-397401659D01*
X699940000Y-397618341D01*
X699982273Y-397830858D01*
X700065193Y-398031045D01*
X700185575Y-398211209D01*
X700338791Y-398364425D01*
X700518955Y-398484807D01*
X700719142Y-398567727D01*
X700931659Y-398610000D01*
X701148341Y-398610000D01*
X701360858Y-398567727D01*
X701561045Y-398484807D01*
X701741209Y-398364425D01*
X701894425Y-398211209D01*
X702014807Y-398031045D01*
X702097727Y-397830858D01*
X702140000Y-397618341D01*
X702140000Y-397401659D01*
X702480000Y-397401659D01*
X702480000Y-397618341D01*
X702522273Y-397830858D01*
X702605193Y-398031045D01*
X702725575Y-398211209D01*
X702878791Y-398364425D01*
X703058955Y-398484807D01*
X703259142Y-398567727D01*
X703471659Y-398610000D01*
X703688341Y-398610000D01*
X703900858Y-398567727D01*
X704101045Y-398484807D01*
X704281209Y-398364425D01*
X704434425Y-398211209D01*
X704554807Y-398031045D01*
X704637727Y-397830858D01*
X704680000Y-397618341D01*
X704680000Y-397401659D01*
X704637727Y-397189142D01*
X704554807Y-396988955D01*
X704434425Y-396808791D01*
X704281209Y-396655575D01*
X704101045Y-396535193D01*
X703980000Y-396485055D01*
X703980000Y-394585685D01*
X706965685Y-391600000D01*
X707934366Y-391600000D01*
X707805575Y-391728791D01*
X707685193Y-391908955D01*
X707602273Y-392109142D01*
X707560000Y-392321659D01*
X707560000Y-392538341D01*
X707602273Y-392750858D01*
X707685193Y-392951045D01*
X707805575Y-393131209D01*
X707958791Y-393284425D01*
X708138955Y-393404807D01*
X708339142Y-393487727D01*
X708551659Y-393530000D01*
X708768341Y-393530000D01*
X708980858Y-393487727D01*
X709181045Y-393404807D01*
X709361209Y-393284425D01*
X709514425Y-393131209D01*
X709634807Y-392951045D01*
X709717727Y-392750858D01*
X709760000Y-392538341D01*
X709760000Y-392321659D01*
X709717727Y-392109142D01*
X709634807Y-391908955D01*
X709514425Y-391728791D01*
X709385634Y-391600000D01*
X712970352Y-391600000D01*
X712989998Y-391601935D01*
X713009644Y-391600000D01*
X713009645Y-391600000D01*
X713068412Y-391594212D01*
X713143812Y-391571340D01*
X713213301Y-391534197D01*
X713274209Y-391484211D01*
X713286735Y-391468948D01*
X713465684Y-391290000D01*
X714480823Y-391290000D01*
X714433978Y-391360110D01*
X714384979Y-391478402D01*
X714360000Y-391603981D01*
X714360000Y-391732019D01*
X714384979Y-391857598D01*
X714433978Y-391975890D01*
X714443406Y-391990000D01*
X713418635Y-391990000D01*
X713398999Y-391988066D01*
X713379363Y-391990000D01*
X713379353Y-391990000D01*
X713320586Y-391995788D01*
X713245186Y-392018660D01*
X713175697Y-392055803D01*
X713175695Y-392055804D01*
X713175696Y-392055804D01*
X713130049Y-392093265D01*
X713130047Y-392093267D01*
X713114789Y-392105789D01*
X713102267Y-392121047D01*
X709383315Y-395840000D01*
X709337899Y-395840000D01*
X709361209Y-395824425D01*
X709514425Y-395671209D01*
X709634807Y-395491045D01*
X709717727Y-395290858D01*
X709760000Y-395078341D01*
X709760000Y-394861659D01*
X709717727Y-394649142D01*
X709634807Y-394448955D01*
X709514425Y-394268791D01*
X709361209Y-394115575D01*
X709181045Y-393995193D01*
X708980858Y-393912273D01*
X708768341Y-393870000D01*
X708551659Y-393870000D01*
X708339142Y-393912273D01*
X708138955Y-393995193D01*
X707958791Y-394115575D01*
X707805575Y-394268791D01*
X707685193Y-394448955D01*
X707602273Y-394649142D01*
X707560000Y-394861659D01*
X707560000Y-395078341D01*
X707602273Y-395290858D01*
X707685193Y-395491045D01*
X707805575Y-395671209D01*
X707958791Y-395824425D01*
X707982101Y-395840000D01*
X707409647Y-395840000D01*
X707390000Y-395838065D01*
X707311586Y-395845788D01*
X707236186Y-395868660D01*
X707166697Y-395905803D01*
X707121049Y-395943265D01*
X707121047Y-395943267D01*
X707105789Y-395955789D01*
X707093267Y-395971047D01*
X706651048Y-396413267D01*
X706561903Y-396502412D01*
X706440858Y-396452273D01*
X706228341Y-396410000D01*
X706011659Y-396410000D01*
X705799142Y-396452273D01*
X705598955Y-396535193D01*
X705418791Y-396655575D01*
X705265575Y-396808791D01*
X705145193Y-396988955D01*
X705062273Y-397189142D01*
X705020000Y-397401659D01*
X705020000Y-397618341D01*
X705062273Y-397830858D01*
X705145193Y-398031045D01*
X705265575Y-398211209D01*
X705418791Y-398364425D01*
X705598955Y-398484807D01*
X705799142Y-398567727D01*
X706011659Y-398610000D01*
X706228341Y-398610000D01*
X706440858Y-398567727D01*
X706641045Y-398484807D01*
X706821209Y-398364425D01*
X706974425Y-398211209D01*
X707094807Y-398031045D01*
X707177727Y-397830858D01*
X707220000Y-397618341D01*
X707220000Y-397401659D01*
X707177727Y-397189142D01*
X707127588Y-397068097D01*
X707216733Y-396978952D01*
X707555686Y-396640000D01*
X707982101Y-396640000D01*
X707958791Y-396655575D01*
X707805575Y-396808791D01*
X707685193Y-396988955D01*
X707602273Y-397189142D01*
X707560000Y-397401659D01*
X707560000Y-397618341D01*
X707602273Y-397830858D01*
X707685193Y-398031045D01*
X707805575Y-398211209D01*
X707958791Y-398364425D01*
X708138955Y-398484807D01*
X708339142Y-398567727D01*
X708551659Y-398610000D01*
X708768341Y-398610000D01*
X708980858Y-398567727D01*
X709181045Y-398484807D01*
X709361209Y-398364425D01*
X709514425Y-398211209D01*
X709634807Y-398031045D01*
X709684945Y-397910000D01*
X715498354Y-397910000D01*
X715518000Y-397911935D01*
X715537646Y-397910000D01*
X715537647Y-397910000D01*
X715596414Y-397904212D01*
X715671814Y-397881340D01*
X715741303Y-397844197D01*
X715802211Y-397794211D01*
X715814737Y-397778948D01*
X718453949Y-395139736D01*
X718469211Y-395127211D01*
X718519197Y-395066303D01*
X718556340Y-394996814D01*
X718579212Y-394921414D01*
X718585000Y-394862647D01*
X718585000Y-394862646D01*
X718586935Y-394843000D01*
X718585000Y-394823353D01*
X718585000Y-394190000D01*
X718598549Y-394190000D01*
X718598549Y-394590000D01*
X718604341Y-394648810D01*
X718621496Y-394705360D01*
X718649353Y-394757477D01*
X718686842Y-394803158D01*
X718732523Y-394840647D01*
X718784640Y-394868504D01*
X718841190Y-394885659D01*
X718900000Y-394891451D01*
X719700000Y-394891451D01*
X719758810Y-394885659D01*
X719815360Y-394868504D01*
X719867477Y-394840647D01*
X719913158Y-394803158D01*
X719950647Y-394757477D01*
X719978504Y-394705360D01*
X719995659Y-394648810D01*
X720001451Y-394590000D01*
X720001451Y-394190000D01*
X719995659Y-394131190D01*
X719978504Y-394074640D01*
X719950647Y-394022523D01*
X719913158Y-393976842D01*
X719867477Y-393939353D01*
X719815360Y-393911496D01*
X719758810Y-393894341D01*
X719700000Y-393888549D01*
X718900000Y-393888549D01*
X718841190Y-393894341D01*
X718784640Y-393911496D01*
X718732523Y-393939353D01*
X718686842Y-393976842D01*
X718649353Y-394022523D01*
X718621496Y-394074640D01*
X718604341Y-394131190D01*
X718598549Y-394190000D01*
X718585000Y-394190000D01*
X718585000Y-393865685D01*
X719596954Y-392853732D01*
X719612211Y-392841211D01*
X719662197Y-392780303D01*
X719699340Y-392710814D01*
X719722212Y-392635414D01*
X719728000Y-392576647D01*
X719728000Y-392576637D01*
X719729934Y-392557001D01*
X719728000Y-392537365D01*
X719728000Y-387877647D01*
X719729935Y-387858000D01*
X719722212Y-387779586D01*
X719699340Y-387704186D01*
X719662197Y-387634697D01*
X719644639Y-387613303D01*
X719612211Y-387573789D01*
X719596948Y-387561263D01*
X718656737Y-386621052D01*
X718644211Y-386605789D01*
X718583303Y-386555803D01*
X718513814Y-386518660D01*
X718438414Y-386495788D01*
X718379647Y-386490000D01*
X718379646Y-386490000D01*
X718360000Y-386488065D01*
X718340354Y-386490000D01*
X717475000Y-386490000D01*
X717425000Y-386440000D01*
X717214733Y-386440000D01*
X717200000Y-386438549D01*
X716400000Y-386438549D01*
X716385267Y-386440000D01*
X716175000Y-386440000D01*
X716100000Y-386515000D01*
X716098548Y-386540000D01*
X716104340Y-386598810D01*
X716116836Y-386640002D01*
X716104341Y-386681190D01*
X716098549Y-386740000D01*
X716098549Y-386990000D01*
X713929635Y-386990000D01*
X713909999Y-386988066D01*
X713890363Y-386990000D01*
X713890353Y-386990000D01*
X713831586Y-386995788D01*
X713756186Y-387018660D01*
X713686697Y-387055803D01*
X713666324Y-387072523D01*
X713641049Y-387093265D01*
X713641047Y-387093267D01*
X713625789Y-387105789D01*
X713613267Y-387121047D01*
X713031050Y-387703265D01*
X713015787Y-387715791D01*
X712965801Y-387776700D01*
X712928658Y-387846189D01*
X712913818Y-387895112D01*
X712905786Y-387921589D01*
X712898063Y-388000002D01*
X712899998Y-388019649D01*
X712899999Y-390724313D01*
X712824313Y-390800000D01*
X709248744Y-390800000D01*
X709314398Y-390685819D01*
X708660000Y-390031421D01*
X708005602Y-390685819D01*
X708071256Y-390800000D01*
X706819647Y-390800000D01*
X706800000Y-390798065D01*
X706780353Y-390800000D01*
X706721586Y-390805788D01*
X706646186Y-390828660D01*
X706576697Y-390865803D01*
X706515789Y-390915789D01*
X706503265Y-390931050D01*
X703311052Y-394123263D01*
X703295789Y-394135789D01*
X703245803Y-394196698D01*
X703208660Y-394266187D01*
X703185788Y-394341586D01*
X703185788Y-394341587D01*
X703178065Y-394420000D01*
X703180000Y-394439647D01*
X703180001Y-396358974D01*
X703180000Y-396358984D01*
X703180000Y-396485055D01*
X703058955Y-396535193D01*
X702878791Y-396655575D01*
X702725575Y-396808791D01*
X702605193Y-396988955D01*
X702522273Y-397189142D01*
X702480000Y-397401659D01*
X702140000Y-397401659D01*
X702097727Y-397189142D01*
X702014807Y-396988955D01*
X701894425Y-396808791D01*
X701741209Y-396655575D01*
X701561045Y-396535193D01*
X701360858Y-396452273D01*
X701148341Y-396410000D01*
X700931659Y-396410000D01*
X700719142Y-396452273D01*
X700518955Y-396535193D01*
X700338791Y-396655575D01*
X700185575Y-396808791D01*
X700065193Y-396988955D01*
X699982273Y-397189142D01*
X699940000Y-397401659D01*
X699600000Y-397401659D01*
X699557727Y-397189142D01*
X699474807Y-396988955D01*
X699354425Y-396808791D01*
X699201209Y-396655575D01*
X699021045Y-396535193D01*
X698820858Y-396452273D01*
X698608341Y-396410000D01*
X698391659Y-396410000D01*
X698179142Y-396452273D01*
X697978955Y-396535193D01*
X697798791Y-396655575D01*
X697645575Y-396808791D01*
X697525193Y-396988955D01*
X697442273Y-397189142D01*
X697400000Y-397401659D01*
X697060000Y-397401659D01*
X697017727Y-397189142D01*
X696934807Y-396988955D01*
X696814425Y-396808791D01*
X696661209Y-396655575D01*
X696481045Y-396535193D01*
X696280858Y-396452273D01*
X696068341Y-396410000D01*
X695851659Y-396410000D01*
X695639142Y-396452273D01*
X695438955Y-396535193D01*
X695258791Y-396655575D01*
X695105575Y-396808791D01*
X694985193Y-396988955D01*
X694902273Y-397189142D01*
X694860000Y-397401659D01*
X694520000Y-397401659D01*
X694477727Y-397189142D01*
X694394807Y-396988955D01*
X694274425Y-396808791D01*
X694121209Y-396655575D01*
X693941045Y-396535193D01*
X693740858Y-396452273D01*
X693528341Y-396410000D01*
X693311659Y-396410000D01*
X693099142Y-396452273D01*
X692898955Y-396535193D01*
X692718791Y-396655575D01*
X692565575Y-396808791D01*
X692445193Y-396988955D01*
X692362273Y-397189142D01*
X692320000Y-397401659D01*
X691980000Y-397401659D01*
X691937727Y-397189142D01*
X691854807Y-396988955D01*
X691734425Y-396808791D01*
X691581209Y-396655575D01*
X691401045Y-396535193D01*
X691200858Y-396452273D01*
X690988341Y-396410000D01*
X690771659Y-396410000D01*
X690559142Y-396452273D01*
X690358955Y-396535193D01*
X690178791Y-396655575D01*
X690025575Y-396808791D01*
X689905193Y-396988955D01*
X689822273Y-397189142D01*
X689780000Y-397401659D01*
X689440000Y-397401659D01*
X689397727Y-397189142D01*
X689314807Y-396988955D01*
X689194425Y-396808791D01*
X689041209Y-396655575D01*
X688861045Y-396535193D01*
X688660858Y-396452273D01*
X688448341Y-396410000D01*
X688231659Y-396410000D01*
X688019142Y-396452273D01*
X687818955Y-396535193D01*
X687638791Y-396655575D01*
X687485575Y-396808791D01*
X687365193Y-396988955D01*
X687282273Y-397189142D01*
X687240000Y-397401659D01*
X686900000Y-397401659D01*
X686857727Y-397189142D01*
X686774807Y-396988955D01*
X686654425Y-396808791D01*
X686501209Y-396655575D01*
X686321045Y-396535193D01*
X686120858Y-396452273D01*
X685908341Y-396410000D01*
X685691659Y-396410000D01*
X685479142Y-396452273D01*
X685278955Y-396535193D01*
X685098791Y-396655575D01*
X684945575Y-396808791D01*
X684825193Y-396988955D01*
X684742273Y-397189142D01*
X684700000Y-397401659D01*
X684360000Y-397401659D01*
X684317727Y-397189142D01*
X684234807Y-396988955D01*
X684114425Y-396808791D01*
X683961209Y-396655575D01*
X683781045Y-396535193D01*
X683580858Y-396452273D01*
X683368341Y-396410000D01*
X683151659Y-396410000D01*
X682939142Y-396452273D01*
X682738955Y-396535193D01*
X682558791Y-396655575D01*
X682405575Y-396808791D01*
X682285193Y-396988955D01*
X682202273Y-397189142D01*
X682160000Y-397401659D01*
X681820000Y-397401659D01*
X681777727Y-397189142D01*
X681694807Y-396988955D01*
X681574425Y-396808791D01*
X681421209Y-396655575D01*
X681241045Y-396535193D01*
X681040858Y-396452273D01*
X680828341Y-396410000D01*
X680611659Y-396410000D01*
X680399142Y-396452273D01*
X680198955Y-396535193D01*
X680018791Y-396655575D01*
X679865575Y-396808791D01*
X679745193Y-396988955D01*
X679662273Y-397189142D01*
X679620000Y-397401659D01*
X679280000Y-397401659D01*
X679237727Y-397189142D01*
X679154807Y-396988955D01*
X679034425Y-396808791D01*
X678881209Y-396655575D01*
X678701045Y-396535193D01*
X678500858Y-396452273D01*
X678288341Y-396410000D01*
X678071659Y-396410000D01*
X677859142Y-396452273D01*
X677658955Y-396535193D01*
X677478791Y-396655575D01*
X677325575Y-396808791D01*
X677205193Y-396988955D01*
X677122273Y-397189142D01*
X677080000Y-397401659D01*
X676673341Y-397401659D01*
X676740000Y-397335000D01*
X676741452Y-396710000D01*
X676735660Y-396651190D01*
X676718505Y-396594639D01*
X676690648Y-396542522D01*
X676653159Y-396496841D01*
X676607478Y-396459352D01*
X676555361Y-396431495D01*
X676498810Y-396414340D01*
X676440000Y-396408548D01*
X675815000Y-396410000D01*
X675740000Y-396485000D01*
X675540000Y-396485000D01*
X675465000Y-396410000D01*
X674840000Y-396408548D01*
X674781190Y-396414340D01*
X674724639Y-396431495D01*
X674672522Y-396459352D01*
X674626841Y-396496841D01*
X674589352Y-396542522D01*
X674561495Y-396594639D01*
X674544340Y-396651190D01*
X674538548Y-396710000D01*
X667825000Y-396710000D01*
X667825000Y-389766886D01*
X680740000Y-389766886D01*
X680740000Y-390013114D01*
X680788037Y-390254611D01*
X680882265Y-390482097D01*
X681019062Y-390686828D01*
X681193172Y-390860938D01*
X681397903Y-390997735D01*
X681625389Y-391091963D01*
X681866886Y-391140000D01*
X682113114Y-391140000D01*
X682354611Y-391091963D01*
X682582097Y-390997735D01*
X682786828Y-390860938D01*
X682960938Y-390686828D01*
X683097735Y-390482097D01*
X683191963Y-390254611D01*
X683240000Y-390013114D01*
X683240000Y-389766886D01*
X684550000Y-389766886D01*
X684550000Y-390013114D01*
X684598037Y-390254611D01*
X684692265Y-390482097D01*
X684829062Y-390686828D01*
X685003172Y-390860938D01*
X685207903Y-390997735D01*
X685435389Y-391091963D01*
X685676886Y-391140000D01*
X685923114Y-391140000D01*
X686164611Y-391091963D01*
X686392097Y-390997735D01*
X686596828Y-390860938D01*
X686770938Y-390686828D01*
X686907735Y-390482097D01*
X687001963Y-390254611D01*
X687050000Y-390013114D01*
X687050000Y-389946706D01*
X707556133Y-389946706D01*
X707588407Y-390160970D01*
X707661861Y-390364821D01*
X707710665Y-390456126D01*
X707864181Y-390544398D01*
X708518579Y-389890000D01*
X708801421Y-389890000D01*
X709455819Y-390544398D01*
X709609335Y-390456126D01*
X709701540Y-390260042D01*
X709753719Y-390049737D01*
X709763867Y-389833294D01*
X709731593Y-389619030D01*
X709658139Y-389415179D01*
X709609335Y-389323874D01*
X709455819Y-389235602D01*
X708801421Y-389890000D01*
X708518579Y-389890000D01*
X707864181Y-389235602D01*
X707710665Y-389323874D01*
X707618460Y-389519958D01*
X707566281Y-389730263D01*
X707556133Y-389946706D01*
X687050000Y-389946706D01*
X687050000Y-389766886D01*
X687001963Y-389525389D01*
X686907735Y-389297903D01*
X686771613Y-389094181D01*
X708005602Y-389094181D01*
X708660000Y-389748579D01*
X709314398Y-389094181D01*
X709226126Y-388940665D01*
X709030042Y-388848460D01*
X708819737Y-388796281D01*
X708603294Y-388786133D01*
X708389030Y-388818407D01*
X708185179Y-388891861D01*
X708093874Y-388940665D01*
X708005602Y-389094181D01*
X686771613Y-389094181D01*
X686770938Y-389093172D01*
X686596828Y-388919062D01*
X686392097Y-388782265D01*
X686164611Y-388688037D01*
X685923114Y-388640000D01*
X685676886Y-388640000D01*
X685435389Y-388688037D01*
X685207903Y-388782265D01*
X685003172Y-388919062D01*
X684829062Y-389093172D01*
X684692265Y-389297903D01*
X684598037Y-389525389D01*
X684550000Y-389766886D01*
X683240000Y-389766886D01*
X683191963Y-389525389D01*
X683097735Y-389297903D01*
X682960938Y-389093172D01*
X682786828Y-388919062D01*
X682582097Y-388782265D01*
X682354611Y-388688037D01*
X682113114Y-388640000D01*
X681866886Y-388640000D01*
X681625389Y-388688037D01*
X681397903Y-388782265D01*
X681193172Y-388919062D01*
X681019062Y-389093172D01*
X680882265Y-389297903D01*
X680788037Y-389525389D01*
X680740000Y-389766886D01*
X667825000Y-389766886D01*
X667825000Y-387241659D01*
X707560000Y-387241659D01*
X707560000Y-387458341D01*
X707602273Y-387670858D01*
X707685193Y-387871045D01*
X707805575Y-388051209D01*
X707958791Y-388204425D01*
X708138955Y-388324807D01*
X708339142Y-388407727D01*
X708551659Y-388450000D01*
X708768341Y-388450000D01*
X708980858Y-388407727D01*
X709181045Y-388324807D01*
X709361209Y-388204425D01*
X709514425Y-388051209D01*
X709634807Y-387871045D01*
X709717727Y-387670858D01*
X709760000Y-387458341D01*
X709760000Y-387241659D01*
X709717727Y-387029142D01*
X709634807Y-386828955D01*
X709514425Y-386648791D01*
X709361209Y-386495575D01*
X709181045Y-386375193D01*
X708980858Y-386292273D01*
X708768341Y-386250000D01*
X708551659Y-386250000D01*
X708339142Y-386292273D01*
X708138955Y-386375193D01*
X707958791Y-386495575D01*
X707805575Y-386648791D01*
X707685193Y-386828955D01*
X707602273Y-387029142D01*
X707560000Y-387241659D01*
X667825000Y-387241659D01*
X667825000Y-386300000D01*
X677000000Y-386300000D01*
X677058527Y-386294236D01*
X677114805Y-386277164D01*
X677166671Y-386249441D01*
X677178174Y-386240000D01*
X716098548Y-386240000D01*
X716100000Y-386265000D01*
X716175000Y-386340000D01*
X716700000Y-386340000D01*
X716700000Y-386015000D01*
X716900000Y-386015000D01*
X716900000Y-386340000D01*
X717425000Y-386340000D01*
X717500000Y-386265000D01*
X717501452Y-386240000D01*
X717495660Y-386181190D01*
X717478505Y-386124639D01*
X717450648Y-386072522D01*
X717413159Y-386026841D01*
X717367478Y-385989352D01*
X717315361Y-385961495D01*
X717258810Y-385944340D01*
X717200000Y-385938548D01*
X716975000Y-385940000D01*
X716900000Y-386015000D01*
X716700000Y-386015000D01*
X716625000Y-385940000D01*
X716400000Y-385938548D01*
X716341190Y-385944340D01*
X716284639Y-385961495D01*
X716232522Y-385989352D01*
X716186841Y-386026841D01*
X716149352Y-386072522D01*
X716121495Y-386124639D01*
X716104340Y-386181190D01*
X716098548Y-386240000D01*
X677178174Y-386240000D01*
X677212132Y-386212132D01*
X677249441Y-386166671D01*
X677277164Y-386114805D01*
X677294236Y-386058527D01*
X677300000Y-386000000D01*
X677300000Y-385472933D01*
X677325575Y-385511209D01*
X677478791Y-385664425D01*
X677658955Y-385784807D01*
X677859142Y-385867727D01*
X678071659Y-385910000D01*
X678288341Y-385910000D01*
X678500858Y-385867727D01*
X678701045Y-385784807D01*
X678881209Y-385664425D01*
X679034425Y-385511209D01*
X679154807Y-385331045D01*
X679237727Y-385130858D01*
X679280000Y-384918341D01*
X679280000Y-384701659D01*
X682160000Y-384701659D01*
X682160000Y-384918341D01*
X682202273Y-385130858D01*
X682285193Y-385331045D01*
X682405575Y-385511209D01*
X682558791Y-385664425D01*
X682738955Y-385784807D01*
X682939142Y-385867727D01*
X683151659Y-385910000D01*
X683368341Y-385910000D01*
X683580858Y-385867727D01*
X683781045Y-385784807D01*
X683961209Y-385664425D01*
X684114425Y-385511209D01*
X684234807Y-385331045D01*
X684317727Y-385130858D01*
X684360000Y-384918341D01*
X684360000Y-384701659D01*
X684700000Y-384701659D01*
X684700000Y-384918341D01*
X684742273Y-385130858D01*
X684825193Y-385331045D01*
X684945575Y-385511209D01*
X685098791Y-385664425D01*
X685278955Y-385784807D01*
X685479142Y-385867727D01*
X685691659Y-385910000D01*
X685908341Y-385910000D01*
X686120858Y-385867727D01*
X686321045Y-385784807D01*
X686501209Y-385664425D01*
X686654425Y-385511209D01*
X686774807Y-385331045D01*
X686857727Y-385130858D01*
X686900000Y-384918341D01*
X686900000Y-384701659D01*
X687240000Y-384701659D01*
X687240000Y-384918341D01*
X687282273Y-385130858D01*
X687365193Y-385331045D01*
X687485575Y-385511209D01*
X687638791Y-385664425D01*
X687818955Y-385784807D01*
X688019142Y-385867727D01*
X688231659Y-385910000D01*
X688448341Y-385910000D01*
X688660858Y-385867727D01*
X688861045Y-385784807D01*
X689041209Y-385664425D01*
X689194425Y-385511209D01*
X689314807Y-385331045D01*
X689397727Y-385130858D01*
X689440000Y-384918341D01*
X689440000Y-384701659D01*
X707560000Y-384701659D01*
X707560000Y-384918341D01*
X707602273Y-385130858D01*
X707685193Y-385331045D01*
X707805575Y-385511209D01*
X707958791Y-385664425D01*
X708138955Y-385784807D01*
X708339142Y-385867727D01*
X708551659Y-385910000D01*
X708768341Y-385910000D01*
X708980858Y-385867727D01*
X709181045Y-385784807D01*
X709361209Y-385664425D01*
X709514425Y-385511209D01*
X709634807Y-385331045D01*
X709693229Y-385190000D01*
X718598549Y-385190000D01*
X718598549Y-385590000D01*
X718604341Y-385648810D01*
X718621496Y-385705360D01*
X718649353Y-385757477D01*
X718686842Y-385803158D01*
X718732523Y-385840647D01*
X718784640Y-385868504D01*
X718841190Y-385885659D01*
X718900000Y-385891451D01*
X719700000Y-385891451D01*
X719758810Y-385885659D01*
X719815360Y-385868504D01*
X719867477Y-385840647D01*
X719913158Y-385803158D01*
X719950647Y-385757477D01*
X719978504Y-385705360D01*
X719995659Y-385648810D01*
X720001451Y-385590000D01*
X720001451Y-385190000D01*
X719995659Y-385131190D01*
X719978504Y-385074640D01*
X719950647Y-385022523D01*
X719913158Y-384976842D01*
X719867477Y-384939353D01*
X719815360Y-384911496D01*
X719758810Y-384894341D01*
X719700000Y-384888549D01*
X718900000Y-384888549D01*
X718841190Y-384894341D01*
X718784640Y-384911496D01*
X718732523Y-384939353D01*
X718686842Y-384976842D01*
X718649353Y-385022523D01*
X718621496Y-385074640D01*
X718604341Y-385131190D01*
X718598549Y-385190000D01*
X709693229Y-385190000D01*
X709717727Y-385130858D01*
X709760000Y-384918341D01*
X709760000Y-384701659D01*
X709717727Y-384489142D01*
X709634807Y-384288955D01*
X709514425Y-384108791D01*
X709361209Y-383955575D01*
X709181045Y-383835193D01*
X708980858Y-383752273D01*
X708768341Y-383710000D01*
X708551659Y-383710000D01*
X708339142Y-383752273D01*
X708138955Y-383835193D01*
X707958791Y-383955575D01*
X707805575Y-384108791D01*
X707685193Y-384288955D01*
X707602273Y-384489142D01*
X707560000Y-384701659D01*
X689440000Y-384701659D01*
X689397727Y-384489142D01*
X689314807Y-384288955D01*
X689194425Y-384108791D01*
X689041209Y-383955575D01*
X688861045Y-383835193D01*
X688660858Y-383752273D01*
X688448341Y-383710000D01*
X688231659Y-383710000D01*
X688019142Y-383752273D01*
X687818955Y-383835193D01*
X687638791Y-383955575D01*
X687485575Y-384108791D01*
X687365193Y-384288955D01*
X687282273Y-384489142D01*
X687240000Y-384701659D01*
X686900000Y-384701659D01*
X686857727Y-384489142D01*
X686774807Y-384288955D01*
X686654425Y-384108791D01*
X686501209Y-383955575D01*
X686321045Y-383835193D01*
X686120858Y-383752273D01*
X685908341Y-383710000D01*
X685691659Y-383710000D01*
X685479142Y-383752273D01*
X685278955Y-383835193D01*
X685098791Y-383955575D01*
X684945575Y-384108791D01*
X684825193Y-384288955D01*
X684742273Y-384489142D01*
X684700000Y-384701659D01*
X684360000Y-384701659D01*
X684317727Y-384489142D01*
X684234807Y-384288955D01*
X684114425Y-384108791D01*
X683961209Y-383955575D01*
X683781045Y-383835193D01*
X683580858Y-383752273D01*
X683368341Y-383710000D01*
X683151659Y-383710000D01*
X682939142Y-383752273D01*
X682738955Y-383835193D01*
X682558791Y-383955575D01*
X682405575Y-384108791D01*
X682285193Y-384288955D01*
X682202273Y-384489142D01*
X682160000Y-384701659D01*
X679280000Y-384701659D01*
X679237727Y-384489142D01*
X679154807Y-384288955D01*
X679034425Y-384108791D01*
X678881209Y-383955575D01*
X678701045Y-383835193D01*
X678500858Y-383752273D01*
X678288341Y-383710000D01*
X678071659Y-383710000D01*
X677859142Y-383752273D01*
X677658955Y-383835193D01*
X677478791Y-383955575D01*
X677325575Y-384108791D01*
X677300000Y-384147067D01*
X677300000Y-383065819D01*
X677525602Y-383065819D01*
X677613874Y-383219335D01*
X677809958Y-383311540D01*
X678020263Y-383363719D01*
X678236706Y-383373867D01*
X678450970Y-383341593D01*
X678654821Y-383268139D01*
X678746126Y-383219335D01*
X678834398Y-383065819D01*
X678180000Y-382411421D01*
X677525602Y-383065819D01*
X677300000Y-383065819D01*
X677300000Y-382875994D01*
X677384181Y-382924398D01*
X678038579Y-382270000D01*
X678321421Y-382270000D01*
X678975819Y-382924398D01*
X679129335Y-382836126D01*
X679221540Y-382640042D01*
X679273719Y-382429737D01*
X679283867Y-382213294D01*
X679251593Y-381999030D01*
X679178139Y-381795179D01*
X679129335Y-381703874D01*
X678975819Y-381615602D01*
X678321421Y-382270000D01*
X678038579Y-382270000D01*
X677384181Y-381615602D01*
X677300000Y-381664006D01*
X677300000Y-381300000D01*
X677652535Y-381300000D01*
X677613874Y-381320665D01*
G37*
X677613874Y-381320665D02*
X677525602Y-381474181D01*
X678180000Y-382128579D01*
X678834398Y-381474181D01*
X678746126Y-381320665D01*
X678702180Y-381300000D01*
X680191761Y-381300000D01*
X680018791Y-381415575D01*
X679865575Y-381568791D01*
X679745193Y-381748955D01*
X679662273Y-381949142D01*
X679620000Y-382161659D01*
X679620000Y-382378341D01*
X679662273Y-382590858D01*
X679745193Y-382791045D01*
X679865575Y-382971209D01*
X680018791Y-383124425D01*
X680198955Y-383244807D01*
X680399142Y-383327727D01*
X680611659Y-383370000D01*
X680828341Y-383370000D01*
X681040858Y-383327727D01*
X681241045Y-383244807D01*
X681421209Y-383124425D01*
X681574425Y-382971209D01*
X681694807Y-382791045D01*
X681777727Y-382590858D01*
X681820000Y-382378341D01*
X681820000Y-382161659D01*
X681777727Y-381949142D01*
X681694807Y-381748955D01*
X681574425Y-381568791D01*
X681421209Y-381415575D01*
X681248239Y-381300000D01*
X682731761Y-381300000D01*
X682558791Y-381415575D01*
X682405575Y-381568791D01*
X682285193Y-381748955D01*
X682202273Y-381949142D01*
X682160000Y-382161659D01*
X682160000Y-382378341D01*
X682202273Y-382590858D01*
X682285193Y-382791045D01*
X682405575Y-382971209D01*
X682558791Y-383124425D01*
X682738955Y-383244807D01*
X682939142Y-383327727D01*
X683151659Y-383370000D01*
X683368341Y-383370000D01*
X683580858Y-383327727D01*
X683781045Y-383244807D01*
X683961209Y-383124425D01*
X684114425Y-382971209D01*
X684234807Y-382791045D01*
X684317727Y-382590858D01*
X684360000Y-382378341D01*
X684360000Y-382161659D01*
X684317727Y-381949142D01*
X684234807Y-381748955D01*
X684114425Y-381568791D01*
X683961209Y-381415575D01*
X683788239Y-381300000D01*
X685271761Y-381300000D01*
X685098791Y-381415575D01*
X684945575Y-381568791D01*
X684825193Y-381748955D01*
X684742273Y-381949142D01*
X684700000Y-382161659D01*
X684700000Y-382378341D01*
X684742273Y-382590858D01*
X684825193Y-382791045D01*
X684945575Y-382971209D01*
X685098791Y-383124425D01*
X685278955Y-383244807D01*
X685479142Y-383327727D01*
X685691659Y-383370000D01*
X685908341Y-383370000D01*
X686120858Y-383327727D01*
X686321045Y-383244807D01*
X686501209Y-383124425D01*
X686654425Y-382971209D01*
X686774807Y-382791045D01*
X686857727Y-382590858D01*
X686900000Y-382378341D01*
X686900000Y-382161659D01*
X686857727Y-381949142D01*
X686774807Y-381748955D01*
X686654425Y-381568791D01*
X686501209Y-381415575D01*
X686328239Y-381300000D01*
X687811761Y-381300000D01*
X687638791Y-381415575D01*
X687485575Y-381568791D01*
X687365193Y-381748955D01*
X687282273Y-381949142D01*
X687240000Y-382161659D01*
X687240000Y-382378341D01*
X687282273Y-382590858D01*
X687365193Y-382791045D01*
X687485575Y-382971209D01*
X687638791Y-383124425D01*
X687818955Y-383244807D01*
X688019142Y-383327727D01*
X688231659Y-383370000D01*
X688448341Y-383370000D01*
X688660858Y-383327727D01*
X688861045Y-383244807D01*
X689041209Y-383124425D01*
X689194425Y-382971209D01*
X689314807Y-382791045D01*
X689397727Y-382590858D01*
X689440000Y-382378341D01*
X689440000Y-382161659D01*
X689397727Y-381949142D01*
X689314807Y-381748955D01*
X689194425Y-381568791D01*
X689041209Y-381415575D01*
X688868239Y-381300000D01*
X690351761Y-381300000D01*
X690178791Y-381415575D01*
X690025575Y-381568791D01*
X689905193Y-381748955D01*
X689822273Y-381949142D01*
X689780000Y-382161659D01*
X689780000Y-382378341D01*
X689822273Y-382590858D01*
X689905193Y-382791045D01*
X690025575Y-382971209D01*
X690178791Y-383124425D01*
X690358955Y-383244807D01*
X690559142Y-383327727D01*
X690771659Y-383370000D01*
X690988341Y-383370000D01*
X691200858Y-383327727D01*
X691401045Y-383244807D01*
X691581209Y-383124425D01*
X691734425Y-382971209D01*
X691854807Y-382791045D01*
X691937727Y-382590858D01*
X691980000Y-382378341D01*
X691980000Y-382161659D01*
X691937727Y-381949142D01*
X691854807Y-381748955D01*
X691734425Y-381568791D01*
X691581209Y-381415575D01*
X691408239Y-381300000D01*
X692891761Y-381300000D01*
X692718791Y-381415575D01*
X692565575Y-381568791D01*
X692445193Y-381748955D01*
X692362273Y-381949142D01*
X692320000Y-382161659D01*
X692320000Y-382378341D01*
X692362273Y-382590858D01*
X692445193Y-382791045D01*
X692565575Y-382971209D01*
X692718791Y-383124425D01*
X692898955Y-383244807D01*
X693099142Y-383327727D01*
X693311659Y-383370000D01*
X693528341Y-383370000D01*
X693740858Y-383327727D01*
X693941045Y-383244807D01*
X694121209Y-383124425D01*
X694274425Y-382971209D01*
X694394807Y-382791045D01*
X694477727Y-382590858D01*
X694520000Y-382378341D01*
X694520000Y-382161659D01*
X694477727Y-381949142D01*
X694394807Y-381748955D01*
X694274425Y-381568791D01*
X694121209Y-381415575D01*
X693948239Y-381300000D01*
X695431761Y-381300000D01*
X695258791Y-381415575D01*
X695105575Y-381568791D01*
X694985193Y-381748955D01*
X694902273Y-381949142D01*
X694860000Y-382161659D01*
X694860000Y-382378341D01*
X694902273Y-382590858D01*
X694985193Y-382791045D01*
X695105575Y-382971209D01*
X695258791Y-383124425D01*
X695438955Y-383244807D01*
X695639142Y-383327727D01*
X695851659Y-383370000D01*
X696068341Y-383370000D01*
X696280858Y-383327727D01*
X696481045Y-383244807D01*
X696661209Y-383124425D01*
X696814425Y-382971209D01*
X696934807Y-382791045D01*
X697017727Y-382590858D01*
X697060000Y-382378341D01*
X697060000Y-382161659D01*
X697017727Y-381949142D01*
X696934807Y-381748955D01*
X696814425Y-381568791D01*
X696661209Y-381415575D01*
X696488239Y-381300000D01*
X697971761Y-381300000D01*
X697798791Y-381415575D01*
X697645575Y-381568791D01*
X697525193Y-381748955D01*
X697442273Y-381949142D01*
X697400000Y-382161659D01*
X697400000Y-382378341D01*
X697442273Y-382590858D01*
X697525193Y-382791045D01*
X697645575Y-382971209D01*
X697798791Y-383124425D01*
X697978955Y-383244807D01*
X698179142Y-383327727D01*
X698391659Y-383370000D01*
X698608341Y-383370000D01*
X698820858Y-383327727D01*
X699021045Y-383244807D01*
X699201209Y-383124425D01*
X699354425Y-382971209D01*
X699474807Y-382791045D01*
X699557727Y-382590858D01*
X699600000Y-382378341D01*
X699600000Y-382161659D01*
X699557727Y-381949142D01*
X699474807Y-381748955D01*
X699354425Y-381568791D01*
X699201209Y-381415575D01*
X699028239Y-381300000D01*
X700511761Y-381300000D01*
X700338791Y-381415575D01*
X700185575Y-381568791D01*
X700065193Y-381748955D01*
X699982273Y-381949142D01*
X699940000Y-382161659D01*
X699940000Y-382378341D01*
X699982273Y-382590858D01*
X700065193Y-382791045D01*
X700185575Y-382971209D01*
X700338791Y-383124425D01*
X700518955Y-383244807D01*
X700719142Y-383327727D01*
X700931659Y-383370000D01*
X701148341Y-383370000D01*
X701360858Y-383327727D01*
X701561045Y-383244807D01*
X701741209Y-383124425D01*
X701894425Y-382971209D01*
X702014807Y-382791045D01*
X702097727Y-382590858D01*
X702140000Y-382378341D01*
X702140000Y-382161659D01*
X702097727Y-381949142D01*
X702014807Y-381748955D01*
X701894425Y-381568791D01*
X701741209Y-381415575D01*
X701568239Y-381300000D01*
X703051761Y-381300000D01*
X702878791Y-381415575D01*
X702725575Y-381568791D01*
X702605193Y-381748955D01*
X702522273Y-381949142D01*
X702480000Y-382161659D01*
X702480000Y-382378341D01*
X702522273Y-382590858D01*
X702605193Y-382791045D01*
X702725575Y-382971209D01*
X702878791Y-383124425D01*
X703058955Y-383244807D01*
X703259142Y-383327727D01*
X703471659Y-383370000D01*
X703688341Y-383370000D01*
X703900858Y-383327727D01*
X704101045Y-383244807D01*
X704281209Y-383124425D01*
X704434425Y-382971209D01*
X704554807Y-382791045D01*
X704637727Y-382590858D01*
X704680000Y-382378341D01*
X704680000Y-382161659D01*
X704637727Y-381949142D01*
X704554807Y-381748955D01*
X704434425Y-381568791D01*
X704281209Y-381415575D01*
X704108239Y-381300000D01*
X705591761Y-381300000D01*
X705418791Y-381415575D01*
X705265575Y-381568791D01*
X705145193Y-381748955D01*
X705062273Y-381949142D01*
X705020000Y-382161659D01*
X705020000Y-382378341D01*
X705062273Y-382590858D01*
X705145193Y-382791045D01*
X705265575Y-382971209D01*
X705418791Y-383124425D01*
X705598955Y-383244807D01*
X705799142Y-383327727D01*
X706011659Y-383370000D01*
X706228341Y-383370000D01*
X706440858Y-383327727D01*
X706641045Y-383244807D01*
X706821209Y-383124425D01*
X706974425Y-382971209D01*
X707094807Y-382791045D01*
X707177727Y-382590858D01*
X707220000Y-382378341D01*
X707220000Y-382161659D01*
X707177727Y-381949142D01*
X707094807Y-381748955D01*
X706974425Y-381568791D01*
X706821209Y-381415575D01*
X706648239Y-381300000D01*
X708131761Y-381300000D01*
X707958791Y-381415575D01*
X707805575Y-381568791D01*
X707685193Y-381748955D01*
X707602273Y-381949142D01*
X707560000Y-382161659D01*
X707560000Y-382378341D01*
X707602273Y-382590858D01*
X707685193Y-382791045D01*
X707805575Y-382971209D01*
X707958791Y-383124425D01*
X708138955Y-383244807D01*
X708339142Y-383327727D01*
X708551659Y-383370000D01*
X708768341Y-383370000D01*
X708980858Y-383327727D01*
X709181045Y-383244807D01*
X709361209Y-383124425D01*
X709514425Y-382971209D01*
X709634807Y-382791045D01*
X709717727Y-382590858D01*
X709760000Y-382378341D01*
X709760000Y-382161659D01*
X709717727Y-381949142D01*
X709634807Y-381748955D01*
X709514425Y-381568791D01*
X709361209Y-381415575D01*
X709188239Y-381300000D01*
X718380646Y-381300000D01*
X718445791Y-381326984D01*
X718812866Y-381400000D01*
X719187134Y-381400000D01*
X719554209Y-381326984D01*
X719619354Y-381300000D01*
X723175001Y-381300000D01*
X723175000Y-398675000D01*
X667825000Y-398675000D01*
X667825000Y-398310000D01*
X674538548Y-398310000D01*
X674544340Y-398368810D01*
X674561495Y-398425361D01*
X674589352Y-398477478D01*
X674626841Y-398523159D01*
X674672522Y-398560648D01*
X674724639Y-398588505D01*
X674781190Y-398605660D01*
X674840000Y-398611452D01*
X675465000Y-398610000D01*
X675540000Y-398535000D01*
X675540000Y-397610000D01*
X675740000Y-397610000D01*
X675740000Y-398535000D01*
X675815000Y-398610000D01*
X676440000Y-398611452D01*
X676498810Y-398605660D01*
X676555361Y-398588505D01*
X676607478Y-398560648D01*
X676653159Y-398523159D01*
X676690648Y-398477478D01*
X676718505Y-398425361D01*
X676735660Y-398368810D01*
X676741452Y-398310000D01*
X676740000Y-397685000D01*
X676665000Y-397610000D01*
X675740000Y-397610000D01*
X675540000Y-397610000D01*
X674615000Y-397610000D01*
X674540000Y-397685000D01*
X674538548Y-398310000D01*
X667825000Y-398310000D01*
X667825000Y-396710000D01*
X674538548Y-396710000D01*
X674540000Y-397335000D01*
X674615000Y-397410000D01*
X675540000Y-397410000D01*
X675540000Y-396485000D01*
X675740000Y-396485000D01*
X675740000Y-397410000D01*
X676665000Y-397410000D01*
X676673341Y-397401659D01*
X677080000Y-397401659D01*
X677080000Y-397618341D01*
X677122273Y-397830858D01*
X677205193Y-398031045D01*
X677325575Y-398211209D01*
X677478791Y-398364425D01*
X677658955Y-398484807D01*
X677859142Y-398567727D01*
X678071659Y-398610000D01*
X678288341Y-398610000D01*
X678500858Y-398567727D01*
X678701045Y-398484807D01*
X678881209Y-398364425D01*
X679034425Y-398211209D01*
X679154807Y-398031045D01*
X679237727Y-397830858D01*
X679280000Y-397618341D01*
X679280000Y-397401659D01*
X679620000Y-397401659D01*
X679620000Y-397618341D01*
X679662273Y-397830858D01*
X679745193Y-398031045D01*
X679865575Y-398211209D01*
X680018791Y-398364425D01*
X680198955Y-398484807D01*
X680399142Y-398567727D01*
X680611659Y-398610000D01*
X680828341Y-398610000D01*
X681040858Y-398567727D01*
X681241045Y-398484807D01*
X681421209Y-398364425D01*
X681574425Y-398211209D01*
X681694807Y-398031045D01*
X681777727Y-397830858D01*
X681820000Y-397618341D01*
X681820000Y-397401659D01*
X682160000Y-397401659D01*
X682160000Y-397618341D01*
X682202273Y-397830858D01*
X682285193Y-398031045D01*
X682405575Y-398211209D01*
X682558791Y-398364425D01*
X682738955Y-398484807D01*
X682939142Y-398567727D01*
X683151659Y-398610000D01*
X683368341Y-398610000D01*
X683580858Y-398567727D01*
X683781045Y-398484807D01*
X683961209Y-398364425D01*
X684114425Y-398211209D01*
X684234807Y-398031045D01*
X684317727Y-397830858D01*
X684360000Y-397618341D01*
X684360000Y-397401659D01*
X684700000Y-397401659D01*
X684700000Y-397618341D01*
X684742273Y-397830858D01*
X684825193Y-398031045D01*
X684945575Y-398211209D01*
X685098791Y-398364425D01*
X685278955Y-398484807D01*
X685479142Y-398567727D01*
X685691659Y-398610000D01*
X685908341Y-398610000D01*
X686120858Y-398567727D01*
X686321045Y-398484807D01*
X686501209Y-398364425D01*
X686654425Y-398211209D01*
X686774807Y-398031045D01*
X686857727Y-397830858D01*
X686900000Y-397618341D01*
X686900000Y-397401659D01*
X687240000Y-397401659D01*
X687240000Y-397618341D01*
X687282273Y-397830858D01*
X687365193Y-398031045D01*
X687485575Y-398211209D01*
X687638791Y-398364425D01*
X687818955Y-398484807D01*
X688019142Y-398567727D01*
X688231659Y-398610000D01*
X688448341Y-398610000D01*
X688660858Y-398567727D01*
X688861045Y-398484807D01*
X689041209Y-398364425D01*
X689194425Y-398211209D01*
X689314807Y-398031045D01*
X689397727Y-397830858D01*
X689440000Y-397618341D01*
X689440000Y-397401659D01*
X689780000Y-397401659D01*
X689780000Y-397618341D01*
X689822273Y-397830858D01*
X689905193Y-398031045D01*
X690025575Y-398211209D01*
X690178791Y-398364425D01*
X690358955Y-398484807D01*
X690559142Y-398567727D01*
X690771659Y-398610000D01*
X690988341Y-398610000D01*
X691200858Y-398567727D01*
X691401045Y-398484807D01*
X691581209Y-398364425D01*
X691734425Y-398211209D01*
X691854807Y-398031045D01*
X691937727Y-397830858D01*
X691980000Y-397618341D01*
X691980000Y-397401659D01*
X692320000Y-397401659D01*
X692320000Y-397618341D01*
X692362273Y-397830858D01*
X692445193Y-398031045D01*
X692565575Y-398211209D01*
X692718791Y-398364425D01*
X692898955Y-398484807D01*
X693099142Y-398567727D01*
X693311659Y-398610000D01*
X693528341Y-398610000D01*
X693740858Y-398567727D01*
X693941045Y-398484807D01*
X694121209Y-398364425D01*
X694274425Y-398211209D01*
X694394807Y-398031045D01*
X694477727Y-397830858D01*
X694520000Y-397618341D01*
X694520000Y-397401659D01*
X694860000Y-397401659D01*
X694860000Y-397618341D01*
X694902273Y-397830858D01*
X694985193Y-398031045D01*
X695105575Y-398211209D01*
X695258791Y-398364425D01*
X695438955Y-398484807D01*
X695639142Y-398567727D01*
X695851659Y-398610000D01*
X696068341Y-398610000D01*
X696280858Y-398567727D01*
X696481045Y-398484807D01*
X696661209Y-398364425D01*
X696814425Y-398211209D01*
X696934807Y-398031045D01*
X697017727Y-397830858D01*
X697060000Y-397618341D01*
X697060000Y-397401659D01*
X697400000Y-397401659D01*
X697400000Y-397618341D01*
X697442273Y-397830858D01*
X697525193Y-398031045D01*
X697645575Y-398211209D01*
X697798791Y-398364425D01*
X697978955Y-398484807D01*
X698179142Y-398567727D01*
X698391659Y-398610000D01*
X698608341Y-398610000D01*
X698820858Y-398567727D01*
X699021045Y-398484807D01*
X699201209Y-398364425D01*
X699354425Y-398211209D01*
X699474807Y-398031045D01*
X699557727Y-397830858D01*
X699600000Y-397618341D01*
X699600000Y-397401659D01*
X699940000Y-397401659D01*
X699940000Y-397618341D01*
X699982273Y-397830858D01*
X700065193Y-398031045D01*
X700185575Y-398211209D01*
X700338791Y-398364425D01*
X700518955Y-398484807D01*
X700719142Y-398567727D01*
X700931659Y-398610000D01*
X701148341Y-398610000D01*
X701360858Y-398567727D01*
X701561045Y-398484807D01*
X701741209Y-398364425D01*
X701894425Y-398211209D01*
X702014807Y-398031045D01*
X702097727Y-397830858D01*
X702140000Y-397618341D01*
X702140000Y-397401659D01*
X702480000Y-397401659D01*
X702480000Y-397618341D01*
X702522273Y-397830858D01*
X702605193Y-398031045D01*
X702725575Y-398211209D01*
X702878791Y-398364425D01*
X703058955Y-398484807D01*
X703259142Y-398567727D01*
X703471659Y-398610000D01*
X703688341Y-398610000D01*
X703900858Y-398567727D01*
X704101045Y-398484807D01*
X704281209Y-398364425D01*
X704434425Y-398211209D01*
X704554807Y-398031045D01*
X704637727Y-397830858D01*
X704680000Y-397618341D01*
X704680000Y-397401659D01*
X704637727Y-397189142D01*
X704554807Y-396988955D01*
X704434425Y-396808791D01*
X704281209Y-396655575D01*
X704101045Y-396535193D01*
X703980000Y-396485055D01*
X703980000Y-394585685D01*
X706965685Y-391600000D01*
X707934366Y-391600000D01*
X707805575Y-391728791D01*
X707685193Y-391908955D01*
X707602273Y-392109142D01*
X707560000Y-392321659D01*
X707560000Y-392538341D01*
X707602273Y-392750858D01*
X707685193Y-392951045D01*
X707805575Y-393131209D01*
X707958791Y-393284425D01*
X708138955Y-393404807D01*
X708339142Y-393487727D01*
X708551659Y-393530000D01*
X708768341Y-393530000D01*
X708980858Y-393487727D01*
X709181045Y-393404807D01*
X709361209Y-393284425D01*
X709514425Y-393131209D01*
X709634807Y-392951045D01*
X709717727Y-392750858D01*
X709760000Y-392538341D01*
X709760000Y-392321659D01*
X709717727Y-392109142D01*
X709634807Y-391908955D01*
X709514425Y-391728791D01*
X709385634Y-391600000D01*
X712970352Y-391600000D01*
X712989998Y-391601935D01*
X713009644Y-391600000D01*
X713009645Y-391600000D01*
X713068412Y-391594212D01*
X713143812Y-391571340D01*
X713213301Y-391534197D01*
X713274209Y-391484211D01*
X713286735Y-391468948D01*
X713465684Y-391290000D01*
X714480823Y-391290000D01*
X714433978Y-391360110D01*
X714384979Y-391478402D01*
X714360000Y-391603981D01*
X714360000Y-391732019D01*
X714384979Y-391857598D01*
X714433978Y-391975890D01*
X714443406Y-391990000D01*
X713418635Y-391990000D01*
X713398999Y-391988066D01*
X713379363Y-391990000D01*
X713379353Y-391990000D01*
X713320586Y-391995788D01*
X713245186Y-392018660D01*
X713175697Y-392055803D01*
X713175695Y-392055804D01*
X713175696Y-392055804D01*
X713130049Y-392093265D01*
X713130047Y-392093267D01*
X713114789Y-392105789D01*
X713102267Y-392121047D01*
X709383315Y-395840000D01*
X709337899Y-395840000D01*
X709361209Y-395824425D01*
X709514425Y-395671209D01*
X709634807Y-395491045D01*
X709717727Y-395290858D01*
X709760000Y-395078341D01*
X709760000Y-394861659D01*
X709717727Y-394649142D01*
X709634807Y-394448955D01*
X709514425Y-394268791D01*
X709361209Y-394115575D01*
X709181045Y-393995193D01*
X708980858Y-393912273D01*
X708768341Y-393870000D01*
X708551659Y-393870000D01*
X708339142Y-393912273D01*
X708138955Y-393995193D01*
X707958791Y-394115575D01*
X707805575Y-394268791D01*
X707685193Y-394448955D01*
X707602273Y-394649142D01*
X707560000Y-394861659D01*
X707560000Y-395078341D01*
X707602273Y-395290858D01*
X707685193Y-395491045D01*
X707805575Y-395671209D01*
X707958791Y-395824425D01*
X707982101Y-395840000D01*
X707409647Y-395840000D01*
X707390000Y-395838065D01*
X707311586Y-395845788D01*
X707236186Y-395868660D01*
X707166697Y-395905803D01*
X707121049Y-395943265D01*
X707121047Y-395943267D01*
X707105789Y-395955789D01*
X707093267Y-395971047D01*
X706651048Y-396413267D01*
X706561903Y-396502412D01*
X706440858Y-396452273D01*
X706228341Y-396410000D01*
X706011659Y-396410000D01*
X705799142Y-396452273D01*
X705598955Y-396535193D01*
X705418791Y-396655575D01*
X705265575Y-396808791D01*
X705145193Y-396988955D01*
X705062273Y-397189142D01*
X705020000Y-397401659D01*
X705020000Y-397618341D01*
X705062273Y-397830858D01*
X705145193Y-398031045D01*
X705265575Y-398211209D01*
X705418791Y-398364425D01*
X705598955Y-398484807D01*
X705799142Y-398567727D01*
X706011659Y-398610000D01*
X706228341Y-398610000D01*
X706440858Y-398567727D01*
X706641045Y-398484807D01*
X706821209Y-398364425D01*
X706974425Y-398211209D01*
X707094807Y-398031045D01*
X707177727Y-397830858D01*
X707220000Y-397618341D01*
X707220000Y-397401659D01*
X707177727Y-397189142D01*
X707127588Y-397068097D01*
X707216733Y-396978952D01*
X707555686Y-396640000D01*
X707982101Y-396640000D01*
X707958791Y-396655575D01*
X707805575Y-396808791D01*
X707685193Y-396988955D01*
X707602273Y-397189142D01*
X707560000Y-397401659D01*
X707560000Y-397618341D01*
X707602273Y-397830858D01*
X707685193Y-398031045D01*
X707805575Y-398211209D01*
X707958791Y-398364425D01*
X708138955Y-398484807D01*
X708339142Y-398567727D01*
X708551659Y-398610000D01*
X708768341Y-398610000D01*
X708980858Y-398567727D01*
X709181045Y-398484807D01*
X709361209Y-398364425D01*
X709514425Y-398211209D01*
X709634807Y-398031045D01*
X709684945Y-397910000D01*
X715498354Y-397910000D01*
X715518000Y-397911935D01*
X715537646Y-397910000D01*
X715537647Y-397910000D01*
X715596414Y-397904212D01*
X715671814Y-397881340D01*
X715741303Y-397844197D01*
X715802211Y-397794211D01*
X715814737Y-397778948D01*
X718453949Y-395139736D01*
X718469211Y-395127211D01*
X718519197Y-395066303D01*
X718556340Y-394996814D01*
X718579212Y-394921414D01*
X718585000Y-394862647D01*
X718585000Y-394862646D01*
X718586935Y-394843000D01*
X718585000Y-394823353D01*
X718585000Y-394190000D01*
X718598549Y-394190000D01*
X718598549Y-394590000D01*
X718604341Y-394648810D01*
X718621496Y-394705360D01*
X718649353Y-394757477D01*
X718686842Y-394803158D01*
X718732523Y-394840647D01*
X718784640Y-394868504D01*
X718841190Y-394885659D01*
X718900000Y-394891451D01*
X719700000Y-394891451D01*
X719758810Y-394885659D01*
X719815360Y-394868504D01*
X719867477Y-394840647D01*
X719913158Y-394803158D01*
X719950647Y-394757477D01*
X719978504Y-394705360D01*
X719995659Y-394648810D01*
X720001451Y-394590000D01*
X720001451Y-394190000D01*
X719995659Y-394131190D01*
X719978504Y-394074640D01*
X719950647Y-394022523D01*
X719913158Y-393976842D01*
X719867477Y-393939353D01*
X719815360Y-393911496D01*
X719758810Y-393894341D01*
X719700000Y-393888549D01*
X718900000Y-393888549D01*
X718841190Y-393894341D01*
X718784640Y-393911496D01*
X718732523Y-393939353D01*
X718686842Y-393976842D01*
X718649353Y-394022523D01*
X718621496Y-394074640D01*
X718604341Y-394131190D01*
X718598549Y-394190000D01*
X718585000Y-394190000D01*
X718585000Y-393865685D01*
X719596954Y-392853732D01*
X719612211Y-392841211D01*
X719662197Y-392780303D01*
X719699340Y-392710814D01*
X719722212Y-392635414D01*
X719728000Y-392576647D01*
X719728000Y-392576637D01*
X719729934Y-392557001D01*
X719728000Y-392537365D01*
X719728000Y-387877647D01*
X719729935Y-387858000D01*
X719722212Y-387779586D01*
X719699340Y-387704186D01*
X719662197Y-387634697D01*
X719644639Y-387613303D01*
X719612211Y-387573789D01*
X719596948Y-387561263D01*
X718656737Y-386621052D01*
X718644211Y-386605789D01*
X718583303Y-386555803D01*
X718513814Y-386518660D01*
X718438414Y-386495788D01*
X718379647Y-386490000D01*
X718379646Y-386490000D01*
X718360000Y-386488065D01*
X718340354Y-386490000D01*
X717475000Y-386490000D01*
X717425000Y-386440000D01*
X717214733Y-386440000D01*
X717200000Y-386438549D01*
X716400000Y-386438549D01*
X716385267Y-386440000D01*
X716175000Y-386440000D01*
X716100000Y-386515000D01*
X716098548Y-386540000D01*
X716104340Y-386598810D01*
X716116836Y-386640002D01*
X716104341Y-386681190D01*
X716098549Y-386740000D01*
X716098549Y-386990000D01*
X713929635Y-386990000D01*
X713909999Y-386988066D01*
X713890363Y-386990000D01*
X713890353Y-386990000D01*
X713831586Y-386995788D01*
X713756186Y-387018660D01*
X713686697Y-387055803D01*
X713666324Y-387072523D01*
X713641049Y-387093265D01*
X713641047Y-387093267D01*
X713625789Y-387105789D01*
X713613267Y-387121047D01*
X713031050Y-387703265D01*
X713015787Y-387715791D01*
X712965801Y-387776700D01*
X712928658Y-387846189D01*
X712913818Y-387895112D01*
X712905786Y-387921589D01*
X712898063Y-388000002D01*
X712899998Y-388019649D01*
X712899999Y-390724313D01*
X712824313Y-390800000D01*
X709248744Y-390800000D01*
X709314398Y-390685819D01*
X708660000Y-390031421D01*
X708005602Y-390685819D01*
X708071256Y-390800000D01*
X706819647Y-390800000D01*
X706800000Y-390798065D01*
X706780353Y-390800000D01*
X706721586Y-390805788D01*
X706646186Y-390828660D01*
X706576697Y-390865803D01*
X706515789Y-390915789D01*
X706503265Y-390931050D01*
X703311052Y-394123263D01*
X703295789Y-394135789D01*
X703245803Y-394196698D01*
X703208660Y-394266187D01*
X703185788Y-394341586D01*
X703185788Y-394341587D01*
X703178065Y-394420000D01*
X703180000Y-394439647D01*
X703180001Y-396358974D01*
X703180000Y-396358984D01*
X703180000Y-396485055D01*
X703058955Y-396535193D01*
X702878791Y-396655575D01*
X702725575Y-396808791D01*
X702605193Y-396988955D01*
X702522273Y-397189142D01*
X702480000Y-397401659D01*
X702140000Y-397401659D01*
X702097727Y-397189142D01*
X702014807Y-396988955D01*
X701894425Y-396808791D01*
X701741209Y-396655575D01*
X701561045Y-396535193D01*
X701360858Y-396452273D01*
X701148341Y-396410000D01*
X700931659Y-396410000D01*
X700719142Y-396452273D01*
X700518955Y-396535193D01*
X700338791Y-396655575D01*
X700185575Y-396808791D01*
X700065193Y-396988955D01*
X699982273Y-397189142D01*
X699940000Y-397401659D01*
X699600000Y-397401659D01*
X699557727Y-397189142D01*
X699474807Y-396988955D01*
X699354425Y-396808791D01*
X699201209Y-396655575D01*
X699021045Y-396535193D01*
X698820858Y-396452273D01*
X698608341Y-396410000D01*
X698391659Y-396410000D01*
X698179142Y-396452273D01*
X697978955Y-396535193D01*
X697798791Y-396655575D01*
X697645575Y-396808791D01*
X697525193Y-396988955D01*
X697442273Y-397189142D01*
X697400000Y-397401659D01*
X697060000Y-397401659D01*
X697017727Y-397189142D01*
X696934807Y-396988955D01*
X696814425Y-396808791D01*
X696661209Y-396655575D01*
X696481045Y-396535193D01*
X696280858Y-396452273D01*
X696068341Y-396410000D01*
X695851659Y-396410000D01*
X695639142Y-396452273D01*
X695438955Y-396535193D01*
X695258791Y-396655575D01*
X695105575Y-396808791D01*
X694985193Y-396988955D01*
X694902273Y-397189142D01*
X694860000Y-397401659D01*
X694520000Y-397401659D01*
X694477727Y-397189142D01*
X694394807Y-396988955D01*
X694274425Y-396808791D01*
X694121209Y-396655575D01*
X693941045Y-396535193D01*
X693740858Y-396452273D01*
X693528341Y-396410000D01*
X693311659Y-396410000D01*
X693099142Y-396452273D01*
X692898955Y-396535193D01*
X692718791Y-396655575D01*
X692565575Y-396808791D01*
X692445193Y-396988955D01*
X692362273Y-397189142D01*
X692320000Y-397401659D01*
X691980000Y-397401659D01*
X691937727Y-397189142D01*
X691854807Y-396988955D01*
X691734425Y-396808791D01*
X691581209Y-396655575D01*
X691401045Y-396535193D01*
X691200858Y-396452273D01*
X690988341Y-396410000D01*
X690771659Y-396410000D01*
X690559142Y-396452273D01*
X690358955Y-396535193D01*
X690178791Y-396655575D01*
X690025575Y-396808791D01*
X689905193Y-396988955D01*
X689822273Y-397189142D01*
X689780000Y-397401659D01*
X689440000Y-397401659D01*
X689397727Y-397189142D01*
X689314807Y-396988955D01*
X689194425Y-396808791D01*
X689041209Y-396655575D01*
X688861045Y-396535193D01*
X688660858Y-396452273D01*
X688448341Y-396410000D01*
X688231659Y-396410000D01*
X688019142Y-396452273D01*
X687818955Y-396535193D01*
X687638791Y-396655575D01*
X687485575Y-396808791D01*
X687365193Y-396988955D01*
X687282273Y-397189142D01*
X687240000Y-397401659D01*
X686900000Y-397401659D01*
X686857727Y-397189142D01*
X686774807Y-396988955D01*
X686654425Y-396808791D01*
X686501209Y-396655575D01*
X686321045Y-396535193D01*
X686120858Y-396452273D01*
X685908341Y-396410000D01*
X685691659Y-396410000D01*
X685479142Y-396452273D01*
X685278955Y-396535193D01*
X685098791Y-396655575D01*
X684945575Y-396808791D01*
X684825193Y-396988955D01*
X684742273Y-397189142D01*
X684700000Y-397401659D01*
X684360000Y-397401659D01*
X684317727Y-397189142D01*
X684234807Y-396988955D01*
X684114425Y-396808791D01*
X683961209Y-396655575D01*
X683781045Y-396535193D01*
X683580858Y-396452273D01*
X683368341Y-396410000D01*
X683151659Y-396410000D01*
X682939142Y-396452273D01*
X682738955Y-396535193D01*
X682558791Y-396655575D01*
X682405575Y-396808791D01*
X682285193Y-396988955D01*
X682202273Y-397189142D01*
X682160000Y-397401659D01*
X681820000Y-397401659D01*
X681777727Y-397189142D01*
X681694807Y-396988955D01*
X681574425Y-396808791D01*
X681421209Y-396655575D01*
X681241045Y-396535193D01*
X681040858Y-396452273D01*
X680828341Y-396410000D01*
X680611659Y-396410000D01*
X680399142Y-396452273D01*
X680198955Y-396535193D01*
X680018791Y-396655575D01*
X679865575Y-396808791D01*
X679745193Y-396988955D01*
X679662273Y-397189142D01*
X679620000Y-397401659D01*
X679280000Y-397401659D01*
X679237727Y-397189142D01*
X679154807Y-396988955D01*
X679034425Y-396808791D01*
X678881209Y-396655575D01*
X678701045Y-396535193D01*
X678500858Y-396452273D01*
X678288341Y-396410000D01*
X678071659Y-396410000D01*
X677859142Y-396452273D01*
X677658955Y-396535193D01*
X677478791Y-396655575D01*
X677325575Y-396808791D01*
X677205193Y-396988955D01*
X677122273Y-397189142D01*
X677080000Y-397401659D01*
X676673341Y-397401659D01*
X676740000Y-397335000D01*
X676741452Y-396710000D01*
X676735660Y-396651190D01*
X676718505Y-396594639D01*
X676690648Y-396542522D01*
X676653159Y-396496841D01*
X676607478Y-396459352D01*
X676555361Y-396431495D01*
X676498810Y-396414340D01*
X676440000Y-396408548D01*
X675815000Y-396410000D01*
X675740000Y-396485000D01*
X675540000Y-396485000D01*
X675465000Y-396410000D01*
X674840000Y-396408548D01*
X674781190Y-396414340D01*
X674724639Y-396431495D01*
X674672522Y-396459352D01*
X674626841Y-396496841D01*
X674589352Y-396542522D01*
X674561495Y-396594639D01*
X674544340Y-396651190D01*
X674538548Y-396710000D01*
X667825000Y-396710000D01*
X667825000Y-389766886D01*
X680740000Y-389766886D01*
X680740000Y-390013114D01*
X680788037Y-390254611D01*
X680882265Y-390482097D01*
X681019062Y-390686828D01*
X681193172Y-390860938D01*
X681397903Y-390997735D01*
X681625389Y-391091963D01*
X681866886Y-391140000D01*
X682113114Y-391140000D01*
X682354611Y-391091963D01*
X682582097Y-390997735D01*
X682786828Y-390860938D01*
X682960938Y-390686828D01*
X683097735Y-390482097D01*
X683191963Y-390254611D01*
X683240000Y-390013114D01*
X683240000Y-389766886D01*
X684550000Y-389766886D01*
X684550000Y-390013114D01*
X684598037Y-390254611D01*
X684692265Y-390482097D01*
X684829062Y-390686828D01*
X685003172Y-390860938D01*
X685207903Y-390997735D01*
X685435389Y-391091963D01*
X685676886Y-391140000D01*
X685923114Y-391140000D01*
X686164611Y-391091963D01*
X686392097Y-390997735D01*
X686596828Y-390860938D01*
X686770938Y-390686828D01*
X686907735Y-390482097D01*
X687001963Y-390254611D01*
X687050000Y-390013114D01*
X687050000Y-389946706D01*
X707556133Y-389946706D01*
X707588407Y-390160970D01*
X707661861Y-390364821D01*
X707710665Y-390456126D01*
X707864181Y-390544398D01*
X708518579Y-389890000D01*
X708801421Y-389890000D01*
X709455819Y-390544398D01*
X709609335Y-390456126D01*
X709701540Y-390260042D01*
X709753719Y-390049737D01*
X709763867Y-389833294D01*
X709731593Y-389619030D01*
X709658139Y-389415179D01*
X709609335Y-389323874D01*
X709455819Y-389235602D01*
X708801421Y-389890000D01*
X708518579Y-389890000D01*
X707864181Y-389235602D01*
X707710665Y-389323874D01*
X707618460Y-389519958D01*
X707566281Y-389730263D01*
X707556133Y-389946706D01*
X687050000Y-389946706D01*
X687050000Y-389766886D01*
X687001963Y-389525389D01*
X686907735Y-389297903D01*
X686771613Y-389094181D01*
X708005602Y-389094181D01*
X708660000Y-389748579D01*
X709314398Y-389094181D01*
X709226126Y-388940665D01*
X709030042Y-388848460D01*
X708819737Y-388796281D01*
X708603294Y-388786133D01*
X708389030Y-388818407D01*
X708185179Y-388891861D01*
X708093874Y-388940665D01*
X708005602Y-389094181D01*
X686771613Y-389094181D01*
X686770938Y-389093172D01*
X686596828Y-388919062D01*
X686392097Y-388782265D01*
X686164611Y-388688037D01*
X685923114Y-388640000D01*
X685676886Y-388640000D01*
X685435389Y-388688037D01*
X685207903Y-388782265D01*
X685003172Y-388919062D01*
X684829062Y-389093172D01*
X684692265Y-389297903D01*
X684598037Y-389525389D01*
X684550000Y-389766886D01*
X683240000Y-389766886D01*
X683191963Y-389525389D01*
X683097735Y-389297903D01*
X682960938Y-389093172D01*
X682786828Y-388919062D01*
X682582097Y-388782265D01*
X682354611Y-388688037D01*
X682113114Y-388640000D01*
X681866886Y-388640000D01*
X681625389Y-388688037D01*
X681397903Y-388782265D01*
X681193172Y-388919062D01*
X681019062Y-389093172D01*
X680882265Y-389297903D01*
X680788037Y-389525389D01*
X680740000Y-389766886D01*
X667825000Y-389766886D01*
X667825000Y-387241659D01*
X707560000Y-387241659D01*
X707560000Y-387458341D01*
X707602273Y-387670858D01*
X707685193Y-387871045D01*
X707805575Y-388051209D01*
X707958791Y-388204425D01*
X708138955Y-388324807D01*
X708339142Y-388407727D01*
X708551659Y-388450000D01*
X708768341Y-388450000D01*
X708980858Y-388407727D01*
X709181045Y-388324807D01*
X709361209Y-388204425D01*
X709514425Y-388051209D01*
X709634807Y-387871045D01*
X709717727Y-387670858D01*
X709760000Y-387458341D01*
X709760000Y-387241659D01*
X709717727Y-387029142D01*
X709634807Y-386828955D01*
X709514425Y-386648791D01*
X709361209Y-386495575D01*
X709181045Y-386375193D01*
X708980858Y-386292273D01*
X708768341Y-386250000D01*
X708551659Y-386250000D01*
X708339142Y-386292273D01*
X708138955Y-386375193D01*
X707958791Y-386495575D01*
X707805575Y-386648791D01*
X707685193Y-386828955D01*
X707602273Y-387029142D01*
X707560000Y-387241659D01*
X667825000Y-387241659D01*
X667825000Y-386300000D01*
X677000000Y-386300000D01*
X677058527Y-386294236D01*
X677114805Y-386277164D01*
X677166671Y-386249441D01*
X677178174Y-386240000D01*
X716098548Y-386240000D01*
X716100000Y-386265000D01*
X716175000Y-386340000D01*
X716700000Y-386340000D01*
X716700000Y-386015000D01*
X716900000Y-386015000D01*
X716900000Y-386340000D01*
X717425000Y-386340000D01*
X717500000Y-386265000D01*
X717501452Y-386240000D01*
X717495660Y-386181190D01*
X717478505Y-386124639D01*
X717450648Y-386072522D01*
X717413159Y-386026841D01*
X717367478Y-385989352D01*
X717315361Y-385961495D01*
X717258810Y-385944340D01*
X717200000Y-385938548D01*
X716975000Y-385940000D01*
X716900000Y-386015000D01*
X716700000Y-386015000D01*
X716625000Y-385940000D01*
X716400000Y-385938548D01*
X716341190Y-385944340D01*
X716284639Y-385961495D01*
X716232522Y-385989352D01*
X716186841Y-386026841D01*
X716149352Y-386072522D01*
X716121495Y-386124639D01*
X716104340Y-386181190D01*
X716098548Y-386240000D01*
X677178174Y-386240000D01*
X677212132Y-386212132D01*
X677249441Y-386166671D01*
X677277164Y-386114805D01*
X677294236Y-386058527D01*
X677300000Y-386000000D01*
X677300000Y-385472933D01*
X677325575Y-385511209D01*
X677478791Y-385664425D01*
X677658955Y-385784807D01*
X677859142Y-385867727D01*
X678071659Y-385910000D01*
X678288341Y-385910000D01*
X678500858Y-385867727D01*
X678701045Y-385784807D01*
X678881209Y-385664425D01*
X679034425Y-385511209D01*
X679154807Y-385331045D01*
X679237727Y-385130858D01*
X679280000Y-384918341D01*
X679280000Y-384701659D01*
X682160000Y-384701659D01*
X682160000Y-384918341D01*
X682202273Y-385130858D01*
X682285193Y-385331045D01*
X682405575Y-385511209D01*
X682558791Y-385664425D01*
X682738955Y-385784807D01*
X682939142Y-385867727D01*
X683151659Y-385910000D01*
X683368341Y-385910000D01*
X683580858Y-385867727D01*
X683781045Y-385784807D01*
X683961209Y-385664425D01*
X684114425Y-385511209D01*
X684234807Y-385331045D01*
X684317727Y-385130858D01*
X684360000Y-384918341D01*
X684360000Y-384701659D01*
X684700000Y-384701659D01*
X684700000Y-384918341D01*
X684742273Y-385130858D01*
X684825193Y-385331045D01*
X684945575Y-385511209D01*
X685098791Y-385664425D01*
X685278955Y-385784807D01*
X685479142Y-385867727D01*
X685691659Y-385910000D01*
X685908341Y-385910000D01*
X686120858Y-385867727D01*
X686321045Y-385784807D01*
X686501209Y-385664425D01*
X686654425Y-385511209D01*
X686774807Y-385331045D01*
X686857727Y-385130858D01*
X686900000Y-384918341D01*
X686900000Y-384701659D01*
X687240000Y-384701659D01*
X687240000Y-384918341D01*
X687282273Y-385130858D01*
X687365193Y-385331045D01*
X687485575Y-385511209D01*
X687638791Y-385664425D01*
X687818955Y-385784807D01*
X688019142Y-385867727D01*
X688231659Y-385910000D01*
X688448341Y-385910000D01*
X688660858Y-385867727D01*
X688861045Y-385784807D01*
X689041209Y-385664425D01*
X689194425Y-385511209D01*
X689314807Y-385331045D01*
X689397727Y-385130858D01*
X689440000Y-384918341D01*
X689440000Y-384701659D01*
X707560000Y-384701659D01*
X707560000Y-384918341D01*
X707602273Y-385130858D01*
X707685193Y-385331045D01*
X707805575Y-385511209D01*
X707958791Y-385664425D01*
X708138955Y-385784807D01*
X708339142Y-385867727D01*
X708551659Y-385910000D01*
X708768341Y-385910000D01*
X708980858Y-385867727D01*
X709181045Y-385784807D01*
X709361209Y-385664425D01*
X709514425Y-385511209D01*
X709634807Y-385331045D01*
X709693229Y-385190000D01*
X718598549Y-385190000D01*
X718598549Y-385590000D01*
X718604341Y-385648810D01*
X718621496Y-385705360D01*
X718649353Y-385757477D01*
X718686842Y-385803158D01*
X718732523Y-385840647D01*
X718784640Y-385868504D01*
X718841190Y-385885659D01*
X718900000Y-385891451D01*
X719700000Y-385891451D01*
X719758810Y-385885659D01*
X719815360Y-385868504D01*
X719867477Y-385840647D01*
X719913158Y-385803158D01*
X719950647Y-385757477D01*
X719978504Y-385705360D01*
X719995659Y-385648810D01*
X720001451Y-385590000D01*
X720001451Y-385190000D01*
X719995659Y-385131190D01*
X719978504Y-385074640D01*
X719950647Y-385022523D01*
X719913158Y-384976842D01*
X719867477Y-384939353D01*
X719815360Y-384911496D01*
X719758810Y-384894341D01*
X719700000Y-384888549D01*
X718900000Y-384888549D01*
X718841190Y-384894341D01*
X718784640Y-384911496D01*
X718732523Y-384939353D01*
X718686842Y-384976842D01*
X718649353Y-385022523D01*
X718621496Y-385074640D01*
X718604341Y-385131190D01*
X718598549Y-385190000D01*
X709693229Y-385190000D01*
X709717727Y-385130858D01*
X709760000Y-384918341D01*
X709760000Y-384701659D01*
X709717727Y-384489142D01*
X709634807Y-384288955D01*
X709514425Y-384108791D01*
X709361209Y-383955575D01*
X709181045Y-383835193D01*
X708980858Y-383752273D01*
X708768341Y-383710000D01*
X708551659Y-383710000D01*
X708339142Y-383752273D01*
X708138955Y-383835193D01*
X707958791Y-383955575D01*
X707805575Y-384108791D01*
X707685193Y-384288955D01*
X707602273Y-384489142D01*
X707560000Y-384701659D01*
X689440000Y-384701659D01*
X689397727Y-384489142D01*
X689314807Y-384288955D01*
X689194425Y-384108791D01*
X689041209Y-383955575D01*
X688861045Y-383835193D01*
X688660858Y-383752273D01*
X688448341Y-383710000D01*
X688231659Y-383710000D01*
X688019142Y-383752273D01*
X687818955Y-383835193D01*
X687638791Y-383955575D01*
X687485575Y-384108791D01*
X687365193Y-384288955D01*
X687282273Y-384489142D01*
X687240000Y-384701659D01*
X686900000Y-384701659D01*
X686857727Y-384489142D01*
X686774807Y-384288955D01*
X686654425Y-384108791D01*
X686501209Y-383955575D01*
X686321045Y-383835193D01*
X686120858Y-383752273D01*
X685908341Y-383710000D01*
X685691659Y-383710000D01*
X685479142Y-383752273D01*
X685278955Y-383835193D01*
X685098791Y-383955575D01*
X684945575Y-384108791D01*
X684825193Y-384288955D01*
X684742273Y-384489142D01*
X684700000Y-384701659D01*
X684360000Y-384701659D01*
X684317727Y-384489142D01*
X684234807Y-384288955D01*
X684114425Y-384108791D01*
X683961209Y-383955575D01*
X683781045Y-383835193D01*
X683580858Y-383752273D01*
X683368341Y-383710000D01*
X683151659Y-383710000D01*
X682939142Y-383752273D01*
X682738955Y-383835193D01*
X682558791Y-383955575D01*
X682405575Y-384108791D01*
X682285193Y-384288955D01*
X682202273Y-384489142D01*
X682160000Y-384701659D01*
X679280000Y-384701659D01*
X679237727Y-384489142D01*
X679154807Y-384288955D01*
X679034425Y-384108791D01*
X678881209Y-383955575D01*
X678701045Y-383835193D01*
X678500858Y-383752273D01*
X678288341Y-383710000D01*
X678071659Y-383710000D01*
X677859142Y-383752273D01*
X677658955Y-383835193D01*
X677478791Y-383955575D01*
X677325575Y-384108791D01*
X677300000Y-384147067D01*
X677300000Y-383065819D01*
X677525602Y-383065819D01*
X677613874Y-383219335D01*
X677809958Y-383311540D01*
X678020263Y-383363719D01*
X678236706Y-383373867D01*
X678450970Y-383341593D01*
X678654821Y-383268139D01*
X678746126Y-383219335D01*
X678834398Y-383065819D01*
X678180000Y-382411421D01*
X677525602Y-383065819D01*
X677300000Y-383065819D01*
X677300000Y-382875994D01*
X677384181Y-382924398D01*
X678038579Y-382270000D01*
X678321421Y-382270000D01*
X678975819Y-382924398D01*
X679129335Y-382836126D01*
X679221540Y-382640042D01*
X679273719Y-382429737D01*
X679283867Y-382213294D01*
X679251593Y-381999030D01*
X679178139Y-381795179D01*
X679129335Y-381703874D01*
X678975819Y-381615602D01*
X678321421Y-382270000D01*
X678038579Y-382270000D01*
X677384181Y-381615602D01*
X677300000Y-381664006D01*
X677300000Y-381300000D01*
X677652535Y-381300000D01*
X677613874Y-381320665D01*
G36*
X718928001Y-388023686D02*
G01*
X718928000Y-392391314D01*
X717916048Y-393403267D01*
X717900790Y-393415789D01*
X717888268Y-393431047D01*
X717888265Y-393431050D01*
X717850803Y-393476698D01*
X717813661Y-393546186D01*
X717790788Y-393621587D01*
X717783065Y-393700000D01*
X717785001Y-393719656D01*
X717785000Y-394677315D01*
X715352315Y-397110000D01*
X709684945Y-397110000D01*
X709634807Y-396988955D01*
X709514425Y-396808791D01*
X709361209Y-396655575D01*
X709337899Y-396640000D01*
X709529354Y-396640000D01*
X709549000Y-396641935D01*
X709568646Y-396640000D01*
X709568647Y-396640000D01*
X709627414Y-396634212D01*
X709702814Y-396611340D01*
X709772303Y-396574197D01*
X709833211Y-396524211D01*
X709845737Y-396508948D01*
X713564686Y-392790000D01*
X714631736Y-392790000D01*
X714595649Y-392814112D01*
X714505112Y-392904649D01*
X714433978Y-393011110D01*
X714384979Y-393129402D01*
X714360000Y-393254981D01*
X714360000Y-393383019D01*
X714384979Y-393508598D01*
X714433978Y-393626890D01*
X714505112Y-393733351D01*
X714595649Y-393823888D01*
X714702110Y-393895022D01*
X714820402Y-393944021D01*
X714945981Y-393969000D01*
X715074019Y-393969000D01*
X715199598Y-393944021D01*
X715317890Y-393895022D01*
X715424351Y-393823888D01*
X715514888Y-393733351D01*
X715586022Y-393626890D01*
X715622013Y-393540000D01*
X716098548Y-393540000D01*
X716104340Y-393598810D01*
X716121495Y-393655361D01*
X716149352Y-393707478D01*
X716186841Y-393753159D01*
X716232522Y-393790648D01*
X716284639Y-393818505D01*
X716341190Y-393835660D01*
X716400000Y-393841452D01*
X716625000Y-393840000D01*
X716700000Y-393765000D01*
X716700000Y-393440000D01*
X716900000Y-393440000D01*
X716900000Y-393765000D01*
X716975000Y-393840000D01*
X717200000Y-393841452D01*
X717258810Y-393835660D01*
X717315361Y-393818505D01*
X717367478Y-393790648D01*
X717413159Y-393753159D01*
X717450648Y-393707478D01*
X717478505Y-393655361D01*
X717495660Y-393598810D01*
X717501452Y-393540000D01*
X717500000Y-393515000D01*
X717425000Y-393440000D01*
X716900000Y-393440000D01*
X716700000Y-393440000D01*
X716175000Y-393440000D01*
X716100000Y-393515000D01*
X716098548Y-393540000D01*
X715622013Y-393540000D01*
X715635021Y-393508598D01*
X715660000Y-393383019D01*
X715660000Y-393290000D01*
X716125000Y-393290000D01*
X716175000Y-393340000D01*
X716385267Y-393340000D01*
X716400000Y-393341451D01*
X717200000Y-393341451D01*
X717214733Y-393340000D01*
X717425000Y-393340000D01*
X717475000Y-393290000D01*
X717705354Y-393290000D01*
X717725000Y-393291935D01*
X717744646Y-393290000D01*
X717744647Y-393290000D01*
X717803414Y-393284212D01*
X717878814Y-393261340D01*
X717948303Y-393224197D01*
X718009211Y-393174211D01*
X718021737Y-393158948D01*
X718326954Y-392853732D01*
X718342211Y-392841211D01*
X718392197Y-392780303D01*
X718429340Y-392710814D01*
X718452212Y-392635414D01*
X718458000Y-392576647D01*
X718458000Y-392576637D01*
X718459934Y-392557001D01*
X718458000Y-392537365D01*
X718458000Y-389782647D01*
X718459935Y-389763000D01*
X718452212Y-389684586D01*
X718429340Y-389609186D01*
X718392197Y-389539697D01*
X718378741Y-389523301D01*
X718342211Y-389478789D01*
X718326948Y-389466263D01*
X717981737Y-389121052D01*
X717969211Y-389105789D01*
X717908303Y-389055803D01*
X717838814Y-389018660D01*
X717763414Y-388995788D01*
X717704647Y-388990000D01*
X717704646Y-388990000D01*
X717685000Y-388988065D01*
X717665354Y-388990000D01*
X717501451Y-388990000D01*
X717501451Y-388740000D01*
X717495659Y-388681190D01*
X717483164Y-388640002D01*
X717495660Y-388598810D01*
X717501452Y-388540000D01*
X717500000Y-388515000D01*
X717425000Y-388440000D01*
X717214733Y-388440000D01*
X717200000Y-388438549D01*
X716400000Y-388438549D01*
X716385267Y-388440000D01*
X716175000Y-388440000D01*
X716125000Y-388490000D01*
X715247581Y-388490000D01*
X715227945Y-388488066D01*
X715208309Y-388490000D01*
X715208299Y-388490000D01*
X715149532Y-388495788D01*
X715074132Y-388518660D01*
X715004643Y-388555803D01*
X715004641Y-388555804D01*
X715004642Y-388555804D01*
X714958995Y-388593265D01*
X714958993Y-388593267D01*
X714943735Y-388605789D01*
X714931213Y-388621047D01*
X714548994Y-389003267D01*
X714533737Y-389015788D01*
X714521215Y-389031046D01*
X714521212Y-389031049D01*
X714483750Y-389076697D01*
X714446608Y-389146185D01*
X714423735Y-389221586D01*
X714416012Y-389299999D01*
X714417948Y-389319655D01*
X714417947Y-389952354D01*
X714416012Y-389972001D01*
X714417947Y-389991647D01*
X714423735Y-390050414D01*
X714446607Y-390125814D01*
X714483750Y-390195303D01*
X714533736Y-390256212D01*
X714548999Y-390268738D01*
X714770260Y-390490000D01*
X713699998Y-390490000D01*
X713699998Y-388914476D01*
X713792110Y-388976022D01*
X713910402Y-389025021D01*
X714035981Y-389050000D01*
X714164019Y-389050000D01*
X714289598Y-389025021D01*
X714407890Y-388976022D01*
X714514351Y-388904888D01*
X714604888Y-388814351D01*
X714676022Y-388707890D01*
X714725021Y-388589598D01*
X714750000Y-388464019D01*
X714750000Y-388335981D01*
X714746633Y-388319053D01*
X714775686Y-388290000D01*
X716125000Y-388290000D01*
X716175000Y-388340000D01*
X716385267Y-388340000D01*
X716400000Y-388341451D01*
X717200000Y-388341451D01*
X717214733Y-388340000D01*
X717425000Y-388340000D01*
X717500000Y-388265000D01*
X717501452Y-388240000D01*
X717495660Y-388181190D01*
X717483164Y-388139998D01*
X717495659Y-388098810D01*
X717501451Y-388040000D01*
X717501451Y-387740000D01*
X717495659Y-387681190D01*
X717483164Y-387640000D01*
X717495659Y-387598810D01*
X717501451Y-387540000D01*
X717501451Y-387290000D01*
X718194315Y-387290000D01*
X718928001Y-388023686D01*
G37*
X718928001Y-388023686D02*
X718928000Y-392391314D01*
X717916048Y-393403267D01*
X717900790Y-393415789D01*
X717888268Y-393431047D01*
X717888265Y-393431050D01*
X717850803Y-393476698D01*
X717813661Y-393546186D01*
X717790788Y-393621587D01*
X717783065Y-393700000D01*
X717785001Y-393719656D01*
X717785000Y-394677315D01*
X715352315Y-397110000D01*
X709684945Y-397110000D01*
X709634807Y-396988955D01*
X709514425Y-396808791D01*
X709361209Y-396655575D01*
X709337899Y-396640000D01*
X709529354Y-396640000D01*
X709549000Y-396641935D01*
X709568646Y-396640000D01*
X709568647Y-396640000D01*
X709627414Y-396634212D01*
X709702814Y-396611340D01*
X709772303Y-396574197D01*
X709833211Y-396524211D01*
X709845737Y-396508948D01*
X713564686Y-392790000D01*
X714631736Y-392790000D01*
X714595649Y-392814112D01*
X714505112Y-392904649D01*
X714433978Y-393011110D01*
X714384979Y-393129402D01*
X714360000Y-393254981D01*
X714360000Y-393383019D01*
X714384979Y-393508598D01*
X714433978Y-393626890D01*
X714505112Y-393733351D01*
X714595649Y-393823888D01*
X714702110Y-393895022D01*
X714820402Y-393944021D01*
X714945981Y-393969000D01*
X715074019Y-393969000D01*
X715199598Y-393944021D01*
X715317890Y-393895022D01*
X715424351Y-393823888D01*
X715514888Y-393733351D01*
X715586022Y-393626890D01*
X715622013Y-393540000D01*
X716098548Y-393540000D01*
X716104340Y-393598810D01*
X716121495Y-393655361D01*
X716149352Y-393707478D01*
X716186841Y-393753159D01*
X716232522Y-393790648D01*
X716284639Y-393818505D01*
X716341190Y-393835660D01*
X716400000Y-393841452D01*
X716625000Y-393840000D01*
X716700000Y-393765000D01*
X716700000Y-393440000D01*
X716900000Y-393440000D01*
X716900000Y-393765000D01*
X716975000Y-393840000D01*
X717200000Y-393841452D01*
X717258810Y-393835660D01*
X717315361Y-393818505D01*
X717367478Y-393790648D01*
X717413159Y-393753159D01*
X717450648Y-393707478D01*
X717478505Y-393655361D01*
X717495660Y-393598810D01*
X717501452Y-393540000D01*
X717500000Y-393515000D01*
X717425000Y-393440000D01*
X716900000Y-393440000D01*
X716700000Y-393440000D01*
X716175000Y-393440000D01*
X716100000Y-393515000D01*
X716098548Y-393540000D01*
X715622013Y-393540000D01*
X715635021Y-393508598D01*
X715660000Y-393383019D01*
X715660000Y-393290000D01*
X716125000Y-393290000D01*
X716175000Y-393340000D01*
X716385267Y-393340000D01*
X716400000Y-393341451D01*
X717200000Y-393341451D01*
X717214733Y-393340000D01*
X717425000Y-393340000D01*
X717475000Y-393290000D01*
X717705354Y-393290000D01*
X717725000Y-393291935D01*
X717744646Y-393290000D01*
X717744647Y-393290000D01*
X717803414Y-393284212D01*
X717878814Y-393261340D01*
X717948303Y-393224197D01*
X718009211Y-393174211D01*
X718021737Y-393158948D01*
X718326954Y-392853732D01*
X718342211Y-392841211D01*
X718392197Y-392780303D01*
X718429340Y-392710814D01*
X718452212Y-392635414D01*
X718458000Y-392576647D01*
X718458000Y-392576637D01*
X718459934Y-392557001D01*
X718458000Y-392537365D01*
X718458000Y-389782647D01*
X718459935Y-389763000D01*
X718452212Y-389684586D01*
X718429340Y-389609186D01*
X718392197Y-389539697D01*
X718378741Y-389523301D01*
X718342211Y-389478789D01*
X718326948Y-389466263D01*
X717981737Y-389121052D01*
X717969211Y-389105789D01*
X717908303Y-389055803D01*
X717838814Y-389018660D01*
X717763414Y-388995788D01*
X717704647Y-388990000D01*
X717704646Y-388990000D01*
X717685000Y-388988065D01*
X717665354Y-388990000D01*
X717501451Y-388990000D01*
X717501451Y-388740000D01*
X717495659Y-388681190D01*
X717483164Y-388640002D01*
X717495660Y-388598810D01*
X717501452Y-388540000D01*
X717500000Y-388515000D01*
X717425000Y-388440000D01*
X717214733Y-388440000D01*
X717200000Y-388438549D01*
X716400000Y-388438549D01*
X716385267Y-388440000D01*
X716175000Y-388440000D01*
X716125000Y-388490000D01*
X715247581Y-388490000D01*
X715227945Y-388488066D01*
X715208309Y-388490000D01*
X715208299Y-388490000D01*
X715149532Y-388495788D01*
X715074132Y-388518660D01*
X715004643Y-388555803D01*
X715004641Y-388555804D01*
X715004642Y-388555804D01*
X714958995Y-388593265D01*
X714958993Y-388593267D01*
X714943735Y-388605789D01*
X714931213Y-388621047D01*
X714548994Y-389003267D01*
X714533737Y-389015788D01*
X714521215Y-389031046D01*
X714521212Y-389031049D01*
X714483750Y-389076697D01*
X714446608Y-389146185D01*
X714423735Y-389221586D01*
X714416012Y-389299999D01*
X714417948Y-389319655D01*
X714417947Y-389952354D01*
X714416012Y-389972001D01*
X714417947Y-389991647D01*
X714423735Y-390050414D01*
X714446607Y-390125814D01*
X714483750Y-390195303D01*
X714533736Y-390256212D01*
X714548999Y-390268738D01*
X714770260Y-390490000D01*
X713699998Y-390490000D01*
X713699998Y-388914476D01*
X713792110Y-388976022D01*
X713910402Y-389025021D01*
X714035981Y-389050000D01*
X714164019Y-389050000D01*
X714289598Y-389025021D01*
X714407890Y-388976022D01*
X714514351Y-388904888D01*
X714604888Y-388814351D01*
X714676022Y-388707890D01*
X714725021Y-388589598D01*
X714750000Y-388464019D01*
X714750000Y-388335981D01*
X714746633Y-388319053D01*
X714775686Y-388290000D01*
X716125000Y-388290000D01*
X716175000Y-388340000D01*
X716385267Y-388340000D01*
X716400000Y-388341451D01*
X717200000Y-388341451D01*
X717214733Y-388340000D01*
X717425000Y-388340000D01*
X717500000Y-388265000D01*
X717501452Y-388240000D01*
X717495660Y-388181190D01*
X717483164Y-388139998D01*
X717495659Y-388098810D01*
X717501451Y-388040000D01*
X717501451Y-387740000D01*
X717495659Y-387681190D01*
X717483164Y-387640000D01*
X717495659Y-387598810D01*
X717501451Y-387540000D01*
X717501451Y-387290000D01*
X718194315Y-387290000D01*
X718928001Y-388023686D01*
G36*
X716098549Y-389540000D02*
G01*
X716104341Y-389598810D01*
X716116836Y-389639998D01*
X716104340Y-389681190D01*
X716098548Y-389740000D01*
X716100000Y-389765000D01*
X716175000Y-389840000D01*
X716385267Y-389840000D01*
X716400000Y-389841451D01*
X717200000Y-389841451D01*
X717214733Y-389840000D01*
X717425000Y-389840000D01*
X717475000Y-389790000D01*
X717519315Y-389790000D01*
X717658001Y-389928686D01*
X717658000Y-392391314D01*
X717559315Y-392490000D01*
X717501451Y-392490000D01*
X717501451Y-392240000D01*
X717495659Y-392181190D01*
X717483164Y-392140002D01*
X717495660Y-392098810D01*
X717501452Y-392040000D01*
X717500000Y-392015000D01*
X717425000Y-391940000D01*
X717214733Y-391940000D01*
X717200000Y-391938549D01*
X716680000Y-391938549D01*
X716680000Y-391841451D01*
X717200000Y-391841451D01*
X717214733Y-391840000D01*
X717425000Y-391840000D01*
X717500000Y-391765000D01*
X717501452Y-391740000D01*
X717495660Y-391681190D01*
X717483164Y-391639998D01*
X717495659Y-391598810D01*
X717501451Y-391540000D01*
X717501451Y-391240000D01*
X717495659Y-391181190D01*
X717483164Y-391140000D01*
X717495659Y-391098810D01*
X717501451Y-391040000D01*
X717501451Y-390740000D01*
X717495659Y-390681190D01*
X717483164Y-390640000D01*
X717495659Y-390598810D01*
X717501451Y-390540000D01*
X717501451Y-390240000D01*
X717495659Y-390181190D01*
X717483164Y-390140002D01*
X717495660Y-390098810D01*
X717501452Y-390040000D01*
X717500000Y-390015000D01*
X717425000Y-389940000D01*
X717214733Y-389940000D01*
X717200000Y-389938549D01*
X716400000Y-389938549D01*
X716385267Y-389940000D01*
X716175000Y-389940000D01*
X716125000Y-389990000D01*
X715401632Y-389990000D01*
X715217947Y-389806316D01*
X715217947Y-389465684D01*
X715393632Y-389290000D01*
X716098549Y-389290000D01*
X716098549Y-389540000D01*
G37*
X716098549Y-389540000D02*
X716104341Y-389598810D01*
X716116836Y-389639998D01*
X716104340Y-389681190D01*
X716098548Y-389740000D01*
X716100000Y-389765000D01*
X716175000Y-389840000D01*
X716385267Y-389840000D01*
X716400000Y-389841451D01*
X717200000Y-389841451D01*
X717214733Y-389840000D01*
X717425000Y-389840000D01*
X717475000Y-389790000D01*
X717519315Y-389790000D01*
X717658001Y-389928686D01*
X717658000Y-392391314D01*
X717559315Y-392490000D01*
X717501451Y-392490000D01*
X717501451Y-392240000D01*
X717495659Y-392181190D01*
X717483164Y-392140002D01*
X717495660Y-392098810D01*
X717501452Y-392040000D01*
X717500000Y-392015000D01*
X717425000Y-391940000D01*
X717214733Y-391940000D01*
X717200000Y-391938549D01*
X716680000Y-391938549D01*
X716680000Y-391841451D01*
X717200000Y-391841451D01*
X717214733Y-391840000D01*
X717425000Y-391840000D01*
X717500000Y-391765000D01*
X717501452Y-391740000D01*
X717495660Y-391681190D01*
X717483164Y-391639998D01*
X717495659Y-391598810D01*
X717501451Y-391540000D01*
X717501451Y-391240000D01*
X717495659Y-391181190D01*
X717483164Y-391140000D01*
X717495659Y-391098810D01*
X717501451Y-391040000D01*
X717501451Y-390740000D01*
X717495659Y-390681190D01*
X717483164Y-390640000D01*
X717495659Y-390598810D01*
X717501451Y-390540000D01*
X717501451Y-390240000D01*
X717495659Y-390181190D01*
X717483164Y-390140002D01*
X717495660Y-390098810D01*
X717501452Y-390040000D01*
X717500000Y-390015000D01*
X717425000Y-389940000D01*
X717214733Y-389940000D01*
X717200000Y-389938549D01*
X716400000Y-389938549D01*
X716385267Y-389940000D01*
X716175000Y-389940000D01*
X716125000Y-389990000D01*
X715401632Y-389990000D01*
X715217947Y-389806316D01*
X715217947Y-389465684D01*
X715393632Y-389290000D01*
X716098549Y-389290000D01*
X716098549Y-389540000D01*
G36*
X683900000Y-373500000D02*
G01*
X683901921Y-373519509D01*
X683907612Y-373538268D01*
X683916853Y-373555557D01*
X683929289Y-373570711D01*
X683944443Y-373583147D01*
X683961732Y-373592388D01*
X683980491Y-373598079D01*
X684000000Y-373600000D01*
X691900000Y-373600000D01*
X691900000Y-376400000D01*
X678100000Y-376400000D01*
X678100000Y-375365000D01*
X686123548Y-375365000D01*
X686129340Y-375423810D01*
X686146495Y-375480361D01*
X686174352Y-375532478D01*
X686211841Y-375578159D01*
X686257522Y-375615648D01*
X686309639Y-375643505D01*
X686366190Y-375660660D01*
X686425000Y-375666452D01*
X688550000Y-375665000D01*
X688625000Y-375590000D01*
X688625000Y-374915000D01*
X688825000Y-374915000D01*
X688825000Y-375590000D01*
X688900000Y-375665000D01*
X691025000Y-375666452D01*
X691083810Y-375660660D01*
X691140361Y-375643505D01*
X691192478Y-375615648D01*
X691238159Y-375578159D01*
X691275648Y-375532478D01*
X691303505Y-375480361D01*
X691320660Y-375423810D01*
X691326452Y-375365000D01*
X691325000Y-374990000D01*
X691250000Y-374915000D01*
X688825000Y-374915000D01*
X688625000Y-374915000D01*
X686200000Y-374915000D01*
X686125000Y-374990000D01*
X686123548Y-375365000D01*
X678100000Y-375365000D01*
X678100000Y-372650000D01*
X679047097Y-372650000D01*
X679047097Y-374350000D01*
X679058682Y-374467621D01*
X679092990Y-374580721D01*
X679148704Y-374684955D01*
X679223683Y-374776317D01*
X679315045Y-374851296D01*
X679419279Y-374907010D01*
X679532379Y-374941318D01*
X679650000Y-374952903D01*
X681350000Y-374952903D01*
X681467621Y-374941318D01*
X681580721Y-374907010D01*
X681684955Y-374851296D01*
X681776317Y-374776317D01*
X681851296Y-374684955D01*
X681907010Y-374580721D01*
X681941318Y-374467621D01*
X681952903Y-374350000D01*
X681952903Y-374265000D01*
X686123548Y-374265000D01*
X686125000Y-374640000D01*
X686200000Y-374715000D01*
X688625000Y-374715000D01*
X688625000Y-374040000D01*
X688825000Y-374040000D01*
X688825000Y-374715000D01*
X691250000Y-374715000D01*
X691325000Y-374640000D01*
X691326452Y-374265000D01*
X691320660Y-374206190D01*
X691303505Y-374149639D01*
X691275648Y-374097522D01*
X691238159Y-374051841D01*
X691192478Y-374014352D01*
X691140361Y-373986495D01*
X691083810Y-373969340D01*
X691025000Y-373963548D01*
X688900000Y-373965000D01*
X688825000Y-374040000D01*
X688625000Y-374040000D01*
X688550000Y-373965000D01*
X686425000Y-373963548D01*
X686366190Y-373969340D01*
X686309639Y-373986495D01*
X686257522Y-374014352D01*
X686211841Y-374051841D01*
X686174352Y-374097522D01*
X686146495Y-374149639D01*
X686129340Y-374206190D01*
X686123548Y-374265000D01*
X681952903Y-374265000D01*
X681952903Y-372650000D01*
X681941318Y-372532379D01*
X681907010Y-372419279D01*
X681851296Y-372315045D01*
X681776317Y-372223683D01*
X681684955Y-372148704D01*
X681580721Y-372092990D01*
X681467621Y-372058682D01*
X681350000Y-372047097D01*
X680858819Y-372047097D01*
X680990348Y-372000227D01*
X681183864Y-371884577D01*
X681351100Y-371733396D01*
X681485628Y-371552494D01*
X681582279Y-371348823D01*
X681615896Y-371237987D01*
X681570339Y-371060000D01*
X680600000Y-371060000D01*
X680600000Y-371080000D01*
X680400000Y-371080000D01*
X680400000Y-371060000D01*
X679429661Y-371060000D01*
X679384104Y-371237987D01*
X679417721Y-371348823D01*
X679514372Y-371552494D01*
X679648900Y-371733396D01*
X679816136Y-371884577D01*
X680009652Y-372000227D01*
X680141181Y-372047097D01*
X679650000Y-372047097D01*
X679532379Y-372058682D01*
X679419279Y-372092990D01*
X679315045Y-372148704D01*
X679223683Y-372223683D01*
X679148704Y-372315045D01*
X679092990Y-372419279D01*
X679058682Y-372532379D01*
X679047097Y-372650000D01*
X678100000Y-372650000D01*
X678100000Y-370682013D01*
X679384104Y-370682013D01*
X679429661Y-370860000D01*
X680400000Y-370860000D01*
X680400000Y-369889351D01*
X680600000Y-369889351D01*
X680600000Y-370860000D01*
X681570339Y-370860000D01*
X681615896Y-370682013D01*
X681582279Y-370571177D01*
X681485628Y-370367506D01*
X681351100Y-370186604D01*
X681183864Y-370035423D01*
X680990348Y-369919773D01*
X680777988Y-369844099D01*
X680600000Y-369889351D01*
X680400000Y-369889351D01*
X680222012Y-369844099D01*
X680009652Y-369919773D01*
X679816136Y-370035423D01*
X679648900Y-370186604D01*
X679514372Y-370367506D01*
X679417721Y-370571177D01*
X679384104Y-370682013D01*
X678100000Y-370682013D01*
X678100000Y-369100000D01*
X683900000Y-369100000D01*
X683900000Y-373500000D01*
G37*
X683900000Y-373500000D02*
X683901921Y-373519509D01*
X683907612Y-373538268D01*
X683916853Y-373555557D01*
X683929289Y-373570711D01*
X683944443Y-373583147D01*
X683961732Y-373592388D01*
X683980491Y-373598079D01*
X684000000Y-373600000D01*
X691900000Y-373600000D01*
X691900000Y-376400000D01*
X678100000Y-376400000D01*
X678100000Y-375365000D01*
X686123548Y-375365000D01*
X686129340Y-375423810D01*
X686146495Y-375480361D01*
X686174352Y-375532478D01*
X686211841Y-375578159D01*
X686257522Y-375615648D01*
X686309639Y-375643505D01*
X686366190Y-375660660D01*
X686425000Y-375666452D01*
X688550000Y-375665000D01*
X688625000Y-375590000D01*
X688625000Y-374915000D01*
X688825000Y-374915000D01*
X688825000Y-375590000D01*
X688900000Y-375665000D01*
X691025000Y-375666452D01*
X691083810Y-375660660D01*
X691140361Y-375643505D01*
X691192478Y-375615648D01*
X691238159Y-375578159D01*
X691275648Y-375532478D01*
X691303505Y-375480361D01*
X691320660Y-375423810D01*
X691326452Y-375365000D01*
X691325000Y-374990000D01*
X691250000Y-374915000D01*
X688825000Y-374915000D01*
X688625000Y-374915000D01*
X686200000Y-374915000D01*
X686125000Y-374990000D01*
X686123548Y-375365000D01*
X678100000Y-375365000D01*
X678100000Y-372650000D01*
X679047097Y-372650000D01*
X679047097Y-374350000D01*
X679058682Y-374467621D01*
X679092990Y-374580721D01*
X679148704Y-374684955D01*
X679223683Y-374776317D01*
X679315045Y-374851296D01*
X679419279Y-374907010D01*
X679532379Y-374941318D01*
X679650000Y-374952903D01*
X681350000Y-374952903D01*
X681467621Y-374941318D01*
X681580721Y-374907010D01*
X681684955Y-374851296D01*
X681776317Y-374776317D01*
X681851296Y-374684955D01*
X681907010Y-374580721D01*
X681941318Y-374467621D01*
X681952903Y-374350000D01*
X681952903Y-374265000D01*
X686123548Y-374265000D01*
X686125000Y-374640000D01*
X686200000Y-374715000D01*
X688625000Y-374715000D01*
X688625000Y-374040000D01*
X688825000Y-374040000D01*
X688825000Y-374715000D01*
X691250000Y-374715000D01*
X691325000Y-374640000D01*
X691326452Y-374265000D01*
X691320660Y-374206190D01*
X691303505Y-374149639D01*
X691275648Y-374097522D01*
X691238159Y-374051841D01*
X691192478Y-374014352D01*
X691140361Y-373986495D01*
X691083810Y-373969340D01*
X691025000Y-373963548D01*
X688900000Y-373965000D01*
X688825000Y-374040000D01*
X688625000Y-374040000D01*
X688550000Y-373965000D01*
X686425000Y-373963548D01*
X686366190Y-373969340D01*
X686309639Y-373986495D01*
X686257522Y-374014352D01*
X686211841Y-374051841D01*
X686174352Y-374097522D01*
X686146495Y-374149639D01*
X686129340Y-374206190D01*
X686123548Y-374265000D01*
X681952903Y-374265000D01*
X681952903Y-372650000D01*
X681941318Y-372532379D01*
X681907010Y-372419279D01*
X681851296Y-372315045D01*
X681776317Y-372223683D01*
X681684955Y-372148704D01*
X681580721Y-372092990D01*
X681467621Y-372058682D01*
X681350000Y-372047097D01*
X680858819Y-372047097D01*
X680990348Y-372000227D01*
X681183864Y-371884577D01*
X681351100Y-371733396D01*
X681485628Y-371552494D01*
X681582279Y-371348823D01*
X681615896Y-371237987D01*
X681570339Y-371060000D01*
X680600000Y-371060000D01*
X680600000Y-371080000D01*
X680400000Y-371080000D01*
X680400000Y-371060000D01*
X679429661Y-371060000D01*
X679384104Y-371237987D01*
X679417721Y-371348823D01*
X679514372Y-371552494D01*
X679648900Y-371733396D01*
X679816136Y-371884577D01*
X680009652Y-372000227D01*
X680141181Y-372047097D01*
X679650000Y-372047097D01*
X679532379Y-372058682D01*
X679419279Y-372092990D01*
X679315045Y-372148704D01*
X679223683Y-372223683D01*
X679148704Y-372315045D01*
X679092990Y-372419279D01*
X679058682Y-372532379D01*
X679047097Y-372650000D01*
X678100000Y-372650000D01*
X678100000Y-370682013D01*
X679384104Y-370682013D01*
X679429661Y-370860000D01*
X680400000Y-370860000D01*
X680400000Y-369889351D01*
X680600000Y-369889351D01*
X680600000Y-370860000D01*
X681570339Y-370860000D01*
X681615896Y-370682013D01*
X681582279Y-370571177D01*
X681485628Y-370367506D01*
X681351100Y-370186604D01*
X681183864Y-370035423D01*
X680990348Y-369919773D01*
X680777988Y-369844099D01*
X680600000Y-369889351D01*
X680400000Y-369889351D01*
X680222012Y-369844099D01*
X680009652Y-369919773D01*
X679816136Y-370035423D01*
X679648900Y-370186604D01*
X679514372Y-370367506D01*
X679417721Y-370571177D01*
X679384104Y-370682013D01*
X678100000Y-370682013D01*
X678100000Y-369100000D01*
X683900000Y-369100000D01*
X683900000Y-373500000D01*
M02*
