G04 #@! TF.GenerationSoftware,KiCad,Pcbnew,(5.1.5)-2*
G04 #@! TF.CreationDate,2019-12-03T22:48:31+10:00*
G04 #@! TF.ProjectId,teensy-carrier,7465656e-7379-42d6-9361-72726965722e,rev?*
G04 #@! TF.SameCoordinates,Original*
G04 #@! TF.FileFunction,Legend,Bot*
G04 #@! TF.FilePolarity,Positive*
%FSLAX46Y46*%
G04 Gerber Fmt 4.6, Leading zero omitted, Abs format (unit mm)*
G04 Created by KiCad (PCBNEW (5.1.5)-2) date 2019-12-03 22:48:31*
%MOMM*%
%LPD*%
G04 APERTURE LIST*
%ADD10C,0.150000*%
%ADD11C,0.254000*%
G04 APERTURE END LIST*
D10*
X683335595Y-370497619D02*
X683335595Y-369688095D01*
X683383214Y-369592857D01*
X683430833Y-369545238D01*
X683526071Y-369497619D01*
X683716547Y-369497619D01*
X683811785Y-369545238D01*
X683859404Y-369592857D01*
X683907023Y-369688095D01*
X683907023Y-370497619D01*
X684240357Y-370497619D02*
X684573690Y-369497619D01*
X684907023Y-370497619D01*
X685097500Y-370497619D02*
X685668928Y-370497619D01*
X685383214Y-369497619D02*
X685383214Y-370497619D01*
X685859404Y-370497619D02*
X686192738Y-369497619D01*
X686526071Y-370497619D01*
X688192738Y-369592857D02*
X688145119Y-369545238D01*
X688002261Y-369497619D01*
X687907023Y-369497619D01*
X687764166Y-369545238D01*
X687668928Y-369640476D01*
X687621309Y-369735714D01*
X687573690Y-369926190D01*
X687573690Y-370069047D01*
X687621309Y-370259523D01*
X687668928Y-370354761D01*
X687764166Y-370450000D01*
X687907023Y-370497619D01*
X688002261Y-370497619D01*
X688145119Y-370450000D01*
X688192738Y-370402380D01*
X688764166Y-369497619D02*
X688668928Y-369545238D01*
X688621309Y-369592857D01*
X688573690Y-369688095D01*
X688573690Y-369973809D01*
X688621309Y-370069047D01*
X688668928Y-370116666D01*
X688764166Y-370164285D01*
X688907023Y-370164285D01*
X689002261Y-370116666D01*
X689049880Y-370069047D01*
X689097500Y-369973809D01*
X689097500Y-369688095D01*
X689049880Y-369592857D01*
X689002261Y-369545238D01*
X688907023Y-369497619D01*
X688764166Y-369497619D01*
X689526071Y-370164285D02*
X689526071Y-369497619D01*
X689526071Y-370069047D02*
X689573690Y-370116666D01*
X689668928Y-370164285D01*
X689811785Y-370164285D01*
X689907023Y-370116666D01*
X689954642Y-370021428D01*
X689954642Y-369497619D01*
X690287976Y-370164285D02*
X690668928Y-370164285D01*
X690430833Y-370497619D02*
X690430833Y-369640476D01*
X690478452Y-369545238D01*
X690573690Y-369497619D01*
X690668928Y-369497619D01*
X691002261Y-369497619D02*
X691002261Y-370164285D01*
X691002261Y-369973809D02*
X691049880Y-370069047D01*
X691097500Y-370116666D01*
X691192738Y-370164285D01*
X691287976Y-370164285D01*
X691764166Y-369497619D02*
X691668928Y-369545238D01*
X691621309Y-369592857D01*
X691573690Y-369688095D01*
X691573690Y-369973809D01*
X691621309Y-370069047D01*
X691668928Y-370116666D01*
X691764166Y-370164285D01*
X691907023Y-370164285D01*
X692002261Y-370116666D01*
X692049880Y-370069047D01*
X692097500Y-369973809D01*
X692097500Y-369688095D01*
X692049880Y-369592857D01*
X692002261Y-369545238D01*
X691907023Y-369497619D01*
X691764166Y-369497619D01*
X692668928Y-369497619D02*
X692573690Y-369545238D01*
X692526071Y-369640476D01*
X692526071Y-370497619D01*
X694621309Y-369497619D02*
X694573690Y-369497619D01*
X694478452Y-369545238D01*
X694335595Y-369688095D01*
X694097500Y-369973809D01*
X694002261Y-370116666D01*
X693954642Y-370259523D01*
X693954642Y-370354761D01*
X694002261Y-370450000D01*
X694097500Y-370497619D01*
X694145119Y-370497619D01*
X694240357Y-370450000D01*
X694287976Y-370354761D01*
X694287976Y-370307142D01*
X694240357Y-370211904D01*
X694192738Y-370164285D01*
X693907023Y-369973809D01*
X693859404Y-369926190D01*
X693811785Y-369830952D01*
X693811785Y-369688095D01*
X693859404Y-369592857D01*
X693907023Y-369545238D01*
X694002261Y-369497619D01*
X694145119Y-369497619D01*
X694240357Y-369545238D01*
X694287976Y-369592857D01*
X694430833Y-369783333D01*
X694478452Y-369926190D01*
X694478452Y-370021428D01*
X695811785Y-369497619D02*
X695811785Y-370497619D01*
X696192738Y-370497619D01*
X696287976Y-370450000D01*
X696335595Y-370402380D01*
X696383214Y-370307142D01*
X696383214Y-370164285D01*
X696335595Y-370069047D01*
X696287976Y-370021428D01*
X696192738Y-369973809D01*
X695811785Y-369973809D01*
X696954642Y-369497619D02*
X696859404Y-369545238D01*
X696811785Y-369592857D01*
X696764166Y-369688095D01*
X696764166Y-369973809D01*
X696811785Y-370069047D01*
X696859404Y-370116666D01*
X696954642Y-370164285D01*
X697097500Y-370164285D01*
X697192738Y-370116666D01*
X697240357Y-370069047D01*
X697287976Y-369973809D01*
X697287976Y-369688095D01*
X697240357Y-369592857D01*
X697192738Y-369545238D01*
X697097500Y-369497619D01*
X696954642Y-369497619D01*
X697621309Y-370164285D02*
X697811785Y-369497619D01*
X698002261Y-369973809D01*
X698192738Y-369497619D01*
X698383214Y-370164285D01*
X699145119Y-369545238D02*
X699049880Y-369497619D01*
X698859404Y-369497619D01*
X698764166Y-369545238D01*
X698716547Y-369640476D01*
X698716547Y-370021428D01*
X698764166Y-370116666D01*
X698859404Y-370164285D01*
X699049880Y-370164285D01*
X699145119Y-370116666D01*
X699192738Y-370021428D01*
X699192738Y-369926190D01*
X698716547Y-369830952D01*
X699621309Y-369497619D02*
X699621309Y-370164285D01*
X699621309Y-369973809D02*
X699668928Y-370069047D01*
X699716547Y-370116666D01*
X699811785Y-370164285D01*
X699907023Y-370164285D01*
X700907023Y-370164285D02*
X701145119Y-369497619D01*
X701383214Y-370164285D01*
X702287976Y-369497619D02*
X701716547Y-369497619D01*
X702002261Y-369497619D02*
X702002261Y-370497619D01*
X701907023Y-370354761D01*
X701811785Y-370259523D01*
X701716547Y-370211904D01*
X683287976Y-367895238D02*
X683430833Y-367847619D01*
X683668928Y-367847619D01*
X683764166Y-367895238D01*
X683811785Y-367942857D01*
X683859404Y-368038095D01*
X683859404Y-368133333D01*
X683811785Y-368228571D01*
X683764166Y-368276190D01*
X683668928Y-368323809D01*
X683478452Y-368371428D01*
X683383214Y-368419047D01*
X683335595Y-368466666D01*
X683287976Y-368561904D01*
X683287976Y-368657142D01*
X683335595Y-368752380D01*
X683383214Y-368800000D01*
X683478452Y-368847619D01*
X683716547Y-368847619D01*
X683859404Y-368800000D01*
X684621309Y-368371428D02*
X684764166Y-368323809D01*
X684811785Y-368276190D01*
X684859404Y-368180952D01*
X684859404Y-368038095D01*
X684811785Y-367942857D01*
X684764166Y-367895238D01*
X684668928Y-367847619D01*
X684287976Y-367847619D01*
X684287976Y-368847619D01*
X684621309Y-368847619D01*
X684716547Y-368800000D01*
X684764166Y-368752380D01*
X684811785Y-368657142D01*
X684811785Y-368561904D01*
X684764166Y-368466666D01*
X684716547Y-368419047D01*
X684621309Y-368371428D01*
X684287976Y-368371428D01*
X686049880Y-367847619D02*
X686049880Y-368847619D01*
X686430833Y-368847619D01*
X686526071Y-368800000D01*
X686573690Y-368752380D01*
X686621309Y-368657142D01*
X686621309Y-368514285D01*
X686573690Y-368419047D01*
X686526071Y-368371428D01*
X686430833Y-368323809D01*
X686049880Y-368323809D01*
X687192738Y-367847619D02*
X687097500Y-367895238D01*
X687049880Y-367942857D01*
X687002261Y-368038095D01*
X687002261Y-368323809D01*
X687049880Y-368419047D01*
X687097500Y-368466666D01*
X687192738Y-368514285D01*
X687335595Y-368514285D01*
X687430833Y-368466666D01*
X687478452Y-368419047D01*
X687526071Y-368323809D01*
X687526071Y-368038095D01*
X687478452Y-367942857D01*
X687430833Y-367895238D01*
X687335595Y-367847619D01*
X687192738Y-367847619D01*
X687859404Y-368514285D02*
X688049880Y-367847619D01*
X688240357Y-368323809D01*
X688430833Y-367847619D01*
X688621309Y-368514285D01*
X689383214Y-367895238D02*
X689287976Y-367847619D01*
X689097500Y-367847619D01*
X689002261Y-367895238D01*
X688954642Y-367990476D01*
X688954642Y-368371428D01*
X689002261Y-368466666D01*
X689097500Y-368514285D01*
X689287976Y-368514285D01*
X689383214Y-368466666D01*
X689430833Y-368371428D01*
X689430833Y-368276190D01*
X688954642Y-368180952D01*
X690002261Y-367847619D02*
X689907023Y-367895238D01*
X689859404Y-367990476D01*
X689859404Y-368847619D01*
X690526071Y-367847619D02*
X690430833Y-367895238D01*
X690383214Y-367990476D01*
X690383214Y-368847619D01*
X691668928Y-367847619D02*
X691668928Y-368847619D01*
X692049880Y-368847619D01*
X692145119Y-368800000D01*
X692192738Y-368752380D01*
X692240357Y-368657142D01*
X692240357Y-368514285D01*
X692192738Y-368419047D01*
X692145119Y-368371428D01*
X692049880Y-368323809D01*
X691668928Y-368323809D01*
X692668928Y-367847619D02*
X692668928Y-368847619D01*
X693097500Y-367847619D02*
X693097500Y-368371428D01*
X693049880Y-368466666D01*
X692954642Y-368514285D01*
X692811785Y-368514285D01*
X692716547Y-368466666D01*
X692668928Y-368419047D01*
X693573690Y-367847619D02*
X693573690Y-368847619D01*
X693811785Y-368847619D01*
X693954642Y-368800000D01*
X694049880Y-368704761D01*
X694097500Y-368609523D01*
X694145119Y-368419047D01*
X694145119Y-368276190D01*
X694097500Y-368085714D01*
X694049880Y-367990476D01*
X693954642Y-367895238D01*
X693811785Y-367847619D01*
X693573690Y-367847619D01*
X683287976Y-366245238D02*
X683383214Y-366197619D01*
X683573690Y-366197619D01*
X683668928Y-366245238D01*
X683716547Y-366340476D01*
X683716547Y-366388095D01*
X683668928Y-366483333D01*
X683573690Y-366530952D01*
X683430833Y-366530952D01*
X683335595Y-366578571D01*
X683287976Y-366673809D01*
X683287976Y-366721428D01*
X683335595Y-366816666D01*
X683430833Y-366864285D01*
X683573690Y-366864285D01*
X683668928Y-366816666D01*
X684573690Y-366197619D02*
X684573690Y-366721428D01*
X684526071Y-366816666D01*
X684430833Y-366864285D01*
X684240357Y-366864285D01*
X684145119Y-366816666D01*
X684573690Y-366245238D02*
X684478452Y-366197619D01*
X684240357Y-366197619D01*
X684145119Y-366245238D01*
X684097500Y-366340476D01*
X684097500Y-366435714D01*
X684145119Y-366530952D01*
X684240357Y-366578571D01*
X684478452Y-366578571D01*
X684573690Y-366626190D01*
X685049880Y-366197619D02*
X685049880Y-366864285D01*
X685049880Y-366769047D02*
X685097500Y-366816666D01*
X685192738Y-366864285D01*
X685335595Y-366864285D01*
X685430833Y-366816666D01*
X685478452Y-366721428D01*
X685478452Y-366197619D01*
X685478452Y-366721428D02*
X685526071Y-366816666D01*
X685621309Y-366864285D01*
X685764166Y-366864285D01*
X685859404Y-366816666D01*
X685907023Y-366721428D01*
X685907023Y-366197619D01*
X686811785Y-366864285D02*
X686811785Y-366197619D01*
X686383214Y-366864285D02*
X686383214Y-366340476D01*
X686430833Y-366245238D01*
X686526071Y-366197619D01*
X686668928Y-366197619D01*
X686764166Y-366245238D01*
X686811785Y-366292857D01*
X687668928Y-366245238D02*
X687573690Y-366197619D01*
X687383214Y-366197619D01*
X687287976Y-366245238D01*
X687240357Y-366340476D01*
X687240357Y-366721428D01*
X687287976Y-366816666D01*
X687383214Y-366864285D01*
X687573690Y-366864285D01*
X687668928Y-366816666D01*
X687716547Y-366721428D01*
X687716547Y-366626190D01*
X687240357Y-366530952D01*
X688287976Y-366197619D02*
X688192738Y-366245238D01*
X688145119Y-366340476D01*
X688145119Y-367197619D01*
X688668928Y-366292857D02*
X688716547Y-366245238D01*
X688668928Y-366197619D01*
X688621309Y-366245238D01*
X688668928Y-366292857D01*
X688668928Y-366197619D01*
X689145119Y-366864285D02*
X689145119Y-365864285D01*
X689145119Y-366816666D02*
X689240357Y-366864285D01*
X689430833Y-366864285D01*
X689526071Y-366816666D01*
X689573690Y-366769047D01*
X689621309Y-366673809D01*
X689621309Y-366388095D01*
X689573690Y-366292857D01*
X689526071Y-366245238D01*
X689430833Y-366197619D01*
X689240357Y-366197619D01*
X689145119Y-366245238D01*
X690192738Y-366197619D02*
X690097500Y-366245238D01*
X690049880Y-366292857D01*
X690002261Y-366388095D01*
X690002261Y-366673809D01*
X690049880Y-366769047D01*
X690097500Y-366816666D01*
X690192738Y-366864285D01*
X690335595Y-366864285D01*
X690430833Y-366816666D01*
X690478452Y-366769047D01*
X690526071Y-366673809D01*
X690526071Y-366388095D01*
X690478452Y-366292857D01*
X690430833Y-366245238D01*
X690335595Y-366197619D01*
X690192738Y-366197619D01*
X690859404Y-366864285D02*
X691049880Y-366197619D01*
X691240357Y-366673809D01*
X691430833Y-366197619D01*
X691621309Y-366864285D01*
X692383214Y-366245238D02*
X692287976Y-366197619D01*
X692097500Y-366197619D01*
X692002261Y-366245238D01*
X691954642Y-366340476D01*
X691954642Y-366721428D01*
X692002261Y-366816666D01*
X692097500Y-366864285D01*
X692287976Y-366864285D01*
X692383214Y-366816666D01*
X692430833Y-366721428D01*
X692430833Y-366626190D01*
X691954642Y-366530952D01*
X693002261Y-366197619D02*
X692907023Y-366245238D01*
X692859404Y-366340476D01*
X692859404Y-367197619D01*
X693526071Y-366197619D02*
X693430833Y-366245238D01*
X693383214Y-366340476D01*
X693383214Y-367197619D01*
X694526071Y-366673809D02*
X694478452Y-366721428D01*
X694383214Y-366769047D01*
X694287976Y-366769047D01*
X694192738Y-366721428D01*
X694145119Y-366673809D01*
X694097500Y-366578571D01*
X694097500Y-366483333D01*
X694145119Y-366388095D01*
X694192738Y-366340476D01*
X694287976Y-366292857D01*
X694383214Y-366292857D01*
X694478452Y-366340476D01*
X694526071Y-366388095D01*
X694526071Y-366769047D02*
X694526071Y-366388095D01*
X694573690Y-366340476D01*
X694621309Y-366340476D01*
X694716547Y-366388095D01*
X694764166Y-366483333D01*
X694764166Y-366721428D01*
X694668928Y-366864285D01*
X694526071Y-366959523D01*
X694335595Y-367007142D01*
X694145119Y-366959523D01*
X694002261Y-366864285D01*
X693907023Y-366721428D01*
X693859404Y-366530952D01*
X693907023Y-366340476D01*
X694002261Y-366197619D01*
X694145119Y-366102380D01*
X694335595Y-366054761D01*
X694526071Y-366102380D01*
X694668928Y-366197619D01*
X695621309Y-366864285D02*
X695621309Y-366197619D01*
X695192738Y-366864285D02*
X695192738Y-366340476D01*
X695240357Y-366245238D01*
X695335595Y-366197619D01*
X695478452Y-366197619D01*
X695573690Y-366245238D01*
X695621309Y-366292857D01*
X696526071Y-366864285D02*
X696526071Y-365864285D01*
X696526071Y-366245238D02*
X696430833Y-366197619D01*
X696240357Y-366197619D01*
X696145119Y-366245238D01*
X696097500Y-366292857D01*
X696049880Y-366388095D01*
X696049880Y-366673809D01*
X696097500Y-366769047D01*
X696145119Y-366816666D01*
X696240357Y-366864285D01*
X696430833Y-366864285D01*
X696526071Y-366816666D01*
X697002261Y-366292857D02*
X697049880Y-366245238D01*
X697002261Y-366197619D01*
X696954642Y-366245238D01*
X697002261Y-366292857D01*
X697002261Y-366197619D01*
X697859404Y-366245238D02*
X697764166Y-366197619D01*
X697573690Y-366197619D01*
X697478452Y-366245238D01*
X697430833Y-366340476D01*
X697430833Y-366721428D01*
X697478452Y-366816666D01*
X697573690Y-366864285D01*
X697764166Y-366864285D01*
X697859404Y-366816666D01*
X697907023Y-366721428D01*
X697907023Y-366626190D01*
X697430833Y-366530952D01*
X698764166Y-366197619D02*
X698764166Y-367197619D01*
X698764166Y-366245238D02*
X698668928Y-366197619D01*
X698478452Y-366197619D01*
X698383214Y-366245238D01*
X698335595Y-366292857D01*
X698287976Y-366388095D01*
X698287976Y-366673809D01*
X698335595Y-366769047D01*
X698383214Y-366816666D01*
X698478452Y-366864285D01*
X698668928Y-366864285D01*
X698764166Y-366816666D01*
X699668928Y-366864285D02*
X699668928Y-366197619D01*
X699240357Y-366864285D02*
X699240357Y-366340476D01*
X699287976Y-366245238D01*
X699383214Y-366197619D01*
X699526071Y-366197619D01*
X699621309Y-366245238D01*
X699668928Y-366292857D01*
X700145119Y-366292857D02*
X700192738Y-366245238D01*
X700145119Y-366197619D01*
X700097500Y-366245238D01*
X700145119Y-366292857D01*
X700145119Y-366197619D01*
X701049880Y-366197619D02*
X701049880Y-366721428D01*
X701002261Y-366816666D01*
X700907023Y-366864285D01*
X700716547Y-366864285D01*
X700621309Y-366816666D01*
X701049880Y-366245238D02*
X700954642Y-366197619D01*
X700716547Y-366197619D01*
X700621309Y-366245238D01*
X700573690Y-366340476D01*
X700573690Y-366435714D01*
X700621309Y-366530952D01*
X700716547Y-366578571D01*
X700954642Y-366578571D01*
X701049880Y-366626190D01*
X701954642Y-366864285D02*
X701954642Y-366197619D01*
X701526071Y-366864285D02*
X701526071Y-366340476D01*
X701573690Y-366245238D01*
X701668928Y-366197619D01*
X701811785Y-366197619D01*
X701907023Y-366245238D01*
X701954642Y-366292857D01*
D11*
X672000000Y-370350000D02*
X673500000Y-370350000D01*
D10*
G36*
X673300000Y-370400000D02*
G01*
X674750000Y-370400000D01*
X674750000Y-369850000D01*
X674400000Y-369450000D01*
X673900000Y-369450000D01*
X673450000Y-369800000D01*
X673300000Y-370400000D01*
G37*
X673300000Y-370400000D02*
X674750000Y-370400000D01*
X674750000Y-369850000D01*
X674400000Y-369450000D01*
X673900000Y-369450000D01*
X673450000Y-369800000D01*
X673300000Y-370400000D01*
G36*
X670750000Y-370400000D02*
G01*
X672300000Y-370400000D01*
X672150000Y-369800000D01*
X671700000Y-369450000D01*
X671100000Y-369450000D01*
X670750000Y-369800000D01*
X670750000Y-370400000D01*
G37*
X670750000Y-370400000D02*
X672300000Y-370400000D01*
X672150000Y-369800000D01*
X671700000Y-369450000D01*
X671100000Y-369450000D01*
X670750000Y-369800000D01*
X670750000Y-370400000D01*
D11*
X672450000Y-365950000D02*
X671250000Y-365500000D01*
X672450000Y-365950000D02*
X672400000Y-366650000D01*
X673150000Y-365950000D02*
X672400000Y-365950000D01*
X673150000Y-365950000D02*
X673300000Y-366650000D01*
X674400000Y-365500000D02*
X673150000Y-365950000D01*
X674350000Y-367200000D02*
X674400000Y-365500000D01*
X673350000Y-366650000D02*
X674350000Y-367200000D01*
X672400000Y-366650000D02*
X673300000Y-366650000D01*
X671150000Y-367150000D02*
X672400000Y-366650000D01*
X671150000Y-367150000D02*
X671250000Y-365500000D01*
D10*
G36*
X671650000Y-368100000D02*
G01*
X672100000Y-367750000D01*
X672700000Y-367700000D01*
X672850000Y-367850000D01*
X673000000Y-367700000D01*
X673400000Y-367700000D01*
X673950000Y-368050000D01*
X673500000Y-367800000D01*
X672850000Y-367850000D01*
X672200000Y-367800000D01*
X671650000Y-368100000D01*
G37*
X671650000Y-368100000D02*
X672100000Y-367750000D01*
X672700000Y-367700000D01*
X672850000Y-367850000D01*
X673000000Y-367700000D01*
X673400000Y-367700000D01*
X673950000Y-368050000D01*
X673500000Y-367800000D01*
X672850000Y-367850000D01*
X672200000Y-367800000D01*
X671650000Y-368100000D01*
G36*
X672900000Y-369350000D02*
G01*
X672450000Y-369200000D01*
X672300000Y-368900000D01*
X672300000Y-368550000D01*
X672550000Y-368350000D01*
X672850000Y-368300000D01*
X672850000Y-368200000D01*
X672150000Y-368100000D01*
X672150000Y-367900000D01*
X671650000Y-368100000D01*
X671650000Y-368400000D01*
X671900000Y-368800000D01*
X671900000Y-369250000D01*
X672050000Y-369650000D01*
X672450000Y-370000000D01*
X673150000Y-370000000D01*
X673500000Y-369600000D01*
X673700000Y-369150000D01*
X673750000Y-368550000D01*
X673950000Y-368350000D01*
X673950000Y-368050000D01*
X673550000Y-367900000D01*
X673550000Y-368100000D01*
X672900000Y-368200000D01*
X672900000Y-368300000D01*
X673150000Y-368350000D01*
X673450000Y-368500000D01*
X673500000Y-368850000D01*
X673400000Y-369150000D01*
X672900000Y-369350000D01*
G37*
X672900000Y-369350000D02*
X672450000Y-369200000D01*
X672300000Y-368900000D01*
X672300000Y-368550000D01*
X672550000Y-368350000D01*
X672850000Y-368300000D01*
X672850000Y-368200000D01*
X672150000Y-368100000D01*
X672150000Y-367900000D01*
X671650000Y-368100000D01*
X671650000Y-368400000D01*
X671900000Y-368800000D01*
X671900000Y-369250000D01*
X672050000Y-369650000D01*
X672450000Y-370000000D01*
X673150000Y-370000000D01*
X673500000Y-369600000D01*
X673700000Y-369150000D01*
X673750000Y-368550000D01*
X673950000Y-368350000D01*
X673950000Y-368050000D01*
X673550000Y-367900000D01*
X673550000Y-368100000D01*
X672900000Y-368200000D01*
X672900000Y-368300000D01*
X673150000Y-368350000D01*
X673450000Y-368500000D01*
X673500000Y-368850000D01*
X673400000Y-369150000D01*
X672900000Y-369350000D01*
G36*
X674250000Y-371350000D02*
G01*
X674500000Y-371800000D01*
X674900000Y-372200000D01*
X675200000Y-372250000D01*
X675250000Y-371850000D01*
X675050000Y-371150000D01*
X674750000Y-370800000D01*
X674550000Y-371150000D01*
X674250000Y-371350000D01*
G37*
X674250000Y-371350000D02*
X674500000Y-371800000D01*
X674900000Y-372200000D01*
X675200000Y-372250000D01*
X675250000Y-371850000D01*
X675050000Y-371150000D01*
X674750000Y-370800000D01*
X674550000Y-371150000D01*
X674250000Y-371350000D01*
G36*
X669850000Y-370750000D02*
G01*
X670050000Y-371150000D01*
X670300000Y-371350000D01*
X669950000Y-371700000D01*
X669650000Y-372100000D01*
X669350000Y-372250000D01*
X669150000Y-372200000D01*
X669050000Y-372000000D01*
X669050000Y-371650000D01*
X669300000Y-371050000D01*
X669850000Y-370750000D01*
G37*
X669850000Y-370750000D02*
X670050000Y-371150000D01*
X670300000Y-371350000D01*
X669950000Y-371700000D01*
X669650000Y-372100000D01*
X669350000Y-372250000D01*
X669150000Y-372200000D01*
X669050000Y-372000000D01*
X669050000Y-371650000D01*
X669300000Y-371050000D01*
X669850000Y-370750000D01*
G36*
X673700000Y-370300000D02*
G01*
X673600000Y-370200000D01*
X673600000Y-370000000D01*
X673700000Y-369900000D01*
X673900000Y-369900000D01*
X674000000Y-370000000D01*
X674000000Y-370200000D01*
X673900000Y-370300000D01*
X673700000Y-370300000D01*
G37*
X673700000Y-370300000D02*
X673600000Y-370200000D01*
X673600000Y-370000000D01*
X673700000Y-369900000D01*
X673900000Y-369900000D01*
X674000000Y-370000000D01*
X674000000Y-370200000D01*
X673900000Y-370300000D01*
X673700000Y-370300000D01*
G36*
X671500000Y-370300000D02*
G01*
X671400000Y-370200000D01*
X671400000Y-370000000D01*
X671500000Y-369900000D01*
X671700000Y-369900000D01*
X671800000Y-370000000D01*
X671800000Y-370200000D01*
X671700000Y-370300000D01*
X671500000Y-370300000D01*
G37*
X671500000Y-370300000D02*
X671400000Y-370200000D01*
X671400000Y-370000000D01*
X671500000Y-369900000D01*
X671700000Y-369900000D01*
X671800000Y-370000000D01*
X671800000Y-370200000D01*
X671700000Y-370300000D01*
X671500000Y-370300000D01*
D11*
X669335893Y-368906818D02*
X669588779Y-370277723D01*
X669162866Y-367442745D02*
X669335893Y-368906818D01*
X669508920Y-365605999D02*
X669162866Y-367442745D01*
X668697025Y-372746682D02*
X669079814Y-372922389D01*
X675462217Y-373005986D02*
X675653452Y-372719133D01*
X673609724Y-371719859D02*
X674010655Y-372012816D01*
X668510688Y-372393974D02*
X668697025Y-372746682D01*
X675706573Y-371826702D02*
X675462217Y-370817404D01*
X674877886Y-372835999D02*
X675143491Y-373005986D01*
X671516142Y-371858886D02*
X672969456Y-371858886D01*
X670460693Y-371928132D02*
X670854926Y-371719859D01*
X669996692Y-372489041D02*
X670460693Y-371928132D01*
X669510554Y-372842932D02*
X669996692Y-372489041D01*
X668510688Y-371462291D02*
X668510688Y-372393974D01*
X668883361Y-370650396D02*
X668510688Y-371462291D01*
X669588779Y-370277723D02*
X668883361Y-370650396D01*
X675016001Y-370456181D02*
X675450000Y-368950000D01*
X672969456Y-371858886D02*
X673609724Y-371719859D01*
X675653452Y-372719133D02*
X675706573Y-371826702D01*
X669079814Y-372922389D02*
X669510554Y-372842932D01*
X675143491Y-373005986D02*
X675462217Y-373005986D01*
X675700000Y-366650000D02*
X676250000Y-365550000D01*
X670854926Y-371719859D02*
X671516142Y-371858886D01*
X675450000Y-368950000D02*
X675700000Y-366650000D01*
X674010655Y-372012816D02*
X674877886Y-372835999D01*
X675462217Y-370817404D02*
X675016001Y-370456181D01*
M02*
