M48
; DRILL file {KiCad (5.1.5)-2} date 2019-12-03 22:48:19
; FORMAT={-:-/ absolute / inch / decimal}
; #@! TF.CreationDate,2019-12-03T22:48:19+10:00
; #@! TF.GenerationSoftware,Kicad,Pcbnew,(5.1.5)-2
FMAT,2
INCH
T1C0.0118
T2C0.0197
T3C0.0394
T4C0.0433
T5C0.1260
%
G90
G05
T1
X27.0512Y-14.5551
X27.1142Y-14.5551
X27.1811Y-14.5551
X27.3228Y-14.4882
X27.3228Y-14.5669
X27.3228Y-14.6457
X27.3228Y-14.7244
X27.3228Y-14.8031
X27.4016Y-14.4882
X27.4016Y-14.5669
X27.4016Y-14.6457
X27.4016Y-14.7244
X27.4016Y-14.8031
X27.4803Y-14.4882
X27.4803Y-14.5669
X27.4803Y-14.6457
X27.4803Y-14.7244
X27.4803Y-14.8031
X27.5591Y-14.4882
X27.5591Y-14.5669
X27.5591Y-14.6457
X27.5591Y-14.7244
X27.5591Y-14.8031
X27.6378Y-14.4882
X27.6378Y-14.5669
X27.6378Y-14.6457
X27.6378Y-14.7244
X27.6378Y-14.8031
X28.1142Y-15.2913
X28.15Y-15.42
X28.15Y-15.485
X28.17Y-15.34
X28.22Y-15.175
X28.22Y-15.535
X28.28Y-15.29
T2
X26.85Y-15.35
X27.0Y-15.35
T3
X26.7913Y-14.6047
X26.7913Y-14.7047
X27.9134Y-14.6047
X27.9134Y-14.7047
T4
X26.6Y-15.05
X26.6Y-15.65
X26.7Y-15.05
X26.7Y-15.15
X26.7Y-15.65
X26.8Y-15.05
X26.8Y-15.65
X26.9Y-15.05
X26.9Y-15.15
X26.9Y-15.65
X27.0Y-15.05
X27.0Y-15.15
X27.0Y-15.65
X27.1Y-15.05
X27.1Y-15.15
X27.1Y-15.65
X27.2Y-15.05
X27.2Y-15.65
X27.3Y-15.05
X27.3Y-15.65
X27.4Y-15.05
X27.4Y-15.65
X27.5Y-15.05
X27.5Y-15.65
X27.6Y-15.05
X27.6Y-15.65
X27.7Y-15.05
X27.7Y-15.65
X27.8Y-15.05
X27.8Y-15.65
X27.9Y-15.05
X27.9Y-15.15
X27.9Y-15.25
X27.9Y-15.35
X27.9Y-15.45
X27.9Y-15.55
X27.9Y-15.65
T5
X26.4173Y-14.9409
X28.3071Y-14.9409
T0
M30
