M48
;DRILL file {KiCad (5.0.1)-3} date 2019-05-17 2:34:48 PM
;FORMAT={2:4/ absolute / inch / keep zeros}
FMAT,2
INCH,TZ
T1C0.0039
T2C0.0394
T3C0.0866
%
G90
G05
M72
T1
X000335Y005571
X000453Y017003
X000453Y014921
X000453Y004483
X000453Y002397
X000472Y009213
X000472Y010743
X000472Y006575
X000492Y013504
X000492Y009803
X000512Y007264
X000650Y013169
X000669Y007441
X000669Y013858
X000669Y007697
X000709Y015276
X000709Y005433
X000728Y014567
X000768Y012815
X000807Y011398
X000906Y015571
X000906Y007224
X000965Y013524
X001004Y017362
X001004Y015276
X001004Y006929
X001004Y004567
X001004Y002756
X001004Y013189
X001004Y004843
X001167Y016033
X001167Y007687
X001167Y003514
X001181Y011860
X001181Y001427
X001358Y009016
X001358Y008465
X001358Y017362
X001358Y011398
X001358Y011102
X001358Y002756
X001358Y002205
X001358Y016811
X001378Y009764
X001378Y010551
X001535Y008740
X001565Y013189
X001594Y006614
X001594Y004843
X001831Y009764
X001890Y007795
X001929Y001024
X001949Y016201
X002146Y016417
X002146Y008071
X002260Y011786
X002260Y009700
X002260Y003440
X002343Y016280
X002343Y012480
X002343Y007933
X002343Y004134
X002362Y012146
X002362Y003799
X002441Y010807
X002500Y003130
X002598Y010394
X002638Y016083
X002638Y007736
X002795Y011870
X002811Y016319
X002811Y010059
X002811Y007972
X002894Y003543
X002960Y010810
X002988Y008730
X002988Y000384
X003165Y016319
X003165Y007972
X003165Y010059
X003169Y010413
X003169Y001713
X003228Y002067
X003445Y001654
X003507Y011022
X003507Y002676
X003583Y001890
X003602Y012461
X003602Y004114
X003622Y013031
X003622Y004685
X003660Y011202
X003660Y002855
X003681Y003091
X003681Y011437
X003917Y011575
X003917Y003228
X003975Y011277
X003975Y002931
X004067Y017003
X004067Y008656
X004213Y011516
X004213Y003169
X004291Y009640
X004291Y001294
X004488Y010827
X004488Y002480
X004618Y017362
X004618Y010575
X004618Y002229
X004626Y008760
X004705Y011496
X004705Y003150
X004795Y016033
X004795Y009774
X004795Y007687
X004795Y001427
X004921Y015591
X004921Y007244
X004944Y013160
X004944Y004814
X004958Y012665
X004958Y004318
X004972Y017362
X004972Y016811
X004972Y010551
X004972Y008465
X004972Y002205
X004979Y015283
X004979Y006936
X004980Y008760
X005157Y011339
X005157Y002992
X005177Y015591
X005177Y007244
X005313Y013035
X005313Y004689
X005315Y014390
X005315Y009744
X005315Y006043
X005315Y001398
X005332Y013682
X005332Y005336
X005354Y016083
X005527Y012933
X005527Y004586
X005537Y013268
X005537Y004921
X005548Y013583
X005548Y005236
X005571Y014390
X005571Y006043
X005874Y015960
X005874Y007613
X005886Y014252
X005886Y005906
X005984Y012677
X005984Y004331
X006083Y009390
X006083Y001043
X006425Y016319
X006425Y014232
X006425Y007972
X006425Y005886
X006602Y008730
X006602Y000384
X006602Y014990
X006602Y006644
X006779Y016319
X006779Y015768
X006779Y013681
X006779Y007972
X006779Y007421
X006779Y005335
X006779Y014232
X006779Y005886
X007067Y013228
X007067Y004882
X007126Y009370
X007126Y001024
X007165Y012677
X007165Y004331
X007461Y009409
X007461Y001024
X007579Y013386
X007579Y005039
X007656Y001301
X007662Y009664
X007677Y007087
X007681Y017003
X007681Y014916
X007681Y008656
X007681Y006570
X007854Y001024
X007863Y009409
X007933Y013780
X007933Y005433
X008012Y014980
X008228Y008760
X008232Y017362
X008232Y006929
X008248Y009409
X008248Y001024
X008409Y016033
X008409Y007687
X008583Y008780
X008587Y017362
X008587Y016811
X008587Y015276
X008587Y014724
X008587Y008465
X008587Y006929
X008587Y006378
X008858Y012126
X008858Y003780
X008878Y011772
X008878Y011339
X008878Y003425
X008878Y002992
X008917Y009921
X008917Y001575
X008937Y015157
X008976Y013780
X008976Y005433
X009016Y012343
X009016Y003996
X009075Y015945
X009075Y007598
X009134Y012795
X009134Y010886
X009134Y004449
X009134Y002539
X009135Y011140
X009135Y002794
X009154Y013287
X009154Y004941
X009154Y014567
X009154Y013051
X009154Y006220
X009154Y004705
X009277Y010674
X009277Y002327
X009311Y014764
X009311Y014173
X009311Y006417
X009311Y005827
X009488Y009700
X009488Y001353
X009489Y011786
X009489Y003439
X010039Y016319
X010039Y012146
X010039Y010059
X010039Y007972
X010039Y003799
X010039Y001713
X010216Y010817
X010216Y008730
X010216Y002470
X010216Y000384
X010394Y012146
X010394Y011594
X010394Y010059
X010394Y009508
X010394Y003799
X010394Y003248
X010394Y001713
X010394Y001161
X010394Y016594
X010394Y008248
X010610Y016063
X010610Y007717
X010807Y016220
X010807Y007874
X010984Y011890
X010984Y003543
X011295Y017003
X011295Y010743
X011295Y008656
X011295Y002397
X011673Y017067
X011673Y008720
X011831Y010827
X011831Y002480
X011846Y017362
X011846Y011102
X011846Y009016
X011846Y002756
X011909Y011398
X011909Y003051
X012015Y011843
X012015Y003497
X012023Y009774
X012023Y001427
X012201Y017362
X012201Y009016
X012244Y011378
X012244Y003031
X012421Y012441
X012421Y004094
X012462Y016241
X012480Y010945
X012480Y002598
X012559Y011732
X012559Y003386
X012579Y015787
X012579Y007441
X012579Y007913
X012598Y010571
X012598Y002224
X012736Y011929
X012736Y011535
X012736Y003583
X012736Y003189
X012795Y010354
X012795Y002008
X012835Y016201
X012858Y012188
X012858Y003841
X013012Y014370
X013012Y006024
X013031Y012500
X013031Y004154
X013071Y010610
X013071Y002264
X013102Y009700
X013102Y001353
X013108Y013879
X013108Y005532
X013110Y012185
X013110Y003839
X013228Y012835
X013228Y004488
X013307Y012500
X013307Y004154
X013366Y016220
X013458Y010367
X013458Y002021
X013480Y013951
X013653Y016319
X013653Y014232
X013653Y007972
X013653Y005886
X013827Y014986
X013831Y008730
X013831Y006644
X013831Y000384
X013996Y012618
X013996Y004272
X013996Y014508
X013996Y006161
X014008Y016319
X014008Y014232
X014008Y009508
X014008Y007972
X014008Y007421
X014008Y005886
X014008Y001161
X014350Y009646
X014350Y001299
X014390Y014803
X014390Y015138
X014480Y007697
X014547Y009488
X014547Y001142
X014567Y013465
X014567Y005118
X014744Y009646
X014744Y001299
X014909Y017003
X014909Y014916
X014909Y008656
X014909Y006570
X014941Y009469
X014941Y001122
X015039Y007677
X015039Y013470
X015039Y005124
X015118Y013976
X015118Y005630
X015138Y009626
X015138Y001280
X015460Y017362
X015460Y006929
X015472Y008760
X015638Y016033
X015689Y013445
X015689Y005098
X015815Y017362
X015815Y016811
X015815Y015276
X015815Y014724
X015815Y008445
X015815Y006929
X015815Y006378
X015827Y008760
X016099Y013218
X016099Y004872
X016122Y009646
X016122Y001299
X016129Y015092
X016131Y013880
X016131Y005534
X016193Y013630
X016193Y005284
X016358Y009331
X016358Y000984
X016378Y009646
X016378Y001299
X016417Y014134
X016417Y005787
X016594Y014961
X016594Y014567
X016594Y006614
X016594Y006220
X016716Y015960
X016716Y007613
X016849Y014986
X016849Y006640
X016870Y009390
X016870Y001043
X016909Y014272
X016909Y005925
X017008Y014764
X017008Y006417
X017028Y012323
X017028Y003976
X017185Y012520
X017185Y004173
X017264Y013701
X017264Y005354
X017267Y014232
X017267Y005886
X017267Y016319
X017267Y007972
X017421Y012520
X017421Y004173
X017425Y014970
X017425Y006624
X017445Y008730
X017445Y000384
X017622Y010059
X017622Y001713
X017622Y016319
X017622Y007972
X017633Y010807
X017633Y002460
X017638Y010335
X017638Y001988
X017874Y010984
X017874Y002638
X017894Y010492
X017894Y002146
X018031Y009331
X018071Y016220
X018071Y007874
X018130Y011358
X018130Y003012
X018175Y011594
X018175Y003248
X018406Y016063
X018406Y007717
X018445Y011870
X018445Y011594
X018445Y003524
X018445Y003248
X018484Y015512
X018484Y007165
X018523Y017003
X018523Y008656
X018524Y000984
X018526Y010741
X018526Y002394
X018720Y016063
X018720Y007717
X018898Y002480
X019075Y017362
X019075Y011102
X019075Y009016
X019075Y002756
X019252Y009774
X019252Y001427
X019429Y017362
X019429Y016811
X019429Y011102
X019429Y010551
X019429Y009016
X019429Y008465
X019429Y002756
X019862Y012165
X019862Y003819
X020020Y016535
X020020Y008189
X020029Y016211
X020029Y007864
X020098Y012165
X020098Y003819
X020330Y011786
X020330Y009700
X020330Y003440
X020330Y001353
X020335Y012165
X020335Y003819
X020413Y016378
X020413Y008031
X020882Y016319
X020882Y010059
X020882Y007972
X020882Y001713
X020916Y012137
X020916Y003791
X021004Y002067
X021024Y007697
X021059Y010817
X021059Y008730
X021059Y002470
X021059Y000384
X021154Y006132
X021161Y014488
X021233Y007992
X021236Y016319
X021236Y015768
X021236Y012146
X021236Y011594
X021236Y010059
X021236Y009508
X021236Y003799
X021236Y003248
X021236Y001713
X021299Y006319
X021378Y014606
T2
X005929Y017047
X006929Y017047
X013157Y017047
X014157Y017047
T3
X020283Y002087
X007634Y015650
X014862Y015650
X002213Y002087
T0
M30
