M48
;DRILL file {KiCad (5.0.1)-3} date 2019-05-17 2:34:48 PM
;FORMAT={2:4/ absolute / inch / keep zeros}
FMAT,2
INCH,TZ
T1C0.0039
%
G90
G05
M72
T1
X000453Y008656
X001181Y013947
X001181Y005600
X002260Y015960
X002260Y013873
X002260Y007613
X002260Y005527
X002811Y014232
X002811Y005886
X002988Y014990
X002988Y006644
X002988Y012904
X002988Y004557
X003037Y002479
X003165Y014232
X003165Y013681
X003165Y005886
X003165Y005335
X004067Y014916
X004067Y010743
X004067Y006570
X004067Y002397
X005874Y011786
X005874Y003440
X006142Y010059
X006142Y001713
X006181Y012455
X006181Y004109
X006417Y012559
X006417Y004213
X006425Y010059
X006425Y001713
X006602Y010817
X006602Y002470
X006772Y012579
X006772Y004232
X006779Y010059
X006779Y001713
X007681Y010743
X007681Y002397
X007972Y012520
X007972Y004173
X008409Y013947
X008409Y005600
X009499Y013862
X009499Y005516
X010052Y014245
X010052Y005899
X010216Y014990
X010216Y006644
X010217Y012894
X010217Y004547
X010394Y014232
X010394Y005886
X010394Y013957
X010394Y005610
X011295Y014916
X011295Y006570
X011846Y015276
X011846Y013189
X011846Y006929
X011846Y004843
X012023Y013947
X012023Y005600
X012201Y015276
X012201Y014724
X012201Y012638
X012201Y006929
X012201Y006378
X012201Y004291
X013366Y011437
X013366Y003091
X013653Y010059
X013653Y001713
X014008Y010059
X014008Y001713
X014409Y010807
X014409Y002461
X014909Y012830
X014909Y010743
X014909Y004483
X014909Y002397
X015460Y011102
X015460Y002756
X015638Y011860
X015638Y003514
X015815Y013189
X015815Y012638
X015815Y011102
X015815Y010551
X015815Y004843
X015815Y004291
X015815Y002756
X015815Y002205
X016716Y011786
X016716Y003440
X017622Y014232
X017622Y013681
X017622Y005886
X017622Y005335
X018523Y014916
X018523Y006570
X018524Y012829
X018524Y004483
X019075Y015276
X019075Y006929
X019252Y016033
X019252Y013947
X019252Y011860
X019252Y007687
X019252Y005600
X019252Y003514
X019429Y015276
X019429Y014724
X019429Y006929
X019429Y006378
X020330Y015960
X020330Y013873
X020330Y007613
X020330Y005527
X020866Y015000
X020866Y006654
X020882Y014232
X020882Y005886
X021059Y012904
X021059Y004557
T0
M30
