G04 #@! TF.GenerationSoftware,KiCad,Pcbnew,(5.0.1)-3*
G04 #@! TF.CreationDate,2019-05-17T14:34:38+10:00*
G04 #@! TF.ProjectId,UVTV,555654562E6B696361645F7063620000,1*
G04 #@! TF.SameCoordinates,PX30291a0PY5aa5910*
G04 #@! TF.FileFunction,Legend,Bot*
G04 #@! TF.FilePolarity,Positive*
%FSLAX46Y46*%
G04 Gerber Fmt 4.6, Leading zero omitted, Abs format (unit mm)*
G04 Created by KiCad (PCBNEW (5.0.1)-3) date 2019-05-17 2:34:38 PM*
%MOMM*%
%LPD*%
G01*
G04 APERTURE LIST*
%ADD10C,0.200000*%
%ADD11C,0.300000*%
%ADD12C,0.254000*%
%ADD13C,0.150000*%
%ADD14C,0.120000*%
%ADD15C,0.100000*%
%ADD16C,2.000000*%
%ADD17R,5.600000X5.600000*%
%ADD18R,0.280000X0.690000*%
%ADD19R,0.690000X0.280000*%
%ADD20C,0.950000*%
%ADD21C,2.200000*%
%ADD22R,0.800000X0.400000*%
%ADD23R,0.800000X0.300000*%
%ADD24O,1.700000X1.700000*%
%ADD25R,1.700000X1.700000*%
G04 APERTURE END LIST*
D10*
X28129523Y23195239D02*
X27986666Y23147620D01*
X27748571Y23147620D01*
X27653333Y23195239D01*
X27605714Y23242858D01*
X27558095Y23338096D01*
X27558095Y23433334D01*
X27605714Y23528572D01*
X27653333Y23576191D01*
X27748571Y23623810D01*
X27939047Y23671429D01*
X28034285Y23719048D01*
X28081904Y23766667D01*
X28129523Y23861905D01*
X28129523Y23957143D01*
X28081904Y24052381D01*
X28034285Y24100000D01*
X27939047Y24147620D01*
X27700952Y24147620D01*
X27558095Y24100000D01*
X26796190Y23671429D02*
X26653333Y23623810D01*
X26605714Y23576191D01*
X26558095Y23480953D01*
X26558095Y23338096D01*
X26605714Y23242858D01*
X26653333Y23195239D01*
X26748571Y23147620D01*
X27129523Y23147620D01*
X27129523Y24147620D01*
X26796190Y24147620D01*
X26700952Y24100000D01*
X26653333Y24052381D01*
X26605714Y23957143D01*
X26605714Y23861905D01*
X26653333Y23766667D01*
X26700952Y23719048D01*
X26796190Y23671429D01*
X27129523Y23671429D01*
X25367619Y23147620D02*
X25367619Y24147620D01*
X24986666Y24147620D01*
X24891428Y24100000D01*
X24843809Y24052381D01*
X24796190Y23957143D01*
X24796190Y23814286D01*
X24843809Y23719048D01*
X24891428Y23671429D01*
X24986666Y23623810D01*
X25367619Y23623810D01*
X24224761Y23147620D02*
X24320000Y23195239D01*
X24367619Y23242858D01*
X24415238Y23338096D01*
X24415238Y23623810D01*
X24367619Y23719048D01*
X24320000Y23766667D01*
X24224761Y23814286D01*
X24081904Y23814286D01*
X23986666Y23766667D01*
X23939047Y23719048D01*
X23891428Y23623810D01*
X23891428Y23338096D01*
X23939047Y23242858D01*
X23986666Y23195239D01*
X24081904Y23147620D01*
X24224761Y23147620D01*
X23558095Y23814286D02*
X23367619Y23147620D01*
X23177142Y23623810D01*
X22986666Y23147620D01*
X22796190Y23814286D01*
X22034285Y23195239D02*
X22129523Y23147620D01*
X22320000Y23147620D01*
X22415238Y23195239D01*
X22462857Y23290477D01*
X22462857Y23671429D01*
X22415238Y23766667D01*
X22320000Y23814286D01*
X22129523Y23814286D01*
X22034285Y23766667D01*
X21986666Y23671429D01*
X21986666Y23576191D01*
X22462857Y23480953D01*
X21415238Y23147620D02*
X21510476Y23195239D01*
X21558095Y23290477D01*
X21558095Y24147620D01*
X20891428Y23147620D02*
X20986666Y23195239D01*
X21034285Y23290477D01*
X21034285Y24147620D01*
X19748571Y23147620D02*
X19748571Y24147620D01*
X19367619Y24147620D01*
X19272380Y24100000D01*
X19224761Y24052381D01*
X19177142Y23957143D01*
X19177142Y23814286D01*
X19224761Y23719048D01*
X19272380Y23671429D01*
X19367619Y23623810D01*
X19748571Y23623810D01*
X18748571Y23147620D02*
X18748571Y24147620D01*
X18320000Y23147620D02*
X18320000Y23671429D01*
X18367619Y23766667D01*
X18462857Y23814286D01*
X18605714Y23814286D01*
X18700952Y23766667D01*
X18748571Y23719048D01*
X17843809Y23147620D02*
X17843809Y24147620D01*
X17605714Y24147620D01*
X17462857Y24100000D01*
X17367619Y24004762D01*
X17320000Y23909524D01*
X17272380Y23719048D01*
X17272380Y23576191D01*
X17320000Y23385715D01*
X17367619Y23290477D01*
X17462857Y23195239D01*
X17605714Y23147620D01*
X17843809Y23147620D01*
X28129523Y21495239D02*
X28034285Y21447620D01*
X27843809Y21447620D01*
X27748571Y21495239D01*
X27700952Y21590477D01*
X27700952Y21638096D01*
X27748571Y21733334D01*
X27843809Y21780953D01*
X27986666Y21780953D01*
X28081904Y21828572D01*
X28129523Y21923810D01*
X28129523Y21971429D01*
X28081904Y22066667D01*
X27986666Y22114286D01*
X27843809Y22114286D01*
X27748571Y22066667D01*
X26843809Y21447620D02*
X26843809Y21971429D01*
X26891428Y22066667D01*
X26986666Y22114286D01*
X27177142Y22114286D01*
X27272380Y22066667D01*
X26843809Y21495239D02*
X26939047Y21447620D01*
X27177142Y21447620D01*
X27272380Y21495239D01*
X27320000Y21590477D01*
X27320000Y21685715D01*
X27272380Y21780953D01*
X27177142Y21828572D01*
X26939047Y21828572D01*
X26843809Y21876191D01*
X26367619Y21447620D02*
X26367619Y22114286D01*
X26367619Y22019048D02*
X26320000Y22066667D01*
X26224761Y22114286D01*
X26081904Y22114286D01*
X25986666Y22066667D01*
X25939047Y21971429D01*
X25939047Y21447620D01*
X25939047Y21971429D02*
X25891428Y22066667D01*
X25796190Y22114286D01*
X25653333Y22114286D01*
X25558095Y22066667D01*
X25510476Y21971429D01*
X25510476Y21447620D01*
X24605714Y22114286D02*
X24605714Y21447620D01*
X25034285Y22114286D02*
X25034285Y21590477D01*
X24986666Y21495239D01*
X24891428Y21447620D01*
X24748571Y21447620D01*
X24653333Y21495239D01*
X24605714Y21542858D01*
X23748571Y21495239D02*
X23843809Y21447620D01*
X24034285Y21447620D01*
X24129523Y21495239D01*
X24177142Y21590477D01*
X24177142Y21971429D01*
X24129523Y22066667D01*
X24034285Y22114286D01*
X23843809Y22114286D01*
X23748571Y22066667D01*
X23700952Y21971429D01*
X23700952Y21876191D01*
X24177142Y21780953D01*
X23129523Y21447620D02*
X23224761Y21495239D01*
X23272380Y21590477D01*
X23272380Y22447620D01*
X22748571Y21542858D02*
X22700952Y21495239D01*
X22748571Y21447620D01*
X22796190Y21495239D01*
X22748571Y21542858D01*
X22748571Y21447620D01*
X22272380Y22114286D02*
X22272380Y21114286D01*
X22272380Y22066667D02*
X22177142Y22114286D01*
X21986666Y22114286D01*
X21891428Y22066667D01*
X21843809Y22019048D01*
X21796190Y21923810D01*
X21796190Y21638096D01*
X21843809Y21542858D01*
X21891428Y21495239D01*
X21986666Y21447620D01*
X22177142Y21447620D01*
X22272380Y21495239D01*
X21224761Y21447620D02*
X21320000Y21495239D01*
X21367619Y21542858D01*
X21415238Y21638096D01*
X21415238Y21923810D01*
X21367619Y22019048D01*
X21320000Y22066667D01*
X21224761Y22114286D01*
X21081904Y22114286D01*
X20986666Y22066667D01*
X20939047Y22019048D01*
X20891428Y21923810D01*
X20891428Y21638096D01*
X20939047Y21542858D01*
X20986666Y21495239D01*
X21081904Y21447620D01*
X21224761Y21447620D01*
X20558095Y22114286D02*
X20367619Y21447620D01*
X20177142Y21923810D01*
X19986666Y21447620D01*
X19796190Y22114286D01*
X19034285Y21495239D02*
X19129523Y21447620D01*
X19320000Y21447620D01*
X19415238Y21495239D01*
X19462857Y21590477D01*
X19462857Y21971429D01*
X19415238Y22066667D01*
X19320000Y22114286D01*
X19129523Y22114286D01*
X19034285Y22066667D01*
X18986666Y21971429D01*
X18986666Y21876191D01*
X19462857Y21780953D01*
X18415238Y21447620D02*
X18510476Y21495239D01*
X18558095Y21590477D01*
X18558095Y22447620D01*
X17891428Y21447620D02*
X17986666Y21495239D01*
X18034285Y21590477D01*
X18034285Y22447620D01*
X16891428Y21923810D02*
X16939047Y21971429D01*
X17034285Y22019048D01*
X17129523Y22019048D01*
X17224761Y21971429D01*
X17272380Y21923810D01*
X17320000Y21828572D01*
X17320000Y21733334D01*
X17272380Y21638096D01*
X17224761Y21590477D01*
X17129523Y21542858D01*
X17034285Y21542858D01*
X16939047Y21590477D01*
X16891428Y21638096D01*
X16891428Y22019048D02*
X16891428Y21638096D01*
X16843809Y21590477D01*
X16796190Y21590477D01*
X16700952Y21638096D01*
X16653333Y21733334D01*
X16653333Y21971429D01*
X16748571Y22114286D01*
X16891428Y22209524D01*
X17081904Y22257143D01*
X17272380Y22209524D01*
X17415238Y22114286D01*
X17510476Y21971429D01*
X17558095Y21780953D01*
X17510476Y21590477D01*
X17415238Y21447620D01*
X17272380Y21352381D01*
X17081904Y21304762D01*
X16891428Y21352381D01*
X16748571Y21447620D01*
X15796190Y22114286D02*
X15796190Y21447620D01*
X16224761Y22114286D02*
X16224761Y21590477D01*
X16177142Y21495239D01*
X16081904Y21447620D01*
X15939047Y21447620D01*
X15843809Y21495239D01*
X15796190Y21542858D01*
X14891428Y22114286D02*
X14891428Y21114286D01*
X14891428Y21495239D02*
X14986666Y21447620D01*
X15177142Y21447620D01*
X15272380Y21495239D01*
X15320000Y21542858D01*
X15367619Y21638096D01*
X15367619Y21923810D01*
X15320000Y22019048D01*
X15272380Y22066667D01*
X15177142Y22114286D01*
X14986666Y22114286D01*
X14891428Y22066667D01*
X14415238Y21542858D02*
X14367619Y21495239D01*
X14415238Y21447620D01*
X14462857Y21495239D01*
X14415238Y21542858D01*
X14415238Y21447620D01*
X13558095Y21495239D02*
X13653333Y21447620D01*
X13843809Y21447620D01*
X13939047Y21495239D01*
X13986666Y21590477D01*
X13986666Y21971429D01*
X13939047Y22066667D01*
X13843809Y22114286D01*
X13653333Y22114286D01*
X13558095Y22066667D01*
X13510476Y21971429D01*
X13510476Y21876191D01*
X13986666Y21780953D01*
X12653333Y21447620D02*
X12653333Y22447620D01*
X12653333Y21495239D02*
X12748571Y21447620D01*
X12939047Y21447620D01*
X13034285Y21495239D01*
X13081904Y21542858D01*
X13129523Y21638096D01*
X13129523Y21923810D01*
X13081904Y22019048D01*
X13034285Y22066667D01*
X12939047Y22114286D01*
X12748571Y22114286D01*
X12653333Y22066667D01*
X11748571Y22114286D02*
X11748571Y21447620D01*
X12177142Y22114286D02*
X12177142Y21590477D01*
X12129523Y21495239D01*
X12034285Y21447620D01*
X11891428Y21447620D01*
X11796190Y21495239D01*
X11748571Y21542858D01*
X11272380Y21542858D02*
X11224761Y21495239D01*
X11272380Y21447620D01*
X11320000Y21495239D01*
X11272380Y21542858D01*
X11272380Y21447620D01*
X10367619Y21447620D02*
X10367619Y21971429D01*
X10415238Y22066667D01*
X10510476Y22114286D01*
X10700952Y22114286D01*
X10796190Y22066667D01*
X10367619Y21495239D02*
X10462857Y21447620D01*
X10700952Y21447620D01*
X10796190Y21495239D01*
X10843809Y21590477D01*
X10843809Y21685715D01*
X10796190Y21780953D01*
X10700952Y21828572D01*
X10462857Y21828572D01*
X10367619Y21876191D01*
X9462857Y22114286D02*
X9462857Y21447620D01*
X9891428Y22114286D02*
X9891428Y21590477D01*
X9843809Y21495239D01*
X9748571Y21447620D01*
X9605714Y21447620D01*
X9510476Y21495239D01*
X9462857Y21542858D01*
D11*
X10621428Y44221429D02*
X10478571Y44221429D01*
X10335714Y44150000D01*
X10264285Y44078572D01*
X10192857Y43935715D01*
X10121428Y43650000D01*
X10121428Y43292858D01*
X10192857Y43007143D01*
X10264285Y42864286D01*
X10335714Y42792858D01*
X10478571Y42721429D01*
X10621428Y42721429D01*
X10764285Y42792858D01*
X10835714Y42864286D01*
X10907142Y43007143D01*
X10978571Y43292858D01*
X10978571Y43650000D01*
X10907142Y43935715D01*
X10835714Y44078572D01*
X10764285Y44150000D01*
X10621428Y44221429D01*
X8764285Y44221429D02*
X9478571Y44221429D01*
X9550000Y43507143D01*
X9478571Y43578572D01*
X9335714Y43650000D01*
X8978571Y43650000D01*
X8835714Y43578572D01*
X8764285Y43507143D01*
X8692857Y43364286D01*
X8692857Y43007143D01*
X8764285Y42864286D01*
X8835714Y42792858D01*
X8978571Y42721429D01*
X9335714Y42721429D01*
X9478571Y42792858D01*
X9550000Y42864286D01*
X8050000Y43292858D02*
X6907142Y43292858D01*
X6264285Y44078572D02*
X6192857Y44150000D01*
X6050000Y44221429D01*
X5692857Y44221429D01*
X5550000Y44150000D01*
X5478571Y44078572D01*
X5407142Y43935715D01*
X5407142Y43792858D01*
X5478571Y43578572D01*
X6335714Y42721429D01*
X5407142Y42721429D01*
X4478571Y44221429D02*
X4335714Y44221429D01*
X4192857Y44150000D01*
X4121428Y44078572D01*
X4050000Y43935715D01*
X3978571Y43650000D01*
X3978571Y43292858D01*
X4050000Y43007143D01*
X4121428Y42864286D01*
X4192857Y42792858D01*
X4335714Y42721429D01*
X4478571Y42721429D01*
X4621428Y42792858D01*
X4692857Y42864286D01*
X4764285Y43007143D01*
X4835714Y43292858D01*
X4835714Y43650000D01*
X4764285Y43935715D01*
X4692857Y44078572D01*
X4621428Y44150000D01*
X4478571Y44221429D01*
X2550000Y42721429D02*
X3407142Y42721429D01*
X2978571Y42721429D02*
X2978571Y44221429D01*
X3121428Y44007143D01*
X3264285Y43864286D01*
X3407142Y43792858D01*
X1835714Y42721429D02*
X1550000Y42721429D01*
X1407142Y42792858D01*
X1335714Y42864286D01*
X1192857Y43078572D01*
X1121428Y43364286D01*
X1121428Y43935715D01*
X1192857Y44078572D01*
X1264285Y44150000D01*
X1407142Y44221429D01*
X1692857Y44221429D01*
X1835714Y44150000D01*
X1907142Y44078572D01*
X1978571Y43935715D01*
X1978571Y43578572D01*
X1907142Y43435715D01*
X1835714Y43364286D01*
X1692857Y43292858D01*
X1407142Y43292858D01*
X1264285Y43364286D01*
X1192857Y43435715D01*
X1121428Y43578572D01*
X52890714Y28521429D02*
X51962142Y28521429D01*
X52462142Y27950000D01*
X52247857Y27950000D01*
X52105000Y27878572D01*
X52033571Y27807143D01*
X51962142Y27664286D01*
X51962142Y27307143D01*
X52033571Y27164286D01*
X52105000Y27092858D01*
X52247857Y27021429D01*
X52676428Y27021429D01*
X52819285Y27092858D01*
X52890714Y27164286D01*
X50676428Y28521429D02*
X50962142Y28521429D01*
X51105000Y28450000D01*
X51176428Y28378572D01*
X51319285Y28164286D01*
X51390714Y27878572D01*
X51390714Y27307143D01*
X51319285Y27164286D01*
X51247857Y27092858D01*
X51105000Y27021429D01*
X50819285Y27021429D01*
X50676428Y27092858D01*
X50605000Y27164286D01*
X50533571Y27307143D01*
X50533571Y27664286D01*
X50605000Y27807143D01*
X50676428Y27878572D01*
X50819285Y27950000D01*
X51105000Y27950000D01*
X51247857Y27878572D01*
X51319285Y27807143D01*
X51390714Y27664286D01*
X49176428Y28521429D02*
X49890714Y28521429D01*
X49962142Y27807143D01*
X49890714Y27878572D01*
X49747857Y27950000D01*
X49390714Y27950000D01*
X49247857Y27878572D01*
X49176428Y27807143D01*
X49105000Y27664286D01*
X49105000Y27307143D01*
X49176428Y27164286D01*
X49247857Y27092858D01*
X49390714Y27021429D01*
X49747857Y27021429D01*
X49890714Y27092858D01*
X49962142Y27164286D01*
X47319285Y28021429D02*
X47319285Y27021429D01*
X47319285Y27878572D02*
X47247857Y27950000D01*
X47105000Y28021429D01*
X46890714Y28021429D01*
X46747857Y27950000D01*
X46676428Y27807143D01*
X46676428Y27021429D01*
X45962142Y27021429D02*
X45962142Y28021429D01*
X45962142Y27878572D02*
X45890714Y27950000D01*
X45747857Y28021429D01*
X45533571Y28021429D01*
X45390714Y27950000D01*
X45319285Y27807143D01*
X45319285Y27021429D01*
X45319285Y27807143D02*
X45247857Y27950000D01*
X45105000Y28021429D01*
X44890714Y28021429D01*
X44747857Y27950000D01*
X44676428Y27807143D01*
X44676428Y27021429D01*
X52890714Y25971429D02*
X51962142Y25971429D01*
X52462142Y25400000D01*
X52247857Y25400000D01*
X52105000Y25328572D01*
X52033571Y25257143D01*
X51962142Y25114286D01*
X51962142Y24757143D01*
X52033571Y24614286D01*
X52105000Y24542858D01*
X52247857Y24471429D01*
X52676428Y24471429D01*
X52819285Y24542858D01*
X52890714Y24614286D01*
X51247857Y24471429D02*
X50962142Y24471429D01*
X50819285Y24542858D01*
X50747857Y24614286D01*
X50605000Y24828572D01*
X50533571Y25114286D01*
X50533571Y25685715D01*
X50605000Y25828572D01*
X50676428Y25900000D01*
X50819285Y25971429D01*
X51105000Y25971429D01*
X51247857Y25900000D01*
X51319285Y25828572D01*
X51390714Y25685715D01*
X51390714Y25328572D01*
X51319285Y25185715D01*
X51247857Y25114286D01*
X51105000Y25042858D01*
X50819285Y25042858D01*
X50676428Y25114286D01*
X50605000Y25185715D01*
X50533571Y25328572D01*
X49176428Y25971429D02*
X49890714Y25971429D01*
X49962142Y25257143D01*
X49890714Y25328572D01*
X49747857Y25400000D01*
X49390714Y25400000D01*
X49247857Y25328572D01*
X49176428Y25257143D01*
X49105000Y25114286D01*
X49105000Y24757143D01*
X49176428Y24614286D01*
X49247857Y24542858D01*
X49390714Y24471429D01*
X49747857Y24471429D01*
X49890714Y24542858D01*
X49962142Y24614286D01*
X47319285Y25471429D02*
X47319285Y24471429D01*
X47319285Y25328572D02*
X47247857Y25400000D01*
X47105000Y25471429D01*
X46890714Y25471429D01*
X46747857Y25400000D01*
X46676428Y25257143D01*
X46676428Y24471429D01*
X45962142Y24471429D02*
X45962142Y25471429D01*
X45962142Y25328572D02*
X45890714Y25400000D01*
X45747857Y25471429D01*
X45533571Y25471429D01*
X45390714Y25400000D01*
X45319285Y25257143D01*
X45319285Y24471429D01*
X45319285Y25257143D02*
X45247857Y25400000D01*
X45105000Y25471429D01*
X44890714Y25471429D01*
X44747857Y25400000D01*
X44676428Y25257143D01*
X44676428Y24471429D01*
X52105000Y22921429D02*
X52105000Y21921429D01*
X52462142Y23492858D02*
X52819285Y22421429D01*
X51890714Y22421429D01*
X50676428Y23421429D02*
X50962142Y23421429D01*
X51105000Y23350000D01*
X51176428Y23278572D01*
X51319285Y23064286D01*
X51390714Y22778572D01*
X51390714Y22207143D01*
X51319285Y22064286D01*
X51247857Y21992858D01*
X51105000Y21921429D01*
X50819285Y21921429D01*
X50676428Y21992858D01*
X50605000Y22064286D01*
X50533571Y22207143D01*
X50533571Y22564286D01*
X50605000Y22707143D01*
X50676428Y22778572D01*
X50819285Y22850000D01*
X51105000Y22850000D01*
X51247857Y22778572D01*
X51319285Y22707143D01*
X51390714Y22564286D01*
X49676428Y22778572D02*
X49819285Y22850000D01*
X49890714Y22921429D01*
X49962142Y23064286D01*
X49962142Y23135715D01*
X49890714Y23278572D01*
X49819285Y23350000D01*
X49676428Y23421429D01*
X49390714Y23421429D01*
X49247857Y23350000D01*
X49176428Y23278572D01*
X49105000Y23135715D01*
X49105000Y23064286D01*
X49176428Y22921429D01*
X49247857Y22850000D01*
X49390714Y22778572D01*
X49676428Y22778572D01*
X49819285Y22707143D01*
X49890714Y22635715D01*
X49962142Y22492858D01*
X49962142Y22207143D01*
X49890714Y22064286D01*
X49819285Y21992858D01*
X49676428Y21921429D01*
X49390714Y21921429D01*
X49247857Y21992858D01*
X49176428Y22064286D01*
X49105000Y22207143D01*
X49105000Y22492858D01*
X49176428Y22635715D01*
X49247857Y22707143D01*
X49390714Y22778572D01*
X48390714Y21992858D02*
X48390714Y21921429D01*
X48462142Y21778572D01*
X48533571Y21707143D01*
X45890714Y23421429D02*
X46605000Y23421429D01*
X46676428Y22707143D01*
X46605000Y22778572D01*
X46462142Y22850000D01*
X46105000Y22850000D01*
X45962142Y22778572D01*
X45890714Y22707143D01*
X45819285Y22564286D01*
X45819285Y22207143D01*
X45890714Y22064286D01*
X45962142Y21992858D01*
X46105000Y21921429D01*
X46462142Y21921429D01*
X46605000Y21992858D01*
X46676428Y22064286D01*
X44390714Y21921429D02*
X45247857Y21921429D01*
X44819285Y21921429D02*
X44819285Y23421429D01*
X44962142Y23207143D01*
X45105000Y23064286D01*
X45247857Y22992858D01*
X43533571Y22778572D02*
X43676428Y22850000D01*
X43747857Y22921429D01*
X43819285Y23064286D01*
X43819285Y23135715D01*
X43747857Y23278572D01*
X43676428Y23350000D01*
X43533571Y23421429D01*
X43247857Y23421429D01*
X43105000Y23350000D01*
X43033571Y23278572D01*
X42962142Y23135715D01*
X42962142Y23064286D01*
X43033571Y22921429D01*
X43105000Y22850000D01*
X43247857Y22778572D01*
X43533571Y22778572D01*
X43676428Y22707143D01*
X43747857Y22635715D01*
X43819285Y22492858D01*
X43819285Y22207143D01*
X43747857Y22064286D01*
X43676428Y21992858D01*
X43533571Y21921429D01*
X43247857Y21921429D01*
X43105000Y21992858D01*
X43033571Y22064286D01*
X42962142Y22207143D01*
X42962142Y22492858D01*
X43033571Y22635715D01*
X43105000Y22707143D01*
X43247857Y22778572D01*
X42247857Y21992858D02*
X42247857Y21921429D01*
X42319285Y21778572D01*
X42390714Y21707143D01*
X39819285Y23421429D02*
X40105000Y23421429D01*
X40247857Y23350000D01*
X40319285Y23278572D01*
X40462142Y23064286D01*
X40533571Y22778572D01*
X40533571Y22207143D01*
X40462142Y22064286D01*
X40390714Y21992858D01*
X40247857Y21921429D01*
X39962142Y21921429D01*
X39819285Y21992858D01*
X39747857Y22064286D01*
X39676428Y22207143D01*
X39676428Y22564286D01*
X39747857Y22707143D01*
X39819285Y22778572D01*
X39962142Y22850000D01*
X40247857Y22850000D01*
X40390714Y22778572D01*
X40462142Y22707143D01*
X40533571Y22564286D01*
X39176428Y23421429D02*
X38247857Y23421429D01*
X38747857Y22850000D01*
X38533571Y22850000D01*
X38390714Y22778572D01*
X38319285Y22707143D01*
X38247857Y22564286D01*
X38247857Y22207143D01*
X38319285Y22064286D01*
X38390714Y21992858D01*
X38533571Y21921429D01*
X38962142Y21921429D01*
X39105000Y21992858D01*
X39176428Y22064286D01*
X37676428Y23278572D02*
X37605000Y23350000D01*
X37462142Y23421429D01*
X37105000Y23421429D01*
X36962142Y23350000D01*
X36890714Y23278572D01*
X36819285Y23135715D01*
X36819285Y22992858D01*
X36890714Y22778572D01*
X37747857Y21921429D01*
X36819285Y21921429D01*
X35033571Y22921429D02*
X35033571Y21921429D01*
X35033571Y22778572D02*
X34962142Y22850000D01*
X34819285Y22921429D01*
X34605000Y22921429D01*
X34462142Y22850000D01*
X34390714Y22707143D01*
X34390714Y21921429D01*
X33676428Y21921429D02*
X33676428Y22921429D01*
X33676428Y22778572D02*
X33605000Y22850000D01*
X33462142Y22921429D01*
X33247857Y22921429D01*
X33105000Y22850000D01*
X33033571Y22707143D01*
X33033571Y21921429D01*
X33033571Y22707143D02*
X32962142Y22850000D01*
X32819285Y22921429D01*
X32605000Y22921429D01*
X32462142Y22850000D01*
X32390714Y22707143D01*
X32390714Y21921429D01*
X51847857Y43971429D02*
X51847857Y42757143D01*
X51776428Y42614286D01*
X51705000Y42542858D01*
X51562142Y42471429D01*
X51276428Y42471429D01*
X51133571Y42542858D01*
X51062142Y42614286D01*
X50990714Y42757143D01*
X50990714Y43971429D01*
X50490714Y43971429D02*
X49990714Y42471429D01*
X49490714Y43971429D01*
X49205000Y43971429D02*
X48347857Y43971429D01*
X48776428Y42471429D02*
X48776428Y43971429D01*
X48062142Y43971429D02*
X47562142Y42471429D01*
X47062142Y43971429D01*
X45562142Y43471429D02*
X45205000Y42471429D01*
X44847857Y43471429D01*
X43490714Y42471429D02*
X44347857Y42471429D01*
X43919285Y42471429D02*
X43919285Y43971429D01*
X44062142Y43757143D01*
X44205000Y43614286D01*
X44347857Y43542858D01*
X41607142Y43871429D02*
X40678571Y43871429D01*
X41178571Y43300000D01*
X40964285Y43300000D01*
X40821428Y43228572D01*
X40750000Y43157143D01*
X40678571Y43014286D01*
X40678571Y42657143D01*
X40750000Y42514286D01*
X40821428Y42442858D01*
X40964285Y42371429D01*
X41392857Y42371429D01*
X41535714Y42442858D01*
X41607142Y42514286D01*
X40250000Y43871429D02*
X39750000Y42371429D01*
X39250000Y43871429D01*
X38892857Y43871429D02*
X37964285Y43871429D01*
X38464285Y43300000D01*
X38250000Y43300000D01*
X38107142Y43228572D01*
X38035714Y43157143D01*
X37964285Y43014286D01*
X37964285Y42657143D01*
X38035714Y42514286D01*
X38107142Y42442858D01*
X38250000Y42371429D01*
X38678571Y42371429D01*
X38821428Y42442858D01*
X38892857Y42514286D01*
X22692857Y43950000D02*
X22835714Y44021429D01*
X23050000Y44021429D01*
X23264285Y43950000D01*
X23407142Y43807143D01*
X23478571Y43664286D01*
X23550000Y43378572D01*
X23550000Y43164286D01*
X23478571Y42878572D01*
X23407142Y42735715D01*
X23264285Y42592858D01*
X23050000Y42521429D01*
X22907142Y42521429D01*
X22692857Y42592858D01*
X22621428Y42664286D01*
X22621428Y43164286D01*
X22907142Y43164286D01*
X21978571Y42521429D02*
X21978571Y44021429D01*
X21121428Y42521429D01*
X21121428Y44021429D01*
X20407142Y42521429D02*
X20407142Y44021429D01*
X20050000Y44021429D01*
X19835714Y43950000D01*
X19692857Y43807143D01*
X19621428Y43664286D01*
X19550000Y43378572D01*
X19550000Y43164286D01*
X19621428Y42878572D01*
X19692857Y42735715D01*
X19835714Y42592858D01*
X20050000Y42521429D01*
X20407142Y42521429D01*
X45690714Y2271429D02*
X45333571Y771429D01*
X45047857Y1842858D01*
X44762142Y771429D01*
X44405000Y2271429D01*
X43833571Y1557143D02*
X43333571Y1557143D01*
X43119285Y771429D02*
X43833571Y771429D01*
X43833571Y2271429D01*
X43119285Y2271429D01*
X42547857Y1200000D02*
X41833571Y1200000D01*
X42690714Y771429D02*
X42190714Y2271429D01*
X41690714Y771429D01*
X40333571Y771429D02*
X40833571Y1485715D01*
X41190714Y771429D02*
X41190714Y2271429D01*
X40619285Y2271429D01*
X40476428Y2200000D01*
X40405000Y2128572D01*
X40333571Y1985715D01*
X40333571Y1771429D01*
X40405000Y1628572D01*
X40476428Y1557143D01*
X40619285Y1485715D01*
X41190714Y1485715D01*
X38547857Y2271429D02*
X38547857Y1057143D01*
X38476428Y914286D01*
X38405000Y842858D01*
X38262142Y771429D01*
X37976428Y771429D01*
X37833571Y842858D01*
X37762142Y914286D01*
X37690714Y1057143D01*
X37690714Y2271429D01*
X37190714Y2271429D02*
X36690714Y771429D01*
X36190714Y2271429D01*
X34547857Y771429D02*
X34547857Y2271429D01*
X33976428Y2271429D01*
X33833571Y2200000D01*
X33762142Y2128572D01*
X33690714Y1985715D01*
X33690714Y1771429D01*
X33762142Y1628572D01*
X33833571Y1557143D01*
X33976428Y1485715D01*
X34547857Y1485715D01*
X32190714Y771429D02*
X32690714Y1485715D01*
X33047857Y771429D02*
X33047857Y2271429D01*
X32476428Y2271429D01*
X32333571Y2200000D01*
X32262142Y2128572D01*
X32190714Y1985715D01*
X32190714Y1771429D01*
X32262142Y1628572D01*
X32333571Y1557143D01*
X32476428Y1485715D01*
X33047857Y1485715D01*
X31262142Y2271429D02*
X30976428Y2271429D01*
X30833571Y2200000D01*
X30690714Y2057143D01*
X30619285Y1771429D01*
X30619285Y1271429D01*
X30690714Y985715D01*
X30833571Y842858D01*
X30976428Y771429D01*
X31262142Y771429D01*
X31405000Y842858D01*
X31547857Y985715D01*
X31619285Y1271429D01*
X31619285Y1771429D01*
X31547857Y2057143D01*
X31405000Y2200000D01*
X31262142Y2271429D01*
X30190714Y2271429D02*
X29333571Y2271429D01*
X29762142Y771429D02*
X29762142Y2271429D01*
X28833571Y1557143D02*
X28333571Y1557143D01*
X28119285Y771429D02*
X28833571Y771429D01*
X28833571Y2271429D01*
X28119285Y2271429D01*
X26619285Y914286D02*
X26690714Y842858D01*
X26905000Y771429D01*
X27047857Y771429D01*
X27262142Y842858D01*
X27405000Y985715D01*
X27476428Y1128572D01*
X27547857Y1414286D01*
X27547857Y1628572D01*
X27476428Y1914286D01*
X27405000Y2057143D01*
X27262142Y2200000D01*
X27047857Y2271429D01*
X26905000Y2271429D01*
X26690714Y2200000D01*
X26619285Y2128572D01*
X26190714Y2271429D02*
X25333571Y2271429D01*
X25762142Y771429D02*
X25762142Y2271429D01*
X24833571Y771429D02*
X24833571Y2271429D01*
X23833571Y2271429D02*
X23547857Y2271429D01*
X23405000Y2200000D01*
X23262142Y2057143D01*
X23190714Y1771429D01*
X23190714Y1271429D01*
X23262142Y985715D01*
X23405000Y842858D01*
X23547857Y771429D01*
X23833571Y771429D01*
X23976428Y842858D01*
X24119285Y985715D01*
X24190714Y1271429D01*
X24190714Y1771429D01*
X24119285Y2057143D01*
X23976428Y2200000D01*
X23833571Y2271429D01*
X22547857Y771429D02*
X22547857Y2271429D01*
X21690714Y771429D01*
X21690714Y2271429D01*
X19976428Y2271429D02*
X19047857Y2271429D01*
X19547857Y1700000D01*
X19333571Y1700000D01*
X19190714Y1628572D01*
X19119285Y1557143D01*
X19047857Y1414286D01*
X19047857Y1057143D01*
X19119285Y914286D01*
X19190714Y842858D01*
X19333571Y771429D01*
X19762142Y771429D01*
X19905000Y842858D01*
X19976428Y914286D01*
X18476428Y2128572D02*
X18405000Y2200000D01*
X18262142Y2271429D01*
X17905000Y2271429D01*
X17762142Y2200000D01*
X17690714Y2128572D01*
X17619285Y1985715D01*
X17619285Y1842858D01*
X17690714Y1628572D01*
X18547857Y771429D01*
X17619285Y771429D01*
X16262142Y2271429D02*
X16976428Y2271429D01*
X17047857Y1557143D01*
X16976428Y1628572D01*
X16833571Y1700000D01*
X16476428Y1700000D01*
X16333571Y1628572D01*
X16262142Y1557143D01*
X16190714Y1414286D01*
X16190714Y1057143D01*
X16262142Y914286D01*
X16333571Y842858D01*
X16476428Y771429D01*
X16833571Y771429D01*
X16976428Y842858D01*
X17047857Y914286D01*
X15547857Y1342858D02*
X14405000Y1342858D01*
X13047857Y1771429D02*
X13047857Y771429D01*
X13405000Y2342858D02*
X13762142Y1271429D01*
X12833571Y1271429D01*
X11976428Y2271429D02*
X11833571Y2271429D01*
X11690714Y2200000D01*
X11619285Y2128572D01*
X11547857Y1985715D01*
X11476428Y1700000D01*
X11476428Y1342858D01*
X11547857Y1057143D01*
X11619285Y914286D01*
X11690714Y842858D01*
X11833571Y771429D01*
X11976428Y771429D01*
X12119285Y842858D01*
X12190714Y914286D01*
X12262142Y1057143D01*
X12333571Y1342858D01*
X12333571Y1700000D01*
X12262142Y1985715D01*
X12190714Y2128572D01*
X12119285Y2200000D01*
X11976428Y2271429D01*
X10547857Y2271429D02*
X10405000Y2271429D01*
X10262142Y2200000D01*
X10190714Y2128572D01*
X10119285Y1985715D01*
X10047857Y1700000D01*
X10047857Y1342858D01*
X10119285Y1057143D01*
X10190714Y914286D01*
X10262142Y842858D01*
X10405000Y771429D01*
X10547857Y771429D01*
X10690714Y842858D01*
X10762142Y914286D01*
X10833571Y1057143D01*
X10905000Y1342858D01*
X10905000Y1700000D01*
X10833571Y1985715D01*
X10762142Y2128572D01*
X10690714Y2200000D01*
X10547857Y2271429D01*
X8262142Y1771429D02*
X8262142Y771429D01*
X8262142Y1628572D02*
X8190714Y1700000D01*
X8047857Y1771429D01*
X7833571Y1771429D01*
X7690714Y1700000D01*
X7619285Y1557143D01*
X7619285Y771429D01*
X6905000Y771429D02*
X6905000Y1771429D01*
X6905000Y1628572D02*
X6833571Y1700000D01*
X6690714Y1771429D01*
X6476428Y1771429D01*
X6333571Y1700000D01*
X6262142Y1557143D01*
X6262142Y771429D01*
X6262142Y1557143D02*
X6190714Y1700000D01*
X6047857Y1771429D01*
X5833571Y1771429D01*
X5690714Y1700000D01*
X5619285Y1557143D01*
X5619285Y771429D01*
D12*
G04 #@! TO.C,REF\002A\002A*
X27100000Y7800000D02*
X25600000Y7800000D01*
D13*
G36*
X25800000Y7850000D02*
X24350000Y7850000D01*
X24350000Y7300000D01*
X24700000Y6900000D01*
X25200000Y6900000D01*
X25650000Y7250000D01*
X25800000Y7850000D01*
G37*
X25800000Y7850000D02*
X24350000Y7850000D01*
X24350000Y7300000D01*
X24700000Y6900000D01*
X25200000Y6900000D01*
X25650000Y7250000D01*
X25800000Y7850000D01*
G36*
X28350000Y7850000D02*
X26800000Y7850000D01*
X26950000Y7250000D01*
X27400000Y6900000D01*
X28000000Y6900000D01*
X28350000Y7250000D01*
X28350000Y7850000D01*
G37*
X28350000Y7850000D02*
X26800000Y7850000D01*
X26950000Y7250000D01*
X27400000Y6900000D01*
X28000000Y6900000D01*
X28350000Y7250000D01*
X28350000Y7850000D01*
D12*
X26650000Y3400000D02*
X27850000Y2950000D01*
X26650000Y3400000D02*
X26700000Y4100000D01*
X25950000Y3400000D02*
X26700000Y3400000D01*
X25950000Y3400000D02*
X25800000Y4100000D01*
X24700000Y2950000D02*
X25950000Y3400000D01*
X24750000Y4650000D02*
X24700000Y2950000D01*
X25750000Y4100000D02*
X24750000Y4650000D01*
X26700000Y4100000D02*
X25800000Y4100000D01*
X27950000Y4600000D02*
X26700000Y4100000D01*
X27950000Y4600000D02*
X27850000Y2950000D01*
D13*
G36*
X27450000Y5550000D02*
X27000000Y5200000D01*
X26400000Y5150000D01*
X26250000Y5300000D01*
X26100000Y5150000D01*
X25700000Y5150000D01*
X25150000Y5500000D01*
X25600000Y5250000D01*
X26250000Y5300000D01*
X26900000Y5250000D01*
X27450000Y5550000D01*
G37*
X27450000Y5550000D02*
X27000000Y5200000D01*
X26400000Y5150000D01*
X26250000Y5300000D01*
X26100000Y5150000D01*
X25700000Y5150000D01*
X25150000Y5500000D01*
X25600000Y5250000D01*
X26250000Y5300000D01*
X26900000Y5250000D01*
X27450000Y5550000D01*
G36*
X26200000Y6800000D02*
X26650000Y6650000D01*
X26800000Y6350000D01*
X26800000Y6000000D01*
X26550000Y5800000D01*
X26250000Y5750000D01*
X26250000Y5650000D01*
X26950000Y5550000D01*
X26950000Y5350000D01*
X27450000Y5550000D01*
X27450000Y5850000D01*
X27200000Y6250000D01*
X27200000Y6700000D01*
X27050000Y7100000D01*
X26650000Y7450000D01*
X25950000Y7450000D01*
X25600000Y7050000D01*
X25400000Y6600000D01*
X25350000Y6000000D01*
X25150000Y5800000D01*
X25150000Y5500000D01*
X25550000Y5350000D01*
X25550000Y5550000D01*
X26200000Y5650000D01*
X26200000Y5750000D01*
X25950000Y5800000D01*
X25650000Y5950000D01*
X25600000Y6300000D01*
X25700000Y6600000D01*
X26200000Y6800000D01*
G37*
X26200000Y6800000D02*
X26650000Y6650000D01*
X26800000Y6350000D01*
X26800000Y6000000D01*
X26550000Y5800000D01*
X26250000Y5750000D01*
X26250000Y5650000D01*
X26950000Y5550000D01*
X26950000Y5350000D01*
X27450000Y5550000D01*
X27450000Y5850000D01*
X27200000Y6250000D01*
X27200000Y6700000D01*
X27050000Y7100000D01*
X26650000Y7450000D01*
X25950000Y7450000D01*
X25600000Y7050000D01*
X25400000Y6600000D01*
X25350000Y6000000D01*
X25150000Y5800000D01*
X25150000Y5500000D01*
X25550000Y5350000D01*
X25550000Y5550000D01*
X26200000Y5650000D01*
X26200000Y5750000D01*
X25950000Y5800000D01*
X25650000Y5950000D01*
X25600000Y6300000D01*
X25700000Y6600000D01*
X26200000Y6800000D01*
G36*
X24850000Y8800000D02*
X24600000Y9250000D01*
X24200000Y9650000D01*
X23900000Y9700000D01*
X23850000Y9300000D01*
X24050000Y8600000D01*
X24350000Y8250000D01*
X24550000Y8600000D01*
X24850000Y8800000D01*
G37*
X24850000Y8800000D02*
X24600000Y9250000D01*
X24200000Y9650000D01*
X23900000Y9700000D01*
X23850000Y9300000D01*
X24050000Y8600000D01*
X24350000Y8250000D01*
X24550000Y8600000D01*
X24850000Y8800000D01*
G36*
X29250000Y8200000D02*
X29050000Y8600000D01*
X28800000Y8800000D01*
X29150000Y9150000D01*
X29450000Y9550000D01*
X29750000Y9700000D01*
X29950000Y9650000D01*
X30050000Y9450000D01*
X30050000Y9100000D01*
X29800000Y8500000D01*
X29250000Y8200000D01*
G37*
X29250000Y8200000D02*
X29050000Y8600000D01*
X28800000Y8800000D01*
X29150000Y9150000D01*
X29450000Y9550000D01*
X29750000Y9700000D01*
X29950000Y9650000D01*
X30050000Y9450000D01*
X30050000Y9100000D01*
X29800000Y8500000D01*
X29250000Y8200000D01*
G36*
X25400000Y7750000D02*
X25500000Y7650000D01*
X25500000Y7450000D01*
X25400000Y7350000D01*
X25200000Y7350000D01*
X25100000Y7450000D01*
X25100000Y7650000D01*
X25200000Y7750000D01*
X25400000Y7750000D01*
G37*
X25400000Y7750000D02*
X25500000Y7650000D01*
X25500000Y7450000D01*
X25400000Y7350000D01*
X25200000Y7350000D01*
X25100000Y7450000D01*
X25100000Y7650000D01*
X25200000Y7750000D01*
X25400000Y7750000D01*
G36*
X27600000Y7750000D02*
X27700000Y7650000D01*
X27700000Y7450000D01*
X27600000Y7350000D01*
X27400000Y7350000D01*
X27300000Y7450000D01*
X27300000Y7650000D01*
X27400000Y7750000D01*
X27600000Y7750000D01*
G37*
X27600000Y7750000D02*
X27700000Y7650000D01*
X27700000Y7450000D01*
X27600000Y7350000D01*
X27400000Y7350000D01*
X27300000Y7450000D01*
X27300000Y7650000D01*
X27400000Y7750000D01*
X27600000Y7750000D01*
D12*
X29764107Y6356818D02*
X29511221Y7727723D01*
X29937134Y4892745D02*
X29764107Y6356818D01*
X29591080Y3055999D02*
X29937134Y4892745D01*
X30402975Y10196682D02*
X30020186Y10372389D01*
X23637783Y10455986D02*
X23446548Y10169133D01*
X25490276Y9169859D02*
X25089345Y9462816D01*
X30589312Y9843974D02*
X30402975Y10196682D01*
X23393427Y9276702D02*
X23637783Y8267404D01*
X24222114Y10285999D02*
X23956509Y10455986D01*
X27583858Y9308886D02*
X26130544Y9308886D01*
X28639307Y9378132D02*
X28245074Y9169859D01*
X29103308Y9939041D02*
X28639307Y9378132D01*
X29589446Y10292932D02*
X29103308Y9939041D01*
X30589312Y8912291D02*
X30589312Y9843974D01*
X30216639Y8100396D02*
X30589312Y8912291D01*
X29511221Y7727723D02*
X30216639Y8100396D01*
X24083999Y7906181D02*
X23650000Y6400000D01*
X26130544Y9308886D02*
X25490276Y9169859D01*
X23446548Y10169133D02*
X23393427Y9276702D01*
X30020186Y10372389D02*
X29589446Y10292932D01*
X23956509Y10455986D02*
X23637783Y10455986D01*
X23400000Y4100000D02*
X22850000Y3000000D01*
X28245074Y9169859D02*
X27583858Y9308886D01*
X23650000Y6400000D02*
X23400000Y4100000D01*
X25089345Y9462816D02*
X24222114Y10285999D01*
X23637783Y8267404D02*
X24083999Y7906181D01*
D13*
G04 #@! TO.C,U-UV1A*
X13600000Y24950000D02*
X14000000Y24950000D01*
X13600000Y25350000D02*
X13600000Y24950000D01*
X21800000Y24950000D02*
X21400000Y24950000D01*
X21800000Y24950000D02*
X21800000Y25350000D01*
X13600000Y33150000D02*
X13600000Y32750000D01*
X14000000Y33150000D02*
X13600000Y33150000D01*
X21800000Y32750000D02*
X21400000Y33150000D01*
G04 #@! TO.C,U-RGB1A*
X3100000Y32150000D02*
X3500000Y32150000D01*
X3100000Y32550000D02*
X3100000Y32150000D01*
X11300000Y32150000D02*
X10900000Y32150000D01*
X11300000Y32150000D02*
X11300000Y32550000D01*
X3100000Y40350000D02*
X3100000Y39950000D01*
X3500000Y40350000D02*
X3100000Y40350000D01*
X11300000Y39950000D02*
X10900000Y40350000D01*
D14*
G04 #@! TO.C,C1A*
X2210000Y34496267D02*
X2210000Y34153733D01*
X1190000Y34496267D02*
X1190000Y34153733D01*
G04 #@! TO.C,C1B*
X11596267Y27290000D02*
X11253733Y27290000D01*
X11596267Y28310000D02*
X11253733Y28310000D01*
G04 #@! TO.C,C1C*
X22096267Y34490000D02*
X21753733Y34490000D01*
X22096267Y35510000D02*
X21753733Y35510000D01*
G04 #@! TO.C,C1D*
X32596267Y27290000D02*
X32253733Y27290000D01*
X32596267Y28310000D02*
X32253733Y28310000D01*
G04 #@! TO.C,C1E*
X43096267Y34490000D02*
X42753733Y34490000D01*
X43096267Y35510000D02*
X42753733Y35510000D01*
G04 #@! TO.C,C2A*
X1290000Y14503733D02*
X1290000Y14846267D01*
X2310000Y14503733D02*
X2310000Y14846267D01*
G04 #@! TO.C,C2B*
X11596267Y6090000D02*
X11253733Y6090000D01*
X11596267Y7110000D02*
X11253733Y7110000D01*
G04 #@! TO.C,C2C*
X22096267Y13290000D02*
X21753733Y13290000D01*
X22096267Y14310000D02*
X21753733Y14310000D01*
G04 #@! TO.C,C2D*
X32596267Y6090000D02*
X32253733Y6090000D01*
X32596267Y7110000D02*
X32253733Y7110000D01*
G04 #@! TO.C,C2E*
X43096267Y13290000D02*
X42753733Y13290000D01*
X43096267Y14310000D02*
X42753733Y14310000D01*
D13*
G04 #@! TO.C,U-RGB1B*
X24100000Y32150000D02*
X24500000Y32150000D01*
X24100000Y32550000D02*
X24100000Y32150000D01*
X32300000Y32150000D02*
X31900000Y32150000D01*
X32300000Y32150000D02*
X32300000Y32550000D01*
X24100000Y40350000D02*
X24100000Y39950000D01*
X24500000Y40350000D02*
X24100000Y40350000D01*
X32300000Y39950000D02*
X31900000Y40350000D01*
G04 #@! TO.C,U-RGB1C*
X45100000Y32150000D02*
X45500000Y32150000D01*
X45100000Y32550000D02*
X45100000Y32150000D01*
X53300000Y32150000D02*
X52900000Y32150000D01*
X53300000Y32150000D02*
X53300000Y32550000D01*
X45100000Y40350000D02*
X45100000Y39950000D01*
X45500000Y40350000D02*
X45100000Y40350000D01*
X53300000Y39950000D02*
X52900000Y40350000D01*
G04 #@! TO.C,U-RGB2A*
X3100000Y10950000D02*
X3500000Y10950000D01*
X3100000Y11350000D02*
X3100000Y10950000D01*
X11300000Y10950000D02*
X10900000Y10950000D01*
X11300000Y10950000D02*
X11300000Y11350000D01*
X3100000Y19150000D02*
X3100000Y18750000D01*
X3500000Y19150000D02*
X3100000Y19150000D01*
X11300000Y18750000D02*
X10900000Y19150000D01*
G04 #@! TO.C,U-RGB2B*
X24100000Y10950000D02*
X24500000Y10950000D01*
X24100000Y11350000D02*
X24100000Y10950000D01*
X32300000Y10950000D02*
X31900000Y10950000D01*
X32300000Y10950000D02*
X32300000Y11350000D01*
X24100000Y19150000D02*
X24100000Y18750000D01*
X24500000Y19150000D02*
X24100000Y19150000D01*
X32300000Y18750000D02*
X31900000Y19150000D01*
G04 #@! TO.C,U-RGB2C*
X45100000Y10950000D02*
X45500000Y10950000D01*
X45100000Y11350000D02*
X45100000Y10950000D01*
X53300000Y10950000D02*
X52900000Y10950000D01*
X53300000Y10950000D02*
X53300000Y11350000D01*
X45100000Y19150000D02*
X45100000Y18750000D01*
X45500000Y19150000D02*
X45100000Y19150000D01*
X53300000Y18750000D02*
X52900000Y19150000D01*
G04 #@! TO.C,U-UV1C*
X34600000Y24950000D02*
X35000000Y24950000D01*
X34600000Y25350000D02*
X34600000Y24950000D01*
X42800000Y24950000D02*
X42400000Y24950000D01*
X42800000Y24950000D02*
X42800000Y25350000D01*
X34600000Y33150000D02*
X34600000Y32750000D01*
X35000000Y33150000D02*
X34600000Y33150000D01*
X42800000Y32750000D02*
X42400000Y33150000D01*
G04 #@! TO.C,U-UV2A*
X13600000Y3750000D02*
X14000000Y3750000D01*
X13600000Y4150000D02*
X13600000Y3750000D01*
X21800000Y3750000D02*
X21400000Y3750000D01*
X21800000Y3750000D02*
X21800000Y4150000D01*
X13600000Y11950000D02*
X13600000Y11550000D01*
X14000000Y11950000D02*
X13600000Y11950000D01*
X21800000Y11550000D02*
X21400000Y11950000D01*
G04 #@! TO.C,U-UV2C*
X34600000Y3750000D02*
X35000000Y3750000D01*
X34600000Y4150000D02*
X34600000Y3750000D01*
X42800000Y3750000D02*
X42400000Y3750000D01*
X42800000Y3750000D02*
X42800000Y4150000D01*
X34600000Y11950000D02*
X34600000Y11550000D01*
X35000000Y11950000D02*
X34600000Y11950000D01*
X42800000Y11550000D02*
X42400000Y11950000D01*
D14*
G04 #@! TO.C,J1*
X2050000Y28800000D02*
X1650000Y28800000D01*
X5100000Y29900000D02*
X5100000Y19900000D01*
X2050000Y19900000D02*
X5100000Y19900000D01*
X2050000Y21000000D02*
X2050000Y19900000D01*
X2050000Y29900000D02*
X5100000Y29900000D01*
X2050000Y28800000D02*
X2050000Y29900000D01*
G04 #@! TO.C,J2*
X13730000Y44630000D02*
X13730000Y43300000D01*
X15060000Y44630000D02*
X13730000Y44630000D01*
X16330000Y44630000D02*
X16330000Y41970000D01*
X16330000Y41970000D02*
X18930000Y41970000D01*
X16330000Y44630000D02*
X18930000Y44630000D01*
X18930000Y44630000D02*
X18930000Y41970000D01*
G04 #@! TO.C,J3*
X32090000Y44630000D02*
X32090000Y43300000D01*
X33420000Y44630000D02*
X32090000Y44630000D01*
X34690000Y44630000D02*
X34690000Y41970000D01*
X34690000Y41970000D02*
X37290000Y41970000D01*
X34690000Y44630000D02*
X37290000Y44630000D01*
X37290000Y44630000D02*
X37290000Y41970000D01*
G04 #@! TO.C,U-UV1A*
D13*
X19761904Y34747620D02*
X19761904Y33938096D01*
X19714285Y33842858D01*
X19666666Y33795239D01*
X19571428Y33747620D01*
X19380952Y33747620D01*
X19285714Y33795239D01*
X19238095Y33842858D01*
X19190476Y33938096D01*
X19190476Y34747620D01*
X18714285Y34128572D02*
X17952380Y34128572D01*
X17476190Y34747620D02*
X17476190Y33938096D01*
X17428571Y33842858D01*
X17380952Y33795239D01*
X17285714Y33747620D01*
X17095238Y33747620D01*
X17000000Y33795239D01*
X16952380Y33842858D01*
X16904761Y33938096D01*
X16904761Y34747620D01*
X16571428Y34747620D02*
X16238095Y33747620D01*
X15904761Y34747620D01*
X15047619Y33747620D02*
X15619047Y33747620D01*
X15333333Y33747620D02*
X15333333Y34747620D01*
X15428571Y34604762D01*
X15523809Y34509524D01*
X15619047Y34461905D01*
X14666666Y34033334D02*
X14190476Y34033334D01*
X14761904Y33747620D02*
X14428571Y34747620D01*
X14095238Y33747620D01*
G04 #@! TO.C,U-RGB1A*
X10509523Y41847620D02*
X10509523Y41038096D01*
X10461904Y40942858D01*
X10414285Y40895239D01*
X10319047Y40847620D01*
X10128571Y40847620D01*
X10033333Y40895239D01*
X9985714Y40942858D01*
X9938095Y41038096D01*
X9938095Y41847620D01*
X9461904Y41228572D02*
X8700000Y41228572D01*
X7652380Y40847620D02*
X7985714Y41323810D01*
X8223809Y40847620D02*
X8223809Y41847620D01*
X7842857Y41847620D01*
X7747619Y41800000D01*
X7700000Y41752381D01*
X7652380Y41657143D01*
X7652380Y41514286D01*
X7700000Y41419048D01*
X7747619Y41371429D01*
X7842857Y41323810D01*
X8223809Y41323810D01*
X6700000Y41800000D02*
X6795238Y41847620D01*
X6938095Y41847620D01*
X7080952Y41800000D01*
X7176190Y41704762D01*
X7223809Y41609524D01*
X7271428Y41419048D01*
X7271428Y41276191D01*
X7223809Y41085715D01*
X7176190Y40990477D01*
X7080952Y40895239D01*
X6938095Y40847620D01*
X6842857Y40847620D01*
X6700000Y40895239D01*
X6652380Y40942858D01*
X6652380Y41276191D01*
X6842857Y41276191D01*
X5890476Y41371429D02*
X5747619Y41323810D01*
X5700000Y41276191D01*
X5652380Y41180953D01*
X5652380Y41038096D01*
X5700000Y40942858D01*
X5747619Y40895239D01*
X5842857Y40847620D01*
X6223809Y40847620D01*
X6223809Y41847620D01*
X5890476Y41847620D01*
X5795238Y41800000D01*
X5747619Y41752381D01*
X5700000Y41657143D01*
X5700000Y41561905D01*
X5747619Y41466667D01*
X5795238Y41419048D01*
X5890476Y41371429D01*
X6223809Y41371429D01*
X4700000Y40847620D02*
X5271428Y40847620D01*
X4985714Y40847620D02*
X4985714Y41847620D01*
X5080952Y41704762D01*
X5176190Y41609524D01*
X5271428Y41561905D01*
X4319047Y41133334D02*
X3842857Y41133334D01*
X4414285Y40847620D02*
X4080952Y41847620D01*
X3747619Y40847620D01*
G04 #@! TO.C,C1A*
X2107142Y37895239D02*
X2154761Y37942858D01*
X2202380Y38085715D01*
X2202380Y38180953D01*
X2154761Y38323810D01*
X2059523Y38419048D01*
X1964285Y38466667D01*
X1773809Y38514286D01*
X1630952Y38514286D01*
X1440476Y38466667D01*
X1345238Y38419048D01*
X1250000Y38323810D01*
X1202380Y38180953D01*
X1202380Y38085715D01*
X1250000Y37942858D01*
X1297619Y37895239D01*
X2202380Y36942858D02*
X2202380Y37514286D01*
X2202380Y37228572D02*
X1202380Y37228572D01*
X1345238Y37323810D01*
X1440476Y37419048D01*
X1488095Y37514286D01*
X1916666Y36561905D02*
X1916666Y36085715D01*
X2202380Y36657143D02*
X1202380Y36323810D01*
X2202380Y35990477D01*
G04 #@! TO.C,C1B*
X12091666Y28872858D02*
X12139285Y28825239D01*
X12282142Y28777620D01*
X12377380Y28777620D01*
X12520238Y28825239D01*
X12615476Y28920477D01*
X12663095Y29015715D01*
X12710714Y29206191D01*
X12710714Y29349048D01*
X12663095Y29539524D01*
X12615476Y29634762D01*
X12520238Y29730000D01*
X12377380Y29777620D01*
X12282142Y29777620D01*
X12139285Y29730000D01*
X12091666Y29682381D01*
X11139285Y28777620D02*
X11710714Y28777620D01*
X11425000Y28777620D02*
X11425000Y29777620D01*
X11520238Y29634762D01*
X11615476Y29539524D01*
X11710714Y29491905D01*
X10377380Y29301429D02*
X10234523Y29253810D01*
X10186904Y29206191D01*
X10139285Y29110953D01*
X10139285Y28968096D01*
X10186904Y28872858D01*
X10234523Y28825239D01*
X10329761Y28777620D01*
X10710714Y28777620D01*
X10710714Y29777620D01*
X10377380Y29777620D01*
X10282142Y29730000D01*
X10234523Y29682381D01*
X10186904Y29587143D01*
X10186904Y29491905D01*
X10234523Y29396667D01*
X10282142Y29349048D01*
X10377380Y29301429D01*
X10710714Y29301429D01*
G04 #@! TO.C,C1C*
X22591666Y36072858D02*
X22639285Y36025239D01*
X22782142Y35977620D01*
X22877380Y35977620D01*
X23020238Y36025239D01*
X23115476Y36120477D01*
X23163095Y36215715D01*
X23210714Y36406191D01*
X23210714Y36549048D01*
X23163095Y36739524D01*
X23115476Y36834762D01*
X23020238Y36930000D01*
X22877380Y36977620D01*
X22782142Y36977620D01*
X22639285Y36930000D01*
X22591666Y36882381D01*
X21639285Y35977620D02*
X22210714Y35977620D01*
X21925000Y35977620D02*
X21925000Y36977620D01*
X22020238Y36834762D01*
X22115476Y36739524D01*
X22210714Y36691905D01*
X20639285Y36072858D02*
X20686904Y36025239D01*
X20829761Y35977620D01*
X20925000Y35977620D01*
X21067857Y36025239D01*
X21163095Y36120477D01*
X21210714Y36215715D01*
X21258333Y36406191D01*
X21258333Y36549048D01*
X21210714Y36739524D01*
X21163095Y36834762D01*
X21067857Y36930000D01*
X20925000Y36977620D01*
X20829761Y36977620D01*
X20686904Y36930000D01*
X20639285Y36882381D01*
G04 #@! TO.C,C1D*
X33091666Y28872858D02*
X33139285Y28825239D01*
X33282142Y28777620D01*
X33377380Y28777620D01*
X33520238Y28825239D01*
X33615476Y28920477D01*
X33663095Y29015715D01*
X33710714Y29206191D01*
X33710714Y29349048D01*
X33663095Y29539524D01*
X33615476Y29634762D01*
X33520238Y29730000D01*
X33377380Y29777620D01*
X33282142Y29777620D01*
X33139285Y29730000D01*
X33091666Y29682381D01*
X32139285Y28777620D02*
X32710714Y28777620D01*
X32425000Y28777620D02*
X32425000Y29777620D01*
X32520238Y29634762D01*
X32615476Y29539524D01*
X32710714Y29491905D01*
X31710714Y28777620D02*
X31710714Y29777620D01*
X31472619Y29777620D01*
X31329761Y29730000D01*
X31234523Y29634762D01*
X31186904Y29539524D01*
X31139285Y29349048D01*
X31139285Y29206191D01*
X31186904Y29015715D01*
X31234523Y28920477D01*
X31329761Y28825239D01*
X31472619Y28777620D01*
X31710714Y28777620D01*
G04 #@! TO.C,C1E*
X43544047Y36072858D02*
X43591666Y36025239D01*
X43734523Y35977620D01*
X43829761Y35977620D01*
X43972619Y36025239D01*
X44067857Y36120477D01*
X44115476Y36215715D01*
X44163095Y36406191D01*
X44163095Y36549048D01*
X44115476Y36739524D01*
X44067857Y36834762D01*
X43972619Y36930000D01*
X43829761Y36977620D01*
X43734523Y36977620D01*
X43591666Y36930000D01*
X43544047Y36882381D01*
X42591666Y35977620D02*
X43163095Y35977620D01*
X42877380Y35977620D02*
X42877380Y36977620D01*
X42972619Y36834762D01*
X43067857Y36739524D01*
X43163095Y36691905D01*
X42163095Y36501429D02*
X41829761Y36501429D01*
X41686904Y35977620D02*
X42163095Y35977620D01*
X42163095Y36977620D01*
X41686904Y36977620D01*
G04 #@! TO.C,C2A*
X2157142Y12145239D02*
X2204761Y12192858D01*
X2252380Y12335715D01*
X2252380Y12430953D01*
X2204761Y12573810D01*
X2109523Y12669048D01*
X2014285Y12716667D01*
X1823809Y12764286D01*
X1680952Y12764286D01*
X1490476Y12716667D01*
X1395238Y12669048D01*
X1300000Y12573810D01*
X1252380Y12430953D01*
X1252380Y12335715D01*
X1300000Y12192858D01*
X1347619Y12145239D01*
X1347619Y11764286D02*
X1300000Y11716667D01*
X1252380Y11621429D01*
X1252380Y11383334D01*
X1300000Y11288096D01*
X1347619Y11240477D01*
X1442857Y11192858D01*
X1538095Y11192858D01*
X1680952Y11240477D01*
X2252380Y11811905D01*
X2252380Y11192858D01*
X1966666Y10811905D02*
X1966666Y10335715D01*
X2252380Y10907143D02*
X1252380Y10573810D01*
X2252380Y10240477D01*
G04 #@! TO.C,C2B*
X12091666Y7672858D02*
X12139285Y7625239D01*
X12282142Y7577620D01*
X12377380Y7577620D01*
X12520238Y7625239D01*
X12615476Y7720477D01*
X12663095Y7815715D01*
X12710714Y8006191D01*
X12710714Y8149048D01*
X12663095Y8339524D01*
X12615476Y8434762D01*
X12520238Y8530000D01*
X12377380Y8577620D01*
X12282142Y8577620D01*
X12139285Y8530000D01*
X12091666Y8482381D01*
X11710714Y8482381D02*
X11663095Y8530000D01*
X11567857Y8577620D01*
X11329761Y8577620D01*
X11234523Y8530000D01*
X11186904Y8482381D01*
X11139285Y8387143D01*
X11139285Y8291905D01*
X11186904Y8149048D01*
X11758333Y7577620D01*
X11139285Y7577620D01*
X10377380Y8101429D02*
X10234523Y8053810D01*
X10186904Y8006191D01*
X10139285Y7910953D01*
X10139285Y7768096D01*
X10186904Y7672858D01*
X10234523Y7625239D01*
X10329761Y7577620D01*
X10710714Y7577620D01*
X10710714Y8577620D01*
X10377380Y8577620D01*
X10282142Y8530000D01*
X10234523Y8482381D01*
X10186904Y8387143D01*
X10186904Y8291905D01*
X10234523Y8196667D01*
X10282142Y8149048D01*
X10377380Y8101429D01*
X10710714Y8101429D01*
G04 #@! TO.C,C2C*
X22591666Y14872858D02*
X22639285Y14825239D01*
X22782142Y14777620D01*
X22877380Y14777620D01*
X23020238Y14825239D01*
X23115476Y14920477D01*
X23163095Y15015715D01*
X23210714Y15206191D01*
X23210714Y15349048D01*
X23163095Y15539524D01*
X23115476Y15634762D01*
X23020238Y15730000D01*
X22877380Y15777620D01*
X22782142Y15777620D01*
X22639285Y15730000D01*
X22591666Y15682381D01*
X22210714Y15682381D02*
X22163095Y15730000D01*
X22067857Y15777620D01*
X21829761Y15777620D01*
X21734523Y15730000D01*
X21686904Y15682381D01*
X21639285Y15587143D01*
X21639285Y15491905D01*
X21686904Y15349048D01*
X22258333Y14777620D01*
X21639285Y14777620D01*
X20639285Y14872858D02*
X20686904Y14825239D01*
X20829761Y14777620D01*
X20925000Y14777620D01*
X21067857Y14825239D01*
X21163095Y14920477D01*
X21210714Y15015715D01*
X21258333Y15206191D01*
X21258333Y15349048D01*
X21210714Y15539524D01*
X21163095Y15634762D01*
X21067857Y15730000D01*
X20925000Y15777620D01*
X20829761Y15777620D01*
X20686904Y15730000D01*
X20639285Y15682381D01*
G04 #@! TO.C,C2D*
X33091666Y7672858D02*
X33139285Y7625239D01*
X33282142Y7577620D01*
X33377380Y7577620D01*
X33520238Y7625239D01*
X33615476Y7720477D01*
X33663095Y7815715D01*
X33710714Y8006191D01*
X33710714Y8149048D01*
X33663095Y8339524D01*
X33615476Y8434762D01*
X33520238Y8530000D01*
X33377380Y8577620D01*
X33282142Y8577620D01*
X33139285Y8530000D01*
X33091666Y8482381D01*
X32710714Y8482381D02*
X32663095Y8530000D01*
X32567857Y8577620D01*
X32329761Y8577620D01*
X32234523Y8530000D01*
X32186904Y8482381D01*
X32139285Y8387143D01*
X32139285Y8291905D01*
X32186904Y8149048D01*
X32758333Y7577620D01*
X32139285Y7577620D01*
X31710714Y7577620D02*
X31710714Y8577620D01*
X31472619Y8577620D01*
X31329761Y8530000D01*
X31234523Y8434762D01*
X31186904Y8339524D01*
X31139285Y8149048D01*
X31139285Y8006191D01*
X31186904Y7815715D01*
X31234523Y7720477D01*
X31329761Y7625239D01*
X31472619Y7577620D01*
X31710714Y7577620D01*
G04 #@! TO.C,C2E*
X43544047Y14872858D02*
X43591666Y14825239D01*
X43734523Y14777620D01*
X43829761Y14777620D01*
X43972619Y14825239D01*
X44067857Y14920477D01*
X44115476Y15015715D01*
X44163095Y15206191D01*
X44163095Y15349048D01*
X44115476Y15539524D01*
X44067857Y15634762D01*
X43972619Y15730000D01*
X43829761Y15777620D01*
X43734523Y15777620D01*
X43591666Y15730000D01*
X43544047Y15682381D01*
X43163095Y15682381D02*
X43115476Y15730000D01*
X43020238Y15777620D01*
X42782142Y15777620D01*
X42686904Y15730000D01*
X42639285Y15682381D01*
X42591666Y15587143D01*
X42591666Y15491905D01*
X42639285Y15349048D01*
X43210714Y14777620D01*
X42591666Y14777620D01*
X42163095Y15301429D02*
X41829761Y15301429D01*
X41686904Y14777620D02*
X42163095Y14777620D01*
X42163095Y15777620D01*
X41686904Y15777620D01*
G04 #@! TO.C,U-RGB1B*
X31580952Y42192620D02*
X31580952Y41383096D01*
X31533333Y41287858D01*
X31485714Y41240239D01*
X31390476Y41192620D01*
X31200000Y41192620D01*
X31104761Y41240239D01*
X31057142Y41287858D01*
X31009523Y41383096D01*
X31009523Y42192620D01*
X30533333Y41573572D02*
X29771428Y41573572D01*
X28723809Y41192620D02*
X29057142Y41668810D01*
X29295238Y41192620D02*
X29295238Y42192620D01*
X28914285Y42192620D01*
X28819047Y42145000D01*
X28771428Y42097381D01*
X28723809Y42002143D01*
X28723809Y41859286D01*
X28771428Y41764048D01*
X28819047Y41716429D01*
X28914285Y41668810D01*
X29295238Y41668810D01*
X27771428Y42145000D02*
X27866666Y42192620D01*
X28009523Y42192620D01*
X28152380Y42145000D01*
X28247619Y42049762D01*
X28295238Y41954524D01*
X28342857Y41764048D01*
X28342857Y41621191D01*
X28295238Y41430715D01*
X28247619Y41335477D01*
X28152380Y41240239D01*
X28009523Y41192620D01*
X27914285Y41192620D01*
X27771428Y41240239D01*
X27723809Y41287858D01*
X27723809Y41621191D01*
X27914285Y41621191D01*
X26961904Y41716429D02*
X26819047Y41668810D01*
X26771428Y41621191D01*
X26723809Y41525953D01*
X26723809Y41383096D01*
X26771428Y41287858D01*
X26819047Y41240239D01*
X26914285Y41192620D01*
X27295238Y41192620D01*
X27295238Y42192620D01*
X26961904Y42192620D01*
X26866666Y42145000D01*
X26819047Y42097381D01*
X26771428Y42002143D01*
X26771428Y41906905D01*
X26819047Y41811667D01*
X26866666Y41764048D01*
X26961904Y41716429D01*
X27295238Y41716429D01*
X25771428Y41192620D02*
X26342857Y41192620D01*
X26057142Y41192620D02*
X26057142Y42192620D01*
X26152380Y42049762D01*
X26247619Y41954524D01*
X26342857Y41906905D01*
X25009523Y41716429D02*
X24866666Y41668810D01*
X24819047Y41621191D01*
X24771428Y41525953D01*
X24771428Y41383096D01*
X24819047Y41287858D01*
X24866666Y41240239D01*
X24961904Y41192620D01*
X25342857Y41192620D01*
X25342857Y42192620D01*
X25009523Y42192620D01*
X24914285Y42145000D01*
X24866666Y42097381D01*
X24819047Y42002143D01*
X24819047Y41906905D01*
X24866666Y41811667D01*
X24914285Y41764048D01*
X25009523Y41716429D01*
X25342857Y41716429D01*
G04 #@! TO.C,U-RGB1C*
X52630952Y41897620D02*
X52630952Y41088096D01*
X52583333Y40992858D01*
X52535714Y40945239D01*
X52440476Y40897620D01*
X52250000Y40897620D01*
X52154761Y40945239D01*
X52107142Y40992858D01*
X52059523Y41088096D01*
X52059523Y41897620D01*
X51583333Y41278572D02*
X50821428Y41278572D01*
X49773809Y40897620D02*
X50107142Y41373810D01*
X50345238Y40897620D02*
X50345238Y41897620D01*
X49964285Y41897620D01*
X49869047Y41850000D01*
X49821428Y41802381D01*
X49773809Y41707143D01*
X49773809Y41564286D01*
X49821428Y41469048D01*
X49869047Y41421429D01*
X49964285Y41373810D01*
X50345238Y41373810D01*
X48821428Y41850000D02*
X48916666Y41897620D01*
X49059523Y41897620D01*
X49202380Y41850000D01*
X49297619Y41754762D01*
X49345238Y41659524D01*
X49392857Y41469048D01*
X49392857Y41326191D01*
X49345238Y41135715D01*
X49297619Y41040477D01*
X49202380Y40945239D01*
X49059523Y40897620D01*
X48964285Y40897620D01*
X48821428Y40945239D01*
X48773809Y40992858D01*
X48773809Y41326191D01*
X48964285Y41326191D01*
X48011904Y41421429D02*
X47869047Y41373810D01*
X47821428Y41326191D01*
X47773809Y41230953D01*
X47773809Y41088096D01*
X47821428Y40992858D01*
X47869047Y40945239D01*
X47964285Y40897620D01*
X48345238Y40897620D01*
X48345238Y41897620D01*
X48011904Y41897620D01*
X47916666Y41850000D01*
X47869047Y41802381D01*
X47821428Y41707143D01*
X47821428Y41611905D01*
X47869047Y41516667D01*
X47916666Y41469048D01*
X48011904Y41421429D01*
X48345238Y41421429D01*
X46821428Y40897620D02*
X47392857Y40897620D01*
X47107142Y40897620D02*
X47107142Y41897620D01*
X47202380Y41754762D01*
X47297619Y41659524D01*
X47392857Y41611905D01*
X45821428Y40992858D02*
X45869047Y40945239D01*
X46011904Y40897620D01*
X46107142Y40897620D01*
X46250000Y40945239D01*
X46345238Y41040477D01*
X46392857Y41135715D01*
X46440476Y41326191D01*
X46440476Y41469048D01*
X46392857Y41659524D01*
X46345238Y41754762D01*
X46250000Y41850000D01*
X46107142Y41897620D01*
X46011904Y41897620D01*
X45869047Y41850000D01*
X45821428Y41802381D01*
G04 #@! TO.C,U-RGB2A*
X12609523Y20797620D02*
X12609523Y19988096D01*
X12561904Y19892858D01*
X12514285Y19845239D01*
X12419047Y19797620D01*
X12228571Y19797620D01*
X12133333Y19845239D01*
X12085714Y19892858D01*
X12038095Y19988096D01*
X12038095Y20797620D01*
X11561904Y20178572D02*
X10800000Y20178572D01*
X9752380Y19797620D02*
X10085714Y20273810D01*
X10323809Y19797620D02*
X10323809Y20797620D01*
X9942857Y20797620D01*
X9847619Y20750000D01*
X9800000Y20702381D01*
X9752380Y20607143D01*
X9752380Y20464286D01*
X9800000Y20369048D01*
X9847619Y20321429D01*
X9942857Y20273810D01*
X10323809Y20273810D01*
X8800000Y20750000D02*
X8895238Y20797620D01*
X9038095Y20797620D01*
X9180952Y20750000D01*
X9276190Y20654762D01*
X9323809Y20559524D01*
X9371428Y20369048D01*
X9371428Y20226191D01*
X9323809Y20035715D01*
X9276190Y19940477D01*
X9180952Y19845239D01*
X9038095Y19797620D01*
X8942857Y19797620D01*
X8800000Y19845239D01*
X8752380Y19892858D01*
X8752380Y20226191D01*
X8942857Y20226191D01*
X7990476Y20321429D02*
X7847619Y20273810D01*
X7800000Y20226191D01*
X7752380Y20130953D01*
X7752380Y19988096D01*
X7800000Y19892858D01*
X7847619Y19845239D01*
X7942857Y19797620D01*
X8323809Y19797620D01*
X8323809Y20797620D01*
X7990476Y20797620D01*
X7895238Y20750000D01*
X7847619Y20702381D01*
X7800000Y20607143D01*
X7800000Y20511905D01*
X7847619Y20416667D01*
X7895238Y20369048D01*
X7990476Y20321429D01*
X8323809Y20321429D01*
X7371428Y20702381D02*
X7323809Y20750000D01*
X7228571Y20797620D01*
X6990476Y20797620D01*
X6895238Y20750000D01*
X6847619Y20702381D01*
X6800000Y20607143D01*
X6800000Y20511905D01*
X6847619Y20369048D01*
X7419047Y19797620D01*
X6800000Y19797620D01*
X6419047Y20083334D02*
X5942857Y20083334D01*
X6514285Y19797620D02*
X6180952Y20797620D01*
X5847619Y19797620D01*
G04 #@! TO.C,U-RGB2B*
X31580952Y20992620D02*
X31580952Y20183096D01*
X31533333Y20087858D01*
X31485714Y20040239D01*
X31390476Y19992620D01*
X31200000Y19992620D01*
X31104761Y20040239D01*
X31057142Y20087858D01*
X31009523Y20183096D01*
X31009523Y20992620D01*
X30533333Y20373572D02*
X29771428Y20373572D01*
X28723809Y19992620D02*
X29057142Y20468810D01*
X29295238Y19992620D02*
X29295238Y20992620D01*
X28914285Y20992620D01*
X28819047Y20945000D01*
X28771428Y20897381D01*
X28723809Y20802143D01*
X28723809Y20659286D01*
X28771428Y20564048D01*
X28819047Y20516429D01*
X28914285Y20468810D01*
X29295238Y20468810D01*
X27771428Y20945000D02*
X27866666Y20992620D01*
X28009523Y20992620D01*
X28152380Y20945000D01*
X28247619Y20849762D01*
X28295238Y20754524D01*
X28342857Y20564048D01*
X28342857Y20421191D01*
X28295238Y20230715D01*
X28247619Y20135477D01*
X28152380Y20040239D01*
X28009523Y19992620D01*
X27914285Y19992620D01*
X27771428Y20040239D01*
X27723809Y20087858D01*
X27723809Y20421191D01*
X27914285Y20421191D01*
X26961904Y20516429D02*
X26819047Y20468810D01*
X26771428Y20421191D01*
X26723809Y20325953D01*
X26723809Y20183096D01*
X26771428Y20087858D01*
X26819047Y20040239D01*
X26914285Y19992620D01*
X27295238Y19992620D01*
X27295238Y20992620D01*
X26961904Y20992620D01*
X26866666Y20945000D01*
X26819047Y20897381D01*
X26771428Y20802143D01*
X26771428Y20706905D01*
X26819047Y20611667D01*
X26866666Y20564048D01*
X26961904Y20516429D01*
X27295238Y20516429D01*
X26342857Y20897381D02*
X26295238Y20945000D01*
X26200000Y20992620D01*
X25961904Y20992620D01*
X25866666Y20945000D01*
X25819047Y20897381D01*
X25771428Y20802143D01*
X25771428Y20706905D01*
X25819047Y20564048D01*
X26390476Y19992620D01*
X25771428Y19992620D01*
X25009523Y20516429D02*
X24866666Y20468810D01*
X24819047Y20421191D01*
X24771428Y20325953D01*
X24771428Y20183096D01*
X24819047Y20087858D01*
X24866666Y20040239D01*
X24961904Y19992620D01*
X25342857Y19992620D01*
X25342857Y20992620D01*
X25009523Y20992620D01*
X24914285Y20945000D01*
X24866666Y20897381D01*
X24819047Y20802143D01*
X24819047Y20706905D01*
X24866666Y20611667D01*
X24914285Y20564048D01*
X25009523Y20516429D01*
X25342857Y20516429D01*
G04 #@! TO.C,U-RGB2C*
X52580952Y20992620D02*
X52580952Y20183096D01*
X52533333Y20087858D01*
X52485714Y20040239D01*
X52390476Y19992620D01*
X52200000Y19992620D01*
X52104761Y20040239D01*
X52057142Y20087858D01*
X52009523Y20183096D01*
X52009523Y20992620D01*
X51533333Y20373572D02*
X50771428Y20373572D01*
X49723809Y19992620D02*
X50057142Y20468810D01*
X50295238Y19992620D02*
X50295238Y20992620D01*
X49914285Y20992620D01*
X49819047Y20945000D01*
X49771428Y20897381D01*
X49723809Y20802143D01*
X49723809Y20659286D01*
X49771428Y20564048D01*
X49819047Y20516429D01*
X49914285Y20468810D01*
X50295238Y20468810D01*
X48771428Y20945000D02*
X48866666Y20992620D01*
X49009523Y20992620D01*
X49152380Y20945000D01*
X49247619Y20849762D01*
X49295238Y20754524D01*
X49342857Y20564048D01*
X49342857Y20421191D01*
X49295238Y20230715D01*
X49247619Y20135477D01*
X49152380Y20040239D01*
X49009523Y19992620D01*
X48914285Y19992620D01*
X48771428Y20040239D01*
X48723809Y20087858D01*
X48723809Y20421191D01*
X48914285Y20421191D01*
X47961904Y20516429D02*
X47819047Y20468810D01*
X47771428Y20421191D01*
X47723809Y20325953D01*
X47723809Y20183096D01*
X47771428Y20087858D01*
X47819047Y20040239D01*
X47914285Y19992620D01*
X48295238Y19992620D01*
X48295238Y20992620D01*
X47961904Y20992620D01*
X47866666Y20945000D01*
X47819047Y20897381D01*
X47771428Y20802143D01*
X47771428Y20706905D01*
X47819047Y20611667D01*
X47866666Y20564048D01*
X47961904Y20516429D01*
X48295238Y20516429D01*
X47342857Y20897381D02*
X47295238Y20945000D01*
X47200000Y20992620D01*
X46961904Y20992620D01*
X46866666Y20945000D01*
X46819047Y20897381D01*
X46771428Y20802143D01*
X46771428Y20706905D01*
X46819047Y20564048D01*
X47390476Y19992620D01*
X46771428Y19992620D01*
X45771428Y20087858D02*
X45819047Y20040239D01*
X45961904Y19992620D01*
X46057142Y19992620D01*
X46200000Y20040239D01*
X46295238Y20135477D01*
X46342857Y20230715D01*
X46390476Y20421191D01*
X46390476Y20564048D01*
X46342857Y20754524D01*
X46295238Y20849762D01*
X46200000Y20945000D01*
X46057142Y20992620D01*
X45961904Y20992620D01*
X45819047Y20945000D01*
X45771428Y20897381D01*
G04 #@! TO.C,U-UV1C*
X40783333Y34697620D02*
X40783333Y33888096D01*
X40735714Y33792858D01*
X40688095Y33745239D01*
X40592857Y33697620D01*
X40402380Y33697620D01*
X40307142Y33745239D01*
X40259523Y33792858D01*
X40211904Y33888096D01*
X40211904Y34697620D01*
X39735714Y34078572D02*
X38973809Y34078572D01*
X38497619Y34697620D02*
X38497619Y33888096D01*
X38450000Y33792858D01*
X38402380Y33745239D01*
X38307142Y33697620D01*
X38116666Y33697620D01*
X38021428Y33745239D01*
X37973809Y33792858D01*
X37926190Y33888096D01*
X37926190Y34697620D01*
X37592857Y34697620D02*
X37259523Y33697620D01*
X36926190Y34697620D01*
X36069047Y33697620D02*
X36640476Y33697620D01*
X36354761Y33697620D02*
X36354761Y34697620D01*
X36450000Y34554762D01*
X36545238Y34459524D01*
X36640476Y34411905D01*
X35069047Y33792858D02*
X35116666Y33745239D01*
X35259523Y33697620D01*
X35354761Y33697620D01*
X35497619Y33745239D01*
X35592857Y33840477D01*
X35640476Y33935715D01*
X35688095Y34126191D01*
X35688095Y34269048D01*
X35640476Y34459524D01*
X35592857Y34554762D01*
X35497619Y34650000D01*
X35354761Y34697620D01*
X35259523Y34697620D01*
X35116666Y34650000D01*
X35069047Y34602381D01*
G04 #@! TO.C,U-UV2A*
X19811904Y13747620D02*
X19811904Y12938096D01*
X19764285Y12842858D01*
X19716666Y12795239D01*
X19621428Y12747620D01*
X19430952Y12747620D01*
X19335714Y12795239D01*
X19288095Y12842858D01*
X19240476Y12938096D01*
X19240476Y13747620D01*
X18764285Y13128572D02*
X18002380Y13128572D01*
X17526190Y13747620D02*
X17526190Y12938096D01*
X17478571Y12842858D01*
X17430952Y12795239D01*
X17335714Y12747620D01*
X17145238Y12747620D01*
X17050000Y12795239D01*
X17002380Y12842858D01*
X16954761Y12938096D01*
X16954761Y13747620D01*
X16621428Y13747620D02*
X16288095Y12747620D01*
X15954761Y13747620D01*
X15669047Y13652381D02*
X15621428Y13700000D01*
X15526190Y13747620D01*
X15288095Y13747620D01*
X15192857Y13700000D01*
X15145238Y13652381D01*
X15097619Y13557143D01*
X15097619Y13461905D01*
X15145238Y13319048D01*
X15716666Y12747620D01*
X15097619Y12747620D01*
X14716666Y13033334D02*
X14240476Y13033334D01*
X14811904Y12747620D02*
X14478571Y13747620D01*
X14145238Y12747620D01*
G04 #@! TO.C,U-UV2C*
X40783333Y13747620D02*
X40783333Y12938096D01*
X40735714Y12842858D01*
X40688095Y12795239D01*
X40592857Y12747620D01*
X40402380Y12747620D01*
X40307142Y12795239D01*
X40259523Y12842858D01*
X40211904Y12938096D01*
X40211904Y13747620D01*
X39735714Y13128572D02*
X38973809Y13128572D01*
X38497619Y13747620D02*
X38497619Y12938096D01*
X38450000Y12842858D01*
X38402380Y12795239D01*
X38307142Y12747620D01*
X38116666Y12747620D01*
X38021428Y12795239D01*
X37973809Y12842858D01*
X37926190Y12938096D01*
X37926190Y13747620D01*
X37592857Y13747620D02*
X37259523Y12747620D01*
X36926190Y13747620D01*
X36640476Y13652381D02*
X36592857Y13700000D01*
X36497619Y13747620D01*
X36259523Y13747620D01*
X36164285Y13700000D01*
X36116666Y13652381D01*
X36069047Y13557143D01*
X36069047Y13461905D01*
X36116666Y13319048D01*
X36688095Y12747620D01*
X36069047Y12747620D01*
X35069047Y12842858D02*
X35116666Y12795239D01*
X35259523Y12747620D01*
X35354761Y12747620D01*
X35497619Y12795239D01*
X35592857Y12890477D01*
X35640476Y12985715D01*
X35688095Y13176191D01*
X35688095Y13319048D01*
X35640476Y13509524D01*
X35592857Y13604762D01*
X35497619Y13700000D01*
X35354761Y13747620D01*
X35259523Y13747620D01*
X35116666Y13700000D01*
X35069047Y13652381D01*
G04 #@! TO.C,J1*
X702380Y30083334D02*
X1416666Y30083334D01*
X1559523Y30130953D01*
X1654761Y30226191D01*
X1702380Y30369048D01*
X1702380Y30464286D01*
X1702380Y29083334D02*
X1702380Y29654762D01*
X1702380Y29369048D02*
X702380Y29369048D01*
X845238Y29464286D01*
X940476Y29559524D01*
X988095Y29654762D01*
G04 #@! TD*
%LPC*%
D15*
G36*
X13450000Y44650000D02*
X13450000Y41950000D01*
X18900000Y41950000D01*
X18900000Y44650000D01*
X13450000Y44650000D01*
G37*
G36*
X31850000Y44650000D02*
X31850000Y41950000D01*
X37300000Y41950000D01*
X37300000Y44650000D01*
X31850000Y44650000D01*
G37*
G36*
X50650000Y400000D02*
X50650000Y2100000D01*
X46500000Y2100000D01*
X46500000Y400000D01*
X50650000Y400000D01*
G37*
D16*
G04 #@! TO.C,FID4*
X1700000Y1650000D03*
G04 #@! TD*
G04 #@! TO.C,FID6*
X25900000Y43650000D03*
G04 #@! TD*
G04 #@! TO.C,FID5*
X53700000Y43650000D03*
G04 #@! TD*
D17*
G04 #@! TO.C,U-UV1A*
X17700000Y29050000D03*
D18*
X20950000Y32885000D03*
X20450000Y32885000D03*
X19950000Y32885000D03*
X19450000Y32885000D03*
X18950000Y32885000D03*
X18450000Y32885000D03*
X17950000Y32885000D03*
X17450000Y32885000D03*
X16950000Y32885000D03*
X16450000Y32885000D03*
X15950000Y32885000D03*
X15450000Y32885000D03*
X14950000Y32885000D03*
X14450000Y32885000D03*
D19*
X13865000Y32300000D03*
X13865000Y31800000D03*
X13865000Y31300000D03*
X13865000Y30800000D03*
X13865000Y30300000D03*
X13865000Y29800000D03*
X13865000Y29300000D03*
X13865000Y28800000D03*
X13865000Y28300000D03*
X13865000Y27800000D03*
X13865000Y27300000D03*
X13865000Y26800000D03*
X13865000Y26300000D03*
X13865000Y25800000D03*
D18*
X14450000Y25215000D03*
X14950000Y25215000D03*
X15450000Y25215000D03*
X15950000Y25215000D03*
X16450000Y25215000D03*
X16950000Y25215000D03*
X17450000Y25215000D03*
X17950000Y25215000D03*
X18450000Y25215000D03*
X18950000Y25215000D03*
X19450000Y25215000D03*
X19950000Y25215000D03*
X20450000Y25215000D03*
X20950000Y25215000D03*
D19*
X21535000Y25800000D03*
X21535000Y26300000D03*
X21535000Y26800000D03*
X21535000Y27300000D03*
X21535000Y27800000D03*
X21535000Y28300000D03*
X21535000Y28800000D03*
X21535000Y29300000D03*
X21535000Y29800000D03*
X21535000Y30300000D03*
X21535000Y30800000D03*
X21535000Y31300000D03*
X21535000Y31800000D03*
X21535000Y32300000D03*
G04 #@! TD*
D17*
G04 #@! TO.C,U-RGB1A*
X7200000Y36250000D03*
D18*
X10450000Y40085000D03*
X9950000Y40085000D03*
X9450000Y40085000D03*
X8950000Y40085000D03*
X8450000Y40085000D03*
X7950000Y40085000D03*
X7450000Y40085000D03*
X6950000Y40085000D03*
X6450000Y40085000D03*
X5950000Y40085000D03*
X5450000Y40085000D03*
X4950000Y40085000D03*
X4450000Y40085000D03*
X3950000Y40085000D03*
D19*
X3365000Y39500000D03*
X3365000Y39000000D03*
X3365000Y38500000D03*
X3365000Y38000000D03*
X3365000Y37500000D03*
X3365000Y37000000D03*
X3365000Y36500000D03*
X3365000Y36000000D03*
X3365000Y35500000D03*
X3365000Y35000000D03*
X3365000Y34500000D03*
X3365000Y34000000D03*
X3365000Y33500000D03*
X3365000Y33000000D03*
D18*
X3950000Y32415000D03*
X4450000Y32415000D03*
X4950000Y32415000D03*
X5450000Y32415000D03*
X5950000Y32415000D03*
X6450000Y32415000D03*
X6950000Y32415000D03*
X7450000Y32415000D03*
X7950000Y32415000D03*
X8450000Y32415000D03*
X8950000Y32415000D03*
X9450000Y32415000D03*
X9950000Y32415000D03*
X10450000Y32415000D03*
D19*
X11035000Y33000000D03*
X11035000Y33500000D03*
X11035000Y34000000D03*
X11035000Y34500000D03*
X11035000Y35000000D03*
X11035000Y35500000D03*
X11035000Y36000000D03*
X11035000Y36500000D03*
X11035000Y37000000D03*
X11035000Y37500000D03*
X11035000Y38000000D03*
X11035000Y38500000D03*
X11035000Y39000000D03*
X11035000Y39500000D03*
G04 #@! TD*
D15*
G04 #@! TO.C,C1A*
G36*
X1960779Y33973856D02*
X1983834Y33970437D01*
X2006443Y33964773D01*
X2028387Y33956921D01*
X2049457Y33946956D01*
X2069448Y33934974D01*
X2088168Y33921090D01*
X2105438Y33905438D01*
X2121090Y33888168D01*
X2134974Y33869448D01*
X2146956Y33849457D01*
X2156921Y33828387D01*
X2164773Y33806443D01*
X2170437Y33783834D01*
X2173856Y33760779D01*
X2175000Y33737500D01*
X2175000Y33162500D01*
X2173856Y33139221D01*
X2170437Y33116166D01*
X2164773Y33093557D01*
X2156921Y33071613D01*
X2146956Y33050543D01*
X2134974Y33030552D01*
X2121090Y33011832D01*
X2105438Y32994562D01*
X2088168Y32978910D01*
X2069448Y32965026D01*
X2049457Y32953044D01*
X2028387Y32943079D01*
X2006443Y32935227D01*
X1983834Y32929563D01*
X1960779Y32926144D01*
X1937500Y32925000D01*
X1462500Y32925000D01*
X1439221Y32926144D01*
X1416166Y32929563D01*
X1393557Y32935227D01*
X1371613Y32943079D01*
X1350543Y32953044D01*
X1330552Y32965026D01*
X1311832Y32978910D01*
X1294562Y32994562D01*
X1278910Y33011832D01*
X1265026Y33030552D01*
X1253044Y33050543D01*
X1243079Y33071613D01*
X1235227Y33093557D01*
X1229563Y33116166D01*
X1226144Y33139221D01*
X1225000Y33162500D01*
X1225000Y33737500D01*
X1226144Y33760779D01*
X1229563Y33783834D01*
X1235227Y33806443D01*
X1243079Y33828387D01*
X1253044Y33849457D01*
X1265026Y33869448D01*
X1278910Y33888168D01*
X1294562Y33905438D01*
X1311832Y33921090D01*
X1330552Y33934974D01*
X1350543Y33946956D01*
X1371613Y33956921D01*
X1393557Y33964773D01*
X1416166Y33970437D01*
X1439221Y33973856D01*
X1462500Y33975000D01*
X1937500Y33975000D01*
X1960779Y33973856D01*
X1960779Y33973856D01*
G37*
D20*
X1700000Y33450000D03*
D15*
G36*
X1960779Y35723856D02*
X1983834Y35720437D01*
X2006443Y35714773D01*
X2028387Y35706921D01*
X2049457Y35696956D01*
X2069448Y35684974D01*
X2088168Y35671090D01*
X2105438Y35655438D01*
X2121090Y35638168D01*
X2134974Y35619448D01*
X2146956Y35599457D01*
X2156921Y35578387D01*
X2164773Y35556443D01*
X2170437Y35533834D01*
X2173856Y35510779D01*
X2175000Y35487500D01*
X2175000Y34912500D01*
X2173856Y34889221D01*
X2170437Y34866166D01*
X2164773Y34843557D01*
X2156921Y34821613D01*
X2146956Y34800543D01*
X2134974Y34780552D01*
X2121090Y34761832D01*
X2105438Y34744562D01*
X2088168Y34728910D01*
X2069448Y34715026D01*
X2049457Y34703044D01*
X2028387Y34693079D01*
X2006443Y34685227D01*
X1983834Y34679563D01*
X1960779Y34676144D01*
X1937500Y34675000D01*
X1462500Y34675000D01*
X1439221Y34676144D01*
X1416166Y34679563D01*
X1393557Y34685227D01*
X1371613Y34693079D01*
X1350543Y34703044D01*
X1330552Y34715026D01*
X1311832Y34728910D01*
X1294562Y34744562D01*
X1278910Y34761832D01*
X1265026Y34780552D01*
X1253044Y34800543D01*
X1243079Y34821613D01*
X1235227Y34843557D01*
X1229563Y34866166D01*
X1226144Y34889221D01*
X1225000Y34912500D01*
X1225000Y35487500D01*
X1226144Y35510779D01*
X1229563Y35533834D01*
X1235227Y35556443D01*
X1243079Y35578387D01*
X1253044Y35599457D01*
X1265026Y35619448D01*
X1278910Y35638168D01*
X1294562Y35655438D01*
X1311832Y35671090D01*
X1330552Y35684974D01*
X1350543Y35696956D01*
X1371613Y35706921D01*
X1393557Y35714773D01*
X1416166Y35720437D01*
X1439221Y35723856D01*
X1462500Y35725000D01*
X1937500Y35725000D01*
X1960779Y35723856D01*
X1960779Y35723856D01*
G37*
D20*
X1700000Y35200000D03*
G04 #@! TD*
D15*
G04 #@! TO.C,C1B*
G36*
X10860779Y28273856D02*
X10883834Y28270437D01*
X10906443Y28264773D01*
X10928387Y28256921D01*
X10949457Y28246956D01*
X10969448Y28234974D01*
X10988168Y28221090D01*
X11005438Y28205438D01*
X11021090Y28188168D01*
X11034974Y28169448D01*
X11046956Y28149457D01*
X11056921Y28128387D01*
X11064773Y28106443D01*
X11070437Y28083834D01*
X11073856Y28060779D01*
X11075000Y28037500D01*
X11075000Y27562500D01*
X11073856Y27539221D01*
X11070437Y27516166D01*
X11064773Y27493557D01*
X11056921Y27471613D01*
X11046956Y27450543D01*
X11034974Y27430552D01*
X11021090Y27411832D01*
X11005438Y27394562D01*
X10988168Y27378910D01*
X10969448Y27365026D01*
X10949457Y27353044D01*
X10928387Y27343079D01*
X10906443Y27335227D01*
X10883834Y27329563D01*
X10860779Y27326144D01*
X10837500Y27325000D01*
X10262500Y27325000D01*
X10239221Y27326144D01*
X10216166Y27329563D01*
X10193557Y27335227D01*
X10171613Y27343079D01*
X10150543Y27353044D01*
X10130552Y27365026D01*
X10111832Y27378910D01*
X10094562Y27394562D01*
X10078910Y27411832D01*
X10065026Y27430552D01*
X10053044Y27450543D01*
X10043079Y27471613D01*
X10035227Y27493557D01*
X10029563Y27516166D01*
X10026144Y27539221D01*
X10025000Y27562500D01*
X10025000Y28037500D01*
X10026144Y28060779D01*
X10029563Y28083834D01*
X10035227Y28106443D01*
X10043079Y28128387D01*
X10053044Y28149457D01*
X10065026Y28169448D01*
X10078910Y28188168D01*
X10094562Y28205438D01*
X10111832Y28221090D01*
X10130552Y28234974D01*
X10150543Y28246956D01*
X10171613Y28256921D01*
X10193557Y28264773D01*
X10216166Y28270437D01*
X10239221Y28273856D01*
X10262500Y28275000D01*
X10837500Y28275000D01*
X10860779Y28273856D01*
X10860779Y28273856D01*
G37*
D20*
X10550000Y27800000D03*
D15*
G36*
X12610779Y28273856D02*
X12633834Y28270437D01*
X12656443Y28264773D01*
X12678387Y28256921D01*
X12699457Y28246956D01*
X12719448Y28234974D01*
X12738168Y28221090D01*
X12755438Y28205438D01*
X12771090Y28188168D01*
X12784974Y28169448D01*
X12796956Y28149457D01*
X12806921Y28128387D01*
X12814773Y28106443D01*
X12820437Y28083834D01*
X12823856Y28060779D01*
X12825000Y28037500D01*
X12825000Y27562500D01*
X12823856Y27539221D01*
X12820437Y27516166D01*
X12814773Y27493557D01*
X12806921Y27471613D01*
X12796956Y27450543D01*
X12784974Y27430552D01*
X12771090Y27411832D01*
X12755438Y27394562D01*
X12738168Y27378910D01*
X12719448Y27365026D01*
X12699457Y27353044D01*
X12678387Y27343079D01*
X12656443Y27335227D01*
X12633834Y27329563D01*
X12610779Y27326144D01*
X12587500Y27325000D01*
X12012500Y27325000D01*
X11989221Y27326144D01*
X11966166Y27329563D01*
X11943557Y27335227D01*
X11921613Y27343079D01*
X11900543Y27353044D01*
X11880552Y27365026D01*
X11861832Y27378910D01*
X11844562Y27394562D01*
X11828910Y27411832D01*
X11815026Y27430552D01*
X11803044Y27450543D01*
X11793079Y27471613D01*
X11785227Y27493557D01*
X11779563Y27516166D01*
X11776144Y27539221D01*
X11775000Y27562500D01*
X11775000Y28037500D01*
X11776144Y28060779D01*
X11779563Y28083834D01*
X11785227Y28106443D01*
X11793079Y28128387D01*
X11803044Y28149457D01*
X11815026Y28169448D01*
X11828910Y28188168D01*
X11844562Y28205438D01*
X11861832Y28221090D01*
X11880552Y28234974D01*
X11900543Y28246956D01*
X11921613Y28256921D01*
X11943557Y28264773D01*
X11966166Y28270437D01*
X11989221Y28273856D01*
X12012500Y28275000D01*
X12587500Y28275000D01*
X12610779Y28273856D01*
X12610779Y28273856D01*
G37*
D20*
X12300000Y27800000D03*
G04 #@! TD*
D15*
G04 #@! TO.C,C1C*
G36*
X21360779Y35473856D02*
X21383834Y35470437D01*
X21406443Y35464773D01*
X21428387Y35456921D01*
X21449457Y35446956D01*
X21469448Y35434974D01*
X21488168Y35421090D01*
X21505438Y35405438D01*
X21521090Y35388168D01*
X21534974Y35369448D01*
X21546956Y35349457D01*
X21556921Y35328387D01*
X21564773Y35306443D01*
X21570437Y35283834D01*
X21573856Y35260779D01*
X21575000Y35237500D01*
X21575000Y34762500D01*
X21573856Y34739221D01*
X21570437Y34716166D01*
X21564773Y34693557D01*
X21556921Y34671613D01*
X21546956Y34650543D01*
X21534974Y34630552D01*
X21521090Y34611832D01*
X21505438Y34594562D01*
X21488168Y34578910D01*
X21469448Y34565026D01*
X21449457Y34553044D01*
X21428387Y34543079D01*
X21406443Y34535227D01*
X21383834Y34529563D01*
X21360779Y34526144D01*
X21337500Y34525000D01*
X20762500Y34525000D01*
X20739221Y34526144D01*
X20716166Y34529563D01*
X20693557Y34535227D01*
X20671613Y34543079D01*
X20650543Y34553044D01*
X20630552Y34565026D01*
X20611832Y34578910D01*
X20594562Y34594562D01*
X20578910Y34611832D01*
X20565026Y34630552D01*
X20553044Y34650543D01*
X20543079Y34671613D01*
X20535227Y34693557D01*
X20529563Y34716166D01*
X20526144Y34739221D01*
X20525000Y34762500D01*
X20525000Y35237500D01*
X20526144Y35260779D01*
X20529563Y35283834D01*
X20535227Y35306443D01*
X20543079Y35328387D01*
X20553044Y35349457D01*
X20565026Y35369448D01*
X20578910Y35388168D01*
X20594562Y35405438D01*
X20611832Y35421090D01*
X20630552Y35434974D01*
X20650543Y35446956D01*
X20671613Y35456921D01*
X20693557Y35464773D01*
X20716166Y35470437D01*
X20739221Y35473856D01*
X20762500Y35475000D01*
X21337500Y35475000D01*
X21360779Y35473856D01*
X21360779Y35473856D01*
G37*
D20*
X21050000Y35000000D03*
D15*
G36*
X23110779Y35473856D02*
X23133834Y35470437D01*
X23156443Y35464773D01*
X23178387Y35456921D01*
X23199457Y35446956D01*
X23219448Y35434974D01*
X23238168Y35421090D01*
X23255438Y35405438D01*
X23271090Y35388168D01*
X23284974Y35369448D01*
X23296956Y35349457D01*
X23306921Y35328387D01*
X23314773Y35306443D01*
X23320437Y35283834D01*
X23323856Y35260779D01*
X23325000Y35237500D01*
X23325000Y34762500D01*
X23323856Y34739221D01*
X23320437Y34716166D01*
X23314773Y34693557D01*
X23306921Y34671613D01*
X23296956Y34650543D01*
X23284974Y34630552D01*
X23271090Y34611832D01*
X23255438Y34594562D01*
X23238168Y34578910D01*
X23219448Y34565026D01*
X23199457Y34553044D01*
X23178387Y34543079D01*
X23156443Y34535227D01*
X23133834Y34529563D01*
X23110779Y34526144D01*
X23087500Y34525000D01*
X22512500Y34525000D01*
X22489221Y34526144D01*
X22466166Y34529563D01*
X22443557Y34535227D01*
X22421613Y34543079D01*
X22400543Y34553044D01*
X22380552Y34565026D01*
X22361832Y34578910D01*
X22344562Y34594562D01*
X22328910Y34611832D01*
X22315026Y34630552D01*
X22303044Y34650543D01*
X22293079Y34671613D01*
X22285227Y34693557D01*
X22279563Y34716166D01*
X22276144Y34739221D01*
X22275000Y34762500D01*
X22275000Y35237500D01*
X22276144Y35260779D01*
X22279563Y35283834D01*
X22285227Y35306443D01*
X22293079Y35328387D01*
X22303044Y35349457D01*
X22315026Y35369448D01*
X22328910Y35388168D01*
X22344562Y35405438D01*
X22361832Y35421090D01*
X22380552Y35434974D01*
X22400543Y35446956D01*
X22421613Y35456921D01*
X22443557Y35464773D01*
X22466166Y35470437D01*
X22489221Y35473856D01*
X22512500Y35475000D01*
X23087500Y35475000D01*
X23110779Y35473856D01*
X23110779Y35473856D01*
G37*
D20*
X22800000Y35000000D03*
G04 #@! TD*
D15*
G04 #@! TO.C,C1D*
G36*
X31860779Y28273856D02*
X31883834Y28270437D01*
X31906443Y28264773D01*
X31928387Y28256921D01*
X31949457Y28246956D01*
X31969448Y28234974D01*
X31988168Y28221090D01*
X32005438Y28205438D01*
X32021090Y28188168D01*
X32034974Y28169448D01*
X32046956Y28149457D01*
X32056921Y28128387D01*
X32064773Y28106443D01*
X32070437Y28083834D01*
X32073856Y28060779D01*
X32075000Y28037500D01*
X32075000Y27562500D01*
X32073856Y27539221D01*
X32070437Y27516166D01*
X32064773Y27493557D01*
X32056921Y27471613D01*
X32046956Y27450543D01*
X32034974Y27430552D01*
X32021090Y27411832D01*
X32005438Y27394562D01*
X31988168Y27378910D01*
X31969448Y27365026D01*
X31949457Y27353044D01*
X31928387Y27343079D01*
X31906443Y27335227D01*
X31883834Y27329563D01*
X31860779Y27326144D01*
X31837500Y27325000D01*
X31262500Y27325000D01*
X31239221Y27326144D01*
X31216166Y27329563D01*
X31193557Y27335227D01*
X31171613Y27343079D01*
X31150543Y27353044D01*
X31130552Y27365026D01*
X31111832Y27378910D01*
X31094562Y27394562D01*
X31078910Y27411832D01*
X31065026Y27430552D01*
X31053044Y27450543D01*
X31043079Y27471613D01*
X31035227Y27493557D01*
X31029563Y27516166D01*
X31026144Y27539221D01*
X31025000Y27562500D01*
X31025000Y28037500D01*
X31026144Y28060779D01*
X31029563Y28083834D01*
X31035227Y28106443D01*
X31043079Y28128387D01*
X31053044Y28149457D01*
X31065026Y28169448D01*
X31078910Y28188168D01*
X31094562Y28205438D01*
X31111832Y28221090D01*
X31130552Y28234974D01*
X31150543Y28246956D01*
X31171613Y28256921D01*
X31193557Y28264773D01*
X31216166Y28270437D01*
X31239221Y28273856D01*
X31262500Y28275000D01*
X31837500Y28275000D01*
X31860779Y28273856D01*
X31860779Y28273856D01*
G37*
D20*
X31550000Y27800000D03*
D15*
G36*
X33610779Y28273856D02*
X33633834Y28270437D01*
X33656443Y28264773D01*
X33678387Y28256921D01*
X33699457Y28246956D01*
X33719448Y28234974D01*
X33738168Y28221090D01*
X33755438Y28205438D01*
X33771090Y28188168D01*
X33784974Y28169448D01*
X33796956Y28149457D01*
X33806921Y28128387D01*
X33814773Y28106443D01*
X33820437Y28083834D01*
X33823856Y28060779D01*
X33825000Y28037500D01*
X33825000Y27562500D01*
X33823856Y27539221D01*
X33820437Y27516166D01*
X33814773Y27493557D01*
X33806921Y27471613D01*
X33796956Y27450543D01*
X33784974Y27430552D01*
X33771090Y27411832D01*
X33755438Y27394562D01*
X33738168Y27378910D01*
X33719448Y27365026D01*
X33699457Y27353044D01*
X33678387Y27343079D01*
X33656443Y27335227D01*
X33633834Y27329563D01*
X33610779Y27326144D01*
X33587500Y27325000D01*
X33012500Y27325000D01*
X32989221Y27326144D01*
X32966166Y27329563D01*
X32943557Y27335227D01*
X32921613Y27343079D01*
X32900543Y27353044D01*
X32880552Y27365026D01*
X32861832Y27378910D01*
X32844562Y27394562D01*
X32828910Y27411832D01*
X32815026Y27430552D01*
X32803044Y27450543D01*
X32793079Y27471613D01*
X32785227Y27493557D01*
X32779563Y27516166D01*
X32776144Y27539221D01*
X32775000Y27562500D01*
X32775000Y28037500D01*
X32776144Y28060779D01*
X32779563Y28083834D01*
X32785227Y28106443D01*
X32793079Y28128387D01*
X32803044Y28149457D01*
X32815026Y28169448D01*
X32828910Y28188168D01*
X32844562Y28205438D01*
X32861832Y28221090D01*
X32880552Y28234974D01*
X32900543Y28246956D01*
X32921613Y28256921D01*
X32943557Y28264773D01*
X32966166Y28270437D01*
X32989221Y28273856D01*
X33012500Y28275000D01*
X33587500Y28275000D01*
X33610779Y28273856D01*
X33610779Y28273856D01*
G37*
D20*
X33300000Y27800000D03*
G04 #@! TD*
D15*
G04 #@! TO.C,C1E*
G36*
X42360779Y35473856D02*
X42383834Y35470437D01*
X42406443Y35464773D01*
X42428387Y35456921D01*
X42449457Y35446956D01*
X42469448Y35434974D01*
X42488168Y35421090D01*
X42505438Y35405438D01*
X42521090Y35388168D01*
X42534974Y35369448D01*
X42546956Y35349457D01*
X42556921Y35328387D01*
X42564773Y35306443D01*
X42570437Y35283834D01*
X42573856Y35260779D01*
X42575000Y35237500D01*
X42575000Y34762500D01*
X42573856Y34739221D01*
X42570437Y34716166D01*
X42564773Y34693557D01*
X42556921Y34671613D01*
X42546956Y34650543D01*
X42534974Y34630552D01*
X42521090Y34611832D01*
X42505438Y34594562D01*
X42488168Y34578910D01*
X42469448Y34565026D01*
X42449457Y34553044D01*
X42428387Y34543079D01*
X42406443Y34535227D01*
X42383834Y34529563D01*
X42360779Y34526144D01*
X42337500Y34525000D01*
X41762500Y34525000D01*
X41739221Y34526144D01*
X41716166Y34529563D01*
X41693557Y34535227D01*
X41671613Y34543079D01*
X41650543Y34553044D01*
X41630552Y34565026D01*
X41611832Y34578910D01*
X41594562Y34594562D01*
X41578910Y34611832D01*
X41565026Y34630552D01*
X41553044Y34650543D01*
X41543079Y34671613D01*
X41535227Y34693557D01*
X41529563Y34716166D01*
X41526144Y34739221D01*
X41525000Y34762500D01*
X41525000Y35237500D01*
X41526144Y35260779D01*
X41529563Y35283834D01*
X41535227Y35306443D01*
X41543079Y35328387D01*
X41553044Y35349457D01*
X41565026Y35369448D01*
X41578910Y35388168D01*
X41594562Y35405438D01*
X41611832Y35421090D01*
X41630552Y35434974D01*
X41650543Y35446956D01*
X41671613Y35456921D01*
X41693557Y35464773D01*
X41716166Y35470437D01*
X41739221Y35473856D01*
X41762500Y35475000D01*
X42337500Y35475000D01*
X42360779Y35473856D01*
X42360779Y35473856D01*
G37*
D20*
X42050000Y35000000D03*
D15*
G36*
X44110779Y35473856D02*
X44133834Y35470437D01*
X44156443Y35464773D01*
X44178387Y35456921D01*
X44199457Y35446956D01*
X44219448Y35434974D01*
X44238168Y35421090D01*
X44255438Y35405438D01*
X44271090Y35388168D01*
X44284974Y35369448D01*
X44296956Y35349457D01*
X44306921Y35328387D01*
X44314773Y35306443D01*
X44320437Y35283834D01*
X44323856Y35260779D01*
X44325000Y35237500D01*
X44325000Y34762500D01*
X44323856Y34739221D01*
X44320437Y34716166D01*
X44314773Y34693557D01*
X44306921Y34671613D01*
X44296956Y34650543D01*
X44284974Y34630552D01*
X44271090Y34611832D01*
X44255438Y34594562D01*
X44238168Y34578910D01*
X44219448Y34565026D01*
X44199457Y34553044D01*
X44178387Y34543079D01*
X44156443Y34535227D01*
X44133834Y34529563D01*
X44110779Y34526144D01*
X44087500Y34525000D01*
X43512500Y34525000D01*
X43489221Y34526144D01*
X43466166Y34529563D01*
X43443557Y34535227D01*
X43421613Y34543079D01*
X43400543Y34553044D01*
X43380552Y34565026D01*
X43361832Y34578910D01*
X43344562Y34594562D01*
X43328910Y34611832D01*
X43315026Y34630552D01*
X43303044Y34650543D01*
X43293079Y34671613D01*
X43285227Y34693557D01*
X43279563Y34716166D01*
X43276144Y34739221D01*
X43275000Y34762500D01*
X43275000Y35237500D01*
X43276144Y35260779D01*
X43279563Y35283834D01*
X43285227Y35306443D01*
X43293079Y35328387D01*
X43303044Y35349457D01*
X43315026Y35369448D01*
X43328910Y35388168D01*
X43344562Y35405438D01*
X43361832Y35421090D01*
X43380552Y35434974D01*
X43400543Y35446956D01*
X43421613Y35456921D01*
X43443557Y35464773D01*
X43466166Y35470437D01*
X43489221Y35473856D01*
X43512500Y35475000D01*
X44087500Y35475000D01*
X44110779Y35473856D01*
X44110779Y35473856D01*
G37*
D20*
X43800000Y35000000D03*
G04 #@! TD*
D15*
G04 #@! TO.C,C2A*
G36*
X2060779Y16073856D02*
X2083834Y16070437D01*
X2106443Y16064773D01*
X2128387Y16056921D01*
X2149457Y16046956D01*
X2169448Y16034974D01*
X2188168Y16021090D01*
X2205438Y16005438D01*
X2221090Y15988168D01*
X2234974Y15969448D01*
X2246956Y15949457D01*
X2256921Y15928387D01*
X2264773Y15906443D01*
X2270437Y15883834D01*
X2273856Y15860779D01*
X2275000Y15837500D01*
X2275000Y15262500D01*
X2273856Y15239221D01*
X2270437Y15216166D01*
X2264773Y15193557D01*
X2256921Y15171613D01*
X2246956Y15150543D01*
X2234974Y15130552D01*
X2221090Y15111832D01*
X2205438Y15094562D01*
X2188168Y15078910D01*
X2169448Y15065026D01*
X2149457Y15053044D01*
X2128387Y15043079D01*
X2106443Y15035227D01*
X2083834Y15029563D01*
X2060779Y15026144D01*
X2037500Y15025000D01*
X1562500Y15025000D01*
X1539221Y15026144D01*
X1516166Y15029563D01*
X1493557Y15035227D01*
X1471613Y15043079D01*
X1450543Y15053044D01*
X1430552Y15065026D01*
X1411832Y15078910D01*
X1394562Y15094562D01*
X1378910Y15111832D01*
X1365026Y15130552D01*
X1353044Y15150543D01*
X1343079Y15171613D01*
X1335227Y15193557D01*
X1329563Y15216166D01*
X1326144Y15239221D01*
X1325000Y15262500D01*
X1325000Y15837500D01*
X1326144Y15860779D01*
X1329563Y15883834D01*
X1335227Y15906443D01*
X1343079Y15928387D01*
X1353044Y15949457D01*
X1365026Y15969448D01*
X1378910Y15988168D01*
X1394562Y16005438D01*
X1411832Y16021090D01*
X1430552Y16034974D01*
X1450543Y16046956D01*
X1471613Y16056921D01*
X1493557Y16064773D01*
X1516166Y16070437D01*
X1539221Y16073856D01*
X1562500Y16075000D01*
X2037500Y16075000D01*
X2060779Y16073856D01*
X2060779Y16073856D01*
G37*
D20*
X1800000Y15550000D03*
D15*
G36*
X2060779Y14323856D02*
X2083834Y14320437D01*
X2106443Y14314773D01*
X2128387Y14306921D01*
X2149457Y14296956D01*
X2169448Y14284974D01*
X2188168Y14271090D01*
X2205438Y14255438D01*
X2221090Y14238168D01*
X2234974Y14219448D01*
X2246956Y14199457D01*
X2256921Y14178387D01*
X2264773Y14156443D01*
X2270437Y14133834D01*
X2273856Y14110779D01*
X2275000Y14087500D01*
X2275000Y13512500D01*
X2273856Y13489221D01*
X2270437Y13466166D01*
X2264773Y13443557D01*
X2256921Y13421613D01*
X2246956Y13400543D01*
X2234974Y13380552D01*
X2221090Y13361832D01*
X2205438Y13344562D01*
X2188168Y13328910D01*
X2169448Y13315026D01*
X2149457Y13303044D01*
X2128387Y13293079D01*
X2106443Y13285227D01*
X2083834Y13279563D01*
X2060779Y13276144D01*
X2037500Y13275000D01*
X1562500Y13275000D01*
X1539221Y13276144D01*
X1516166Y13279563D01*
X1493557Y13285227D01*
X1471613Y13293079D01*
X1450543Y13303044D01*
X1430552Y13315026D01*
X1411832Y13328910D01*
X1394562Y13344562D01*
X1378910Y13361832D01*
X1365026Y13380552D01*
X1353044Y13400543D01*
X1343079Y13421613D01*
X1335227Y13443557D01*
X1329563Y13466166D01*
X1326144Y13489221D01*
X1325000Y13512500D01*
X1325000Y14087500D01*
X1326144Y14110779D01*
X1329563Y14133834D01*
X1335227Y14156443D01*
X1343079Y14178387D01*
X1353044Y14199457D01*
X1365026Y14219448D01*
X1378910Y14238168D01*
X1394562Y14255438D01*
X1411832Y14271090D01*
X1430552Y14284974D01*
X1450543Y14296956D01*
X1471613Y14306921D01*
X1493557Y14314773D01*
X1516166Y14320437D01*
X1539221Y14323856D01*
X1562500Y14325000D01*
X2037500Y14325000D01*
X2060779Y14323856D01*
X2060779Y14323856D01*
G37*
D20*
X1800000Y13800000D03*
G04 #@! TD*
D15*
G04 #@! TO.C,C2B*
G36*
X10860779Y7073856D02*
X10883834Y7070437D01*
X10906443Y7064773D01*
X10928387Y7056921D01*
X10949457Y7046956D01*
X10969448Y7034974D01*
X10988168Y7021090D01*
X11005438Y7005438D01*
X11021090Y6988168D01*
X11034974Y6969448D01*
X11046956Y6949457D01*
X11056921Y6928387D01*
X11064773Y6906443D01*
X11070437Y6883834D01*
X11073856Y6860779D01*
X11075000Y6837500D01*
X11075000Y6362500D01*
X11073856Y6339221D01*
X11070437Y6316166D01*
X11064773Y6293557D01*
X11056921Y6271613D01*
X11046956Y6250543D01*
X11034974Y6230552D01*
X11021090Y6211832D01*
X11005438Y6194562D01*
X10988168Y6178910D01*
X10969448Y6165026D01*
X10949457Y6153044D01*
X10928387Y6143079D01*
X10906443Y6135227D01*
X10883834Y6129563D01*
X10860779Y6126144D01*
X10837500Y6125000D01*
X10262500Y6125000D01*
X10239221Y6126144D01*
X10216166Y6129563D01*
X10193557Y6135227D01*
X10171613Y6143079D01*
X10150543Y6153044D01*
X10130552Y6165026D01*
X10111832Y6178910D01*
X10094562Y6194562D01*
X10078910Y6211832D01*
X10065026Y6230552D01*
X10053044Y6250543D01*
X10043079Y6271613D01*
X10035227Y6293557D01*
X10029563Y6316166D01*
X10026144Y6339221D01*
X10025000Y6362500D01*
X10025000Y6837500D01*
X10026144Y6860779D01*
X10029563Y6883834D01*
X10035227Y6906443D01*
X10043079Y6928387D01*
X10053044Y6949457D01*
X10065026Y6969448D01*
X10078910Y6988168D01*
X10094562Y7005438D01*
X10111832Y7021090D01*
X10130552Y7034974D01*
X10150543Y7046956D01*
X10171613Y7056921D01*
X10193557Y7064773D01*
X10216166Y7070437D01*
X10239221Y7073856D01*
X10262500Y7075000D01*
X10837500Y7075000D01*
X10860779Y7073856D01*
X10860779Y7073856D01*
G37*
D20*
X10550000Y6600000D03*
D15*
G36*
X12610779Y7073856D02*
X12633834Y7070437D01*
X12656443Y7064773D01*
X12678387Y7056921D01*
X12699457Y7046956D01*
X12719448Y7034974D01*
X12738168Y7021090D01*
X12755438Y7005438D01*
X12771090Y6988168D01*
X12784974Y6969448D01*
X12796956Y6949457D01*
X12806921Y6928387D01*
X12814773Y6906443D01*
X12820437Y6883834D01*
X12823856Y6860779D01*
X12825000Y6837500D01*
X12825000Y6362500D01*
X12823856Y6339221D01*
X12820437Y6316166D01*
X12814773Y6293557D01*
X12806921Y6271613D01*
X12796956Y6250543D01*
X12784974Y6230552D01*
X12771090Y6211832D01*
X12755438Y6194562D01*
X12738168Y6178910D01*
X12719448Y6165026D01*
X12699457Y6153044D01*
X12678387Y6143079D01*
X12656443Y6135227D01*
X12633834Y6129563D01*
X12610779Y6126144D01*
X12587500Y6125000D01*
X12012500Y6125000D01*
X11989221Y6126144D01*
X11966166Y6129563D01*
X11943557Y6135227D01*
X11921613Y6143079D01*
X11900543Y6153044D01*
X11880552Y6165026D01*
X11861832Y6178910D01*
X11844562Y6194562D01*
X11828910Y6211832D01*
X11815026Y6230552D01*
X11803044Y6250543D01*
X11793079Y6271613D01*
X11785227Y6293557D01*
X11779563Y6316166D01*
X11776144Y6339221D01*
X11775000Y6362500D01*
X11775000Y6837500D01*
X11776144Y6860779D01*
X11779563Y6883834D01*
X11785227Y6906443D01*
X11793079Y6928387D01*
X11803044Y6949457D01*
X11815026Y6969448D01*
X11828910Y6988168D01*
X11844562Y7005438D01*
X11861832Y7021090D01*
X11880552Y7034974D01*
X11900543Y7046956D01*
X11921613Y7056921D01*
X11943557Y7064773D01*
X11966166Y7070437D01*
X11989221Y7073856D01*
X12012500Y7075000D01*
X12587500Y7075000D01*
X12610779Y7073856D01*
X12610779Y7073856D01*
G37*
D20*
X12300000Y6600000D03*
G04 #@! TD*
D15*
G04 #@! TO.C,C2C*
G36*
X21360779Y14273856D02*
X21383834Y14270437D01*
X21406443Y14264773D01*
X21428387Y14256921D01*
X21449457Y14246956D01*
X21469448Y14234974D01*
X21488168Y14221090D01*
X21505438Y14205438D01*
X21521090Y14188168D01*
X21534974Y14169448D01*
X21546956Y14149457D01*
X21556921Y14128387D01*
X21564773Y14106443D01*
X21570437Y14083834D01*
X21573856Y14060779D01*
X21575000Y14037500D01*
X21575000Y13562500D01*
X21573856Y13539221D01*
X21570437Y13516166D01*
X21564773Y13493557D01*
X21556921Y13471613D01*
X21546956Y13450543D01*
X21534974Y13430552D01*
X21521090Y13411832D01*
X21505438Y13394562D01*
X21488168Y13378910D01*
X21469448Y13365026D01*
X21449457Y13353044D01*
X21428387Y13343079D01*
X21406443Y13335227D01*
X21383834Y13329563D01*
X21360779Y13326144D01*
X21337500Y13325000D01*
X20762500Y13325000D01*
X20739221Y13326144D01*
X20716166Y13329563D01*
X20693557Y13335227D01*
X20671613Y13343079D01*
X20650543Y13353044D01*
X20630552Y13365026D01*
X20611832Y13378910D01*
X20594562Y13394562D01*
X20578910Y13411832D01*
X20565026Y13430552D01*
X20553044Y13450543D01*
X20543079Y13471613D01*
X20535227Y13493557D01*
X20529563Y13516166D01*
X20526144Y13539221D01*
X20525000Y13562500D01*
X20525000Y14037500D01*
X20526144Y14060779D01*
X20529563Y14083834D01*
X20535227Y14106443D01*
X20543079Y14128387D01*
X20553044Y14149457D01*
X20565026Y14169448D01*
X20578910Y14188168D01*
X20594562Y14205438D01*
X20611832Y14221090D01*
X20630552Y14234974D01*
X20650543Y14246956D01*
X20671613Y14256921D01*
X20693557Y14264773D01*
X20716166Y14270437D01*
X20739221Y14273856D01*
X20762500Y14275000D01*
X21337500Y14275000D01*
X21360779Y14273856D01*
X21360779Y14273856D01*
G37*
D20*
X21050000Y13800000D03*
D15*
G36*
X23110779Y14273856D02*
X23133834Y14270437D01*
X23156443Y14264773D01*
X23178387Y14256921D01*
X23199457Y14246956D01*
X23219448Y14234974D01*
X23238168Y14221090D01*
X23255438Y14205438D01*
X23271090Y14188168D01*
X23284974Y14169448D01*
X23296956Y14149457D01*
X23306921Y14128387D01*
X23314773Y14106443D01*
X23320437Y14083834D01*
X23323856Y14060779D01*
X23325000Y14037500D01*
X23325000Y13562500D01*
X23323856Y13539221D01*
X23320437Y13516166D01*
X23314773Y13493557D01*
X23306921Y13471613D01*
X23296956Y13450543D01*
X23284974Y13430552D01*
X23271090Y13411832D01*
X23255438Y13394562D01*
X23238168Y13378910D01*
X23219448Y13365026D01*
X23199457Y13353044D01*
X23178387Y13343079D01*
X23156443Y13335227D01*
X23133834Y13329563D01*
X23110779Y13326144D01*
X23087500Y13325000D01*
X22512500Y13325000D01*
X22489221Y13326144D01*
X22466166Y13329563D01*
X22443557Y13335227D01*
X22421613Y13343079D01*
X22400543Y13353044D01*
X22380552Y13365026D01*
X22361832Y13378910D01*
X22344562Y13394562D01*
X22328910Y13411832D01*
X22315026Y13430552D01*
X22303044Y13450543D01*
X22293079Y13471613D01*
X22285227Y13493557D01*
X22279563Y13516166D01*
X22276144Y13539221D01*
X22275000Y13562500D01*
X22275000Y14037500D01*
X22276144Y14060779D01*
X22279563Y14083834D01*
X22285227Y14106443D01*
X22293079Y14128387D01*
X22303044Y14149457D01*
X22315026Y14169448D01*
X22328910Y14188168D01*
X22344562Y14205438D01*
X22361832Y14221090D01*
X22380552Y14234974D01*
X22400543Y14246956D01*
X22421613Y14256921D01*
X22443557Y14264773D01*
X22466166Y14270437D01*
X22489221Y14273856D01*
X22512500Y14275000D01*
X23087500Y14275000D01*
X23110779Y14273856D01*
X23110779Y14273856D01*
G37*
D20*
X22800000Y13800000D03*
G04 #@! TD*
D15*
G04 #@! TO.C,C2D*
G36*
X31860779Y7073856D02*
X31883834Y7070437D01*
X31906443Y7064773D01*
X31928387Y7056921D01*
X31949457Y7046956D01*
X31969448Y7034974D01*
X31988168Y7021090D01*
X32005438Y7005438D01*
X32021090Y6988168D01*
X32034974Y6969448D01*
X32046956Y6949457D01*
X32056921Y6928387D01*
X32064773Y6906443D01*
X32070437Y6883834D01*
X32073856Y6860779D01*
X32075000Y6837500D01*
X32075000Y6362500D01*
X32073856Y6339221D01*
X32070437Y6316166D01*
X32064773Y6293557D01*
X32056921Y6271613D01*
X32046956Y6250543D01*
X32034974Y6230552D01*
X32021090Y6211832D01*
X32005438Y6194562D01*
X31988168Y6178910D01*
X31969448Y6165026D01*
X31949457Y6153044D01*
X31928387Y6143079D01*
X31906443Y6135227D01*
X31883834Y6129563D01*
X31860779Y6126144D01*
X31837500Y6125000D01*
X31262500Y6125000D01*
X31239221Y6126144D01*
X31216166Y6129563D01*
X31193557Y6135227D01*
X31171613Y6143079D01*
X31150543Y6153044D01*
X31130552Y6165026D01*
X31111832Y6178910D01*
X31094562Y6194562D01*
X31078910Y6211832D01*
X31065026Y6230552D01*
X31053044Y6250543D01*
X31043079Y6271613D01*
X31035227Y6293557D01*
X31029563Y6316166D01*
X31026144Y6339221D01*
X31025000Y6362500D01*
X31025000Y6837500D01*
X31026144Y6860779D01*
X31029563Y6883834D01*
X31035227Y6906443D01*
X31043079Y6928387D01*
X31053044Y6949457D01*
X31065026Y6969448D01*
X31078910Y6988168D01*
X31094562Y7005438D01*
X31111832Y7021090D01*
X31130552Y7034974D01*
X31150543Y7046956D01*
X31171613Y7056921D01*
X31193557Y7064773D01*
X31216166Y7070437D01*
X31239221Y7073856D01*
X31262500Y7075000D01*
X31837500Y7075000D01*
X31860779Y7073856D01*
X31860779Y7073856D01*
G37*
D20*
X31550000Y6600000D03*
D15*
G36*
X33610779Y7073856D02*
X33633834Y7070437D01*
X33656443Y7064773D01*
X33678387Y7056921D01*
X33699457Y7046956D01*
X33719448Y7034974D01*
X33738168Y7021090D01*
X33755438Y7005438D01*
X33771090Y6988168D01*
X33784974Y6969448D01*
X33796956Y6949457D01*
X33806921Y6928387D01*
X33814773Y6906443D01*
X33820437Y6883834D01*
X33823856Y6860779D01*
X33825000Y6837500D01*
X33825000Y6362500D01*
X33823856Y6339221D01*
X33820437Y6316166D01*
X33814773Y6293557D01*
X33806921Y6271613D01*
X33796956Y6250543D01*
X33784974Y6230552D01*
X33771090Y6211832D01*
X33755438Y6194562D01*
X33738168Y6178910D01*
X33719448Y6165026D01*
X33699457Y6153044D01*
X33678387Y6143079D01*
X33656443Y6135227D01*
X33633834Y6129563D01*
X33610779Y6126144D01*
X33587500Y6125000D01*
X33012500Y6125000D01*
X32989221Y6126144D01*
X32966166Y6129563D01*
X32943557Y6135227D01*
X32921613Y6143079D01*
X32900543Y6153044D01*
X32880552Y6165026D01*
X32861832Y6178910D01*
X32844562Y6194562D01*
X32828910Y6211832D01*
X32815026Y6230552D01*
X32803044Y6250543D01*
X32793079Y6271613D01*
X32785227Y6293557D01*
X32779563Y6316166D01*
X32776144Y6339221D01*
X32775000Y6362500D01*
X32775000Y6837500D01*
X32776144Y6860779D01*
X32779563Y6883834D01*
X32785227Y6906443D01*
X32793079Y6928387D01*
X32803044Y6949457D01*
X32815026Y6969448D01*
X32828910Y6988168D01*
X32844562Y7005438D01*
X32861832Y7021090D01*
X32880552Y7034974D01*
X32900543Y7046956D01*
X32921613Y7056921D01*
X32943557Y7064773D01*
X32966166Y7070437D01*
X32989221Y7073856D01*
X33012500Y7075000D01*
X33587500Y7075000D01*
X33610779Y7073856D01*
X33610779Y7073856D01*
G37*
D20*
X33300000Y6600000D03*
G04 #@! TD*
D15*
G04 #@! TO.C,C2E*
G36*
X42360779Y14273856D02*
X42383834Y14270437D01*
X42406443Y14264773D01*
X42428387Y14256921D01*
X42449457Y14246956D01*
X42469448Y14234974D01*
X42488168Y14221090D01*
X42505438Y14205438D01*
X42521090Y14188168D01*
X42534974Y14169448D01*
X42546956Y14149457D01*
X42556921Y14128387D01*
X42564773Y14106443D01*
X42570437Y14083834D01*
X42573856Y14060779D01*
X42575000Y14037500D01*
X42575000Y13562500D01*
X42573856Y13539221D01*
X42570437Y13516166D01*
X42564773Y13493557D01*
X42556921Y13471613D01*
X42546956Y13450543D01*
X42534974Y13430552D01*
X42521090Y13411832D01*
X42505438Y13394562D01*
X42488168Y13378910D01*
X42469448Y13365026D01*
X42449457Y13353044D01*
X42428387Y13343079D01*
X42406443Y13335227D01*
X42383834Y13329563D01*
X42360779Y13326144D01*
X42337500Y13325000D01*
X41762500Y13325000D01*
X41739221Y13326144D01*
X41716166Y13329563D01*
X41693557Y13335227D01*
X41671613Y13343079D01*
X41650543Y13353044D01*
X41630552Y13365026D01*
X41611832Y13378910D01*
X41594562Y13394562D01*
X41578910Y13411832D01*
X41565026Y13430552D01*
X41553044Y13450543D01*
X41543079Y13471613D01*
X41535227Y13493557D01*
X41529563Y13516166D01*
X41526144Y13539221D01*
X41525000Y13562500D01*
X41525000Y14037500D01*
X41526144Y14060779D01*
X41529563Y14083834D01*
X41535227Y14106443D01*
X41543079Y14128387D01*
X41553044Y14149457D01*
X41565026Y14169448D01*
X41578910Y14188168D01*
X41594562Y14205438D01*
X41611832Y14221090D01*
X41630552Y14234974D01*
X41650543Y14246956D01*
X41671613Y14256921D01*
X41693557Y14264773D01*
X41716166Y14270437D01*
X41739221Y14273856D01*
X41762500Y14275000D01*
X42337500Y14275000D01*
X42360779Y14273856D01*
X42360779Y14273856D01*
G37*
D20*
X42050000Y13800000D03*
D15*
G36*
X44110779Y14273856D02*
X44133834Y14270437D01*
X44156443Y14264773D01*
X44178387Y14256921D01*
X44199457Y14246956D01*
X44219448Y14234974D01*
X44238168Y14221090D01*
X44255438Y14205438D01*
X44271090Y14188168D01*
X44284974Y14169448D01*
X44296956Y14149457D01*
X44306921Y14128387D01*
X44314773Y14106443D01*
X44320437Y14083834D01*
X44323856Y14060779D01*
X44325000Y14037500D01*
X44325000Y13562500D01*
X44323856Y13539221D01*
X44320437Y13516166D01*
X44314773Y13493557D01*
X44306921Y13471613D01*
X44296956Y13450543D01*
X44284974Y13430552D01*
X44271090Y13411832D01*
X44255438Y13394562D01*
X44238168Y13378910D01*
X44219448Y13365026D01*
X44199457Y13353044D01*
X44178387Y13343079D01*
X44156443Y13335227D01*
X44133834Y13329563D01*
X44110779Y13326144D01*
X44087500Y13325000D01*
X43512500Y13325000D01*
X43489221Y13326144D01*
X43466166Y13329563D01*
X43443557Y13335227D01*
X43421613Y13343079D01*
X43400543Y13353044D01*
X43380552Y13365026D01*
X43361832Y13378910D01*
X43344562Y13394562D01*
X43328910Y13411832D01*
X43315026Y13430552D01*
X43303044Y13450543D01*
X43293079Y13471613D01*
X43285227Y13493557D01*
X43279563Y13516166D01*
X43276144Y13539221D01*
X43275000Y13562500D01*
X43275000Y14037500D01*
X43276144Y14060779D01*
X43279563Y14083834D01*
X43285227Y14106443D01*
X43293079Y14128387D01*
X43303044Y14149457D01*
X43315026Y14169448D01*
X43328910Y14188168D01*
X43344562Y14205438D01*
X43361832Y14221090D01*
X43380552Y14234974D01*
X43400543Y14246956D01*
X43421613Y14256921D01*
X43443557Y14264773D01*
X43466166Y14270437D01*
X43489221Y14273856D01*
X43512500Y14275000D01*
X44087500Y14275000D01*
X44110779Y14273856D01*
X44110779Y14273856D01*
G37*
D20*
X43800000Y13800000D03*
G04 #@! TD*
D17*
G04 #@! TO.C,U-RGB1B*
X28200000Y36250000D03*
D18*
X31450000Y40085000D03*
X30950000Y40085000D03*
X30450000Y40085000D03*
X29950000Y40085000D03*
X29450000Y40085000D03*
X28950000Y40085000D03*
X28450000Y40085000D03*
X27950000Y40085000D03*
X27450000Y40085000D03*
X26950000Y40085000D03*
X26450000Y40085000D03*
X25950000Y40085000D03*
X25450000Y40085000D03*
X24950000Y40085000D03*
D19*
X24365000Y39500000D03*
X24365000Y39000000D03*
X24365000Y38500000D03*
X24365000Y38000000D03*
X24365000Y37500000D03*
X24365000Y37000000D03*
X24365000Y36500000D03*
X24365000Y36000000D03*
X24365000Y35500000D03*
X24365000Y35000000D03*
X24365000Y34500000D03*
X24365000Y34000000D03*
X24365000Y33500000D03*
X24365000Y33000000D03*
D18*
X24950000Y32415000D03*
X25450000Y32415000D03*
X25950000Y32415000D03*
X26450000Y32415000D03*
X26950000Y32415000D03*
X27450000Y32415000D03*
X27950000Y32415000D03*
X28450000Y32415000D03*
X28950000Y32415000D03*
X29450000Y32415000D03*
X29950000Y32415000D03*
X30450000Y32415000D03*
X30950000Y32415000D03*
X31450000Y32415000D03*
D19*
X32035000Y33000000D03*
X32035000Y33500000D03*
X32035000Y34000000D03*
X32035000Y34500000D03*
X32035000Y35000000D03*
X32035000Y35500000D03*
X32035000Y36000000D03*
X32035000Y36500000D03*
X32035000Y37000000D03*
X32035000Y37500000D03*
X32035000Y38000000D03*
X32035000Y38500000D03*
X32035000Y39000000D03*
X32035000Y39500000D03*
G04 #@! TD*
D17*
G04 #@! TO.C,U-RGB1C*
X49200000Y36250000D03*
D18*
X52450000Y40085000D03*
X51950000Y40085000D03*
X51450000Y40085000D03*
X50950000Y40085000D03*
X50450000Y40085000D03*
X49950000Y40085000D03*
X49450000Y40085000D03*
X48950000Y40085000D03*
X48450000Y40085000D03*
X47950000Y40085000D03*
X47450000Y40085000D03*
X46950000Y40085000D03*
X46450000Y40085000D03*
X45950000Y40085000D03*
D19*
X45365000Y39500000D03*
X45365000Y39000000D03*
X45365000Y38500000D03*
X45365000Y38000000D03*
X45365000Y37500000D03*
X45365000Y37000000D03*
X45365000Y36500000D03*
X45365000Y36000000D03*
X45365000Y35500000D03*
X45365000Y35000000D03*
X45365000Y34500000D03*
X45365000Y34000000D03*
X45365000Y33500000D03*
X45365000Y33000000D03*
D18*
X45950000Y32415000D03*
X46450000Y32415000D03*
X46950000Y32415000D03*
X47450000Y32415000D03*
X47950000Y32415000D03*
X48450000Y32415000D03*
X48950000Y32415000D03*
X49450000Y32415000D03*
X49950000Y32415000D03*
X50450000Y32415000D03*
X50950000Y32415000D03*
X51450000Y32415000D03*
X51950000Y32415000D03*
X52450000Y32415000D03*
D19*
X53035000Y33000000D03*
X53035000Y33500000D03*
X53035000Y34000000D03*
X53035000Y34500000D03*
X53035000Y35000000D03*
X53035000Y35500000D03*
X53035000Y36000000D03*
X53035000Y36500000D03*
X53035000Y37000000D03*
X53035000Y37500000D03*
X53035000Y38000000D03*
X53035000Y38500000D03*
X53035000Y39000000D03*
X53035000Y39500000D03*
G04 #@! TD*
D17*
G04 #@! TO.C,U-RGB2A*
X7200000Y15050000D03*
D18*
X10450000Y18885000D03*
X9950000Y18885000D03*
X9450000Y18885000D03*
X8950000Y18885000D03*
X8450000Y18885000D03*
X7950000Y18885000D03*
X7450000Y18885000D03*
X6950000Y18885000D03*
X6450000Y18885000D03*
X5950000Y18885000D03*
X5450000Y18885000D03*
X4950000Y18885000D03*
X4450000Y18885000D03*
X3950000Y18885000D03*
D19*
X3365000Y18300000D03*
X3365000Y17800000D03*
X3365000Y17300000D03*
X3365000Y16800000D03*
X3365000Y16300000D03*
X3365000Y15800000D03*
X3365000Y15300000D03*
X3365000Y14800000D03*
X3365000Y14300000D03*
X3365000Y13800000D03*
X3365000Y13300000D03*
X3365000Y12800000D03*
X3365000Y12300000D03*
X3365000Y11800000D03*
D18*
X3950000Y11215000D03*
X4450000Y11215000D03*
X4950000Y11215000D03*
X5450000Y11215000D03*
X5950000Y11215000D03*
X6450000Y11215000D03*
X6950000Y11215000D03*
X7450000Y11215000D03*
X7950000Y11215000D03*
X8450000Y11215000D03*
X8950000Y11215000D03*
X9450000Y11215000D03*
X9950000Y11215000D03*
X10450000Y11215000D03*
D19*
X11035000Y11800000D03*
X11035000Y12300000D03*
X11035000Y12800000D03*
X11035000Y13300000D03*
X11035000Y13800000D03*
X11035000Y14300000D03*
X11035000Y14800000D03*
X11035000Y15300000D03*
X11035000Y15800000D03*
X11035000Y16300000D03*
X11035000Y16800000D03*
X11035000Y17300000D03*
X11035000Y17800000D03*
X11035000Y18300000D03*
G04 #@! TD*
D17*
G04 #@! TO.C,U-RGB2B*
X28200000Y15050000D03*
D18*
X31450000Y18885000D03*
X30950000Y18885000D03*
X30450000Y18885000D03*
X29950000Y18885000D03*
X29450000Y18885000D03*
X28950000Y18885000D03*
X28450000Y18885000D03*
X27950000Y18885000D03*
X27450000Y18885000D03*
X26950000Y18885000D03*
X26450000Y18885000D03*
X25950000Y18885000D03*
X25450000Y18885000D03*
X24950000Y18885000D03*
D19*
X24365000Y18300000D03*
X24365000Y17800000D03*
X24365000Y17300000D03*
X24365000Y16800000D03*
X24365000Y16300000D03*
X24365000Y15800000D03*
X24365000Y15300000D03*
X24365000Y14800000D03*
X24365000Y14300000D03*
X24365000Y13800000D03*
X24365000Y13300000D03*
X24365000Y12800000D03*
X24365000Y12300000D03*
X24365000Y11800000D03*
D18*
X24950000Y11215000D03*
X25450000Y11215000D03*
X25950000Y11215000D03*
X26450000Y11215000D03*
X26950000Y11215000D03*
X27450000Y11215000D03*
X27950000Y11215000D03*
X28450000Y11215000D03*
X28950000Y11215000D03*
X29450000Y11215000D03*
X29950000Y11215000D03*
X30450000Y11215000D03*
X30950000Y11215000D03*
X31450000Y11215000D03*
D19*
X32035000Y11800000D03*
X32035000Y12300000D03*
X32035000Y12800000D03*
X32035000Y13300000D03*
X32035000Y13800000D03*
X32035000Y14300000D03*
X32035000Y14800000D03*
X32035000Y15300000D03*
X32035000Y15800000D03*
X32035000Y16300000D03*
X32035000Y16800000D03*
X32035000Y17300000D03*
X32035000Y17800000D03*
X32035000Y18300000D03*
G04 #@! TD*
D17*
G04 #@! TO.C,U-RGB2C*
X49200000Y15050000D03*
D18*
X52450000Y18885000D03*
X51950000Y18885000D03*
X51450000Y18885000D03*
X50950000Y18885000D03*
X50450000Y18885000D03*
X49950000Y18885000D03*
X49450000Y18885000D03*
X48950000Y18885000D03*
X48450000Y18885000D03*
X47950000Y18885000D03*
X47450000Y18885000D03*
X46950000Y18885000D03*
X46450000Y18885000D03*
X45950000Y18885000D03*
D19*
X45365000Y18300000D03*
X45365000Y17800000D03*
X45365000Y17300000D03*
X45365000Y16800000D03*
X45365000Y16300000D03*
X45365000Y15800000D03*
X45365000Y15300000D03*
X45365000Y14800000D03*
X45365000Y14300000D03*
X45365000Y13800000D03*
X45365000Y13300000D03*
X45365000Y12800000D03*
X45365000Y12300000D03*
X45365000Y11800000D03*
D18*
X45950000Y11215000D03*
X46450000Y11215000D03*
X46950000Y11215000D03*
X47450000Y11215000D03*
X47950000Y11215000D03*
X48450000Y11215000D03*
X48950000Y11215000D03*
X49450000Y11215000D03*
X49950000Y11215000D03*
X50450000Y11215000D03*
X50950000Y11215000D03*
X51450000Y11215000D03*
X51950000Y11215000D03*
X52450000Y11215000D03*
D19*
X53035000Y11800000D03*
X53035000Y12300000D03*
X53035000Y12800000D03*
X53035000Y13300000D03*
X53035000Y13800000D03*
X53035000Y14300000D03*
X53035000Y14800000D03*
X53035000Y15300000D03*
X53035000Y15800000D03*
X53035000Y16300000D03*
X53035000Y16800000D03*
X53035000Y17300000D03*
X53035000Y17800000D03*
X53035000Y18300000D03*
G04 #@! TD*
D17*
G04 #@! TO.C,U-UV1C*
X38700000Y29050000D03*
D18*
X41950000Y32885000D03*
X41450000Y32885000D03*
X40950000Y32885000D03*
X40450000Y32885000D03*
X39950000Y32885000D03*
X39450000Y32885000D03*
X38950000Y32885000D03*
X38450000Y32885000D03*
X37950000Y32885000D03*
X37450000Y32885000D03*
X36950000Y32885000D03*
X36450000Y32885000D03*
X35950000Y32885000D03*
X35450000Y32885000D03*
D19*
X34865000Y32300000D03*
X34865000Y31800000D03*
X34865000Y31300000D03*
X34865000Y30800000D03*
X34865000Y30300000D03*
X34865000Y29800000D03*
X34865000Y29300000D03*
X34865000Y28800000D03*
X34865000Y28300000D03*
X34865000Y27800000D03*
X34865000Y27300000D03*
X34865000Y26800000D03*
X34865000Y26300000D03*
X34865000Y25800000D03*
D18*
X35450000Y25215000D03*
X35950000Y25215000D03*
X36450000Y25215000D03*
X36950000Y25215000D03*
X37450000Y25215000D03*
X37950000Y25215000D03*
X38450000Y25215000D03*
X38950000Y25215000D03*
X39450000Y25215000D03*
X39950000Y25215000D03*
X40450000Y25215000D03*
X40950000Y25215000D03*
X41450000Y25215000D03*
X41950000Y25215000D03*
D19*
X42535000Y25800000D03*
X42535000Y26300000D03*
X42535000Y26800000D03*
X42535000Y27300000D03*
X42535000Y27800000D03*
X42535000Y28300000D03*
X42535000Y28800000D03*
X42535000Y29300000D03*
X42535000Y29800000D03*
X42535000Y30300000D03*
X42535000Y30800000D03*
X42535000Y31300000D03*
X42535000Y31800000D03*
X42535000Y32300000D03*
G04 #@! TD*
D17*
G04 #@! TO.C,U-UV2A*
X17700000Y7850000D03*
D18*
X20950000Y11685000D03*
X20450000Y11685000D03*
X19950000Y11685000D03*
X19450000Y11685000D03*
X18950000Y11685000D03*
X18450000Y11685000D03*
X17950000Y11685000D03*
X17450000Y11685000D03*
X16950000Y11685000D03*
X16450000Y11685000D03*
X15950000Y11685000D03*
X15450000Y11685000D03*
X14950000Y11685000D03*
X14450000Y11685000D03*
D19*
X13865000Y11100000D03*
X13865000Y10600000D03*
X13865000Y10100000D03*
X13865000Y9600000D03*
X13865000Y9100000D03*
X13865000Y8600000D03*
X13865000Y8100000D03*
X13865000Y7600000D03*
X13865000Y7100000D03*
X13865000Y6600000D03*
X13865000Y6100000D03*
X13865000Y5600000D03*
X13865000Y5100000D03*
X13865000Y4600000D03*
D18*
X14450000Y4015000D03*
X14950000Y4015000D03*
X15450000Y4015000D03*
X15950000Y4015000D03*
X16450000Y4015000D03*
X16950000Y4015000D03*
X17450000Y4015000D03*
X17950000Y4015000D03*
X18450000Y4015000D03*
X18950000Y4015000D03*
X19450000Y4015000D03*
X19950000Y4015000D03*
X20450000Y4015000D03*
X20950000Y4015000D03*
D19*
X21535000Y4600000D03*
X21535000Y5100000D03*
X21535000Y5600000D03*
X21535000Y6100000D03*
X21535000Y6600000D03*
X21535000Y7100000D03*
X21535000Y7600000D03*
X21535000Y8100000D03*
X21535000Y8600000D03*
X21535000Y9100000D03*
X21535000Y9600000D03*
X21535000Y10100000D03*
X21535000Y10600000D03*
X21535000Y11100000D03*
G04 #@! TD*
D17*
G04 #@! TO.C,U-UV2C*
X38700000Y7850000D03*
D18*
X41950000Y11685000D03*
X41450000Y11685000D03*
X40950000Y11685000D03*
X40450000Y11685000D03*
X39950000Y11685000D03*
X39450000Y11685000D03*
X38950000Y11685000D03*
X38450000Y11685000D03*
X37950000Y11685000D03*
X37450000Y11685000D03*
X36950000Y11685000D03*
X36450000Y11685000D03*
X35950000Y11685000D03*
X35450000Y11685000D03*
D19*
X34865000Y11100000D03*
X34865000Y10600000D03*
X34865000Y10100000D03*
X34865000Y9600000D03*
X34865000Y9100000D03*
X34865000Y8600000D03*
X34865000Y8100000D03*
X34865000Y7600000D03*
X34865000Y7100000D03*
X34865000Y6600000D03*
X34865000Y6100000D03*
X34865000Y5600000D03*
X34865000Y5100000D03*
X34865000Y4600000D03*
D18*
X35450000Y4015000D03*
X35950000Y4015000D03*
X36450000Y4015000D03*
X36950000Y4015000D03*
X37450000Y4015000D03*
X37950000Y4015000D03*
X38450000Y4015000D03*
X38950000Y4015000D03*
X39450000Y4015000D03*
X39950000Y4015000D03*
X40450000Y4015000D03*
X40950000Y4015000D03*
X41450000Y4015000D03*
X41950000Y4015000D03*
D19*
X42535000Y4600000D03*
X42535000Y5100000D03*
X42535000Y5600000D03*
X42535000Y6100000D03*
X42535000Y6600000D03*
X42535000Y7100000D03*
X42535000Y7600000D03*
X42535000Y8100000D03*
X42535000Y8600000D03*
X42535000Y9100000D03*
X42535000Y9600000D03*
X42535000Y10100000D03*
X42535000Y10600000D03*
X42535000Y11100000D03*
G04 #@! TD*
D21*
G04 #@! TO.C,MH1A*
X19390000Y39750000D03*
G04 #@! TD*
G04 #@! TO.C,MH1B*
X37750000Y39750000D03*
G04 #@! TD*
G04 #@! TO.C,MH2A*
X5620000Y5300000D03*
G04 #@! TD*
G04 #@! TO.C,MH2B*
X51520000Y5300000D03*
G04 #@! TD*
D22*
G04 #@! TO.C,J1*
X4550000Y20400000D03*
D23*
X2050000Y21400000D03*
X2050000Y21900000D03*
X2050000Y22400000D03*
X2050000Y22900000D03*
X2050000Y23400000D03*
X2050000Y23900000D03*
X2050000Y24400000D03*
X2050000Y24900000D03*
X2050000Y25400000D03*
X2050000Y25900000D03*
X2050000Y26400000D03*
X2050000Y26900000D03*
X2050000Y27400000D03*
X2050000Y27900000D03*
X2050000Y28400000D03*
D22*
X4550000Y29400000D03*
G04 #@! TD*
D24*
G04 #@! TO.C,J2*
X17600000Y43300000D03*
D25*
X15060000Y43300000D03*
G04 #@! TD*
D24*
G04 #@! TO.C,J3*
X35960000Y43300000D03*
D25*
X33420000Y43300000D03*
G04 #@! TD*
M02*
