M48
;DRILL file {KiCad (5.0.1)-3} date 2019-05-17 2:34:48 PM
;FORMAT={2:4/ absolute / inch / keep zeros}
FMAT,2
INCH,TZ
T1C0.0039
%
G90
G05
M72
T1
X000709Y006122
X002047Y015059
X002047Y014665
X002047Y014272
X002047Y013878
X002047Y013484
X002047Y006713
X002047Y006319
X002047Y005925
X002047Y005531
X002047Y005138
X002441Y015059
X002441Y014665
X002441Y014272
X002441Y013878
X002441Y013484
X002441Y006713
X002441Y006319
X002441Y005925
X002441Y005531
X002441Y005138
X002835Y015059
X002835Y014665
X002835Y014272
X002835Y013878
X002835Y013484
X002835Y006713
X002835Y006319
X002835Y005925
X002835Y005531
X002835Y005138
X003228Y015059
X003228Y014665
X003228Y014272
X003228Y013878
X003228Y013484
X003228Y006713
X003228Y006319
X003228Y005925
X003228Y005531
X003228Y005138
X003622Y015059
X003622Y014665
X003622Y014272
X003622Y013878
X003622Y013484
X003622Y006713
X003622Y006319
X003622Y005925
X003622Y005531
X003622Y005138
X006181Y012224
X006181Y011831
X006181Y011437
X006181Y011043
X006181Y010650
X006181Y003878
X006181Y003484
X006181Y003091
X006181Y002697
X006181Y002303
X006575Y012224
X006575Y011831
X006575Y011437
X006575Y011043
X006575Y010650
X006575Y003878
X006575Y003484
X006575Y003091
X006575Y002697
X006575Y002303
X006969Y012224
X006969Y011831
X006969Y011437
X006969Y011043
X006969Y010650
X006969Y003878
X006969Y003484
X006969Y003091
X006969Y002697
X006969Y002303
X007362Y012224
X007362Y011831
X007362Y011437
X007362Y011043
X007362Y010650
X007362Y003878
X007362Y003484
X007362Y003091
X007362Y002697
X007362Y002303
X007756Y012224
X007756Y011831
X007756Y011437
X007756Y011043
X007756Y010650
X007756Y003878
X007756Y003484
X007756Y003091
X007756Y002697
X007756Y002303
X010315Y015059
X010315Y014665
X010315Y014272
X010315Y013878
X010315Y013484
X010315Y006713
X010315Y006319
X010315Y005925
X010315Y005531
X010315Y005138
X010709Y015059
X010709Y014665
X010709Y014272
X010709Y013878
X010709Y013484
X010709Y006713
X010709Y006319
X010709Y005925
X010709Y005531
X010709Y005138
X011102Y015059
X011102Y014665
X011102Y014272
X011102Y013878
X011102Y013484
X011102Y006713
X011102Y006319
X011102Y005925
X011102Y005531
X011102Y005138
X011496Y015059
X011496Y014665
X011496Y014272
X011496Y013878
X011496Y013484
X011496Y006713
X011496Y006319
X011496Y005925
X011496Y005531
X011496Y005138
X011890Y015059
X011890Y014665
X011890Y014272
X011890Y013878
X011890Y013484
X011890Y006713
X011890Y006319
X011890Y005925
X011890Y005531
X011890Y005138
X014449Y012224
X014449Y011831
X014449Y011437
X014449Y011043
X014449Y010650
X014449Y003878
X014449Y003484
X014449Y003091
X014449Y002697
X014449Y002303
X014843Y012224
X014843Y011831
X014843Y011437
X014843Y011043
X014843Y010650
X014843Y003878
X014843Y003484
X014843Y003091
X014843Y002697
X014843Y002303
X015236Y012224
X015236Y011831
X015236Y011437
X015236Y011043
X015236Y010650
X015236Y003878
X015236Y003484
X015236Y003091
X015236Y002697
X015236Y002303
X015630Y012224
X015630Y011831
X015630Y011437
X015630Y011043
X015630Y010650
X015630Y003878
X015630Y003484
X015630Y003091
X015630Y002697
X015630Y002303
X016024Y012224
X016024Y011831
X016024Y011437
X016024Y011043
X016024Y010650
X016024Y003878
X016024Y003484
X016024Y003091
X016024Y002697
X016024Y002303
X018583Y015059
X018583Y014665
X018583Y014272
X018583Y013878
X018583Y013484
X018583Y006713
X018583Y006319
X018583Y005925
X018583Y005531
X018583Y005138
X018976Y015059
X018976Y014665
X018976Y014272
X018976Y013878
X018976Y013484
X018976Y006713
X018976Y006319
X018976Y005925
X018976Y005531
X018976Y005138
X019370Y015059
X019370Y014665
X019370Y014272
X019370Y013878
X019370Y013484
X019370Y006713
X019370Y006319
X019370Y005925
X019370Y005531
X019370Y005138
X019764Y015059
X019764Y014665
X019764Y014272
X019764Y013878
X019764Y013484
X019764Y006713
X019764Y006319
X019764Y005925
X019764Y005531
X019764Y005138
X020157Y015059
X020157Y014665
X020157Y014272
X020157Y013878
X020157Y013484
X020157Y006713
X020157Y006319
X020157Y005925
X020157Y005531
X020157Y005138
T0
M30
