M48
;DRILL file {KiCad (5.0.1)-3} date 2019-05-17 2:34:48 PM
;FORMAT={2:4/ absolute / inch / keep zeros}
FMAT,2
INCH,TZ
T1C0.0039
%
G90
G05
M72
T1
X000492Y010394
X000984Y014764
X004114Y012480
X004114Y004134
X004705Y014154
X004705Y005807
X004782Y013798
X004782Y005452
X005020Y011929
X005020Y003583
X005059Y013976
X005059Y005630
X005059Y012323
X005059Y003976
X005177Y011732
X005177Y003386
X005197Y012520
X005197Y004173
X005197Y012126
X005197Y003780
X006083Y009646
X006083Y001299
X010217Y016063
X010217Y007717
X010413Y016220
X010413Y007874
X011988Y016240
X011988Y012421
X011988Y007894
X011988Y004075
X012185Y016063
X012185Y007717
X012185Y012283
X012185Y003937
X017028Y011732
X017028Y003386
X017165Y011142
X017165Y002795
X017185Y011929
X017185Y003583
X017303Y012992
X017303Y004646
X017306Y010827
X017306Y002480
X017441Y011929
X017441Y003583
X017461Y013189
X017461Y004843
X017598Y013386
X017598Y005039
X021161Y014764
X021161Y006516
T0
M30
