G04 #@! TF.GenerationSoftware,KiCad,Pcbnew,(5.0.1)-3*
G04 #@! TF.CreationDate,2019-05-17T14:34:39+10:00*
G04 #@! TF.ProjectId,UVTV,555654562E6B696361645F7063620000,1*
G04 #@! TF.SameCoordinates,PX30291a0PY5aa5910*
G04 #@! TF.FileFunction,Soldermask,Bot*
G04 #@! TF.FilePolarity,Negative*
%FSLAX46Y46*%
G04 Gerber Fmt 4.6, Leading zero omitted, Abs format (unit mm)*
G04 Created by KiCad (PCBNEW (5.0.1)-3) date 2019-05-17 2:34:39 PM*
%MOMM*%
%LPD*%
G01*
G04 APERTURE LIST*
%ADD10C,0.100000*%
G04 APERTURE END LIST*
D10*
G36*
X13450000Y44650000D02*
X13450000Y41950000D01*
X18900000Y41950000D01*
X18900000Y44650000D01*
X13450000Y44650000D01*
G37*
G36*
X31850000Y44650000D02*
X31850000Y41950000D01*
X37300000Y41950000D01*
X37300000Y44650000D01*
X31850000Y44650000D01*
G37*
G36*
X50650000Y400000D02*
X50650000Y2100000D01*
X46500000Y2100000D01*
X46500000Y400000D01*
X50650000Y400000D01*
G37*
G36*
X1991689Y2611571D02*
X2173678Y2536189D01*
X2337463Y2426751D01*
X2476751Y2287463D01*
X2586189Y2123678D01*
X2661571Y1941689D01*
X2700000Y1748491D01*
X2700000Y1551509D01*
X2661571Y1358311D01*
X2586189Y1176322D01*
X2476751Y1012537D01*
X2337463Y873249D01*
X2173678Y763811D01*
X1991689Y688429D01*
X1798491Y650000D01*
X1601509Y650000D01*
X1408311Y688429D01*
X1226322Y763811D01*
X1062537Y873249D01*
X923249Y1012537D01*
X813811Y1176322D01*
X738429Y1358311D01*
X700000Y1551509D01*
X700000Y1748491D01*
X738429Y1941689D01*
X813811Y2123678D01*
X923249Y2287463D01*
X1062537Y2426751D01*
X1226322Y2536189D01*
X1408311Y2611571D01*
X1601509Y2650000D01*
X1798491Y2650000D01*
X1991689Y2611571D01*
X1991689Y2611571D01*
G37*
G36*
X21090000Y3670000D02*
X20810000Y3670000D01*
X20810000Y4360000D01*
X21090000Y4360000D01*
X21090000Y3670000D01*
X21090000Y3670000D01*
G37*
G36*
X41590000Y3670000D02*
X41310000Y3670000D01*
X41310000Y4360000D01*
X41590000Y4360000D01*
X41590000Y3670000D01*
X41590000Y3670000D01*
G37*
G36*
X41090000Y3670000D02*
X40810000Y3670000D01*
X40810000Y4360000D01*
X41090000Y4360000D01*
X41090000Y3670000D01*
X41090000Y3670000D01*
G37*
G36*
X40590000Y3670000D02*
X40310000Y3670000D01*
X40310000Y4360000D01*
X40590000Y4360000D01*
X40590000Y3670000D01*
X40590000Y3670000D01*
G37*
G36*
X40090000Y3670000D02*
X39810000Y3670000D01*
X39810000Y4360000D01*
X40090000Y4360000D01*
X40090000Y3670000D01*
X40090000Y3670000D01*
G37*
G36*
X39590000Y3670000D02*
X39310000Y3670000D01*
X39310000Y4360000D01*
X39590000Y4360000D01*
X39590000Y3670000D01*
X39590000Y3670000D01*
G37*
G36*
X39090000Y3670000D02*
X38810000Y3670000D01*
X38810000Y4360000D01*
X39090000Y4360000D01*
X39090000Y3670000D01*
X39090000Y3670000D01*
G37*
G36*
X38590000Y3670000D02*
X38310000Y3670000D01*
X38310000Y4360000D01*
X38590000Y4360000D01*
X38590000Y3670000D01*
X38590000Y3670000D01*
G37*
G36*
X38090000Y3670000D02*
X37810000Y3670000D01*
X37810000Y4360000D01*
X38090000Y4360000D01*
X38090000Y3670000D01*
X38090000Y3670000D01*
G37*
G36*
X37590000Y3670000D02*
X37310000Y3670000D01*
X37310000Y4360000D01*
X37590000Y4360000D01*
X37590000Y3670000D01*
X37590000Y3670000D01*
G37*
G36*
X37090000Y3670000D02*
X36810000Y3670000D01*
X36810000Y4360000D01*
X37090000Y4360000D01*
X37090000Y3670000D01*
X37090000Y3670000D01*
G37*
G36*
X36590000Y3670000D02*
X36310000Y3670000D01*
X36310000Y4360000D01*
X36590000Y4360000D01*
X36590000Y3670000D01*
X36590000Y3670000D01*
G37*
G36*
X36090000Y3670000D02*
X35810000Y3670000D01*
X35810000Y4360000D01*
X36090000Y4360000D01*
X36090000Y3670000D01*
X36090000Y3670000D01*
G37*
G36*
X35590000Y3670000D02*
X35310000Y3670000D01*
X35310000Y4360000D01*
X35590000Y4360000D01*
X35590000Y3670000D01*
X35590000Y3670000D01*
G37*
G36*
X20090000Y3670000D02*
X19810000Y3670000D01*
X19810000Y4360000D01*
X20090000Y4360000D01*
X20090000Y3670000D01*
X20090000Y3670000D01*
G37*
G36*
X42090000Y3670000D02*
X41810000Y3670000D01*
X41810000Y4360000D01*
X42090000Y4360000D01*
X42090000Y3670000D01*
X42090000Y3670000D01*
G37*
G36*
X14590000Y3670000D02*
X14310000Y3670000D01*
X14310000Y4360000D01*
X14590000Y4360000D01*
X14590000Y3670000D01*
X14590000Y3670000D01*
G37*
G36*
X15090000Y3670000D02*
X14810000Y3670000D01*
X14810000Y4360000D01*
X15090000Y4360000D01*
X15090000Y3670000D01*
X15090000Y3670000D01*
G37*
G36*
X15590000Y3670000D02*
X15310000Y3670000D01*
X15310000Y4360000D01*
X15590000Y4360000D01*
X15590000Y3670000D01*
X15590000Y3670000D01*
G37*
G36*
X16090000Y3670000D02*
X15810000Y3670000D01*
X15810000Y4360000D01*
X16090000Y4360000D01*
X16090000Y3670000D01*
X16090000Y3670000D01*
G37*
G36*
X16590000Y3670000D02*
X16310000Y3670000D01*
X16310000Y4360000D01*
X16590000Y4360000D01*
X16590000Y3670000D01*
X16590000Y3670000D01*
G37*
G36*
X17090000Y3670000D02*
X16810000Y3670000D01*
X16810000Y4360000D01*
X17090000Y4360000D01*
X17090000Y3670000D01*
X17090000Y3670000D01*
G37*
G36*
X17590000Y3670000D02*
X17310000Y3670000D01*
X17310000Y4360000D01*
X17590000Y4360000D01*
X17590000Y3670000D01*
X17590000Y3670000D01*
G37*
G36*
X18090000Y3670000D02*
X17810000Y3670000D01*
X17810000Y4360000D01*
X18090000Y4360000D01*
X18090000Y3670000D01*
X18090000Y3670000D01*
G37*
G36*
X18590000Y3670000D02*
X18310000Y3670000D01*
X18310000Y4360000D01*
X18590000Y4360000D01*
X18590000Y3670000D01*
X18590000Y3670000D01*
G37*
G36*
X19090000Y3670000D02*
X18810000Y3670000D01*
X18810000Y4360000D01*
X19090000Y4360000D01*
X19090000Y3670000D01*
X19090000Y3670000D01*
G37*
G36*
X19590000Y3670000D02*
X19310000Y3670000D01*
X19310000Y4360000D01*
X19590000Y4360000D01*
X19590000Y3670000D01*
X19590000Y3670000D01*
G37*
G36*
X20590000Y3670000D02*
X20310000Y3670000D01*
X20310000Y4360000D01*
X20590000Y4360000D01*
X20590000Y3670000D01*
X20590000Y3670000D01*
G37*
G36*
X5870019Y6371818D02*
X5940859Y6357727D01*
X6141045Y6274807D01*
X6321209Y6154426D01*
X6474426Y6001209D01*
X6594807Y5821045D01*
X6677727Y5620859D01*
X6720000Y5408339D01*
X6720000Y5191661D01*
X6677727Y4979141D01*
X6594807Y4778955D01*
X6474426Y4598791D01*
X6321209Y4445574D01*
X6141045Y4325193D01*
X5940859Y4242273D01*
X5870019Y4228182D01*
X5728341Y4200000D01*
X5511659Y4200000D01*
X5369981Y4228182D01*
X5299141Y4242273D01*
X5098955Y4325193D01*
X4918791Y4445574D01*
X4765574Y4598791D01*
X4645193Y4778955D01*
X4562273Y4979141D01*
X4520000Y5191661D01*
X4520000Y5408339D01*
X4562273Y5620859D01*
X4645193Y5821045D01*
X4765574Y6001209D01*
X4918791Y6154426D01*
X5098955Y6274807D01*
X5299141Y6357727D01*
X5369981Y6371818D01*
X5511659Y6400000D01*
X5728341Y6400000D01*
X5870019Y6371818D01*
X5870019Y6371818D01*
G37*
G36*
X51770019Y6371818D02*
X51840859Y6357727D01*
X52041045Y6274807D01*
X52221209Y6154426D01*
X52374426Y6001209D01*
X52494807Y5821045D01*
X52577727Y5620859D01*
X52620000Y5408339D01*
X52620000Y5191661D01*
X52577727Y4979141D01*
X52494807Y4778955D01*
X52374426Y4598791D01*
X52221209Y4445574D01*
X52041045Y4325193D01*
X51840859Y4242273D01*
X51770019Y4228182D01*
X51628341Y4200000D01*
X51411659Y4200000D01*
X51269981Y4228182D01*
X51199141Y4242273D01*
X50998955Y4325193D01*
X50818791Y4445574D01*
X50665574Y4598791D01*
X50545193Y4778955D01*
X50462273Y4979141D01*
X50420000Y5191661D01*
X50420000Y5408339D01*
X50462273Y5620859D01*
X50545193Y5821045D01*
X50665574Y6001209D01*
X50818791Y6154426D01*
X50998955Y6274807D01*
X51199141Y6357727D01*
X51269981Y6371818D01*
X51411659Y6400000D01*
X51628341Y6400000D01*
X51770019Y6371818D01*
X51770019Y6371818D01*
G37*
G36*
X35210000Y4460000D02*
X34520000Y4460000D01*
X34520000Y4740000D01*
X35210000Y4740000D01*
X35210000Y4460000D01*
X35210000Y4460000D01*
G37*
G36*
X21880000Y4460000D02*
X21190000Y4460000D01*
X21190000Y4740000D01*
X21880000Y4740000D01*
X21880000Y4460000D01*
X21880000Y4460000D01*
G37*
G36*
X14210000Y4460000D02*
X13520000Y4460000D01*
X13520000Y4740000D01*
X14210000Y4740000D01*
X14210000Y4460000D01*
X14210000Y4460000D01*
G37*
G36*
X42880000Y4460000D02*
X42190000Y4460000D01*
X42190000Y4740000D01*
X42880000Y4740000D01*
X42880000Y4460000D01*
X42880000Y4460000D01*
G37*
G36*
X35210000Y4960000D02*
X34520000Y4960000D01*
X34520000Y5240000D01*
X35210000Y5240000D01*
X35210000Y4960000D01*
X35210000Y4960000D01*
G37*
G36*
X42880000Y4960000D02*
X42190000Y4960000D01*
X42190000Y5240000D01*
X42880000Y5240000D01*
X42880000Y4960000D01*
X42880000Y4960000D01*
G37*
G36*
X21880000Y4960000D02*
X21190000Y4960000D01*
X21190000Y5240000D01*
X21880000Y5240000D01*
X21880000Y4960000D01*
X21880000Y4960000D01*
G37*
G36*
X14210000Y4960000D02*
X13520000Y4960000D01*
X13520000Y5240000D01*
X14210000Y5240000D01*
X14210000Y4960000D01*
X14210000Y4960000D01*
G37*
G36*
X41500000Y5050000D02*
X35900000Y5050000D01*
X35900000Y10650000D01*
X41500000Y10650000D01*
X41500000Y5050000D01*
X41500000Y5050000D01*
G37*
G36*
X20500000Y5050000D02*
X14900000Y5050000D01*
X14900000Y10650000D01*
X20500000Y10650000D01*
X20500000Y5050000D01*
X20500000Y5050000D01*
G37*
G36*
X42880000Y5460000D02*
X42190000Y5460000D01*
X42190000Y5740000D01*
X42880000Y5740000D01*
X42880000Y5460000D01*
X42880000Y5460000D01*
G37*
G36*
X35210000Y5460000D02*
X34520000Y5460000D01*
X34520000Y5740000D01*
X35210000Y5740000D01*
X35210000Y5460000D01*
X35210000Y5460000D01*
G37*
G36*
X21880000Y5460000D02*
X21190000Y5460000D01*
X21190000Y5740000D01*
X21880000Y5740000D01*
X21880000Y5460000D01*
X21880000Y5460000D01*
G37*
G36*
X14210000Y5460000D02*
X13520000Y5460000D01*
X13520000Y5740000D01*
X14210000Y5740000D01*
X14210000Y5460000D01*
X14210000Y5460000D01*
G37*
G36*
X35210000Y5960000D02*
X34520000Y5960000D01*
X34520000Y6240000D01*
X35210000Y6240000D01*
X35210000Y5960000D01*
X35210000Y5960000D01*
G37*
G36*
X14210000Y5960000D02*
X13520000Y5960000D01*
X13520000Y6240000D01*
X14210000Y6240000D01*
X14210000Y5960000D01*
X14210000Y5960000D01*
G37*
G36*
X42880000Y5960000D02*
X42190000Y5960000D01*
X42190000Y6240000D01*
X42880000Y6240000D01*
X42880000Y5960000D01*
X42880000Y5960000D01*
G37*
G36*
X21880000Y5960000D02*
X21190000Y5960000D01*
X21190000Y6240000D01*
X21880000Y6240000D01*
X21880000Y5960000D01*
X21880000Y5960000D01*
G37*
G36*
X10913946Y7070801D02*
X10951399Y7059440D01*
X10985914Y7040992D01*
X11016165Y7016165D01*
X11040992Y6985914D01*
X11059440Y6951399D01*
X11070801Y6913946D01*
X11075000Y6871314D01*
X11075000Y6328686D01*
X11070801Y6286054D01*
X11059440Y6248601D01*
X11040992Y6214086D01*
X11016165Y6183835D01*
X10985914Y6159008D01*
X10951399Y6140560D01*
X10913946Y6129199D01*
X10871314Y6125000D01*
X10228686Y6125000D01*
X10186054Y6129199D01*
X10148601Y6140560D01*
X10114086Y6159008D01*
X10083835Y6183835D01*
X10059008Y6214086D01*
X10040560Y6248601D01*
X10029199Y6286054D01*
X10025000Y6328686D01*
X10025000Y6871314D01*
X10029199Y6913946D01*
X10040560Y6951399D01*
X10059008Y6985914D01*
X10083835Y7016165D01*
X10114086Y7040992D01*
X10148601Y7059440D01*
X10186054Y7070801D01*
X10228686Y7075000D01*
X10871314Y7075000D01*
X10913946Y7070801D01*
X10913946Y7070801D01*
G37*
G36*
X12663946Y7070801D02*
X12701399Y7059440D01*
X12735914Y7040992D01*
X12766165Y7016165D01*
X12790992Y6985914D01*
X12809440Y6951399D01*
X12820801Y6913946D01*
X12825000Y6871314D01*
X12825000Y6328686D01*
X12820801Y6286054D01*
X12809440Y6248601D01*
X12790992Y6214086D01*
X12766165Y6183835D01*
X12735914Y6159008D01*
X12701399Y6140560D01*
X12663946Y6129199D01*
X12621314Y6125000D01*
X11978686Y6125000D01*
X11936054Y6129199D01*
X11898601Y6140560D01*
X11864086Y6159008D01*
X11833835Y6183835D01*
X11809008Y6214086D01*
X11790560Y6248601D01*
X11779199Y6286054D01*
X11775000Y6328686D01*
X11775000Y6871314D01*
X11779199Y6913946D01*
X11790560Y6951399D01*
X11809008Y6985914D01*
X11833835Y7016165D01*
X11864086Y7040992D01*
X11898601Y7059440D01*
X11936054Y7070801D01*
X11978686Y7075000D01*
X12621314Y7075000D01*
X12663946Y7070801D01*
X12663946Y7070801D01*
G37*
G36*
X31913946Y7070801D02*
X31951399Y7059440D01*
X31985914Y7040992D01*
X32016165Y7016165D01*
X32040992Y6985914D01*
X32059440Y6951399D01*
X32070801Y6913946D01*
X32075000Y6871314D01*
X32075000Y6328686D01*
X32070801Y6286054D01*
X32059440Y6248601D01*
X32040992Y6214086D01*
X32016165Y6183835D01*
X31985914Y6159008D01*
X31951399Y6140560D01*
X31913946Y6129199D01*
X31871314Y6125000D01*
X31228686Y6125000D01*
X31186054Y6129199D01*
X31148601Y6140560D01*
X31114086Y6159008D01*
X31083835Y6183835D01*
X31059008Y6214086D01*
X31040560Y6248601D01*
X31029199Y6286054D01*
X31025000Y6328686D01*
X31025000Y6871314D01*
X31029199Y6913946D01*
X31040560Y6951399D01*
X31059008Y6985914D01*
X31083835Y7016165D01*
X31114086Y7040992D01*
X31148601Y7059440D01*
X31186054Y7070801D01*
X31228686Y7075000D01*
X31871314Y7075000D01*
X31913946Y7070801D01*
X31913946Y7070801D01*
G37*
G36*
X33663946Y7070801D02*
X33701399Y7059440D01*
X33735914Y7040992D01*
X33766165Y7016165D01*
X33790992Y6985914D01*
X33809440Y6951399D01*
X33820801Y6913946D01*
X33825000Y6871314D01*
X33825000Y6328686D01*
X33820801Y6286054D01*
X33809440Y6248601D01*
X33790992Y6214086D01*
X33766165Y6183835D01*
X33735914Y6159008D01*
X33701399Y6140560D01*
X33663946Y6129199D01*
X33621314Y6125000D01*
X32978686Y6125000D01*
X32936054Y6129199D01*
X32898601Y6140560D01*
X32864086Y6159008D01*
X32833835Y6183835D01*
X32809008Y6214086D01*
X32790560Y6248601D01*
X32779199Y6286054D01*
X32775000Y6328686D01*
X32775000Y6871314D01*
X32779199Y6913946D01*
X32790560Y6951399D01*
X32809008Y6985914D01*
X32833835Y7016165D01*
X32864086Y7040992D01*
X32898601Y7059440D01*
X32936054Y7070801D01*
X32978686Y7075000D01*
X33621314Y7075000D01*
X33663946Y7070801D01*
X33663946Y7070801D01*
G37*
G36*
X14210000Y6460000D02*
X13520000Y6460000D01*
X13520000Y6740000D01*
X14210000Y6740000D01*
X14210000Y6460000D01*
X14210000Y6460000D01*
G37*
G36*
X21880000Y6460000D02*
X21190000Y6460000D01*
X21190000Y6740000D01*
X21880000Y6740000D01*
X21880000Y6460000D01*
X21880000Y6460000D01*
G37*
G36*
X35210000Y6460000D02*
X34520000Y6460000D01*
X34520000Y6740000D01*
X35210000Y6740000D01*
X35210000Y6460000D01*
X35210000Y6460000D01*
G37*
G36*
X42880000Y6460000D02*
X42190000Y6460000D01*
X42190000Y6740000D01*
X42880000Y6740000D01*
X42880000Y6460000D01*
X42880000Y6460000D01*
G37*
G36*
X42880000Y6960000D02*
X42190000Y6960000D01*
X42190000Y7240000D01*
X42880000Y7240000D01*
X42880000Y6960000D01*
X42880000Y6960000D01*
G37*
G36*
X14210000Y6960000D02*
X13520000Y6960000D01*
X13520000Y7240000D01*
X14210000Y7240000D01*
X14210000Y6960000D01*
X14210000Y6960000D01*
G37*
G36*
X35210000Y6960000D02*
X34520000Y6960000D01*
X34520000Y7240000D01*
X35210000Y7240000D01*
X35210000Y6960000D01*
X35210000Y6960000D01*
G37*
G36*
X21880000Y6960000D02*
X21190000Y6960000D01*
X21190000Y7240000D01*
X21880000Y7240000D01*
X21880000Y6960000D01*
X21880000Y6960000D01*
G37*
G36*
X21880000Y7460000D02*
X21190000Y7460000D01*
X21190000Y7740000D01*
X21880000Y7740000D01*
X21880000Y7460000D01*
X21880000Y7460000D01*
G37*
G36*
X42880000Y7460000D02*
X42190000Y7460000D01*
X42190000Y7740000D01*
X42880000Y7740000D01*
X42880000Y7460000D01*
X42880000Y7460000D01*
G37*
G36*
X14210000Y7460000D02*
X13520000Y7460000D01*
X13520000Y7740000D01*
X14210000Y7740000D01*
X14210000Y7460000D01*
X14210000Y7460000D01*
G37*
G36*
X35210000Y7460000D02*
X34520000Y7460000D01*
X34520000Y7740000D01*
X35210000Y7740000D01*
X35210000Y7460000D01*
X35210000Y7460000D01*
G37*
G36*
X14210000Y7960000D02*
X13520000Y7960000D01*
X13520000Y8240000D01*
X14210000Y8240000D01*
X14210000Y7960000D01*
X14210000Y7960000D01*
G37*
G36*
X35210000Y7960000D02*
X34520000Y7960000D01*
X34520000Y8240000D01*
X35210000Y8240000D01*
X35210000Y7960000D01*
X35210000Y7960000D01*
G37*
G36*
X21880000Y7960000D02*
X21190000Y7960000D01*
X21190000Y8240000D01*
X21880000Y8240000D01*
X21880000Y7960000D01*
X21880000Y7960000D01*
G37*
G36*
X42880000Y7960000D02*
X42190000Y7960000D01*
X42190000Y8240000D01*
X42880000Y8240000D01*
X42880000Y7960000D01*
X42880000Y7960000D01*
G37*
G36*
X42880000Y8460000D02*
X42190000Y8460000D01*
X42190000Y8740000D01*
X42880000Y8740000D01*
X42880000Y8460000D01*
X42880000Y8460000D01*
G37*
G36*
X35210000Y8460000D02*
X34520000Y8460000D01*
X34520000Y8740000D01*
X35210000Y8740000D01*
X35210000Y8460000D01*
X35210000Y8460000D01*
G37*
G36*
X21880000Y8460000D02*
X21190000Y8460000D01*
X21190000Y8740000D01*
X21880000Y8740000D01*
X21880000Y8460000D01*
X21880000Y8460000D01*
G37*
G36*
X14210000Y8460000D02*
X13520000Y8460000D01*
X13520000Y8740000D01*
X14210000Y8740000D01*
X14210000Y8460000D01*
X14210000Y8460000D01*
G37*
G36*
X42880000Y8960000D02*
X42190000Y8960000D01*
X42190000Y9240000D01*
X42880000Y9240000D01*
X42880000Y8960000D01*
X42880000Y8960000D01*
G37*
G36*
X21880000Y8960000D02*
X21190000Y8960000D01*
X21190000Y9240000D01*
X21880000Y9240000D01*
X21880000Y8960000D01*
X21880000Y8960000D01*
G37*
G36*
X14210000Y8960000D02*
X13520000Y8960000D01*
X13520000Y9240000D01*
X14210000Y9240000D01*
X14210000Y8960000D01*
X14210000Y8960000D01*
G37*
G36*
X35210000Y8960000D02*
X34520000Y8960000D01*
X34520000Y9240000D01*
X35210000Y9240000D01*
X35210000Y8960000D01*
X35210000Y8960000D01*
G37*
G36*
X42880000Y9460000D02*
X42190000Y9460000D01*
X42190000Y9740000D01*
X42880000Y9740000D01*
X42880000Y9460000D01*
X42880000Y9460000D01*
G37*
G36*
X35210000Y9460000D02*
X34520000Y9460000D01*
X34520000Y9740000D01*
X35210000Y9740000D01*
X35210000Y9460000D01*
X35210000Y9460000D01*
G37*
G36*
X21880000Y9460000D02*
X21190000Y9460000D01*
X21190000Y9740000D01*
X21880000Y9740000D01*
X21880000Y9460000D01*
X21880000Y9460000D01*
G37*
G36*
X14210000Y9460000D02*
X13520000Y9460000D01*
X13520000Y9740000D01*
X14210000Y9740000D01*
X14210000Y9460000D01*
X14210000Y9460000D01*
G37*
G36*
X21880000Y9960000D02*
X21190000Y9960000D01*
X21190000Y10240000D01*
X21880000Y10240000D01*
X21880000Y9960000D01*
X21880000Y9960000D01*
G37*
G36*
X14210000Y9960000D02*
X13520000Y9960000D01*
X13520000Y10240000D01*
X14210000Y10240000D01*
X14210000Y9960000D01*
X14210000Y9960000D01*
G37*
G36*
X42880000Y9960000D02*
X42190000Y9960000D01*
X42190000Y10240000D01*
X42880000Y10240000D01*
X42880000Y9960000D01*
X42880000Y9960000D01*
G37*
G36*
X35210000Y9960000D02*
X34520000Y9960000D01*
X34520000Y10240000D01*
X35210000Y10240000D01*
X35210000Y9960000D01*
X35210000Y9960000D01*
G37*
G36*
X14210000Y10460000D02*
X13520000Y10460000D01*
X13520000Y10740000D01*
X14210000Y10740000D01*
X14210000Y10460000D01*
X14210000Y10460000D01*
G37*
G36*
X21880000Y10460000D02*
X21190000Y10460000D01*
X21190000Y10740000D01*
X21880000Y10740000D01*
X21880000Y10460000D01*
X21880000Y10460000D01*
G37*
G36*
X35210000Y10460000D02*
X34520000Y10460000D01*
X34520000Y10740000D01*
X35210000Y10740000D01*
X35210000Y10460000D01*
X35210000Y10460000D01*
G37*
G36*
X42880000Y10460000D02*
X42190000Y10460000D01*
X42190000Y10740000D01*
X42880000Y10740000D01*
X42880000Y10460000D01*
X42880000Y10460000D01*
G37*
G36*
X9090000Y10870000D02*
X8810000Y10870000D01*
X8810000Y11560000D01*
X9090000Y11560000D01*
X9090000Y10870000D01*
X9090000Y10870000D01*
G37*
G36*
X47590000Y10870000D02*
X47310000Y10870000D01*
X47310000Y11560000D01*
X47590000Y11560000D01*
X47590000Y10870000D01*
X47590000Y10870000D01*
G37*
G36*
X8590000Y10870000D02*
X8310000Y10870000D01*
X8310000Y11560000D01*
X8590000Y11560000D01*
X8590000Y10870000D01*
X8590000Y10870000D01*
G37*
G36*
X4090000Y10870000D02*
X3810000Y10870000D01*
X3810000Y11560000D01*
X4090000Y11560000D01*
X4090000Y10870000D01*
X4090000Y10870000D01*
G37*
G36*
X4590000Y10870000D02*
X4310000Y10870000D01*
X4310000Y11560000D01*
X4590000Y11560000D01*
X4590000Y10870000D01*
X4590000Y10870000D01*
G37*
G36*
X5090000Y10870000D02*
X4810000Y10870000D01*
X4810000Y11560000D01*
X5090000Y11560000D01*
X5090000Y10870000D01*
X5090000Y10870000D01*
G37*
G36*
X48590000Y10870000D02*
X48310000Y10870000D01*
X48310000Y11560000D01*
X48590000Y11560000D01*
X48590000Y10870000D01*
X48590000Y10870000D01*
G37*
G36*
X8090000Y10870000D02*
X7810000Y10870000D01*
X7810000Y11560000D01*
X8090000Y11560000D01*
X8090000Y10870000D01*
X8090000Y10870000D01*
G37*
G36*
X9590000Y10870000D02*
X9310000Y10870000D01*
X9310000Y11560000D01*
X9590000Y11560000D01*
X9590000Y10870000D01*
X9590000Y10870000D01*
G37*
G36*
X10090000Y10870000D02*
X9810000Y10870000D01*
X9810000Y11560000D01*
X10090000Y11560000D01*
X10090000Y10870000D01*
X10090000Y10870000D01*
G37*
G36*
X10590000Y10870000D02*
X10310000Y10870000D01*
X10310000Y11560000D01*
X10590000Y11560000D01*
X10590000Y10870000D01*
X10590000Y10870000D01*
G37*
G36*
X25090000Y10870000D02*
X24810000Y10870000D01*
X24810000Y11560000D01*
X25090000Y11560000D01*
X25090000Y10870000D01*
X25090000Y10870000D01*
G37*
G36*
X25590000Y10870000D02*
X25310000Y10870000D01*
X25310000Y11560000D01*
X25590000Y11560000D01*
X25590000Y10870000D01*
X25590000Y10870000D01*
G37*
G36*
X52590000Y10870000D02*
X52310000Y10870000D01*
X52310000Y11560000D01*
X52590000Y11560000D01*
X52590000Y10870000D01*
X52590000Y10870000D01*
G37*
G36*
X52090000Y10870000D02*
X51810000Y10870000D01*
X51810000Y11560000D01*
X52090000Y11560000D01*
X52090000Y10870000D01*
X52090000Y10870000D01*
G37*
G36*
X51590000Y10870000D02*
X51310000Y10870000D01*
X51310000Y11560000D01*
X51590000Y11560000D01*
X51590000Y10870000D01*
X51590000Y10870000D01*
G37*
G36*
X51090000Y10870000D02*
X50810000Y10870000D01*
X50810000Y11560000D01*
X51090000Y11560000D01*
X51090000Y10870000D01*
X51090000Y10870000D01*
G37*
G36*
X50590000Y10870000D02*
X50310000Y10870000D01*
X50310000Y11560000D01*
X50590000Y11560000D01*
X50590000Y10870000D01*
X50590000Y10870000D01*
G37*
G36*
X50090000Y10870000D02*
X49810000Y10870000D01*
X49810000Y11560000D01*
X50090000Y11560000D01*
X50090000Y10870000D01*
X50090000Y10870000D01*
G37*
G36*
X49590000Y10870000D02*
X49310000Y10870000D01*
X49310000Y11560000D01*
X49590000Y11560000D01*
X49590000Y10870000D01*
X49590000Y10870000D01*
G37*
G36*
X49090000Y10870000D02*
X48810000Y10870000D01*
X48810000Y11560000D01*
X49090000Y11560000D01*
X49090000Y10870000D01*
X49090000Y10870000D01*
G37*
G36*
X48090000Y10870000D02*
X47810000Y10870000D01*
X47810000Y11560000D01*
X48090000Y11560000D01*
X48090000Y10870000D01*
X48090000Y10870000D01*
G37*
G36*
X29590000Y10870000D02*
X29310000Y10870000D01*
X29310000Y11560000D01*
X29590000Y11560000D01*
X29590000Y10870000D01*
X29590000Y10870000D01*
G37*
G36*
X7090000Y10870000D02*
X6810000Y10870000D01*
X6810000Y11560000D01*
X7090000Y11560000D01*
X7090000Y10870000D01*
X7090000Y10870000D01*
G37*
G36*
X26090000Y10870000D02*
X25810000Y10870000D01*
X25810000Y11560000D01*
X26090000Y11560000D01*
X26090000Y10870000D01*
X26090000Y10870000D01*
G37*
G36*
X6590000Y10870000D02*
X6310000Y10870000D01*
X6310000Y11560000D01*
X6590000Y11560000D01*
X6590000Y10870000D01*
X6590000Y10870000D01*
G37*
G36*
X6090000Y10870000D02*
X5810000Y10870000D01*
X5810000Y11560000D01*
X6090000Y11560000D01*
X6090000Y10870000D01*
X6090000Y10870000D01*
G37*
G36*
X5590000Y10870000D02*
X5310000Y10870000D01*
X5310000Y11560000D01*
X5590000Y11560000D01*
X5590000Y10870000D01*
X5590000Y10870000D01*
G37*
G36*
X26590000Y10870000D02*
X26310000Y10870000D01*
X26310000Y11560000D01*
X26590000Y11560000D01*
X26590000Y10870000D01*
X26590000Y10870000D01*
G37*
G36*
X27090000Y10870000D02*
X26810000Y10870000D01*
X26810000Y11560000D01*
X27090000Y11560000D01*
X27090000Y10870000D01*
X27090000Y10870000D01*
G37*
G36*
X28090000Y10870000D02*
X27810000Y10870000D01*
X27810000Y11560000D01*
X28090000Y11560000D01*
X28090000Y10870000D01*
X28090000Y10870000D01*
G37*
G36*
X28590000Y10870000D02*
X28310000Y10870000D01*
X28310000Y11560000D01*
X28590000Y11560000D01*
X28590000Y10870000D01*
X28590000Y10870000D01*
G37*
G36*
X7590000Y10870000D02*
X7310000Y10870000D01*
X7310000Y11560000D01*
X7590000Y11560000D01*
X7590000Y10870000D01*
X7590000Y10870000D01*
G37*
G36*
X30090000Y10870000D02*
X29810000Y10870000D01*
X29810000Y11560000D01*
X30090000Y11560000D01*
X30090000Y10870000D01*
X30090000Y10870000D01*
G37*
G36*
X30590000Y10870000D02*
X30310000Y10870000D01*
X30310000Y11560000D01*
X30590000Y11560000D01*
X30590000Y10870000D01*
X30590000Y10870000D01*
G37*
G36*
X31090000Y10870000D02*
X30810000Y10870000D01*
X30810000Y11560000D01*
X31090000Y11560000D01*
X31090000Y10870000D01*
X31090000Y10870000D01*
G37*
G36*
X31590000Y10870000D02*
X31310000Y10870000D01*
X31310000Y11560000D01*
X31590000Y11560000D01*
X31590000Y10870000D01*
X31590000Y10870000D01*
G37*
G36*
X46090000Y10870000D02*
X45810000Y10870000D01*
X45810000Y11560000D01*
X46090000Y11560000D01*
X46090000Y10870000D01*
X46090000Y10870000D01*
G37*
G36*
X46590000Y10870000D02*
X46310000Y10870000D01*
X46310000Y11560000D01*
X46590000Y11560000D01*
X46590000Y10870000D01*
X46590000Y10870000D01*
G37*
G36*
X47090000Y10870000D02*
X46810000Y10870000D01*
X46810000Y11560000D01*
X47090000Y11560000D01*
X47090000Y10870000D01*
X47090000Y10870000D01*
G37*
G36*
X27590000Y10870000D02*
X27310000Y10870000D01*
X27310000Y11560000D01*
X27590000Y11560000D01*
X27590000Y10870000D01*
X27590000Y10870000D01*
G37*
G36*
X29090000Y10870000D02*
X28810000Y10870000D01*
X28810000Y11560000D01*
X29090000Y11560000D01*
X29090000Y10870000D01*
X29090000Y10870000D01*
G37*
G36*
X35210000Y10960000D02*
X34520000Y10960000D01*
X34520000Y11240000D01*
X35210000Y11240000D01*
X35210000Y10960000D01*
X35210000Y10960000D01*
G37*
G36*
X14210000Y10960000D02*
X13520000Y10960000D01*
X13520000Y11240000D01*
X14210000Y11240000D01*
X14210000Y10960000D01*
X14210000Y10960000D01*
G37*
G36*
X21880000Y10960000D02*
X21190000Y10960000D01*
X21190000Y11240000D01*
X21880000Y11240000D01*
X21880000Y10960000D01*
X21880000Y10960000D01*
G37*
G36*
X42880000Y10960000D02*
X42190000Y10960000D01*
X42190000Y11240000D01*
X42880000Y11240000D01*
X42880000Y10960000D01*
X42880000Y10960000D01*
G37*
G36*
X21090000Y11340000D02*
X20810000Y11340000D01*
X20810000Y12030000D01*
X21090000Y12030000D01*
X21090000Y11340000D01*
X21090000Y11340000D01*
G37*
G36*
X20590000Y11340000D02*
X20310000Y11340000D01*
X20310000Y12030000D01*
X20590000Y12030000D01*
X20590000Y11340000D01*
X20590000Y11340000D01*
G37*
G36*
X20090000Y11340000D02*
X19810000Y11340000D01*
X19810000Y12030000D01*
X20090000Y12030000D01*
X20090000Y11340000D01*
X20090000Y11340000D01*
G37*
G36*
X19590000Y11340000D02*
X19310000Y11340000D01*
X19310000Y12030000D01*
X19590000Y12030000D01*
X19590000Y11340000D01*
X19590000Y11340000D01*
G37*
G36*
X19090000Y11340000D02*
X18810000Y11340000D01*
X18810000Y12030000D01*
X19090000Y12030000D01*
X19090000Y11340000D01*
X19090000Y11340000D01*
G37*
G36*
X18590000Y11340000D02*
X18310000Y11340000D01*
X18310000Y12030000D01*
X18590000Y12030000D01*
X18590000Y11340000D01*
X18590000Y11340000D01*
G37*
G36*
X18090000Y11340000D02*
X17810000Y11340000D01*
X17810000Y12030000D01*
X18090000Y12030000D01*
X18090000Y11340000D01*
X18090000Y11340000D01*
G37*
G36*
X17590000Y11340000D02*
X17310000Y11340000D01*
X17310000Y12030000D01*
X17590000Y12030000D01*
X17590000Y11340000D01*
X17590000Y11340000D01*
G37*
G36*
X36590000Y11340000D02*
X36310000Y11340000D01*
X36310000Y12030000D01*
X36590000Y12030000D01*
X36590000Y11340000D01*
X36590000Y11340000D01*
G37*
G36*
X16590000Y11340000D02*
X16310000Y11340000D01*
X16310000Y12030000D01*
X16590000Y12030000D01*
X16590000Y11340000D01*
X16590000Y11340000D01*
G37*
G36*
X16090000Y11340000D02*
X15810000Y11340000D01*
X15810000Y12030000D01*
X16090000Y12030000D01*
X16090000Y11340000D01*
X16090000Y11340000D01*
G37*
G36*
X15090000Y11340000D02*
X14810000Y11340000D01*
X14810000Y12030000D01*
X15090000Y12030000D01*
X15090000Y11340000D01*
X15090000Y11340000D01*
G37*
G36*
X35590000Y11340000D02*
X35310000Y11340000D01*
X35310000Y12030000D01*
X35590000Y12030000D01*
X35590000Y11340000D01*
X35590000Y11340000D01*
G37*
G36*
X15590000Y11340000D02*
X15310000Y11340000D01*
X15310000Y12030000D01*
X15590000Y12030000D01*
X15590000Y11340000D01*
X15590000Y11340000D01*
G37*
G36*
X14590000Y11340000D02*
X14310000Y11340000D01*
X14310000Y12030000D01*
X14590000Y12030000D01*
X14590000Y11340000D01*
X14590000Y11340000D01*
G37*
G36*
X17090000Y11340000D02*
X16810000Y11340000D01*
X16810000Y12030000D01*
X17090000Y12030000D01*
X17090000Y11340000D01*
X17090000Y11340000D01*
G37*
G36*
X37090000Y11340000D02*
X36810000Y11340000D01*
X36810000Y12030000D01*
X37090000Y12030000D01*
X37090000Y11340000D01*
X37090000Y11340000D01*
G37*
G36*
X37590000Y11340000D02*
X37310000Y11340000D01*
X37310000Y12030000D01*
X37590000Y12030000D01*
X37590000Y11340000D01*
X37590000Y11340000D01*
G37*
G36*
X40590000Y11340000D02*
X40310000Y11340000D01*
X40310000Y12030000D01*
X40590000Y12030000D01*
X40590000Y11340000D01*
X40590000Y11340000D01*
G37*
G36*
X38090000Y11340000D02*
X37810000Y11340000D01*
X37810000Y12030000D01*
X38090000Y12030000D01*
X38090000Y11340000D01*
X38090000Y11340000D01*
G37*
G36*
X38590000Y11340000D02*
X38310000Y11340000D01*
X38310000Y12030000D01*
X38590000Y12030000D01*
X38590000Y11340000D01*
X38590000Y11340000D01*
G37*
G36*
X39090000Y11340000D02*
X38810000Y11340000D01*
X38810000Y12030000D01*
X39090000Y12030000D01*
X39090000Y11340000D01*
X39090000Y11340000D01*
G37*
G36*
X40090000Y11340000D02*
X39810000Y11340000D01*
X39810000Y12030000D01*
X40090000Y12030000D01*
X40090000Y11340000D01*
X40090000Y11340000D01*
G37*
G36*
X39590000Y11340000D02*
X39310000Y11340000D01*
X39310000Y12030000D01*
X39590000Y12030000D01*
X39590000Y11340000D01*
X39590000Y11340000D01*
G37*
G36*
X42090000Y11340000D02*
X41810000Y11340000D01*
X41810000Y12030000D01*
X42090000Y12030000D01*
X42090000Y11340000D01*
X42090000Y11340000D01*
G37*
G36*
X41590000Y11340000D02*
X41310000Y11340000D01*
X41310000Y12030000D01*
X41590000Y12030000D01*
X41590000Y11340000D01*
X41590000Y11340000D01*
G37*
G36*
X41090000Y11340000D02*
X40810000Y11340000D01*
X40810000Y12030000D01*
X41090000Y12030000D01*
X41090000Y11340000D01*
X41090000Y11340000D01*
G37*
G36*
X36090000Y11340000D02*
X35810000Y11340000D01*
X35810000Y12030000D01*
X36090000Y12030000D01*
X36090000Y11340000D01*
X36090000Y11340000D01*
G37*
G36*
X45710000Y11660000D02*
X45020000Y11660000D01*
X45020000Y11940000D01*
X45710000Y11940000D01*
X45710000Y11660000D01*
X45710000Y11660000D01*
G37*
G36*
X3710000Y11660000D02*
X3020000Y11660000D01*
X3020000Y11940000D01*
X3710000Y11940000D01*
X3710000Y11660000D01*
X3710000Y11660000D01*
G37*
G36*
X32380000Y11660000D02*
X31690000Y11660000D01*
X31690000Y11940000D01*
X32380000Y11940000D01*
X32380000Y11660000D01*
X32380000Y11660000D01*
G37*
G36*
X24710000Y11660000D02*
X24020000Y11660000D01*
X24020000Y11940000D01*
X24710000Y11940000D01*
X24710000Y11660000D01*
X24710000Y11660000D01*
G37*
G36*
X11380000Y11660000D02*
X10690000Y11660000D01*
X10690000Y11940000D01*
X11380000Y11940000D01*
X11380000Y11660000D01*
X11380000Y11660000D01*
G37*
G36*
X53380000Y11660000D02*
X52690000Y11660000D01*
X52690000Y11940000D01*
X53380000Y11940000D01*
X53380000Y11660000D01*
X53380000Y11660000D01*
G37*
G36*
X11380000Y12160000D02*
X10690000Y12160000D01*
X10690000Y12440000D01*
X11380000Y12440000D01*
X11380000Y12160000D01*
X11380000Y12160000D01*
G37*
G36*
X45710000Y12160000D02*
X45020000Y12160000D01*
X45020000Y12440000D01*
X45710000Y12440000D01*
X45710000Y12160000D01*
X45710000Y12160000D01*
G37*
G36*
X53380000Y12160000D02*
X52690000Y12160000D01*
X52690000Y12440000D01*
X53380000Y12440000D01*
X53380000Y12160000D01*
X53380000Y12160000D01*
G37*
G36*
X24710000Y12160000D02*
X24020000Y12160000D01*
X24020000Y12440000D01*
X24710000Y12440000D01*
X24710000Y12160000D01*
X24710000Y12160000D01*
G37*
G36*
X32380000Y12160000D02*
X31690000Y12160000D01*
X31690000Y12440000D01*
X32380000Y12440000D01*
X32380000Y12160000D01*
X32380000Y12160000D01*
G37*
G36*
X3710000Y12160000D02*
X3020000Y12160000D01*
X3020000Y12440000D01*
X3710000Y12440000D01*
X3710000Y12160000D01*
X3710000Y12160000D01*
G37*
G36*
X10000000Y12250000D02*
X4400000Y12250000D01*
X4400000Y17850000D01*
X10000000Y17850000D01*
X10000000Y12250000D01*
X10000000Y12250000D01*
G37*
G36*
X31000000Y12250000D02*
X25400000Y12250000D01*
X25400000Y17850000D01*
X31000000Y17850000D01*
X31000000Y12250000D01*
X31000000Y12250000D01*
G37*
G36*
X52000000Y12250000D02*
X46400000Y12250000D01*
X46400000Y17850000D01*
X52000000Y17850000D01*
X52000000Y12250000D01*
X52000000Y12250000D01*
G37*
G36*
X45710000Y12660000D02*
X45020000Y12660000D01*
X45020000Y12940000D01*
X45710000Y12940000D01*
X45710000Y12660000D01*
X45710000Y12660000D01*
G37*
G36*
X3710000Y12660000D02*
X3020000Y12660000D01*
X3020000Y12940000D01*
X3710000Y12940000D01*
X3710000Y12660000D01*
X3710000Y12660000D01*
G37*
G36*
X32380000Y12660000D02*
X31690000Y12660000D01*
X31690000Y12940000D01*
X32380000Y12940000D01*
X32380000Y12660000D01*
X32380000Y12660000D01*
G37*
G36*
X53380000Y12660000D02*
X52690000Y12660000D01*
X52690000Y12940000D01*
X53380000Y12940000D01*
X53380000Y12660000D01*
X53380000Y12660000D01*
G37*
G36*
X11380000Y12660000D02*
X10690000Y12660000D01*
X10690000Y12940000D01*
X11380000Y12940000D01*
X11380000Y12660000D01*
X11380000Y12660000D01*
G37*
G36*
X24710000Y12660000D02*
X24020000Y12660000D01*
X24020000Y12940000D01*
X24710000Y12940000D01*
X24710000Y12660000D01*
X24710000Y12660000D01*
G37*
G36*
X45710000Y13160000D02*
X45020000Y13160000D01*
X45020000Y13440000D01*
X45710000Y13440000D01*
X45710000Y13160000D01*
X45710000Y13160000D01*
G37*
G36*
X24710000Y13160000D02*
X24020000Y13160000D01*
X24020000Y13440000D01*
X24710000Y13440000D01*
X24710000Y13160000D01*
X24710000Y13160000D01*
G37*
G36*
X32380000Y13160000D02*
X31690000Y13160000D01*
X31690000Y13440000D01*
X32380000Y13440000D01*
X32380000Y13160000D01*
X32380000Y13160000D01*
G37*
G36*
X53380000Y13160000D02*
X52690000Y13160000D01*
X52690000Y13440000D01*
X53380000Y13440000D01*
X53380000Y13160000D01*
X53380000Y13160000D01*
G37*
G36*
X3710000Y13160000D02*
X3020000Y13160000D01*
X3020000Y13440000D01*
X3710000Y13440000D01*
X3710000Y13160000D01*
X3710000Y13160000D01*
G37*
G36*
X11380000Y13160000D02*
X10690000Y13160000D01*
X10690000Y13440000D01*
X11380000Y13440000D01*
X11380000Y13160000D01*
X11380000Y13160000D01*
G37*
G36*
X2113946Y14320801D02*
X2151399Y14309440D01*
X2185914Y14290992D01*
X2216165Y14266165D01*
X2240992Y14235914D01*
X2259440Y14201399D01*
X2270801Y14163946D01*
X2275000Y14121314D01*
X2275000Y13478686D01*
X2270801Y13436054D01*
X2259440Y13398601D01*
X2240992Y13364086D01*
X2216165Y13333835D01*
X2185914Y13309008D01*
X2151399Y13290560D01*
X2113946Y13279199D01*
X2071314Y13275000D01*
X1528686Y13275000D01*
X1486054Y13279199D01*
X1448601Y13290560D01*
X1414086Y13309008D01*
X1383835Y13333835D01*
X1359008Y13364086D01*
X1340560Y13398601D01*
X1329199Y13436054D01*
X1325000Y13478686D01*
X1325000Y14121314D01*
X1329199Y14163946D01*
X1340560Y14201399D01*
X1359008Y14235914D01*
X1383835Y14266165D01*
X1414086Y14290992D01*
X1448601Y14309440D01*
X1486054Y14320801D01*
X1528686Y14325000D01*
X2071314Y14325000D01*
X2113946Y14320801D01*
X2113946Y14320801D01*
G37*
G36*
X42413946Y14270801D02*
X42451399Y14259440D01*
X42485914Y14240992D01*
X42516165Y14216165D01*
X42540992Y14185914D01*
X42559440Y14151399D01*
X42570801Y14113946D01*
X42575000Y14071314D01*
X42575000Y13528686D01*
X42570801Y13486054D01*
X42559440Y13448601D01*
X42540992Y13414086D01*
X42516165Y13383835D01*
X42485914Y13359008D01*
X42451399Y13340560D01*
X42413946Y13329199D01*
X42371314Y13325000D01*
X41728686Y13325000D01*
X41686054Y13329199D01*
X41648601Y13340560D01*
X41614086Y13359008D01*
X41583835Y13383835D01*
X41559008Y13414086D01*
X41540560Y13448601D01*
X41529199Y13486054D01*
X41525000Y13528686D01*
X41525000Y14071314D01*
X41529199Y14113946D01*
X41540560Y14151399D01*
X41559008Y14185914D01*
X41583835Y14216165D01*
X41614086Y14240992D01*
X41648601Y14259440D01*
X41686054Y14270801D01*
X41728686Y14275000D01*
X42371314Y14275000D01*
X42413946Y14270801D01*
X42413946Y14270801D01*
G37*
G36*
X23163946Y14270801D02*
X23201399Y14259440D01*
X23235914Y14240992D01*
X23266165Y14216165D01*
X23290992Y14185914D01*
X23309440Y14151399D01*
X23320801Y14113946D01*
X23325000Y14071314D01*
X23325000Y13528686D01*
X23320801Y13486054D01*
X23309440Y13448601D01*
X23290992Y13414086D01*
X23266165Y13383835D01*
X23235914Y13359008D01*
X23201399Y13340560D01*
X23163946Y13329199D01*
X23121314Y13325000D01*
X22478686Y13325000D01*
X22436054Y13329199D01*
X22398601Y13340560D01*
X22364086Y13359008D01*
X22333835Y13383835D01*
X22309008Y13414086D01*
X22290560Y13448601D01*
X22279199Y13486054D01*
X22275000Y13528686D01*
X22275000Y14071314D01*
X22279199Y14113946D01*
X22290560Y14151399D01*
X22309008Y14185914D01*
X22333835Y14216165D01*
X22364086Y14240992D01*
X22398601Y14259440D01*
X22436054Y14270801D01*
X22478686Y14275000D01*
X23121314Y14275000D01*
X23163946Y14270801D01*
X23163946Y14270801D01*
G37*
G36*
X21413946Y14270801D02*
X21451399Y14259440D01*
X21485914Y14240992D01*
X21516165Y14216165D01*
X21540992Y14185914D01*
X21559440Y14151399D01*
X21570801Y14113946D01*
X21575000Y14071314D01*
X21575000Y13528686D01*
X21570801Y13486054D01*
X21559440Y13448601D01*
X21540992Y13414086D01*
X21516165Y13383835D01*
X21485914Y13359008D01*
X21451399Y13340560D01*
X21413946Y13329199D01*
X21371314Y13325000D01*
X20728686Y13325000D01*
X20686054Y13329199D01*
X20648601Y13340560D01*
X20614086Y13359008D01*
X20583835Y13383835D01*
X20559008Y13414086D01*
X20540560Y13448601D01*
X20529199Y13486054D01*
X20525000Y13528686D01*
X20525000Y14071314D01*
X20529199Y14113946D01*
X20540560Y14151399D01*
X20559008Y14185914D01*
X20583835Y14216165D01*
X20614086Y14240992D01*
X20648601Y14259440D01*
X20686054Y14270801D01*
X20728686Y14275000D01*
X21371314Y14275000D01*
X21413946Y14270801D01*
X21413946Y14270801D01*
G37*
G36*
X44163946Y14270801D02*
X44201399Y14259440D01*
X44235914Y14240992D01*
X44266165Y14216165D01*
X44290992Y14185914D01*
X44309440Y14151399D01*
X44320801Y14113946D01*
X44325000Y14071314D01*
X44325000Y13528686D01*
X44320801Y13486054D01*
X44309440Y13448601D01*
X44290992Y13414086D01*
X44266165Y13383835D01*
X44235914Y13359008D01*
X44201399Y13340560D01*
X44163946Y13329199D01*
X44121314Y13325000D01*
X43478686Y13325000D01*
X43436054Y13329199D01*
X43398601Y13340560D01*
X43364086Y13359008D01*
X43333835Y13383835D01*
X43309008Y13414086D01*
X43290560Y13448601D01*
X43279199Y13486054D01*
X43275000Y13528686D01*
X43275000Y14071314D01*
X43279199Y14113946D01*
X43290560Y14151399D01*
X43309008Y14185914D01*
X43333835Y14216165D01*
X43364086Y14240992D01*
X43398601Y14259440D01*
X43436054Y14270801D01*
X43478686Y14275000D01*
X44121314Y14275000D01*
X44163946Y14270801D01*
X44163946Y14270801D01*
G37*
G36*
X32380000Y13660000D02*
X31690000Y13660000D01*
X31690000Y13940000D01*
X32380000Y13940000D01*
X32380000Y13660000D01*
X32380000Y13660000D01*
G37*
G36*
X11380000Y13660000D02*
X10690000Y13660000D01*
X10690000Y13940000D01*
X11380000Y13940000D01*
X11380000Y13660000D01*
X11380000Y13660000D01*
G37*
G36*
X45710000Y13660000D02*
X45020000Y13660000D01*
X45020000Y13940000D01*
X45710000Y13940000D01*
X45710000Y13660000D01*
X45710000Y13660000D01*
G37*
G36*
X53380000Y13660000D02*
X52690000Y13660000D01*
X52690000Y13940000D01*
X53380000Y13940000D01*
X53380000Y13660000D01*
X53380000Y13660000D01*
G37*
G36*
X24710000Y13660000D02*
X24020000Y13660000D01*
X24020000Y13940000D01*
X24710000Y13940000D01*
X24710000Y13660000D01*
X24710000Y13660000D01*
G37*
G36*
X3710000Y13660000D02*
X3020000Y13660000D01*
X3020000Y13940000D01*
X3710000Y13940000D01*
X3710000Y13660000D01*
X3710000Y13660000D01*
G37*
G36*
X3710000Y14160000D02*
X3020000Y14160000D01*
X3020000Y14440000D01*
X3710000Y14440000D01*
X3710000Y14160000D01*
X3710000Y14160000D01*
G37*
G36*
X24710000Y14160000D02*
X24020000Y14160000D01*
X24020000Y14440000D01*
X24710000Y14440000D01*
X24710000Y14160000D01*
X24710000Y14160000D01*
G37*
G36*
X45710000Y14160000D02*
X45020000Y14160000D01*
X45020000Y14440000D01*
X45710000Y14440000D01*
X45710000Y14160000D01*
X45710000Y14160000D01*
G37*
G36*
X53380000Y14160000D02*
X52690000Y14160000D01*
X52690000Y14440000D01*
X53380000Y14440000D01*
X53380000Y14160000D01*
X53380000Y14160000D01*
G37*
G36*
X32380000Y14160000D02*
X31690000Y14160000D01*
X31690000Y14440000D01*
X32380000Y14440000D01*
X32380000Y14160000D01*
X32380000Y14160000D01*
G37*
G36*
X11380000Y14160000D02*
X10690000Y14160000D01*
X10690000Y14440000D01*
X11380000Y14440000D01*
X11380000Y14160000D01*
X11380000Y14160000D01*
G37*
G36*
X24710000Y14660000D02*
X24020000Y14660000D01*
X24020000Y14940000D01*
X24710000Y14940000D01*
X24710000Y14660000D01*
X24710000Y14660000D01*
G37*
G36*
X32380000Y14660000D02*
X31690000Y14660000D01*
X31690000Y14940000D01*
X32380000Y14940000D01*
X32380000Y14660000D01*
X32380000Y14660000D01*
G37*
G36*
X53380000Y14660000D02*
X52690000Y14660000D01*
X52690000Y14940000D01*
X53380000Y14940000D01*
X53380000Y14660000D01*
X53380000Y14660000D01*
G37*
G36*
X45710000Y14660000D02*
X45020000Y14660000D01*
X45020000Y14940000D01*
X45710000Y14940000D01*
X45710000Y14660000D01*
X45710000Y14660000D01*
G37*
G36*
X11380000Y14660000D02*
X10690000Y14660000D01*
X10690000Y14940000D01*
X11380000Y14940000D01*
X11380000Y14660000D01*
X11380000Y14660000D01*
G37*
G36*
X3710000Y14660000D02*
X3020000Y14660000D01*
X3020000Y14940000D01*
X3710000Y14940000D01*
X3710000Y14660000D01*
X3710000Y14660000D01*
G37*
G36*
X2113946Y16070801D02*
X2151399Y16059440D01*
X2185914Y16040992D01*
X2216165Y16016165D01*
X2240992Y15985914D01*
X2259440Y15951399D01*
X2270801Y15913946D01*
X2275000Y15871314D01*
X2275000Y15228686D01*
X2270801Y15186054D01*
X2259440Y15148601D01*
X2240992Y15114086D01*
X2216165Y15083835D01*
X2185914Y15059008D01*
X2151399Y15040560D01*
X2113946Y15029199D01*
X2071314Y15025000D01*
X1528686Y15025000D01*
X1486054Y15029199D01*
X1448601Y15040560D01*
X1414086Y15059008D01*
X1383835Y15083835D01*
X1359008Y15114086D01*
X1340560Y15148601D01*
X1329199Y15186054D01*
X1325000Y15228686D01*
X1325000Y15871314D01*
X1329199Y15913946D01*
X1340560Y15951399D01*
X1359008Y15985914D01*
X1383835Y16016165D01*
X1414086Y16040992D01*
X1448601Y16059440D01*
X1486054Y16070801D01*
X1528686Y16075000D01*
X2071314Y16075000D01*
X2113946Y16070801D01*
X2113946Y16070801D01*
G37*
G36*
X53380000Y15160000D02*
X52690000Y15160000D01*
X52690000Y15440000D01*
X53380000Y15440000D01*
X53380000Y15160000D01*
X53380000Y15160000D01*
G37*
G36*
X3710000Y15160000D02*
X3020000Y15160000D01*
X3020000Y15440000D01*
X3710000Y15440000D01*
X3710000Y15160000D01*
X3710000Y15160000D01*
G37*
G36*
X24710000Y15160000D02*
X24020000Y15160000D01*
X24020000Y15440000D01*
X24710000Y15440000D01*
X24710000Y15160000D01*
X24710000Y15160000D01*
G37*
G36*
X45710000Y15160000D02*
X45020000Y15160000D01*
X45020000Y15440000D01*
X45710000Y15440000D01*
X45710000Y15160000D01*
X45710000Y15160000D01*
G37*
G36*
X32380000Y15160000D02*
X31690000Y15160000D01*
X31690000Y15440000D01*
X32380000Y15440000D01*
X32380000Y15160000D01*
X32380000Y15160000D01*
G37*
G36*
X11380000Y15160000D02*
X10690000Y15160000D01*
X10690000Y15440000D01*
X11380000Y15440000D01*
X11380000Y15160000D01*
X11380000Y15160000D01*
G37*
G36*
X32380000Y15660000D02*
X31690000Y15660000D01*
X31690000Y15940000D01*
X32380000Y15940000D01*
X32380000Y15660000D01*
X32380000Y15660000D01*
G37*
G36*
X24710000Y15660000D02*
X24020000Y15660000D01*
X24020000Y15940000D01*
X24710000Y15940000D01*
X24710000Y15660000D01*
X24710000Y15660000D01*
G37*
G36*
X3710000Y15660000D02*
X3020000Y15660000D01*
X3020000Y15940000D01*
X3710000Y15940000D01*
X3710000Y15660000D01*
X3710000Y15660000D01*
G37*
G36*
X53380000Y15660000D02*
X52690000Y15660000D01*
X52690000Y15940000D01*
X53380000Y15940000D01*
X53380000Y15660000D01*
X53380000Y15660000D01*
G37*
G36*
X11380000Y15660000D02*
X10690000Y15660000D01*
X10690000Y15940000D01*
X11380000Y15940000D01*
X11380000Y15660000D01*
X11380000Y15660000D01*
G37*
G36*
X45710000Y15660000D02*
X45020000Y15660000D01*
X45020000Y15940000D01*
X45710000Y15940000D01*
X45710000Y15660000D01*
X45710000Y15660000D01*
G37*
G36*
X11380000Y16160000D02*
X10690000Y16160000D01*
X10690000Y16440000D01*
X11380000Y16440000D01*
X11380000Y16160000D01*
X11380000Y16160000D01*
G37*
G36*
X53380000Y16160000D02*
X52690000Y16160000D01*
X52690000Y16440000D01*
X53380000Y16440000D01*
X53380000Y16160000D01*
X53380000Y16160000D01*
G37*
G36*
X45710000Y16160000D02*
X45020000Y16160000D01*
X45020000Y16440000D01*
X45710000Y16440000D01*
X45710000Y16160000D01*
X45710000Y16160000D01*
G37*
G36*
X32380000Y16160000D02*
X31690000Y16160000D01*
X31690000Y16440000D01*
X32380000Y16440000D01*
X32380000Y16160000D01*
X32380000Y16160000D01*
G37*
G36*
X3710000Y16160000D02*
X3020000Y16160000D01*
X3020000Y16440000D01*
X3710000Y16440000D01*
X3710000Y16160000D01*
X3710000Y16160000D01*
G37*
G36*
X24710000Y16160000D02*
X24020000Y16160000D01*
X24020000Y16440000D01*
X24710000Y16440000D01*
X24710000Y16160000D01*
X24710000Y16160000D01*
G37*
G36*
X45710000Y16660000D02*
X45020000Y16660000D01*
X45020000Y16940000D01*
X45710000Y16940000D01*
X45710000Y16660000D01*
X45710000Y16660000D01*
G37*
G36*
X32380000Y16660000D02*
X31690000Y16660000D01*
X31690000Y16940000D01*
X32380000Y16940000D01*
X32380000Y16660000D01*
X32380000Y16660000D01*
G37*
G36*
X24710000Y16660000D02*
X24020000Y16660000D01*
X24020000Y16940000D01*
X24710000Y16940000D01*
X24710000Y16660000D01*
X24710000Y16660000D01*
G37*
G36*
X11380000Y16660000D02*
X10690000Y16660000D01*
X10690000Y16940000D01*
X11380000Y16940000D01*
X11380000Y16660000D01*
X11380000Y16660000D01*
G37*
G36*
X53380000Y16660000D02*
X52690000Y16660000D01*
X52690000Y16940000D01*
X53380000Y16940000D01*
X53380000Y16660000D01*
X53380000Y16660000D01*
G37*
G36*
X3710000Y16660000D02*
X3020000Y16660000D01*
X3020000Y16940000D01*
X3710000Y16940000D01*
X3710000Y16660000D01*
X3710000Y16660000D01*
G37*
G36*
X24710000Y17160000D02*
X24020000Y17160000D01*
X24020000Y17440000D01*
X24710000Y17440000D01*
X24710000Y17160000D01*
X24710000Y17160000D01*
G37*
G36*
X3710000Y17160000D02*
X3020000Y17160000D01*
X3020000Y17440000D01*
X3710000Y17440000D01*
X3710000Y17160000D01*
X3710000Y17160000D01*
G37*
G36*
X11380000Y17160000D02*
X10690000Y17160000D01*
X10690000Y17440000D01*
X11380000Y17440000D01*
X11380000Y17160000D01*
X11380000Y17160000D01*
G37*
G36*
X53380000Y17160000D02*
X52690000Y17160000D01*
X52690000Y17440000D01*
X53380000Y17440000D01*
X53380000Y17160000D01*
X53380000Y17160000D01*
G37*
G36*
X45710000Y17160000D02*
X45020000Y17160000D01*
X45020000Y17440000D01*
X45710000Y17440000D01*
X45710000Y17160000D01*
X45710000Y17160000D01*
G37*
G36*
X32380000Y17160000D02*
X31690000Y17160000D01*
X31690000Y17440000D01*
X32380000Y17440000D01*
X32380000Y17160000D01*
X32380000Y17160000D01*
G37*
G36*
X3710000Y17660000D02*
X3020000Y17660000D01*
X3020000Y17940000D01*
X3710000Y17940000D01*
X3710000Y17660000D01*
X3710000Y17660000D01*
G37*
G36*
X11380000Y17660000D02*
X10690000Y17660000D01*
X10690000Y17940000D01*
X11380000Y17940000D01*
X11380000Y17660000D01*
X11380000Y17660000D01*
G37*
G36*
X24710000Y17660000D02*
X24020000Y17660000D01*
X24020000Y17940000D01*
X24710000Y17940000D01*
X24710000Y17660000D01*
X24710000Y17660000D01*
G37*
G36*
X32380000Y17660000D02*
X31690000Y17660000D01*
X31690000Y17940000D01*
X32380000Y17940000D01*
X32380000Y17660000D01*
X32380000Y17660000D01*
G37*
G36*
X53380000Y17660000D02*
X52690000Y17660000D01*
X52690000Y17940000D01*
X53380000Y17940000D01*
X53380000Y17660000D01*
X53380000Y17660000D01*
G37*
G36*
X45710000Y17660000D02*
X45020000Y17660000D01*
X45020000Y17940000D01*
X45710000Y17940000D01*
X45710000Y17660000D01*
X45710000Y17660000D01*
G37*
G36*
X45710000Y18160000D02*
X45020000Y18160000D01*
X45020000Y18440000D01*
X45710000Y18440000D01*
X45710000Y18160000D01*
X45710000Y18160000D01*
G37*
G36*
X53380000Y18160000D02*
X52690000Y18160000D01*
X52690000Y18440000D01*
X53380000Y18440000D01*
X53380000Y18160000D01*
X53380000Y18160000D01*
G37*
G36*
X24710000Y18160000D02*
X24020000Y18160000D01*
X24020000Y18440000D01*
X24710000Y18440000D01*
X24710000Y18160000D01*
X24710000Y18160000D01*
G37*
G36*
X11380000Y18160000D02*
X10690000Y18160000D01*
X10690000Y18440000D01*
X11380000Y18440000D01*
X11380000Y18160000D01*
X11380000Y18160000D01*
G37*
G36*
X32380000Y18160000D02*
X31690000Y18160000D01*
X31690000Y18440000D01*
X32380000Y18440000D01*
X32380000Y18160000D01*
X32380000Y18160000D01*
G37*
G36*
X3710000Y18160000D02*
X3020000Y18160000D01*
X3020000Y18440000D01*
X3710000Y18440000D01*
X3710000Y18160000D01*
X3710000Y18160000D01*
G37*
G36*
X9590000Y18540000D02*
X9310000Y18540000D01*
X9310000Y19230000D01*
X9590000Y19230000D01*
X9590000Y18540000D01*
X9590000Y18540000D01*
G37*
G36*
X48090000Y18540000D02*
X47810000Y18540000D01*
X47810000Y19230000D01*
X48090000Y19230000D01*
X48090000Y18540000D01*
X48090000Y18540000D01*
G37*
G36*
X9090000Y18540000D02*
X8810000Y18540000D01*
X8810000Y19230000D01*
X9090000Y19230000D01*
X9090000Y18540000D01*
X9090000Y18540000D01*
G37*
G36*
X8590000Y18540000D02*
X8310000Y18540000D01*
X8310000Y19230000D01*
X8590000Y19230000D01*
X8590000Y18540000D01*
X8590000Y18540000D01*
G37*
G36*
X8090000Y18540000D02*
X7810000Y18540000D01*
X7810000Y19230000D01*
X8090000Y19230000D01*
X8090000Y18540000D01*
X8090000Y18540000D01*
G37*
G36*
X7590000Y18540000D02*
X7310000Y18540000D01*
X7310000Y19230000D01*
X7590000Y19230000D01*
X7590000Y18540000D01*
X7590000Y18540000D01*
G37*
G36*
X7090000Y18540000D02*
X6810000Y18540000D01*
X6810000Y19230000D01*
X7090000Y19230000D01*
X7090000Y18540000D01*
X7090000Y18540000D01*
G37*
G36*
X6590000Y18540000D02*
X6310000Y18540000D01*
X6310000Y19230000D01*
X6590000Y19230000D01*
X6590000Y18540000D01*
X6590000Y18540000D01*
G37*
G36*
X6090000Y18540000D02*
X5810000Y18540000D01*
X5810000Y19230000D01*
X6090000Y19230000D01*
X6090000Y18540000D01*
X6090000Y18540000D01*
G37*
G36*
X27590000Y18540000D02*
X27310000Y18540000D01*
X27310000Y19230000D01*
X27590000Y19230000D01*
X27590000Y18540000D01*
X27590000Y18540000D01*
G37*
G36*
X5090000Y18540000D02*
X4810000Y18540000D01*
X4810000Y19230000D01*
X5090000Y19230000D01*
X5090000Y18540000D01*
X5090000Y18540000D01*
G37*
G36*
X4590000Y18540000D02*
X4310000Y18540000D01*
X4310000Y19230000D01*
X4590000Y19230000D01*
X4590000Y18540000D01*
X4590000Y18540000D01*
G37*
G36*
X4090000Y18540000D02*
X3810000Y18540000D01*
X3810000Y19230000D01*
X4090000Y19230000D01*
X4090000Y18540000D01*
X4090000Y18540000D01*
G37*
G36*
X31590000Y18540000D02*
X31310000Y18540000D01*
X31310000Y19230000D01*
X31590000Y19230000D01*
X31590000Y18540000D01*
X31590000Y18540000D01*
G37*
G36*
X31090000Y18540000D02*
X30810000Y18540000D01*
X30810000Y19230000D01*
X31090000Y19230000D01*
X31090000Y18540000D01*
X31090000Y18540000D01*
G37*
G36*
X30590000Y18540000D02*
X30310000Y18540000D01*
X30310000Y19230000D01*
X30590000Y19230000D01*
X30590000Y18540000D01*
X30590000Y18540000D01*
G37*
G36*
X30090000Y18540000D02*
X29810000Y18540000D01*
X29810000Y19230000D01*
X30090000Y19230000D01*
X30090000Y18540000D01*
X30090000Y18540000D01*
G37*
G36*
X29590000Y18540000D02*
X29310000Y18540000D01*
X29310000Y19230000D01*
X29590000Y19230000D01*
X29590000Y18540000D01*
X29590000Y18540000D01*
G37*
G36*
X29090000Y18540000D02*
X28810000Y18540000D01*
X28810000Y19230000D01*
X29090000Y19230000D01*
X29090000Y18540000D01*
X29090000Y18540000D01*
G37*
G36*
X28590000Y18540000D02*
X28310000Y18540000D01*
X28310000Y19230000D01*
X28590000Y19230000D01*
X28590000Y18540000D01*
X28590000Y18540000D01*
G37*
G36*
X28090000Y18540000D02*
X27810000Y18540000D01*
X27810000Y19230000D01*
X28090000Y19230000D01*
X28090000Y18540000D01*
X28090000Y18540000D01*
G37*
G36*
X51590000Y18540000D02*
X51310000Y18540000D01*
X51310000Y19230000D01*
X51590000Y19230000D01*
X51590000Y18540000D01*
X51590000Y18540000D01*
G37*
G36*
X47590000Y18540000D02*
X47310000Y18540000D01*
X47310000Y19230000D01*
X47590000Y19230000D01*
X47590000Y18540000D01*
X47590000Y18540000D01*
G37*
G36*
X49090000Y18540000D02*
X48810000Y18540000D01*
X48810000Y19230000D01*
X49090000Y19230000D01*
X49090000Y18540000D01*
X49090000Y18540000D01*
G37*
G36*
X26590000Y18540000D02*
X26310000Y18540000D01*
X26310000Y19230000D01*
X26590000Y19230000D01*
X26590000Y18540000D01*
X26590000Y18540000D01*
G37*
G36*
X26090000Y18540000D02*
X25810000Y18540000D01*
X25810000Y19230000D01*
X26090000Y19230000D01*
X26090000Y18540000D01*
X26090000Y18540000D01*
G37*
G36*
X25590000Y18540000D02*
X25310000Y18540000D01*
X25310000Y19230000D01*
X25590000Y19230000D01*
X25590000Y18540000D01*
X25590000Y18540000D01*
G37*
G36*
X25090000Y18540000D02*
X24810000Y18540000D01*
X24810000Y19230000D01*
X25090000Y19230000D01*
X25090000Y18540000D01*
X25090000Y18540000D01*
G37*
G36*
X48590000Y18540000D02*
X48310000Y18540000D01*
X48310000Y19230000D01*
X48590000Y19230000D01*
X48590000Y18540000D01*
X48590000Y18540000D01*
G37*
G36*
X27090000Y18540000D02*
X26810000Y18540000D01*
X26810000Y19230000D01*
X27090000Y19230000D01*
X27090000Y18540000D01*
X27090000Y18540000D01*
G37*
G36*
X52590000Y18540000D02*
X52310000Y18540000D01*
X52310000Y19230000D01*
X52590000Y19230000D01*
X52590000Y18540000D01*
X52590000Y18540000D01*
G37*
G36*
X52090000Y18540000D02*
X51810000Y18540000D01*
X51810000Y19230000D01*
X52090000Y19230000D01*
X52090000Y18540000D01*
X52090000Y18540000D01*
G37*
G36*
X47090000Y18540000D02*
X46810000Y18540000D01*
X46810000Y19230000D01*
X47090000Y19230000D01*
X47090000Y18540000D01*
X47090000Y18540000D01*
G37*
G36*
X46590000Y18540000D02*
X46310000Y18540000D01*
X46310000Y19230000D01*
X46590000Y19230000D01*
X46590000Y18540000D01*
X46590000Y18540000D01*
G37*
G36*
X46090000Y18540000D02*
X45810000Y18540000D01*
X45810000Y19230000D01*
X46090000Y19230000D01*
X46090000Y18540000D01*
X46090000Y18540000D01*
G37*
G36*
X51090000Y18540000D02*
X50810000Y18540000D01*
X50810000Y19230000D01*
X51090000Y19230000D01*
X51090000Y18540000D01*
X51090000Y18540000D01*
G37*
G36*
X50590000Y18540000D02*
X50310000Y18540000D01*
X50310000Y19230000D01*
X50590000Y19230000D01*
X50590000Y18540000D01*
X50590000Y18540000D01*
G37*
G36*
X50090000Y18540000D02*
X49810000Y18540000D01*
X49810000Y19230000D01*
X50090000Y19230000D01*
X50090000Y18540000D01*
X50090000Y18540000D01*
G37*
G36*
X49590000Y18540000D02*
X49310000Y18540000D01*
X49310000Y19230000D01*
X49590000Y19230000D01*
X49590000Y18540000D01*
X49590000Y18540000D01*
G37*
G36*
X5590000Y18540000D02*
X5310000Y18540000D01*
X5310000Y19230000D01*
X5590000Y19230000D01*
X5590000Y18540000D01*
X5590000Y18540000D01*
G37*
G36*
X10090000Y18540000D02*
X9810000Y18540000D01*
X9810000Y19230000D01*
X10090000Y19230000D01*
X10090000Y18540000D01*
X10090000Y18540000D01*
G37*
G36*
X10590000Y18540000D02*
X10310000Y18540000D01*
X10310000Y19230000D01*
X10590000Y19230000D01*
X10590000Y18540000D01*
X10590000Y18540000D01*
G37*
G36*
X4950000Y20200000D02*
X4150000Y20200000D01*
X4150000Y20600000D01*
X4950000Y20600000D01*
X4950000Y20200000D01*
X4950000Y20200000D01*
G37*
G36*
X2450000Y21250000D02*
X1650000Y21250000D01*
X1650000Y21550000D01*
X2450000Y21550000D01*
X2450000Y21250000D01*
X2450000Y21250000D01*
G37*
G36*
X2450000Y21750000D02*
X1650000Y21750000D01*
X1650000Y22050000D01*
X2450000Y22050000D01*
X2450000Y21750000D01*
X2450000Y21750000D01*
G37*
G36*
X2450000Y22250000D02*
X1650000Y22250000D01*
X1650000Y22550000D01*
X2450000Y22550000D01*
X2450000Y22250000D01*
X2450000Y22250000D01*
G37*
G36*
X2450000Y22750000D02*
X1650000Y22750000D01*
X1650000Y23050000D01*
X2450000Y23050000D01*
X2450000Y22750000D01*
X2450000Y22750000D01*
G37*
G36*
X2450000Y23250000D02*
X1650000Y23250000D01*
X1650000Y23550000D01*
X2450000Y23550000D01*
X2450000Y23250000D01*
X2450000Y23250000D01*
G37*
G36*
X2450000Y23750000D02*
X1650000Y23750000D01*
X1650000Y24050000D01*
X2450000Y24050000D01*
X2450000Y23750000D01*
X2450000Y23750000D01*
G37*
G36*
X2450000Y24250000D02*
X1650000Y24250000D01*
X1650000Y24550000D01*
X2450000Y24550000D01*
X2450000Y24250000D01*
X2450000Y24250000D01*
G37*
G36*
X2450000Y24750000D02*
X1650000Y24750000D01*
X1650000Y25050000D01*
X2450000Y25050000D01*
X2450000Y24750000D01*
X2450000Y24750000D01*
G37*
G36*
X18590000Y24870000D02*
X18310000Y24870000D01*
X18310000Y25560000D01*
X18590000Y25560000D01*
X18590000Y24870000D01*
X18590000Y24870000D01*
G37*
G36*
X39090000Y24870000D02*
X38810000Y24870000D01*
X38810000Y25560000D01*
X39090000Y25560000D01*
X39090000Y24870000D01*
X39090000Y24870000D01*
G37*
G36*
X37090000Y24870000D02*
X36810000Y24870000D01*
X36810000Y25560000D01*
X37090000Y25560000D01*
X37090000Y24870000D01*
X37090000Y24870000D01*
G37*
G36*
X42090000Y24870000D02*
X41810000Y24870000D01*
X41810000Y25560000D01*
X42090000Y25560000D01*
X42090000Y24870000D01*
X42090000Y24870000D01*
G37*
G36*
X41590000Y24870000D02*
X41310000Y24870000D01*
X41310000Y25560000D01*
X41590000Y25560000D01*
X41590000Y24870000D01*
X41590000Y24870000D01*
G37*
G36*
X41090000Y24870000D02*
X40810000Y24870000D01*
X40810000Y25560000D01*
X41090000Y25560000D01*
X41090000Y24870000D01*
X41090000Y24870000D01*
G37*
G36*
X40590000Y24870000D02*
X40310000Y24870000D01*
X40310000Y25560000D01*
X40590000Y25560000D01*
X40590000Y24870000D01*
X40590000Y24870000D01*
G37*
G36*
X40090000Y24870000D02*
X39810000Y24870000D01*
X39810000Y25560000D01*
X40090000Y25560000D01*
X40090000Y24870000D01*
X40090000Y24870000D01*
G37*
G36*
X39590000Y24870000D02*
X39310000Y24870000D01*
X39310000Y25560000D01*
X39590000Y25560000D01*
X39590000Y24870000D01*
X39590000Y24870000D01*
G37*
G36*
X38590000Y24870000D02*
X38310000Y24870000D01*
X38310000Y25560000D01*
X38590000Y25560000D01*
X38590000Y24870000D01*
X38590000Y24870000D01*
G37*
G36*
X38090000Y24870000D02*
X37810000Y24870000D01*
X37810000Y25560000D01*
X38090000Y25560000D01*
X38090000Y24870000D01*
X38090000Y24870000D01*
G37*
G36*
X18090000Y24870000D02*
X17810000Y24870000D01*
X17810000Y25560000D01*
X18090000Y25560000D01*
X18090000Y24870000D01*
X18090000Y24870000D01*
G37*
G36*
X37590000Y24870000D02*
X37310000Y24870000D01*
X37310000Y25560000D01*
X37590000Y25560000D01*
X37590000Y24870000D01*
X37590000Y24870000D01*
G37*
G36*
X36590000Y24870000D02*
X36310000Y24870000D01*
X36310000Y25560000D01*
X36590000Y25560000D01*
X36590000Y24870000D01*
X36590000Y24870000D01*
G37*
G36*
X19590000Y24870000D02*
X19310000Y24870000D01*
X19310000Y25560000D01*
X19590000Y25560000D01*
X19590000Y24870000D01*
X19590000Y24870000D01*
G37*
G36*
X19090000Y24870000D02*
X18810000Y24870000D01*
X18810000Y25560000D01*
X19090000Y25560000D01*
X19090000Y24870000D01*
X19090000Y24870000D01*
G37*
G36*
X17090000Y24870000D02*
X16810000Y24870000D01*
X16810000Y25560000D01*
X17090000Y25560000D01*
X17090000Y24870000D01*
X17090000Y24870000D01*
G37*
G36*
X14590000Y24870000D02*
X14310000Y24870000D01*
X14310000Y25560000D01*
X14590000Y25560000D01*
X14590000Y24870000D01*
X14590000Y24870000D01*
G37*
G36*
X17590000Y24870000D02*
X17310000Y24870000D01*
X17310000Y25560000D01*
X17590000Y25560000D01*
X17590000Y24870000D01*
X17590000Y24870000D01*
G37*
G36*
X16090000Y24870000D02*
X15810000Y24870000D01*
X15810000Y25560000D01*
X16090000Y25560000D01*
X16090000Y24870000D01*
X16090000Y24870000D01*
G37*
G36*
X16590000Y24870000D02*
X16310000Y24870000D01*
X16310000Y25560000D01*
X16590000Y25560000D01*
X16590000Y24870000D01*
X16590000Y24870000D01*
G37*
G36*
X15590000Y24870000D02*
X15310000Y24870000D01*
X15310000Y25560000D01*
X15590000Y25560000D01*
X15590000Y24870000D01*
X15590000Y24870000D01*
G37*
G36*
X15090000Y24870000D02*
X14810000Y24870000D01*
X14810000Y25560000D01*
X15090000Y25560000D01*
X15090000Y24870000D01*
X15090000Y24870000D01*
G37*
G36*
X20590000Y24870000D02*
X20310000Y24870000D01*
X20310000Y25560000D01*
X20590000Y25560000D01*
X20590000Y24870000D01*
X20590000Y24870000D01*
G37*
G36*
X21090000Y24870000D02*
X20810000Y24870000D01*
X20810000Y25560000D01*
X21090000Y25560000D01*
X21090000Y24870000D01*
X21090000Y24870000D01*
G37*
G36*
X35590000Y24870000D02*
X35310000Y24870000D01*
X35310000Y25560000D01*
X35590000Y25560000D01*
X35590000Y24870000D01*
X35590000Y24870000D01*
G37*
G36*
X36090000Y24870000D02*
X35810000Y24870000D01*
X35810000Y25560000D01*
X36090000Y25560000D01*
X36090000Y24870000D01*
X36090000Y24870000D01*
G37*
G36*
X20090000Y24870000D02*
X19810000Y24870000D01*
X19810000Y25560000D01*
X20090000Y25560000D01*
X20090000Y24870000D01*
X20090000Y24870000D01*
G37*
G36*
X2450000Y25250000D02*
X1650000Y25250000D01*
X1650000Y25550000D01*
X2450000Y25550000D01*
X2450000Y25250000D01*
X2450000Y25250000D01*
G37*
G36*
X42880000Y25660000D02*
X42190000Y25660000D01*
X42190000Y25940000D01*
X42880000Y25940000D01*
X42880000Y25660000D01*
X42880000Y25660000D01*
G37*
G36*
X35210000Y25660000D02*
X34520000Y25660000D01*
X34520000Y25940000D01*
X35210000Y25940000D01*
X35210000Y25660000D01*
X35210000Y25660000D01*
G37*
G36*
X21880000Y25660000D02*
X21190000Y25660000D01*
X21190000Y25940000D01*
X21880000Y25940000D01*
X21880000Y25660000D01*
X21880000Y25660000D01*
G37*
G36*
X14210000Y25660000D02*
X13520000Y25660000D01*
X13520000Y25940000D01*
X14210000Y25940000D01*
X14210000Y25660000D01*
X14210000Y25660000D01*
G37*
G36*
X2450000Y25750000D02*
X1650000Y25750000D01*
X1650000Y26050000D01*
X2450000Y26050000D01*
X2450000Y25750000D01*
X2450000Y25750000D01*
G37*
G36*
X42880000Y26160000D02*
X42190000Y26160000D01*
X42190000Y26440000D01*
X42880000Y26440000D01*
X42880000Y26160000D01*
X42880000Y26160000D01*
G37*
G36*
X35210000Y26160000D02*
X34520000Y26160000D01*
X34520000Y26440000D01*
X35210000Y26440000D01*
X35210000Y26160000D01*
X35210000Y26160000D01*
G37*
G36*
X21880000Y26160000D02*
X21190000Y26160000D01*
X21190000Y26440000D01*
X21880000Y26440000D01*
X21880000Y26160000D01*
X21880000Y26160000D01*
G37*
G36*
X14210000Y26160000D02*
X13520000Y26160000D01*
X13520000Y26440000D01*
X14210000Y26440000D01*
X14210000Y26160000D01*
X14210000Y26160000D01*
G37*
G36*
X2450000Y26250000D02*
X1650000Y26250000D01*
X1650000Y26550000D01*
X2450000Y26550000D01*
X2450000Y26250000D01*
X2450000Y26250000D01*
G37*
G36*
X41500000Y26250000D02*
X35900000Y26250000D01*
X35900000Y31850000D01*
X41500000Y31850000D01*
X41500000Y26250000D01*
X41500000Y26250000D01*
G37*
G36*
X20500000Y26250000D02*
X14900000Y26250000D01*
X14900000Y31850000D01*
X20500000Y31850000D01*
X20500000Y26250000D01*
X20500000Y26250000D01*
G37*
G36*
X42880000Y26660000D02*
X42190000Y26660000D01*
X42190000Y26940000D01*
X42880000Y26940000D01*
X42880000Y26660000D01*
X42880000Y26660000D01*
G37*
G36*
X14210000Y26660000D02*
X13520000Y26660000D01*
X13520000Y26940000D01*
X14210000Y26940000D01*
X14210000Y26660000D01*
X14210000Y26660000D01*
G37*
G36*
X21880000Y26660000D02*
X21190000Y26660000D01*
X21190000Y26940000D01*
X21880000Y26940000D01*
X21880000Y26660000D01*
X21880000Y26660000D01*
G37*
G36*
X35210000Y26660000D02*
X34520000Y26660000D01*
X34520000Y26940000D01*
X35210000Y26940000D01*
X35210000Y26660000D01*
X35210000Y26660000D01*
G37*
G36*
X2450000Y26750000D02*
X1650000Y26750000D01*
X1650000Y27050000D01*
X2450000Y27050000D01*
X2450000Y26750000D01*
X2450000Y26750000D01*
G37*
G36*
X42880000Y27160000D02*
X42190000Y27160000D01*
X42190000Y27440000D01*
X42880000Y27440000D01*
X42880000Y27160000D01*
X42880000Y27160000D01*
G37*
G36*
X35210000Y27160000D02*
X34520000Y27160000D01*
X34520000Y27440000D01*
X35210000Y27440000D01*
X35210000Y27160000D01*
X35210000Y27160000D01*
G37*
G36*
X14210000Y27160000D02*
X13520000Y27160000D01*
X13520000Y27440000D01*
X14210000Y27440000D01*
X14210000Y27160000D01*
X14210000Y27160000D01*
G37*
G36*
X21880000Y27160000D02*
X21190000Y27160000D01*
X21190000Y27440000D01*
X21880000Y27440000D01*
X21880000Y27160000D01*
X21880000Y27160000D01*
G37*
G36*
X2450000Y27250000D02*
X1650000Y27250000D01*
X1650000Y27550000D01*
X2450000Y27550000D01*
X2450000Y27250000D01*
X2450000Y27250000D01*
G37*
G36*
X31913946Y28270801D02*
X31951399Y28259440D01*
X31985914Y28240992D01*
X32016165Y28216165D01*
X32040992Y28185914D01*
X32059440Y28151399D01*
X32070801Y28113946D01*
X32075000Y28071314D01*
X32075000Y27528686D01*
X32070801Y27486054D01*
X32059440Y27448601D01*
X32040992Y27414086D01*
X32016165Y27383835D01*
X31985914Y27359008D01*
X31951399Y27340560D01*
X31913946Y27329199D01*
X31871314Y27325000D01*
X31228686Y27325000D01*
X31186054Y27329199D01*
X31148601Y27340560D01*
X31114086Y27359008D01*
X31083835Y27383835D01*
X31059008Y27414086D01*
X31040560Y27448601D01*
X31029199Y27486054D01*
X31025000Y27528686D01*
X31025000Y28071314D01*
X31029199Y28113946D01*
X31040560Y28151399D01*
X31059008Y28185914D01*
X31083835Y28216165D01*
X31114086Y28240992D01*
X31148601Y28259440D01*
X31186054Y28270801D01*
X31228686Y28275000D01*
X31871314Y28275000D01*
X31913946Y28270801D01*
X31913946Y28270801D01*
G37*
G36*
X10913946Y28270801D02*
X10951399Y28259440D01*
X10985914Y28240992D01*
X11016165Y28216165D01*
X11040992Y28185914D01*
X11059440Y28151399D01*
X11070801Y28113946D01*
X11075000Y28071314D01*
X11075000Y27528686D01*
X11070801Y27486054D01*
X11059440Y27448601D01*
X11040992Y27414086D01*
X11016165Y27383835D01*
X10985914Y27359008D01*
X10951399Y27340560D01*
X10913946Y27329199D01*
X10871314Y27325000D01*
X10228686Y27325000D01*
X10186054Y27329199D01*
X10148601Y27340560D01*
X10114086Y27359008D01*
X10083835Y27383835D01*
X10059008Y27414086D01*
X10040560Y27448601D01*
X10029199Y27486054D01*
X10025000Y27528686D01*
X10025000Y28071314D01*
X10029199Y28113946D01*
X10040560Y28151399D01*
X10059008Y28185914D01*
X10083835Y28216165D01*
X10114086Y28240992D01*
X10148601Y28259440D01*
X10186054Y28270801D01*
X10228686Y28275000D01*
X10871314Y28275000D01*
X10913946Y28270801D01*
X10913946Y28270801D01*
G37*
G36*
X12663946Y28270801D02*
X12701399Y28259440D01*
X12735914Y28240992D01*
X12766165Y28216165D01*
X12790992Y28185914D01*
X12809440Y28151399D01*
X12820801Y28113946D01*
X12825000Y28071314D01*
X12825000Y27528686D01*
X12820801Y27486054D01*
X12809440Y27448601D01*
X12790992Y27414086D01*
X12766165Y27383835D01*
X12735914Y27359008D01*
X12701399Y27340560D01*
X12663946Y27329199D01*
X12621314Y27325000D01*
X11978686Y27325000D01*
X11936054Y27329199D01*
X11898601Y27340560D01*
X11864086Y27359008D01*
X11833835Y27383835D01*
X11809008Y27414086D01*
X11790560Y27448601D01*
X11779199Y27486054D01*
X11775000Y27528686D01*
X11775000Y28071314D01*
X11779199Y28113946D01*
X11790560Y28151399D01*
X11809008Y28185914D01*
X11833835Y28216165D01*
X11864086Y28240992D01*
X11898601Y28259440D01*
X11936054Y28270801D01*
X11978686Y28275000D01*
X12621314Y28275000D01*
X12663946Y28270801D01*
X12663946Y28270801D01*
G37*
G36*
X33663946Y28270801D02*
X33701399Y28259440D01*
X33735914Y28240992D01*
X33766165Y28216165D01*
X33790992Y28185914D01*
X33809440Y28151399D01*
X33820801Y28113946D01*
X33825000Y28071314D01*
X33825000Y27528686D01*
X33820801Y27486054D01*
X33809440Y27448601D01*
X33790992Y27414086D01*
X33766165Y27383835D01*
X33735914Y27359008D01*
X33701399Y27340560D01*
X33663946Y27329199D01*
X33621314Y27325000D01*
X32978686Y27325000D01*
X32936054Y27329199D01*
X32898601Y27340560D01*
X32864086Y27359008D01*
X32833835Y27383835D01*
X32809008Y27414086D01*
X32790560Y27448601D01*
X32779199Y27486054D01*
X32775000Y27528686D01*
X32775000Y28071314D01*
X32779199Y28113946D01*
X32790560Y28151399D01*
X32809008Y28185914D01*
X32833835Y28216165D01*
X32864086Y28240992D01*
X32898601Y28259440D01*
X32936054Y28270801D01*
X32978686Y28275000D01*
X33621314Y28275000D01*
X33663946Y28270801D01*
X33663946Y28270801D01*
G37*
G36*
X14210000Y27660000D02*
X13520000Y27660000D01*
X13520000Y27940000D01*
X14210000Y27940000D01*
X14210000Y27660000D01*
X14210000Y27660000D01*
G37*
G36*
X21880000Y27660000D02*
X21190000Y27660000D01*
X21190000Y27940000D01*
X21880000Y27940000D01*
X21880000Y27660000D01*
X21880000Y27660000D01*
G37*
G36*
X42880000Y27660000D02*
X42190000Y27660000D01*
X42190000Y27940000D01*
X42880000Y27940000D01*
X42880000Y27660000D01*
X42880000Y27660000D01*
G37*
G36*
X35210000Y27660000D02*
X34520000Y27660000D01*
X34520000Y27940000D01*
X35210000Y27940000D01*
X35210000Y27660000D01*
X35210000Y27660000D01*
G37*
G36*
X2450000Y27750000D02*
X1650000Y27750000D01*
X1650000Y28050000D01*
X2450000Y28050000D01*
X2450000Y27750000D01*
X2450000Y27750000D01*
G37*
G36*
X14210000Y28160000D02*
X13520000Y28160000D01*
X13520000Y28440000D01*
X14210000Y28440000D01*
X14210000Y28160000D01*
X14210000Y28160000D01*
G37*
G36*
X21880000Y28160000D02*
X21190000Y28160000D01*
X21190000Y28440000D01*
X21880000Y28440000D01*
X21880000Y28160000D01*
X21880000Y28160000D01*
G37*
G36*
X35210000Y28160000D02*
X34520000Y28160000D01*
X34520000Y28440000D01*
X35210000Y28440000D01*
X35210000Y28160000D01*
X35210000Y28160000D01*
G37*
G36*
X42880000Y28160000D02*
X42190000Y28160000D01*
X42190000Y28440000D01*
X42880000Y28440000D01*
X42880000Y28160000D01*
X42880000Y28160000D01*
G37*
G36*
X2450000Y28250000D02*
X1650000Y28250000D01*
X1650000Y28550000D01*
X2450000Y28550000D01*
X2450000Y28250000D01*
X2450000Y28250000D01*
G37*
G36*
X21880000Y28660000D02*
X21190000Y28660000D01*
X21190000Y28940000D01*
X21880000Y28940000D01*
X21880000Y28660000D01*
X21880000Y28660000D01*
G37*
G36*
X42880000Y28660000D02*
X42190000Y28660000D01*
X42190000Y28940000D01*
X42880000Y28940000D01*
X42880000Y28660000D01*
X42880000Y28660000D01*
G37*
G36*
X35210000Y28660000D02*
X34520000Y28660000D01*
X34520000Y28940000D01*
X35210000Y28940000D01*
X35210000Y28660000D01*
X35210000Y28660000D01*
G37*
G36*
X14210000Y28660000D02*
X13520000Y28660000D01*
X13520000Y28940000D01*
X14210000Y28940000D01*
X14210000Y28660000D01*
X14210000Y28660000D01*
G37*
G36*
X42880000Y29160000D02*
X42190000Y29160000D01*
X42190000Y29440000D01*
X42880000Y29440000D01*
X42880000Y29160000D01*
X42880000Y29160000D01*
G37*
G36*
X14210000Y29160000D02*
X13520000Y29160000D01*
X13520000Y29440000D01*
X14210000Y29440000D01*
X14210000Y29160000D01*
X14210000Y29160000D01*
G37*
G36*
X35210000Y29160000D02*
X34520000Y29160000D01*
X34520000Y29440000D01*
X35210000Y29440000D01*
X35210000Y29160000D01*
X35210000Y29160000D01*
G37*
G36*
X21880000Y29160000D02*
X21190000Y29160000D01*
X21190000Y29440000D01*
X21880000Y29440000D01*
X21880000Y29160000D01*
X21880000Y29160000D01*
G37*
G36*
X4950000Y29200000D02*
X4150000Y29200000D01*
X4150000Y29600000D01*
X4950000Y29600000D01*
X4950000Y29200000D01*
X4950000Y29200000D01*
G37*
G36*
X21880000Y29660000D02*
X21190000Y29660000D01*
X21190000Y29940000D01*
X21880000Y29940000D01*
X21880000Y29660000D01*
X21880000Y29660000D01*
G37*
G36*
X42880000Y29660000D02*
X42190000Y29660000D01*
X42190000Y29940000D01*
X42880000Y29940000D01*
X42880000Y29660000D01*
X42880000Y29660000D01*
G37*
G36*
X14210000Y29660000D02*
X13520000Y29660000D01*
X13520000Y29940000D01*
X14210000Y29940000D01*
X14210000Y29660000D01*
X14210000Y29660000D01*
G37*
G36*
X35210000Y29660000D02*
X34520000Y29660000D01*
X34520000Y29940000D01*
X35210000Y29940000D01*
X35210000Y29660000D01*
X35210000Y29660000D01*
G37*
G36*
X35210000Y30160000D02*
X34520000Y30160000D01*
X34520000Y30440000D01*
X35210000Y30440000D01*
X35210000Y30160000D01*
X35210000Y30160000D01*
G37*
G36*
X42880000Y30160000D02*
X42190000Y30160000D01*
X42190000Y30440000D01*
X42880000Y30440000D01*
X42880000Y30160000D01*
X42880000Y30160000D01*
G37*
G36*
X21880000Y30160000D02*
X21190000Y30160000D01*
X21190000Y30440000D01*
X21880000Y30440000D01*
X21880000Y30160000D01*
X21880000Y30160000D01*
G37*
G36*
X14210000Y30160000D02*
X13520000Y30160000D01*
X13520000Y30440000D01*
X14210000Y30440000D01*
X14210000Y30160000D01*
X14210000Y30160000D01*
G37*
G36*
X35210000Y30660000D02*
X34520000Y30660000D01*
X34520000Y30940000D01*
X35210000Y30940000D01*
X35210000Y30660000D01*
X35210000Y30660000D01*
G37*
G36*
X21880000Y30660000D02*
X21190000Y30660000D01*
X21190000Y30940000D01*
X21880000Y30940000D01*
X21880000Y30660000D01*
X21880000Y30660000D01*
G37*
G36*
X42880000Y30660000D02*
X42190000Y30660000D01*
X42190000Y30940000D01*
X42880000Y30940000D01*
X42880000Y30660000D01*
X42880000Y30660000D01*
G37*
G36*
X14210000Y30660000D02*
X13520000Y30660000D01*
X13520000Y30940000D01*
X14210000Y30940000D01*
X14210000Y30660000D01*
X14210000Y30660000D01*
G37*
G36*
X42880000Y31160000D02*
X42190000Y31160000D01*
X42190000Y31440000D01*
X42880000Y31440000D01*
X42880000Y31160000D01*
X42880000Y31160000D01*
G37*
G36*
X21880000Y31160000D02*
X21190000Y31160000D01*
X21190000Y31440000D01*
X21880000Y31440000D01*
X21880000Y31160000D01*
X21880000Y31160000D01*
G37*
G36*
X14210000Y31160000D02*
X13520000Y31160000D01*
X13520000Y31440000D01*
X14210000Y31440000D01*
X14210000Y31160000D01*
X14210000Y31160000D01*
G37*
G36*
X35210000Y31160000D02*
X34520000Y31160000D01*
X34520000Y31440000D01*
X35210000Y31440000D01*
X35210000Y31160000D01*
X35210000Y31160000D01*
G37*
G36*
X42880000Y31660000D02*
X42190000Y31660000D01*
X42190000Y31940000D01*
X42880000Y31940000D01*
X42880000Y31660000D01*
X42880000Y31660000D01*
G37*
G36*
X14210000Y31660000D02*
X13520000Y31660000D01*
X13520000Y31940000D01*
X14210000Y31940000D01*
X14210000Y31660000D01*
X14210000Y31660000D01*
G37*
G36*
X21880000Y31660000D02*
X21190000Y31660000D01*
X21190000Y31940000D01*
X21880000Y31940000D01*
X21880000Y31660000D01*
X21880000Y31660000D01*
G37*
G36*
X35210000Y31660000D02*
X34520000Y31660000D01*
X34520000Y31940000D01*
X35210000Y31940000D01*
X35210000Y31660000D01*
X35210000Y31660000D01*
G37*
G36*
X29090000Y32070000D02*
X28810000Y32070000D01*
X28810000Y32760000D01*
X29090000Y32760000D01*
X29090000Y32070000D01*
X29090000Y32070000D01*
G37*
G36*
X29590000Y32070000D02*
X29310000Y32070000D01*
X29310000Y32760000D01*
X29590000Y32760000D01*
X29590000Y32070000D01*
X29590000Y32070000D01*
G37*
G36*
X47590000Y32070000D02*
X47310000Y32070000D01*
X47310000Y32760000D01*
X47590000Y32760000D01*
X47590000Y32070000D01*
X47590000Y32070000D01*
G37*
G36*
X48090000Y32070000D02*
X47810000Y32070000D01*
X47810000Y32760000D01*
X48090000Y32760000D01*
X48090000Y32070000D01*
X48090000Y32070000D01*
G37*
G36*
X48590000Y32070000D02*
X48310000Y32070000D01*
X48310000Y32760000D01*
X48590000Y32760000D01*
X48590000Y32070000D01*
X48590000Y32070000D01*
G37*
G36*
X49090000Y32070000D02*
X48810000Y32070000D01*
X48810000Y32760000D01*
X49090000Y32760000D01*
X49090000Y32070000D01*
X49090000Y32070000D01*
G37*
G36*
X50090000Y32070000D02*
X49810000Y32070000D01*
X49810000Y32760000D01*
X50090000Y32760000D01*
X50090000Y32070000D01*
X50090000Y32070000D01*
G37*
G36*
X50590000Y32070000D02*
X50310000Y32070000D01*
X50310000Y32760000D01*
X50590000Y32760000D01*
X50590000Y32070000D01*
X50590000Y32070000D01*
G37*
G36*
X51090000Y32070000D02*
X50810000Y32070000D01*
X50810000Y32760000D01*
X51090000Y32760000D01*
X51090000Y32070000D01*
X51090000Y32070000D01*
G37*
G36*
X49590000Y32070000D02*
X49310000Y32070000D01*
X49310000Y32760000D01*
X49590000Y32760000D01*
X49590000Y32070000D01*
X49590000Y32070000D01*
G37*
G36*
X51590000Y32070000D02*
X51310000Y32070000D01*
X51310000Y32760000D01*
X51590000Y32760000D01*
X51590000Y32070000D01*
X51590000Y32070000D01*
G37*
G36*
X28590000Y32070000D02*
X28310000Y32070000D01*
X28310000Y32760000D01*
X28590000Y32760000D01*
X28590000Y32070000D01*
X28590000Y32070000D01*
G37*
G36*
X28090000Y32070000D02*
X27810000Y32070000D01*
X27810000Y32760000D01*
X28090000Y32760000D01*
X28090000Y32070000D01*
X28090000Y32070000D01*
G37*
G36*
X30090000Y32070000D02*
X29810000Y32070000D01*
X29810000Y32760000D01*
X30090000Y32760000D01*
X30090000Y32070000D01*
X30090000Y32070000D01*
G37*
G36*
X30590000Y32070000D02*
X30310000Y32070000D01*
X30310000Y32760000D01*
X30590000Y32760000D01*
X30590000Y32070000D01*
X30590000Y32070000D01*
G37*
G36*
X31090000Y32070000D02*
X30810000Y32070000D01*
X30810000Y32760000D01*
X31090000Y32760000D01*
X31090000Y32070000D01*
X31090000Y32070000D01*
G37*
G36*
X31590000Y32070000D02*
X31310000Y32070000D01*
X31310000Y32760000D01*
X31590000Y32760000D01*
X31590000Y32070000D01*
X31590000Y32070000D01*
G37*
G36*
X4590000Y32070000D02*
X4310000Y32070000D01*
X4310000Y32760000D01*
X4590000Y32760000D01*
X4590000Y32070000D01*
X4590000Y32070000D01*
G37*
G36*
X5090000Y32070000D02*
X4810000Y32070000D01*
X4810000Y32760000D01*
X5090000Y32760000D01*
X5090000Y32070000D01*
X5090000Y32070000D01*
G37*
G36*
X5590000Y32070000D02*
X5310000Y32070000D01*
X5310000Y32760000D01*
X5590000Y32760000D01*
X5590000Y32070000D01*
X5590000Y32070000D01*
G37*
G36*
X6090000Y32070000D02*
X5810000Y32070000D01*
X5810000Y32760000D01*
X6090000Y32760000D01*
X6090000Y32070000D01*
X6090000Y32070000D01*
G37*
G36*
X52590000Y32070000D02*
X52310000Y32070000D01*
X52310000Y32760000D01*
X52590000Y32760000D01*
X52590000Y32070000D01*
X52590000Y32070000D01*
G37*
G36*
X46590000Y32070000D02*
X46310000Y32070000D01*
X46310000Y32760000D01*
X46590000Y32760000D01*
X46590000Y32070000D01*
X46590000Y32070000D01*
G37*
G36*
X46090000Y32070000D02*
X45810000Y32070000D01*
X45810000Y32760000D01*
X46090000Y32760000D01*
X46090000Y32070000D01*
X46090000Y32070000D01*
G37*
G36*
X6590000Y32070000D02*
X6310000Y32070000D01*
X6310000Y32760000D01*
X6590000Y32760000D01*
X6590000Y32070000D01*
X6590000Y32070000D01*
G37*
G36*
X7090000Y32070000D02*
X6810000Y32070000D01*
X6810000Y32760000D01*
X7090000Y32760000D01*
X7090000Y32070000D01*
X7090000Y32070000D01*
G37*
G36*
X25090000Y32070000D02*
X24810000Y32070000D01*
X24810000Y32760000D01*
X25090000Y32760000D01*
X25090000Y32070000D01*
X25090000Y32070000D01*
G37*
G36*
X25590000Y32070000D02*
X25310000Y32070000D01*
X25310000Y32760000D01*
X25590000Y32760000D01*
X25590000Y32070000D01*
X25590000Y32070000D01*
G37*
G36*
X26090000Y32070000D02*
X25810000Y32070000D01*
X25810000Y32760000D01*
X26090000Y32760000D01*
X26090000Y32070000D01*
X26090000Y32070000D01*
G37*
G36*
X26590000Y32070000D02*
X26310000Y32070000D01*
X26310000Y32760000D01*
X26590000Y32760000D01*
X26590000Y32070000D01*
X26590000Y32070000D01*
G37*
G36*
X27090000Y32070000D02*
X26810000Y32070000D01*
X26810000Y32760000D01*
X27090000Y32760000D01*
X27090000Y32070000D01*
X27090000Y32070000D01*
G37*
G36*
X27590000Y32070000D02*
X27310000Y32070000D01*
X27310000Y32760000D01*
X27590000Y32760000D01*
X27590000Y32070000D01*
X27590000Y32070000D01*
G37*
G36*
X8590000Y32070000D02*
X8310000Y32070000D01*
X8310000Y32760000D01*
X8590000Y32760000D01*
X8590000Y32070000D01*
X8590000Y32070000D01*
G37*
G36*
X9090000Y32070000D02*
X8810000Y32070000D01*
X8810000Y32760000D01*
X9090000Y32760000D01*
X9090000Y32070000D01*
X9090000Y32070000D01*
G37*
G36*
X9590000Y32070000D02*
X9310000Y32070000D01*
X9310000Y32760000D01*
X9590000Y32760000D01*
X9590000Y32070000D01*
X9590000Y32070000D01*
G37*
G36*
X10090000Y32070000D02*
X9810000Y32070000D01*
X9810000Y32760000D01*
X10090000Y32760000D01*
X10090000Y32070000D01*
X10090000Y32070000D01*
G37*
G36*
X4090000Y32070000D02*
X3810000Y32070000D01*
X3810000Y32760000D01*
X4090000Y32760000D01*
X4090000Y32070000D01*
X4090000Y32070000D01*
G37*
G36*
X8090000Y32070000D02*
X7810000Y32070000D01*
X7810000Y32760000D01*
X8090000Y32760000D01*
X8090000Y32070000D01*
X8090000Y32070000D01*
G37*
G36*
X52090000Y32070000D02*
X51810000Y32070000D01*
X51810000Y32760000D01*
X52090000Y32760000D01*
X52090000Y32070000D01*
X52090000Y32070000D01*
G37*
G36*
X7590000Y32070000D02*
X7310000Y32070000D01*
X7310000Y32760000D01*
X7590000Y32760000D01*
X7590000Y32070000D01*
X7590000Y32070000D01*
G37*
G36*
X10590000Y32070000D02*
X10310000Y32070000D01*
X10310000Y32760000D01*
X10590000Y32760000D01*
X10590000Y32070000D01*
X10590000Y32070000D01*
G37*
G36*
X47090000Y32070000D02*
X46810000Y32070000D01*
X46810000Y32760000D01*
X47090000Y32760000D01*
X47090000Y32070000D01*
X47090000Y32070000D01*
G37*
G36*
X21880000Y32160000D02*
X21190000Y32160000D01*
X21190000Y32440000D01*
X21880000Y32440000D01*
X21880000Y32160000D01*
X21880000Y32160000D01*
G37*
G36*
X35210000Y32160000D02*
X34520000Y32160000D01*
X34520000Y32440000D01*
X35210000Y32440000D01*
X35210000Y32160000D01*
X35210000Y32160000D01*
G37*
G36*
X14210000Y32160000D02*
X13520000Y32160000D01*
X13520000Y32440000D01*
X14210000Y32440000D01*
X14210000Y32160000D01*
X14210000Y32160000D01*
G37*
G36*
X42880000Y32160000D02*
X42190000Y32160000D01*
X42190000Y32440000D01*
X42880000Y32440000D01*
X42880000Y32160000D01*
X42880000Y32160000D01*
G37*
G36*
X21090000Y32540000D02*
X20810000Y32540000D01*
X20810000Y33230000D01*
X21090000Y33230000D01*
X21090000Y32540000D01*
X21090000Y32540000D01*
G37*
G36*
X16590000Y32540000D02*
X16310000Y32540000D01*
X16310000Y33230000D01*
X16590000Y33230000D01*
X16590000Y32540000D01*
X16590000Y32540000D01*
G37*
G36*
X17090000Y32540000D02*
X16810000Y32540000D01*
X16810000Y33230000D01*
X17090000Y33230000D01*
X17090000Y32540000D01*
X17090000Y32540000D01*
G37*
G36*
X17590000Y32540000D02*
X17310000Y32540000D01*
X17310000Y33230000D01*
X17590000Y33230000D01*
X17590000Y32540000D01*
X17590000Y32540000D01*
G37*
G36*
X18090000Y32540000D02*
X17810000Y32540000D01*
X17810000Y33230000D01*
X18090000Y33230000D01*
X18090000Y32540000D01*
X18090000Y32540000D01*
G37*
G36*
X41090000Y32540000D02*
X40810000Y32540000D01*
X40810000Y33230000D01*
X41090000Y33230000D01*
X41090000Y32540000D01*
X41090000Y32540000D01*
G37*
G36*
X18590000Y32540000D02*
X18310000Y32540000D01*
X18310000Y33230000D01*
X18590000Y33230000D01*
X18590000Y32540000D01*
X18590000Y32540000D01*
G37*
G36*
X19090000Y32540000D02*
X18810000Y32540000D01*
X18810000Y33230000D01*
X19090000Y33230000D01*
X19090000Y32540000D01*
X19090000Y32540000D01*
G37*
G36*
X20090000Y32540000D02*
X19810000Y32540000D01*
X19810000Y33230000D01*
X20090000Y33230000D01*
X20090000Y32540000D01*
X20090000Y32540000D01*
G37*
G36*
X16090000Y32540000D02*
X15810000Y32540000D01*
X15810000Y33230000D01*
X16090000Y33230000D01*
X16090000Y32540000D01*
X16090000Y32540000D01*
G37*
G36*
X14590000Y32540000D02*
X14310000Y32540000D01*
X14310000Y33230000D01*
X14590000Y33230000D01*
X14590000Y32540000D01*
X14590000Y32540000D01*
G37*
G36*
X15090000Y32540000D02*
X14810000Y32540000D01*
X14810000Y33230000D01*
X15090000Y33230000D01*
X15090000Y32540000D01*
X15090000Y32540000D01*
G37*
G36*
X20590000Y32540000D02*
X20310000Y32540000D01*
X20310000Y33230000D01*
X20590000Y33230000D01*
X20590000Y32540000D01*
X20590000Y32540000D01*
G37*
G36*
X19590000Y32540000D02*
X19310000Y32540000D01*
X19310000Y33230000D01*
X19590000Y33230000D01*
X19590000Y32540000D01*
X19590000Y32540000D01*
G37*
G36*
X42090000Y32540000D02*
X41810000Y32540000D01*
X41810000Y33230000D01*
X42090000Y33230000D01*
X42090000Y32540000D01*
X42090000Y32540000D01*
G37*
G36*
X41590000Y32540000D02*
X41310000Y32540000D01*
X41310000Y33230000D01*
X41590000Y33230000D01*
X41590000Y32540000D01*
X41590000Y32540000D01*
G37*
G36*
X15590000Y32540000D02*
X15310000Y32540000D01*
X15310000Y33230000D01*
X15590000Y33230000D01*
X15590000Y32540000D01*
X15590000Y32540000D01*
G37*
G36*
X37090000Y32540000D02*
X36810000Y32540000D01*
X36810000Y33230000D01*
X37090000Y33230000D01*
X37090000Y32540000D01*
X37090000Y32540000D01*
G37*
G36*
X35590000Y32540000D02*
X35310000Y32540000D01*
X35310000Y33230000D01*
X35590000Y33230000D01*
X35590000Y32540000D01*
X35590000Y32540000D01*
G37*
G36*
X36090000Y32540000D02*
X35810000Y32540000D01*
X35810000Y33230000D01*
X36090000Y33230000D01*
X36090000Y32540000D01*
X36090000Y32540000D01*
G37*
G36*
X36590000Y32540000D02*
X36310000Y32540000D01*
X36310000Y33230000D01*
X36590000Y33230000D01*
X36590000Y32540000D01*
X36590000Y32540000D01*
G37*
G36*
X37590000Y32540000D02*
X37310000Y32540000D01*
X37310000Y33230000D01*
X37590000Y33230000D01*
X37590000Y32540000D01*
X37590000Y32540000D01*
G37*
G36*
X38090000Y32540000D02*
X37810000Y32540000D01*
X37810000Y33230000D01*
X38090000Y33230000D01*
X38090000Y32540000D01*
X38090000Y32540000D01*
G37*
G36*
X38590000Y32540000D02*
X38310000Y32540000D01*
X38310000Y33230000D01*
X38590000Y33230000D01*
X38590000Y32540000D01*
X38590000Y32540000D01*
G37*
G36*
X39090000Y32540000D02*
X38810000Y32540000D01*
X38810000Y33230000D01*
X39090000Y33230000D01*
X39090000Y32540000D01*
X39090000Y32540000D01*
G37*
G36*
X39590000Y32540000D02*
X39310000Y32540000D01*
X39310000Y33230000D01*
X39590000Y33230000D01*
X39590000Y32540000D01*
X39590000Y32540000D01*
G37*
G36*
X40090000Y32540000D02*
X39810000Y32540000D01*
X39810000Y33230000D01*
X40090000Y33230000D01*
X40090000Y32540000D01*
X40090000Y32540000D01*
G37*
G36*
X40590000Y32540000D02*
X40310000Y32540000D01*
X40310000Y33230000D01*
X40590000Y33230000D01*
X40590000Y32540000D01*
X40590000Y32540000D01*
G37*
G36*
X3710000Y32860000D02*
X3020000Y32860000D01*
X3020000Y33140000D01*
X3710000Y33140000D01*
X3710000Y32860000D01*
X3710000Y32860000D01*
G37*
G36*
X11380000Y32860000D02*
X10690000Y32860000D01*
X10690000Y33140000D01*
X11380000Y33140000D01*
X11380000Y32860000D01*
X11380000Y32860000D01*
G37*
G36*
X32380000Y32860000D02*
X31690000Y32860000D01*
X31690000Y33140000D01*
X32380000Y33140000D01*
X32380000Y32860000D01*
X32380000Y32860000D01*
G37*
G36*
X53380000Y32860000D02*
X52690000Y32860000D01*
X52690000Y33140000D01*
X53380000Y33140000D01*
X53380000Y32860000D01*
X53380000Y32860000D01*
G37*
G36*
X45710000Y32860000D02*
X45020000Y32860000D01*
X45020000Y33140000D01*
X45710000Y33140000D01*
X45710000Y32860000D01*
X45710000Y32860000D01*
G37*
G36*
X24710000Y32860000D02*
X24020000Y32860000D01*
X24020000Y33140000D01*
X24710000Y33140000D01*
X24710000Y32860000D01*
X24710000Y32860000D01*
G37*
G36*
X2013946Y33970801D02*
X2051399Y33959440D01*
X2085914Y33940992D01*
X2116165Y33916165D01*
X2140992Y33885914D01*
X2159440Y33851399D01*
X2170801Y33813946D01*
X2175000Y33771314D01*
X2175000Y33128686D01*
X2170801Y33086054D01*
X2159440Y33048601D01*
X2140992Y33014086D01*
X2116165Y32983835D01*
X2085914Y32959008D01*
X2051399Y32940560D01*
X2013946Y32929199D01*
X1971314Y32925000D01*
X1428686Y32925000D01*
X1386054Y32929199D01*
X1348601Y32940560D01*
X1314086Y32959008D01*
X1283835Y32983835D01*
X1259008Y33014086D01*
X1240560Y33048601D01*
X1229199Y33086054D01*
X1225000Y33128686D01*
X1225000Y33771314D01*
X1229199Y33813946D01*
X1240560Y33851399D01*
X1259008Y33885914D01*
X1283835Y33916165D01*
X1314086Y33940992D01*
X1348601Y33959440D01*
X1386054Y33970801D01*
X1428686Y33975000D01*
X1971314Y33975000D01*
X2013946Y33970801D01*
X2013946Y33970801D01*
G37*
G36*
X3710000Y33360000D02*
X3020000Y33360000D01*
X3020000Y33640000D01*
X3710000Y33640000D01*
X3710000Y33360000D01*
X3710000Y33360000D01*
G37*
G36*
X45710000Y33360000D02*
X45020000Y33360000D01*
X45020000Y33640000D01*
X45710000Y33640000D01*
X45710000Y33360000D01*
X45710000Y33360000D01*
G37*
G36*
X11380000Y33360000D02*
X10690000Y33360000D01*
X10690000Y33640000D01*
X11380000Y33640000D01*
X11380000Y33360000D01*
X11380000Y33360000D01*
G37*
G36*
X53380000Y33360000D02*
X52690000Y33360000D01*
X52690000Y33640000D01*
X53380000Y33640000D01*
X53380000Y33360000D01*
X53380000Y33360000D01*
G37*
G36*
X24710000Y33360000D02*
X24020000Y33360000D01*
X24020000Y33640000D01*
X24710000Y33640000D01*
X24710000Y33360000D01*
X24710000Y33360000D01*
G37*
G36*
X32380000Y33360000D02*
X31690000Y33360000D01*
X31690000Y33640000D01*
X32380000Y33640000D01*
X32380000Y33360000D01*
X32380000Y33360000D01*
G37*
G36*
X31000000Y33450000D02*
X25400000Y33450000D01*
X25400000Y39050000D01*
X31000000Y39050000D01*
X31000000Y33450000D01*
X31000000Y33450000D01*
G37*
G36*
X10000000Y33450000D02*
X4400000Y33450000D01*
X4400000Y39050000D01*
X10000000Y39050000D01*
X10000000Y33450000D01*
X10000000Y33450000D01*
G37*
G36*
X52000000Y33450000D02*
X46400000Y33450000D01*
X46400000Y39050000D01*
X52000000Y39050000D01*
X52000000Y33450000D01*
X52000000Y33450000D01*
G37*
G36*
X3710000Y33860000D02*
X3020000Y33860000D01*
X3020000Y34140000D01*
X3710000Y34140000D01*
X3710000Y33860000D01*
X3710000Y33860000D01*
G37*
G36*
X11380000Y33860000D02*
X10690000Y33860000D01*
X10690000Y34140000D01*
X11380000Y34140000D01*
X11380000Y33860000D01*
X11380000Y33860000D01*
G37*
G36*
X24710000Y33860000D02*
X24020000Y33860000D01*
X24020000Y34140000D01*
X24710000Y34140000D01*
X24710000Y33860000D01*
X24710000Y33860000D01*
G37*
G36*
X32380000Y33860000D02*
X31690000Y33860000D01*
X31690000Y34140000D01*
X32380000Y34140000D01*
X32380000Y33860000D01*
X32380000Y33860000D01*
G37*
G36*
X45710000Y33860000D02*
X45020000Y33860000D01*
X45020000Y34140000D01*
X45710000Y34140000D01*
X45710000Y33860000D01*
X45710000Y33860000D01*
G37*
G36*
X53380000Y33860000D02*
X52690000Y33860000D01*
X52690000Y34140000D01*
X53380000Y34140000D01*
X53380000Y33860000D01*
X53380000Y33860000D01*
G37*
G36*
X24710000Y34360000D02*
X24020000Y34360000D01*
X24020000Y34640000D01*
X24710000Y34640000D01*
X24710000Y34360000D01*
X24710000Y34360000D01*
G37*
G36*
X32380000Y34360000D02*
X31690000Y34360000D01*
X31690000Y34640000D01*
X32380000Y34640000D01*
X32380000Y34360000D01*
X32380000Y34360000D01*
G37*
G36*
X11380000Y34360000D02*
X10690000Y34360000D01*
X10690000Y34640000D01*
X11380000Y34640000D01*
X11380000Y34360000D01*
X11380000Y34360000D01*
G37*
G36*
X3710000Y34360000D02*
X3020000Y34360000D01*
X3020000Y34640000D01*
X3710000Y34640000D01*
X3710000Y34360000D01*
X3710000Y34360000D01*
G37*
G36*
X45710000Y34360000D02*
X45020000Y34360000D01*
X45020000Y34640000D01*
X45710000Y34640000D01*
X45710000Y34360000D01*
X45710000Y34360000D01*
G37*
G36*
X53380000Y34360000D02*
X52690000Y34360000D01*
X52690000Y34640000D01*
X53380000Y34640000D01*
X53380000Y34360000D01*
X53380000Y34360000D01*
G37*
G36*
X21413946Y35470801D02*
X21451399Y35459440D01*
X21485914Y35440992D01*
X21516165Y35416165D01*
X21540992Y35385914D01*
X21559440Y35351399D01*
X21570801Y35313946D01*
X21575000Y35271314D01*
X21575000Y34728686D01*
X21570801Y34686054D01*
X21559440Y34648601D01*
X21540992Y34614086D01*
X21516165Y34583835D01*
X21485914Y34559008D01*
X21451399Y34540560D01*
X21413946Y34529199D01*
X21371314Y34525000D01*
X20728686Y34525000D01*
X20686054Y34529199D01*
X20648601Y34540560D01*
X20614086Y34559008D01*
X20583835Y34583835D01*
X20559008Y34614086D01*
X20540560Y34648601D01*
X20529199Y34686054D01*
X20525000Y34728686D01*
X20525000Y35271314D01*
X20529199Y35313946D01*
X20540560Y35351399D01*
X20559008Y35385914D01*
X20583835Y35416165D01*
X20614086Y35440992D01*
X20648601Y35459440D01*
X20686054Y35470801D01*
X20728686Y35475000D01*
X21371314Y35475000D01*
X21413946Y35470801D01*
X21413946Y35470801D01*
G37*
G36*
X44163946Y35470801D02*
X44201399Y35459440D01*
X44235914Y35440992D01*
X44266165Y35416165D01*
X44290992Y35385914D01*
X44309440Y35351399D01*
X44320801Y35313946D01*
X44325000Y35271314D01*
X44325000Y34728686D01*
X44320801Y34686054D01*
X44309440Y34648601D01*
X44290992Y34614086D01*
X44266165Y34583835D01*
X44235914Y34559008D01*
X44201399Y34540560D01*
X44163946Y34529199D01*
X44121314Y34525000D01*
X43478686Y34525000D01*
X43436054Y34529199D01*
X43398601Y34540560D01*
X43364086Y34559008D01*
X43333835Y34583835D01*
X43309008Y34614086D01*
X43290560Y34648601D01*
X43279199Y34686054D01*
X43275000Y34728686D01*
X43275000Y35271314D01*
X43279199Y35313946D01*
X43290560Y35351399D01*
X43309008Y35385914D01*
X43333835Y35416165D01*
X43364086Y35440992D01*
X43398601Y35459440D01*
X43436054Y35470801D01*
X43478686Y35475000D01*
X44121314Y35475000D01*
X44163946Y35470801D01*
X44163946Y35470801D01*
G37*
G36*
X23163946Y35470801D02*
X23201399Y35459440D01*
X23235914Y35440992D01*
X23266165Y35416165D01*
X23290992Y35385914D01*
X23309440Y35351399D01*
X23320801Y35313946D01*
X23325000Y35271314D01*
X23325000Y34728686D01*
X23320801Y34686054D01*
X23309440Y34648601D01*
X23290992Y34614086D01*
X23266165Y34583835D01*
X23235914Y34559008D01*
X23201399Y34540560D01*
X23163946Y34529199D01*
X23121314Y34525000D01*
X22478686Y34525000D01*
X22436054Y34529199D01*
X22398601Y34540560D01*
X22364086Y34559008D01*
X22333835Y34583835D01*
X22309008Y34614086D01*
X22290560Y34648601D01*
X22279199Y34686054D01*
X22275000Y34728686D01*
X22275000Y35271314D01*
X22279199Y35313946D01*
X22290560Y35351399D01*
X22309008Y35385914D01*
X22333835Y35416165D01*
X22364086Y35440992D01*
X22398601Y35459440D01*
X22436054Y35470801D01*
X22478686Y35475000D01*
X23121314Y35475000D01*
X23163946Y35470801D01*
X23163946Y35470801D01*
G37*
G36*
X42413946Y35470801D02*
X42451399Y35459440D01*
X42485914Y35440992D01*
X42516165Y35416165D01*
X42540992Y35385914D01*
X42559440Y35351399D01*
X42570801Y35313946D01*
X42575000Y35271314D01*
X42575000Y34728686D01*
X42570801Y34686054D01*
X42559440Y34648601D01*
X42540992Y34614086D01*
X42516165Y34583835D01*
X42485914Y34559008D01*
X42451399Y34540560D01*
X42413946Y34529199D01*
X42371314Y34525000D01*
X41728686Y34525000D01*
X41686054Y34529199D01*
X41648601Y34540560D01*
X41614086Y34559008D01*
X41583835Y34583835D01*
X41559008Y34614086D01*
X41540560Y34648601D01*
X41529199Y34686054D01*
X41525000Y34728686D01*
X41525000Y35271314D01*
X41529199Y35313946D01*
X41540560Y35351399D01*
X41559008Y35385914D01*
X41583835Y35416165D01*
X41614086Y35440992D01*
X41648601Y35459440D01*
X41686054Y35470801D01*
X41728686Y35475000D01*
X42371314Y35475000D01*
X42413946Y35470801D01*
X42413946Y35470801D01*
G37*
G36*
X2013946Y35720801D02*
X2051399Y35709440D01*
X2085914Y35690992D01*
X2116165Y35666165D01*
X2140992Y35635914D01*
X2159440Y35601399D01*
X2170801Y35563946D01*
X2175000Y35521314D01*
X2175000Y34878686D01*
X2170801Y34836054D01*
X2159440Y34798601D01*
X2140992Y34764086D01*
X2116165Y34733835D01*
X2085914Y34709008D01*
X2051399Y34690560D01*
X2013946Y34679199D01*
X1971314Y34675000D01*
X1428686Y34675000D01*
X1386054Y34679199D01*
X1348601Y34690560D01*
X1314086Y34709008D01*
X1283835Y34733835D01*
X1259008Y34764086D01*
X1240560Y34798601D01*
X1229199Y34836054D01*
X1225000Y34878686D01*
X1225000Y35521314D01*
X1229199Y35563946D01*
X1240560Y35601399D01*
X1259008Y35635914D01*
X1283835Y35666165D01*
X1314086Y35690992D01*
X1348601Y35709440D01*
X1386054Y35720801D01*
X1428686Y35725000D01*
X1971314Y35725000D01*
X2013946Y35720801D01*
X2013946Y35720801D01*
G37*
G36*
X53380000Y34860000D02*
X52690000Y34860000D01*
X52690000Y35140000D01*
X53380000Y35140000D01*
X53380000Y34860000D01*
X53380000Y34860000D01*
G37*
G36*
X45710000Y34860000D02*
X45020000Y34860000D01*
X45020000Y35140000D01*
X45710000Y35140000D01*
X45710000Y34860000D01*
X45710000Y34860000D01*
G37*
G36*
X32380000Y34860000D02*
X31690000Y34860000D01*
X31690000Y35140000D01*
X32380000Y35140000D01*
X32380000Y34860000D01*
X32380000Y34860000D01*
G37*
G36*
X11380000Y34860000D02*
X10690000Y34860000D01*
X10690000Y35140000D01*
X11380000Y35140000D01*
X11380000Y34860000D01*
X11380000Y34860000D01*
G37*
G36*
X24710000Y34860000D02*
X24020000Y34860000D01*
X24020000Y35140000D01*
X24710000Y35140000D01*
X24710000Y34860000D01*
X24710000Y34860000D01*
G37*
G36*
X3710000Y34860000D02*
X3020000Y34860000D01*
X3020000Y35140000D01*
X3710000Y35140000D01*
X3710000Y34860000D01*
X3710000Y34860000D01*
G37*
G36*
X53380000Y35360000D02*
X52690000Y35360000D01*
X52690000Y35640000D01*
X53380000Y35640000D01*
X53380000Y35360000D01*
X53380000Y35360000D01*
G37*
G36*
X32380000Y35360000D02*
X31690000Y35360000D01*
X31690000Y35640000D01*
X32380000Y35640000D01*
X32380000Y35360000D01*
X32380000Y35360000D01*
G37*
G36*
X24710000Y35360000D02*
X24020000Y35360000D01*
X24020000Y35640000D01*
X24710000Y35640000D01*
X24710000Y35360000D01*
X24710000Y35360000D01*
G37*
G36*
X11380000Y35360000D02*
X10690000Y35360000D01*
X10690000Y35640000D01*
X11380000Y35640000D01*
X11380000Y35360000D01*
X11380000Y35360000D01*
G37*
G36*
X3710000Y35360000D02*
X3020000Y35360000D01*
X3020000Y35640000D01*
X3710000Y35640000D01*
X3710000Y35360000D01*
X3710000Y35360000D01*
G37*
G36*
X45710000Y35360000D02*
X45020000Y35360000D01*
X45020000Y35640000D01*
X45710000Y35640000D01*
X45710000Y35360000D01*
X45710000Y35360000D01*
G37*
G36*
X53380000Y35860000D02*
X52690000Y35860000D01*
X52690000Y36140000D01*
X53380000Y36140000D01*
X53380000Y35860000D01*
X53380000Y35860000D01*
G37*
G36*
X11380000Y35860000D02*
X10690000Y35860000D01*
X10690000Y36140000D01*
X11380000Y36140000D01*
X11380000Y35860000D01*
X11380000Y35860000D01*
G37*
G36*
X3710000Y35860000D02*
X3020000Y35860000D01*
X3020000Y36140000D01*
X3710000Y36140000D01*
X3710000Y35860000D01*
X3710000Y35860000D01*
G37*
G36*
X24710000Y35860000D02*
X24020000Y35860000D01*
X24020000Y36140000D01*
X24710000Y36140000D01*
X24710000Y35860000D01*
X24710000Y35860000D01*
G37*
G36*
X32380000Y35860000D02*
X31690000Y35860000D01*
X31690000Y36140000D01*
X32380000Y36140000D01*
X32380000Y35860000D01*
X32380000Y35860000D01*
G37*
G36*
X45710000Y35860000D02*
X45020000Y35860000D01*
X45020000Y36140000D01*
X45710000Y36140000D01*
X45710000Y35860000D01*
X45710000Y35860000D01*
G37*
G36*
X3710000Y36360000D02*
X3020000Y36360000D01*
X3020000Y36640000D01*
X3710000Y36640000D01*
X3710000Y36360000D01*
X3710000Y36360000D01*
G37*
G36*
X45710000Y36360000D02*
X45020000Y36360000D01*
X45020000Y36640000D01*
X45710000Y36640000D01*
X45710000Y36360000D01*
X45710000Y36360000D01*
G37*
G36*
X53380000Y36360000D02*
X52690000Y36360000D01*
X52690000Y36640000D01*
X53380000Y36640000D01*
X53380000Y36360000D01*
X53380000Y36360000D01*
G37*
G36*
X32380000Y36360000D02*
X31690000Y36360000D01*
X31690000Y36640000D01*
X32380000Y36640000D01*
X32380000Y36360000D01*
X32380000Y36360000D01*
G37*
G36*
X24710000Y36360000D02*
X24020000Y36360000D01*
X24020000Y36640000D01*
X24710000Y36640000D01*
X24710000Y36360000D01*
X24710000Y36360000D01*
G37*
G36*
X11380000Y36360000D02*
X10690000Y36360000D01*
X10690000Y36640000D01*
X11380000Y36640000D01*
X11380000Y36360000D01*
X11380000Y36360000D01*
G37*
G36*
X11380000Y36860000D02*
X10690000Y36860000D01*
X10690000Y37140000D01*
X11380000Y37140000D01*
X11380000Y36860000D01*
X11380000Y36860000D01*
G37*
G36*
X45710000Y36860000D02*
X45020000Y36860000D01*
X45020000Y37140000D01*
X45710000Y37140000D01*
X45710000Y36860000D01*
X45710000Y36860000D01*
G37*
G36*
X32380000Y36860000D02*
X31690000Y36860000D01*
X31690000Y37140000D01*
X32380000Y37140000D01*
X32380000Y36860000D01*
X32380000Y36860000D01*
G37*
G36*
X3710000Y36860000D02*
X3020000Y36860000D01*
X3020000Y37140000D01*
X3710000Y37140000D01*
X3710000Y36860000D01*
X3710000Y36860000D01*
G37*
G36*
X24710000Y36860000D02*
X24020000Y36860000D01*
X24020000Y37140000D01*
X24710000Y37140000D01*
X24710000Y36860000D01*
X24710000Y36860000D01*
G37*
G36*
X53380000Y36860000D02*
X52690000Y36860000D01*
X52690000Y37140000D01*
X53380000Y37140000D01*
X53380000Y36860000D01*
X53380000Y36860000D01*
G37*
G36*
X11380000Y37360000D02*
X10690000Y37360000D01*
X10690000Y37640000D01*
X11380000Y37640000D01*
X11380000Y37360000D01*
X11380000Y37360000D01*
G37*
G36*
X3710000Y37360000D02*
X3020000Y37360000D01*
X3020000Y37640000D01*
X3710000Y37640000D01*
X3710000Y37360000D01*
X3710000Y37360000D01*
G37*
G36*
X32380000Y37360000D02*
X31690000Y37360000D01*
X31690000Y37640000D01*
X32380000Y37640000D01*
X32380000Y37360000D01*
X32380000Y37360000D01*
G37*
G36*
X45710000Y37360000D02*
X45020000Y37360000D01*
X45020000Y37640000D01*
X45710000Y37640000D01*
X45710000Y37360000D01*
X45710000Y37360000D01*
G37*
G36*
X53380000Y37360000D02*
X52690000Y37360000D01*
X52690000Y37640000D01*
X53380000Y37640000D01*
X53380000Y37360000D01*
X53380000Y37360000D01*
G37*
G36*
X24710000Y37360000D02*
X24020000Y37360000D01*
X24020000Y37640000D01*
X24710000Y37640000D01*
X24710000Y37360000D01*
X24710000Y37360000D01*
G37*
G36*
X53380000Y37860000D02*
X52690000Y37860000D01*
X52690000Y38140000D01*
X53380000Y38140000D01*
X53380000Y37860000D01*
X53380000Y37860000D01*
G37*
G36*
X45710000Y37860000D02*
X45020000Y37860000D01*
X45020000Y38140000D01*
X45710000Y38140000D01*
X45710000Y37860000D01*
X45710000Y37860000D01*
G37*
G36*
X32380000Y37860000D02*
X31690000Y37860000D01*
X31690000Y38140000D01*
X32380000Y38140000D01*
X32380000Y37860000D01*
X32380000Y37860000D01*
G37*
G36*
X24710000Y37860000D02*
X24020000Y37860000D01*
X24020000Y38140000D01*
X24710000Y38140000D01*
X24710000Y37860000D01*
X24710000Y37860000D01*
G37*
G36*
X11380000Y37860000D02*
X10690000Y37860000D01*
X10690000Y38140000D01*
X11380000Y38140000D01*
X11380000Y37860000D01*
X11380000Y37860000D01*
G37*
G36*
X3710000Y37860000D02*
X3020000Y37860000D01*
X3020000Y38140000D01*
X3710000Y38140000D01*
X3710000Y37860000D01*
X3710000Y37860000D01*
G37*
G36*
X32380000Y38360000D02*
X31690000Y38360000D01*
X31690000Y38640000D01*
X32380000Y38640000D01*
X32380000Y38360000D01*
X32380000Y38360000D01*
G37*
G36*
X11380000Y38360000D02*
X10690000Y38360000D01*
X10690000Y38640000D01*
X11380000Y38640000D01*
X11380000Y38360000D01*
X11380000Y38360000D01*
G37*
G36*
X24710000Y38360000D02*
X24020000Y38360000D01*
X24020000Y38640000D01*
X24710000Y38640000D01*
X24710000Y38360000D01*
X24710000Y38360000D01*
G37*
G36*
X45710000Y38360000D02*
X45020000Y38360000D01*
X45020000Y38640000D01*
X45710000Y38640000D01*
X45710000Y38360000D01*
X45710000Y38360000D01*
G37*
G36*
X53380000Y38360000D02*
X52690000Y38360000D01*
X52690000Y38640000D01*
X53380000Y38640000D01*
X53380000Y38360000D01*
X53380000Y38360000D01*
G37*
G36*
X3710000Y38360000D02*
X3020000Y38360000D01*
X3020000Y38640000D01*
X3710000Y38640000D01*
X3710000Y38360000D01*
X3710000Y38360000D01*
G37*
G36*
X38000019Y40821818D02*
X38070859Y40807727D01*
X38271045Y40724807D01*
X38451209Y40604426D01*
X38604426Y40451209D01*
X38724807Y40271045D01*
X38807727Y40070859D01*
X38850000Y39858339D01*
X38850000Y39641661D01*
X38807727Y39429141D01*
X38724807Y39228955D01*
X38604426Y39048791D01*
X38451209Y38895574D01*
X38271045Y38775193D01*
X38070859Y38692273D01*
X38000019Y38678182D01*
X37858341Y38650000D01*
X37641659Y38650000D01*
X37499981Y38678182D01*
X37429141Y38692273D01*
X37228955Y38775193D01*
X37048791Y38895574D01*
X36895574Y39048791D01*
X36775193Y39228955D01*
X36692273Y39429141D01*
X36650000Y39641661D01*
X36650000Y39858339D01*
X36692273Y40070859D01*
X36775193Y40271045D01*
X36895574Y40451209D01*
X37048791Y40604426D01*
X37228955Y40724807D01*
X37429141Y40807727D01*
X37499981Y40821818D01*
X37641659Y40850000D01*
X37858341Y40850000D01*
X38000019Y40821818D01*
X38000019Y40821818D01*
G37*
G36*
X19640019Y40821818D02*
X19710859Y40807727D01*
X19911045Y40724807D01*
X20091209Y40604426D01*
X20244426Y40451209D01*
X20364807Y40271045D01*
X20447727Y40070859D01*
X20490000Y39858339D01*
X20490000Y39641661D01*
X20447727Y39429141D01*
X20364807Y39228955D01*
X20244426Y39048791D01*
X20091209Y38895574D01*
X19911045Y38775193D01*
X19710859Y38692273D01*
X19640019Y38678182D01*
X19498341Y38650000D01*
X19281659Y38650000D01*
X19139981Y38678182D01*
X19069141Y38692273D01*
X18868955Y38775193D01*
X18688791Y38895574D01*
X18535574Y39048791D01*
X18415193Y39228955D01*
X18332273Y39429141D01*
X18290000Y39641661D01*
X18290000Y39858339D01*
X18332273Y40070859D01*
X18415193Y40271045D01*
X18535574Y40451209D01*
X18688791Y40604426D01*
X18868955Y40724807D01*
X19069141Y40807727D01*
X19139981Y40821818D01*
X19281659Y40850000D01*
X19498341Y40850000D01*
X19640019Y40821818D01*
X19640019Y40821818D01*
G37*
G36*
X24710000Y38860000D02*
X24020000Y38860000D01*
X24020000Y39140000D01*
X24710000Y39140000D01*
X24710000Y38860000D01*
X24710000Y38860000D01*
G37*
G36*
X32380000Y38860000D02*
X31690000Y38860000D01*
X31690000Y39140000D01*
X32380000Y39140000D01*
X32380000Y38860000D01*
X32380000Y38860000D01*
G37*
G36*
X45710000Y38860000D02*
X45020000Y38860000D01*
X45020000Y39140000D01*
X45710000Y39140000D01*
X45710000Y38860000D01*
X45710000Y38860000D01*
G37*
G36*
X53380000Y38860000D02*
X52690000Y38860000D01*
X52690000Y39140000D01*
X53380000Y39140000D01*
X53380000Y38860000D01*
X53380000Y38860000D01*
G37*
G36*
X11380000Y38860000D02*
X10690000Y38860000D01*
X10690000Y39140000D01*
X11380000Y39140000D01*
X11380000Y38860000D01*
X11380000Y38860000D01*
G37*
G36*
X3710000Y38860000D02*
X3020000Y38860000D01*
X3020000Y39140000D01*
X3710000Y39140000D01*
X3710000Y38860000D01*
X3710000Y38860000D01*
G37*
G36*
X11380000Y39360000D02*
X10690000Y39360000D01*
X10690000Y39640000D01*
X11380000Y39640000D01*
X11380000Y39360000D01*
X11380000Y39360000D01*
G37*
G36*
X32380000Y39360000D02*
X31690000Y39360000D01*
X31690000Y39640000D01*
X32380000Y39640000D01*
X32380000Y39360000D01*
X32380000Y39360000D01*
G37*
G36*
X45710000Y39360000D02*
X45020000Y39360000D01*
X45020000Y39640000D01*
X45710000Y39640000D01*
X45710000Y39360000D01*
X45710000Y39360000D01*
G37*
G36*
X24710000Y39360000D02*
X24020000Y39360000D01*
X24020000Y39640000D01*
X24710000Y39640000D01*
X24710000Y39360000D01*
X24710000Y39360000D01*
G37*
G36*
X53380000Y39360000D02*
X52690000Y39360000D01*
X52690000Y39640000D01*
X53380000Y39640000D01*
X53380000Y39360000D01*
X53380000Y39360000D01*
G37*
G36*
X3710000Y39360000D02*
X3020000Y39360000D01*
X3020000Y39640000D01*
X3710000Y39640000D01*
X3710000Y39360000D01*
X3710000Y39360000D01*
G37*
G36*
X25090000Y39740000D02*
X24810000Y39740000D01*
X24810000Y40430000D01*
X25090000Y40430000D01*
X25090000Y39740000D01*
X25090000Y39740000D01*
G37*
G36*
X48090000Y39740000D02*
X47810000Y39740000D01*
X47810000Y40430000D01*
X48090000Y40430000D01*
X48090000Y39740000D01*
X48090000Y39740000D01*
G37*
G36*
X48590000Y39740000D02*
X48310000Y39740000D01*
X48310000Y40430000D01*
X48590000Y40430000D01*
X48590000Y39740000D01*
X48590000Y39740000D01*
G37*
G36*
X49090000Y39740000D02*
X48810000Y39740000D01*
X48810000Y40430000D01*
X49090000Y40430000D01*
X49090000Y39740000D01*
X49090000Y39740000D01*
G37*
G36*
X49590000Y39740000D02*
X49310000Y39740000D01*
X49310000Y40430000D01*
X49590000Y40430000D01*
X49590000Y39740000D01*
X49590000Y39740000D01*
G37*
G36*
X50090000Y39740000D02*
X49810000Y39740000D01*
X49810000Y40430000D01*
X50090000Y40430000D01*
X50090000Y39740000D01*
X50090000Y39740000D01*
G37*
G36*
X50590000Y39740000D02*
X50310000Y39740000D01*
X50310000Y40430000D01*
X50590000Y40430000D01*
X50590000Y39740000D01*
X50590000Y39740000D01*
G37*
G36*
X51090000Y39740000D02*
X50810000Y39740000D01*
X50810000Y40430000D01*
X51090000Y40430000D01*
X51090000Y39740000D01*
X51090000Y39740000D01*
G37*
G36*
X51590000Y39740000D02*
X51310000Y39740000D01*
X51310000Y40430000D01*
X51590000Y40430000D01*
X51590000Y39740000D01*
X51590000Y39740000D01*
G37*
G36*
X52090000Y39740000D02*
X51810000Y39740000D01*
X51810000Y40430000D01*
X52090000Y40430000D01*
X52090000Y39740000D01*
X52090000Y39740000D01*
G37*
G36*
X52590000Y39740000D02*
X52310000Y39740000D01*
X52310000Y40430000D01*
X52590000Y40430000D01*
X52590000Y39740000D01*
X52590000Y39740000D01*
G37*
G36*
X25590000Y39740000D02*
X25310000Y39740000D01*
X25310000Y40430000D01*
X25590000Y40430000D01*
X25590000Y39740000D01*
X25590000Y39740000D01*
G37*
G36*
X26090000Y39740000D02*
X25810000Y39740000D01*
X25810000Y40430000D01*
X26090000Y40430000D01*
X26090000Y39740000D01*
X26090000Y39740000D01*
G37*
G36*
X26590000Y39740000D02*
X26310000Y39740000D01*
X26310000Y40430000D01*
X26590000Y40430000D01*
X26590000Y39740000D01*
X26590000Y39740000D01*
G37*
G36*
X27090000Y39740000D02*
X26810000Y39740000D01*
X26810000Y40430000D01*
X27090000Y40430000D01*
X27090000Y39740000D01*
X27090000Y39740000D01*
G37*
G36*
X27590000Y39740000D02*
X27310000Y39740000D01*
X27310000Y40430000D01*
X27590000Y40430000D01*
X27590000Y39740000D01*
X27590000Y39740000D01*
G37*
G36*
X28090000Y39740000D02*
X27810000Y39740000D01*
X27810000Y40430000D01*
X28090000Y40430000D01*
X28090000Y39740000D01*
X28090000Y39740000D01*
G37*
G36*
X28590000Y39740000D02*
X28310000Y39740000D01*
X28310000Y40430000D01*
X28590000Y40430000D01*
X28590000Y39740000D01*
X28590000Y39740000D01*
G37*
G36*
X29090000Y39740000D02*
X28810000Y39740000D01*
X28810000Y40430000D01*
X29090000Y40430000D01*
X29090000Y39740000D01*
X29090000Y39740000D01*
G37*
G36*
X29590000Y39740000D02*
X29310000Y39740000D01*
X29310000Y40430000D01*
X29590000Y40430000D01*
X29590000Y39740000D01*
X29590000Y39740000D01*
G37*
G36*
X6590000Y39740000D02*
X6310000Y39740000D01*
X6310000Y40430000D01*
X6590000Y40430000D01*
X6590000Y39740000D01*
X6590000Y39740000D01*
G37*
G36*
X46590000Y39740000D02*
X46310000Y39740000D01*
X46310000Y40430000D01*
X46590000Y40430000D01*
X46590000Y39740000D01*
X46590000Y39740000D01*
G37*
G36*
X7590000Y39740000D02*
X7310000Y39740000D01*
X7310000Y40430000D01*
X7590000Y40430000D01*
X7590000Y39740000D01*
X7590000Y39740000D01*
G37*
G36*
X30590000Y39740000D02*
X30310000Y39740000D01*
X30310000Y40430000D01*
X30590000Y40430000D01*
X30590000Y39740000D01*
X30590000Y39740000D01*
G37*
G36*
X31090000Y39740000D02*
X30810000Y39740000D01*
X30810000Y40430000D01*
X31090000Y40430000D01*
X31090000Y39740000D01*
X31090000Y39740000D01*
G37*
G36*
X31590000Y39740000D02*
X31310000Y39740000D01*
X31310000Y40430000D01*
X31590000Y40430000D01*
X31590000Y39740000D01*
X31590000Y39740000D01*
G37*
G36*
X4090000Y39740000D02*
X3810000Y39740000D01*
X3810000Y40430000D01*
X4090000Y40430000D01*
X4090000Y39740000D01*
X4090000Y39740000D01*
G37*
G36*
X4590000Y39740000D02*
X4310000Y39740000D01*
X4310000Y40430000D01*
X4590000Y40430000D01*
X4590000Y39740000D01*
X4590000Y39740000D01*
G37*
G36*
X5090000Y39740000D02*
X4810000Y39740000D01*
X4810000Y40430000D01*
X5090000Y40430000D01*
X5090000Y39740000D01*
X5090000Y39740000D01*
G37*
G36*
X5590000Y39740000D02*
X5310000Y39740000D01*
X5310000Y40430000D01*
X5590000Y40430000D01*
X5590000Y39740000D01*
X5590000Y39740000D01*
G37*
G36*
X6090000Y39740000D02*
X5810000Y39740000D01*
X5810000Y40430000D01*
X6090000Y40430000D01*
X6090000Y39740000D01*
X6090000Y39740000D01*
G37*
G36*
X7090000Y39740000D02*
X6810000Y39740000D01*
X6810000Y40430000D01*
X7090000Y40430000D01*
X7090000Y39740000D01*
X7090000Y39740000D01*
G37*
G36*
X30090000Y39740000D02*
X29810000Y39740000D01*
X29810000Y40430000D01*
X30090000Y40430000D01*
X30090000Y39740000D01*
X30090000Y39740000D01*
G37*
G36*
X8090000Y39740000D02*
X7810000Y39740000D01*
X7810000Y40430000D01*
X8090000Y40430000D01*
X8090000Y39740000D01*
X8090000Y39740000D01*
G37*
G36*
X8590000Y39740000D02*
X8310000Y39740000D01*
X8310000Y40430000D01*
X8590000Y40430000D01*
X8590000Y39740000D01*
X8590000Y39740000D01*
G37*
G36*
X9090000Y39740000D02*
X8810000Y39740000D01*
X8810000Y40430000D01*
X9090000Y40430000D01*
X9090000Y39740000D01*
X9090000Y39740000D01*
G37*
G36*
X9590000Y39740000D02*
X9310000Y39740000D01*
X9310000Y40430000D01*
X9590000Y40430000D01*
X9590000Y39740000D01*
X9590000Y39740000D01*
G37*
G36*
X10090000Y39740000D02*
X9810000Y39740000D01*
X9810000Y40430000D01*
X10090000Y40430000D01*
X10090000Y39740000D01*
X10090000Y39740000D01*
G37*
G36*
X10590000Y39740000D02*
X10310000Y39740000D01*
X10310000Y40430000D01*
X10590000Y40430000D01*
X10590000Y39740000D01*
X10590000Y39740000D01*
G37*
G36*
X47590000Y39740000D02*
X47310000Y39740000D01*
X47310000Y40430000D01*
X47590000Y40430000D01*
X47590000Y39740000D01*
X47590000Y39740000D01*
G37*
G36*
X47090000Y39740000D02*
X46810000Y39740000D01*
X46810000Y40430000D01*
X47090000Y40430000D01*
X47090000Y39740000D01*
X47090000Y39740000D01*
G37*
G36*
X46090000Y39740000D02*
X45810000Y39740000D01*
X45810000Y40430000D01*
X46090000Y40430000D01*
X46090000Y39740000D01*
X46090000Y39740000D01*
G37*
G36*
X34270000Y42450000D02*
X32570000Y42450000D01*
X32570000Y44150000D01*
X34270000Y44150000D01*
X34270000Y42450000D01*
X34270000Y42450000D01*
G37*
G36*
X15910000Y42450000D02*
X14210000Y42450000D01*
X14210000Y44150000D01*
X15910000Y44150000D01*
X15910000Y42450000D01*
X15910000Y42450000D01*
G37*
G36*
X36126629Y44137700D02*
X36286855Y44089097D01*
X36434519Y44010168D01*
X36563948Y43903948D01*
X36670168Y43774519D01*
X36749097Y43626855D01*
X36797700Y43466629D01*
X36814112Y43300000D01*
X36797700Y43133371D01*
X36749097Y42973145D01*
X36670168Y42825481D01*
X36563948Y42696052D01*
X36434519Y42589832D01*
X36286855Y42510903D01*
X36126629Y42462300D01*
X36001749Y42450000D01*
X35918251Y42450000D01*
X35793371Y42462300D01*
X35633145Y42510903D01*
X35485481Y42589832D01*
X35356052Y42696052D01*
X35249832Y42825481D01*
X35170903Y42973145D01*
X35122300Y43133371D01*
X35105888Y43300000D01*
X35122300Y43466629D01*
X35170903Y43626855D01*
X35249832Y43774519D01*
X35356052Y43903948D01*
X35485481Y44010168D01*
X35633145Y44089097D01*
X35793371Y44137700D01*
X35918251Y44150000D01*
X36001749Y44150000D01*
X36126629Y44137700D01*
X36126629Y44137700D01*
G37*
G36*
X17766629Y44137700D02*
X17926855Y44089097D01*
X18074519Y44010168D01*
X18203948Y43903948D01*
X18310168Y43774519D01*
X18389097Y43626855D01*
X18437700Y43466629D01*
X18454112Y43300000D01*
X18437700Y43133371D01*
X18389097Y42973145D01*
X18310168Y42825481D01*
X18203948Y42696052D01*
X18074519Y42589832D01*
X17926855Y42510903D01*
X17766629Y42462300D01*
X17641749Y42450000D01*
X17558251Y42450000D01*
X17433371Y42462300D01*
X17273145Y42510903D01*
X17125481Y42589832D01*
X16996052Y42696052D01*
X16889832Y42825481D01*
X16810903Y42973145D01*
X16762300Y43133371D01*
X16745888Y43300000D01*
X16762300Y43466629D01*
X16810903Y43626855D01*
X16889832Y43774519D01*
X16996052Y43903948D01*
X17125481Y44010168D01*
X17273145Y44089097D01*
X17433371Y44137700D01*
X17558251Y44150000D01*
X17641749Y44150000D01*
X17766629Y44137700D01*
X17766629Y44137700D01*
G37*
G36*
X53991689Y44611571D02*
X54173678Y44536189D01*
X54337463Y44426751D01*
X54476751Y44287463D01*
X54586189Y44123678D01*
X54661571Y43941689D01*
X54700000Y43748491D01*
X54700000Y43551509D01*
X54661571Y43358311D01*
X54586189Y43176322D01*
X54476751Y43012537D01*
X54337463Y42873249D01*
X54173678Y42763811D01*
X53991689Y42688429D01*
X53798491Y42650000D01*
X53601509Y42650000D01*
X53408311Y42688429D01*
X53226322Y42763811D01*
X53062537Y42873249D01*
X52923249Y43012537D01*
X52813811Y43176322D01*
X52738429Y43358311D01*
X52700000Y43551509D01*
X52700000Y43748491D01*
X52738429Y43941689D01*
X52813811Y44123678D01*
X52923249Y44287463D01*
X53062537Y44426751D01*
X53226322Y44536189D01*
X53408311Y44611571D01*
X53601509Y44650000D01*
X53798491Y44650000D01*
X53991689Y44611571D01*
X53991689Y44611571D01*
G37*
G36*
X26191689Y44611571D02*
X26373678Y44536189D01*
X26537463Y44426751D01*
X26676751Y44287463D01*
X26786189Y44123678D01*
X26861571Y43941689D01*
X26900000Y43748491D01*
X26900000Y43551509D01*
X26861571Y43358311D01*
X26786189Y43176322D01*
X26676751Y43012537D01*
X26537463Y42873249D01*
X26373678Y42763811D01*
X26191689Y42688429D01*
X25998491Y42650000D01*
X25801509Y42650000D01*
X25608311Y42688429D01*
X25426322Y42763811D01*
X25262537Y42873249D01*
X25123249Y43012537D01*
X25013811Y43176322D01*
X24938429Y43358311D01*
X24900000Y43551509D01*
X24900000Y43748491D01*
X24938429Y43941689D01*
X25013811Y44123678D01*
X25123249Y44287463D01*
X25262537Y44426751D01*
X25426322Y44536189D01*
X25608311Y44611571D01*
X25801509Y44650000D01*
X25998491Y44650000D01*
X26191689Y44611571D01*
X26191689Y44611571D01*
G37*
M02*
