G04 #@! TF.GenerationSoftware,KiCad,Pcbnew,(5.0.1)-3*
G04 #@! TF.CreationDate,2019-05-17T14:34:35+10:00*
G04 #@! TF.ProjectId,UVTV,555654562E6B696361645F7063620000,1*
G04 #@! TF.SameCoordinates,PX30291a0PY5aa5910*
G04 #@! TF.FileFunction,Copper,L2,Inr,Signal*
G04 #@! TF.FilePolarity,Positive*
%FSLAX46Y46*%
G04 Gerber Fmt 4.6, Leading zero omitted, Abs format (unit mm)*
G04 Created by KiCad (PCBNEW (5.0.1)-3) date 2019-05-17 2:34:35 PM*
%MOMM*%
%LPD*%
G01*
G04 APERTURE LIST*
G04 #@! TA.AperFunction,NonConductor*
%ADD10C,0.200000*%
G04 #@! TD*
G04 #@! TA.AperFunction,ViaPad*
%ADD11O,1.700000X1.700000*%
G04 #@! TD*
G04 #@! TA.AperFunction,ViaPad*
%ADD12R,1.700000X1.700000*%
G04 #@! TD*
G04 #@! TA.AperFunction,ViaPad*
%ADD13C,0.500000*%
G04 #@! TD*
G04 #@! TA.AperFunction,Conductor*
%ADD14C,0.100000*%
G04 #@! TD*
G04 APERTURE END LIST*
D10*
X47770476Y1602381D02*
X47818095Y1650000D01*
X47913333Y1697620D01*
X48151428Y1697620D01*
X48246666Y1650000D01*
X48294285Y1602381D01*
X48341904Y1507143D01*
X48341904Y1411905D01*
X48294285Y1269048D01*
X47722857Y697620D01*
X48341904Y697620D01*
D11*
G04 #@! TO.N,GND*
G04 #@! TO.C,J2*
X17600000Y43300000D03*
D12*
X15060000Y43300000D03*
G04 #@! TD*
D11*
G04 #@! TO.N,+3V3*
G04 #@! TO.C,J3*
X35960000Y43300000D03*
D12*
X33420000Y43300000D03*
G04 #@! TD*
D13*
G04 #@! TO.N,GND*
X31700000Y27800000D03*
X11400006Y27500000D03*
X20150000Y35000006D03*
X41131144Y34620358D03*
X31700000Y6600000D03*
X41131144Y13420358D03*
X11400006Y6300000D03*
X20150000Y13800006D03*
X1650000Y33450000D03*
X2050000Y28950000D03*
X1200000Y23400000D03*
X1250000Y24900000D03*
X1700000Y19550000D03*
G04 #@! TO.N,+3V3*
X22800000Y35000000D03*
X33200000Y26950000D03*
X43850000Y34800000D03*
X11729869Y26861547D03*
X33200000Y5750000D03*
X22800000Y13800000D03*
X1800000Y13800000D03*
X43850000Y13600000D03*
X11729869Y5661547D03*
X1700000Y35200000D03*
G04 #@! TO.N,/G1A0*
X3450000Y44100018D03*
G04 #@! TO.N,/R1A0*
X2550000Y44100016D03*
G04 #@! TO.N,/B1A0*
X3450023Y42699977D03*
G04 #@! TO.N,/B1A1*
X6699992Y40850000D03*
G04 #@! TO.N,/R1A1*
X7139934Y41450022D03*
G04 #@! TO.N,/G1A1*
X8039934Y41450034D03*
G04 #@! TO.N,/G1A2*
X12629869Y44100024D03*
G04 #@! TO.N,/R1A2*
X11729869Y44100024D03*
G04 #@! TO.N,/B1A2*
X12629869Y42700000D03*
G04 #@! TO.N,/B1A3*
X17219803Y40050000D03*
X13600000Y40850000D03*
G04 #@! TO.N,/R1A3*
X16319803Y41450000D03*
G04 #@! TO.N,/G1A3*
X17219803Y41450000D03*
G04 #@! TO.N,/G1A4*
X2300026Y39550000D03*
G04 #@! TO.N,/R1A4*
X2550000Y38799973D03*
G04 #@! TO.N,/B1A4*
X1800000Y38800000D03*
G04 #@! TO.N,/B1A5*
X8039934Y34750001D03*
X4950000Y41150000D03*
G04 #@! TO.N,/R1A5*
X7139934Y36150001D03*
X5450000Y41700000D03*
G04 #@! TO.N,/G1A5*
X8039934Y36150001D03*
X5950000Y41350000D03*
G04 #@! TO.N,/G1A6*
X12647769Y38817932D03*
G04 #@! TO.N,/R1A6*
X12500010Y39600000D03*
G04 #@! TO.N,/B1A6*
X13150000Y39600000D03*
G04 #@! TO.N,/B1A7*
X17219803Y34750001D03*
G04 #@! TO.N,/R1A7*
X16319803Y36150029D03*
G04 #@! TO.N,/G1A7*
X17219808Y36149996D03*
G04 #@! TO.N,/G1A8*
X3976024Y33499990D03*
G04 #@! TO.N,/R1A8*
X2550044Y33500000D03*
G04 #@! TO.N,/B1A8*
X2450000Y34350000D03*
G04 #@! TO.N,/B1A9*
X7100000Y30150000D03*
G04 #@! TO.N,/R1A9*
X6000000Y30850000D03*
G04 #@! TO.N,/G1A9*
X5950000Y31700000D03*
G04 #@! TO.N,/G1A10*
X12557091Y33427222D03*
X10450000Y31699998D03*
G04 #@! TO.N,/R1A10*
X9200000Y33100000D03*
G04 #@! TO.N,/B1A10*
X12593685Y32168195D03*
X9150000Y31650000D03*
G04 #@! TO.N,/B1A11*
X12146721Y35047169D03*
X15700157Y31635776D03*
G04 #@! TO.N,/R1A11*
X12850000Y35499998D03*
X16300000Y31900000D03*
G04 #@! TO.N,/G1A11*
X11950000Y35949998D03*
X17200000Y31950000D03*
G04 #@! TO.N,/G1A12*
X3450000Y28200000D03*
G04 #@! TO.N,/R1A12*
X3450000Y28950008D03*
G04 #@! TO.N,/B1A12*
X3500008Y26800000D03*
G04 #@! TO.N,/B1A13*
X8049990Y26450000D03*
G04 #@! TO.N,/R1A13*
X7139934Y25549990D03*
G04 #@! TO.N,/G1A13*
X8039935Y25549999D03*
G04 #@! TO.N,/G1A14*
X9297445Y28452294D03*
G04 #@! TO.N,/R1A14*
X8906618Y27997027D03*
G04 #@! TO.N,/B1A14*
X12629869Y26800000D03*
G04 #@! TO.N,/B1A15*
X15599988Y25550000D03*
X9950000Y29400000D03*
G04 #@! TO.N,/R1A15*
X16319803Y25549990D03*
X10700000Y29250000D03*
G04 #@! TO.N,/G1A15*
X17219832Y25550029D03*
X13100000Y28800000D03*
G04 #@! TO.N,/G1B0*
X21809738Y44100000D03*
G04 #@! TO.N,/R1B0*
X20909738Y44100000D03*
G04 #@! TO.N,/B1B0*
X21809738Y42700000D03*
G04 #@! TO.N,/B1B1*
X27450000Y41200000D03*
G04 #@! TO.N,/R1B1*
X25499673Y41450000D03*
G04 #@! TO.N,/G1B1*
X26400000Y42150000D03*
G04 #@! TO.N,/G1B2*
X30989607Y44100000D03*
G04 #@! TO.N,/R1B2*
X30089607Y44100000D03*
G04 #@! TO.N,/B1B2*
X29650000Y43350000D03*
G04 #@! TO.N,/B1B3*
X33949990Y41200000D03*
G04 #@! TO.N,/R1B3*
X34679542Y41449998D03*
G04 #@! TO.N,/G1B3*
X35579542Y41449998D03*
G04 #@! TO.N,/G1B4*
X21809738Y38800001D03*
G04 #@! TO.N,/R1B4*
X22700000Y38500000D03*
G04 #@! TO.N,/B1B4*
X21809738Y37400021D03*
G04 #@! TO.N,/B1B5*
X25950000Y40800000D03*
X26400000Y35450000D03*
G04 #@! TO.N,/R1B5*
X26450000Y41200000D03*
X25532516Y36182844D03*
G04 #@! TO.N,/G1B5*
X26399673Y36150001D03*
X26950002Y40800000D03*
G04 #@! TO.N,/G1B6*
X30989607Y38800001D03*
X31949998Y40100002D03*
G04 #@! TO.N,/R1B6*
X30089607Y38800001D03*
X30950000Y40800000D03*
G04 #@! TO.N,/B1B6*
X30989607Y37400001D03*
X30450000Y41249992D03*
G04 #@! TO.N,/B1B7*
X35550000Y36850000D03*
G04 #@! TO.N,/R1B7*
X34679542Y36150001D03*
G04 #@! TO.N,/G1B7*
X35579542Y36150001D03*
G04 #@! TO.N,/G1B8*
X23250000Y33150000D03*
G04 #@! TO.N,/R1B8*
X23249994Y33750000D03*
G04 #@! TO.N,/B1B8*
X23200000Y32499996D03*
G04 #@! TO.N,/B1B9*
X26399673Y29450000D03*
G04 #@! TO.N,/R1B9*
X25499673Y30850000D03*
G04 #@! TO.N,/G1B9*
X26399673Y30850000D03*
G04 #@! TO.N,/G1B10*
X31549979Y31600000D03*
G04 #@! TO.N,/R1B10*
X30950004Y31200000D03*
X30089607Y33500000D03*
G04 #@! TO.N,/B1B10*
X30989607Y32100000D03*
X30450000Y31550000D03*
G04 #@! TO.N,/B1B11*
X32659666Y30957333D03*
G04 #@! TO.N,/R1B11*
X33100000Y31750000D03*
G04 #@! TO.N,/G1B11*
X33600000Y32600000D03*
G04 #@! TO.N,/B1B12*
X23563449Y27110918D03*
G04 #@! TO.N,/R1B12*
X23203610Y28295908D03*
G04 #@! TO.N,/G1B12*
X23200000Y27650000D03*
G04 #@! TO.N,/G1B13*
X26399673Y25550000D03*
G04 #@! TO.N,/R1B13*
X25499673Y25550000D03*
G04 #@! TO.N,/B1B13*
X26399673Y24150000D03*
G04 #@! TO.N,/B1B14*
X30050000Y27500000D03*
G04 #@! TO.N,/R1B14*
X30089607Y28200000D03*
G04 #@! TO.N,/G1B14*
X30250000Y28950000D03*
G04 #@! TO.N,/G1B15*
X35579542Y25550000D03*
X32500000Y26300000D03*
G04 #@! TO.N,/R1B15*
X34679542Y25550000D03*
X32000000Y26850000D03*
G04 #@! TO.N,/B1B15*
X35579542Y24150000D03*
X31100000Y28900000D03*
G04 #@! TO.N,/B1C0*
X40169477Y42700000D03*
G04 #@! TO.N,/R1C0*
X39269477Y44100000D03*
G04 #@! TO.N,/G1C0*
X40169477Y44100000D03*
G04 #@! TO.N,/G1C1*
X44759411Y41450000D03*
G04 #@! TO.N,/R1C1*
X43859411Y41450000D03*
G04 #@! TO.N,/B1C1*
X45900000Y41200000D03*
G04 #@! TO.N,/B1C2*
X49349346Y42700000D03*
G04 #@! TO.N,/R1C2*
X48449346Y44100000D03*
G04 #@! TO.N,/G1C2*
X49349346Y44100000D03*
G04 #@! TO.N,/G1C3*
X53939281Y41450000D03*
G04 #@! TO.N,/R1C3*
X53039281Y41450000D03*
G04 #@! TO.N,/B1C3*
X53939281Y40050000D03*
G04 #@! TO.N,/B1C4*
X40169477Y37400001D03*
G04 #@! TO.N,/R1C4*
X40967157Y38332843D03*
G04 #@! TO.N,/G1C4*
X40169477Y38800001D03*
G04 #@! TO.N,/G1C5*
X47550000Y40800000D03*
X44759411Y36150001D03*
G04 #@! TO.N,/R1C5*
X46750000Y40800000D03*
X43859402Y36149990D03*
G04 #@! TO.N,/B1C5*
X46950000Y39400000D03*
X44759411Y34750001D03*
G04 #@! TO.N,/B1C6*
X49349346Y37400001D03*
X50874274Y41175716D03*
G04 #@! TO.N,/R1C6*
X50850000Y42000000D03*
X48449346Y38800001D03*
G04 #@! TO.N,/G1C6*
X51850000Y41600000D03*
X49349346Y38800001D03*
G04 #@! TO.N,/G1C7*
X53749986Y36800000D03*
G04 #@! TO.N,/R1C7*
X53039281Y36150001D03*
X53749990Y37500000D03*
G04 #@! TO.N,/B1C7*
X54300000Y37100000D03*
G04 #@! TO.N,/B1C8*
X40169477Y32100000D03*
X43950000Y33000000D03*
G04 #@! TO.N,/R1C8*
X39849979Y34150000D03*
X44699996Y34000000D03*
G04 #@! TO.N,/G1C8*
X40169477Y33500000D03*
X44350000Y33500000D03*
G04 #@! TO.N,/G1C9*
X46850000Y29450000D03*
G04 #@! TO.N,/R1C9*
X46850000Y30150000D03*
G04 #@! TO.N,/B1C9*
X46165031Y29450000D03*
G04 #@! TO.N,/G1C10*
X51650000Y30900000D03*
G04 #@! TO.N,/R1C10*
X51050000Y30899996D03*
G04 #@! TO.N,/B1C10*
X50450000Y30900000D03*
G04 #@! TO.N,/G1C11*
X53939281Y30850000D03*
G04 #@! TO.N,/R1C11*
X53126770Y30828212D03*
G04 #@! TO.N,/B1C11*
X53939281Y29450000D03*
G04 #@! TO.N,/B1C12*
X40169477Y26800000D03*
X43956588Y27499980D03*
G04 #@! TO.N,/R1C12*
X39269477Y28200000D03*
X45400000Y27899990D03*
G04 #@! TO.N,/G1C12*
X40169477Y28200000D03*
X46050000Y28850002D03*
G04 #@! TO.N,/G1C13*
X44759398Y25550043D03*
G04 #@! TO.N,/R1C13*
X44800026Y26250000D03*
G04 #@! TO.N,/B1C13*
X45450000Y26650000D03*
G04 #@! TO.N,/B1C14*
X49349346Y26800000D03*
G04 #@! TO.N,/R1C14*
X48449346Y28200000D03*
G04 #@! TO.N,/G1C14*
X49349346Y28200000D03*
G04 #@! TO.N,/G1C15*
X53939281Y25550000D03*
G04 #@! TO.N,/R1C15*
X53039281Y25550000D03*
G04 #@! TO.N,/B1C15*
X53939281Y24150000D03*
G04 #@! TO.N,/B2A0*
X3449992Y21499992D03*
G04 #@! TO.N,/R2A0*
X3900000Y22200004D03*
G04 #@! TO.N,/G2A0*
X3449980Y22900000D03*
G04 #@! TO.N,/G2A1*
X8039934Y20250034D03*
G04 #@! TO.N,/R2A1*
X7139934Y20250022D03*
G04 #@! TO.N,/B2A1*
X6699992Y19650000D03*
G04 #@! TO.N,/B2A2*
X12629869Y21500000D03*
G04 #@! TO.N,/R2A2*
X11750000Y22250000D03*
G04 #@! TO.N,/G2A2*
X12649994Y22250000D03*
G04 #@! TO.N,/G2A3*
X17219803Y20250000D03*
G04 #@! TO.N,/R2A3*
X16319803Y20250000D03*
G04 #@! TO.N,/B2A3*
X17219803Y18850000D03*
G04 #@! TO.N,/B2A4*
X4050000Y16800000D03*
G04 #@! TO.N,/R2A4*
X2550000Y17599973D03*
G04 #@! TO.N,/G2A4*
X2300026Y18350000D03*
G04 #@! TO.N,/G2A5*
X5950000Y20150000D03*
X8039934Y14950001D03*
G04 #@! TO.N,/R2A5*
X7139934Y14950001D03*
X5450000Y20500000D03*
G04 #@! TO.N,/B2A5*
X8039934Y13550001D03*
X4800000Y19800000D03*
G04 #@! TO.N,/B2A6*
X13150000Y18400000D03*
G04 #@! TO.N,/R2A6*
X12500010Y18400000D03*
G04 #@! TO.N,/G2A6*
X12647769Y17617932D03*
G04 #@! TO.N,/G2A7*
X17219808Y14949996D03*
G04 #@! TO.N,/R2A7*
X16319803Y14950029D03*
G04 #@! TO.N,/B2A7*
X17219803Y13550001D03*
G04 #@! TO.N,/B2A8*
X2550000Y11600000D03*
G04 #@! TO.N,/R2A8*
X2550044Y12300000D03*
G04 #@! TO.N,/G2A8*
X4050000Y12300000D03*
G04 #@! TO.N,/G2A9*
X5950000Y10500000D03*
G04 #@! TO.N,/R2A9*
X6000000Y9650000D03*
G04 #@! TO.N,/B2A9*
X7350000Y9000000D03*
G04 #@! TO.N,/B2A10*
X9150000Y10450000D03*
X12593685Y10968195D03*
G04 #@! TO.N,/R2A10*
X9200000Y11900000D03*
G04 #@! TO.N,/G2A10*
X10450000Y10499998D03*
X12557091Y12227222D03*
G04 #@! TO.N,/G2A11*
X11950000Y14749998D03*
X17200000Y10750000D03*
G04 #@! TO.N,/R2A11*
X12850000Y14299998D03*
X16300000Y10700000D03*
G04 #@! TO.N,/B2A11*
X12146721Y13847169D03*
X15700157Y10435776D03*
G04 #@! TO.N,/B2A12*
X3450000Y5600000D03*
G04 #@! TO.N,/R2A12*
X2550006Y7000006D03*
G04 #@! TO.N,/G2A12*
X3450000Y6999980D03*
G04 #@! TO.N,/G2A13*
X8050032Y4349999D03*
G04 #@! TO.N,/R2A13*
X8200000Y5250000D03*
G04 #@! TO.N,/B2A13*
X8750000Y4200000D03*
G04 #@! TO.N,/B2A14*
X12629869Y5600000D03*
G04 #@! TO.N,/R2A14*
X8906618Y6797027D03*
G04 #@! TO.N,/G2A14*
X9297445Y7252294D03*
G04 #@! TO.N,/G2A15*
X17219832Y4350029D03*
X13100000Y7600000D03*
G04 #@! TO.N,/R2A15*
X16319803Y4349990D03*
X10700000Y8050000D03*
G04 #@! TO.N,/B2A15*
X15599988Y4350000D03*
X9950000Y8200000D03*
G04 #@! TO.N,/G2B0*
X21800000Y22300000D03*
G04 #@! TO.N,/R2B0*
X20900000Y22250000D03*
G04 #@! TO.N,/B2B0*
X21809738Y21499988D03*
G04 #@! TO.N,/B2B1*
X27450000Y20000000D03*
G04 #@! TO.N,/R2B1*
X25499673Y20250000D03*
G04 #@! TO.N,/G2B1*
X26400000Y20950000D03*
G04 #@! TO.N,/G2B2*
X30989607Y22900000D03*
G04 #@! TO.N,/R2B2*
X30089607Y22900000D03*
G04 #@! TO.N,/B2B2*
X29650000Y22150000D03*
G04 #@! TO.N,/B2B3*
X35579542Y18850000D03*
G04 #@! TO.N,/R2B3*
X34679542Y20250000D03*
G04 #@! TO.N,/G2B3*
X35579542Y20250000D03*
G04 #@! TO.N,/G2B4*
X21809738Y17600001D03*
G04 #@! TO.N,/R2B4*
X20909738Y17600001D03*
G04 #@! TO.N,/B2B4*
X21809738Y16200021D03*
G04 #@! TO.N,/B2B5*
X26400000Y14250000D03*
X25950000Y19600000D03*
G04 #@! TO.N,/R2B5*
X25532516Y14982844D03*
X26450000Y20000000D03*
G04 #@! TO.N,/G2B5*
X26950002Y19600000D03*
X26399673Y14950001D03*
G04 #@! TO.N,/G2B6*
X30989607Y17600001D03*
X31949998Y18900002D03*
G04 #@! TO.N,/R2B6*
X30950000Y19600000D03*
X30089607Y17600001D03*
G04 #@! TO.N,/B2B6*
X30450000Y20049992D03*
X30989607Y16200001D03*
G04 #@! TO.N,/B2B7*
X35550000Y15650000D03*
G04 #@! TO.N,/R2B7*
X34679542Y14950001D03*
G04 #@! TO.N,/G2B7*
X35579542Y14950001D03*
G04 #@! TO.N,/G2B8*
X23250000Y11950000D03*
G04 #@! TO.N,/R2B8*
X23249994Y12550000D03*
G04 #@! TO.N,/B2B8*
X23200000Y11299996D03*
G04 #@! TO.N,/B2B9*
X26399673Y8250000D03*
G04 #@! TO.N,/R2B9*
X25499673Y9650000D03*
G04 #@! TO.N,/G2B9*
X26399673Y9650000D03*
G04 #@! TO.N,/G2B10*
X31549979Y10400000D03*
G04 #@! TO.N,/R2B10*
X30950004Y10000000D03*
X30089607Y12300000D03*
G04 #@! TO.N,/B2B10*
X30989607Y10900000D03*
X30450000Y10350000D03*
G04 #@! TO.N,/B2B11*
X32659666Y9757333D03*
G04 #@! TO.N,/R2B11*
X33100000Y10550000D03*
G04 #@! TO.N,/G2B11*
X33600000Y11400000D03*
G04 #@! TO.N,/G2B12*
X23200000Y6450000D03*
G04 #@! TO.N,/R2B12*
X23203610Y7095908D03*
G04 #@! TO.N,/B2B12*
X23563449Y5910918D03*
G04 #@! TO.N,/B2B13*
X26399673Y2950000D03*
G04 #@! TO.N,/R2B13*
X25499673Y4350000D03*
G04 #@! TO.N,/G2B13*
X26399673Y4350000D03*
G04 #@! TO.N,/G2B14*
X30250000Y7750000D03*
G04 #@! TO.N,/R2B14*
X30089607Y7000000D03*
G04 #@! TO.N,/B2B14*
X30050000Y6300000D03*
G04 #@! TO.N,/B2B15*
X35579542Y2950000D03*
X31100000Y7700000D03*
G04 #@! TO.N,/R2B15*
X34679542Y4350000D03*
X32000000Y5650000D03*
G04 #@! TO.N,/G2B15*
X32500000Y5100000D03*
X35579542Y4350000D03*
G04 #@! TO.N,/G2C0*
X40200000Y22250000D03*
G04 #@! TO.N,/R2C0*
X39300000Y22250000D03*
G04 #@! TO.N,/B2C0*
X40169477Y21449988D03*
G04 #@! TO.N,/B2C1*
X45900000Y20000000D03*
G04 #@! TO.N,/R2C1*
X43859411Y20250000D03*
G04 #@! TO.N,/G2C1*
X44759411Y20250000D03*
G04 #@! TO.N,/G2C2*
X49349346Y22900000D03*
G04 #@! TO.N,/R2C2*
X48449346Y22900000D03*
G04 #@! TO.N,/B2C2*
X49349346Y21500000D03*
G04 #@! TO.N,/B2C3*
X53400000Y19550000D03*
G04 #@! TO.N,/R2C3*
X53039281Y20250000D03*
G04 #@! TO.N,/G2C3*
X53932029Y20300012D03*
G04 #@! TO.N,/G2C4*
X40169477Y17600001D03*
G04 #@! TO.N,/R2C4*
X39269477Y17600001D03*
G04 #@! TO.N,/B2C4*
X40169477Y16200001D03*
G04 #@! TO.N,/B2C5*
X44759411Y13550001D03*
X46950000Y18200000D03*
G04 #@! TO.N,/R2C5*
X46750000Y19600000D03*
X43859402Y14949990D03*
G04 #@! TO.N,/G2C5*
X44759411Y14950001D03*
X47550000Y19600000D03*
G04 #@! TO.N,/G2C6*
X49349346Y17600001D03*
X51850000Y20400000D03*
G04 #@! TO.N,/R2C6*
X50850000Y20800000D03*
X48449346Y17600001D03*
G04 #@! TO.N,/B2C6*
X50874274Y19975716D03*
X49349346Y16200001D03*
G04 #@! TO.N,/B2C7*
X54100000Y16050000D03*
G04 #@! TO.N,/R2C7*
X53039281Y14950001D03*
X53750000Y16550000D03*
G04 #@! TO.N,/G2C7*
X53731628Y15576379D03*
G04 #@! TO.N,/G2C8*
X40169477Y12300000D03*
X44350000Y12300000D03*
G04 #@! TO.N,/R2C8*
X44699996Y12800000D03*
X39849979Y12950000D03*
G04 #@! TO.N,/B2C8*
X40169477Y10900000D03*
X43950000Y11800000D03*
G04 #@! TO.N,/B2C9*
X46165031Y8250000D03*
G04 #@! TO.N,/R2C9*
X46850000Y8950000D03*
G04 #@! TO.N,/G2C9*
X46850000Y8250000D03*
G04 #@! TO.N,/G2C10*
X51650000Y9700000D03*
G04 #@! TO.N,/R2C10*
X51050000Y9699996D03*
G04 #@! TO.N,/B2C10*
X50450000Y9700000D03*
G04 #@! TO.N,/B2C11*
X53939281Y8250000D03*
G04 #@! TO.N,/R2C11*
X53126770Y9628212D03*
G04 #@! TO.N,/G2C11*
X53939281Y9650000D03*
G04 #@! TO.N,/G2C12*
X46050000Y7650002D03*
X40169477Y7000000D03*
G04 #@! TO.N,/R2C12*
X39269477Y7000000D03*
X45400000Y6699990D03*
G04 #@! TO.N,/B2C12*
X43956588Y6299980D03*
X40169477Y5600000D03*
G04 #@! TO.N,/G2C13*
X44759398Y4350043D03*
G04 #@! TO.N,/R2C13*
X44800026Y5050000D03*
G04 #@! TO.N,/B2C13*
X45450000Y5450000D03*
G04 #@! TO.N,/B2C14*
X48000000Y6300000D03*
G04 #@! TO.N,/R2C14*
X48449346Y7000000D03*
G04 #@! TO.N,/G2C14*
X49349346Y7000000D03*
G04 #@! TO.N,/G2C15*
X53939281Y4350000D03*
G04 #@! TO.N,/R2C15*
X53039281Y4350000D03*
G04 #@! TO.N,/B2C15*
X53350000Y5250000D03*
G04 #@! TO.N,/UV1A0*
X2965000Y40725000D03*
X13496030Y33109741D03*
G04 #@! TO.N,/UV1A1*
X12179869Y40725000D03*
X13500000Y36550006D03*
G04 #@! TO.N,/UV1A2*
X16769803Y38075000D03*
G04 #@! TO.N,/UV1A3*
X25949673Y38075000D03*
X20350000Y38050000D03*
G04 #@! TO.N,/UV1A4*
X3000000Y35425000D03*
X13200002Y30800000D03*
G04 #@! TO.N,/UV1A5*
X14091845Y34499989D03*
G04 #@! TO.N,/UV1A6*
X18200000Y32200002D03*
G04 #@! TO.N,/UV1A7*
X22499996Y30800000D03*
X25950000Y32750000D03*
G04 #@! TO.N,/UV1A8*
X2999990Y30125000D03*
X6600000Y26400000D03*
G04 #@! TO.N,/UV1A9*
X15450000Y24500000D03*
X10097581Y28644696D03*
G04 #@! TO.N,/UV1A10*
X16769803Y27475001D03*
X18950000Y23900010D03*
G04 #@! TO.N,/UV1A11*
X25949673Y27475001D03*
G04 #@! TO.N,/UV1A12*
X3500000Y24800000D03*
G04 #@! TO.N,/UV1A13*
X12179869Y24825000D03*
G04 #@! TO.N,/UV1A14*
X16769787Y22174984D03*
G04 #@! TO.N,/UV1A15*
X25949673Y22175000D03*
G04 #@! TO.N,/UV1B0*
X17950000Y33600000D03*
X7589934Y38075000D03*
G04 #@! TO.N,/UV1B1*
X21359738Y40725000D03*
G04 #@! TO.N,/UV1B2*
X7590310Y32775376D03*
X15200002Y32200000D03*
G04 #@! TO.N,/UV1B3*
X21359738Y35425000D03*
X22550000Y29899990D03*
G04 #@! TO.N,/UV1B4*
X13500000Y24750000D03*
X7519198Y27456788D03*
G04 #@! TO.N,/UV1B5*
X22550000Y28800000D03*
G04 #@! TO.N,/UV1B6*
X7589934Y22175000D03*
G04 #@! TO.N,/UV1B7*
X22649994Y25200000D03*
G04 #@! TO.N,/UV1B8*
X38200023Y34213866D03*
X35119422Y38064880D03*
G04 #@! TO.N,/UV1B9*
X48899346Y40725000D03*
X43250000Y31300000D03*
G04 #@! TO.N,/UV1B10*
X37000021Y34200000D03*
G04 #@! TO.N,/UV1B11*
X43250000Y29800000D03*
X48899346Y35425000D03*
G04 #@! TO.N,/UV1B12*
X37450000Y24500000D03*
X36600000Y27450000D03*
G04 #@! TO.N,/UV1B13*
X48899346Y30125000D03*
X43600000Y28300000D03*
G04 #@! TO.N,/UV1B14*
X35129542Y22175000D03*
G04 #@! TO.N,/UV1B15*
X48899346Y24825000D03*
G04 #@! TO.N,/UV1C0*
X34239233Y35436402D03*
X31653276Y41252817D03*
G04 #@! TO.N,/UV1C1*
X39719507Y40725000D03*
G04 #@! TO.N,/UV1C2*
X44259411Y38024903D03*
G04 #@! TO.N,/UV1C3*
X44250023Y31800000D03*
X53000000Y38100000D03*
G04 #@! TO.N,/UV1C4*
X30539607Y35425000D03*
X33300000Y30950000D03*
G04 #@! TO.N,/UV1C5*
X38399985Y35500033D03*
G04 #@! TO.N,/UV1C6*
X40891181Y33573925D03*
G04 #@! TO.N,/UV1C7*
X53489281Y32775000D03*
X44300000Y30300000D03*
G04 #@! TO.N,/UV1C8*
X30518070Y30082110D03*
G04 #@! TO.N,/UV1C9*
X39719477Y30125000D03*
X36450009Y24500010D03*
G04 #@! TO.N,/UV1C10*
X40950000Y24500000D03*
X44788350Y27449360D03*
G04 #@! TO.N,/UV1C11*
X53489281Y27475001D03*
G04 #@! TO.N,/UV1C12*
X30539607Y24825000D03*
G04 #@! TO.N,/UV1C13*
X37950000Y24050021D03*
G04 #@! TO.N,/UV1C14*
X44309411Y22175000D03*
G04 #@! TO.N,/UV1C15*
X53489281Y22175000D03*
G04 #@! TO.N,/UV2A0*
X2965000Y19525000D03*
X13496030Y11909741D03*
G04 #@! TO.N,/UV2A1*
X13500000Y15350006D03*
X12179869Y19525000D03*
G04 #@! TO.N,/UV2A2*
X16769803Y16875000D03*
G04 #@! TO.N,/UV2A3*
X25949673Y16875000D03*
X19500000Y18000000D03*
G04 #@! TO.N,/UV2A4*
X3000000Y14225000D03*
X13200002Y9600000D03*
G04 #@! TO.N,/UV2A5*
X14091845Y13299989D03*
G04 #@! TO.N,/UV2A6*
X18200000Y11000002D03*
G04 #@! TO.N,/UV2A7*
X22499996Y9600000D03*
X25950000Y11550000D03*
G04 #@! TO.N,/UV2A8*
X2965000Y8925000D03*
X9100000Y4800000D03*
G04 #@! TO.N,/UV2A9*
X15450000Y3300000D03*
X10097581Y7444696D03*
G04 #@! TO.N,/UV2A10*
X16769803Y6275001D03*
X18950000Y2600000D03*
G04 #@! TO.N,/UV2A11*
X25949673Y6275001D03*
G04 #@! TO.N,/UV2A12*
X3000000Y3625000D03*
G04 #@! TO.N,/UV2A13*
X12179869Y3625000D03*
G04 #@! TO.N,/UV2A14*
X16769787Y974984D03*
G04 #@! TO.N,/UV2A15*
X25949673Y975000D03*
G04 #@! TO.N,/UV2B0*
X7589934Y16875000D03*
X17950000Y12400000D03*
G04 #@! TO.N,/UV2B1*
X21359738Y19525000D03*
G04 #@! TO.N,/UV2B2*
X7590310Y11575376D03*
X15200002Y11000000D03*
G04 #@! TO.N,/UV2B3*
X22550000Y8699990D03*
X21359738Y14225000D03*
G04 #@! TO.N,/UV2B4*
X13500000Y3550000D03*
X7714746Y6296867D03*
G04 #@! TO.N,/UV2B5*
X22550000Y7600000D03*
G04 #@! TO.N,/UV2B6*
X7589934Y975000D03*
G04 #@! TO.N,/UV2B7*
X22649994Y4000000D03*
G04 #@! TO.N,/UV2B8*
X38200023Y13013866D03*
X35129542Y16875000D03*
G04 #@! TO.N,/UV2B9*
X48899346Y19525000D03*
X43250000Y10100000D03*
G04 #@! TO.N,/UV2B10*
X37000021Y13000000D03*
G04 #@! TO.N,/UV2B11*
X43250000Y8600000D03*
X48899346Y14225000D03*
G04 #@! TO.N,/UV2B12*
X37450000Y3300000D03*
X36600000Y6250000D03*
G04 #@! TO.N,/UV2B13*
X48899346Y8925000D03*
X43600000Y7100000D03*
G04 #@! TO.N,/UV2B14*
X35129542Y975000D03*
G04 #@! TO.N,/UV2B15*
X48899346Y3625000D03*
G04 #@! TO.N,/UV2C0*
X31950000Y20100000D03*
G04 #@! TO.N,/UV2C1*
X38200000Y19500000D03*
G04 #@! TO.N,/UV2C2*
X44259411Y16824903D03*
G04 #@! TO.N,/UV2C3*
X44250023Y10600000D03*
X53000000Y16900000D03*
G04 #@! TO.N,/UV2C4*
X33300000Y9750000D03*
X30539607Y14225000D03*
G04 #@! TO.N,/UV2C5*
X38399985Y14300033D03*
G04 #@! TO.N,/UV2C6*
X40891181Y12373925D03*
G04 #@! TO.N,/UV2C7*
X44300000Y9100000D03*
X53489281Y11575000D03*
G04 #@! TO.N,/UV2C8*
X30518070Y8882110D03*
G04 #@! TO.N,/UV2C9*
X39719477Y8925000D03*
X36450009Y3300010D03*
G04 #@! TO.N,/UV2C10*
X40950000Y3300000D03*
X44788350Y6249360D03*
G04 #@! TO.N,/UV2C11*
X53489281Y6275001D03*
G04 #@! TO.N,/UV2C12*
X30539607Y3625000D03*
G04 #@! TO.N,/UV2C13*
X37950000Y2850006D03*
G04 #@! TO.N,/UV2C14*
X44309411Y975000D03*
G04 #@! TO.N,/UV2C15*
X53489281Y975000D03*
G04 #@! TO.N,/V1A0*
X1150000Y43187500D03*
X14038400Y32848862D03*
G04 #@! TO.N,/V1A1*
X10329869Y43187500D03*
X14150000Y36550004D03*
G04 #@! TO.N,/V1A2*
X14919803Y40537500D03*
G04 #@! TO.N,/V1A3*
X23050000Y40500000D03*
G04 #@! TO.N,/V1A4*
X1150000Y37900000D03*
X12850006Y31300000D03*
G04 #@! TO.N,/V1A5*
X10329869Y37887501D03*
X13544105Y34752655D03*
G04 #@! TO.N,/V1A6*
X19250000Y33999984D03*
X14950000Y36200000D03*
G04 #@! TO.N,/V1A7*
X24126430Y35210744D03*
X22900000Y31350000D03*
G04 #@! TO.N,/V1A8*
X6200000Y27450000D03*
X1950002Y32550000D03*
G04 #@! TO.N,/V1A9*
X15450000Y23850043D03*
X9350032Y29050000D03*
G04 #@! TO.N,/V1A10*
X14919803Y29937500D03*
X19971485Y23900010D03*
G04 #@! TO.N,/V1A11*
X24101430Y29935743D03*
G04 #@! TO.N,/V1A12*
X4650000Y24800000D03*
X1200010Y27287500D03*
G04 #@! TO.N,/V1A13*
X10329869Y27287500D03*
X10900000Y24486329D03*
G04 #@! TO.N,/V1A14*
X18100010Y23800000D03*
G04 #@! TO.N,/V1A15*
X24099673Y24637500D03*
G04 #@! TO.N,/V1B0*
X5739934Y40537500D03*
X14063497Y33699978D03*
G04 #@! TO.N,/V1B1*
X19509738Y43187500D03*
G04 #@! TO.N,/V1B2*
X5739934Y35237501D03*
X13200000Y31800004D03*
G04 #@! TO.N,/V1B3*
X19509738Y37887501D03*
G04 #@! TO.N,/V1B4*
X5739934Y29937500D03*
G04 #@! TO.N,/V1B5*
X20250000Y31800000D03*
X20950000Y23900010D03*
G04 #@! TO.N,/V1B6*
X5739934Y24637500D03*
G04 #@! TO.N,/V1B7*
X19509738Y27287500D03*
X19460741Y24546971D03*
G04 #@! TO.N,/V1B8*
X32600002Y41150000D03*
X36549998Y37600000D03*
G04 #@! TO.N,/V1B9*
X47049346Y43187500D03*
X42796835Y38064571D03*
G04 #@! TO.N,/V1B10*
X33293864Y35251823D03*
G04 #@! TO.N,/V1B11*
X47049346Y37887501D03*
X41700000Y35900000D03*
G04 #@! TO.N,/V1B12*
X34182848Y26332852D03*
X33950000Y29050000D03*
G04 #@! TO.N,/V1B13*
X47051266Y32585580D03*
X45800000Y23700000D03*
G04 #@! TO.N,/V1B14*
X33279542Y24637500D03*
G04 #@! TO.N,/V1B15*
X47055972Y27280874D03*
X42850000Y23850000D03*
G04 #@! TO.N,/V1C0*
X28689607Y43187500D03*
X36550000Y38450000D03*
G04 #@! TO.N,/V1C1*
X37869477Y43187500D03*
G04 #@! TO.N,/V1C2*
X42459411Y40537500D03*
X42150000Y38000000D03*
G04 #@! TO.N,/V1C3*
X51639281Y40537500D03*
X43650010Y31800000D03*
G04 #@! TO.N,/V1C4*
X33800000Y31750000D03*
X28689607Y37887501D03*
G04 #@! TO.N,/V1C5*
X37869477Y37887501D03*
G04 #@! TO.N,/V1C6*
X40972593Y35255248D03*
G04 #@! TO.N,/V1C7*
X51639281Y35237501D03*
X43650006Y30300000D03*
G04 #@! TO.N,/V1C8*
X27900000Y30200000D03*
G04 #@! TO.N,/V1C9*
X36950000Y24100000D03*
X37869477Y32587500D03*
G04 #@! TO.N,/V1C10*
X42459411Y29937500D03*
X41600000Y24500006D03*
G04 #@! TO.N,/V1C11*
X51639281Y29937500D03*
G04 #@! TO.N,/V1C12*
X28689607Y27287500D03*
G04 #@! TO.N,/V1C13*
X37869477Y27287500D03*
X38450000Y24450031D03*
G04 #@! TO.N,/V1C14*
X41550000Y23700000D03*
G04 #@! TO.N,/V1C15*
X51639281Y24637500D03*
G04 #@! TO.N,/V2A0*
X14038400Y11648862D03*
X1150000Y21987500D03*
G04 #@! TO.N,/V2A1*
X10329869Y21987500D03*
X14150000Y15350004D03*
G04 #@! TO.N,/V2A2*
X14919803Y19337500D03*
G04 #@! TO.N,/V2A3*
X23050000Y19300000D03*
G04 #@! TO.N,/V2A4*
X12850006Y10100000D03*
X1200010Y16700000D03*
G04 #@! TO.N,/V2A5*
X10329869Y16687501D03*
X13544105Y13552655D03*
G04 #@! TO.N,/V2A6*
X19250000Y12799984D03*
X14950000Y15000000D03*
G04 #@! TO.N,/V2A7*
X24126430Y14010744D03*
X22900000Y10150000D03*
G04 #@! TO.N,/V2A8*
X6350000Y7950000D03*
X1150000Y11387500D03*
G04 #@! TO.N,/V2A9*
X15450000Y2650043D03*
X9349988Y7850000D03*
G04 #@! TO.N,/V2A10*
X14919803Y8737500D03*
X19950010Y2600000D03*
G04 #@! TO.N,/V2A11*
X24101430Y8735743D03*
G04 #@! TO.N,/V2A12*
X1150000Y6087500D03*
G04 #@! TO.N,/V2A13*
X10329869Y6087500D03*
X10900000Y3286329D03*
G04 #@! TO.N,/V2A14*
X18100010Y2600000D03*
G04 #@! TO.N,/V2A15*
X24099673Y3437500D03*
G04 #@! TO.N,/V2B0*
X14063497Y12499978D03*
X5739934Y19337500D03*
G04 #@! TO.N,/V2B1*
X19509738Y21987500D03*
G04 #@! TO.N,/V2B2*
X13200000Y10600004D03*
X5739934Y14037501D03*
G04 #@! TO.N,/V2B3*
X19509738Y16687501D03*
G04 #@! TO.N,/V2B4*
X5739934Y8737500D03*
G04 #@! TO.N,/V2B5*
X20950000Y2600000D03*
X20250000Y10600000D03*
G04 #@! TO.N,/V2B6*
X4900002Y2600000D03*
G04 #@! TO.N,/V2B7*
X19447181Y3303288D03*
X19509738Y6087500D03*
G04 #@! TO.N,/V2B8*
X36779563Y19550000D03*
G04 #@! TO.N,/V2B9*
X47049346Y21987500D03*
X42796835Y16864571D03*
G04 #@! TO.N,/V2B10*
X33293864Y14051823D03*
G04 #@! TO.N,/V2B11*
X41700000Y14700000D03*
X47049346Y16687501D03*
G04 #@! TO.N,/V2B12*
X33950000Y7850000D03*
X34182848Y5132852D03*
G04 #@! TO.N,/V2B13*
X47051266Y11385580D03*
X47050000Y2500000D03*
G04 #@! TO.N,/V2B14*
X33279542Y3437500D03*
G04 #@! TO.N,/V2B15*
X47055972Y6080874D03*
X42850000Y2650000D03*
G04 #@! TO.N,/V2C0*
X28689607Y21987500D03*
G04 #@! TO.N,/V2C1*
X37869477Y21987500D03*
G04 #@! TO.N,/V2C2*
X42459411Y19337500D03*
X42150000Y16800000D03*
G04 #@! TO.N,/V2C3*
X43650010Y10600000D03*
X51639281Y19337500D03*
G04 #@! TO.N,/V2C4*
X33800000Y10550000D03*
X28689607Y16687501D03*
G04 #@! TO.N,/V2C5*
X37869477Y16687501D03*
G04 #@! TO.N,/V2C6*
X40972593Y14055248D03*
G04 #@! TO.N,/V2C7*
X51639281Y14037501D03*
X43650006Y9100000D03*
G04 #@! TO.N,/V2C8*
X27900000Y9000000D03*
G04 #@! TO.N,/V2C9*
X37869477Y11387500D03*
X36950000Y2900000D03*
G04 #@! TO.N,/V2C10*
X41600000Y3300006D03*
X42459411Y8737500D03*
G04 #@! TO.N,/V2C11*
X51639281Y8737500D03*
G04 #@! TO.N,/V2C12*
X28689607Y6087500D03*
G04 #@! TO.N,/V2C13*
X37869477Y6087500D03*
X38450000Y3250016D03*
G04 #@! TO.N,/V2C14*
X41550000Y2500000D03*
G04 #@! TO.N,/V2C15*
X51639281Y3437500D03*
G04 #@! TO.N,Net-(U-RGB1B-Pad7)*
X35549989Y32050000D03*
X33050000Y36500000D03*
G04 #@! TO.N,Net-(U-RGB2B-Pad7)*
X35549989Y10850000D03*
X33050000Y15300000D03*
G04 #@! TO.N,/LAT1*
X23650000Y37499979D03*
X12750000Y30300000D03*
X43200000Y37500000D03*
X32350000Y30300006D03*
X2500000Y37500000D03*
G04 #@! TO.N,/SCLK1*
X23250000Y37000000D03*
X13150000Y29800000D03*
X31900000Y29800000D03*
X42150000Y37000000D03*
X1850000Y37000000D03*
X1250000Y26400000D03*
G04 #@! TO.N,/GSCLK1*
X23650000Y36000000D03*
X11950000Y29200000D03*
X32350000Y29300000D03*
X42950000Y36250000D03*
X1250000Y34300000D03*
G04 #@! TO.N,/LAT2*
X12750000Y9100000D03*
X32350000Y9100006D03*
X23650000Y16299979D03*
X43200000Y16300000D03*
X1699996Y18900000D03*
G04 #@! TO.N,/SCLK2*
X13150000Y8600000D03*
X23250000Y15800000D03*
X31900000Y8600000D03*
X42150000Y15800000D03*
X1299996Y18450000D03*
G04 #@! TO.N,/GSCLK2*
X11950000Y8000000D03*
X23650000Y14800000D03*
X42950000Y15050000D03*
X32350000Y8100000D03*
X849998Y14150000D03*
G04 #@! TD*
D14*
G04 #@! TO.N,/B1A3*
X13849999Y40600001D02*
X13600000Y40850000D01*
X14400000Y40050000D02*
X13849999Y40600001D01*
X17219803Y40050000D02*
X14400000Y40050000D01*
G04 #@! TO.N,/B1A5*
X5100000Y41000000D02*
X4950000Y41150000D01*
X5100000Y37264935D02*
X5100000Y41000000D01*
X8039934Y34750001D02*
X7614934Y34750001D01*
X7614934Y34750001D02*
X5100000Y37264935D01*
G04 #@! TO.N,/R1A5*
X7139934Y36810066D02*
X7139934Y36150001D01*
X5300000Y38650000D02*
X7139934Y36810066D01*
X5300000Y40800000D02*
X5300000Y38650000D01*
X5450000Y41700000D02*
X5450000Y40950000D01*
X5450000Y40950000D02*
X5300000Y40800000D01*
G04 #@! TO.N,/G1A5*
X5950000Y41350000D02*
X5950000Y40996447D01*
X5950000Y40996447D02*
X6150000Y40796447D01*
X6150000Y38400000D02*
X6150000Y38800000D01*
X8039934Y36510066D02*
X6150000Y38400000D01*
X8039934Y36150001D02*
X8039934Y36510066D01*
X6150000Y40796447D02*
X6150000Y38800000D01*
G04 #@! TO.N,/G1A10*
X12557091Y33427222D02*
X12177224Y33427222D01*
X12177224Y33427222D02*
X10699999Y31949997D01*
X10699999Y31949997D02*
X10450000Y31699998D01*
G04 #@! TO.N,/B1A10*
X11602479Y32168195D02*
X10734281Y31299997D01*
X10734281Y31299997D02*
X9500003Y31299997D01*
X12593685Y32168195D02*
X11602479Y32168195D01*
X9399999Y31400001D02*
X9150000Y31650000D01*
X9500003Y31299997D02*
X9399999Y31400001D01*
G04 #@! TO.N,/B1A11*
X12817556Y34899987D02*
X13617555Y34099988D01*
X12146721Y35047169D02*
X12293903Y34899987D01*
X15700157Y31989329D02*
X15700157Y31635776D01*
X13617555Y34099988D02*
X14236547Y34099988D01*
X14236547Y34099988D02*
X15700157Y32636378D01*
X12293903Y34899987D02*
X12817556Y34899987D01*
X15700157Y32636378D02*
X15700157Y31989329D01*
G04 #@! TO.N,/R1A11*
X16300000Y32903553D02*
X16300000Y32253553D01*
X13703555Y35499998D02*
X16300000Y32903553D01*
X12850000Y35499998D02*
X13703555Y35499998D01*
X16300000Y32253553D02*
X16300000Y31900000D01*
G04 #@! TO.N,/G1A11*
X11950000Y35949998D02*
X13553555Y35949998D01*
X17200000Y32303553D02*
X17200000Y31950000D01*
X13553555Y35949998D02*
X17200000Y32303553D01*
G04 #@! TO.N,/B1A15*
X10199999Y29150001D02*
X9950000Y29400000D01*
X15599988Y25550000D02*
X13346426Y27803562D01*
X10500017Y28849983D02*
X10199999Y29150001D01*
X13346426Y27803562D02*
X12238720Y27803562D01*
X11192299Y28849983D02*
X10500017Y28849983D01*
X12238720Y27803562D02*
X11192299Y28849983D01*
G04 #@! TO.N,/R1A15*
X13866220Y28003573D02*
X12321567Y28003573D01*
X11053553Y29250000D02*
X10700000Y29250000D01*
X16319803Y25549990D02*
X13866220Y28003573D01*
X12321567Y28003573D02*
X11075140Y29250000D01*
X11075140Y29250000D02*
X11053553Y29250000D01*
G04 #@! TO.N,/G1A15*
X13969861Y28800000D02*
X13453553Y28800000D01*
X13453553Y28800000D02*
X13100000Y28800000D01*
X17219832Y25550029D02*
X13969861Y28800000D01*
G04 #@! TO.N,/B1B5*
X25132515Y36374845D02*
X25132515Y36017159D01*
X26550000Y37792330D02*
X25132515Y36374845D01*
X26550000Y40200000D02*
X26550000Y37792330D01*
X25950000Y40800000D02*
X26550000Y40200000D01*
X25132515Y36017159D02*
X25699674Y35450000D01*
X25699674Y35450000D02*
X26400000Y35450000D01*
G04 #@! TO.N,/R1B5*
X26450000Y40650000D02*
X26750000Y40350000D01*
X26450000Y41200000D02*
X26450000Y40650000D01*
X26750000Y40350000D02*
X26750000Y37400328D01*
X26750000Y37400328D02*
X26450000Y37100328D01*
X26450000Y37100328D02*
X25532516Y36182844D01*
G04 #@! TO.N,/G1B5*
X26950000Y40799998D02*
X26950002Y40800000D01*
X26950000Y36700000D02*
X26950000Y40799998D01*
X26399673Y36150001D02*
X26400001Y36150001D01*
X26400001Y36150001D02*
X26950000Y36700000D01*
G04 #@! TO.N,/G1B6*
X31949998Y39760392D02*
X31949998Y40100002D01*
X30989607Y38800001D02*
X31949998Y39760392D01*
G04 #@! TO.N,/R1B6*
X30089607Y38800001D02*
X30089607Y39939607D01*
X30089607Y39939607D02*
X30700001Y40550001D01*
X30700001Y40550001D02*
X30950000Y40800000D01*
G04 #@! TO.N,/B1B6*
X30803553Y41249992D02*
X30450000Y41249992D01*
X31092010Y41249992D02*
X30803553Y41249992D01*
X31350001Y40992001D02*
X31092010Y41249992D01*
X31350001Y40607999D02*
X31350001Y40992001D01*
X30589606Y39847604D02*
X31350001Y40607999D01*
X30589606Y37800002D02*
X30589606Y39847604D01*
X30989607Y37400001D02*
X30589606Y37800002D01*
G04 #@! TO.N,/R1B10*
X30049999Y33460392D02*
X30089607Y33500000D01*
X30049999Y31300001D02*
X30049999Y33460392D01*
X30399999Y30950001D02*
X30049999Y31300001D01*
X30950004Y31200000D02*
X30700005Y30950001D01*
X30700005Y30950001D02*
X30399999Y30950001D01*
G04 #@! TO.N,/B1B10*
X30989607Y32100000D02*
X30450000Y31560393D01*
X30450000Y31560393D02*
X30450000Y31550000D01*
G04 #@! TO.N,/G1B15*
X35579542Y25550000D02*
X35179541Y25950001D01*
X32749999Y26050001D02*
X32500000Y26300000D01*
X35179541Y25950001D02*
X34442003Y25950001D01*
X34442003Y25950001D02*
X34342001Y25849999D01*
X32950001Y25849999D02*
X32749999Y26050001D01*
X34342001Y25849999D02*
X32950001Y25849999D01*
G04 #@! TO.N,/R1B15*
X32000000Y26200000D02*
X32000000Y26850000D01*
X34679542Y25550000D02*
X32650000Y25550000D01*
X32650000Y25550000D02*
X32000000Y26200000D01*
G04 #@! TO.N,/B1B15*
X32567152Y25349990D02*
X31100000Y26817142D01*
X31100000Y28546447D02*
X31100000Y28900000D01*
X31100000Y26817142D02*
X31100000Y28546447D01*
X33900011Y25349989D02*
X32567152Y25349990D01*
X35100000Y24150000D02*
X33900011Y25349989D01*
X35579542Y24150000D02*
X35100000Y24150000D01*
G04 #@! TO.N,/G1C5*
X46450000Y37840590D02*
X44759411Y36150001D01*
X47550000Y40800000D02*
X46450000Y39700000D01*
X46450000Y39700000D02*
X46450000Y37840590D01*
G04 #@! TO.N,/R1C5*
X46150000Y38440588D02*
X43859402Y36149990D01*
X46750000Y40800000D02*
X46150000Y40200000D01*
X46150000Y40200000D02*
X46150000Y38440588D01*
G04 #@! TO.N,/B1C5*
X47550000Y38800000D02*
X46950000Y39400000D01*
X44759411Y34750001D02*
X47550000Y37540590D01*
X47550000Y37540590D02*
X47550000Y38800000D01*
G04 #@! TO.N,/B1C6*
X49349346Y37400001D02*
X50874274Y38924929D01*
X50874274Y40822163D02*
X50874274Y41175716D01*
X50874274Y38924929D02*
X50874274Y40822163D01*
G04 #@! TO.N,/R1C6*
X48449346Y39599346D02*
X48449346Y38800001D01*
X50850000Y42000000D02*
X48449346Y39599346D01*
G04 #@! TO.N,/G1C6*
X50732858Y41600000D02*
X49349346Y40216488D01*
X49349346Y39200001D02*
X49349346Y38800001D01*
X49349346Y40216488D02*
X49349346Y39200001D01*
X51850000Y41600000D02*
X50732858Y41600000D01*
G04 #@! TO.N,/R1C7*
X53039281Y36150001D02*
X53039281Y36789291D01*
X53499991Y37250001D02*
X53749990Y37500000D01*
X53039281Y36789291D02*
X53499991Y37250001D01*
G04 #@! TO.N,/B1C8*
X41250000Y32100000D02*
X42150000Y33000000D01*
X42150000Y33000000D02*
X43950000Y33000000D01*
X40169477Y32100000D02*
X41250000Y32100000D01*
G04 #@! TO.N,/R1C8*
X41086431Y34150000D02*
X41236431Y34000000D01*
X41828435Y33567943D02*
X42260492Y34000000D01*
X41236431Y33775943D02*
X41444431Y33567943D01*
X39849979Y34150000D02*
X41086431Y34150000D01*
X41236431Y34000000D02*
X41236431Y33775943D01*
X41444431Y33567943D02*
X41828435Y33567943D01*
X44346443Y34000000D02*
X44699996Y34000000D01*
X42260492Y34000000D02*
X44346443Y34000000D01*
G04 #@! TO.N,/G1C8*
X40169477Y33500000D02*
X40507930Y33161547D01*
X43996447Y33500000D02*
X44350000Y33500000D01*
X42043350Y33500000D02*
X43996447Y33500000D01*
X40507930Y33161547D02*
X41704897Y33161547D01*
X41704897Y33161547D02*
X42043350Y33500000D01*
G04 #@! TO.N,/B1C12*
X40869457Y27499980D02*
X43603035Y27499980D01*
X43603035Y27499980D02*
X43956588Y27499980D01*
X40169477Y26800000D02*
X40869457Y27499980D01*
G04 #@! TO.N,/R1C12*
X45046447Y27899990D02*
X45400000Y27899990D01*
X39719466Y27750011D02*
X40836630Y27750011D01*
X39269477Y28200000D02*
X39719466Y27750011D01*
X40836630Y27750011D02*
X40986617Y27899998D01*
X40986617Y27899998D02*
X43792002Y27899998D01*
X43792002Y27899998D02*
X43792010Y27899990D01*
X43792010Y27899990D02*
X45046447Y27899990D01*
G04 #@! TO.N,/G1C12*
X45696447Y28850002D02*
X46050000Y28850002D01*
X45546445Y28700000D02*
X45696447Y28850002D01*
X40169477Y28200000D02*
X40669477Y28700000D01*
X40669477Y28700000D02*
X45546445Y28700000D01*
G04 #@! TO.N,/G2A5*
X8039934Y14950001D02*
X8039934Y15310066D01*
X6150000Y19596447D02*
X6150000Y17600000D01*
X5950000Y20150000D02*
X5950000Y19796447D01*
X5950000Y19796447D02*
X6150000Y19596447D01*
X6150000Y17200000D02*
X6150000Y17600000D01*
X8039934Y15310066D02*
X6150000Y17200000D01*
G04 #@! TO.N,/R2A5*
X5300000Y19600000D02*
X5300000Y17450000D01*
X5450000Y20500000D02*
X5450000Y19750000D01*
X7139934Y15610066D02*
X7139934Y14950001D01*
X5300000Y17450000D02*
X7139934Y15610066D01*
X5450000Y19750000D02*
X5300000Y19600000D01*
G04 #@! TO.N,/B2A5*
X7686381Y13550001D02*
X5099999Y16136383D01*
X5099999Y16136383D02*
X5099999Y19500001D01*
X5049999Y19550001D02*
X4800000Y19800000D01*
X5099999Y19500001D02*
X5049999Y19550001D01*
X8039934Y13550001D02*
X7686381Y13550001D01*
G04 #@! TO.N,/B2A10*
X11602479Y10968195D02*
X10734281Y10099997D01*
X10734281Y10099997D02*
X9500003Y10099997D01*
X12593685Y10968195D02*
X11602479Y10968195D01*
X9399999Y10200001D02*
X9150000Y10450000D01*
X9500003Y10099997D02*
X9399999Y10200001D01*
G04 #@! TO.N,/G2A10*
X12557091Y12227222D02*
X12177224Y12227222D01*
X12177224Y12227222D02*
X10699999Y10749997D01*
X10699999Y10749997D02*
X10450000Y10499998D01*
G04 #@! TO.N,/G2A11*
X13553555Y14749998D02*
X17200000Y11103553D01*
X11950000Y14749998D02*
X13553555Y14749998D01*
X17200000Y11103553D02*
X17200000Y10750000D01*
G04 #@! TO.N,/R2A11*
X16300000Y11703553D02*
X16300000Y11053553D01*
X12850000Y14299998D02*
X13703555Y14299998D01*
X16300000Y11053553D02*
X16300000Y10700000D01*
X13703555Y14299998D02*
X16300000Y11703553D01*
G04 #@! TO.N,/B2A11*
X15700157Y10789329D02*
X15700157Y10435776D01*
X13617555Y12899988D02*
X14236547Y12899988D01*
X12817556Y13699987D02*
X13617555Y12899988D01*
X14236547Y12899988D02*
X15700157Y11436378D01*
X12146721Y13847169D02*
X12293903Y13699987D01*
X12293903Y13699987D02*
X12817556Y13699987D01*
X15700157Y11436378D02*
X15700157Y10789329D01*
G04 #@! TO.N,/G2A15*
X13969861Y7600000D02*
X13453553Y7600000D01*
X13453553Y7600000D02*
X13100000Y7600000D01*
X17219832Y4350029D02*
X13969861Y7600000D01*
G04 #@! TO.N,/R2A15*
X13866220Y6803573D02*
X12321567Y6803573D01*
X11053553Y8050000D02*
X10700000Y8050000D01*
X16319803Y4349990D02*
X13866220Y6803573D01*
X12321567Y6803573D02*
X11075140Y8050000D01*
X11075140Y8050000D02*
X11053553Y8050000D01*
G04 #@! TO.N,/B2A15*
X10500017Y7649983D02*
X10199999Y7950001D01*
X15599988Y4350000D02*
X13346426Y6603562D01*
X13346426Y6603562D02*
X12238720Y6603562D01*
X10199999Y7950001D02*
X9950000Y8200000D01*
X11192299Y7649983D02*
X10500017Y7649983D01*
X12238720Y6603562D02*
X11192299Y7649983D01*
G04 #@! TO.N,/B2B5*
X25950000Y19600000D02*
X26550000Y19000000D01*
X26550000Y19000000D02*
X26550000Y16592330D01*
X25132515Y14817159D02*
X25699674Y14250000D01*
X25132515Y15174845D02*
X25132515Y14817159D01*
X25699674Y14250000D02*
X26400000Y14250000D01*
X26550000Y16592330D02*
X25132515Y15174845D01*
G04 #@! TO.N,/R2B5*
X26450000Y19450000D02*
X26750000Y19150000D01*
X26450000Y20000000D02*
X26450000Y19450000D01*
X26750000Y19150000D02*
X26750000Y16200328D01*
X26750000Y16200328D02*
X26450000Y15900328D01*
X26450000Y15900328D02*
X25532516Y14982844D01*
G04 #@! TO.N,/G2B5*
X26950000Y19599998D02*
X26950002Y19600000D01*
X26950000Y15500000D02*
X26950000Y19599998D01*
X26399673Y14950001D02*
X26400001Y14950001D01*
X26400001Y14950001D02*
X26950000Y15500000D01*
G04 #@! TO.N,/G2B6*
X30989607Y17600001D02*
X31949998Y18560392D01*
X31949998Y18560392D02*
X31949998Y18900002D01*
G04 #@! TO.N,/R2B6*
X30089607Y18739607D02*
X30700001Y19350001D01*
X30700001Y19350001D02*
X30950000Y19600000D01*
X30089607Y17600001D02*
X30089607Y18739607D01*
G04 #@! TO.N,/B2B6*
X31350001Y19792001D02*
X31092010Y20049992D01*
X30589606Y16600002D02*
X30589606Y18647604D01*
X30589606Y18647604D02*
X31350001Y19407999D01*
X31092010Y20049992D02*
X30803553Y20049992D01*
X30803553Y20049992D02*
X30450000Y20049992D01*
X30989607Y16200001D02*
X30589606Y16600002D01*
X31350001Y19407999D02*
X31350001Y19792001D01*
G04 #@! TO.N,/R2B10*
X30950004Y10000000D02*
X30692002Y10000000D01*
X30692002Y10000000D02*
X30642001Y9949999D01*
X30642001Y9949999D02*
X30257999Y9949999D01*
X30257999Y9949999D02*
X30049999Y10157999D01*
X30049999Y10157999D02*
X30049999Y12260392D01*
X30049999Y12260392D02*
X30089607Y12300000D01*
G04 #@! TO.N,/B2B10*
X30450000Y10360393D02*
X30450000Y10350000D01*
X30989607Y10900000D02*
X30450000Y10360393D01*
G04 #@! TO.N,/B2B15*
X32567152Y4149990D02*
X31100000Y5617142D01*
X31100000Y7346447D02*
X31100000Y7700000D01*
X33900011Y4149989D02*
X32567152Y4149990D01*
X31100000Y5617142D02*
X31100000Y7346447D01*
X35100000Y2950000D02*
X33900011Y4149989D01*
X35579542Y2950000D02*
X35100000Y2950000D01*
G04 #@! TO.N,/R2B15*
X34679542Y4350000D02*
X32650000Y4350000D01*
X32000000Y5000000D02*
X32000000Y5650000D01*
X32650000Y4350000D02*
X32000000Y5000000D01*
G04 #@! TO.N,/G2B15*
X32950001Y4649999D02*
X32749999Y4850001D01*
X35579542Y4350000D02*
X35179541Y4750001D01*
X35179541Y4750001D02*
X34442003Y4750001D01*
X32749999Y4850001D02*
X32500000Y5100000D01*
X34342001Y4649999D02*
X32950001Y4649999D01*
X34442003Y4750001D02*
X34342001Y4649999D01*
G04 #@! TO.N,/B2C5*
X47550000Y16340590D02*
X47550000Y17600000D01*
X47550000Y17600000D02*
X46950000Y18200000D01*
X44759411Y13550001D02*
X47550000Y16340590D01*
G04 #@! TO.N,/R2C5*
X46150000Y19000000D02*
X46150000Y17240588D01*
X46750000Y19600000D02*
X46150000Y19000000D01*
X46150000Y17240588D02*
X43859402Y14949990D01*
G04 #@! TO.N,/G2C5*
X46450000Y16640590D02*
X44759411Y14950001D01*
X46450000Y18500000D02*
X46450000Y16640590D01*
X47550000Y19600000D02*
X46450000Y18500000D01*
G04 #@! TO.N,/G2C6*
X49349346Y18000001D02*
X49349346Y17600001D01*
X49349346Y19016488D02*
X49349346Y18000001D01*
X50732858Y20400000D02*
X49349346Y19016488D01*
X51850000Y20400000D02*
X50732858Y20400000D01*
G04 #@! TO.N,/R2C6*
X48449346Y18399346D02*
X48449346Y17600001D01*
X50850000Y20800000D02*
X48449346Y18399346D01*
G04 #@! TO.N,/B2C6*
X50874274Y19622163D02*
X50874274Y19975716D01*
X50874274Y17724929D02*
X50874274Y19622163D01*
X49349346Y16200001D02*
X50874274Y17724929D01*
G04 #@! TO.N,/R2C7*
X53500001Y16300001D02*
X53750000Y16550000D01*
X53039281Y15839281D02*
X53500001Y16300001D01*
X53039281Y14950001D02*
X53039281Y15839281D01*
G04 #@! TO.N,/G2C8*
X40507930Y11961547D02*
X41704897Y11961547D01*
X42043350Y12300000D02*
X43996447Y12300000D01*
X40169477Y12300000D02*
X40507930Y11961547D01*
X41704897Y11961547D02*
X42043350Y12300000D01*
X43996447Y12300000D02*
X44350000Y12300000D01*
G04 #@! TO.N,/R2C8*
X41236431Y12575943D02*
X41444431Y12367943D01*
X39849979Y12950000D02*
X41086431Y12950000D01*
X41828435Y12367943D02*
X42260492Y12800000D01*
X42260492Y12800000D02*
X44346443Y12800000D01*
X41444431Y12367943D02*
X41828435Y12367943D01*
X41086431Y12950000D02*
X41236431Y12800000D01*
X41236431Y12800000D02*
X41236431Y12575943D01*
X44346443Y12800000D02*
X44699996Y12800000D01*
G04 #@! TO.N,/B2C8*
X42150000Y11800000D02*
X43950000Y11800000D01*
X40169477Y10900000D02*
X41250000Y10900000D01*
X41250000Y10900000D02*
X42150000Y11800000D01*
G04 #@! TO.N,/G2C12*
X45546445Y7500000D02*
X45696447Y7650002D01*
X45696447Y7650002D02*
X46050000Y7650002D01*
X40169477Y7000000D02*
X40669477Y7500000D01*
X40669477Y7500000D02*
X45546445Y7500000D01*
G04 #@! TO.N,/R2C12*
X39719466Y6550011D02*
X40836630Y6550011D01*
X40986617Y6699998D02*
X43792002Y6699998D01*
X43792010Y6699990D02*
X45046447Y6699990D01*
X40836630Y6550011D02*
X40986617Y6699998D01*
X43792002Y6699998D02*
X43792010Y6699990D01*
X39269477Y7000000D02*
X39719466Y6550011D01*
X45046447Y6699990D02*
X45400000Y6699990D01*
G04 #@! TO.N,/B2C12*
X43603035Y6299980D02*
X43956588Y6299980D01*
X40869457Y6299980D02*
X43603035Y6299980D01*
X40169477Y5600000D02*
X40869457Y6299980D01*
G04 #@! TO.N,/UV1A0*
X8482055Y33949979D02*
X8782087Y34250011D01*
X13496030Y33336828D02*
X13496030Y33109741D01*
X2965000Y40725000D02*
X2965000Y38752142D01*
X2965000Y38752142D02*
X7767164Y33949978D01*
X12585712Y34247146D02*
X13496030Y33336828D01*
X8782087Y34250011D02*
X11786160Y34250010D01*
X7767164Y33949978D02*
X8482055Y33949979D01*
X11786160Y34250010D02*
X11789026Y34247146D01*
X11789026Y34247146D02*
X12585712Y34247146D01*
G04 #@! TO.N,/UV1A1*
X12179869Y40725000D02*
X11784159Y40329290D01*
X13250001Y36800005D02*
X13500000Y36550006D01*
X11784159Y38265847D02*
X13250001Y36800005D01*
X11784159Y40329290D02*
X11784159Y38265847D01*
G04 #@! TO.N,/UV1A3*
X20625000Y38075000D02*
X25949673Y38075000D01*
X20625000Y38075000D02*
X20375000Y38075000D01*
X20375000Y38075000D02*
X20350000Y38050000D01*
G04 #@! TO.N,/UV1A4*
X3000000Y35425000D02*
X3725004Y35425000D01*
X8550017Y30599987D02*
X10999987Y30599987D01*
X12846449Y30800000D02*
X13200002Y30800000D01*
X10999987Y30599987D02*
X11200000Y30800000D01*
X11200000Y30800000D02*
X12846449Y30800000D01*
X3725004Y35425000D02*
X8550017Y30599987D01*
G04 #@! TO.N,/UV1A7*
X22499996Y30800000D02*
X24000000Y30800000D01*
X24000000Y30800000D02*
X25950000Y32750000D01*
G04 #@! TO.N,/UV1A8*
X2999990Y30000010D02*
X2999990Y30125000D01*
X6600000Y26400000D02*
X2999990Y30000010D01*
G04 #@! TO.N,/UV1A9*
X12155872Y27603552D02*
X11114728Y28644696D01*
X15450000Y24500000D02*
X15200001Y24749999D01*
X11114728Y28644696D02*
X10451134Y28644696D01*
X10451134Y28644696D02*
X10097581Y28644696D01*
X15200001Y24749999D02*
X15200001Y25503552D01*
X15200001Y25503552D02*
X13100001Y27603552D01*
X13100001Y27603552D02*
X12155872Y27603552D01*
G04 #@! TO.N,/UV1A10*
X18450000Y25794804D02*
X18450000Y24400010D01*
X16769803Y27475001D02*
X18450000Y25794804D01*
X18450000Y24400010D02*
X18700001Y24150009D01*
X18700001Y24150009D02*
X18950000Y23900010D01*
G04 #@! TO.N,/UV1B0*
X16682588Y33600000D02*
X14132587Y36150001D01*
X17950000Y33600000D02*
X16682588Y33600000D01*
X12992001Y36250001D02*
X12799999Y36250001D01*
X14132587Y36150001D02*
X13092001Y36150001D01*
X7985644Y38470710D02*
X7589934Y38075000D01*
X13092001Y36150001D02*
X12992001Y36250001D01*
X12799999Y36250001D02*
X10579290Y38470710D01*
X10579290Y38470710D02*
X7985644Y38470710D01*
G04 #@! TO.N,/UV1B2*
X13096028Y33453972D02*
X13096028Y32917739D01*
X8862070Y34047136D02*
X12502864Y34047136D01*
X13096028Y32917739D02*
X13813767Y32200000D01*
X12502864Y34047136D02*
X13096028Y33453972D01*
X7590310Y32775376D02*
X8862070Y34047136D01*
X13813767Y32200000D02*
X14846449Y32200000D01*
X14846449Y32200000D02*
X15200002Y32200000D01*
G04 #@! TO.N,/UV1B3*
X21359738Y31090252D02*
X22300001Y30149989D01*
X22300001Y30149989D02*
X22550000Y29899990D01*
X21359738Y35425000D02*
X21359738Y31090252D01*
G04 #@! TO.N,/UV1B4*
X9048790Y27456788D02*
X7872751Y27456788D01*
X13500000Y24750000D02*
X13146447Y24750000D01*
X7872751Y27456788D02*
X7519198Y27456788D01*
X11000000Y27185163D02*
X10485163Y27700000D01*
X9292002Y27700000D02*
X9048790Y27456788D01*
X11000000Y26896447D02*
X11000000Y27185163D01*
X10485163Y27700000D02*
X9292002Y27700000D01*
X13146447Y24750000D02*
X11000000Y26896447D01*
G04 #@! TO.N,/UV1B8*
X38200023Y34213866D02*
X38200023Y34984279D01*
X35369421Y37814881D02*
X35119422Y38064880D01*
X38200023Y34984279D02*
X35369421Y37814881D01*
G04 #@! TO.N,/UV1B9*
X43250000Y32000000D02*
X43250000Y31300000D01*
X43550000Y32300000D02*
X43250000Y32000000D01*
X43846447Y32300000D02*
X43550000Y32300000D01*
X48049345Y36502898D02*
X43846447Y32300000D01*
X48899346Y40725000D02*
X48049345Y39874999D01*
X48049345Y39874999D02*
X48049345Y36502898D01*
G04 #@! TO.N,/UV1B11*
X48503636Y35029290D02*
X48899346Y35425000D01*
X48346432Y35029290D02*
X48503636Y35029290D01*
X44717142Y31400000D02*
X48346432Y35029290D01*
X43950000Y31400000D02*
X44717142Y31400000D01*
X43250000Y29800000D02*
X43250000Y30700000D01*
X43250000Y30700000D02*
X43950000Y31400000D01*
G04 #@! TO.N,/UV1B12*
X37450000Y24500000D02*
X37450000Y26600000D01*
X37450000Y26600000D02*
X36849999Y27200001D01*
X36849999Y27200001D02*
X36600000Y27450000D01*
G04 #@! TO.N,/UV1B13*
X47074346Y28300000D02*
X43953553Y28300000D01*
X43953553Y28300000D02*
X43600000Y28300000D01*
X48899346Y30125000D02*
X47074346Y28300000D01*
G04 #@! TO.N,/UV1C0*
X31653276Y41196724D02*
X31653276Y41252817D01*
X34239233Y35436402D02*
X34239233Y38610767D01*
X34239233Y38610767D02*
X31653276Y41196724D01*
G04 #@! TO.N,/UV1C3*
X44250023Y31800000D02*
X44649996Y31800000D01*
X44649996Y31800000D02*
X50949996Y38100000D01*
X52646447Y38100000D02*
X53000000Y38100000D01*
X50949996Y38100000D02*
X52646447Y38100000D01*
G04 #@! TO.N,/UV1C4*
X30539607Y35425000D02*
X30539607Y33710393D01*
X30539607Y33710393D02*
X33050001Y31199999D01*
X33050001Y31199999D02*
X33300000Y30950000D01*
G04 #@! TO.N,/UV1C7*
X44549999Y30649999D02*
X44549999Y30549999D01*
X53489281Y32775000D02*
X53093571Y33170710D01*
X47070710Y33170710D02*
X44549999Y30649999D01*
X53093571Y33170710D02*
X47070710Y33170710D01*
X44549999Y30549999D02*
X44300000Y30300000D01*
G04 #@! TO.N,/UV1C9*
X36450009Y24853563D02*
X36450009Y24500010D01*
X36200000Y25103572D02*
X36450009Y24853563D01*
X36200000Y27750000D02*
X36200000Y25103572D01*
X38575000Y30125000D02*
X36200000Y27750000D01*
X39719477Y30125000D02*
X38575000Y30125000D01*
G04 #@! TO.N,/UV1C10*
X44538351Y27199361D02*
X44788350Y27449360D01*
X44300000Y26961010D02*
X44538351Y27199361D01*
X44300000Y25992002D02*
X44300000Y26961010D01*
X42407999Y24100001D02*
X44300000Y25992002D01*
X40950000Y24500000D02*
X41349999Y24100001D01*
X41349999Y24100001D02*
X42407999Y24100001D01*
G04 #@! TO.N,/UV2A0*
X13496030Y12136828D02*
X13496030Y11909741D01*
X11786160Y13050010D02*
X11789026Y13047146D01*
X4500000Y17990000D02*
X4500000Y16017142D01*
X12585712Y13047146D02*
X13496030Y12136828D01*
X11789026Y13047146D02*
X12585712Y13047146D01*
X2965000Y19525000D02*
X4500000Y17990000D01*
X4500000Y16017142D02*
X7767164Y12749978D01*
X7767164Y12749978D02*
X8482055Y12749979D01*
X8482055Y12749979D02*
X8782087Y13050011D01*
X8782087Y13050011D02*
X11786160Y13050010D01*
G04 #@! TO.N,/UV2A1*
X12179869Y19525000D02*
X11784159Y19129290D01*
X11784159Y17065847D02*
X13250001Y15600005D01*
X11784159Y19129290D02*
X11784159Y17065847D01*
X13250001Y15600005D02*
X13500000Y15350006D01*
G04 #@! TO.N,/UV2A3*
X19500000Y18000000D02*
X20625000Y16875000D01*
X20625000Y16875000D02*
X25949673Y16875000D01*
G04 #@! TO.N,/UV2A4*
X4120714Y13829290D02*
X8550017Y9399987D01*
X3395710Y13829290D02*
X4120714Y13829290D01*
X8550017Y9399987D02*
X10999987Y9399987D01*
X3000000Y14225000D02*
X3395710Y13829290D01*
X11200000Y9600000D02*
X13200002Y9600000D01*
X10999987Y9399987D02*
X11200000Y9600000D01*
G04 #@! TO.N,/UV2A7*
X22499996Y9600000D02*
X24000000Y9600000D01*
X24000000Y9600000D02*
X25950000Y11550000D01*
G04 #@! TO.N,/UV2A8*
X2965000Y8835000D02*
X2965000Y8925000D01*
X5799999Y7000000D02*
X3874999Y8925000D01*
X7400000Y6050000D02*
X6450000Y7000000D01*
X7400000Y5399999D02*
X7400000Y6050000D01*
X7999999Y4800000D02*
X7400000Y5399999D01*
X6450000Y7000000D02*
X5799999Y7000000D01*
X9100000Y4800000D02*
X7999999Y4800000D01*
X3874999Y8925000D02*
X2965000Y8925000D01*
G04 #@! TO.N,/UV2A9*
X13100001Y6403552D02*
X12155872Y6403552D01*
X15450000Y3300000D02*
X15200001Y3549999D01*
X10451134Y7444696D02*
X10097581Y7444696D01*
X15200001Y4303552D02*
X13100001Y6403552D01*
X15200001Y3549999D02*
X15200001Y4303552D01*
X12155872Y6403552D02*
X11114728Y7444696D01*
X11114728Y7444696D02*
X10451134Y7444696D01*
G04 #@! TO.N,/UV2A10*
X16769803Y6275001D02*
X18450000Y4594804D01*
X18450000Y3100000D02*
X18950000Y2600000D01*
X18450000Y4594804D02*
X18450000Y3100000D01*
G04 #@! TO.N,/UV2B0*
X13092001Y14950001D02*
X12992001Y15050001D01*
X12799999Y15050001D02*
X10579290Y17270710D01*
X17950000Y12400000D02*
X16682588Y12400000D01*
X16682588Y12400000D02*
X14132587Y14950001D01*
X12992001Y15050001D02*
X12799999Y15050001D01*
X10579290Y17270710D02*
X7985644Y17270710D01*
X7985644Y17270710D02*
X7589934Y16875000D01*
X14132587Y14950001D02*
X13092001Y14950001D01*
G04 #@! TO.N,/UV2B2*
X12502864Y12847136D02*
X13096028Y12253972D01*
X13096028Y12253972D02*
X13096028Y11717739D01*
X14846449Y11000000D02*
X15200002Y11000000D01*
X13096028Y11717739D02*
X13813767Y11000000D01*
X7590310Y11575376D02*
X8862070Y12847136D01*
X8862070Y12847136D02*
X12502864Y12847136D01*
X13813767Y11000000D02*
X14846449Y11000000D01*
G04 #@! TO.N,/UV2B3*
X21359738Y9890252D02*
X22300001Y8949989D01*
X22300001Y8949989D02*
X22550000Y8699990D01*
X21359738Y14225000D02*
X21359738Y9890252D01*
G04 #@! TO.N,/UV2B4*
X13500000Y3550000D02*
X13146447Y3550000D01*
X9088869Y6296867D02*
X8068299Y6296867D01*
X11000000Y5985163D02*
X10485163Y6500000D01*
X8068299Y6296867D02*
X7714746Y6296867D01*
X9292002Y6500000D02*
X9088869Y6296867D01*
X10485163Y6500000D02*
X9292002Y6500000D01*
X13146447Y3550000D02*
X11000000Y5696447D01*
X11000000Y5696447D02*
X11000000Y5985163D01*
G04 #@! TO.N,/UV2B8*
X38200023Y13367419D02*
X38200023Y13013866D01*
X38200023Y13804519D02*
X38200023Y13367419D01*
X35129542Y16875000D02*
X38200023Y13804519D01*
G04 #@! TO.N,/UV2B9*
X43846447Y11100000D02*
X43550000Y11100000D01*
X48049345Y15302898D02*
X43846447Y11100000D01*
X43250000Y10800000D02*
X43250000Y10100000D01*
X48899346Y19525000D02*
X48049345Y18674999D01*
X48049345Y18674999D02*
X48049345Y15302898D01*
X43550000Y11100000D02*
X43250000Y10800000D01*
G04 #@! TO.N,/UV2B11*
X43250000Y8600000D02*
X43250000Y9500000D01*
X43950000Y10200000D02*
X44717142Y10200000D01*
X44717142Y10200000D02*
X48346432Y13829290D01*
X48346432Y13829290D02*
X48503636Y13829290D01*
X43250000Y9500000D02*
X43950000Y10200000D01*
X48503636Y13829290D02*
X48899346Y14225000D01*
G04 #@! TO.N,/UV2B12*
X37450000Y5400000D02*
X36849999Y6000001D01*
X37450000Y3300000D02*
X37450000Y5400000D01*
X36849999Y6000001D02*
X36600000Y6250000D01*
G04 #@! TO.N,/UV2B13*
X48899346Y8925000D02*
X47074346Y7100000D01*
X47074346Y7100000D02*
X43953553Y7100000D01*
X43953553Y7100000D02*
X43600000Y7100000D01*
G04 #@! TO.N,/UV2C3*
X44250023Y10600000D02*
X44649996Y10600000D01*
X44649996Y10600000D02*
X50949996Y16900000D01*
X52646447Y16900000D02*
X53000000Y16900000D01*
X50949996Y16900000D02*
X52646447Y16900000D01*
G04 #@! TO.N,/UV2C4*
X33050001Y9999999D02*
X33300000Y9750000D01*
X30539607Y14225000D02*
X30539607Y12510393D01*
X30539607Y12510393D02*
X33050001Y9999999D01*
G04 #@! TO.N,/UV2C7*
X47070710Y11970710D02*
X44549999Y9449999D01*
X44549999Y9349999D02*
X44300000Y9100000D01*
X44549999Y9449999D02*
X44549999Y9349999D01*
X53489281Y11575000D02*
X53093571Y11970710D01*
X53093571Y11970710D02*
X47070710Y11970710D01*
G04 #@! TO.N,/UV2C9*
X39719477Y8925000D02*
X38575000Y8925000D01*
X36200000Y3903572D02*
X36450009Y3653563D01*
X36200000Y6550000D02*
X36200000Y3903572D01*
X38575000Y8925000D02*
X36200000Y6550000D01*
X36450009Y3653563D02*
X36450009Y3300010D01*
G04 #@! TO.N,/UV2C10*
X41349999Y2900001D02*
X42407999Y2900001D01*
X40950000Y3300000D02*
X41349999Y2900001D01*
X44300000Y4792002D02*
X44300000Y5761010D01*
X44538351Y5999361D02*
X44788350Y6249360D01*
X44300000Y5761010D02*
X44538351Y5999361D01*
X42407999Y2900001D02*
X44300000Y4792002D01*
G04 #@! TO.N,/V1A0*
X14038400Y33138818D02*
X14038400Y32848862D01*
X1150000Y43187500D02*
X3365001Y40972499D01*
X12668560Y34447156D02*
X13601993Y33513723D01*
X11871872Y34447156D02*
X12668560Y34447156D01*
X13601993Y33513723D02*
X13663495Y33513723D01*
X8399207Y34149989D02*
X8699240Y34450022D01*
X3365001Y40972499D02*
X3365001Y38634999D01*
X13663495Y33513723D02*
X14038400Y33138818D01*
X7850011Y34149989D02*
X8399207Y34149989D01*
X3365001Y38634999D02*
X7850011Y34149989D01*
X8699240Y34450022D02*
X11869008Y34450020D01*
X11869008Y34450020D02*
X11871872Y34447156D01*
G04 #@! TO.N,/V1A1*
X14150000Y39367369D02*
X14150000Y36903557D01*
X10329869Y43187500D02*
X14150000Y39367369D01*
X14150000Y36903557D02*
X14150000Y36550004D01*
G04 #@! TO.N,/V1A4*
X3100000Y37900000D02*
X1150000Y37900000D01*
X11300000Y31300000D02*
X10799998Y30799998D01*
X12850006Y31300000D02*
X11300000Y31300000D01*
X10799998Y30799998D02*
X8650002Y30799998D01*
X8650002Y30799998D02*
X5300000Y34150000D01*
X5300000Y34150000D02*
X5300000Y35700000D01*
X5300000Y35700000D02*
X3100000Y37900000D01*
G04 #@! TO.N,/V1A5*
X12449998Y35307998D02*
X12657998Y35099998D01*
X12657998Y35099998D02*
X13196762Y35099998D01*
X13196762Y35099998D02*
X13294106Y35002654D01*
X10329869Y36828129D02*
X11657999Y35499999D01*
X12449998Y35357998D02*
X12449998Y35307998D01*
X12307997Y35499999D02*
X12449998Y35357998D01*
X13294106Y35002654D02*
X13544105Y34752655D01*
X10329869Y37887501D02*
X10329869Y36828129D01*
X11657999Y35499999D02*
X12307997Y35499999D01*
G04 #@! TO.N,/V1A6*
X18896447Y33999984D02*
X19250000Y33999984D01*
X18896423Y34000008D02*
X18896447Y33999984D01*
X14950000Y36200000D02*
X17149992Y34000008D01*
X17149992Y34000008D02*
X18896423Y34000008D01*
G04 #@! TO.N,/V1A7*
X23149999Y31599999D02*
X22900000Y31350000D01*
X24126430Y35210744D02*
X24126430Y32576430D01*
X24126430Y32576430D02*
X23149999Y31599999D01*
G04 #@! TO.N,/V1A8*
X6200000Y27450000D02*
X6200000Y28300002D01*
X2200001Y32300001D02*
X1950002Y32550000D01*
X6200000Y28300002D02*
X2200001Y32300001D01*
G04 #@! TO.N,/V1A9*
X9697579Y28702453D02*
X9600031Y28800001D01*
X14399989Y24900054D02*
X14399989Y25917153D01*
X9600031Y28800001D02*
X9350032Y29050000D01*
X11231872Y28244694D02*
X9905579Y28244694D01*
X9905579Y28244694D02*
X9697579Y28452694D01*
X14399989Y25917153D02*
X12913600Y27403542D01*
X12913600Y27403542D02*
X12073024Y27403542D01*
X9697579Y28452694D02*
X9697579Y28702453D01*
X12073024Y27403542D02*
X11231872Y28244694D01*
X15450000Y23850043D02*
X14399989Y24900054D01*
G04 #@! TO.N,/V1A10*
X19047179Y24394833D02*
X19542002Y23900010D01*
X19542002Y23900010D02*
X19617932Y23900010D01*
X19047179Y25810124D02*
X19047179Y24394833D01*
X14919803Y29937500D02*
X19047179Y25810124D01*
X19617932Y23900010D02*
X19971485Y23900010D01*
G04 #@! TO.N,/V1A12*
X1553563Y27287500D02*
X1200010Y27287500D01*
X2162500Y27287500D02*
X1553563Y27287500D01*
X4650000Y24800000D02*
X2162500Y27287500D01*
G04 #@! TO.N,/V1A13*
X10329869Y27287500D02*
X10329869Y25056460D01*
X10650001Y24736328D02*
X10900000Y24486329D01*
X10329869Y25056460D02*
X10650001Y24736328D01*
G04 #@! TO.N,/V1B0*
X11951855Y34650031D02*
X11954719Y34647167D01*
X5739934Y38492924D02*
X7600000Y36632858D01*
X8947900Y34650033D02*
X11951855Y34650031D01*
X14049741Y33713734D02*
X14063497Y33699978D01*
X5739934Y40537500D02*
X5739934Y38492924D01*
X11954719Y34647167D02*
X12752242Y34647167D01*
X7600000Y35997933D02*
X8947900Y34650033D01*
X13685675Y33713734D02*
X14049741Y33713734D01*
X12752242Y34647167D02*
X13685675Y33713734D01*
X7600000Y36632858D02*
X7600000Y35997933D01*
G04 #@! TO.N,/V1B2*
X12750004Y31800004D02*
X12846447Y31800004D01*
X12846447Y31800004D02*
X13200000Y31800004D01*
X10717151Y31000009D02*
X11217153Y31500011D01*
X12450011Y31500011D02*
X12750004Y31800004D01*
X11217153Y31500011D02*
X12450011Y31500011D01*
X5739934Y34060066D02*
X8799991Y31000009D01*
X5739934Y35237501D02*
X5739934Y34060066D01*
X8799991Y31000009D02*
X10717151Y31000009D01*
G04 #@! TO.N,/V1B5*
X20700001Y24150009D02*
X20950000Y23900010D01*
X20250000Y24600010D02*
X20700001Y24150009D01*
X20250000Y31800000D02*
X20250000Y24600010D01*
G04 #@! TO.N,/V1B7*
X19509738Y26750000D02*
X19450000Y26690262D01*
X19450000Y26690262D02*
X19450000Y24911265D01*
X19460741Y24900524D02*
X19460741Y24546971D01*
X19509738Y27287500D02*
X19509738Y26750000D01*
X19450000Y24911265D02*
X19460741Y24900524D01*
G04 #@! TO.N,/V1B8*
X36150002Y37600000D02*
X36196445Y37600000D01*
X36196445Y37600000D02*
X36549998Y37600000D01*
X32600002Y41150000D02*
X36150002Y37600000D01*
G04 #@! TO.N,/V1B9*
X45250000Y40517736D02*
X42796835Y38064571D01*
X47049346Y43187500D02*
X45250000Y41388154D01*
X45250000Y41388154D02*
X45250000Y40517736D01*
G04 #@! TO.N,/V1B11*
X47049346Y37887501D02*
X47049346Y37350001D01*
X47049346Y37350001D02*
X45020961Y35321616D01*
X41949999Y35650001D02*
X41700000Y35900000D01*
X45020961Y35321616D02*
X42278384Y35321616D01*
X42278384Y35321616D02*
X41949999Y35650001D01*
G04 #@! TO.N,/V1B12*
X34182848Y28817152D02*
X33950000Y29050000D01*
X34182848Y26332852D02*
X34182848Y28817152D01*
G04 #@! TO.N,/V1B13*
X47051266Y32585580D02*
X49299347Y30337499D01*
X49299347Y30337499D02*
X49299347Y29932999D01*
X46049999Y23949999D02*
X45800000Y23700000D01*
X47455973Y28089625D02*
X47455973Y25355973D01*
X49299347Y29932999D02*
X47455973Y28089625D01*
X47455973Y25355973D02*
X46049999Y23949999D01*
G04 #@! TO.N,/V1B15*
X47055972Y27280874D02*
X43625098Y23850000D01*
X43625098Y23850000D02*
X43203553Y23850000D01*
X43203553Y23850000D02*
X42850000Y23850000D01*
G04 #@! TO.N,/V1C0*
X29677107Y42200000D02*
X28689607Y43187500D01*
X32142004Y42200000D02*
X29677107Y42200000D01*
X35642005Y38699999D02*
X32142004Y42200000D01*
X36550000Y38450000D02*
X36300001Y38699999D01*
X36300001Y38699999D02*
X35642005Y38699999D01*
G04 #@! TO.N,/V1C2*
X42459411Y38659411D02*
X42459411Y40537500D01*
X42459411Y38309411D02*
X42459411Y38659411D01*
X42150000Y38000000D02*
X42459411Y38309411D01*
G04 #@! TO.N,/V1C3*
X51639281Y40537500D02*
X51639281Y39089281D01*
X51639281Y39089281D02*
X44950001Y32400001D01*
X44950001Y32400001D02*
X44707999Y32400001D01*
X44700000Y32400000D02*
X44250010Y32400000D01*
X44250010Y32400000D02*
X43900009Y32049999D01*
X43900009Y32049999D02*
X43650010Y31800000D01*
G04 #@! TO.N,/V1C4*
X31150000Y35427108D02*
X28689607Y37887501D01*
X33800000Y31750000D02*
X31150000Y34400000D01*
X31150000Y34400000D02*
X31150000Y35427108D01*
G04 #@! TO.N,/V1C7*
X43900005Y30549999D02*
X43650006Y30300000D01*
X44350006Y31000000D02*
X43900005Y30549999D01*
X44599992Y31000000D02*
X44350006Y31000000D01*
X48375881Y34775889D02*
X44599992Y31000000D01*
X51639281Y35237501D02*
X51177669Y34775889D01*
X51177669Y34775889D02*
X48375881Y34775889D01*
G04 #@! TO.N,/V1C9*
X37869477Y30069477D02*
X37869477Y32587500D01*
X35999989Y28199989D02*
X37869477Y30069477D01*
X35999989Y24321495D02*
X35999989Y28199989D01*
X36950000Y24100000D02*
X36221484Y24100000D01*
X36221484Y24100000D02*
X35999989Y24321495D01*
G04 #@! TO.N,/V1C10*
X40414975Y29937500D02*
X38869476Y28392001D01*
X41350001Y24750005D02*
X41600000Y24500006D01*
X42459411Y29937500D02*
X40414975Y29937500D01*
X38869476Y27230530D02*
X41350001Y24750005D01*
X38869476Y28392001D02*
X38869476Y27230530D01*
G04 #@! TO.N,/V1C13*
X38450000Y24803584D02*
X38450000Y24450031D01*
X37869477Y27287500D02*
X38450000Y26706977D01*
X38450000Y26706977D02*
X38450000Y24803584D01*
G04 #@! TO.N,/V2A0*
X14038400Y11938818D02*
X14038400Y11648862D01*
X13663495Y12313723D02*
X14038400Y11938818D01*
X13601993Y12313723D02*
X13663495Y12313723D01*
X12668560Y13247156D02*
X13601993Y12313723D01*
X4800000Y18337500D02*
X4800000Y16000000D01*
X1150000Y21987500D02*
X4800000Y18337500D01*
X11871872Y13247156D02*
X12668560Y13247156D01*
X4800000Y16000000D02*
X7850011Y12949989D01*
X11869008Y13250020D02*
X11871872Y13247156D01*
X7850011Y12949989D02*
X8399207Y12949989D01*
X8399207Y12949989D02*
X8699240Y13250022D01*
X8699240Y13250022D02*
X11869008Y13250020D01*
G04 #@! TO.N,/V2A1*
X14150000Y18167369D02*
X14150000Y15703557D01*
X14150000Y15703557D02*
X14150000Y15350004D01*
X10329869Y21987500D02*
X14150000Y18167369D01*
G04 #@! TO.N,/V2A4*
X10799998Y9599998D02*
X8653565Y9599998D01*
X8653565Y9599998D02*
X1553563Y16700000D01*
X11300000Y10100000D02*
X10799998Y9599998D01*
X12850006Y10100000D02*
X11300000Y10100000D01*
X1553563Y16700000D02*
X1200010Y16700000D01*
G04 #@! TO.N,/V2A5*
X13294106Y13802654D02*
X13544105Y13552655D01*
X10329869Y16687501D02*
X10329869Y15628129D01*
X12449998Y14107998D02*
X12657998Y13899998D01*
X12657998Y13899998D02*
X13196762Y13899998D01*
X12449998Y14157998D02*
X12449998Y14107998D01*
X10329869Y15628129D02*
X11657999Y14299999D01*
X11657999Y14299999D02*
X12307997Y14299999D01*
X12307997Y14299999D02*
X12449998Y14157998D01*
X13196762Y13899998D02*
X13294106Y13802654D01*
G04 #@! TO.N,/V2A6*
X14950000Y15000000D02*
X17149992Y12800008D01*
X17149992Y12800008D02*
X18896423Y12800008D01*
X18896423Y12800008D02*
X18896447Y12799984D01*
X18896447Y12799984D02*
X19250000Y12799984D01*
G04 #@! TO.N,/V2A7*
X23149999Y10399999D02*
X22900000Y10150000D01*
X24126430Y14010744D02*
X24126430Y11376430D01*
X24126430Y11376430D02*
X23149999Y10399999D01*
G04 #@! TO.N,/V2A8*
X2170498Y11387500D02*
X1150000Y11387500D01*
X5607998Y7950000D02*
X2170498Y11387500D01*
X6350000Y7950000D02*
X5607998Y7950000D01*
G04 #@! TO.N,/V2A9*
X11231872Y7044694D02*
X9905579Y7044694D01*
X9697579Y7252694D02*
X9697579Y7502409D01*
X14399989Y4717153D02*
X12913600Y6203542D01*
X9905579Y7044694D02*
X9697579Y7252694D01*
X12073024Y6203542D02*
X11231872Y7044694D01*
X12913600Y6203542D02*
X12073024Y6203542D01*
X9599987Y7600001D02*
X9349988Y7850000D01*
X15450000Y2650043D02*
X14399989Y3700054D01*
X14399989Y3700054D02*
X14399989Y4717153D01*
X9697579Y7502409D02*
X9599987Y7600001D01*
G04 #@! TO.N,/V2A10*
X19047179Y4610124D02*
X19047179Y3099268D01*
X19047179Y3099268D02*
X19546447Y2600000D01*
X19596457Y2600000D02*
X19950010Y2600000D01*
X19546447Y2600000D02*
X19596457Y2600000D01*
X14919803Y8737500D02*
X19047179Y4610124D01*
G04 #@! TO.N,/V2A13*
X10329869Y6087500D02*
X10329869Y3856460D01*
X10650001Y3536328D02*
X10900000Y3286329D01*
X10329869Y3856460D02*
X10650001Y3536328D01*
G04 #@! TO.N,/V2B0*
X8947900Y13450033D02*
X11951855Y13450031D01*
X11954719Y13447167D02*
X12752242Y13447167D01*
X13685675Y12513734D02*
X14049741Y12513734D01*
X5739934Y19337500D02*
X5739934Y17292924D01*
X11951855Y13450031D02*
X11954719Y13447167D01*
X5739934Y17292924D02*
X7600000Y15432858D01*
X7600000Y14797933D02*
X8947900Y13450033D01*
X14049741Y12513734D02*
X14063497Y12499978D01*
X12752242Y13447167D02*
X13685675Y12513734D01*
X7600000Y15432858D02*
X7600000Y14797933D01*
G04 #@! TO.N,/V2B2*
X12750004Y10600004D02*
X12846447Y10600004D01*
X10717151Y9800009D02*
X11217153Y10300011D01*
X12450011Y10300011D02*
X12750004Y10600004D01*
X12846447Y10600004D02*
X13200000Y10600004D01*
X11217153Y10300011D02*
X12450011Y10300011D01*
X5739934Y12860066D02*
X8799991Y9800009D01*
X5739934Y14037501D02*
X5739934Y12860066D01*
X8799991Y9800009D02*
X10717151Y9800009D01*
G04 #@! TO.N,/V2B5*
X20250000Y3300000D02*
X20250000Y10246447D01*
X20950000Y2600000D02*
X20250000Y3300000D01*
X20250000Y10246447D02*
X20250000Y10600000D01*
G04 #@! TO.N,/V2B7*
X19450000Y5650000D02*
X19450000Y3306107D01*
X19509738Y5709738D02*
X19450000Y5650000D01*
X19450000Y3306107D02*
X19447181Y3303288D01*
X19509738Y6087500D02*
X19509738Y5709738D01*
G04 #@! TO.N,/V2B9*
X47049346Y21987500D02*
X45250000Y20188154D01*
X45250000Y20188154D02*
X45250000Y19317736D01*
X45250000Y19317736D02*
X42796835Y16864571D01*
G04 #@! TO.N,/V2B11*
X47049346Y16687501D02*
X47049346Y16150001D01*
X45020961Y14121616D02*
X42278384Y14121616D01*
X47049346Y16150001D02*
X45020961Y14121616D01*
X41949999Y14450001D02*
X41700000Y14700000D01*
X42278384Y14121616D02*
X41949999Y14450001D01*
G04 #@! TO.N,/V2B12*
X34182848Y5132852D02*
X34182848Y7617152D01*
X34182848Y7617152D02*
X33950000Y7850000D01*
G04 #@! TO.N,/V2B13*
X47455973Y6889625D02*
X49299347Y8732999D01*
X48116348Y10320498D02*
X47051266Y11385580D01*
X49299347Y8732999D02*
X49299347Y9137499D01*
X47050000Y2500000D02*
X47455973Y2905973D01*
X47455973Y2905973D02*
X47455973Y6889625D01*
X49299347Y9137499D02*
X48116348Y10320498D01*
G04 #@! TO.N,/V2B15*
X43203553Y2650000D02*
X42850000Y2650000D01*
X43625098Y2650000D02*
X43203553Y2650000D01*
X47055972Y6080874D02*
X43625098Y2650000D01*
G04 #@! TO.N,/V2C2*
X42459411Y17109411D02*
X42459411Y17459411D01*
X42150000Y16800000D02*
X42459411Y17109411D01*
X42459411Y17459411D02*
X42459411Y19337500D01*
G04 #@! TO.N,/V2C3*
X51639281Y19337500D02*
X51639281Y17889281D01*
X51639281Y17889281D02*
X44950001Y11200001D01*
X44950001Y11200001D02*
X44707999Y11200001D01*
X43900009Y10849999D02*
X43650010Y10600000D01*
X44700000Y11200000D02*
X44250010Y11200000D01*
X44250010Y11200000D02*
X43900009Y10849999D01*
G04 #@! TO.N,/V2C4*
X31150000Y13200000D02*
X31150000Y14227108D01*
X33800000Y10550000D02*
X31150000Y13200000D01*
X31150000Y14227108D02*
X28689607Y16687501D01*
G04 #@! TO.N,/V2C7*
X44599992Y9800000D02*
X44350006Y9800000D01*
X43900005Y9349999D02*
X43650006Y9100000D01*
X48375881Y13575889D02*
X44599992Y9800000D01*
X51177669Y13575889D02*
X48375881Y13575889D01*
X44350006Y9800000D02*
X43900005Y9349999D01*
X51639281Y14037501D02*
X51177669Y13575889D01*
G04 #@! TO.N,/V2C9*
X36950000Y2900000D02*
X36221484Y2900000D01*
X35999989Y6999989D02*
X37869477Y8869477D01*
X35999989Y3121495D02*
X35999989Y6999989D01*
X36221484Y2900000D02*
X35999989Y3121495D01*
X37869477Y8869477D02*
X37869477Y11387500D01*
G04 #@! TO.N,/V2C10*
X40414975Y8737500D02*
X38869476Y7192001D01*
X41350001Y3550005D02*
X41600000Y3300006D01*
X38869476Y6030530D02*
X41350001Y3550005D01*
X42459411Y8737500D02*
X40414975Y8737500D01*
X38869476Y7192001D02*
X38869476Y6030530D01*
G04 #@! TO.N,/V2C13*
X38450000Y5506977D02*
X38450000Y3603569D01*
X38450000Y3603569D02*
X38450000Y3250016D01*
X37869477Y6087500D02*
X38450000Y5506977D01*
G04 #@! TO.N,Net-(U-RGB1B-Pad7)*
X33800000Y35750000D02*
X33050000Y36500000D01*
X35549989Y32050000D02*
X33800000Y33799989D01*
X33800000Y33799989D02*
X33800000Y35750000D01*
G04 #@! TO.N,Net-(U-RGB2B-Pad7)*
X35549989Y10850000D02*
X35549989Y12800011D01*
X35549989Y12800011D02*
X33050000Y15300000D01*
G04 #@! TO.N,/LAT1*
X23296447Y37499979D02*
X23650000Y37499979D01*
X22899979Y37499979D02*
X23296447Y37499979D01*
X22400020Y37000020D02*
X22899979Y37499979D01*
X21558012Y37000020D02*
X22400020Y37000020D01*
X14050000Y30300000D02*
X14500000Y30750000D01*
X12750000Y30300000D02*
X14050000Y30300000D01*
X14500000Y30750000D02*
X17342000Y30750000D01*
X17342000Y30750000D02*
X19650001Y33058001D01*
X19650001Y33058001D02*
X19650001Y35092009D01*
X19650001Y35092009D02*
X21558012Y37000020D01*
X32100001Y30550005D02*
X32350000Y30300006D01*
X30096427Y30699999D02*
X31950007Y30699999D01*
X31950007Y30699999D02*
X32100001Y30550005D01*
X23650000Y37146426D02*
X30096427Y30699999D01*
X23650000Y37499979D02*
X23650000Y37146426D01*
X42189975Y37500000D02*
X43200000Y37500000D01*
X41250000Y37500000D02*
X42189975Y37500000D01*
X38700000Y34950000D02*
X41250000Y37500000D01*
X34989981Y30300006D02*
X36000000Y31310025D01*
X32350000Y30300006D02*
X34989981Y30300006D01*
X36000000Y31310025D02*
X36000000Y32150000D01*
X36000000Y32150000D02*
X37450000Y33600000D01*
X37450000Y33600000D02*
X38289975Y33600000D01*
X38700000Y34010025D02*
X38700000Y34950000D01*
X38289975Y33600000D02*
X38700000Y34010025D01*
X12396447Y30300000D02*
X12750000Y30300000D01*
X8517142Y30300000D02*
X12396447Y30300000D01*
X2832847Y35000011D02*
X3817131Y35000011D01*
X3817131Y35000011D02*
X8517142Y30300000D01*
X2500000Y35332858D02*
X2832847Y35000011D01*
X2500000Y37500000D02*
X2500000Y35332858D01*
G04 #@! TO.N,/SCLK1*
X22896447Y37000000D02*
X23250000Y37000000D01*
X22696457Y36800010D02*
X22896447Y37000000D01*
X21700010Y36800010D02*
X22696457Y36800010D01*
X13850000Y29800000D02*
X14587511Y30537511D01*
X13150000Y29800000D02*
X13850000Y29800000D01*
X14587511Y30537511D02*
X17987511Y30537511D01*
X17987511Y30537511D02*
X20550001Y33100001D01*
X20550001Y33100001D02*
X20550001Y35650001D01*
X20550001Y35650001D02*
X21700010Y36800010D01*
X31650001Y30049999D02*
X31900000Y29800000D01*
X31217889Y30482111D02*
X31650001Y30049999D01*
X29767889Y30482111D02*
X31217889Y30482111D01*
X23250000Y37000000D02*
X29767889Y30482111D01*
X41250000Y37000000D02*
X41796447Y37000000D01*
X39000000Y34750000D02*
X41250000Y37000000D01*
X41796447Y37000000D02*
X42150000Y37000000D01*
X38599989Y33399989D02*
X39000000Y33800000D01*
X37649989Y33399989D02*
X38599989Y33399989D01*
X36200011Y31950011D02*
X37649989Y33399989D01*
X39000000Y33800000D02*
X39000000Y34750000D01*
X32500000Y29800000D02*
X32799995Y30099995D01*
X31900000Y29800000D02*
X32500000Y29800000D01*
X32799995Y30099995D02*
X35099996Y30099996D01*
X35099996Y30099996D02*
X36200010Y31200010D01*
X36200010Y31200010D02*
X36200011Y31227178D01*
X36200011Y31227178D02*
X36200011Y31950011D01*
X3734284Y34800000D02*
X2750000Y34800000D01*
X8484271Y30050013D02*
X3734284Y34800000D01*
X11032845Y30050013D02*
X8484271Y30050013D01*
X11282858Y29800000D02*
X11032845Y30050013D01*
X13150000Y29800000D02*
X11282858Y29800000D01*
X1850000Y35700000D02*
X1950000Y35600000D01*
X1850000Y37000000D02*
X1850000Y35700000D01*
X2750000Y34800000D02*
X1950000Y35600000D01*
X1600001Y36750001D02*
X1850000Y37000000D01*
X800000Y35950000D02*
X1600001Y36750001D01*
X1250000Y26400000D02*
X800000Y26850000D01*
X800000Y26850000D02*
X800000Y35950000D01*
G04 #@! TO.N,/GSCLK1*
X23399999Y36250001D02*
X23400001Y36249999D01*
X23400001Y36249999D02*
X23650000Y36000000D01*
X21592737Y36250001D02*
X23399999Y36250001D01*
X11950000Y29200000D02*
X13590301Y29200000D01*
X18187501Y30337501D02*
X20950000Y33100000D01*
X13590301Y29200000D02*
X14727802Y30337501D01*
X14727802Y30337501D02*
X18187501Y30337501D01*
X20950000Y33100000D02*
X20950000Y35607264D01*
X20950000Y35607264D02*
X21592737Y36250001D01*
X30667142Y29300000D02*
X31996447Y29300000D01*
X31996447Y29300000D02*
X32350000Y29300000D01*
X23650000Y36000000D02*
X23899999Y35750001D01*
X24217141Y35750001D02*
X30667142Y29300000D01*
X23899999Y35750001D02*
X24217141Y35750001D01*
X42700000Y36500000D02*
X42950000Y36250000D01*
X39449978Y34599978D02*
X41350000Y36500000D01*
X39449978Y33749978D02*
X39449978Y34599978D01*
X32949986Y29899986D02*
X35182844Y29899988D01*
X32350000Y29300000D02*
X32949986Y29899986D01*
X35182844Y29899988D02*
X36450000Y31167144D01*
X36450000Y31167144D02*
X36450000Y31750000D01*
X41350000Y36500000D02*
X42700000Y36500000D01*
X38850000Y33150000D02*
X39449978Y33749978D01*
X36450000Y31750000D02*
X37850000Y33150000D01*
X37850000Y33150000D02*
X38850000Y33150000D01*
X11950000Y29200000D02*
X11596447Y29200000D01*
X4339452Y33911974D02*
X1638026Y33911974D01*
X1499999Y34050001D02*
X1250000Y34300000D01*
X1638026Y33911974D02*
X1499999Y34050001D01*
X8401424Y29850002D02*
X4339452Y33911974D01*
X11596447Y29200000D02*
X10946445Y29850002D01*
X10946445Y29850002D02*
X8401424Y29850002D01*
G04 #@! TO.N,/LAT2*
X34989981Y9100006D02*
X36000000Y10110025D01*
X22899979Y16299979D02*
X23296447Y16299979D01*
X37450000Y12400000D02*
X38289975Y12400000D01*
X38289975Y12400000D02*
X38700000Y12810025D01*
X32100001Y9350005D02*
X32350000Y9100006D01*
X41250000Y16300000D02*
X42189975Y16300000D01*
X32350000Y9100006D02*
X34989981Y9100006D01*
X19650001Y13892009D02*
X21558012Y15800020D01*
X36000000Y10110025D02*
X36000000Y10950000D01*
X38700000Y12810025D02*
X38700000Y13750000D01*
X23650000Y15946426D02*
X30096427Y9499999D01*
X14500000Y9550000D02*
X17342000Y9550000D01*
X17342000Y9550000D02*
X19650001Y11858001D01*
X22400020Y15800020D02*
X22899979Y16299979D01*
X14050000Y9100000D02*
X14500000Y9550000D01*
X23296447Y16299979D02*
X23650000Y16299979D01*
X12750000Y9100000D02*
X14050000Y9100000D01*
X21558012Y15800020D02*
X22400020Y15800020D01*
X19650001Y11858001D02*
X19650001Y13892009D01*
X30096427Y9499999D02*
X31950007Y9499999D01*
X38700000Y13750000D02*
X41250000Y16300000D01*
X36000000Y10950000D02*
X37450000Y12400000D01*
X31950007Y9499999D02*
X32100001Y9350005D01*
X23650000Y16299979D02*
X23650000Y15946426D01*
X42189975Y16300000D02*
X43200000Y16300000D01*
X8517142Y9100000D02*
X4467142Y13150000D01*
X1699996Y17799996D02*
X1699996Y18900000D01*
X12750000Y9100000D02*
X8517142Y9100000D01*
X4467142Y13150000D02*
X3346443Y13150000D01*
X3346443Y13150000D02*
X800000Y15696443D01*
X800000Y15696443D02*
X800000Y16900000D01*
X800000Y16900000D02*
X1699996Y17799996D01*
G04 #@! TO.N,/SCLK2*
X41250000Y15800000D02*
X41796447Y15800000D01*
X14587511Y9337511D02*
X17987511Y9337511D01*
X21700010Y15600010D02*
X22696457Y15600010D01*
X29767889Y9282111D02*
X31217889Y9282111D01*
X41796447Y15800000D02*
X42150000Y15800000D01*
X32799995Y8899995D02*
X35099996Y8899996D01*
X38599989Y12199989D02*
X39000000Y12600000D01*
X39000000Y12600000D02*
X39000000Y13550000D01*
X17987511Y9337511D02*
X20550001Y11900001D01*
X36200010Y10000010D02*
X36200011Y10027178D01*
X22896447Y15800000D02*
X23250000Y15800000D01*
X31650001Y8849999D02*
X31900000Y8600000D01*
X32500000Y8600000D02*
X32799995Y8899995D01*
X36200011Y10027178D02*
X36200011Y10750011D01*
X13150000Y8600000D02*
X13850000Y8600000D01*
X22696457Y15600010D02*
X22896447Y15800000D01*
X39000000Y13550000D02*
X41250000Y15800000D01*
X20550001Y11900001D02*
X20550001Y14450001D01*
X23250000Y15800000D02*
X29767889Y9282111D01*
X36200011Y10750011D02*
X37649989Y12199989D01*
X37649989Y12199989D02*
X38599989Y12199989D01*
X20550001Y14450001D02*
X21700010Y15600010D01*
X31900000Y8600000D02*
X32500000Y8600000D01*
X31217889Y9282111D02*
X31650001Y8849999D01*
X35099996Y8899996D02*
X36200010Y10000010D01*
X13850000Y8600000D02*
X14587511Y9337511D01*
X1299996Y17949996D02*
X1299996Y18450000D01*
X600000Y17250000D02*
X1299996Y17949996D01*
X600000Y15600000D02*
X600000Y17250000D01*
X649985Y15550015D02*
X600000Y15600000D01*
X11732858Y8600000D02*
X11482847Y8850011D01*
X13150000Y8600000D02*
X11732858Y8600000D01*
X653538Y15550015D02*
X649985Y15550015D01*
X11482847Y8850011D02*
X8484273Y8850011D01*
X4384295Y12949989D02*
X3253564Y12949989D01*
X8484273Y8850011D02*
X4384295Y12949989D01*
X3253564Y12949989D02*
X653538Y15550015D01*
G04 #@! TO.N,/GSCLK2*
X11950000Y8000000D02*
X13590301Y8000000D01*
X21592737Y15050001D02*
X23399999Y15050001D01*
X14727802Y9137501D02*
X18187501Y9137501D01*
X20950000Y11900000D02*
X20950000Y14407264D01*
X20950000Y14407264D02*
X21592737Y15050001D01*
X30667142Y8100000D02*
X31996447Y8100000D01*
X23399999Y15050001D02*
X23400001Y15049999D01*
X18187501Y9137501D02*
X20950000Y11900000D01*
X13590301Y8000000D02*
X14727802Y9137501D01*
X23400001Y15049999D02*
X23650000Y14800000D01*
X31996447Y8100000D02*
X32350000Y8100000D01*
X23650000Y14800000D02*
X23899999Y14550001D01*
X36450000Y9967144D02*
X36450000Y10550000D01*
X23899999Y14550001D02*
X24217141Y14550001D01*
X32949986Y8699986D02*
X35182844Y8699988D01*
X36450000Y10550000D02*
X37850000Y11950000D01*
X42700000Y15300000D02*
X42950000Y15050000D01*
X39449978Y13399978D02*
X41350000Y15300000D01*
X41350000Y15300000D02*
X42700000Y15300000D01*
X24217141Y14550001D02*
X30667142Y8100000D01*
X35182844Y8699988D02*
X36450000Y9967144D01*
X38850000Y11950000D02*
X39449978Y12549978D01*
X37850000Y11950000D02*
X38850000Y11950000D01*
X32350000Y8100000D02*
X32949986Y8699986D01*
X39449978Y12549978D02*
X39449978Y13399978D01*
X2250020Y12749978D02*
X1099997Y13900001D01*
X11299998Y8650002D02*
X8401424Y8650002D01*
X8401424Y8650002D02*
X4301448Y12749978D01*
X1099997Y13900001D02*
X849998Y14150000D01*
X4301448Y12749978D02*
X2250020Y12749978D01*
X11950000Y8000000D02*
X11299998Y8650002D01*
G04 #@! TD*
M02*
