  0
SECTION
  2
HEADER
  9
$ANGBASE
  50
0.0
  9
$ANGDIR
  70
  1
  9
$MEASUREMENT
  70
0
  0
ENDSEC
  0
SECTION
  2
TABLES
  0
TABLE
  2
LTYPE
  70
4
  0
LTYPE
  5
40F
  2
CONTINUOUS
  70
0
  3
Solid line
  72
65
  73
0
  40
0.0
  0
LTYPE
  5
410
  2
DASHDOT
 70
0
  3
Dash Dot ____ _ ____ _
 72
65
 73
4
 40
2.0
 49
1.25
 49
-0.25
 49
0.25
 49
-0.25
  0
LTYPE
  5
411
  2
DASHED
 70
0
  3
Dashed __ __ __ __ __
 72
65
 73
2
 40
0.75
 49
0.5
 49
-0.25
  0
LTYPE
  5
43B
  2
DOTTED
 70
0
  3
Dotted .  .  .  .
 72
65
 73
2
 40
0.2
 49
0.0
 49
-0.2
  0
ENDTAB
  0
TABLE
  2
STYLE
  70
4
  0
STYLE
  2
KICAD
  70
0
  40
0
  41
1
  42
1
  50
0
  71
0
  3
isocp.shx
  0
STYLE
  2
KICADB
  70
0
  40
0
  41
1
  42
1
  50
0
  71
0
  3
isocp.shx
  0
STYLE
  2
KICADI
  70
0
  40
0
  41
1
  42
1
  50
15
  71
0
  3
isocp.shx
  0
STYLE
  2
KICADBI
  70
0
  40
0
  41
1
  42
1
  50
15
  71
0
  3
isocp.shx
  0
ENDTAB
  0
TABLE
  2
LAYER
  70
30
  0
LAYER
  2
BLACK
  70
0
  62
7
  6
CONTINUOUS
  0
LAYER
  2
GRAY1
  70
0
  62
251
  6
CONTINUOUS
  0
LAYER
  2
GRAY2
  70
0
  62
8
  6
CONTINUOUS
  0
LAYER
  2
GRAY3
  70
0
  62
9
  6
CONTINUOUS
  0
LAYER
  2
WHITE
  70
0
  62
7
  6
CONTINUOUS
  0
LAYER
  2
LYELLOW
  70
0
  62
51
  6
CONTINUOUS
  0
LAYER
  2
BLUE1
  70
0
  62
178
  6
CONTINUOUS
  0
LAYER
  2
GREEN1
  70
0
  62
98
  6
CONTINUOUS
  0
LAYER
  2
CYAN1
  70
0
  62
138
  6
CONTINUOUS
  0
LAYER
  2
RED1
  70
0
  62
18
  6
CONTINUOUS
  0
LAYER
  2
MAGENTA1
  70
0
  62
228
  6
CONTINUOUS
  0
LAYER
  2
BROWN1
  70
0
  62
58
  6
CONTINUOUS
  0
LAYER
  2
BLUE2
  70
0
  62
5
  6
CONTINUOUS
  0
LAYER
  2
GREEN2
  70
0
  62
3
  6
CONTINUOUS
  0
LAYER
  2
CYAN2
  70
0
  62
4
  6
CONTINUOUS
  0
LAYER
  2
RED2
  70
0
  62
1
  6
CONTINUOUS
  0
LAYER
  2
MAGENTA2
  70
0
  62
6
  6
CONTINUOUS
  0
LAYER
  2
BROWN2
  70
0
  62
54
  6
CONTINUOUS
  0
LAYER
  2
BLUE3
  70
0
  62
171
  6
CONTINUOUS
  0
LAYER
  2
GREEN3
  70
0
  62
91
  6
CONTINUOUS
  0
LAYER
  2
CYAN3
  70
0
  62
131
  6
CONTINUOUS
  0
LAYER
  2
RED3
  70
0
  62
11
  6
CONTINUOUS
  0
LAYER
  2
MAGENTA3
  70
0
  62
221
  6
CONTINUOUS
  0
LAYER
  2
YELLOW3
  70
0
  62
2
  6
CONTINUOUS
  0
LAYER
  2
BLUE4
  70
0
  62
5
  6
CONTINUOUS
  0
LAYER
  2
GREEN4
  70
0
  62
3
  6
CONTINUOUS
  0
LAYER
  2
CYAN4
  70
0
  62
4
  6
CONTINUOUS
  0
LAYER
  2
RED4
  70
0
  62
1
  6
CONTINUOUS
  0
LAYER
  2
MAGENTA4
  70
0
  62
6
  6
CONTINUOUS
  0
LAYER
  2
YELLOW4
  70
0
  62
2
  6
CONTINUOUS
  0
ENDTAB
  0
ENDSEC
  0
SECTION
  2
ENTITIES
0
LINE
8
BLACK
6
CONTINUOUS
10
55.0822
20
45.075
11
55.0844
21
45.075
0
LINE
8
BLACK
6
CONTINUOUS
10
55.0844
20
45.075
11
55.0865
21
45.0742
0
LINE
8
BLACK
6
CONTINUOUS
10
55.0865
20
45.0742
11
55.0887
21
45.0739
0
LINE
8
BLACK
6
CONTINUOUS
10
55.0887
20
45.0739
11
55.0906
21
45.0727
0
LINE
8
BLACK
6
CONTINUOUS
10
55.0906
20
45.0727
11
55.0927
21
45.072
0
LINE
8
BLACK
6
CONTINUOUS
10
55.0927
20
45.072
11
55.0944
21
45.0706
0
LINE
8
BLACK
6
CONTINUOUS
10
55.0944
20
45.0706
11
55.0963
21
45.0694
0
LINE
8
BLACK
6
CONTINUOUS
10
55.0963
20
45.0694
11
55.0977
21
45.0677
0
LINE
8
BLACK
6
CONTINUOUS
10
55.0977
20
45.0677
11
55.0994
21
45.0663
0
LINE
8
BLACK
6
CONTINUOUS
10
55.0994
20
45.0663
11
55.1006
21
45.0644
0
LINE
8
BLACK
6
CONTINUOUS
10
55.1006
20
45.0644
11
55.102
21
45.0627
0
LINE
8
BLACK
6
CONTINUOUS
10
55.102
20
45.0627
11
55.1027
21
45.0606
0
LINE
8
BLACK
6
CONTINUOUS
10
55.1027
20
45.0606
11
55.1039
21
45.0587
0
LINE
8
BLACK
6
CONTINUOUS
10
55.1039
20
45.0587
11
55.1042
21
45.0565
0
LINE
8
BLACK
6
CONTINUOUS
10
55.1042
20
45.0565
11
55.105
21
45.0544
0
LINE
8
BLACK
6
CONTINUOUS
10
55.105
20
45.0544
11
55.105
21
45.0522
0
LINE
8
BLACK
6
CONTINUOUS
10
55.105
20
45.0522
11
55.105
21
45.0522
0
LINE
8
BLACK
6
CONTINUOUS
10
55.105
20
45.0522
11
55.105
21
-0.002183
0
LINE
8
BLACK
6
CONTINUOUS
10
55.105
20
-0.002183
11
55.105
21
-0.002189
0
LINE
8
BLACK
6
CONTINUOUS
10
55.105
20
-0.002189
11
55.105
21
-0.004408
0
LINE
8
BLACK
6
CONTINUOUS
10
55.105
20
-0.004408
11
55.1042
21
-0.006494
0
LINE
8
BLACK
6
CONTINUOUS
10
55.1042
20
-0.006494
11
55.1039
21
-0.008682
0
LINE
8
BLACK
6
CONTINUOUS
10
55.1039
20
-0.008682
11
55.1027
21
-0.010605
0
LINE
8
BLACK
6
CONTINUOUS
10
55.1027
20
-0.010605
11
55.102
21
-0.012693
0
LINE
8
BLACK
6
CONTINUOUS
10
55.102
20
-0.012693
11
55.1006
21
-0.014395
0
LINE
8
BLACK
6
CONTINUOUS
10
55.1006
20
-0.014395
11
55.0994
21
-0.016317
0
LINE
8
BLACK
6
CONTINUOUS
10
55.0994
20
-0.016317
11
55.0977
21
-0.017743
0
LINE
8
BLACK
6
CONTINUOUS
10
55.0977
20
-0.017743
11
55.0963
21
-0.019446
0
LINE
8
BLACK
6
CONTINUOUS
10
55.0963
20
-0.019446
11
55.0944
21
-0.020558
0
LINE
8
BLACK
6
CONTINUOUS
10
55.0944
20
-0.020558
11
55.0927
21
-0.021984
0
LINE
8
BLACK
6
CONTINUOUS
10
55.0927
20
-0.021984
11
55.0906
21
-0.022742
0
LINE
8
BLACK
6
CONTINUOUS
10
55.0906
20
-0.022742
11
55.0887
21
-0.023854
0
LINE
8
BLACK
6
CONTINUOUS
10
55.0887
20
-0.023854
11
55.0865
21
-0.02424
0
LINE
8
BLACK
6
CONTINUOUS
10
55.0865
20
-0.02424
11
55.0844
21
-0.024999
0
LINE
8
BLACK
6
CONTINUOUS
10
55.0844
20
-0.024999
11
55.0822
21
-0.024999
0
LINE
8
BLACK
6
CONTINUOUS
10
55.0822
20
-0.024999
11
55.0822
21
-0.025
0
LINE
8
BLACK
6
CONTINUOUS
10
55.0822
20
-0.025
11
-0.002183
21
-0.025
0
LINE
8
BLACK
6
CONTINUOUS
10
-0.002183
20
-0.025
11
-0.002189
21
-0.024999
0
LINE
8
BLACK
6
CONTINUOUS
10
-0.002189
20
-0.024999
11
-0.004408
21
-0.024999
0
LINE
8
BLACK
6
CONTINUOUS
10
-0.004408
20
-0.024999
11
-0.006494
21
-0.02424
0
LINE
8
BLACK
6
CONTINUOUS
10
-0.006494
20
-0.02424
11
-0.008682
21
-0.023854
0
LINE
8
BLACK
6
CONTINUOUS
10
-0.008682
20
-0.023854
11
-0.010605
21
-0.022744
0
LINE
8
BLACK
6
CONTINUOUS
10
-0.010605
20
-0.022744
11
-0.012693
21
-0.021984
0
LINE
8
BLACK
6
CONTINUOUS
10
-0.012693
20
-0.021984
11
-0.014394
21
-0.020556
0
LINE
8
BLACK
6
CONTINUOUS
10
-0.014394
20
-0.020556
11
-0.016317
21
-0.019446
0
LINE
8
BLACK
6
CONTINUOUS
10
-0.016317
20
-0.019446
11
-0.017746
21
-0.017743
0
LINE
8
BLACK
6
CONTINUOUS
10
-0.017746
20
-0.017743
11
-0.019446
21
-0.016316
0
LINE
8
BLACK
6
CONTINUOUS
10
-0.019446
20
-0.016316
11
-0.020555
21
-0.014395
0
LINE
8
BLACK
6
CONTINUOUS
10
-0.020555
20
-0.014395
11
-0.021984
21
-0.012692
0
LINE
8
BLACK
6
CONTINUOUS
10
-0.021984
20
-0.012692
11
-0.022744
21
-0.010603
0
LINE
8
BLACK
6
CONTINUOUS
10
-0.022744
20
-0.010603
11
-0.023854
21
-0.008681
0
LINE
8
BLACK
6
CONTINUOUS
10
-0.023854
20
-0.008681
11
-0.02424
21
-0.006495
0
LINE
8
BLACK
6
CONTINUOUS
10
-0.02424
20
-0.006495
11
-0.024999
21
-0.004408
0
LINE
8
BLACK
6
CONTINUOUS
10
-0.024999
20
-0.004408
11
-0.024999
21
-0.002188
0
LINE
8
BLACK
6
CONTINUOUS
10
-0.024999
20
-0.002188
11
-0.025
21
-0.002182
0
LINE
8
BLACK
6
CONTINUOUS
10
-0.025
20
-0.002182
11
-0.024999
21
45.0522
0
LINE
8
BLACK
6
CONTINUOUS
10
-0.024999
20
45.0522
11
-0.024999
21
45.0544
0
LINE
8
BLACK
6
CONTINUOUS
10
-0.024999
20
45.0544
11
-0.024238
21
45.0565
0
LINE
8
BLACK
6
CONTINUOUS
10
-0.024238
20
45.0565
11
-0.023853
21
45.0587
0
LINE
8
BLACK
6
CONTINUOUS
10
-0.023853
20
45.0587
11
-0.022746
21
45.0606
0
LINE
8
BLACK
6
CONTINUOUS
10
-0.022746
20
45.0606
11
-0.021984
21
45.0627
0
LINE
8
BLACK
6
CONTINUOUS
10
-0.021984
20
45.0627
11
-0.020552
21
45.0644
0
LINE
8
BLACK
6
CONTINUOUS
10
-0.020552
20
45.0644
11
-0.019445
21
45.0663
0
LINE
8
BLACK
6
CONTINUOUS
10
-0.019445
20
45.0663
11
-0.017748
21
45.0677
0
LINE
8
BLACK
6
CONTINUOUS
10
-0.017748
20
45.0677
11
-0.016317
21
45.0694
0
LINE
8
BLACK
6
CONTINUOUS
10
-0.016317
20
45.0694
11
-0.01439
21
45.0706
0
LINE
8
BLACK
6
CONTINUOUS
10
-0.01439
20
45.0706
11
-0.012691
21
45.072
0
LINE
8
BLACK
6
CONTINUOUS
10
-0.012691
20
45.072
11
-0.010608
21
45.0727
0
LINE
8
BLACK
6
CONTINUOUS
10
-0.010608
20
45.0727
11
-0.008682
21
45.0739
0
LINE
8
BLACK
6
CONTINUOUS
10
-0.008682
20
45.0739
11
-0.006492
21
45.0742
0
LINE
8
BLACK
6
CONTINUOUS
10
-0.006492
20
45.0742
11
-0.004407
21
45.075
0
LINE
8
BLACK
6
CONTINUOUS
10
-0.004407
20
45.075
11
-0.002189
21
45.075
0
LINE
8
BLACK
6
CONTINUOUS
10
-0.002189
20
45.075
11
-0.002183
21
45.075
0
LINE
8
BLACK
6
CONTINUOUS
10
-0.002183
20
45.075
11
55.0822
21
45.075
0
LINE
8
BLACK
6
CONTINUOUS
10
55.0822
20
45.075
11
55.0822
21
45.075
0
LINE
8
BLACK
6
CONTINUOUS
10
0.025
20
45.025
11
0.025
21
0.025
0
LINE
8
BLACK
6
CONTINUOUS
10
0.025
20
0.025
11
55.055
21
0.025
0
LINE
8
BLACK
6
CONTINUOUS
10
55.055
20
0.025
11
55.055
21
45.025
0
LINE
8
BLACK
6
CONTINUOUS
10
55.055
20
45.025
11
0.025
21
45.025
  0
ENDSEC
  0
EOF
